<?xml version="1.0" encoding="utf-8" standalone="no"?>
<!DOCTYPE svg PUBLIC "-//W3C//DTD SVG 1.1//EN"
  "http://www.w3.org/Graphics/SVG/1.1/DTD/svg11.dtd">
<!-- Created with matplotlib (http://matplotlib.org/) -->
<svg height="345pt" version="1.1" viewBox="0 0 460 345" width="460pt" xmlns="http://www.w3.org/2000/svg" xmlns:xlink="http://www.w3.org/1999/xlink">
 <defs>
  <style type="text/css">
*{stroke-linecap:butt;stroke-linejoin:round;}
  </style>
 </defs>
 <g id="figure_1">
  <g id="patch_1">
   <path d="M 0 345.6 
L 460.8 345.6 
L 460.8 0 
L 0 0 
z
" style="fill:#ffffff;"/>
  </g>
  <g id="axes_1">
   <g id="patch_2">
    <path d="M 57.6 307.584 
L 414.72 307.584 
L 414.72 41.472 
L 57.6 41.472 
z
" style="fill:#ffffff;"/>
   </g>
   <g id="matplotlib.axis_1">
    <g id="xtick_1">
     <g id="line2d_1">
      <path clip-path="url(#pcfca9eeb68)" d="M 57.55926 307.584 
L 57.55926 41.472 
" style="fill:none;stroke:#b0b0b0;stroke-linecap:square;stroke-width:0.8;"/>
     </g>
     <g id="line2d_2">
      <defs>
       <path d="M 0 0 
L 0 3.5 
" id="m4ce781b358" style="stroke:#000000;stroke-width:0.8;"/>
      </defs>
      <g>
       <use style="stroke:#000000;stroke-width:0.8;" x="57.55926" xlink:href="#m4ce781b358" y="307.584"/>
      </g>
     </g>
     <g id="text_1">
      <!-- −2.0 -->
      <defs>
       <path d="M 10.59375 35.5 
L 73.1875 35.5 
L 73.1875 27.203125 
L 10.59375 27.203125 
z
" id="DejaVuSans-2212"/>
       <path d="M 19.1875 8.296875 
L 53.609375 8.296875 
L 53.609375 0 
L 7.328125 0 
L 7.328125 8.296875 
Q 12.9375 14.109375 22.625 23.890625 
Q 32.328125 33.6875 34.8125 36.53125 
Q 39.546875 41.84375 41.421875 45.53125 
Q 43.3125 49.21875 43.3125 52.78125 
Q 43.3125 58.59375 39.234375 62.25 
Q 35.15625 65.921875 28.609375 65.921875 
Q 23.96875 65.921875 18.8125 64.3125 
Q 13.671875 62.703125 7.8125 59.421875 
L 7.8125 69.390625 
Q 13.765625 71.78125 18.9375 73 
Q 24.125 74.21875 28.421875 74.21875 
Q 39.75 74.21875 46.484375 68.546875 
Q 53.21875 62.890625 53.21875 53.421875 
Q 53.21875 48.921875 51.53125 44.890625 
Q 49.859375 40.875 45.40625 35.40625 
Q 44.1875 33.984375 37.640625 27.21875 
Q 31.109375 20.453125 19.1875 8.296875 
" id="DejaVuSans-32"/>
       <path d="M 10.6875 12.40625 
L 21 12.40625 
L 21 0 
L 10.6875 0 
z
" id="DejaVuSans-2e"/>
       <path d="M 31.78125 66.40625 
Q 24.171875 66.40625 20.328125 58.90625 
Q 16.5 51.421875 16.5 36.375 
Q 16.5 21.390625 20.328125 13.890625 
Q 24.171875 6.390625 31.78125 6.390625 
Q 39.453125 6.390625 43.28125 13.890625 
Q 47.125 21.390625 47.125 36.375 
Q 47.125 51.421875 43.28125 58.90625 
Q 39.453125 66.40625 31.78125 66.40625 
M 31.78125 74.21875 
Q 44.046875 74.21875 50.515625 64.515625 
Q 56.984375 54.828125 56.984375 36.375 
Q 56.984375 17.96875 50.515625 8.265625 
Q 44.046875 -1.421875 31.78125 -1.421875 
Q 19.53125 -1.421875 13.0625 8.265625 
Q 6.59375 17.96875 6.59375 36.375 
Q 6.59375 54.828125 13.0625 64.515625 
Q 19.53125 74.21875 31.78125 74.21875 
" id="DejaVuSans-30"/>
      </defs>
      <g transform="translate(45.417854 322.182437)scale(0.1 -0.1)">
       <use xlink:href="#DejaVuSans-2212"/>
       <use x="83.789062" xlink:href="#DejaVuSans-32"/>
       <use x="147.412109" xlink:href="#DejaVuSans-2e"/>
       <use x="179.199219" xlink:href="#DejaVuSans-30"/>
      </g>
     </g>
    </g>
    <g id="xtick_2">
     <g id="line2d_3">
      <path clip-path="url(#pcfca9eeb68)" d="M 102.209445 307.584 
L 102.209445 41.472 
" style="fill:none;stroke:#b0b0b0;stroke-linecap:square;stroke-width:0.8;"/>
     </g>
     <g id="line2d_4">
      <g>
       <use style="stroke:#000000;stroke-width:0.8;" x="102.209445" xlink:href="#m4ce781b358" y="307.584"/>
      </g>
     </g>
     <g id="text_2">
      <!-- −1.5 -->
      <defs>
       <path d="M 12.40625 8.296875 
L 28.515625 8.296875 
L 28.515625 63.921875 
L 10.984375 60.40625 
L 10.984375 69.390625 
L 28.421875 72.90625 
L 38.28125 72.90625 
L 38.28125 8.296875 
L 54.390625 8.296875 
L 54.390625 0 
L 12.40625 0 
z
" id="DejaVuSans-31"/>
       <path d="M 10.796875 72.90625 
L 49.515625 72.90625 
L 49.515625 64.59375 
L 19.828125 64.59375 
L 19.828125 46.734375 
Q 21.96875 47.46875 24.109375 47.828125 
Q 26.265625 48.1875 28.421875 48.1875 
Q 40.625 48.1875 47.75 41.5 
Q 54.890625 34.8125 54.890625 23.390625 
Q 54.890625 11.625 47.5625 5.09375 
Q 40.234375 -1.421875 26.90625 -1.421875 
Q 22.3125 -1.421875 17.546875 -0.640625 
Q 12.796875 0.140625 7.71875 1.703125 
L 7.71875 11.625 
Q 12.109375 9.234375 16.796875 8.0625 
Q 21.484375 6.890625 26.703125 6.890625 
Q 35.15625 6.890625 40.078125 11.328125 
Q 45.015625 15.765625 45.015625 23.390625 
Q 45.015625 31 40.078125 35.4375 
Q 35.15625 39.890625 26.703125 39.890625 
Q 22.75 39.890625 18.8125 39.015625 
Q 14.890625 38.140625 10.796875 36.28125 
z
" id="DejaVuSans-35"/>
      </defs>
      <g transform="translate(90.068039 322.182437)scale(0.1 -0.1)">
       <use xlink:href="#DejaVuSans-2212"/>
       <use x="83.789062" xlink:href="#DejaVuSans-31"/>
       <use x="147.412109" xlink:href="#DejaVuSans-2e"/>
       <use x="179.199219" xlink:href="#DejaVuSans-35"/>
      </g>
     </g>
    </g>
    <g id="xtick_3">
     <g id="line2d_5">
      <path clip-path="url(#pcfca9eeb68)" d="M 146.85963 307.584 
L 146.85963 41.472 
" style="fill:none;stroke:#b0b0b0;stroke-linecap:square;stroke-width:0.8;"/>
     </g>
     <g id="line2d_6">
      <g>
       <use style="stroke:#000000;stroke-width:0.8;" x="146.85963" xlink:href="#m4ce781b358" y="307.584"/>
      </g>
     </g>
     <g id="text_3">
      <!-- −1.0 -->
      <g transform="translate(134.718224 322.182437)scale(0.1 -0.1)">
       <use xlink:href="#DejaVuSans-2212"/>
       <use x="83.789062" xlink:href="#DejaVuSans-31"/>
       <use x="147.412109" xlink:href="#DejaVuSans-2e"/>
       <use x="179.199219" xlink:href="#DejaVuSans-30"/>
      </g>
     </g>
    </g>
    <g id="xtick_4">
     <g id="line2d_7">
      <path clip-path="url(#pcfca9eeb68)" d="M 191.509815 307.584 
L 191.509815 41.472 
" style="fill:none;stroke:#b0b0b0;stroke-linecap:square;stroke-width:0.8;"/>
     </g>
     <g id="line2d_8">
      <g>
       <use style="stroke:#000000;stroke-width:0.8;" x="191.509815" xlink:href="#m4ce781b358" y="307.584"/>
      </g>
     </g>
     <g id="text_4">
      <!-- −0.5 -->
      <g transform="translate(179.368409 322.182437)scale(0.1 -0.1)">
       <use xlink:href="#DejaVuSans-2212"/>
       <use x="83.789062" xlink:href="#DejaVuSans-30"/>
       <use x="147.412109" xlink:href="#DejaVuSans-2e"/>
       <use x="179.199219" xlink:href="#DejaVuSans-35"/>
      </g>
     </g>
    </g>
    <g id="xtick_5">
     <g id="line2d_9">
      <path clip-path="url(#pcfca9eeb68)" d="M 236.16 307.584 
L 236.16 41.472 
" style="fill:none;stroke:#b0b0b0;stroke-linecap:square;stroke-width:0.8;"/>
     </g>
     <g id="line2d_10">
      <g>
       <use style="stroke:#000000;stroke-width:0.8;" x="236.16" xlink:href="#m4ce781b358" y="307.584"/>
      </g>
     </g>
     <g id="text_5">
      <!-- 0.0 -->
      <g transform="translate(228.208438 322.182437)scale(0.1 -0.1)">
       <use xlink:href="#DejaVuSans-30"/>
       <use x="63.623047" xlink:href="#DejaVuSans-2e"/>
       <use x="95.410156" xlink:href="#DejaVuSans-30"/>
      </g>
     </g>
    </g>
    <g id="xtick_6">
     <g id="line2d_11">
      <path clip-path="url(#pcfca9eeb68)" d="M 280.810185 307.584 
L 280.810185 41.472 
" style="fill:none;stroke:#b0b0b0;stroke-linecap:square;stroke-width:0.8;"/>
     </g>
     <g id="line2d_12">
      <g>
       <use style="stroke:#000000;stroke-width:0.8;" x="280.810185" xlink:href="#m4ce781b358" y="307.584"/>
      </g>
     </g>
     <g id="text_6">
      <!-- 0.5 -->
      <g transform="translate(272.858623 322.182437)scale(0.1 -0.1)">
       <use xlink:href="#DejaVuSans-30"/>
       <use x="63.623047" xlink:href="#DejaVuSans-2e"/>
       <use x="95.410156" xlink:href="#DejaVuSans-35"/>
      </g>
     </g>
    </g>
    <g id="xtick_7">
     <g id="line2d_13">
      <path clip-path="url(#pcfca9eeb68)" d="M 325.46037 307.584 
L 325.46037 41.472 
" style="fill:none;stroke:#b0b0b0;stroke-linecap:square;stroke-width:0.8;"/>
     </g>
     <g id="line2d_14">
      <g>
       <use style="stroke:#000000;stroke-width:0.8;" x="325.46037" xlink:href="#m4ce781b358" y="307.584"/>
      </g>
     </g>
     <g id="text_7">
      <!-- 1.0 -->
      <g transform="translate(317.508808 322.182437)scale(0.1 -0.1)">
       <use xlink:href="#DejaVuSans-31"/>
       <use x="63.623047" xlink:href="#DejaVuSans-2e"/>
       <use x="95.410156" xlink:href="#DejaVuSans-30"/>
      </g>
     </g>
    </g>
    <g id="xtick_8">
     <g id="line2d_15">
      <path clip-path="url(#pcfca9eeb68)" d="M 370.110555 307.584 
L 370.110555 41.472 
" style="fill:none;stroke:#b0b0b0;stroke-linecap:square;stroke-width:0.8;"/>
     </g>
     <g id="line2d_16">
      <g>
       <use style="stroke:#000000;stroke-width:0.8;" x="370.110555" xlink:href="#m4ce781b358" y="307.584"/>
      </g>
     </g>
     <g id="text_8">
      <!-- 1.5 -->
      <g transform="translate(362.158993 322.182437)scale(0.1 -0.1)">
       <use xlink:href="#DejaVuSans-31"/>
       <use x="63.623047" xlink:href="#DejaVuSans-2e"/>
       <use x="95.410156" xlink:href="#DejaVuSans-35"/>
      </g>
     </g>
    </g>
    <g id="xtick_9">
     <g id="line2d_17">
      <path clip-path="url(#pcfca9eeb68)" d="M 414.76074 307.584 
L 414.76074 41.472 
" style="fill:none;stroke:#b0b0b0;stroke-linecap:square;stroke-width:0.8;"/>
     </g>
     <g id="line2d_18">
      <g>
       <use style="stroke:#000000;stroke-width:0.8;" x="414.76074" xlink:href="#m4ce781b358" y="307.584"/>
      </g>
     </g>
     <g id="text_9">
      <!-- 2.0 -->
      <g transform="translate(406.809178 322.182437)scale(0.1 -0.1)">
       <use xlink:href="#DejaVuSans-32"/>
       <use x="63.623047" xlink:href="#DejaVuSans-2e"/>
       <use x="95.410156" xlink:href="#DejaVuSans-30"/>
      </g>
     </g>
    </g>
    <g id="text_10">
     <!-- $\gamma_i$ -->
     <defs>
      <path d="M 23.296875 46.09375 
L 28.71875 12.3125 
L 54 54.6875 
L 63.53125 54.6875 
L 30.8125 0 
L 26.765625 -20.796875 
L 17.78125 -20.796875 
L 21.828125 0 
L 15.4375 40.828125 
Q 14.453125 46.96875 9.8125 46.96875 
L 7.421875 46.96875 
L 8.890625 54.6875 
L 12.3125 54.6875 
Q 21.921875 54.6875 23.296875 46.09375 
" id="DejaVuSans-Oblique-3b3"/>
      <path d="M 18.3125 75.984375 
L 27.296875 75.984375 
L 25.09375 64.59375 
L 16.109375 64.59375 
z
M 14.203125 54.6875 
L 23.1875 54.6875 
L 12.5 0 
L 3.515625 0 
z
" id="DejaVuSans-Oblique-69"/>
     </defs>
     <g transform="translate(232.06 335.84025)scale(0.1 -0.1)">
      <use transform="translate(0 0.3125)" xlink:href="#DejaVuSans-Oblique-3b3"/>
      <use transform="translate(59.179688 -16.09375)scale(0.7)" xlink:href="#DejaVuSans-Oblique-69"/>
     </g>
    </g>
   </g>
   <g id="matplotlib.axis_2">
    <g id="ytick_1">
     <g id="line2d_19">
      <path clip-path="url(#pcfca9eeb68)" d="M 57.6 290.957231 
L 414.72 290.957231 
" style="fill:none;stroke:#b0b0b0;stroke-linecap:square;stroke-width:0.8;"/>
     </g>
     <g id="line2d_20">
      <defs>
       <path d="M 0 0 
L -3.5 0 
" id="m6a4c7928f1" style="stroke:#000000;stroke-width:0.8;"/>
      </defs>
      <g>
       <use style="stroke:#000000;stroke-width:0.8;" x="57.6" xlink:href="#m6a4c7928f1" y="290.957231"/>
      </g>
     </g>
     <g id="text_11">
      <!-- ${10^{-5}}$ -->
      <g transform="translate(27.1 294.75645)scale(0.1 -0.1)">
       <use transform="translate(0 0.684375)" xlink:href="#DejaVuSans-31"/>
       <use transform="translate(63.623047 0.684375)" xlink:href="#DejaVuSans-30"/>
       <use transform="translate(128.203125 38.965625)scale(0.7)" xlink:href="#DejaVuSans-2212"/>
       <use transform="translate(186.855469 38.965625)scale(0.7)" xlink:href="#DejaVuSans-35"/>
      </g>
     </g>
    </g>
    <g id="ytick_2">
     <g id="line2d_21">
      <path clip-path="url(#pcfca9eeb68)" d="M 57.6 211.375641 
L 414.72 211.375641 
" style="fill:none;stroke:#b0b0b0;stroke-linecap:square;stroke-width:0.8;"/>
     </g>
     <g id="line2d_22">
      <g>
       <use style="stroke:#000000;stroke-width:0.8;" x="57.6" xlink:href="#m6a4c7928f1" y="211.375641"/>
      </g>
     </g>
     <g id="text_12">
      <!-- ${10^{-4}}$ -->
      <defs>
       <path d="M 37.796875 64.3125 
L 12.890625 25.390625 
L 37.796875 25.390625 
z
M 35.203125 72.90625 
L 47.609375 72.90625 
L 47.609375 25.390625 
L 58.015625 25.390625 
L 58.015625 17.1875 
L 47.609375 17.1875 
L 47.609375 0 
L 37.796875 0 
L 37.796875 17.1875 
L 4.890625 17.1875 
L 4.890625 26.703125 
z
" id="DejaVuSans-34"/>
      </defs>
      <g transform="translate(27.1 215.174859)scale(0.1 -0.1)">
       <use transform="translate(0 0.684375)" xlink:href="#DejaVuSans-31"/>
       <use transform="translate(63.623047 0.684375)" xlink:href="#DejaVuSans-30"/>
       <use transform="translate(128.203125 38.965625)scale(0.7)" xlink:href="#DejaVuSans-2212"/>
       <use transform="translate(186.855469 38.965625)scale(0.7)" xlink:href="#DejaVuSans-34"/>
      </g>
     </g>
    </g>
    <g id="ytick_3">
     <g id="line2d_23">
      <path clip-path="url(#pcfca9eeb68)" d="M 57.6 131.79405 
L 414.72 131.79405 
" style="fill:none;stroke:#b0b0b0;stroke-linecap:square;stroke-width:0.8;"/>
     </g>
     <g id="line2d_24">
      <g>
       <use style="stroke:#000000;stroke-width:0.8;" x="57.6" xlink:href="#m6a4c7928f1" y="131.79405"/>
      </g>
     </g>
     <g id="text_13">
      <!-- ${10^{-3}}$ -->
      <defs>
       <path d="M 40.578125 39.3125 
Q 47.65625 37.796875 51.625 33 
Q 55.609375 28.21875 55.609375 21.1875 
Q 55.609375 10.40625 48.1875 4.484375 
Q 40.765625 -1.421875 27.09375 -1.421875 
Q 22.515625 -1.421875 17.65625 -0.515625 
Q 12.796875 0.390625 7.625 2.203125 
L 7.625 11.71875 
Q 11.71875 9.328125 16.59375 8.109375 
Q 21.484375 6.890625 26.8125 6.890625 
Q 36.078125 6.890625 40.9375 10.546875 
Q 45.796875 14.203125 45.796875 21.1875 
Q 45.796875 27.640625 41.28125 31.265625 
Q 36.765625 34.90625 28.71875 34.90625 
L 20.21875 34.90625 
L 20.21875 43.015625 
L 29.109375 43.015625 
Q 36.375 43.015625 40.234375 45.921875 
Q 44.09375 48.828125 44.09375 54.296875 
Q 44.09375 59.90625 40.109375 62.90625 
Q 36.140625 65.921875 28.71875 65.921875 
Q 24.65625 65.921875 20.015625 65.03125 
Q 15.375 64.15625 9.8125 62.3125 
L 9.8125 71.09375 
Q 15.4375 72.65625 20.34375 73.4375 
Q 25.25 74.21875 29.59375 74.21875 
Q 40.828125 74.21875 47.359375 69.109375 
Q 53.90625 64.015625 53.90625 55.328125 
Q 53.90625 49.265625 50.4375 45.09375 
Q 46.96875 40.921875 40.578125 39.3125 
" id="DejaVuSans-33"/>
      </defs>
      <g transform="translate(27.1 135.593269)scale(0.1 -0.1)">
       <use transform="translate(0 0.765625)" xlink:href="#DejaVuSans-31"/>
       <use transform="translate(63.623047 0.765625)" xlink:href="#DejaVuSans-30"/>
       <use transform="translate(128.203125 39.046875)scale(0.7)" xlink:href="#DejaVuSans-2212"/>
       <use transform="translate(186.855469 39.046875)scale(0.7)" xlink:href="#DejaVuSans-33"/>
      </g>
     </g>
    </g>
    <g id="ytick_4">
     <g id="line2d_25">
      <path clip-path="url(#pcfca9eeb68)" d="M 57.6 52.21246 
L 414.72 52.21246 
" style="fill:none;stroke:#b0b0b0;stroke-linecap:square;stroke-width:0.8;"/>
     </g>
     <g id="line2d_26">
      <g>
       <use style="stroke:#000000;stroke-width:0.8;" x="57.6" xlink:href="#m6a4c7928f1" y="52.21246"/>
      </g>
     </g>
     <g id="text_14">
      <!-- ${10^{-2}}$ -->
      <g transform="translate(27.1 56.011679)scale(0.1 -0.1)">
       <use transform="translate(0 0.765625)" xlink:href="#DejaVuSans-31"/>
       <use transform="translate(63.623047 0.765625)" xlink:href="#DejaVuSans-30"/>
       <use transform="translate(128.203125 39.046875)scale(0.7)" xlink:href="#DejaVuSans-2212"/>
       <use transform="translate(186.855469 39.046875)scale(0.7)" xlink:href="#DejaVuSans-32"/>
      </g>
     </g>
    </g>
    <g id="ytick_5">
     <g id="line2d_27">
      <defs>
       <path d="M 0 0 
L -2 0 
" id="maab0b9c7d3" style="stroke:#000000;stroke-width:0.6;"/>
      </defs>
      <g>
       <use style="stroke:#000000;stroke-width:0.6;" x="57.6" xlink:href="#maab0b9c7d3" y="303.284575"/>
      </g>
     </g>
    </g>
    <g id="ytick_6">
     <g id="line2d_28">
      <g>
       <use style="stroke:#000000;stroke-width:0.6;" x="57.6" xlink:href="#maab0b9c7d3" y="298.669484"/>
      </g>
     </g>
    </g>
    <g id="ytick_7">
     <g id="line2d_29">
      <g>
       <use style="stroke:#000000;stroke-width:0.6;" x="57.6" xlink:href="#maab0b9c7d3" y="294.598685"/>
      </g>
     </g>
    </g>
    <g id="ytick_8">
     <g id="line2d_30">
      <g>
       <use style="stroke:#000000;stroke-width:0.6;" x="57.6" xlink:href="#maab0b9c7d3" y="267.000785"/>
      </g>
     </g>
    </g>
    <g id="ytick_9">
     <g id="line2d_31">
      <g>
       <use style="stroke:#000000;stroke-width:0.6;" x="57.6" xlink:href="#maab0b9c7d3" y="252.987163"/>
      </g>
     </g>
    </g>
    <g id="ytick_10">
     <g id="line2d_32">
      <g>
       <use style="stroke:#000000;stroke-width:0.6;" x="57.6" xlink:href="#maab0b9c7d3" y="243.044339"/>
      </g>
     </g>
    </g>
    <g id="ytick_11">
     <g id="line2d_33">
      <g>
       <use style="stroke:#000000;stroke-width:0.6;" x="57.6" xlink:href="#maab0b9c7d3" y="235.332086"/>
      </g>
     </g>
    </g>
    <g id="ytick_12">
     <g id="line2d_34">
      <g>
       <use style="stroke:#000000;stroke-width:0.6;" x="57.6" xlink:href="#maab0b9c7d3" y="229.030717"/>
      </g>
     </g>
    </g>
    <g id="ytick_13">
     <g id="line2d_35">
      <g>
       <use style="stroke:#000000;stroke-width:0.6;" x="57.6" xlink:href="#maab0b9c7d3" y="223.702985"/>
      </g>
     </g>
    </g>
    <g id="ytick_14">
     <g id="line2d_36">
      <g>
       <use style="stroke:#000000;stroke-width:0.6;" x="57.6" xlink:href="#maab0b9c7d3" y="219.087894"/>
      </g>
     </g>
    </g>
    <g id="ytick_15">
     <g id="line2d_37">
      <g>
       <use style="stroke:#000000;stroke-width:0.6;" x="57.6" xlink:href="#maab0b9c7d3" y="215.017095"/>
      </g>
     </g>
    </g>
    <g id="ytick_16">
     <g id="line2d_38">
      <g>
       <use style="stroke:#000000;stroke-width:0.6;" x="57.6" xlink:href="#maab0b9c7d3" y="187.419195"/>
      </g>
     </g>
    </g>
    <g id="ytick_17">
     <g id="line2d_39">
      <g>
       <use style="stroke:#000000;stroke-width:0.6;" x="57.6" xlink:href="#maab0b9c7d3" y="173.405572"/>
      </g>
     </g>
    </g>
    <g id="ytick_18">
     <g id="line2d_40">
      <g>
       <use style="stroke:#000000;stroke-width:0.6;" x="57.6" xlink:href="#maab0b9c7d3" y="163.462749"/>
      </g>
     </g>
    </g>
    <g id="ytick_19">
     <g id="line2d_41">
      <g>
       <use style="stroke:#000000;stroke-width:0.6;" x="57.6" xlink:href="#maab0b9c7d3" y="155.750496"/>
      </g>
     </g>
    </g>
    <g id="ytick_20">
     <g id="line2d_42">
      <g>
       <use style="stroke:#000000;stroke-width:0.6;" x="57.6" xlink:href="#maab0b9c7d3" y="149.449127"/>
      </g>
     </g>
    </g>
    <g id="ytick_21">
     <g id="line2d_43">
      <g>
       <use style="stroke:#000000;stroke-width:0.6;" x="57.6" xlink:href="#maab0b9c7d3" y="144.121395"/>
      </g>
     </g>
    </g>
    <g id="ytick_22">
     <g id="line2d_44">
      <g>
       <use style="stroke:#000000;stroke-width:0.6;" x="57.6" xlink:href="#maab0b9c7d3" y="139.506303"/>
      </g>
     </g>
    </g>
    <g id="ytick_23">
     <g id="line2d_45">
      <g>
       <use style="stroke:#000000;stroke-width:0.6;" x="57.6" xlink:href="#maab0b9c7d3" y="135.435504"/>
      </g>
     </g>
    </g>
    <g id="ytick_24">
     <g id="line2d_46">
      <g>
       <use style="stroke:#000000;stroke-width:0.6;" x="57.6" xlink:href="#maab0b9c7d3" y="107.837604"/>
      </g>
     </g>
    </g>
    <g id="ytick_25">
     <g id="line2d_47">
      <g>
       <use style="stroke:#000000;stroke-width:0.6;" x="57.6" xlink:href="#maab0b9c7d3" y="93.823982"/>
      </g>
     </g>
    </g>
    <g id="ytick_26">
     <g id="line2d_48">
      <g>
       <use style="stroke:#000000;stroke-width:0.6;" x="57.6" xlink:href="#maab0b9c7d3" y="83.881159"/>
      </g>
     </g>
    </g>
    <g id="ytick_27">
     <g id="line2d_49">
      <g>
       <use style="stroke:#000000;stroke-width:0.6;" x="57.6" xlink:href="#maab0b9c7d3" y="76.168906"/>
      </g>
     </g>
    </g>
    <g id="ytick_28">
     <g id="line2d_50">
      <g>
       <use style="stroke:#000000;stroke-width:0.6;" x="57.6" xlink:href="#maab0b9c7d3" y="69.867536"/>
      </g>
     </g>
    </g>
    <g id="ytick_29">
     <g id="line2d_51">
      <g>
       <use style="stroke:#000000;stroke-width:0.6;" x="57.6" xlink:href="#maab0b9c7d3" y="64.539804"/>
      </g>
     </g>
    </g>
    <g id="ytick_30">
     <g id="line2d_52">
      <g>
       <use style="stroke:#000000;stroke-width:0.6;" x="57.6" xlink:href="#maab0b9c7d3" y="59.924713"/>
      </g>
     </g>
    </g>
    <g id="ytick_31">
     <g id="line2d_53">
      <g>
       <use style="stroke:#000000;stroke-width:0.6;" x="57.6" xlink:href="#maab0b9c7d3" y="55.853914"/>
      </g>
     </g>
    </g>
    <g id="text_15">
     <!-- $\omega_i$ -->
     <defs>
      <path d="M 21.390625 -1.421875 
Q 1.125 -1.421875 6.78125 27.59375 
Q 8.984375 39.0625 19.625 54.6875 
L 29.296875 54.6875 
Q 19.234375 39.0625 17 27.34375 
Q 12.796875 6.203125 23.734375 6.203125 
Q 33.84375 6.203125 38.71875 32.46875 
L 47.015625 32.46875 
Q 41.703125 6.0625 51.8125 6.203125 
Q 62.703125 6.296875 66.796875 27.34375 
Q 69.046875 39.0625 65.140625 54.6875 
L 74.8125 54.6875 
Q 79.296875 39.0625 77.09375 27.59375 
Q 71.53125 -1.46875 51.21875 -1.421875 
Q 37.9375 -1.375 39.109375 13.1875 
Q 34.28125 -1.421875 21.390625 -1.421875 
" id="DejaVuSans-Oblique-3c9"/>
     </defs>
     <g transform="translate(21.020313 179.828)rotate(-90)scale(0.1 -0.1)">
      <use transform="translate(0 0.3125)" xlink:href="#DejaVuSans-Oblique-3c9"/>
      <use transform="translate(83.740234 -16.09375)scale(0.7)" xlink:href="#DejaVuSans-Oblique-69"/>
     </g>
    </g>
   </g>
   <g id="line2d_54">
    <defs>
     <path d="M 0 3 
C 0.795609 3 1.55874 2.683901 2.12132 2.12132 
C 2.683901 1.55874 3 0.795609 3 0 
C 3 -0.795609 2.683901 -1.55874 2.12132 -2.12132 
C 1.55874 -2.683901 0.795609 -3 0 -3 
C -0.795609 -3 -1.55874 -2.683901 -2.12132 -2.12132 
C -2.683901 -1.55874 -3 -0.795609 -3 0 
C -3 0.795609 -2.683901 1.55874 -2.12132 2.12132 
C -1.55874 2.683901 -0.795609 3 0 3 
z
" id="m87a907dc97" style="stroke:#1f77b4;"/>
    </defs>
    <g clip-path="url(#pcfca9eeb68)">
     <use style="fill:#1f77b4;stroke:#1f77b4;" x="147.022554" xlink:href="#m87a907dc97" y="247.606651"/>
     <use style="fill:#1f77b4;stroke:#1f77b4;" x="151.744377" xlink:href="#m87a907dc97" y="131.00285"/>
     <use style="fill:#1f77b4;stroke:#1f77b4;" x="152.662703" xlink:href="#m87a907dc97" y="125.232063"/>
     <use style="fill:#1f77b4;stroke:#1f77b4;" x="325.297446" xlink:href="#m87a907dc97" y="247.606651"/>
     <use style="fill:#1f77b4;stroke:#1f77b4;" x="319.657297" xlink:href="#m87a907dc97" y="125.232063"/>
     <use style="fill:#1f77b4;stroke:#1f77b4;" x="318.662784" xlink:href="#m87a907dc97" y="119.964567"/>
     <use style="fill:#1f77b4;stroke:#1f77b4;" x="147.226069" xlink:href="#m87a907dc97" y="219.63199"/>
     <use style="fill:#1f77b4;stroke:#1f77b4;" x="155.871099" xlink:href="#m87a907dc97" y="110.668791"/>
     <use style="fill:#1f77b4;stroke:#1f77b4;" x="150.903073" xlink:href="#m87a907dc97" y="137.368779"/>
     <use style="fill:#1f77b4;stroke:#1f77b4;" x="317.592994" xlink:href="#m87a907dc97" y="115.128991"/>
     <use style="fill:#1f77b4;stroke:#1f77b4;" x="312.581584" xlink:href="#m87a907dc97" y="99.124605"/>
     <use style="fill:#1f77b4;stroke:#1f77b4;" x="320.575623" xlink:href="#m87a907dc97" y="131.00285"/>
     <use style="fill:#1f77b4;stroke:#1f77b4;" x="153.657216" xlink:href="#m87a907dc97" y="119.964567"/>
     <use style="fill:#1f77b4;stroke:#1f77b4;" x="157.088449" xlink:href="#m87a907dc97" y="106.538409"/>
     <use style="fill:#1f77b4;stroke:#1f77b4;" x="147.51073" xlink:href="#m87a907dc97" y="199.819987"/>
     <use style="fill:#1f77b4;stroke:#1f77b4;" x="315.231551" xlink:href="#m87a907dc97" y="106.538409"/>
     <use style="fill:#1f77b4;stroke:#1f77b4;" x="313.942053" xlink:href="#m87a907dc97" y="102.700617"/>
     <use style="fill:#1f77b4;stroke:#1f77b4;" x="325.093931" xlink:href="#m87a907dc97" y="219.63199"/>
     <use style="fill:#1f77b4;stroke:#1f77b4;" x="164.232916" xlink:href="#m87a907dc97" y="89.728725"/>
     <use style="fill:#1f77b4;stroke:#1f77b4;" x="154.727006" xlink:href="#m87a907dc97" y="115.128991"/>
     <use style="fill:#1f77b4;stroke:#1f77b4;" x="147.876278" xlink:href="#m87a907dc97" y="184.490212"/>
     <use style="fill:#1f77b4;stroke:#1f77b4;" x="306.455776" xlink:href="#m87a907dc97" y="86.978383"/>
     <use style="fill:#1f77b4;stroke:#1f77b4;" x="149.454536" xlink:href="#m87a907dc97" y="152.412931"/>
     <use style="fill:#1f77b4;stroke:#1f77b4;" x="162.667236" xlink:href="#m87a907dc97" y="92.658821"/>
     <use style="fill:#1f77b4;stroke:#1f77b4;" x="158.377947" xlink:href="#m87a907dc97" y="102.700617"/>
     <use style="fill:#1f77b4;stroke:#1f77b4;" x="322.180439" xlink:href="#m87a907dc97" y="144.45084"/>
     <use style="fill:#1f77b4;stroke:#1f77b4;" x="304.760328" xlink:href="#m87a907dc97" y="84.394028"/>
     <use style="fill:#1f77b4;stroke:#1f77b4;" x="309.652764" xlink:href="#m87a907dc97" y="92.658821"/>
     <use style="fill:#1f77b4;stroke:#1f77b4;" x="146.90037" xlink:href="#m87a907dc97" y="295.488"/>
     <use style="fill:#1f77b4;stroke:#1f77b4;" x="178.988756" xlink:href="#m87a907dc97" y="71.796492"/>
     <use style="fill:#1f77b4;stroke:#1f77b4;" x="325.41963" xlink:href="#m87a907dc97" y="295.488"/>
     <use style="fill:#1f77b4;stroke:#1f77b4;" x="311.151386" xlink:href="#m87a907dc97" y="95.784598"/>
     <use style="fill:#1f77b4;stroke:#1f77b4;" x="299.304897" xlink:href="#m87a907dc97" y="77.524446"/>
     <use style="fill:#1f77b4;stroke:#1f77b4;" x="324.443722" xlink:href="#m87a907dc97" y="184.490212"/>
     <use style="fill:#1f77b4;stroke:#1f77b4;" x="171.136743" xlink:href="#m87a907dc97" y="79.676893"/>
     <use style="fill:#1f77b4;stroke:#1f77b4;" x="161.168614" xlink:href="#m87a907dc97" y="95.784598"/>
     <use style="fill:#1f77b4;stroke:#1f77b4;" x="324.80927" xlink:href="#m87a907dc97" y="199.819987"/>
     <use style="fill:#1f77b4;stroke:#1f77b4;" x="293.331244" xlink:href="#m87a907dc97" y="71.796492"/>
     <use style="fill:#1f77b4;stroke:#1f77b4;" x="303.002287" xlink:href="#m87a907dc97" y="81.963688"/>
     <use style="fill:#1f77b4;stroke:#1f77b4;" x="148.322378" xlink:href="#m87a907dc97" y="172.003327"/>
     <use style="fill:#1f77b4;stroke:#1f77b4;" x="185.431608" xlink:href="#m87a907dc97" y="67.034586"/>
     <use style="fill:#1f77b4;stroke:#1f77b4;" x="275.252818" xlink:href="#m87a907dc97" y="60.92098"/>
     <use style="fill:#1f77b4;stroke:#1f77b4;" x="308.087084" xlink:href="#m87a907dc97" y="89.728725"/>
     <use style="fill:#1f77b4;stroke:#1f77b4;" x="291.233224" xlink:href="#m87a907dc97" y="70.108879"/>
     <use style="fill:#1f77b4;stroke:#1f77b4;" x="323.471375" xlink:href="#m87a907dc97" y="161.484881"/>
     <use style="fill:#1f77b4;stroke:#1f77b4;" x="183.235047" xlink:href="#m87a907dc97" y="68.5231"/>
     <use style="fill:#1f77b4;stroke:#1f77b4;" x="165.864224" xlink:href="#m87a907dc97" y="86.978383"/>
     <use style="fill:#1f77b4;stroke:#1f77b4;" x="321.416927" xlink:href="#m87a907dc97" y="137.368779"/>
     <use style="fill:#1f77b4;stroke:#1f77b4;" x="280.029219" xlink:href="#m87a907dc97" y="63.11363"/>
     <use style="fill:#1f77b4;stroke:#1f77b4;" x="316.448901" xlink:href="#m87a907dc97" y="110.668791"/>
     <use style="fill:#1f77b4;stroke:#1f77b4;" x="167.559672" xlink:href="#m87a907dc97" y="84.394028"/>
     <use style="fill:#1f77b4;stroke:#1f77b4;" x="192.290781" xlink:href="#m87a907dc97" y="63.11363"/>
     <use style="fill:#1f77b4;stroke:#1f77b4;" x="301.183257" xlink:href="#m87a907dc97" y="79.676893"/>
     <use style="fill:#1f77b4;stroke:#1f77b4;" x="289.084953" xlink:href="#m87a907dc97" y="68.5231"/>
     <use style="fill:#1f77b4;stroke:#1f77b4;" x="286.888392" xlink:href="#m87a907dc97" y="67.034586"/>
     <use style="fill:#1f77b4;stroke:#1f77b4;" x="150.139561" xlink:href="#m87a907dc97" y="144.45084"/>
     <use style="fill:#1f77b4;stroke:#1f77b4;" x="194.660049" xlink:href="#m87a907dc97" y="61.977069"/>
     <use style="fill:#1f77b4;stroke:#1f77b4;" x="181.086776" xlink:href="#m87a907dc97" y="70.108879"/>
     <use style="fill:#1f77b4;stroke:#1f77b4;" x="173.015103" xlink:href="#m87a907dc97" y="77.524446"/>
     <use style="fill:#1f77b4;stroke:#1f77b4;" x="272.810015" xlink:href="#m87a907dc97" y="59.94294"/>
     <use style="fill:#1f77b4;stroke:#1f77b4;" x="169.317713" xlink:href="#m87a907dc97" y="81.963688"/>
     <use style="fill:#1f77b4;stroke:#1f77b4;" x="148.848625" xlink:href="#m87a907dc97" y="161.484881"/>
     <use style="fill:#1f77b4;stroke:#1f77b4;" x="197.067182" xlink:href="#m87a907dc97" y="60.92098"/>
     <use style="fill:#1f77b4;stroke:#1f77b4;" x="207.02997" xlink:href="#m87a907dc97" y="57.456424"/>
     <use style="fill:#1f77b4;stroke:#1f77b4;" x="277.659951" xlink:href="#m87a907dc97" y="61.977069"/>
     <use style="fill:#1f77b4;stroke:#1f77b4;" x="282.358458" xlink:href="#m87a907dc97" y="64.333355"/>
     <use style="fill:#1f77b4;stroke:#1f77b4;" x="174.951078" xlink:href="#m87a907dc97" y="75.498226"/>
     <use style="fill:#1f77b4;stroke:#1f77b4;" x="199.509985" xlink:href="#m87a907dc97" y="59.94294"/>
     <use style="fill:#1f77b4;stroke:#1f77b4;" x="322.865464" xlink:href="#m87a907dc97" y="152.412931"/>
     <use style="fill:#1f77b4;stroke:#1f77b4;" x="323.997622" xlink:href="#m87a907dc97" y="172.003327"/>
     <use style="fill:#1f77b4;stroke:#1f77b4;" x="267.826348" xlink:href="#m87a907dc97" y="58.212516"/>
     <use style="fill:#1f77b4;stroke:#1f77b4;" x="159.738416" xlink:href="#m87a907dc97" y="99.124605"/>
     <use style="fill:#1f77b4;stroke:#1f77b4;" x="189.961542" xlink:href="#m87a907dc97" y="64.333355"/>
     <use style="fill:#1f77b4;stroke:#1f77b4;" x="201.986228" xlink:href="#m87a907dc97" y="59.040771"/>
     <use style="fill:#1f77b4;stroke:#1f77b4;" x="297.368922" xlink:href="#m87a907dc97" y="75.498226"/>
     <use style="fill:#1f77b4;stroke:#1f77b4;" x="270.333772" xlink:href="#m87a907dc97" y="59.040771"/>
     <use style="fill:#1f77b4;stroke:#1f77b4;" x="252.256842" xlink:href="#m87a907dc97" y="54.709628"/>
     <use style="fill:#1f77b4;stroke:#1f77b4;" x="176.942901" xlink:href="#m87a907dc97" y="73.59104"/>
     <use style="fill:#1f77b4;stroke:#1f77b4;" x="209.592867" xlink:href="#m87a907dc97" y="56.770934"/>
     <use style="fill:#1f77b4;stroke:#1f77b4;" x="187.674455" xlink:href="#m87a907dc97" y="65.639234"/>
     <use style="fill:#1f77b4;stroke:#1f77b4;" x="284.645545" xlink:href="#m87a907dc97" y="65.639234"/>
     <use style="fill:#1f77b4;stroke:#1f77b4;" x="262.727133" xlink:href="#m87a907dc97" y="56.770934"/>
     <use style="fill:#1f77b4;stroke:#1f77b4;" x="238.857142" xlink:href="#m87a907dc97" y="53.599542"/>
     <use style="fill:#1f77b4;stroke:#1f77b4;" x="222.723464" xlink:href="#m87a907dc97" y="54.359459"/>
     <use style="fill:#1f77b4;stroke:#1f77b4;" x="214.789023" xlink:href="#m87a907dc97" y="55.60637"/>
     <use style="fill:#1f77b4;stroke:#1f77b4;" x="246.92397" xlink:href="#m87a907dc97" y="54.073836"/>
     <use style="fill:#1f77b4;stroke:#1f77b4;" x="260.139995" xlink:href="#m87a907dc97" y="56.154657"/>
     <use style="fill:#1f77b4;stroke:#1f77b4;" x="295.377099" xlink:href="#m87a907dc97" y="73.59104"/>
     <use style="fill:#1f77b4;stroke:#1f77b4;" x="204.493652" xlink:href="#m87a907dc97" y="58.212516"/>
     <use style="fill:#1f77b4;stroke:#1f77b4;" x="212.180005" xlink:href="#m87a907dc97" y="56.154657"/>
     <use style="fill:#1f77b4;stroke:#1f77b4;" x="230.768178" xlink:href="#m87a907dc97" y="53.694228"/>
     <use style="fill:#1f77b4;stroke:#1f77b4;" x="265.29003" xlink:href="#m87a907dc97" y="57.456424"/>
     <use style="fill:#1f77b4;stroke:#1f77b4;" x="257.530977" xlink:href="#m87a907dc97" y="55.60637"/>
     <use style="fill:#1f77b4;stroke:#1f77b4;" x="233.462858" xlink:href="#m87a907dc97" y="53.599542"/>
     <use style="fill:#1f77b4;stroke:#1f77b4;" x="217.41754" xlink:href="#m87a907dc97" y="55.125002"/>
     <use style="fill:#1f77b4;stroke:#1f77b4;" x="225.39603" xlink:href="#m87a907dc97" y="54.073836"/>
     <use style="fill:#1f77b4;stroke:#1f77b4;" x="241.551822" xlink:href="#m87a907dc97" y="53.694228"/>
     <use style="fill:#1f77b4;stroke:#1f77b4;" x="254.90246" xlink:href="#m87a907dc97" y="55.125002"/>
     <use style="fill:#1f77b4;stroke:#1f77b4;" x="244.241583" xlink:href="#m87a907dc97" y="53.852229"/>
     <use style="fill:#1f77b4;stroke:#1f77b4;" x="228.078417" xlink:href="#m87a907dc97" y="53.852229"/>
     <use style="fill:#1f77b4;stroke:#1f77b4;" x="220.063158" xlink:href="#m87a907dc97" y="54.709628"/>
     <use style="fill:#1f77b4;stroke:#1f77b4;" x="236.16" xlink:href="#m87a907dc97" y="53.568"/>
     <use style="fill:#1f77b4;stroke:#1f77b4;" x="249.596536" xlink:href="#m87a907dc97" y="54.359459"/>
    </g>
   </g>
   <g id="patch_3">
    <path d="M 57.6 307.584 
L 57.6 41.472 
" style="fill:none;stroke:#000000;stroke-linecap:square;stroke-linejoin:miter;stroke-width:0.8;"/>
   </g>
   <g id="patch_4">
    <path d="M 414.72 307.584 
L 414.72 41.472 
" style="fill:none;stroke:#000000;stroke-linecap:square;stroke-linejoin:miter;stroke-width:0.8;"/>
   </g>
   <g id="patch_5">
    <path d="M 57.6 307.584 
L 414.72 307.584 
" style="fill:none;stroke:#000000;stroke-linecap:square;stroke-linejoin:miter;stroke-width:0.8;"/>
   </g>
   <g id="patch_6">
    <path d="M 57.6 41.472 
L 414.72 41.472 
" style="fill:none;stroke:#000000;stroke-linecap:square;stroke-linejoin:miter;stroke-width:0.8;"/>
   </g>
  </g>
 </g>
 <defs>
  <clipPath id="pcfca9eeb68">
   <rect height="266.112" width="357.12" x="57.6" y="41.472"/>
  </clipPath>
 </defs>
</svg>
