<?xml version="1.0" encoding="utf-8" standalone="no"?>
<!DOCTYPE svg PUBLIC "-//W3C//DTD SVG 1.1//EN"
  "http://www.w3.org/Graphics/SVG/1.1/DTD/svg11.dtd">
<!-- Created with matplotlib (http://matplotlib.org/) -->
<svg height="345pt" version="1.1" viewBox="0 0 460 345" width="460pt" xmlns="http://www.w3.org/2000/svg" xmlns:xlink="http://www.w3.org/1999/xlink">
 <defs>
  <style type="text/css">
*{stroke-linecap:butt;stroke-linejoin:round;}
  </style>
 </defs>
 <g id="figure_1">
  <g id="patch_1">
   <path d="M 0 345.6 
L 460.8 345.6 
L 460.8 0 
L 0 0 
z
" style="fill:#ffffff;"/>
  </g>
  <g id="axes_1">
   <g id="patch_2">
    <path d="M 57.6 307.584 
L 414.72 307.584 
L 414.72 41.472 
L 57.6 41.472 
z
" style="fill:#ffffff;"/>
   </g>
   <g id="matplotlib.axis_1">
    <g id="xtick_1">
     <g id="line2d_1">
      <path clip-path="url(#p94308339cd)" d="M 57.564873 307.584 
L 57.564873 41.472 
" style="fill:none;stroke:#b0b0b0;stroke-linecap:square;stroke-width:0.8;"/>
     </g>
     <g id="line2d_2">
      <defs>
       <path d="M 0 0 
L 0 3.5 
" id="m640bd33ba0" style="stroke:#000000;stroke-width:0.8;"/>
      </defs>
      <g>
       <use style="stroke:#000000;stroke-width:0.8;" x="57.564873" xlink:href="#m640bd33ba0" y="307.584"/>
      </g>
     </g>
     <g id="text_1">
      <!-- −2.0 -->
      <defs>
       <path d="M 10.59375 35.5 
L 73.1875 35.5 
L 73.1875 27.203125 
L 10.59375 27.203125 
z
" id="DejaVuSans-2212"/>
       <path d="M 19.1875 8.296875 
L 53.609375 8.296875 
L 53.609375 0 
L 7.328125 0 
L 7.328125 8.296875 
Q 12.9375 14.109375 22.625 23.890625 
Q 32.328125 33.6875 34.8125 36.53125 
Q 39.546875 41.84375 41.421875 45.53125 
Q 43.3125 49.21875 43.3125 52.78125 
Q 43.3125 58.59375 39.234375 62.25 
Q 35.15625 65.921875 28.609375 65.921875 
Q 23.96875 65.921875 18.8125 64.3125 
Q 13.671875 62.703125 7.8125 59.421875 
L 7.8125 69.390625 
Q 13.765625 71.78125 18.9375 73 
Q 24.125 74.21875 28.421875 74.21875 
Q 39.75 74.21875 46.484375 68.546875 
Q 53.21875 62.890625 53.21875 53.421875 
Q 53.21875 48.921875 51.53125 44.890625 
Q 49.859375 40.875 45.40625 35.40625 
Q 44.1875 33.984375 37.640625 27.21875 
Q 31.109375 20.453125 19.1875 8.296875 
" id="DejaVuSans-32"/>
       <path d="M 10.6875 12.40625 
L 21 12.40625 
L 21 0 
L 10.6875 0 
z
" id="DejaVuSans-2e"/>
       <path d="M 31.78125 66.40625 
Q 24.171875 66.40625 20.328125 58.90625 
Q 16.5 51.421875 16.5 36.375 
Q 16.5 21.390625 20.328125 13.890625 
Q 24.171875 6.390625 31.78125 6.390625 
Q 39.453125 6.390625 43.28125 13.890625 
Q 47.125 21.390625 47.125 36.375 
Q 47.125 51.421875 43.28125 58.90625 
Q 39.453125 66.40625 31.78125 66.40625 
M 31.78125 74.21875 
Q 44.046875 74.21875 50.515625 64.515625 
Q 56.984375 54.828125 56.984375 36.375 
Q 56.984375 17.96875 50.515625 8.265625 
Q 44.046875 -1.421875 31.78125 -1.421875 
Q 19.53125 -1.421875 13.0625 8.265625 
Q 6.59375 17.96875 6.59375 36.375 
Q 6.59375 54.828125 13.0625 64.515625 
Q 19.53125 74.21875 31.78125 74.21875 
" id="DejaVuSans-30"/>
      </defs>
      <g transform="translate(45.423466 322.182437)scale(0.1 -0.1)">
       <use xlink:href="#DejaVuSans-2212"/>
       <use x="83.789062" xlink:href="#DejaVuSans-32"/>
       <use x="147.412109" xlink:href="#DejaVuSans-2e"/>
       <use x="179.199219" xlink:href="#DejaVuSans-30"/>
      </g>
     </g>
    </g>
    <g id="xtick_2">
     <g id="line2d_3">
      <path clip-path="url(#p94308339cd)" d="M 102.213655 307.584 
L 102.213655 41.472 
" style="fill:none;stroke:#b0b0b0;stroke-linecap:square;stroke-width:0.8;"/>
     </g>
     <g id="line2d_4">
      <g>
       <use style="stroke:#000000;stroke-width:0.8;" x="102.213655" xlink:href="#m640bd33ba0" y="307.584"/>
      </g>
     </g>
     <g id="text_2">
      <!-- −1.5 -->
      <defs>
       <path d="M 12.40625 8.296875 
L 28.515625 8.296875 
L 28.515625 63.921875 
L 10.984375 60.40625 
L 10.984375 69.390625 
L 28.421875 72.90625 
L 38.28125 72.90625 
L 38.28125 8.296875 
L 54.390625 8.296875 
L 54.390625 0 
L 12.40625 0 
z
" id="DejaVuSans-31"/>
       <path d="M 10.796875 72.90625 
L 49.515625 72.90625 
L 49.515625 64.59375 
L 19.828125 64.59375 
L 19.828125 46.734375 
Q 21.96875 47.46875 24.109375 47.828125 
Q 26.265625 48.1875 28.421875 48.1875 
Q 40.625 48.1875 47.75 41.5 
Q 54.890625 34.8125 54.890625 23.390625 
Q 54.890625 11.625 47.5625 5.09375 
Q 40.234375 -1.421875 26.90625 -1.421875 
Q 22.3125 -1.421875 17.546875 -0.640625 
Q 12.796875 0.140625 7.71875 1.703125 
L 7.71875 11.625 
Q 12.109375 9.234375 16.796875 8.0625 
Q 21.484375 6.890625 26.703125 6.890625 
Q 35.15625 6.890625 40.078125 11.328125 
Q 45.015625 15.765625 45.015625 23.390625 
Q 45.015625 31 40.078125 35.4375 
Q 35.15625 39.890625 26.703125 39.890625 
Q 22.75 39.890625 18.8125 39.015625 
Q 14.890625 38.140625 10.796875 36.28125 
z
" id="DejaVuSans-35"/>
      </defs>
      <g transform="translate(90.072248 322.182437)scale(0.1 -0.1)">
       <use xlink:href="#DejaVuSans-2212"/>
       <use x="83.789062" xlink:href="#DejaVuSans-31"/>
       <use x="147.412109" xlink:href="#DejaVuSans-2e"/>
       <use x="179.199219" xlink:href="#DejaVuSans-35"/>
      </g>
     </g>
    </g>
    <g id="xtick_3">
     <g id="line2d_5">
      <path clip-path="url(#p94308339cd)" d="M 146.862436 307.584 
L 146.862436 41.472 
" style="fill:none;stroke:#b0b0b0;stroke-linecap:square;stroke-width:0.8;"/>
     </g>
     <g id="line2d_6">
      <g>
       <use style="stroke:#000000;stroke-width:0.8;" x="146.862436" xlink:href="#m640bd33ba0" y="307.584"/>
      </g>
     </g>
     <g id="text_3">
      <!-- −1.0 -->
      <g transform="translate(134.72103 322.182437)scale(0.1 -0.1)">
       <use xlink:href="#DejaVuSans-2212"/>
       <use x="83.789062" xlink:href="#DejaVuSans-31"/>
       <use x="147.412109" xlink:href="#DejaVuSans-2e"/>
       <use x="179.199219" xlink:href="#DejaVuSans-30"/>
      </g>
     </g>
    </g>
    <g id="xtick_4">
     <g id="line2d_7">
      <path clip-path="url(#p94308339cd)" d="M 191.511218 307.584 
L 191.511218 41.472 
" style="fill:none;stroke:#b0b0b0;stroke-linecap:square;stroke-width:0.8;"/>
     </g>
     <g id="line2d_8">
      <g>
       <use style="stroke:#000000;stroke-width:0.8;" x="191.511218" xlink:href="#m640bd33ba0" y="307.584"/>
      </g>
     </g>
     <g id="text_4">
      <!-- −0.5 -->
      <g transform="translate(179.369812 322.182437)scale(0.1 -0.1)">
       <use xlink:href="#DejaVuSans-2212"/>
       <use x="83.789062" xlink:href="#DejaVuSans-30"/>
       <use x="147.412109" xlink:href="#DejaVuSans-2e"/>
       <use x="179.199219" xlink:href="#DejaVuSans-35"/>
      </g>
     </g>
    </g>
    <g id="xtick_5">
     <g id="line2d_9">
      <path clip-path="url(#p94308339cd)" d="M 236.16 307.584 
L 236.16 41.472 
" style="fill:none;stroke:#b0b0b0;stroke-linecap:square;stroke-width:0.8;"/>
     </g>
     <g id="line2d_10">
      <g>
       <use style="stroke:#000000;stroke-width:0.8;" x="236.16" xlink:href="#m640bd33ba0" y="307.584"/>
      </g>
     </g>
     <g id="text_5">
      <!-- 0.0 -->
      <g transform="translate(228.208437 322.182437)scale(0.1 -0.1)">
       <use xlink:href="#DejaVuSans-30"/>
       <use x="63.623047" xlink:href="#DejaVuSans-2e"/>
       <use x="95.410156" xlink:href="#DejaVuSans-30"/>
      </g>
     </g>
    </g>
    <g id="xtick_6">
     <g id="line2d_11">
      <path clip-path="url(#p94308339cd)" d="M 280.808782 307.584 
L 280.808782 41.472 
" style="fill:none;stroke:#b0b0b0;stroke-linecap:square;stroke-width:0.8;"/>
     </g>
     <g id="line2d_12">
      <g>
       <use style="stroke:#000000;stroke-width:0.8;" x="280.808782" xlink:href="#m640bd33ba0" y="307.584"/>
      </g>
     </g>
     <g id="text_6">
      <!-- 0.5 -->
      <g transform="translate(272.857219 322.182437)scale(0.1 -0.1)">
       <use xlink:href="#DejaVuSans-30"/>
       <use x="63.623047" xlink:href="#DejaVuSans-2e"/>
       <use x="95.410156" xlink:href="#DejaVuSans-35"/>
      </g>
     </g>
    </g>
    <g id="xtick_7">
     <g id="line2d_13">
      <path clip-path="url(#p94308339cd)" d="M 325.457564 307.584 
L 325.457564 41.472 
" style="fill:none;stroke:#b0b0b0;stroke-linecap:square;stroke-width:0.8;"/>
     </g>
     <g id="line2d_14">
      <g>
       <use style="stroke:#000000;stroke-width:0.8;" x="325.457564" xlink:href="#m640bd33ba0" y="307.584"/>
      </g>
     </g>
     <g id="text_7">
      <!-- 1.0 -->
      <g transform="translate(317.506001 322.182437)scale(0.1 -0.1)">
       <use xlink:href="#DejaVuSans-31"/>
       <use x="63.623047" xlink:href="#DejaVuSans-2e"/>
       <use x="95.410156" xlink:href="#DejaVuSans-30"/>
      </g>
     </g>
    </g>
    <g id="xtick_8">
     <g id="line2d_15">
      <path clip-path="url(#p94308339cd)" d="M 370.106345 307.584 
L 370.106345 41.472 
" style="fill:none;stroke:#b0b0b0;stroke-linecap:square;stroke-width:0.8;"/>
     </g>
     <g id="line2d_16">
      <g>
       <use style="stroke:#000000;stroke-width:0.8;" x="370.106345" xlink:href="#m640bd33ba0" y="307.584"/>
      </g>
     </g>
     <g id="text_8">
      <!-- 1.5 -->
      <g transform="translate(362.154783 322.182437)scale(0.1 -0.1)">
       <use xlink:href="#DejaVuSans-31"/>
       <use x="63.623047" xlink:href="#DejaVuSans-2e"/>
       <use x="95.410156" xlink:href="#DejaVuSans-35"/>
      </g>
     </g>
    </g>
    <g id="xtick_9">
     <g id="line2d_17">
      <path clip-path="url(#p94308339cd)" d="M 414.755127 307.584 
L 414.755127 41.472 
" style="fill:none;stroke:#b0b0b0;stroke-linecap:square;stroke-width:0.8;"/>
     </g>
     <g id="line2d_18">
      <g>
       <use style="stroke:#000000;stroke-width:0.8;" x="414.755127" xlink:href="#m640bd33ba0" y="307.584"/>
      </g>
     </g>
     <g id="text_9">
      <!-- 2.0 -->
      <g transform="translate(406.803565 322.182437)scale(0.1 -0.1)">
       <use xlink:href="#DejaVuSans-32"/>
       <use x="63.623047" xlink:href="#DejaVuSans-2e"/>
       <use x="95.410156" xlink:href="#DejaVuSans-30"/>
      </g>
     </g>
    </g>
    <g id="text_10">
     <!-- $\gamma_i$ -->
     <defs>
      <path d="M 23.296875 46.09375 
L 28.71875 12.3125 
L 54 54.6875 
L 63.53125 54.6875 
L 30.8125 0 
L 26.765625 -20.796875 
L 17.78125 -20.796875 
L 21.828125 0 
L 15.4375 40.828125 
Q 14.453125 46.96875 9.8125 46.96875 
L 7.421875 46.96875 
L 8.890625 54.6875 
L 12.3125 54.6875 
Q 21.921875 54.6875 23.296875 46.09375 
" id="DejaVuSans-Oblique-3b3"/>
      <path d="M 18.3125 75.984375 
L 27.296875 75.984375 
L 25.09375 64.59375 
L 16.109375 64.59375 
z
M 14.203125 54.6875 
L 23.1875 54.6875 
L 12.5 0 
L 3.515625 0 
z
" id="DejaVuSans-Oblique-69"/>
     </defs>
     <g transform="translate(232.06 335.84025)scale(0.1 -0.1)">
      <use transform="translate(0 0.3125)" xlink:href="#DejaVuSans-Oblique-3b3"/>
      <use transform="translate(59.179688 -16.09375)scale(0.7)" xlink:href="#DejaVuSans-Oblique-69"/>
     </g>
    </g>
   </g>
   <g id="matplotlib.axis_2">
    <g id="ytick_1">
     <g id="line2d_19">
      <path clip-path="url(#p94308339cd)" d="M 57.6 283.527935 
L 414.72 283.527935 
" style="fill:none;stroke:#b0b0b0;stroke-linecap:square;stroke-width:0.8;"/>
     </g>
     <g id="line2d_20">
      <defs>
       <path d="M 0 0 
L -3.5 0 
" id="m27e4cbbea8" style="stroke:#000000;stroke-width:0.8;"/>
      </defs>
      <g>
       <use style="stroke:#000000;stroke-width:0.8;" x="57.6" xlink:href="#m27e4cbbea8" y="283.527935"/>
      </g>
     </g>
     <g id="text_11">
      <!-- ${10^{-5}}$ -->
      <g transform="translate(27.1 287.327154)scale(0.1 -0.1)">
       <use transform="translate(0 0.684375)" xlink:href="#DejaVuSans-31"/>
       <use transform="translate(63.623047 0.684375)" xlink:href="#DejaVuSans-30"/>
       <use transform="translate(128.203125 38.965625)scale(0.7)" xlink:href="#DejaVuSans-2212"/>
       <use transform="translate(186.855469 38.965625)scale(0.7)" xlink:href="#DejaVuSans-35"/>
      </g>
     </g>
    </g>
    <g id="ytick_2">
     <g id="line2d_21">
      <path clip-path="url(#p94308339cd)" d="M 57.6 205.596073 
L 414.72 205.596073 
" style="fill:none;stroke:#b0b0b0;stroke-linecap:square;stroke-width:0.8;"/>
     </g>
     <g id="line2d_22">
      <g>
       <use style="stroke:#000000;stroke-width:0.8;" x="57.6" xlink:href="#m27e4cbbea8" y="205.596073"/>
      </g>
     </g>
     <g id="text_12">
      <!-- ${10^{-4}}$ -->
      <defs>
       <path d="M 37.796875 64.3125 
L 12.890625 25.390625 
L 37.796875 25.390625 
z
M 35.203125 72.90625 
L 47.609375 72.90625 
L 47.609375 25.390625 
L 58.015625 25.390625 
L 58.015625 17.1875 
L 47.609375 17.1875 
L 47.609375 0 
L 37.796875 0 
L 37.796875 17.1875 
L 4.890625 17.1875 
L 4.890625 26.703125 
z
" id="DejaVuSans-34"/>
      </defs>
      <g transform="translate(27.1 209.395292)scale(0.1 -0.1)">
       <use transform="translate(0 0.684375)" xlink:href="#DejaVuSans-31"/>
       <use transform="translate(63.623047 0.684375)" xlink:href="#DejaVuSans-30"/>
       <use transform="translate(128.203125 38.965625)scale(0.7)" xlink:href="#DejaVuSans-2212"/>
       <use transform="translate(186.855469 38.965625)scale(0.7)" xlink:href="#DejaVuSans-34"/>
      </g>
     </g>
    </g>
    <g id="ytick_3">
     <g id="line2d_23">
      <path clip-path="url(#p94308339cd)" d="M 57.6 127.66421 
L 414.72 127.66421 
" style="fill:none;stroke:#b0b0b0;stroke-linecap:square;stroke-width:0.8;"/>
     </g>
     <g id="line2d_24">
      <g>
       <use style="stroke:#000000;stroke-width:0.8;" x="57.6" xlink:href="#m27e4cbbea8" y="127.66421"/>
      </g>
     </g>
     <g id="text_13">
      <!-- ${10^{-3}}$ -->
      <defs>
       <path d="M 40.578125 39.3125 
Q 47.65625 37.796875 51.625 33 
Q 55.609375 28.21875 55.609375 21.1875 
Q 55.609375 10.40625 48.1875 4.484375 
Q 40.765625 -1.421875 27.09375 -1.421875 
Q 22.515625 -1.421875 17.65625 -0.515625 
Q 12.796875 0.390625 7.625 2.203125 
L 7.625 11.71875 
Q 11.71875 9.328125 16.59375 8.109375 
Q 21.484375 6.890625 26.8125 6.890625 
Q 36.078125 6.890625 40.9375 10.546875 
Q 45.796875 14.203125 45.796875 21.1875 
Q 45.796875 27.640625 41.28125 31.265625 
Q 36.765625 34.90625 28.71875 34.90625 
L 20.21875 34.90625 
L 20.21875 43.015625 
L 29.109375 43.015625 
Q 36.375 43.015625 40.234375 45.921875 
Q 44.09375 48.828125 44.09375 54.296875 
Q 44.09375 59.90625 40.109375 62.90625 
Q 36.140625 65.921875 28.71875 65.921875 
Q 24.65625 65.921875 20.015625 65.03125 
Q 15.375 64.15625 9.8125 62.3125 
L 9.8125 71.09375 
Q 15.4375 72.65625 20.34375 73.4375 
Q 25.25 74.21875 29.59375 74.21875 
Q 40.828125 74.21875 47.359375 69.109375 
Q 53.90625 64.015625 53.90625 55.328125 
Q 53.90625 49.265625 50.4375 45.09375 
Q 46.96875 40.921875 40.578125 39.3125 
" id="DejaVuSans-33"/>
      </defs>
      <g transform="translate(27.1 131.463429)scale(0.1 -0.1)">
       <use transform="translate(0 0.765625)" xlink:href="#DejaVuSans-31"/>
       <use transform="translate(63.623047 0.765625)" xlink:href="#DejaVuSans-30"/>
       <use transform="translate(128.203125 39.046875)scale(0.7)" xlink:href="#DejaVuSans-2212"/>
       <use transform="translate(186.855469 39.046875)scale(0.7)" xlink:href="#DejaVuSans-33"/>
      </g>
     </g>
    </g>
    <g id="ytick_4">
     <g id="line2d_25">
      <path clip-path="url(#p94308339cd)" d="M 57.6 49.732348 
L 414.72 49.732348 
" style="fill:none;stroke:#b0b0b0;stroke-linecap:square;stroke-width:0.8;"/>
     </g>
     <g id="line2d_26">
      <g>
       <use style="stroke:#000000;stroke-width:0.8;" x="57.6" xlink:href="#m27e4cbbea8" y="49.732348"/>
      </g>
     </g>
     <g id="text_14">
      <!-- ${10^{-2}}$ -->
      <g transform="translate(27.1 53.531567)scale(0.1 -0.1)">
       <use transform="translate(0 0.765625)" xlink:href="#DejaVuSans-31"/>
       <use transform="translate(63.623047 0.765625)" xlink:href="#DejaVuSans-30"/>
       <use transform="translate(128.203125 39.046875)scale(0.7)" xlink:href="#DejaVuSans-2212"/>
       <use transform="translate(186.855469 39.046875)scale(0.7)" xlink:href="#DejaVuSans-32"/>
      </g>
     </g>
    </g>
    <g id="ytick_5">
     <g id="line2d_27">
      <defs>
       <path d="M 0 0 
L -2 0 
" id="m542259e2c5" style="stroke:#000000;stroke-width:0.6;"/>
      </defs>
      <g>
       <use style="stroke:#000000;stroke-width:0.6;" x="57.6" xlink:href="#m542259e2c5" y="306.987764"/>
      </g>
     </g>
    </g>
    <g id="ytick_6">
     <g id="line2d_28">
      <g>
       <use style="stroke:#000000;stroke-width:0.6;" x="57.6" xlink:href="#m542259e2c5" y="300.817022"/>
      </g>
     </g>
    </g>
    <g id="ytick_7">
     <g id="line2d_29">
      <g>
       <use style="stroke:#000000;stroke-width:0.6;" x="57.6" xlink:href="#m542259e2c5" y="295.599734"/>
      </g>
     </g>
    </g>
    <g id="ytick_8">
     <g id="line2d_30">
      <g>
       <use style="stroke:#000000;stroke-width:0.6;" x="57.6" xlink:href="#m542259e2c5" y="291.080313"/>
      </g>
     </g>
    </g>
    <g id="ytick_9">
     <g id="line2d_31">
      <g>
       <use style="stroke:#000000;stroke-width:0.6;" x="57.6" xlink:href="#m542259e2c5" y="287.093902"/>
      </g>
     </g>
    </g>
    <g id="ytick_10">
     <g id="line2d_32">
      <g>
       <use style="stroke:#000000;stroke-width:0.6;" x="57.6" xlink:href="#m542259e2c5" y="260.068107"/>
      </g>
     </g>
    </g>
    <g id="ytick_11">
     <g id="line2d_33">
      <g>
       <use style="stroke:#000000;stroke-width:0.6;" x="57.6" xlink:href="#m542259e2c5" y="246.344987"/>
      </g>
     </g>
    </g>
    <g id="ytick_12">
     <g id="line2d_34">
      <g>
       <use style="stroke:#000000;stroke-width:0.6;" x="57.6" xlink:href="#m542259e2c5" y="236.608279"/>
      </g>
     </g>
    </g>
    <g id="ytick_13">
     <g id="line2d_35">
      <g>
       <use style="stroke:#000000;stroke-width:0.6;" x="57.6" xlink:href="#m542259e2c5" y="229.055901"/>
      </g>
     </g>
    </g>
    <g id="ytick_14">
     <g id="line2d_36">
      <g>
       <use style="stroke:#000000;stroke-width:0.6;" x="57.6" xlink:href="#m542259e2c5" y="222.885159"/>
      </g>
     </g>
    </g>
    <g id="ytick_15">
     <g id="line2d_37">
      <g>
       <use style="stroke:#000000;stroke-width:0.6;" x="57.6" xlink:href="#m542259e2c5" y="217.667871"/>
      </g>
     </g>
    </g>
    <g id="ytick_16">
     <g id="line2d_38">
      <g>
       <use style="stroke:#000000;stroke-width:0.6;" x="57.6" xlink:href="#m542259e2c5" y="213.148451"/>
      </g>
     </g>
    </g>
    <g id="ytick_17">
     <g id="line2d_39">
      <g>
       <use style="stroke:#000000;stroke-width:0.6;" x="57.6" xlink:href="#m542259e2c5" y="209.162039"/>
      </g>
     </g>
    </g>
    <g id="ytick_18">
     <g id="line2d_40">
      <g>
       <use style="stroke:#000000;stroke-width:0.6;" x="57.6" xlink:href="#m542259e2c5" y="182.136245"/>
      </g>
     </g>
    </g>
    <g id="ytick_19">
     <g id="line2d_41">
      <g>
       <use style="stroke:#000000;stroke-width:0.6;" x="57.6" xlink:href="#m542259e2c5" y="168.413125"/>
      </g>
     </g>
    </g>
    <g id="ytick_20">
     <g id="line2d_42">
      <g>
       <use style="stroke:#000000;stroke-width:0.6;" x="57.6" xlink:href="#m542259e2c5" y="158.676416"/>
      </g>
     </g>
    </g>
    <g id="ytick_21">
     <g id="line2d_43">
      <g>
       <use style="stroke:#000000;stroke-width:0.6;" x="57.6" xlink:href="#m542259e2c5" y="151.124039"/>
      </g>
     </g>
    </g>
    <g id="ytick_22">
     <g id="line2d_44">
      <g>
       <use style="stroke:#000000;stroke-width:0.6;" x="57.6" xlink:href="#m542259e2c5" y="144.953297"/>
      </g>
     </g>
    </g>
    <g id="ytick_23">
     <g id="line2d_45">
      <g>
       <use style="stroke:#000000;stroke-width:0.6;" x="57.6" xlink:href="#m542259e2c5" y="139.736009"/>
      </g>
     </g>
    </g>
    <g id="ytick_24">
     <g id="line2d_46">
      <g>
       <use style="stroke:#000000;stroke-width:0.6;" x="57.6" xlink:href="#m542259e2c5" y="135.216588"/>
      </g>
     </g>
    </g>
    <g id="ytick_25">
     <g id="line2d_47">
      <g>
       <use style="stroke:#000000;stroke-width:0.6;" x="57.6" xlink:href="#m542259e2c5" y="131.230177"/>
      </g>
     </g>
    </g>
    <g id="ytick_26">
     <g id="line2d_48">
      <g>
       <use style="stroke:#000000;stroke-width:0.6;" x="57.6" xlink:href="#m542259e2c5" y="104.204382"/>
      </g>
     </g>
    </g>
    <g id="ytick_27">
     <g id="line2d_49">
      <g>
       <use style="stroke:#000000;stroke-width:0.6;" x="57.6" xlink:href="#m542259e2c5" y="90.481262"/>
      </g>
     </g>
    </g>
    <g id="ytick_28">
     <g id="line2d_50">
      <g>
       <use style="stroke:#000000;stroke-width:0.6;" x="57.6" xlink:href="#m542259e2c5" y="80.744554"/>
      </g>
     </g>
    </g>
    <g id="ytick_29">
     <g id="line2d_51">
      <g>
       <use style="stroke:#000000;stroke-width:0.6;" x="57.6" xlink:href="#m542259e2c5" y="73.192176"/>
      </g>
     </g>
    </g>
    <g id="ytick_30">
     <g id="line2d_52">
      <g>
       <use style="stroke:#000000;stroke-width:0.6;" x="57.6" xlink:href="#m542259e2c5" y="67.021434"/>
      </g>
     </g>
    </g>
    <g id="ytick_31">
     <g id="line2d_53">
      <g>
       <use style="stroke:#000000;stroke-width:0.6;" x="57.6" xlink:href="#m542259e2c5" y="61.804146"/>
      </g>
     </g>
    </g>
    <g id="ytick_32">
     <g id="line2d_54">
      <g>
       <use style="stroke:#000000;stroke-width:0.6;" x="57.6" xlink:href="#m542259e2c5" y="57.284726"/>
      </g>
     </g>
    </g>
    <g id="ytick_33">
     <g id="line2d_55">
      <g>
       <use style="stroke:#000000;stroke-width:0.6;" x="57.6" xlink:href="#m542259e2c5" y="53.298314"/>
      </g>
     </g>
    </g>
    <g id="text_15">
     <!-- $\omega_i$ -->
     <defs>
      <path d="M 21.390625 -1.421875 
Q 1.125 -1.421875 6.78125 27.59375 
Q 8.984375 39.0625 19.625 54.6875 
L 29.296875 54.6875 
Q 19.234375 39.0625 17 27.34375 
Q 12.796875 6.203125 23.734375 6.203125 
Q 33.84375 6.203125 38.71875 32.46875 
L 47.015625 32.46875 
Q 41.703125 6.0625 51.8125 6.203125 
Q 62.703125 6.296875 66.796875 27.34375 
Q 69.046875 39.0625 65.140625 54.6875 
L 74.8125 54.6875 
Q 79.296875 39.0625 77.09375 27.59375 
Q 71.53125 -1.46875 51.21875 -1.421875 
Q 37.9375 -1.375 39.109375 13.1875 
Q 34.28125 -1.421875 21.390625 -1.421875 
" id="DejaVuSans-Oblique-3c9"/>
     </defs>
     <g transform="translate(21.020313 179.828)rotate(-90)scale(0.1 -0.1)">
      <use transform="translate(0 0.3125)" xlink:href="#DejaVuSans-Oblique-3c9"/>
      <use transform="translate(83.740234 -16.09375)scale(0.7)" xlink:href="#DejaVuSans-Oblique-69"/>
     </g>
    </g>
   </g>
   <g id="line2d_56">
    <defs>
     <path d="M 0 3 
C 0.795609 3 1.55874 2.683901 2.12132 2.12132 
C 2.683901 1.55874 3 0.795609 3 0 
C 3 -0.795609 2.683901 -1.55874 2.12132 -2.12132 
C 1.55874 -2.683901 0.795609 -3 0 -3 
C -0.795609 -3 -1.55874 -2.683901 -2.12132 -2.12132 
C -2.683901 -1.55874 -3 -0.795609 -3 0 
C -3 0.795609 -2.683901 1.55874 -2.12132 2.12132 
C -1.55874 2.683901 -0.795609 3 0 3 
z
" id="m7a4c1deb2a" style="stroke:#1f77b4;"/>
    </defs>
    <g clip-path="url(#p94308339cd)">
     <use style="fill:#1f77b4;stroke:#1f77b4;" x="147.002918" xlink:href="#m7a4c1deb2a" y="248.594977"/>
     <use style="fill:#1f77b4;stroke:#1f77b4;" x="151.873518" xlink:href="#m7a4c1deb2a" y="128.556993"/>
     <use style="fill:#1f77b4;stroke:#1f77b4;" x="153.659809" xlink:href="#m7a4c1deb2a" y="118.588164"/>
     <use style="fill:#1f77b4;stroke:#1f77b4;" x="324.896079" xlink:href="#m7a4c1deb2a" y="201.781894"/>
     <use style="fill:#1f77b4;stroke:#1f77b4;" x="318.660191" xlink:href="#m7a4c1deb2a" y="118.588164"/>
     <use style="fill:#1f77b4;stroke:#1f77b4;" x="317.669322" xlink:href="#m7a4c1deb2a" y="114.178291"/>
     <use style="fill:#1f77b4;stroke:#1f77b4;" x="147.178416" xlink:href="#m7a4c1deb2a" y="221.193135"/>
     <use style="fill:#1f77b4;stroke:#1f77b4;" x="155.705675" xlink:href="#m7a4c1deb2a" y="110.088337"/>
     <use style="fill:#1f77b4;stroke:#1f77b4;" x="149.692855" xlink:href="#m7a4c1deb2a" y="147.467861"/>
     <use style="fill:#1f77b4;stroke:#1f77b4;" x="320.446482" xlink:href="#m7a4c1deb2a" y="128.556993"/>
     <use style="fill:#1f77b4;stroke:#1f77b4;" x="313.073119" xlink:href="#m7a4c1deb2a" y="99.403138"/>
     <use style="fill:#1f77b4;stroke:#1f77b4;" x="149.101313" xlink:href="#m7a4c1deb2a" y="155.289207"/>
     <use style="fill:#1f77b4;stroke:#1f77b4;" x="156.823969" xlink:href="#m7a4c1deb2a" y="106.281809"/>
     <use style="fill:#1f77b4;stroke:#1f77b4;" x="160.549592" xlink:href="#m7a4c1deb2a" y="96.284353"/>
     <use style="fill:#1f77b4;stroke:#1f77b4;" x="147.423921" xlink:href="#m7a4c1deb2a" y="201.781894"/>
     <use style="fill:#1f77b4;stroke:#1f77b4;" x="314.315319" xlink:href="#m7a4c1deb2a" y="102.728503"/>
     <use style="fill:#1f77b4;stroke:#1f77b4;" x="315.496031" xlink:href="#m7a4c1deb2a" y="106.281809"/>
     <use style="fill:#1f77b4;stroke:#1f77b4;" x="321.240497" xlink:href="#m7a4c1deb2a" y="134.241266"/>
     <use style="fill:#1f77b4;stroke:#1f77b4;" x="166.344353" xlink:href="#m7a4c1deb2a" y="85.546661"/>
     <use style="fill:#1f77b4;stroke:#1f77b4;" x="158.004681" xlink:href="#m7a4c1deb2a" y="102.728503"/>
     <use style="fill:#1f77b4;stroke:#1f77b4;" x="316.614325" xlink:href="#m7a4c1deb2a" y="110.088337"/>
     <use style="fill:#1f77b4;stroke:#1f77b4;" x="305.975647" xlink:href="#m7a4c1deb2a" y="85.546661"/>
     <use style="fill:#1f77b4;stroke:#1f77b4;" x="325.141584" xlink:href="#m7a4c1deb2a" y="221.193135"/>
     <use style="fill:#1f77b4;stroke:#1f77b4;" x="161.911789" xlink:href="#m7a4c1deb2a" y="93.353935"/>
     <use style="fill:#1f77b4;stroke:#1f77b4;" x="164.81031" xlink:href="#m7a4c1deb2a" y="87.997744"/>
     <use style="fill:#1f77b4;stroke:#1f77b4;" x="324.19588" xlink:href="#m7a4c1deb2a" y="174.513427"/>
     <use style="fill:#1f77b4;stroke:#1f77b4;" x="304.386676" xlink:href="#m7a4c1deb2a" y="83.232686"/>
     <use style="fill:#1f77b4;stroke:#1f77b4;" x="311.770408" xlink:href="#m7a4c1deb2a" y="96.284353"/>
     <use style="fill:#1f77b4;stroke:#1f77b4;" x="325.422436" xlink:href="#m7a4c1deb2a" y="295.488"/>
     <use style="fill:#1f77b4;stroke:#1f77b4;" x="178.547714" xlink:href="#m7a4c1deb2a" y="71.786193"/>
     <use style="fill:#1f77b4;stroke:#1f77b4;" x="154.650678" xlink:href="#m7a4c1deb2a" y="114.178291"/>
     <use style="fill:#1f77b4;stroke:#1f77b4;" x="307.50969" xlink:href="#m7a4c1deb2a" y="87.997744"/>
     <use style="fill:#1f77b4;stroke:#1f77b4;" x="299.302913" xlink:href="#m7a4c1deb2a" y="77.027828"/>
     <use style="fill:#1f77b4;stroke:#1f77b4;" x="147.739238" xlink:href="#m7a4c1deb2a" y="186.757113"/>
     <use style="fill:#1f77b4;stroke:#1f77b4;" x="173.017087" xlink:href="#m7a4c1deb2a" y="77.027828"/>
     <use style="fill:#1f77b4;stroke:#1f77b4;" x="167.933324" xlink:href="#m7a4c1deb2a" y="83.232686"/>
     <use style="fill:#1f77b4;stroke:#1f77b4;" x="151.079503" xlink:href="#m7a4c1deb2a" y="134.241266"/>
     <use style="fill:#1f77b4;stroke:#1f77b4;" x="293.772286" xlink:href="#m7a4c1deb2a" y="71.786193"/>
     <use style="fill:#1f77b4;stroke:#1f77b4;" x="325.317082" xlink:href="#m7a4c1deb2a" y="248.594977"/>
     <use style="fill:#1f77b4;stroke:#1f77b4;" x="159.246881" xlink:href="#m7a4c1deb2a" y="99.403138"/>
     <use style="fill:#1f77b4;stroke:#1f77b4;" x="184.486063" xlink:href="#m7a4c1deb2a" y="67.368738"/>
     <use style="fill:#1f77b4;stroke:#1f77b4;" x="150.352424" xlink:href="#m7a4c1deb2a" y="140.505388"/>
     <use style="fill:#1f77b4;stroke:#1f77b4;" x="301.048996" xlink:href="#m7a4c1deb2a" y="78.980833"/>
     <use style="fill:#1f77b4;stroke:#1f77b4;" x="295.663126" xlink:href="#m7a4c1deb2a" y="73.435878"/>
     <use style="fill:#1f77b4;stroke:#1f77b4;" x="146.897564" xlink:href="#m7a4c1deb2a" y="295.488"/>
     <use style="fill:#1f77b4;stroke:#1f77b4;" x="180.48388" xlink:href="#m7a4c1deb2a" y="70.227782"/>
     <use style="fill:#1f77b4;stroke:#1f77b4;" x="171.271004" xlink:href="#m7a4c1deb2a" y="78.980833"/>
     <use style="fill:#1f77b4;stroke:#1f77b4;" x="324.580762" xlink:href="#m7a4c1deb2a" y="186.757113"/>
     <use style="fill:#1f77b4;stroke:#1f77b4;" x="281.52989" xlink:href="#m7a4c1deb2a" y="63.674077"/>
     <use style="fill:#1f77b4;stroke:#1f77b4;" x="308.987599" xlink:href="#m7a4c1deb2a" y="90.596243"/>
     <use style="fill:#1f77b4;stroke:#1f77b4;" x="169.575971" xlink:href="#m7a4c1deb2a" y="81.046748"/>
     <use style="fill:#1f77b4;stroke:#1f77b4;" x="188.650832" xlink:href="#m7a4c1deb2a" y="64.830405"/>
     <use style="fill:#1f77b4;stroke:#1f77b4;" x="323.218687" xlink:href="#m7a4c1deb2a" y="155.289207"/>
     <use style="fill:#1f77b4;stroke:#1f77b4;" x="289.856151" xlink:href="#m7a4c1deb2a" y="68.756534"/>
     <use style="fill:#1f77b4;stroke:#1f77b4;" x="291.83612" xlink:href="#m7a4c1deb2a" y="70.227782"/>
     <use style="fill:#1f77b4;stroke:#1f77b4;" x="148.12412" xlink:href="#m7a4c1deb2a" y="174.513427"/>
     <use style="fill:#1f77b4;stroke:#1f77b4;" x="190.79011" xlink:href="#m7a4c1deb2a" y="63.674077"/>
     <use style="fill:#1f77b4;stroke:#1f77b4;" x="174.812848" xlink:href="#m7a4c1deb2a" y="75.181397"/>
     <use style="fill:#1f77b4;stroke:#1f77b4;" x="297.507152" xlink:href="#m7a4c1deb2a" y="75.181397"/>
     <use style="fill:#1f77b4;stroke:#1f77b4;" x="272.633077" xlink:href="#m7a4c1deb2a" y="59.745243"/>
     <use style="fill:#1f77b4;stroke:#1f77b4;" x="323.741736" xlink:href="#m7a4c1deb2a" y="164.194504"/>
     <use style="fill:#1f77b4;stroke:#1f77b4;" x="176.656874" xlink:href="#m7a4c1deb2a" y="73.435878"/>
     <use style="fill:#1f77b4;stroke:#1f77b4;" x="192.965082" xlink:href="#m7a4c1deb2a" y="62.589559"/>
     <use style="fill:#1f77b4;stroke:#1f77b4;" x="258.464431" xlink:href="#m7a4c1deb2a" y="55.748298"/>
     <use style="fill:#1f77b4;stroke:#1f77b4;" x="279.354918" xlink:href="#m7a4c1deb2a" y="62.589559"/>
     <use style="fill:#1f77b4;stroke:#1f77b4;" x="287.833937" xlink:href="#m7a4c1deb2a" y="67.368738"/>
     <use style="fill:#1f77b4;stroke:#1f77b4;" x="319.586154" xlink:href="#m7a4c1deb2a" y="123.362597"/>
     <use style="fill:#1f77b4;stroke:#1f77b4;" x="199.686923" xlink:href="#m7a4c1deb2a" y="59.745243"/>
     <use style="fill:#1f77b4;stroke:#1f77b4;" x="163.332401" xlink:href="#m7a4c1deb2a" y="90.596243"/>
     <use style="fill:#1f77b4;stroke:#1f77b4;" x="243.665507" xlink:href="#m7a4c1deb2a" y="53.807949"/>
     <use style="fill:#1f77b4;stroke:#1f77b4;" x="270.332698" xlink:href="#m7a4c1deb2a" y="58.92732"/>
     <use style="fill:#1f77b4;stroke:#1f77b4;" x="321.967576" xlink:href="#m7a4c1deb2a" y="140.505388"/>
     <use style="fill:#1f77b4;stroke:#1f77b4;" x="186.548932" xlink:href="#m7a4c1deb2a" y="66.061042"/>
     <use style="fill:#1f77b4;stroke:#1f77b4;" x="197.415239" xlink:href="#m7a4c1deb2a" y="60.627102"/>
     <use style="fill:#1f77b4;stroke:#1f77b4;" x="148.578264" xlink:href="#m7a4c1deb2a" y="164.194504"/>
     <use style="fill:#1f77b4;stroke:#1f77b4;" x="274.904761" xlink:href="#m7a4c1deb2a" y="60.627102"/>
     <use style="fill:#1f77b4;stroke:#1f77b4;" x="302.744029" xlink:href="#m7a4c1deb2a" y="81.046748"/>
     <use style="fill:#1f77b4;stroke:#1f77b4;" x="152.733846" xlink:href="#m7a4c1deb2a" y="123.362597"/>
     <use style="fill:#1f77b4;stroke:#1f77b4;" x="209.042407" xlink:href="#m7a4c1deb2a" y="56.842633"/>
     <use style="fill:#1f77b4;stroke:#1f77b4;" x="231.153046" xlink:href="#m7a4c1deb2a" y="53.674574"/>
     <use style="fill:#1f77b4;stroke:#1f77b4;" x="285.771068" xlink:href="#m7a4c1deb2a" y="66.061042"/>
     <use style="fill:#1f77b4;stroke:#1f77b4;" x="265.653116" xlink:href="#m7a4c1deb2a" y="57.477325"/>
     <use style="fill:#1f77b4;stroke:#1f77b4;" x="322.627145" xlink:href="#m7a4c1deb2a" y="147.467861"/>
     <use style="fill:#1f77b4;stroke:#1f77b4;" x="204.314566" xlink:href="#m7a4c1deb2a" y="58.171807"/>
     <use style="fill:#1f77b4;stroke:#1f77b4;" x="201.987302" xlink:href="#m7a4c1deb2a" y="58.92732"/>
     <use style="fill:#1f77b4;stroke:#1f77b4;" x="310.408211" xlink:href="#m7a4c1deb2a" y="93.353935"/>
     <use style="fill:#1f77b4;stroke:#1f77b4;" x="263.277593" xlink:href="#m7a4c1deb2a" y="56.842633"/>
     <use style="fill:#1f77b4;stroke:#1f77b4;" x="283.669168" xlink:href="#m7a4c1deb2a" y="64.830405"/>
     <use style="fill:#1f77b4;stroke:#1f77b4;" x="195.174038" xlink:href="#m7a4c1deb2a" y="61.574586"/>
     <use style="fill:#1f77b4;stroke:#1f77b4;" x="213.855569" xlink:href="#m7a4c1deb2a" y="55.748298"/>
     <use style="fill:#1f77b4;stroke:#1f77b4;" x="182.463849" xlink:href="#m7a4c1deb2a" y="68.756534"/>
     <use style="fill:#1f77b4;stroke:#1f77b4;" x="268.005434" xlink:href="#m7a4c1deb2a" y="58.171807"/>
     <use style="fill:#1f77b4;stroke:#1f77b4;" x="260.880737" xlink:href="#m7a4c1deb2a" y="56.266621"/>
     <use style="fill:#1f77b4;stroke:#1f77b4;" x="277.145962" xlink:href="#m7a4c1deb2a" y="61.574586"/>
     <use style="fill:#1f77b4;stroke:#1f77b4;" x="211.439263" xlink:href="#m7a4c1deb2a" y="56.266621"/>
     <use style="fill:#1f77b4;stroke:#1f77b4;" x="206.666884" xlink:href="#m7a4c1deb2a" y="57.477325"/>
     <use style="fill:#1f77b4;stroke:#1f77b4;" x="233.655538" xlink:href="#m7a4c1deb2a" y="53.594633"/>
     <use style="fill:#1f77b4;stroke:#1f77b4;" x="256.030577" xlink:href="#m7a4c1deb2a" y="55.286787"/>
     <use style="fill:#1f77b4;stroke:#1f77b4;" x="246.158155" xlink:href="#m7a4c1deb2a" y="53.994969"/>
     <use style="fill:#1f77b4;stroke:#1f77b4;" x="228.654493" xlink:href="#m7a4c1deb2a" y="53.807949"/>
     <use style="fill:#1f77b4;stroke:#1f77b4;" x="216.289423" xlink:href="#m7a4c1deb2a" y="55.286787"/>
     <use style="fill:#1f77b4;stroke:#1f77b4;" x="226.161845" xlink:href="#m7a4c1deb2a" y="53.994969"/>
     <use style="fill:#1f77b4;stroke:#1f77b4;" x="248.642937" xlink:href="#m7a4c1deb2a" y="54.235932"/>
     <use style="fill:#1f77b4;stroke:#1f77b4;" x="251.117898" xlink:href="#m7a4c1deb2a" y="54.531222"/>
     <use style="fill:#1f77b4;stroke:#1f77b4;" x="236.16" xlink:href="#m7a4c1deb2a" y="53.568"/>
     <use style="fill:#1f77b4;stroke:#1f77b4;" x="218.73891" xlink:href="#m7a4c1deb2a" y="54.881317"/>
     <use style="fill:#1f77b4;stroke:#1f77b4;" x="221.202102" xlink:href="#m7a4c1deb2a" y="54.531222"/>
     <use style="fill:#1f77b4;stroke:#1f77b4;" x="238.664462" xlink:href="#m7a4c1deb2a" y="53.594633"/>
     <use style="fill:#1f77b4;stroke:#1f77b4;" x="253.58109" xlink:href="#m7a4c1deb2a" y="54.881317"/>
     <use style="fill:#1f77b4;stroke:#1f77b4;" x="241.166954" xlink:href="#m7a4c1deb2a" y="53.674574"/>
     <use style="fill:#1f77b4;stroke:#1f77b4;" x="223.677063" xlink:href="#m7a4c1deb2a" y="54.235932"/>
    </g>
   </g>
   <g id="patch_3">
    <path d="M 57.6 307.584 
L 57.6 41.472 
" style="fill:none;stroke:#000000;stroke-linecap:square;stroke-linejoin:miter;stroke-width:0.8;"/>
   </g>
   <g id="patch_4">
    <path d="M 414.72 307.584 
L 414.72 41.472 
" style="fill:none;stroke:#000000;stroke-linecap:square;stroke-linejoin:miter;stroke-width:0.8;"/>
   </g>
   <g id="patch_5">
    <path d="M 57.6 307.584 
L 414.72 307.584 
" style="fill:none;stroke:#000000;stroke-linecap:square;stroke-linejoin:miter;stroke-width:0.8;"/>
   </g>
   <g id="patch_6">
    <path d="M 57.6 41.472 
L 414.72 41.472 
" style="fill:none;stroke:#000000;stroke-linecap:square;stroke-linejoin:miter;stroke-width:0.8;"/>
   </g>
  </g>
 </g>
 <defs>
  <clipPath id="p94308339cd">
   <rect height="266.112" width="357.12" x="57.6" y="41.472"/>
  </clipPath>
 </defs>
</svg>
