<?xml version="1.0" encoding="utf-8" standalone="no"?>
<!DOCTYPE svg PUBLIC "-//W3C//DTD SVG 1.1//EN"
  "http://www.w3.org/Graphics/SVG/1.1/DTD/svg11.dtd">
<!-- Created with matplotlib (http://matplotlib.org/) -->
<svg height="345pt" version="1.1" viewBox="0 0 460 345" width="460pt" xmlns="http://www.w3.org/2000/svg" xmlns:xlink="http://www.w3.org/1999/xlink">
 <defs>
  <style type="text/css">
*{stroke-linecap:butt;stroke-linejoin:round;}
  </style>
 </defs>
 <g id="figure_1">
  <g id="patch_1">
   <path d="M 0 345.6 
L 460.8 345.6 
L 460.8 0 
L 0 0 
z
" style="fill:#ffffff;"/>
  </g>
  <g id="axes_1">
   <g id="patch_2">
    <path d="M 57.6 307.584 
L 414.72 307.584 
L 414.72 41.472 
L 57.6 41.472 
z
" style="fill:#ffffff;"/>
   </g>
   <g id="matplotlib.axis_1">
    <g id="xtick_1">
     <g id="line2d_1">
      <path clip-path="url(#pee3d11a893)" d="M 57.580929 307.584 
L 57.580929 41.472 
" style="fill:none;stroke:#b0b0b0;stroke-linecap:square;stroke-width:0.8;"/>
     </g>
     <g id="line2d_2">
      <defs>
       <path d="M 0 0 
L 0 3.5 
" id="mec1fbfb00d" style="stroke:#000000;stroke-width:0.8;"/>
      </defs>
      <g>
       <use style="stroke:#000000;stroke-width:0.8;" x="57.580929" xlink:href="#mec1fbfb00d" y="307.584"/>
      </g>
     </g>
     <g id="text_1">
      <!-- −2.0 -->
      <defs>
       <path d="M 10.59375 35.5 
L 73.1875 35.5 
L 73.1875 27.203125 
L 10.59375 27.203125 
z
" id="DejaVuSans-2212"/>
       <path d="M 19.1875 8.296875 
L 53.609375 8.296875 
L 53.609375 0 
L 7.328125 0 
L 7.328125 8.296875 
Q 12.9375 14.109375 22.625 23.890625 
Q 32.328125 33.6875 34.8125 36.53125 
Q 39.546875 41.84375 41.421875 45.53125 
Q 43.3125 49.21875 43.3125 52.78125 
Q 43.3125 58.59375 39.234375 62.25 
Q 35.15625 65.921875 28.609375 65.921875 
Q 23.96875 65.921875 18.8125 64.3125 
Q 13.671875 62.703125 7.8125 59.421875 
L 7.8125 69.390625 
Q 13.765625 71.78125 18.9375 73 
Q 24.125 74.21875 28.421875 74.21875 
Q 39.75 74.21875 46.484375 68.546875 
Q 53.21875 62.890625 53.21875 53.421875 
Q 53.21875 48.921875 51.53125 44.890625 
Q 49.859375 40.875 45.40625 35.40625 
Q 44.1875 33.984375 37.640625 27.21875 
Q 31.109375 20.453125 19.1875 8.296875 
" id="DejaVuSans-32"/>
       <path d="M 10.6875 12.40625 
L 21 12.40625 
L 21 0 
L 10.6875 0 
z
" id="DejaVuSans-2e"/>
       <path d="M 31.78125 66.40625 
Q 24.171875 66.40625 20.328125 58.90625 
Q 16.5 51.421875 16.5 36.375 
Q 16.5 21.390625 20.328125 13.890625 
Q 24.171875 6.390625 31.78125 6.390625 
Q 39.453125 6.390625 43.28125 13.890625 
Q 47.125 21.390625 47.125 36.375 
Q 47.125 51.421875 43.28125 58.90625 
Q 39.453125 66.40625 31.78125 66.40625 
M 31.78125 74.21875 
Q 44.046875 74.21875 50.515625 64.515625 
Q 56.984375 54.828125 56.984375 36.375 
Q 56.984375 17.96875 50.515625 8.265625 
Q 44.046875 -1.421875 31.78125 -1.421875 
Q 19.53125 -1.421875 13.0625 8.265625 
Q 6.59375 17.96875 6.59375 36.375 
Q 6.59375 54.828125 13.0625 64.515625 
Q 19.53125 74.21875 31.78125 74.21875 
" id="DejaVuSans-30"/>
      </defs>
      <g transform="translate(45.439523 322.182437)scale(0.1 -0.1)">
       <use xlink:href="#DejaVuSans-2212"/>
       <use x="83.789062" xlink:href="#DejaVuSans-32"/>
       <use x="147.412109" xlink:href="#DejaVuSans-2e"/>
       <use x="179.199219" xlink:href="#DejaVuSans-30"/>
      </g>
     </g>
    </g>
    <g id="xtick_2">
     <g id="line2d_3">
      <path clip-path="url(#pee3d11a893)" d="M 102.225697 307.584 
L 102.225697 41.472 
" style="fill:none;stroke:#b0b0b0;stroke-linecap:square;stroke-width:0.8;"/>
     </g>
     <g id="line2d_4">
      <g>
       <use style="stroke:#000000;stroke-width:0.8;" x="102.225697" xlink:href="#mec1fbfb00d" y="307.584"/>
      </g>
     </g>
     <g id="text_2">
      <!-- −1.5 -->
      <defs>
       <path d="M 12.40625 8.296875 
L 28.515625 8.296875 
L 28.515625 63.921875 
L 10.984375 60.40625 
L 10.984375 69.390625 
L 28.421875 72.90625 
L 38.28125 72.90625 
L 38.28125 8.296875 
L 54.390625 8.296875 
L 54.390625 0 
L 12.40625 0 
z
" id="DejaVuSans-31"/>
       <path d="M 10.796875 72.90625 
L 49.515625 72.90625 
L 49.515625 64.59375 
L 19.828125 64.59375 
L 19.828125 46.734375 
Q 21.96875 47.46875 24.109375 47.828125 
Q 26.265625 48.1875 28.421875 48.1875 
Q 40.625 48.1875 47.75 41.5 
Q 54.890625 34.8125 54.890625 23.390625 
Q 54.890625 11.625 47.5625 5.09375 
Q 40.234375 -1.421875 26.90625 -1.421875 
Q 22.3125 -1.421875 17.546875 -0.640625 
Q 12.796875 0.140625 7.71875 1.703125 
L 7.71875 11.625 
Q 12.109375 9.234375 16.796875 8.0625 
Q 21.484375 6.890625 26.703125 6.890625 
Q 35.15625 6.890625 40.078125 11.328125 
Q 45.015625 15.765625 45.015625 23.390625 
Q 45.015625 31 40.078125 35.4375 
Q 35.15625 39.890625 26.703125 39.890625 
Q 22.75 39.890625 18.8125 39.015625 
Q 14.890625 38.140625 10.796875 36.28125 
z
" id="DejaVuSans-35"/>
      </defs>
      <g transform="translate(90.084291 322.182437)scale(0.1 -0.1)">
       <use xlink:href="#DejaVuSans-2212"/>
       <use x="83.789062" xlink:href="#DejaVuSans-31"/>
       <use x="147.412109" xlink:href="#DejaVuSans-2e"/>
       <use x="179.199219" xlink:href="#DejaVuSans-35"/>
      </g>
     </g>
    </g>
    <g id="xtick_3">
     <g id="line2d_5">
      <path clip-path="url(#pee3d11a893)" d="M 146.870465 307.584 
L 146.870465 41.472 
" style="fill:none;stroke:#b0b0b0;stroke-linecap:square;stroke-width:0.8;"/>
     </g>
     <g id="line2d_6">
      <g>
       <use style="stroke:#000000;stroke-width:0.8;" x="146.870465" xlink:href="#mec1fbfb00d" y="307.584"/>
      </g>
     </g>
     <g id="text_3">
      <!-- −1.0 -->
      <g transform="translate(134.729058 322.182437)scale(0.1 -0.1)">
       <use xlink:href="#DejaVuSans-2212"/>
       <use x="83.789062" xlink:href="#DejaVuSans-31"/>
       <use x="147.412109" xlink:href="#DejaVuSans-2e"/>
       <use x="179.199219" xlink:href="#DejaVuSans-30"/>
      </g>
     </g>
    </g>
    <g id="xtick_4">
     <g id="line2d_7">
      <path clip-path="url(#pee3d11a893)" d="M 191.515232 307.584 
L 191.515232 41.472 
" style="fill:none;stroke:#b0b0b0;stroke-linecap:square;stroke-width:0.8;"/>
     </g>
     <g id="line2d_8">
      <g>
       <use style="stroke:#000000;stroke-width:0.8;" x="191.515232" xlink:href="#mec1fbfb00d" y="307.584"/>
      </g>
     </g>
     <g id="text_4">
      <!-- −0.5 -->
      <g transform="translate(179.373826 322.182437)scale(0.1 -0.1)">
       <use xlink:href="#DejaVuSans-2212"/>
       <use x="83.789062" xlink:href="#DejaVuSans-30"/>
       <use x="147.412109" xlink:href="#DejaVuSans-2e"/>
       <use x="179.199219" xlink:href="#DejaVuSans-35"/>
      </g>
     </g>
    </g>
    <g id="xtick_5">
     <g id="line2d_9">
      <path clip-path="url(#pee3d11a893)" d="M 236.16 307.584 
L 236.16 41.472 
" style="fill:none;stroke:#b0b0b0;stroke-linecap:square;stroke-width:0.8;"/>
     </g>
     <g id="line2d_10">
      <g>
       <use style="stroke:#000000;stroke-width:0.8;" x="236.16" xlink:href="#mec1fbfb00d" y="307.584"/>
      </g>
     </g>
     <g id="text_5">
      <!-- 0.0 -->
      <g transform="translate(228.208437 322.182437)scale(0.1 -0.1)">
       <use xlink:href="#DejaVuSans-30"/>
       <use x="63.623047" xlink:href="#DejaVuSans-2e"/>
       <use x="95.410156" xlink:href="#DejaVuSans-30"/>
      </g>
     </g>
    </g>
    <g id="xtick_6">
     <g id="line2d_11">
      <path clip-path="url(#pee3d11a893)" d="M 280.804768 307.584 
L 280.804768 41.472 
" style="fill:none;stroke:#b0b0b0;stroke-linecap:square;stroke-width:0.8;"/>
     </g>
     <g id="line2d_12">
      <g>
       <use style="stroke:#000000;stroke-width:0.8;" x="280.804768" xlink:href="#mec1fbfb00d" y="307.584"/>
      </g>
     </g>
     <g id="text_6">
      <!-- 0.5 -->
      <g transform="translate(272.853205 322.182437)scale(0.1 -0.1)">
       <use xlink:href="#DejaVuSans-30"/>
       <use x="63.623047" xlink:href="#DejaVuSans-2e"/>
       <use x="95.410156" xlink:href="#DejaVuSans-35"/>
      </g>
     </g>
    </g>
    <g id="xtick_7">
     <g id="line2d_13">
      <path clip-path="url(#pee3d11a893)" d="M 325.449535 307.584 
L 325.449535 41.472 
" style="fill:none;stroke:#b0b0b0;stroke-linecap:square;stroke-width:0.8;"/>
     </g>
     <g id="line2d_14">
      <g>
       <use style="stroke:#000000;stroke-width:0.8;" x="325.449535" xlink:href="#mec1fbfb00d" y="307.584"/>
      </g>
     </g>
     <g id="text_7">
      <!-- 1.0 -->
      <g transform="translate(317.497973 322.182437)scale(0.1 -0.1)">
       <use xlink:href="#DejaVuSans-31"/>
       <use x="63.623047" xlink:href="#DejaVuSans-2e"/>
       <use x="95.410156" xlink:href="#DejaVuSans-30"/>
      </g>
     </g>
    </g>
    <g id="xtick_8">
     <g id="line2d_15">
      <path clip-path="url(#pee3d11a893)" d="M 370.094303 307.584 
L 370.094303 41.472 
" style="fill:none;stroke:#b0b0b0;stroke-linecap:square;stroke-width:0.8;"/>
     </g>
     <g id="line2d_16">
      <g>
       <use style="stroke:#000000;stroke-width:0.8;" x="370.094303" xlink:href="#mec1fbfb00d" y="307.584"/>
      </g>
     </g>
     <g id="text_8">
      <!-- 1.5 -->
      <g transform="translate(362.142741 322.182437)scale(0.1 -0.1)">
       <use xlink:href="#DejaVuSans-31"/>
       <use x="63.623047" xlink:href="#DejaVuSans-2e"/>
       <use x="95.410156" xlink:href="#DejaVuSans-35"/>
      </g>
     </g>
    </g>
    <g id="xtick_9">
     <g id="line2d_17">
      <path clip-path="url(#pee3d11a893)" d="M 414.739071 307.584 
L 414.739071 41.472 
" style="fill:none;stroke:#b0b0b0;stroke-linecap:square;stroke-width:0.8;"/>
     </g>
     <g id="line2d_18">
      <g>
       <use style="stroke:#000000;stroke-width:0.8;" x="414.739071" xlink:href="#mec1fbfb00d" y="307.584"/>
      </g>
     </g>
     <g id="text_9">
      <!-- 2.0 -->
      <g transform="translate(406.787508 322.182437)scale(0.1 -0.1)">
       <use xlink:href="#DejaVuSans-32"/>
       <use x="63.623047" xlink:href="#DejaVuSans-2e"/>
       <use x="95.410156" xlink:href="#DejaVuSans-30"/>
      </g>
     </g>
    </g>
    <g id="text_10">
     <!-- $\gamma_i$ -->
     <defs>
      <path d="M 23.296875 46.09375 
L 28.71875 12.3125 
L 54 54.6875 
L 63.53125 54.6875 
L 30.8125 0 
L 26.765625 -20.796875 
L 17.78125 -20.796875 
L 21.828125 0 
L 15.4375 40.828125 
Q 14.453125 46.96875 9.8125 46.96875 
L 7.421875 46.96875 
L 8.890625 54.6875 
L 12.3125 54.6875 
Q 21.921875 54.6875 23.296875 46.09375 
" id="DejaVuSans-Oblique-3b3"/>
      <path d="M 18.3125 75.984375 
L 27.296875 75.984375 
L 25.09375 64.59375 
L 16.109375 64.59375 
z
M 14.203125 54.6875 
L 23.1875 54.6875 
L 12.5 0 
L 3.515625 0 
z
" id="DejaVuSans-Oblique-69"/>
     </defs>
     <g transform="translate(232.06 335.84025)scale(0.1 -0.1)">
      <use transform="translate(0 0.3125)" xlink:href="#DejaVuSans-Oblique-3b3"/>
      <use transform="translate(59.179688 -16.09375)scale(0.7)" xlink:href="#DejaVuSans-Oblique-69"/>
     </g>
    </g>
   </g>
   <g id="matplotlib.axis_2">
    <g id="ytick_1">
     <g id="line2d_19">
      <path clip-path="url(#pee3d11a893)" d="M 57.6 255.906229 
L 414.72 255.906229 
" style="fill:none;stroke:#b0b0b0;stroke-linecap:square;stroke-width:0.8;"/>
     </g>
     <g id="line2d_20">
      <defs>
       <path d="M 0 0 
L -3.5 0 
" id="m65a07e6bf9" style="stroke:#000000;stroke-width:0.8;"/>
      </defs>
      <g>
       <use style="stroke:#000000;stroke-width:0.8;" x="57.6" xlink:href="#m65a07e6bf9" y="255.906229"/>
      </g>
     </g>
     <g id="text_11">
      <!-- ${10^{-5}}$ -->
      <g transform="translate(27.1 259.705448)scale(0.1 -0.1)">
       <use transform="translate(0 0.684375)" xlink:href="#DejaVuSans-31"/>
       <use transform="translate(63.623047 0.684375)" xlink:href="#DejaVuSans-30"/>
       <use transform="translate(128.203125 38.965625)scale(0.7)" xlink:href="#DejaVuSans-2212"/>
       <use transform="translate(186.855469 38.965625)scale(0.7)" xlink:href="#DejaVuSans-35"/>
      </g>
     </g>
    </g>
    <g id="ytick_2">
     <g id="line2d_21">
      <path clip-path="url(#pee3d11a893)" d="M 57.6 184.108146 
L 414.72 184.108146 
" style="fill:none;stroke:#b0b0b0;stroke-linecap:square;stroke-width:0.8;"/>
     </g>
     <g id="line2d_22">
      <g>
       <use style="stroke:#000000;stroke-width:0.8;" x="57.6" xlink:href="#m65a07e6bf9" y="184.108146"/>
      </g>
     </g>
     <g id="text_12">
      <!-- ${10^{-4}}$ -->
      <defs>
       <path d="M 37.796875 64.3125 
L 12.890625 25.390625 
L 37.796875 25.390625 
z
M 35.203125 72.90625 
L 47.609375 72.90625 
L 47.609375 25.390625 
L 58.015625 25.390625 
L 58.015625 17.1875 
L 47.609375 17.1875 
L 47.609375 0 
L 37.796875 0 
L 37.796875 17.1875 
L 4.890625 17.1875 
L 4.890625 26.703125 
z
" id="DejaVuSans-34"/>
      </defs>
      <g transform="translate(27.1 187.907365)scale(0.1 -0.1)">
       <use transform="translate(0 0.684375)" xlink:href="#DejaVuSans-31"/>
       <use transform="translate(63.623047 0.684375)" xlink:href="#DejaVuSans-30"/>
       <use transform="translate(128.203125 38.965625)scale(0.7)" xlink:href="#DejaVuSans-2212"/>
       <use transform="translate(186.855469 38.965625)scale(0.7)" xlink:href="#DejaVuSans-34"/>
      </g>
     </g>
    </g>
    <g id="ytick_3">
     <g id="line2d_23">
      <path clip-path="url(#pee3d11a893)" d="M 57.6 112.310062 
L 414.72 112.310062 
" style="fill:none;stroke:#b0b0b0;stroke-linecap:square;stroke-width:0.8;"/>
     </g>
     <g id="line2d_24">
      <g>
       <use style="stroke:#000000;stroke-width:0.8;" x="57.6" xlink:href="#m65a07e6bf9" y="112.310062"/>
      </g>
     </g>
     <g id="text_13">
      <!-- ${10^{-3}}$ -->
      <defs>
       <path d="M 40.578125 39.3125 
Q 47.65625 37.796875 51.625 33 
Q 55.609375 28.21875 55.609375 21.1875 
Q 55.609375 10.40625 48.1875 4.484375 
Q 40.765625 -1.421875 27.09375 -1.421875 
Q 22.515625 -1.421875 17.65625 -0.515625 
Q 12.796875 0.390625 7.625 2.203125 
L 7.625 11.71875 
Q 11.71875 9.328125 16.59375 8.109375 
Q 21.484375 6.890625 26.8125 6.890625 
Q 36.078125 6.890625 40.9375 10.546875 
Q 45.796875 14.203125 45.796875 21.1875 
Q 45.796875 27.640625 41.28125 31.265625 
Q 36.765625 34.90625 28.71875 34.90625 
L 20.21875 34.90625 
L 20.21875 43.015625 
L 29.109375 43.015625 
Q 36.375 43.015625 40.234375 45.921875 
Q 44.09375 48.828125 44.09375 54.296875 
Q 44.09375 59.90625 40.109375 62.90625 
Q 36.140625 65.921875 28.71875 65.921875 
Q 24.65625 65.921875 20.015625 65.03125 
Q 15.375 64.15625 9.8125 62.3125 
L 9.8125 71.09375 
Q 15.4375 72.65625 20.34375 73.4375 
Q 25.25 74.21875 29.59375 74.21875 
Q 40.828125 74.21875 47.359375 69.109375 
Q 53.90625 64.015625 53.90625 55.328125 
Q 53.90625 49.265625 50.4375 45.09375 
Q 46.96875 40.921875 40.578125 39.3125 
" id="DejaVuSans-33"/>
      </defs>
      <g transform="translate(27.1 116.109281)scale(0.1 -0.1)">
       <use transform="translate(0 0.765625)" xlink:href="#DejaVuSans-31"/>
       <use transform="translate(63.623047 0.765625)" xlink:href="#DejaVuSans-30"/>
       <use transform="translate(128.203125 39.046875)scale(0.7)" xlink:href="#DejaVuSans-2212"/>
       <use transform="translate(186.855469 39.046875)scale(0.7)" xlink:href="#DejaVuSans-33"/>
      </g>
     </g>
    </g>
    <g id="ytick_4">
     <g id="line2d_25">
      <defs>
       <path d="M 0 0 
L -2 0 
" id="m7b266b5428" style="stroke:#000000;stroke-width:0.6;"/>
      </defs>
      <g>
       <use style="stroke:#000000;stroke-width:0.6;" x="57.6" xlink:href="#m7b266b5428" y="306.090936"/>
      </g>
     </g>
    </g>
    <g id="ytick_5">
     <g id="line2d_26">
      <g>
       <use style="stroke:#000000;stroke-width:0.6;" x="57.6" xlink:href="#m7b266b5428" y="293.447921"/>
      </g>
     </g>
    </g>
    <g id="ytick_6">
     <g id="line2d_27">
      <g>
       <use style="stroke:#000000;stroke-width:0.6;" x="57.6" xlink:href="#m7b266b5428" y="284.477559"/>
      </g>
     </g>
    </g>
    <g id="ytick_7">
     <g id="line2d_28">
      <g>
       <use style="stroke:#000000;stroke-width:0.6;" x="57.6" xlink:href="#m7b266b5428" y="277.519606"/>
      </g>
     </g>
    </g>
    <g id="ytick_8">
     <g id="line2d_29">
      <g>
       <use style="stroke:#000000;stroke-width:0.6;" x="57.6" xlink:href="#m7b266b5428" y="271.834544"/>
      </g>
     </g>
    </g>
    <g id="ytick_9">
     <g id="line2d_30">
      <g>
       <use style="stroke:#000000;stroke-width:0.6;" x="57.6" xlink:href="#m7b266b5428" y="267.027893"/>
      </g>
     </g>
    </g>
    <g id="ytick_10">
     <g id="line2d_31">
      <g>
       <use style="stroke:#000000;stroke-width:0.6;" x="57.6" xlink:href="#m7b266b5428" y="262.864182"/>
      </g>
     </g>
    </g>
    <g id="ytick_11">
     <g id="line2d_32">
      <g>
       <use style="stroke:#000000;stroke-width:0.6;" x="57.6" xlink:href="#m7b266b5428" y="259.191529"/>
      </g>
     </g>
    </g>
    <g id="ytick_12">
     <g id="line2d_33">
      <g>
       <use style="stroke:#000000;stroke-width:0.6;" x="57.6" xlink:href="#m7b266b5428" y="234.292852"/>
      </g>
     </g>
    </g>
    <g id="ytick_13">
     <g id="line2d_34">
      <g>
       <use style="stroke:#000000;stroke-width:0.6;" x="57.6" xlink:href="#m7b266b5428" y="221.649838"/>
      </g>
     </g>
    </g>
    <g id="ytick_14">
     <g id="line2d_35">
      <g>
       <use style="stroke:#000000;stroke-width:0.6;" x="57.6" xlink:href="#m7b266b5428" y="212.679476"/>
      </g>
     </g>
    </g>
    <g id="ytick_15">
     <g id="line2d_36">
      <g>
       <use style="stroke:#000000;stroke-width:0.6;" x="57.6" xlink:href="#m7b266b5428" y="205.721523"/>
      </g>
     </g>
    </g>
    <g id="ytick_16">
     <g id="line2d_37">
      <g>
       <use style="stroke:#000000;stroke-width:0.6;" x="57.6" xlink:href="#m7b266b5428" y="200.036461"/>
      </g>
     </g>
    </g>
    <g id="ytick_17">
     <g id="line2d_38">
      <g>
       <use style="stroke:#000000;stroke-width:0.6;" x="57.6" xlink:href="#m7b266b5428" y="195.22981"/>
      </g>
     </g>
    </g>
    <g id="ytick_18">
     <g id="line2d_39">
      <g>
       <use style="stroke:#000000;stroke-width:0.6;" x="57.6" xlink:href="#m7b266b5428" y="191.066099"/>
      </g>
     </g>
    </g>
    <g id="ytick_19">
     <g id="line2d_40">
      <g>
       <use style="stroke:#000000;stroke-width:0.6;" x="57.6" xlink:href="#m7b266b5428" y="187.393446"/>
      </g>
     </g>
    </g>
    <g id="ytick_20">
     <g id="line2d_41">
      <g>
       <use style="stroke:#000000;stroke-width:0.6;" x="57.6" xlink:href="#m7b266b5428" y="162.494769"/>
      </g>
     </g>
    </g>
    <g id="ytick_21">
     <g id="line2d_42">
      <g>
       <use style="stroke:#000000;stroke-width:0.6;" x="57.6" xlink:href="#m7b266b5428" y="149.851754"/>
      </g>
     </g>
    </g>
    <g id="ytick_22">
     <g id="line2d_43">
      <g>
       <use style="stroke:#000000;stroke-width:0.6;" x="57.6" xlink:href="#m7b266b5428" y="140.881392"/>
      </g>
     </g>
    </g>
    <g id="ytick_23">
     <g id="line2d_44">
      <g>
       <use style="stroke:#000000;stroke-width:0.6;" x="57.6" xlink:href="#m7b266b5428" y="133.923439"/>
      </g>
     </g>
    </g>
    <g id="ytick_24">
     <g id="line2d_45">
      <g>
       <use style="stroke:#000000;stroke-width:0.6;" x="57.6" xlink:href="#m7b266b5428" y="128.238377"/>
      </g>
     </g>
    </g>
    <g id="ytick_25">
     <g id="line2d_46">
      <g>
       <use style="stroke:#000000;stroke-width:0.6;" x="57.6" xlink:href="#m7b266b5428" y="123.431726"/>
      </g>
     </g>
    </g>
    <g id="ytick_26">
     <g id="line2d_47">
      <g>
       <use style="stroke:#000000;stroke-width:0.6;" x="57.6" xlink:href="#m7b266b5428" y="119.268016"/>
      </g>
     </g>
    </g>
    <g id="ytick_27">
     <g id="line2d_48">
      <g>
       <use style="stroke:#000000;stroke-width:0.6;" x="57.6" xlink:href="#m7b266b5428" y="115.595362"/>
      </g>
     </g>
    </g>
    <g id="ytick_28">
     <g id="line2d_49">
      <g>
       <use style="stroke:#000000;stroke-width:0.6;" x="57.6" xlink:href="#m7b266b5428" y="90.696686"/>
      </g>
     </g>
    </g>
    <g id="ytick_29">
     <g id="line2d_50">
      <g>
       <use style="stroke:#000000;stroke-width:0.6;" x="57.6" xlink:href="#m7b266b5428" y="78.053671"/>
      </g>
     </g>
    </g>
    <g id="ytick_30">
     <g id="line2d_51">
      <g>
       <use style="stroke:#000000;stroke-width:0.6;" x="57.6" xlink:href="#m7b266b5428" y="69.083309"/>
      </g>
     </g>
    </g>
    <g id="ytick_31">
     <g id="line2d_52">
      <g>
       <use style="stroke:#000000;stroke-width:0.6;" x="57.6" xlink:href="#m7b266b5428" y="62.125356"/>
      </g>
     </g>
    </g>
    <g id="ytick_32">
     <g id="line2d_53">
      <g>
       <use style="stroke:#000000;stroke-width:0.6;" x="57.6" xlink:href="#m7b266b5428" y="56.440294"/>
      </g>
     </g>
    </g>
    <g id="ytick_33">
     <g id="line2d_54">
      <g>
       <use style="stroke:#000000;stroke-width:0.6;" x="57.6" xlink:href="#m7b266b5428" y="51.633643"/>
      </g>
     </g>
    </g>
    <g id="ytick_34">
     <g id="line2d_55">
      <g>
       <use style="stroke:#000000;stroke-width:0.6;" x="57.6" xlink:href="#m7b266b5428" y="47.469932"/>
      </g>
     </g>
    </g>
    <g id="ytick_35">
     <g id="line2d_56">
      <g>
       <use style="stroke:#000000;stroke-width:0.6;" x="57.6" xlink:href="#m7b266b5428" y="43.797279"/>
      </g>
     </g>
    </g>
    <g id="text_14">
     <!-- $\omega_i$ -->
     <defs>
      <path d="M 21.390625 -1.421875 
Q 1.125 -1.421875 6.78125 27.59375 
Q 8.984375 39.0625 19.625 54.6875 
L 29.296875 54.6875 
Q 19.234375 39.0625 17 27.34375 
Q 12.796875 6.203125 23.734375 6.203125 
Q 33.84375 6.203125 38.71875 32.46875 
L 47.015625 32.46875 
Q 41.703125 6.0625 51.8125 6.203125 
Q 62.703125 6.296875 66.796875 27.34375 
Q 69.046875 39.0625 65.140625 54.6875 
L 74.8125 54.6875 
Q 79.296875 39.0625 77.09375 27.59375 
Q 71.53125 -1.46875 51.21875 -1.421875 
Q 37.9375 -1.375 39.109375 13.1875 
Q 34.28125 -1.421875 21.390625 -1.421875 
" id="DejaVuSans-Oblique-3c9"/>
     </defs>
     <g transform="translate(21.020313 179.828)rotate(-90)scale(0.1 -0.1)">
      <use transform="translate(0 0.3125)" xlink:href="#DejaVuSans-Oblique-3c9"/>
      <use transform="translate(83.740234 -16.09375)scale(0.7)" xlink:href="#DejaVuSans-Oblique-69"/>
     </g>
    </g>
   </g>
   <g id="line2d_57">
    <defs>
     <path d="M 0 3 
C 0.795609 3 1.55874 2.683901 2.12132 2.12132 
C 2.683901 1.55874 3 0.795609 3 0 
C 3 -0.795609 2.683901 -1.55874 2.12132 -2.12132 
C 1.55874 -2.683901 0.795609 -3 0 -3 
C -0.795609 -3 -1.55874 -2.683901 -2.12132 -2.12132 
C -2.683901 -1.55874 -3 -0.795609 -3 0 
C -3 0.795609 -2.683901 1.55874 -2.12132 2.12132 
C -1.55874 2.683901 -0.795609 3 0 3 
z
" id="m4d45aa7c19" style="stroke:#1f77b4;"/>
    </defs>
    <g clip-path="url(#pee3d11a893)">
     <use style="fill:#1f77b4;stroke:#1f77b4;" x="324.516664" xlink:href="#m4d45aa7c19" y="174.348435"/>
     <use style="fill:#1f77b4;stroke:#1f77b4;" x="152.978665" xlink:href="#m4d45aa7c19" y="116.676514"/>
     <use style="fill:#1f77b4;stroke:#1f77b4;" x="153.667226" xlink:href="#m4d45aa7c19" y="113.470626"/>
     <use style="fill:#1f77b4;stroke:#1f77b4;" x="146.889535" xlink:href="#m4d45aa7c19" y="295.488"/>
     <use style="fill:#1f77b4;stroke:#1f77b4;" x="317.928975" xlink:href="#m4d45aa7c19" y="110.446889"/>
     <use style="fill:#1f77b4;stroke:#1f77b4;" x="318.652774" xlink:href="#m4d45aa7c19" y="113.470626"/>
     <use style="fill:#1f77b4;stroke:#1f77b4;" x="323.909199" xlink:href="#m4d45aa7c19" y="158.818054"/>
     <use style="fill:#1f77b4;stroke:#1f77b4;" x="155.943087" xlink:href="#m4d45aa7c19" y="104.880804"/>
     <use style="fill:#1f77b4;stroke:#1f77b4;" x="152.325636" xlink:href="#m4d45aa7c19" y="120.08431"/>
     <use style="fill:#1f77b4;stroke:#1f77b4;" x="320.611582" xlink:href="#m4d45aa7c19" y="123.717373"/>
     <use style="fill:#1f77b4;stroke:#1f77b4;" x="313.792747" xlink:href="#m4d45aa7c19" y="97.544892"/>
     <use style="fill:#1f77b4;stroke:#1f77b4;" x="150.582455" xlink:href="#m4d45aa7c19" y="131.77666"/>
     <use style="fill:#1f77b4;stroke:#1f77b4;" x="154.391025" xlink:href="#m4d45aa7c19" y="110.446889"/>
     <use style="fill:#1f77b4;stroke:#1f77b4;" x="158.527253" xlink:href="#m4d45aa7c19" y="97.544892"/>
     <use style="fill:#1f77b4;stroke:#1f77b4;" x="149.168184" xlink:href="#m4d45aa7c19" y="146.481738"/>
     <use style="fill:#1f77b4;stroke:#1f77b4;" x="312.864528" xlink:href="#m4d45aa7c19" y="95.329722"/>
     <use style="fill:#1f77b4;stroke:#1f77b4;" x="315.549314" xlink:href="#m4d45aa7c19" y="102.311403"/>
     <use style="fill:#1f77b4;stroke:#1f77b4;" x="322.717299" xlink:href="#m4d45aa7c19" y="141.157954"/>
     <use style="fill:#1f77b4;stroke:#1f77b4;" x="165.698011" xlink:href="#m4d45aa7c19" y="83.964609"/>
     <use style="fill:#1f77b4;stroke:#1f77b4;" x="155.149753" xlink:href="#m4d45aa7c19" y="107.588447"/>
     <use style="fill:#1f77b4;stroke:#1f77b4;" x="316.376913" xlink:href="#m4d45aa7c19" y="104.880804"/>
     <use style="fill:#1f77b4;stroke:#1f77b4;" x="305.47351" xlink:href="#m4d45aa7c19" y="82.343273"/>
     <use style="fill:#1f77b4;stroke:#1f77b4;" x="147.175434" xlink:href="#m4d45aa7c19" y="209.10111"/>
     <use style="fill:#1f77b4;stroke:#1f77b4;" x="161.409794" xlink:href="#m4d45aa7c19" y="91.197926"/>
     <use style="fill:#1f77b4;stroke:#1f77b4;" x="162.435064" xlink:href="#m4d45aa7c19" y="89.268665"/>
     <use style="fill:#1f77b4;stroke:#1f77b4;" x="146.946739" xlink:href="#m4d45aa7c19" y="252.274568"/>
     <use style="fill:#1f77b4;stroke:#1f77b4;" x="304.295422" xlink:href="#m4d45aa7c19" y="80.789002"/>
     <use style="fill:#1f77b4;stroke:#1f77b4;" x="309.884936" xlink:href="#m4d45aa7c19" y="89.268665"/>
     <use style="fill:#1f77b4;stroke:#1f77b4;" x="157.632197" xlink:href="#m4d45aa7c19" y="99.869298"/>
     <use style="fill:#1f77b4;stroke:#1f77b4;" x="178.452241" xlink:href="#m4d45aa7c19" y="70.430155"/>
     <use style="fill:#1f77b4;stroke:#1f77b4;" x="325.430465" xlink:href="#m4d45aa7c19" y="295.488"/>
     <use style="fill:#1f77b4;stroke:#1f77b4;" x="310.910206" xlink:href="#m4d45aa7c19" y="91.197926"/>
     <use style="fill:#1f77b4;stroke:#1f77b4;" x="300.588602" xlink:href="#m4d45aa7c19" y="76.497334"/>
     <use style="fill:#1f77b4;stroke:#1f77b4;" x="147.346826" xlink:href="#m4d45aa7c19" y="195.225187"/>
     <use style="fill:#1f77b4;stroke:#1f77b4;" x="170.467554" xlink:href="#m4d45aa7c19" y="77.868886"/>
     <use style="fill:#1f77b4;stroke:#1f77b4;" x="164.57963" xlink:href="#m4d45aa7c19" y="85.65659"/>
     <use style="fill:#1f77b4;stroke:#1f77b4;" x="324.231742" xlink:href="#m4d45aa7c19" y="166.087722"/>
     <use style="fill:#1f77b4;stroke:#1f77b4;" x="292.447285" xlink:href="#m4d45aa7c19" y="69.36109"/>
     <use style="fill:#1f77b4;stroke:#1f77b4;" x="307.74037" xlink:href="#m4d45aa7c19" y="85.65659"/>
     <use style="fill:#1f77b4;stroke:#1f77b4;" x="159.455472" xlink:href="#m4d45aa7c19" y="95.329722"/>
     <use style="fill:#1f77b4;stroke:#1f77b4;" x="182.785177" xlink:href="#m4d45aa7c19" y="67.354183"/>
     <use style="fill:#1f77b4;stroke:#1f77b4;" x="147.556156" xlink:href="#m4d45aa7c19" y="183.903947"/>
     <use style="fill:#1f77b4;stroke:#1f77b4;" x="306.621989" xlink:href="#m4d45aa7c19" y="83.964609"/>
     <use style="fill:#1f77b4;stroke:#1f77b4;" x="296.634157" xlink:href="#m4d45aa7c19" y="72.707234"/>
     <use style="fill:#1f77b4;stroke:#1f77b4;" x="324.973174" xlink:href="#m4d45aa7c19" y="195.225187"/>
     <use style="fill:#1f77b4;stroke:#1f77b4;" x="174.3411" xlink:href="#m4d45aa7c19" y="73.918715"/>
     <use style="fill:#1f77b4;stroke:#1f77b4;" x="166.84649" xlink:href="#m4d45aa7c19" y="82.343273"/>
     <use style="fill:#1f77b4;stroke:#1f77b4;" x="319.341335" xlink:href="#m4d45aa7c19" y="116.676514"/>
     <use style="fill:#1f77b4;stroke:#1f77b4;" x="281.865978" xlink:href="#m4d45aa7c19" y="63.042412"/>
     <use style="fill:#1f77b4;stroke:#1f77b4;" x="311.903545" xlink:href="#m4d45aa7c19" y="93.216291"/>
     <use style="fill:#1f77b4;stroke:#1f77b4;" x="168.024578" xlink:href="#m4d45aa7c19" y="80.789002"/>
     <use style="fill:#1f77b4;stroke:#1f77b4;" x="184.275921" xlink:href="#m4d45aa7c19" y="66.413584"/>
     <use style="fill:#1f77b4;stroke:#1f77b4;" x="323.151816" xlink:href="#m4d45aa7c19" y="146.481738"/>
     <use style="fill:#1f77b4;stroke:#1f77b4;" x="295.263581" xlink:href="#m4d45aa7c19" y="71.544981"/>
     <use style="fill:#1f77b4;stroke:#1f77b4;" x="291.002768" xlink:href="#m4d45aa7c19" y="68.336243"/>
     <use style="fill:#1f77b4;stroke:#1f77b4;" x="324.763844" xlink:href="#m4d45aa7c19" y="183.903947"/>
     <use style="fill:#1f77b4;stroke:#1f77b4;" x="187.323253" xlink:href="#m4d45aa7c19" y="64.651925"/>
     <use style="fill:#1f77b4;stroke:#1f77b4;" x="169.231771" xlink:href="#m4d45aa7c19" y="79.298533"/>
     <use style="fill:#1f77b4;stroke:#1f77b4;" x="308.828174" xlink:href="#m4d45aa7c19" y="87.423159"/>
     <use style="fill:#1f77b4;stroke:#1f77b4;" x="273.709449" xlink:href="#m4d45aa7c19" y="59.636462"/>
     <use style="fill:#1f77b4;stroke:#1f77b4;" x="321.192725" xlink:href="#m4d45aa7c19" y="127.603596"/>
     <use style="fill:#1f77b4;stroke:#1f77b4;" x="171.731398" xlink:href="#m4d45aa7c19" y="76.497334"/>
     <use style="fill:#1f77b4;stroke:#1f77b4;" x="188.878539" xlink:href="#m4d45aa7c19" y="63.828655"/>
     <use style="fill:#1f77b4;stroke:#1f77b4;" x="325.144566" xlink:href="#m4d45aa7c19" y="209.10111"/>
     <use style="fill:#1f77b4;stroke:#1f77b4;" x="286.531171" xlink:href="#m4d45aa7c19" y="65.513213"/>
     <use style="fill:#1f77b4;stroke:#1f77b4;" x="288.044079" xlink:href="#m4d45aa7c19" y="66.413584"/>
     <use style="fill:#1f77b4;stroke:#1f77b4;" x="151.708418" xlink:href="#m4d45aa7c19" y="123.717373"/>
     <use style="fill:#1f77b4;stroke:#1f77b4;" x="196.944341" xlink:href="#m4d45aa7c19" y="60.250193"/>
     <use style="fill:#1f77b4;stroke:#1f77b4;" x="160.416455" xlink:href="#m4d45aa7c19" y="93.216291"/>
     <use style="fill:#1f77b4;stroke:#1f77b4;" x="321.737545" xlink:href="#m4d45aa7c19" y="131.77666"/>
     <use style="fill:#1f77b4;stroke:#1f77b4;" x="270.329626" xlink:href="#m4d45aa7c19" y="58.505505"/>
     <use style="fill:#1f77b4;stroke:#1f77b4;" x="317.170247" xlink:href="#m4d45aa7c19" y="107.588447"/>
     <use style="fill:#1f77b4;stroke:#1f77b4;" x="181.317232" xlink:href="#m4d45aa7c19" y="68.336243"/>
     <use style="fill:#1f77b4;stroke:#1f77b4;" x="190.454022" xlink:href="#m4d45aa7c19" y="63.042412"/>
     <use style="fill:#1f77b4;stroke:#1f77b4;" x="147.803336" xlink:href="#m4d45aa7c19" y="174.348435"/>
     <use style="fill:#1f77b4;stroke:#1f77b4;" x="275.375659" xlink:href="#m4d45aa7c19" y="60.250193"/>
     <use style="fill:#1f77b4;stroke:#1f77b4;" x="293.867759" xlink:href="#m4d45aa7c19" y="70.430155"/>
     <use style="fill:#1f77b4;stroke:#1f77b4;" x="325.373261" xlink:href="#m4d45aa7c19" y="252.274568"/>
     <use style="fill:#1f77b4;stroke:#1f77b4;" x="208.91928" xlink:href="#m4d45aa7c19" y="56.614316"/>
     <use style="fill:#1f77b4;stroke:#1f77b4;" x="156.770686" xlink:href="#m4d45aa7c19" y="102.311403"/>
     <use style="fill:#1f77b4;stroke:#1f77b4;" x="289.534823" xlink:href="#m4d45aa7c19" y="67.354183"/>
     <use style="fill:#1f77b4;stroke:#1f77b4;" x="266.891425" xlink:href="#m4d45aa7c19" y="57.499446"/>
     <use style="fill:#1f77b4;stroke:#1f77b4;" x="148.088258" xlink:href="#m4d45aa7c19" y="166.087722"/>
     <use style="fill:#1f77b4;stroke:#1f77b4;" x="192.049029" xlink:href="#m4d45aa7c19" y="62.292273"/>
     <use style="fill:#1f77b4;stroke:#1f77b4;" x="179.872715" xlink:href="#m4d45aa7c19" y="69.36109"/>
     <use style="fill:#1f77b4;stroke:#1f77b4;" x="148.410801" xlink:href="#m4d45aa7c19" y="158.818054"/>
     <use style="fill:#1f77b4;stroke:#1f77b4;" x="263.40072" xlink:href="#m4d45aa7c19" y="56.614316"/>
     <use style="fill:#1f77b4;stroke:#1f77b4;" x="284.996747" xlink:href="#m4d45aa7c19" y="64.651925"/>
     <use style="fill:#1f77b4;stroke:#1f77b4;" x="325.277948" xlink:href="#m4d45aa7c19" y="227.010742"/>
     <use style="fill:#1f77b4;stroke:#1f77b4;" x="212.456525" xlink:href="#m4d45aa7c19" y="55.846728"/>
     <use style="fill:#1f77b4;stroke:#1f77b4;" x="301.852446" xlink:href="#m4d45aa7c19" y="77.868886"/>
     <use style="fill:#1f77b4;stroke:#1f77b4;" x="283.441461" xlink:href="#m4d45aa7c19" y="63.828655"/>
     <use style="fill:#1f77b4;stroke:#1f77b4;" x="265.152265" xlink:href="#m4d45aa7c19" y="57.04199"/>
     <use style="fill:#1f77b4;stroke:#1f77b4;" x="323.549172" xlink:href="#m4d45aa7c19" y="152.332033"/>
     <use style="fill:#1f77b4;stroke:#1f77b4;" x="201.990374" xlink:href="#m4d45aa7c19" y="58.505505"/>
     <use style="fill:#1f77b4;stroke:#1f77b4;" x="200.292802" xlink:href="#m4d45aa7c19" y="59.055098"/>
     <use style="fill:#1f77b4;stroke:#1f77b4;" x="319.994364" xlink:href="#m4d45aa7c19" y="120.08431"/>
     <use style="fill:#1f77b4;stroke:#1f77b4;" x="256.285732" xlink:href="#m4d45aa7c19" y="55.19382"/>
     <use style="fill:#1f77b4;stroke:#1f77b4;" x="299.297236" xlink:href="#m4d45aa7c19" y="75.181377"/>
     <use style="fill:#1f77b4;stroke:#1f77b4;" x="185.788829" xlink:href="#m4d45aa7c19" y="65.513213"/>
     <use style="fill:#1f77b4;stroke:#1f77b4;" x="214.240715" xlink:href="#m4d45aa7c19" y="55.506098"/>
     <use style="fill:#1f77b4;stroke:#1f77b4;" x="198.610551" xlink:href="#m4d45aa7c19" y="59.636462"/>
     <use style="fill:#1f77b4;stroke:#1f77b4;" x="272.027198" xlink:href="#m4d45aa7c19" y="59.055098"/>
     <use style="fill:#1f77b4;stroke:#1f77b4;" x="277.025119" xlink:href="#m4d45aa7c19" y="60.896935"/>
     <use style="fill:#1f77b4;stroke:#1f77b4;" x="322.245808" xlink:href="#m4d45aa7c19" y="136.277748"/>
     <use style="fill:#1f77b4;stroke:#1f77b4;" x="210.682461" xlink:href="#m4d45aa7c19" y="56.21602"/>
     <use style="fill:#1f77b4;stroke:#1f77b4;" x="193.662878" xlink:href="#m4d45aa7c19" y="61.57738"/>
     <use style="fill:#1f77b4;stroke:#1f77b4;" x="297.9789" xlink:href="#m4d45aa7c19" y="73.918715"/>
     <use style="fill:#1f77b4;stroke:#1f77b4;" x="254.483583" xlink:href="#m4d45aa7c19" y="54.90961"/>
     <use style="fill:#1f77b4;stroke:#1f77b4;" x="148.770828" xlink:href="#m4d45aa7c19" y="152.332033"/>
     <use style="fill:#1f77b4;stroke:#1f77b4;" x="195.294881" xlink:href="#m4d45aa7c19" y="60.896935"/>
     <use style="fill:#1f77b4;stroke:#1f77b4;" x="216.034268" xlink:href="#m4d45aa7c19" y="55.19382"/>
     <use style="fill:#1f77b4;stroke:#1f77b4;" x="278.657122" xlink:href="#m4d45aa7c19" y="61.57738"/>
     <use style="fill:#1f77b4;stroke:#1f77b4;" x="268.617458" xlink:href="#m4d45aa7c19" y="57.987125"/>
     <use style="fill:#1f77b4;stroke:#1f77b4;" x="261.637539" xlink:href="#m4d45aa7c19" y="56.21602"/>
     <use style="fill:#1f77b4;stroke:#1f77b4;" x="149.602701" xlink:href="#m4d45aa7c19" y="141.157954"/>
     <use style="fill:#1f77b4;stroke:#1f77b4;" x="217.836417" xlink:href="#m4d45aa7c19" y="54.90961"/>
     <use style="fill:#1f77b4;stroke:#1f77b4;" x="207.167735" xlink:href="#m4d45aa7c19" y="57.04199"/>
     <use style="fill:#1f77b4;stroke:#1f77b4;" x="175.685843" xlink:href="#m4d45aa7c19" y="72.707234"/>
     <use style="fill:#1f77b4;stroke:#1f77b4;" x="252.673606" xlink:href="#m4d45aa7c19" y="54.653214"/>
     <use style="fill:#1f77b4;stroke:#1f77b4;" x="303.088229" xlink:href="#m4d45aa7c19" y="79.298533"/>
     <use style="fill:#1f77b4;stroke:#1f77b4;" x="147.042052" xlink:href="#m4d45aa7c19" y="227.010742"/>
     <use style="fill:#1f77b4;stroke:#1f77b4;" x="219.646394" xlink:href="#m4d45aa7c19" y="54.653214"/>
     <use style="fill:#1f77b4;stroke:#1f77b4;" x="150.074192" xlink:href="#m4d45aa7c19" y="136.277748"/>
     <use style="fill:#1f77b4;stroke:#1f77b4;" x="259.863475" xlink:href="#m4d45aa7c19" y="55.846728"/>
     <use style="fill:#1f77b4;stroke:#1f77b4;" x="258.079285" xlink:href="#m4d45aa7c19" y="55.506098"/>
     <use style="fill:#1f77b4;stroke:#1f77b4;" x="163.491826" xlink:href="#m4d45aa7c19" y="87.423159"/>
     <use style="fill:#1f77b4;stroke:#1f77b4;" x="221.463426" xlink:href="#m4d45aa7c19" y="54.424404"/>
     <use style="fill:#1f77b4;stroke:#1f77b4;" x="173.022764" xlink:href="#m4d45aa7c19" y="75.181377"/>
     <use style="fill:#1f77b4;stroke:#1f77b4;" x="314.687803" xlink:href="#m4d45aa7c19" y="99.869298"/>
     <use style="fill:#1f77b4;stroke:#1f77b4;" x="249.033266" xlink:href="#m4d45aa7c19" y="54.222978"/>
     <use style="fill:#1f77b4;stroke:#1f77b4;" x="239.849888" xlink:href="#m4d45aa7c19" y="53.621296"/>
     <use style="fill:#1f77b4;stroke:#1f77b4;" x="232.470112" xlink:href="#m4d45aa7c19" y="53.621296"/>
     <use style="fill:#1f77b4;stroke:#1f77b4;" x="203.702542" xlink:href="#m4d45aa7c19" y="57.987125"/>
     <use style="fill:#1f77b4;stroke:#1f77b4;" x="243.533471" xlink:href="#m4d45aa7c19" y="53.781366"/>
     <use style="fill:#1f77b4;stroke:#1f77b4;" x="250.856574" xlink:href="#m4d45aa7c19" y="54.424404"/>
     <use style="fill:#1f77b4;stroke:#1f77b4;" x="280.270971" xlink:href="#m4d45aa7c19" y="62.292273"/>
     <use style="fill:#1f77b4;stroke:#1f77b4;" x="223.286734" xlink:href="#m4d45aa7c19" y="54.222978"/>
     <use style="fill:#1f77b4;stroke:#1f77b4;" x="225.115542" xlink:href="#m4d45aa7c19" y="54.04876"/>
     <use style="fill:#1f77b4;stroke:#1f77b4;" x="238.005338" xlink:href="#m4d45aa7c19" y="53.581321"/>
     <use style="fill:#1f77b4;stroke:#1f77b4;" x="230.627139" xlink:href="#m4d45aa7c19" y="53.687958"/>
     <use style="fill:#1f77b4;stroke:#1f77b4;" x="247.204458" xlink:href="#m4d45aa7c19" y="54.04876"/>
     <use style="fill:#1f77b4;stroke:#1f77b4;" x="177.056419" xlink:href="#m4d45aa7c19" y="71.544981"/>
     <use style="fill:#1f77b4;stroke:#1f77b4;" x="205.428575" xlink:href="#m4d45aa7c19" y="57.499446"/>
     <use style="fill:#1f77b4;stroke:#1f77b4;" x="151.127275" xlink:href="#m4d45aa7c19" y="127.603596"/>
     <use style="fill:#1f77b4;stroke:#1f77b4;" x="234.314662" xlink:href="#m4d45aa7c19" y="53.581321"/>
     <use style="fill:#1f77b4;stroke:#1f77b4;" x="245.370932" xlink:href="#m4d45aa7c19" y="53.901599"/>
     <use style="fill:#1f77b4;stroke:#1f77b4;" x="241.692861" xlink:href="#m4d45aa7c19" y="53.687958"/>
     <use style="fill:#1f77b4;stroke:#1f77b4;" x="236.16" xlink:href="#m4d45aa7c19" y="53.568"/>
     <use style="fill:#1f77b4;stroke:#1f77b4;" x="228.786529" xlink:href="#m4d45aa7c19" y="53.781366"/>
     <use style="fill:#1f77b4;stroke:#1f77b4;" x="226.949068" xlink:href="#m4d45aa7c19" y="53.901599"/>
    </g>
   </g>
   <g id="patch_3">
    <path d="M 57.6 307.584 
L 57.6 41.472 
" style="fill:none;stroke:#000000;stroke-linecap:square;stroke-linejoin:miter;stroke-width:0.8;"/>
   </g>
   <g id="patch_4">
    <path d="M 414.72 307.584 
L 414.72 41.472 
" style="fill:none;stroke:#000000;stroke-linecap:square;stroke-linejoin:miter;stroke-width:0.8;"/>
   </g>
   <g id="patch_5">
    <path d="M 57.6 307.584 
L 414.72 307.584 
" style="fill:none;stroke:#000000;stroke-linecap:square;stroke-linejoin:miter;stroke-width:0.8;"/>
   </g>
   <g id="patch_6">
    <path d="M 57.6 41.472 
L 414.72 41.472 
" style="fill:none;stroke:#000000;stroke-linecap:square;stroke-linejoin:miter;stroke-width:0.8;"/>
   </g>
  </g>
 </g>
 <defs>
  <clipPath id="pee3d11a893">
   <rect height="266.112" width="357.12" x="57.6" y="41.472"/>
  </clipPath>
 </defs>
</svg>
