<?xml version="1.0" encoding="utf-8" standalone="no"?>
<!DOCTYPE svg PUBLIC "-//W3C//DTD SVG 1.1//EN"
  "http://www.w3.org/Graphics/SVG/1.1/DTD/svg11.dtd">
<!-- Created with matplotlib (http://matplotlib.org/) -->
<svg height="345pt" version="1.1" viewBox="0 0 460 345" width="460pt" xmlns="http://www.w3.org/2000/svg" xmlns:xlink="http://www.w3.org/1999/xlink">
 <defs>
  <style type="text/css">
*{stroke-linecap:butt;stroke-linejoin:round;}
  </style>
 </defs>
 <g id="figure_1">
  <g id="patch_1">
   <path d="M 0 345.6 
L 460.8 345.6 
L 460.8 0 
L 0 0 
z
" style="fill:#ffffff;"/>
  </g>
  <g id="axes_1">
   <g id="patch_2">
    <path d="M 57.6 307.584 
L 414.72 307.584 
L 414.72 41.472 
L 57.6 41.472 
z
" style="fill:#ffffff;"/>
   </g>
   <g id="matplotlib.axis_1">
    <g id="xtick_1">
     <g id="line2d_1">
      <path clip-path="url(#p64dacb291c)" d="M 57.570875 307.584 
L 57.570875 41.472 
" style="fill:none;stroke:#b0b0b0;stroke-linecap:square;stroke-width:0.8;"/>
     </g>
     <g id="line2d_2">
      <defs>
       <path d="M 0 0 
L 0 3.5 
" id="m74fd0638df" style="stroke:#000000;stroke-width:0.8;"/>
      </defs>
      <g>
       <use style="stroke:#000000;stroke-width:0.8;" x="57.570875" xlink:href="#m74fd0638df" y="307.584"/>
      </g>
     </g>
     <g id="text_1">
      <!-- −2.0 -->
      <defs>
       <path d="M 10.59375 35.5 
L 73.1875 35.5 
L 73.1875 27.203125 
L 10.59375 27.203125 
z
" id="DejaVuSans-2212"/>
       <path d="M 19.1875 8.296875 
L 53.609375 8.296875 
L 53.609375 0 
L 7.328125 0 
L 7.328125 8.296875 
Q 12.9375 14.109375 22.625 23.890625 
Q 32.328125 33.6875 34.8125 36.53125 
Q 39.546875 41.84375 41.421875 45.53125 
Q 43.3125 49.21875 43.3125 52.78125 
Q 43.3125 58.59375 39.234375 62.25 
Q 35.15625 65.921875 28.609375 65.921875 
Q 23.96875 65.921875 18.8125 64.3125 
Q 13.671875 62.703125 7.8125 59.421875 
L 7.8125 69.390625 
Q 13.765625 71.78125 18.9375 73 
Q 24.125 74.21875 28.421875 74.21875 
Q 39.75 74.21875 46.484375 68.546875 
Q 53.21875 62.890625 53.21875 53.421875 
Q 53.21875 48.921875 51.53125 44.890625 
Q 49.859375 40.875 45.40625 35.40625 
Q 44.1875 33.984375 37.640625 27.21875 
Q 31.109375 20.453125 19.1875 8.296875 
" id="DejaVuSans-32"/>
       <path d="M 10.6875 12.40625 
L 21 12.40625 
L 21 0 
L 10.6875 0 
z
" id="DejaVuSans-2e"/>
       <path d="M 31.78125 66.40625 
Q 24.171875 66.40625 20.328125 58.90625 
Q 16.5 51.421875 16.5 36.375 
Q 16.5 21.390625 20.328125 13.890625 
Q 24.171875 6.390625 31.78125 6.390625 
Q 39.453125 6.390625 43.28125 13.890625 
Q 47.125 21.390625 47.125 36.375 
Q 47.125 51.421875 43.28125 58.90625 
Q 39.453125 66.40625 31.78125 66.40625 
M 31.78125 74.21875 
Q 44.046875 74.21875 50.515625 64.515625 
Q 56.984375 54.828125 56.984375 36.375 
Q 56.984375 17.96875 50.515625 8.265625 
Q 44.046875 -1.421875 31.78125 -1.421875 
Q 19.53125 -1.421875 13.0625 8.265625 
Q 6.59375 17.96875 6.59375 36.375 
Q 6.59375 54.828125 13.0625 64.515625 
Q 19.53125 74.21875 31.78125 74.21875 
" id="DejaVuSans-30"/>
      </defs>
      <g transform="translate(45.429469 322.182437)scale(0.1 -0.1)">
       <use xlink:href="#DejaVuSans-2212"/>
       <use x="83.789062" xlink:href="#DejaVuSans-32"/>
       <use x="147.412109" xlink:href="#DejaVuSans-2e"/>
       <use x="179.199219" xlink:href="#DejaVuSans-30"/>
      </g>
     </g>
    </g>
    <g id="xtick_2">
     <g id="line2d_3">
      <path clip-path="url(#p64dacb291c)" d="M 102.218157 307.584 
L 102.218157 41.472 
" style="fill:none;stroke:#b0b0b0;stroke-linecap:square;stroke-width:0.8;"/>
     </g>
     <g id="line2d_4">
      <g>
       <use style="stroke:#000000;stroke-width:0.8;" x="102.218157" xlink:href="#m74fd0638df" y="307.584"/>
      </g>
     </g>
     <g id="text_2">
      <!-- −1.5 -->
      <defs>
       <path d="M 12.40625 8.296875 
L 28.515625 8.296875 
L 28.515625 63.921875 
L 10.984375 60.40625 
L 10.984375 69.390625 
L 28.421875 72.90625 
L 38.28125 72.90625 
L 38.28125 8.296875 
L 54.390625 8.296875 
L 54.390625 0 
L 12.40625 0 
z
" id="DejaVuSans-31"/>
       <path d="M 10.796875 72.90625 
L 49.515625 72.90625 
L 49.515625 64.59375 
L 19.828125 64.59375 
L 19.828125 46.734375 
Q 21.96875 47.46875 24.109375 47.828125 
Q 26.265625 48.1875 28.421875 48.1875 
Q 40.625 48.1875 47.75 41.5 
Q 54.890625 34.8125 54.890625 23.390625 
Q 54.890625 11.625 47.5625 5.09375 
Q 40.234375 -1.421875 26.90625 -1.421875 
Q 22.3125 -1.421875 17.546875 -0.640625 
Q 12.796875 0.140625 7.71875 1.703125 
L 7.71875 11.625 
Q 12.109375 9.234375 16.796875 8.0625 
Q 21.484375 6.890625 26.703125 6.890625 
Q 35.15625 6.890625 40.078125 11.328125 
Q 45.015625 15.765625 45.015625 23.390625 
Q 45.015625 31 40.078125 35.4375 
Q 35.15625 39.890625 26.703125 39.890625 
Q 22.75 39.890625 18.8125 39.015625 
Q 14.890625 38.140625 10.796875 36.28125 
z
" id="DejaVuSans-35"/>
      </defs>
      <g transform="translate(90.07675 322.182437)scale(0.1 -0.1)">
       <use xlink:href="#DejaVuSans-2212"/>
       <use x="83.789062" xlink:href="#DejaVuSans-31"/>
       <use x="147.412109" xlink:href="#DejaVuSans-2e"/>
       <use x="179.199219" xlink:href="#DejaVuSans-35"/>
      </g>
     </g>
    </g>
    <g id="xtick_3">
     <g id="line2d_5">
      <path clip-path="url(#p64dacb291c)" d="M 146.865438 307.584 
L 146.865438 41.472 
" style="fill:none;stroke:#b0b0b0;stroke-linecap:square;stroke-width:0.8;"/>
     </g>
     <g id="line2d_6">
      <g>
       <use style="stroke:#000000;stroke-width:0.8;" x="146.865438" xlink:href="#m74fd0638df" y="307.584"/>
      </g>
     </g>
     <g id="text_3">
      <!-- −1.0 -->
      <g transform="translate(134.724031 322.182437)scale(0.1 -0.1)">
       <use xlink:href="#DejaVuSans-2212"/>
       <use x="83.789062" xlink:href="#DejaVuSans-31"/>
       <use x="147.412109" xlink:href="#DejaVuSans-2e"/>
       <use x="179.199219" xlink:href="#DejaVuSans-30"/>
      </g>
     </g>
    </g>
    <g id="xtick_4">
     <g id="line2d_7">
      <path clip-path="url(#p64dacb291c)" d="M 191.512719 307.584 
L 191.512719 41.472 
" style="fill:none;stroke:#b0b0b0;stroke-linecap:square;stroke-width:0.8;"/>
     </g>
     <g id="line2d_8">
      <g>
       <use style="stroke:#000000;stroke-width:0.8;" x="191.512719" xlink:href="#m74fd0638df" y="307.584"/>
      </g>
     </g>
     <g id="text_4">
      <!-- −0.5 -->
      <g transform="translate(179.371313 322.182437)scale(0.1 -0.1)">
       <use xlink:href="#DejaVuSans-2212"/>
       <use x="83.789062" xlink:href="#DejaVuSans-30"/>
       <use x="147.412109" xlink:href="#DejaVuSans-2e"/>
       <use x="179.199219" xlink:href="#DejaVuSans-35"/>
      </g>
     </g>
    </g>
    <g id="xtick_5">
     <g id="line2d_9">
      <path clip-path="url(#p64dacb291c)" d="M 236.16 307.584 
L 236.16 41.472 
" style="fill:none;stroke:#b0b0b0;stroke-linecap:square;stroke-width:0.8;"/>
     </g>
     <g id="line2d_10">
      <g>
       <use style="stroke:#000000;stroke-width:0.8;" x="236.16" xlink:href="#m74fd0638df" y="307.584"/>
      </g>
     </g>
     <g id="text_5">
      <!-- 0.0 -->
      <g transform="translate(228.208438 322.182437)scale(0.1 -0.1)">
       <use xlink:href="#DejaVuSans-30"/>
       <use x="63.623047" xlink:href="#DejaVuSans-2e"/>
       <use x="95.410156" xlink:href="#DejaVuSans-30"/>
      </g>
     </g>
    </g>
    <g id="xtick_6">
     <g id="line2d_11">
      <path clip-path="url(#p64dacb291c)" d="M 280.807281 307.584 
L 280.807281 41.472 
" style="fill:none;stroke:#b0b0b0;stroke-linecap:square;stroke-width:0.8;"/>
     </g>
     <g id="line2d_12">
      <g>
       <use style="stroke:#000000;stroke-width:0.8;" x="280.807281" xlink:href="#m74fd0638df" y="307.584"/>
      </g>
     </g>
     <g id="text_6">
      <!-- 0.5 -->
      <g transform="translate(272.855719 322.182437)scale(0.1 -0.1)">
       <use xlink:href="#DejaVuSans-30"/>
       <use x="63.623047" xlink:href="#DejaVuSans-2e"/>
       <use x="95.410156" xlink:href="#DejaVuSans-35"/>
      </g>
     </g>
    </g>
    <g id="xtick_7">
     <g id="line2d_13">
      <path clip-path="url(#p64dacb291c)" d="M 325.454562 307.584 
L 325.454562 41.472 
" style="fill:none;stroke:#b0b0b0;stroke-linecap:square;stroke-width:0.8;"/>
     </g>
     <g id="line2d_14">
      <g>
       <use style="stroke:#000000;stroke-width:0.8;" x="325.454562" xlink:href="#m74fd0638df" y="307.584"/>
      </g>
     </g>
     <g id="text_7">
      <!-- 1.0 -->
      <g transform="translate(317.503 322.182437)scale(0.1 -0.1)">
       <use xlink:href="#DejaVuSans-31"/>
       <use x="63.623047" xlink:href="#DejaVuSans-2e"/>
       <use x="95.410156" xlink:href="#DejaVuSans-30"/>
      </g>
     </g>
    </g>
    <g id="xtick_8">
     <g id="line2d_15">
      <path clip-path="url(#p64dacb291c)" d="M 370.101843 307.584 
L 370.101843 41.472 
" style="fill:none;stroke:#b0b0b0;stroke-linecap:square;stroke-width:0.8;"/>
     </g>
     <g id="line2d_16">
      <g>
       <use style="stroke:#000000;stroke-width:0.8;" x="370.101843" xlink:href="#m74fd0638df" y="307.584"/>
      </g>
     </g>
     <g id="text_8">
      <!-- 1.5 -->
      <g transform="translate(362.150281 322.182437)scale(0.1 -0.1)">
       <use xlink:href="#DejaVuSans-31"/>
       <use x="63.623047" xlink:href="#DejaVuSans-2e"/>
       <use x="95.410156" xlink:href="#DejaVuSans-35"/>
      </g>
     </g>
    </g>
    <g id="xtick_9">
     <g id="line2d_17">
      <path clip-path="url(#p64dacb291c)" d="M 414.749125 307.584 
L 414.749125 41.472 
" style="fill:none;stroke:#b0b0b0;stroke-linecap:square;stroke-width:0.8;"/>
     </g>
     <g id="line2d_18">
      <g>
       <use style="stroke:#000000;stroke-width:0.8;" x="414.749125" xlink:href="#m74fd0638df" y="307.584"/>
      </g>
     </g>
     <g id="text_9">
      <!-- 2.0 -->
      <g transform="translate(406.797562 322.182437)scale(0.1 -0.1)">
       <use xlink:href="#DejaVuSans-32"/>
       <use x="63.623047" xlink:href="#DejaVuSans-2e"/>
       <use x="95.410156" xlink:href="#DejaVuSans-30"/>
      </g>
     </g>
    </g>
    <g id="text_10">
     <!-- $\gamma_i$ -->
     <defs>
      <path d="M 23.296875 46.09375 
L 28.71875 12.3125 
L 54 54.6875 
L 63.53125 54.6875 
L 30.8125 0 
L 26.765625 -20.796875 
L 17.78125 -20.796875 
L 21.828125 0 
L 15.4375 40.828125 
Q 14.453125 46.96875 9.8125 46.96875 
L 7.421875 46.96875 
L 8.890625 54.6875 
L 12.3125 54.6875 
Q 21.921875 54.6875 23.296875 46.09375 
" id="DejaVuSans-Oblique-3b3"/>
      <path d="M 18.3125 75.984375 
L 27.296875 75.984375 
L 25.09375 64.59375 
L 16.109375 64.59375 
z
M 14.203125 54.6875 
L 23.1875 54.6875 
L 12.5 0 
L 3.515625 0 
z
" id="DejaVuSans-Oblique-69"/>
     </defs>
     <g transform="translate(232.06 335.84025)scale(0.1 -0.1)">
      <use transform="translate(0 0.3125)" xlink:href="#DejaVuSans-Oblique-3b3"/>
      <use transform="translate(59.179688 -16.09375)scale(0.7)" xlink:href="#DejaVuSans-Oblique-69"/>
     </g>
    </g>
   </g>
   <g id="matplotlib.axis_2">
    <g id="ytick_1">
     <g id="line2d_19">
      <path clip-path="url(#p64dacb291c)" d="M 57.6 274.564857 
L 414.72 274.564857 
" style="fill:none;stroke:#b0b0b0;stroke-linecap:square;stroke-width:0.8;"/>
     </g>
     <g id="line2d_20">
      <defs>
       <path d="M 0 0 
L -3.5 0 
" id="m318205ae69" style="stroke:#000000;stroke-width:0.8;"/>
      </defs>
      <g>
       <use style="stroke:#000000;stroke-width:0.8;" x="57.6" xlink:href="#m318205ae69" y="274.564857"/>
      </g>
     </g>
     <g id="text_11">
      <!-- ${10^{-5}}$ -->
      <g transform="translate(27.1 278.364075)scale(0.1 -0.1)">
       <use transform="translate(0 0.684375)" xlink:href="#DejaVuSans-31"/>
       <use transform="translate(63.623047 0.684375)" xlink:href="#DejaVuSans-30"/>
       <use transform="translate(128.203125 38.965625)scale(0.7)" xlink:href="#DejaVuSans-2212"/>
       <use transform="translate(186.855469 38.965625)scale(0.7)" xlink:href="#DejaVuSans-35"/>
      </g>
     </g>
    </g>
    <g id="ytick_2">
     <g id="line2d_21">
      <path clip-path="url(#p64dacb291c)" d="M 57.6 198.621547 
L 414.72 198.621547 
" style="fill:none;stroke:#b0b0b0;stroke-linecap:square;stroke-width:0.8;"/>
     </g>
     <g id="line2d_22">
      <g>
       <use style="stroke:#000000;stroke-width:0.8;" x="57.6" xlink:href="#m318205ae69" y="198.621547"/>
      </g>
     </g>
     <g id="text_12">
      <!-- ${10^{-4}}$ -->
      <defs>
       <path d="M 37.796875 64.3125 
L 12.890625 25.390625 
L 37.796875 25.390625 
z
M 35.203125 72.90625 
L 47.609375 72.90625 
L 47.609375 25.390625 
L 58.015625 25.390625 
L 58.015625 17.1875 
L 47.609375 17.1875 
L 47.609375 0 
L 37.796875 0 
L 37.796875 17.1875 
L 4.890625 17.1875 
L 4.890625 26.703125 
z
" id="DejaVuSans-34"/>
      </defs>
      <g transform="translate(27.1 202.420766)scale(0.1 -0.1)">
       <use transform="translate(0 0.684375)" xlink:href="#DejaVuSans-31"/>
       <use transform="translate(63.623047 0.684375)" xlink:href="#DejaVuSans-30"/>
       <use transform="translate(128.203125 38.965625)scale(0.7)" xlink:href="#DejaVuSans-2212"/>
       <use transform="translate(186.855469 38.965625)scale(0.7)" xlink:href="#DejaVuSans-34"/>
      </g>
     </g>
    </g>
    <g id="ytick_3">
     <g id="line2d_23">
      <path clip-path="url(#p64dacb291c)" d="M 57.6 122.678238 
L 414.72 122.678238 
" style="fill:none;stroke:#b0b0b0;stroke-linecap:square;stroke-width:0.8;"/>
     </g>
     <g id="line2d_24">
      <g>
       <use style="stroke:#000000;stroke-width:0.8;" x="57.6" xlink:href="#m318205ae69" y="122.678238"/>
      </g>
     </g>
     <g id="text_13">
      <!-- ${10^{-3}}$ -->
      <defs>
       <path d="M 40.578125 39.3125 
Q 47.65625 37.796875 51.625 33 
Q 55.609375 28.21875 55.609375 21.1875 
Q 55.609375 10.40625 48.1875 4.484375 
Q 40.765625 -1.421875 27.09375 -1.421875 
Q 22.515625 -1.421875 17.65625 -0.515625 
Q 12.796875 0.390625 7.625 2.203125 
L 7.625 11.71875 
Q 11.71875 9.328125 16.59375 8.109375 
Q 21.484375 6.890625 26.8125 6.890625 
Q 36.078125 6.890625 40.9375 10.546875 
Q 45.796875 14.203125 45.796875 21.1875 
Q 45.796875 27.640625 41.28125 31.265625 
Q 36.765625 34.90625 28.71875 34.90625 
L 20.21875 34.90625 
L 20.21875 43.015625 
L 29.109375 43.015625 
Q 36.375 43.015625 40.234375 45.921875 
Q 44.09375 48.828125 44.09375 54.296875 
Q 44.09375 59.90625 40.109375 62.90625 
Q 36.140625 65.921875 28.71875 65.921875 
Q 24.65625 65.921875 20.015625 65.03125 
Q 15.375 64.15625 9.8125 62.3125 
L 9.8125 71.09375 
Q 15.4375 72.65625 20.34375 73.4375 
Q 25.25 74.21875 29.59375 74.21875 
Q 40.828125 74.21875 47.359375 69.109375 
Q 53.90625 64.015625 53.90625 55.328125 
Q 53.90625 49.265625 50.4375 45.09375 
Q 46.96875 40.921875 40.578125 39.3125 
" id="DejaVuSans-33"/>
      </defs>
      <g transform="translate(27.1 126.477457)scale(0.1 -0.1)">
       <use transform="translate(0 0.765625)" xlink:href="#DejaVuSans-31"/>
       <use transform="translate(63.623047 0.765625)" xlink:href="#DejaVuSans-30"/>
       <use transform="translate(128.203125 39.046875)scale(0.7)" xlink:href="#DejaVuSans-2212"/>
       <use transform="translate(186.855469 39.046875)scale(0.7)" xlink:href="#DejaVuSans-33"/>
      </g>
     </g>
    </g>
    <g id="ytick_4">
     <g id="line2d_25">
      <path clip-path="url(#p64dacb291c)" d="M 57.6 46.734929 
L 414.72 46.734929 
" style="fill:none;stroke:#b0b0b0;stroke-linecap:square;stroke-width:0.8;"/>
     </g>
     <g id="line2d_26">
      <g>
       <use style="stroke:#000000;stroke-width:0.8;" x="57.6" xlink:href="#m318205ae69" y="46.734929"/>
      </g>
     </g>
     <g id="text_14">
      <!-- ${10^{-2}}$ -->
      <g transform="translate(27.1 50.534148)scale(0.1 -0.1)">
       <use transform="translate(0 0.765625)" xlink:href="#DejaVuSans-31"/>
       <use transform="translate(63.623047 0.765625)" xlink:href="#DejaVuSans-30"/>
       <use transform="translate(128.203125 39.046875)scale(0.7)" xlink:href="#DejaVuSans-2212"/>
       <use transform="translate(186.855469 39.046875)scale(0.7)" xlink:href="#DejaVuSans-32"/>
      </g>
     </g>
    </g>
    <g id="ytick_5">
     <g id="line2d_27">
      <defs>
       <path d="M 0 0 
L -2 0 
" id="me538cc77e6" style="stroke:#000000;stroke-width:0.6;"/>
      </defs>
      <g>
       <use style="stroke:#000000;stroke-width:0.6;" x="57.6" xlink:href="#me538cc77e6" y="304.785738"/>
      </g>
     </g>
    </g>
    <g id="ytick_6">
     <g id="line2d_28">
      <g>
       <use style="stroke:#000000;stroke-width:0.6;" x="57.6" xlink:href="#me538cc77e6" y="297.426071"/>
      </g>
     </g>
    </g>
    <g id="ytick_7">
     <g id="line2d_29">
      <g>
       <use style="stroke:#000000;stroke-width:0.6;" x="57.6" xlink:href="#me538cc77e6" y="291.412785"/>
      </g>
     </g>
    </g>
    <g id="ytick_8">
     <g id="line2d_30">
      <g>
       <use style="stroke:#000000;stroke-width:0.6;" x="57.6" xlink:href="#me538cc77e6" y="286.328624"/>
      </g>
     </g>
    </g>
    <g id="ytick_9">
     <g id="line2d_31">
      <g>
       <use style="stroke:#000000;stroke-width:0.6;" x="57.6" xlink:href="#me538cc77e6" y="281.924524"/>
      </g>
     </g>
    </g>
    <g id="ytick_10">
     <g id="line2d_32">
      <g>
       <use style="stroke:#000000;stroke-width:0.6;" x="57.6" xlink:href="#me538cc77e6" y="278.039832"/>
      </g>
     </g>
    </g>
    <g id="ytick_11">
     <g id="line2d_33">
      <g>
       <use style="stroke:#000000;stroke-width:0.6;" x="57.6" xlink:href="#me538cc77e6" y="251.703643"/>
      </g>
     </g>
    </g>
    <g id="ytick_12">
     <g id="line2d_34">
      <g>
       <use style="stroke:#000000;stroke-width:0.6;" x="57.6" xlink:href="#me538cc77e6" y="238.33069"/>
      </g>
     </g>
    </g>
    <g id="ytick_13">
     <g id="line2d_35">
      <g>
       <use style="stroke:#000000;stroke-width:0.6;" x="57.6" xlink:href="#me538cc77e6" y="228.842429"/>
      </g>
     </g>
    </g>
    <g id="ytick_14">
     <g id="line2d_36">
      <g>
       <use style="stroke:#000000;stroke-width:0.6;" x="57.6" xlink:href="#me538cc77e6" y="221.482761"/>
      </g>
     </g>
    </g>
    <g id="ytick_15">
     <g id="line2d_37">
      <g>
       <use style="stroke:#000000;stroke-width:0.6;" x="57.6" xlink:href="#me538cc77e6" y="215.469476"/>
      </g>
     </g>
    </g>
    <g id="ytick_16">
     <g id="line2d_38">
      <g>
       <use style="stroke:#000000;stroke-width:0.6;" x="57.6" xlink:href="#me538cc77e6" y="210.385315"/>
      </g>
     </g>
    </g>
    <g id="ytick_17">
     <g id="line2d_39">
      <g>
       <use style="stroke:#000000;stroke-width:0.6;" x="57.6" xlink:href="#me538cc77e6" y="205.981215"/>
      </g>
     </g>
    </g>
    <g id="ytick_18">
     <g id="line2d_40">
      <g>
       <use style="stroke:#000000;stroke-width:0.6;" x="57.6" xlink:href="#me538cc77e6" y="202.096523"/>
      </g>
     </g>
    </g>
    <g id="ytick_19">
     <g id="line2d_41">
      <g>
       <use style="stroke:#000000;stroke-width:0.6;" x="57.6" xlink:href="#me538cc77e6" y="175.760333"/>
      </g>
     </g>
    </g>
    <g id="ytick_20">
     <g id="line2d_42">
      <g>
       <use style="stroke:#000000;stroke-width:0.6;" x="57.6" xlink:href="#me538cc77e6" y="162.387381"/>
      </g>
     </g>
    </g>
    <g id="ytick_21">
     <g id="line2d_43">
      <g>
       <use style="stroke:#000000;stroke-width:0.6;" x="57.6" xlink:href="#me538cc77e6" y="152.899119"/>
      </g>
     </g>
    </g>
    <g id="ytick_22">
     <g id="line2d_44">
      <g>
       <use style="stroke:#000000;stroke-width:0.6;" x="57.6" xlink:href="#me538cc77e6" y="145.539452"/>
      </g>
     </g>
    </g>
    <g id="ytick_23">
     <g id="line2d_45">
      <g>
       <use style="stroke:#000000;stroke-width:0.6;" x="57.6" xlink:href="#me538cc77e6" y="139.526166"/>
      </g>
     </g>
    </g>
    <g id="ytick_24">
     <g id="line2d_46">
      <g>
       <use style="stroke:#000000;stroke-width:0.6;" x="57.6" xlink:href="#me538cc77e6" y="134.442006"/>
      </g>
     </g>
    </g>
    <g id="ytick_25">
     <g id="line2d_47">
      <g>
       <use style="stroke:#000000;stroke-width:0.6;" x="57.6" xlink:href="#me538cc77e6" y="130.037905"/>
      </g>
     </g>
    </g>
    <g id="ytick_26">
     <g id="line2d_48">
      <g>
       <use style="stroke:#000000;stroke-width:0.6;" x="57.6" xlink:href="#me538cc77e6" y="126.153214"/>
      </g>
     </g>
    </g>
    <g id="ytick_27">
     <g id="line2d_49">
      <g>
       <use style="stroke:#000000;stroke-width:0.6;" x="57.6" xlink:href="#me538cc77e6" y="99.817024"/>
      </g>
     </g>
    </g>
    <g id="ytick_28">
     <g id="line2d_50">
      <g>
       <use style="stroke:#000000;stroke-width:0.6;" x="57.6" xlink:href="#me538cc77e6" y="86.444071"/>
      </g>
     </g>
    </g>
    <g id="ytick_29">
     <g id="line2d_51">
      <g>
       <use style="stroke:#000000;stroke-width:0.6;" x="57.6" xlink:href="#me538cc77e6" y="76.95581"/>
      </g>
     </g>
    </g>
    <g id="ytick_30">
     <g id="line2d_52">
      <g>
       <use style="stroke:#000000;stroke-width:0.6;" x="57.6" xlink:href="#me538cc77e6" y="69.596143"/>
      </g>
     </g>
    </g>
    <g id="ytick_31">
     <g id="line2d_53">
      <g>
       <use style="stroke:#000000;stroke-width:0.6;" x="57.6" xlink:href="#me538cc77e6" y="63.582857"/>
      </g>
     </g>
    </g>
    <g id="ytick_32">
     <g id="line2d_54">
      <g>
       <use style="stroke:#000000;stroke-width:0.6;" x="57.6" xlink:href="#me538cc77e6" y="58.498697"/>
      </g>
     </g>
    </g>
    <g id="ytick_33">
     <g id="line2d_55">
      <g>
       <use style="stroke:#000000;stroke-width:0.6;" x="57.6" xlink:href="#me538cc77e6" y="54.094596"/>
      </g>
     </g>
    </g>
    <g id="ytick_34">
     <g id="line2d_56">
      <g>
       <use style="stroke:#000000;stroke-width:0.6;" x="57.6" xlink:href="#me538cc77e6" y="50.209904"/>
      </g>
     </g>
    </g>
    <g id="text_15">
     <!-- $\omega_i$ -->
     <defs>
      <path d="M 21.390625 -1.421875 
Q 1.125 -1.421875 6.78125 27.59375 
Q 8.984375 39.0625 19.625 54.6875 
L 29.296875 54.6875 
Q 19.234375 39.0625 17 27.34375 
Q 12.796875 6.203125 23.734375 6.203125 
Q 33.84375 6.203125 38.71875 32.46875 
L 47.015625 32.46875 
Q 41.703125 6.0625 51.8125 6.203125 
Q 62.703125 6.296875 66.796875 27.34375 
Q 69.046875 39.0625 65.140625 54.6875 
L 74.8125 54.6875 
Q 79.296875 39.0625 77.09375 27.59375 
Q 71.53125 -1.46875 51.21875 -1.421875 
Q 37.9375 -1.375 39.109375 13.1875 
Q 34.28125 -1.421875 21.390625 -1.421875 
" id="DejaVuSans-Oblique-3c9"/>
     </defs>
     <g transform="translate(21.020313 179.828)rotate(-90)scale(0.1 -0.1)">
      <use transform="translate(0 0.3125)" xlink:href="#DejaVuSans-Oblique-3c9"/>
      <use transform="translate(83.740234 -16.09375)scale(0.7)" xlink:href="#DejaVuSans-Oblique-69"/>
     </g>
    </g>
   </g>
   <g id="line2d_57">
    <defs>
     <path d="M 0 3 
C 0.795609 3 1.55874 2.683901 2.12132 2.12132 
C 2.683901 1.55874 3 0.795609 3 0 
C 3 -0.795609 2.683901 -1.55874 2.12132 -2.12132 
C 1.55874 -2.683901 0.795609 -3 0 -3 
C -0.795609 -3 -1.55874 -2.683901 -2.12132 -2.12132 
C -2.683901 -1.55874 -3 -0.795609 -3 0 
C -3 0.795609 -2.683901 1.55874 -2.12132 2.12132 
C -1.55874 2.683901 -0.795609 3 0 3 
z
" id="m1b1eb1bb4d" style="stroke:#1f77b4;"/>
    </defs>
    <g clip-path="url(#p64dacb291c)">
     <use style="fill:#1f77b4;stroke:#1f77b4;" x="147.127446" xlink:href="#m1b1eb1bb4d" y="223.077055"/>
     <use style="fill:#1f77b4;stroke:#1f77b4;" x="151.026886" xlink:href="#m1b1eb1bb4d" y="132.603664"/>
     <use style="fill:#1f77b4;stroke:#1f77b4;" x="153.339075" xlink:href="#m1b1eb1bb4d" y="118.46998"/>
     <use style="fill:#1f77b4;stroke:#1f77b4;" x="324.988948" xlink:href="#m1b1eb1bb4d" y="204.150764"/>
     <use style="fill:#1f77b4;stroke:#1f77b4;" x="319.806387" xlink:href="#m1b1eb1bb4d" y="122.811075"/>
     <use style="fill:#1f77b4;stroke:#1f77b4;" x="317.168496" xlink:href="#m1b1eb1bb4d" y="110.678003"/>
     <use style="fill:#1f77b4;stroke:#1f77b4;" x="324.031174" xlink:href="#m1b1eb1bb4d" y="167.473549"/>
     <use style="fill:#1f77b4;stroke:#1f77b4;" x="154.218563" xlink:href="#m1b1eb1bb4d" y="114.437486"/>
     <use style="fill:#1f77b4;stroke:#1f77b4;" x="151.742716" xlink:href="#m1b1eb1bb4d" y="127.504298"/>
     <use style="fill:#1f77b4;stroke:#1f77b4;" x="322.557737" xlink:href="#m1b1eb1bb4d" y="144.312979"/>
     <use style="fill:#1f77b4;stroke:#1f77b4;" x="314.055215" xlink:href="#m1b1eb1bb4d" y="100.765969"/>
     <use style="fill:#1f77b4;stroke:#1f77b4;" x="146.981917" xlink:href="#m1b1eb1bb4d" y="249.78709"/>
     <use style="fill:#1f77b4;stroke:#1f77b4;" x="152.513613" xlink:href="#m1b1eb1bb4d" y="122.811075"/>
     <use style="fill:#1f77b4;stroke:#1f77b4;" x="159.405108" xlink:href="#m1b1eb1bb4d" y="97.847173"/>
     <use style="fill:#1f77b4;stroke:#1f77b4;" x="148.288826" xlink:href="#m1b1eb1bb4d" y="167.473549"/>
     <use style="fill:#1f77b4;stroke:#1f77b4;" x="315.144725" xlink:href="#m1b1eb1bb4d" y="103.865005"/>
     <use style="fill:#1f77b4;stroke:#1f77b4;" x="316.182711" xlink:href="#m1b1eb1bb4d" y="107.162065"/>
     <use style="fill:#1f77b4;stroke:#1f77b4;" x="148.723041" xlink:href="#m1b1eb1bb4d" y="158.773194"/>
     <use style="fill:#1f77b4;stroke:#1f77b4;" x="167.270211" xlink:href="#m1b1eb1bb4d" y="83.389714"/>
     <use style="fill:#1f77b4;stroke:#1f77b4;" x="155.151504" xlink:href="#m1b1eb1bb4d" y="110.678003"/>
     <use style="fill:#1f77b4;stroke:#1f77b4;" x="318.101437" xlink:href="#m1b1eb1bb4d" y="114.437486"/>
     <use style="fill:#1f77b4;stroke:#1f77b4;" x="305.049789" xlink:href="#m1b1eb1bb4d" y="83.389714"/>
     <use style="fill:#1f77b4;stroke:#1f77b4;" x="147.331052" xlink:href="#m1b1eb1bb4d" y="204.150764"/>
     <use style="fill:#1f77b4;stroke:#1f77b4;" x="171.82134" xlink:href="#m1b1eb1bb4d" y="77.711956"/>
     <use style="fill:#1f77b4;stroke:#1f77b4;" x="160.595501" xlink:href="#m1b1eb1bb4d" y="95.093334"/>
     <use style="fill:#1f77b4;stroke:#1f77b4;" x="147.911932" xlink:href="#m1b1eb1bb4d" y="177.548461"/>
     <use style="fill:#1f77b4;stroke:#1f77b4;" x="303.576394" xlink:href="#m1b1eb1bb4d" y="81.398858"/>
     <use style="fill:#1f77b4;stroke:#1f77b4;" x="311.724499" xlink:href="#m1b1eb1bb4d" y="95.093334"/>
     <use style="fill:#1f77b4;stroke:#1f77b4;" x="156.137289" xlink:href="#m1b1eb1bb4d" y="107.162065"/>
     <use style="fill:#1f77b4;stroke:#1f77b4;" x="178.471895" xlink:href="#m1b1eb1bb4d" y="71.379535"/>
     <use style="fill:#1f77b4;stroke:#1f77b4;" x="325.338083" xlink:href="#m1b1eb1bb4d" y="249.78709"/>
     <use style="fill:#1f77b4;stroke:#1f77b4;" x="310.484814" xlink:href="#m1b1eb1bb4d" y="92.491221"/>
     <use style="fill:#1f77b4;stroke:#1f77b4;" x="295.569967" xlink:href="#m1b1eb1bb4d" y="72.842991"/>
     <use style="fill:#1f77b4;stroke:#1f77b4;" x="146.894562" xlink:href="#m1b1eb1bb4d" y="295.488"/>
     <use style="fill:#1f77b4;stroke:#1f77b4;" x="170.260979" xlink:href="#m1b1eb1bb4d" y="79.508133"/>
     <use style="fill:#1f77b4;stroke:#1f77b4;" x="165.841755" xlink:href="#m1b1eb1bb4d" y="85.486937"/>
     <use style="fill:#1f77b4;stroke:#1f77b4;" x="324.408068" xlink:href="#m1b1eb1bb4d" y="177.548461"/>
     <use style="fill:#1f77b4;stroke:#1f77b4;" x="293.848105" xlink:href="#m1b1eb1bb4d" y="71.379535"/>
     <use style="fill:#1f77b4;stroke:#1f77b4;" x="309.196644" xlink:href="#m1b1eb1bb4d" y="90.029313"/>
     <use style="fill:#1f77b4;stroke:#1f77b4;" x="158.264785" xlink:href="#m1b1eb1bb4d" y="100.765969"/>
     <use style="fill:#1f77b4;stroke:#1f77b4;" x="182.027367" xlink:href="#m1b1eb1bb4d" y="68.671225"/>
     <use style="fill:#1f77b4;stroke:#1f77b4;" x="163.123356" xlink:href="#m1b1eb1bb4d" y="90.029313"/>
     <use style="fill:#1f77b4;stroke:#1f77b4;" x="300.49866" xlink:href="#m1b1eb1bb4d" y="77.711956"/>
     <use style="fill:#1f77b4;stroke:#1f77b4;" x="292.088611" xlink:href="#m1b1eb1bb4d" y="69.989963"/>
     <use style="fill:#1f77b4;stroke:#1f77b4;" x="325.425438" xlink:href="#m1b1eb1bb4d" y="295.488"/>
     <use style="fill:#1f77b4;stroke:#1f77b4;" x="180.231389" xlink:href="#m1b1eb1bb4d" y="69.989963"/>
     <use style="fill:#1f77b4;stroke:#1f77b4;" x="168.743606" xlink:href="#m1b1eb1bb4d" y="81.398858"/>
     <use style="fill:#1f77b4;stroke:#1f77b4;" x="150.366592" xlink:href="#m1b1eb1bb4d" y="138.177325"/>
     <use style="fill:#1f77b4;stroke:#1f77b4;" x="280.807281" xlink:href="#m1b1eb1bb4d" y="63.050882"/>
     <use style="fill:#1f77b4;stroke:#1f77b4;" x="302.059021" xlink:href="#m1b1eb1bb4d" y="79.508133"/>
     <use style="fill:#1f77b4;stroke:#1f77b4;" x="164.459169" xlink:href="#m1b1eb1bb4d" y="87.697515"/>
     <use style="fill:#1f77b4;stroke:#1f77b4;" x="185.724065" xlink:href="#m1b1eb1bb4d" y="66.235385"/>
     <use style="fill:#1f77b4;stroke:#1f77b4;" x="323.105707" xlink:href="#m1b1eb1bb4d" y="151.126121"/>
     <use style="fill:#1f77b4;stroke:#1f77b4;" x="288.461343" xlink:href="#m1b1eb1bb4d" y="67.420543"/>
     <use style="fill:#1f77b4;stroke:#1f77b4;" x="290.292633" xlink:href="#m1b1eb1bb4d" y="68.671225"/>
     <use style="fill:#1f77b4;stroke:#1f77b4;" x="149.214293" xlink:href="#m1b1eb1bb4d" y="151.126121"/>
     <use style="fill:#1f77b4;stroke:#1f77b4;" x="187.622374" xlink:href="#m1b1eb1bb4d" y="65.113435"/>
     <use style="fill:#1f77b4;stroke:#1f77b4;" x="175.066925" xlink:href="#m1b1eb1bb4d" y="74.383685"/>
     <use style="fill:#1f77b4;stroke:#1f77b4;" x="325.192554" xlink:href="#m1b1eb1bb4d" y="223.077055"/>
     <use style="fill:#1f77b4;stroke:#1f77b4;" x="270.594762" xlink:href="#m1b1eb1bb4d" y="58.872817"/>
     <use style="fill:#1f77b4;stroke:#1f77b4;" x="318.980925" xlink:href="#m1b1eb1bb4d" y="118.46998"/>
     <use style="fill:#1f77b4;stroke:#1f77b4;" x="176.750033" xlink:href="#m1b1eb1bb4d" y="72.842991"/>
     <use style="fill:#1f77b4;stroke:#1f77b4;" x="189.552344" xlink:href="#m1b1eb1bb4d" y="64.052579"/>
     <use style="fill:#1f77b4;stroke:#1f77b4;" x="191.512719" xlink:href="#m1b1eb1bb4d" y="63.050882"/>
     <use style="fill:#1f77b4;stroke:#1f77b4;" x="284.697626" xlink:href="#m1b1eb1bb4d" y="65.113435"/>
     <use style="fill:#1f77b4;stroke:#1f77b4;" x="286.595935" xlink:href="#m1b1eb1bb4d" y="66.235385"/>
     <use style="fill:#1f77b4;stroke:#1f77b4;" x="147.592605" xlink:href="#m1b1eb1bb4d" y="189.496036"/>
     <use style="fill:#1f77b4;stroke:#1f77b4;" x="201.725238" xlink:href="#m1b1eb1bb4d" y="58.872817"/>
     <use style="fill:#1f77b4;stroke:#1f77b4;" x="161.835186" xlink:href="#m1b1eb1bb4d" y="92.491221"/>
     <use style="fill:#1f77b4;stroke:#1f77b4;" x="312.914892" xlink:href="#m1b1eb1bb4d" y="97.847173"/>
     <use style="fill:#1f77b4;stroke:#1f77b4;" x="268.479457" xlink:href="#m1b1eb1bb4d" y="58.193739"/>
     <use style="fill:#1f77b4;stroke:#1f77b4;" x="320.577284" xlink:href="#m1b1eb1bb4d" y="127.504298"/>
     <use style="fill:#1f77b4;stroke:#1f77b4;" x="183.858657" xlink:href="#m1b1eb1bb4d" y="67.420543"/>
     <use style="fill:#1f77b4;stroke:#1f77b4;" x="197.563381" xlink:href="#m1b1eb1bb4d" y="60.38378"/>
     <use style="fill:#1f77b4;stroke:#1f77b4;" x="324.727395" xlink:href="#m1b1eb1bb4d" y="189.496036"/>
     <use style="fill:#1f77b4;stroke:#1f77b4;" x="297.253075" xlink:href="#m1b1eb1bb4d" y="74.383685"/>
     <use style="fill:#1f77b4;stroke:#1f77b4;" x="282.767656" xlink:href="#m1b1eb1bb4d" y="64.052579"/>
     <use style="fill:#1f77b4;stroke:#1f77b4;" x="321.953408" xlink:href="#m1b1eb1bb4d" y="138.177325"/>
     <use style="fill:#1f77b4;stroke:#1f77b4;" x="208.133008" xlink:href="#m1b1eb1bb4d" y="56.983226"/>
     <use style="fill:#1f77b4;stroke:#1f77b4;" x="157.175275" xlink:href="#m1b1eb1bb4d" y="103.865005"/>
     <use style="fill:#1f77b4;stroke:#1f77b4;" x="274.756619" xlink:href="#m1b1eb1bb4d" y="60.38378"/>
     <use style="fill:#1f77b4;stroke:#1f77b4;" x="266.343069" xlink:href="#m1b1eb1bb4d" y="57.564187"/>
     <use style="fill:#1f77b4;stroke:#1f77b4;" x="228.188148" xlink:href="#m1b1eb1bb4d" y="53.826545"/>
     <use style="fill:#1f77b4;stroke:#1f77b4;" x="195.519544" xlink:href="#m1b1eb1bb4d" y="61.218034"/>
     <use style="fill:#1f77b4;stroke:#1f77b4;" x="203.840543" xlink:href="#m1b1eb1bb4d" y="58.193739"/>
     <use style="fill:#1f77b4;stroke:#1f77b4;" x="307.860831" xlink:href="#m1b1eb1bb4d" y="87.697515"/>
     <use style="fill:#1f77b4;stroke:#1f77b4;" x="264.186992" xlink:href="#m1b1eb1bb4d" y="56.983226"/>
     <use style="fill:#1f77b4;stroke:#1f77b4;" x="298.89633" xlink:href="#m1b1eb1bb4d" y="76.005313"/>
     <use style="fill:#1f77b4;stroke:#1f77b4;" x="306.478245" xlink:href="#m1b1eb1bb4d" y="85.486937"/>
     <use style="fill:#1f77b4;stroke:#1f77b4;" x="210.307368" xlink:href="#m1b1eb1bb4d" y="56.450006"/>
     <use style="fill:#1f77b4;stroke:#1f77b4;" x="323.596959" xlink:href="#m1b1eb1bb4d" y="158.773194"/>
     <use style="fill:#1f77b4;stroke:#1f77b4;" x="272.687605" xlink:href="#m1b1eb1bb4d" y="59.602454"/>
     <use style="fill:#1f77b4;stroke:#1f77b4;" x="262.012632" xlink:href="#m1b1eb1bb4d" y="56.450006"/>
     <use style="fill:#1f77b4;stroke:#1f77b4;" x="173.42367" xlink:href="#m1b1eb1bb4d" y="76.005313"/>
     <use style="fill:#1f77b4;stroke:#1f77b4;" x="205.976931" xlink:href="#m1b1eb1bb4d" y="57.564187"/>
     <use style="fill:#1f77b4;stroke:#1f77b4;" x="193.502218" xlink:href="#m1b1eb1bb4d" y="62.106574"/>
     <use style="fill:#1f77b4;stroke:#1f77b4;" x="246.400606" xlink:href="#m1b1eb1bb4d" y="53.999284"/>
     <use style="fill:#1f77b4;stroke:#1f77b4;" x="257.614748" xlink:href="#m1b1eb1bb4d" y="55.523807"/>
     <use style="fill:#1f77b4;stroke:#1f77b4;" x="149.762263" xlink:href="#m1b1eb1bb4d" y="144.312979"/>
     <use style="fill:#1f77b4;stroke:#1f77b4;" x="199.632395" xlink:href="#m1b1eb1bb4d" y="59.602454"/>
     <use style="fill:#1f77b4;stroke:#1f77b4;" x="214.705252" xlink:href="#m1b1eb1bb4d" y="55.523807"/>
     <use style="fill:#1f77b4;stroke:#1f77b4;" x="321.293114" xlink:href="#m1b1eb1bb4d" y="132.603664"/>
     <use style="fill:#1f77b4;stroke:#1f77b4;" x="259.821407" xlink:href="#m1b1eb1bb4d" y="55.963763"/>
     <use style="fill:#1f77b4;stroke:#1f77b4;" x="276.800456" xlink:href="#m1b1eb1bb4d" y="61.218034"/>
     <use style="fill:#1f77b4;stroke:#1f77b4;" x="216.925907" xlink:href="#m1b1eb1bb4d" y="55.129526"/>
     <use style="fill:#1f77b4;stroke:#1f77b4;" x="212.498593" xlink:href="#m1b1eb1bb4d" y="55.963763"/>
     <use style="fill:#1f77b4;stroke:#1f77b4;" x="219.159109" xlink:href="#m1b1eb1bb4d" y="54.780376"/>
     <use style="fill:#1f77b4;stroke:#1f77b4;" x="278.817782" xlink:href="#m1b1eb1bb4d" y="62.106574"/>
     <use style="fill:#1f77b4;stroke:#1f77b4;" x="253.160891" xlink:href="#m1b1eb1bb4d" y="54.780376"/>
     <use style="fill:#1f77b4;stroke:#1f77b4;" x="244.131852" xlink:href="#m1b1eb1bb4d" y="53.826545"/>
     <use style="fill:#1f77b4;stroke:#1f77b4;" x="225.919394" xlink:href="#m1b1eb1bb4d" y="53.999284"/>
     <use style="fill:#1f77b4;stroke:#1f77b4;" x="223.65732" xlink:href="#m1b1eb1bb4d" y="54.215635"/>
     <use style="fill:#1f77b4;stroke:#1f77b4;" x="237.300323" xlink:href="#m1b1eb1bb4d" y="53.568"/>
     <use style="fill:#1f77b4;stroke:#1f77b4;" x="250.916599" xlink:href="#m1b1eb1bb4d" y="54.475883"/>
     <use style="fill:#1f77b4;stroke:#1f77b4;" x="255.394093" xlink:href="#m1b1eb1bb4d" y="55.129526"/>
     <use style="fill:#1f77b4;stroke:#1f77b4;" x="235.019677" xlink:href="#m1b1eb1bb4d" y="53.568"/>
     <use style="fill:#1f77b4;stroke:#1f77b4;" x="221.403401" xlink:href="#m1b1eb1bb4d" y="54.475883"/>
     <use style="fill:#1f77b4;stroke:#1f77b4;" x="232.739774" xlink:href="#m1b1eb1bb4d" y="53.611044"/>
     <use style="fill:#1f77b4;stroke:#1f77b4;" x="241.857897" xlink:href="#m1b1eb1bb4d" y="53.697188"/>
     <use style="fill:#1f77b4;stroke:#1f77b4;" x="248.66268" xlink:href="#m1b1eb1bb4d" y="54.215635"/>
     <use style="fill:#1f77b4;stroke:#1f77b4;" x="239.580226" xlink:href="#m1b1eb1bb4d" y="53.611044"/>
     <use style="fill:#1f77b4;stroke:#1f77b4;" x="230.462103" xlink:href="#m1b1eb1bb4d" y="53.697188"/>
    </g>
   </g>
   <g id="patch_3">
    <path d="M 57.6 307.584 
L 57.6 41.472 
" style="fill:none;stroke:#000000;stroke-linecap:square;stroke-linejoin:miter;stroke-width:0.8;"/>
   </g>
   <g id="patch_4">
    <path d="M 414.72 307.584 
L 414.72 41.472 
" style="fill:none;stroke:#000000;stroke-linecap:square;stroke-linejoin:miter;stroke-width:0.8;"/>
   </g>
   <g id="patch_5">
    <path d="M 57.6 307.584 
L 414.72 307.584 
" style="fill:none;stroke:#000000;stroke-linecap:square;stroke-linejoin:miter;stroke-width:0.8;"/>
   </g>
   <g id="patch_6">
    <path d="M 57.6 41.472 
L 414.72 41.472 
" style="fill:none;stroke:#000000;stroke-linecap:square;stroke-linejoin:miter;stroke-width:0.8;"/>
   </g>
  </g>
 </g>
 <defs>
  <clipPath id="p64dacb291c">
   <rect height="266.112" width="357.12" x="57.6" y="41.472"/>
  </clipPath>
 </defs>
</svg>
