<?xml version="1.0" encoding="utf-8" standalone="no"?>
<!DOCTYPE svg PUBLIC "-//W3C//DTD SVG 1.1//EN"
  "http://www.w3.org/Graphics/SVG/1.1/DTD/svg11.dtd">
<!-- Created with matplotlib (http://matplotlib.org/) -->
<svg height="345pt" version="1.1" viewBox="0 0 460 345" width="460pt" xmlns="http://www.w3.org/2000/svg" xmlns:xlink="http://www.w3.org/1999/xlink">
 <defs>
  <style type="text/css">
*{stroke-linecap:butt;stroke-linejoin:round;}
  </style>
 </defs>
 <g id="figure_1">
  <g id="patch_1">
   <path d="M 0 345.6 
L 460.8 345.6 
L 460.8 0 
L 0 0 
z
" style="fill:#ffffff;"/>
  </g>
  <g id="axes_1">
   <g id="patch_2">
    <path d="M 57.6 307.584 
L 414.72 307.584 
L 414.72 41.472 
L 57.6 41.472 
z
" style="fill:#ffffff;"/>
   </g>
   <g id="matplotlib.axis_1">
    <g id="xtick_1">
     <g id="line2d_1">
      <path clip-path="url(#pfde702048d)" d="M 57.5718 307.584 
L 57.5718 41.472 
" style="fill:none;stroke:#b0b0b0;stroke-linecap:square;stroke-width:0.8;"/>
     </g>
     <g id="line2d_2">
      <defs>
       <path d="M 0 0 
L 0 3.5 
" id="m5754a08e11" style="stroke:#000000;stroke-width:0.8;"/>
      </defs>
      <g>
       <use style="stroke:#000000;stroke-width:0.8;" x="57.5718" xlink:href="#m5754a08e11" y="307.584"/>
      </g>
     </g>
     <g id="text_1">
      <!-- −2.0 -->
      <defs>
       <path d="M 10.59375 35.5 
L 73.1875 35.5 
L 73.1875 27.203125 
L 10.59375 27.203125 
z
" id="DejaVuSans-2212"/>
       <path d="M 19.1875 8.296875 
L 53.609375 8.296875 
L 53.609375 0 
L 7.328125 0 
L 7.328125 8.296875 
Q 12.9375 14.109375 22.625 23.890625 
Q 32.328125 33.6875 34.8125 36.53125 
Q 39.546875 41.84375 41.421875 45.53125 
Q 43.3125 49.21875 43.3125 52.78125 
Q 43.3125 58.59375 39.234375 62.25 
Q 35.15625 65.921875 28.609375 65.921875 
Q 23.96875 65.921875 18.8125 64.3125 
Q 13.671875 62.703125 7.8125 59.421875 
L 7.8125 69.390625 
Q 13.765625 71.78125 18.9375 73 
Q 24.125 74.21875 28.421875 74.21875 
Q 39.75 74.21875 46.484375 68.546875 
Q 53.21875 62.890625 53.21875 53.421875 
Q 53.21875 48.921875 51.53125 44.890625 
Q 49.859375 40.875 45.40625 35.40625 
Q 44.1875 33.984375 37.640625 27.21875 
Q 31.109375 20.453125 19.1875 8.296875 
" id="DejaVuSans-32"/>
       <path d="M 10.6875 12.40625 
L 21 12.40625 
L 21 0 
L 10.6875 0 
z
" id="DejaVuSans-2e"/>
       <path d="M 31.78125 66.40625 
Q 24.171875 66.40625 20.328125 58.90625 
Q 16.5 51.421875 16.5 36.375 
Q 16.5 21.390625 20.328125 13.890625 
Q 24.171875 6.390625 31.78125 6.390625 
Q 39.453125 6.390625 43.28125 13.890625 
Q 47.125 21.390625 47.125 36.375 
Q 47.125 51.421875 43.28125 58.90625 
Q 39.453125 66.40625 31.78125 66.40625 
M 31.78125 74.21875 
Q 44.046875 74.21875 50.515625 64.515625 
Q 56.984375 54.828125 56.984375 36.375 
Q 56.984375 17.96875 50.515625 8.265625 
Q 44.046875 -1.421875 31.78125 -1.421875 
Q 19.53125 -1.421875 13.0625 8.265625 
Q 6.59375 17.96875 6.59375 36.375 
Q 6.59375 54.828125 13.0625 64.515625 
Q 19.53125 74.21875 31.78125 74.21875 
" id="DejaVuSans-30"/>
      </defs>
      <g transform="translate(45.430394 322.182437)scale(0.1 -0.1)">
       <use xlink:href="#DejaVuSans-2212"/>
       <use x="83.789062" xlink:href="#DejaVuSans-32"/>
       <use x="147.412109" xlink:href="#DejaVuSans-2e"/>
       <use x="179.199219" xlink:href="#DejaVuSans-30"/>
      </g>
     </g>
    </g>
    <g id="xtick_2">
     <g id="line2d_3">
      <path clip-path="url(#pfde702048d)" d="M 102.21885 307.584 
L 102.21885 41.472 
" style="fill:none;stroke:#b0b0b0;stroke-linecap:square;stroke-width:0.8;"/>
     </g>
     <g id="line2d_4">
      <g>
       <use style="stroke:#000000;stroke-width:0.8;" x="102.21885" xlink:href="#m5754a08e11" y="307.584"/>
      </g>
     </g>
     <g id="text_2">
      <!-- −1.5 -->
      <defs>
       <path d="M 12.40625 8.296875 
L 28.515625 8.296875 
L 28.515625 63.921875 
L 10.984375 60.40625 
L 10.984375 69.390625 
L 28.421875 72.90625 
L 38.28125 72.90625 
L 38.28125 8.296875 
L 54.390625 8.296875 
L 54.390625 0 
L 12.40625 0 
z
" id="DejaVuSans-31"/>
       <path d="M 10.796875 72.90625 
L 49.515625 72.90625 
L 49.515625 64.59375 
L 19.828125 64.59375 
L 19.828125 46.734375 
Q 21.96875 47.46875 24.109375 47.828125 
Q 26.265625 48.1875 28.421875 48.1875 
Q 40.625 48.1875 47.75 41.5 
Q 54.890625 34.8125 54.890625 23.390625 
Q 54.890625 11.625 47.5625 5.09375 
Q 40.234375 -1.421875 26.90625 -1.421875 
Q 22.3125 -1.421875 17.546875 -0.640625 
Q 12.796875 0.140625 7.71875 1.703125 
L 7.71875 11.625 
Q 12.109375 9.234375 16.796875 8.0625 
Q 21.484375 6.890625 26.703125 6.890625 
Q 35.15625 6.890625 40.078125 11.328125 
Q 45.015625 15.765625 45.015625 23.390625 
Q 45.015625 31 40.078125 35.4375 
Q 35.15625 39.890625 26.703125 39.890625 
Q 22.75 39.890625 18.8125 39.015625 
Q 14.890625 38.140625 10.796875 36.28125 
z
" id="DejaVuSans-35"/>
      </defs>
      <g transform="translate(90.077444 322.182437)scale(0.1 -0.1)">
       <use xlink:href="#DejaVuSans-2212"/>
       <use x="83.789062" xlink:href="#DejaVuSans-31"/>
       <use x="147.412109" xlink:href="#DejaVuSans-2e"/>
       <use x="179.199219" xlink:href="#DejaVuSans-35"/>
      </g>
     </g>
    </g>
    <g id="xtick_3">
     <g id="line2d_5">
      <path clip-path="url(#pfde702048d)" d="M 146.8659 307.584 
L 146.8659 41.472 
" style="fill:none;stroke:#b0b0b0;stroke-linecap:square;stroke-width:0.8;"/>
     </g>
     <g id="line2d_6">
      <g>
       <use style="stroke:#000000;stroke-width:0.8;" x="146.8659" xlink:href="#m5754a08e11" y="307.584"/>
      </g>
     </g>
     <g id="text_3">
      <!-- −1.0 -->
      <g transform="translate(134.724494 322.182437)scale(0.1 -0.1)">
       <use xlink:href="#DejaVuSans-2212"/>
       <use x="83.789062" xlink:href="#DejaVuSans-31"/>
       <use x="147.412109" xlink:href="#DejaVuSans-2e"/>
       <use x="179.199219" xlink:href="#DejaVuSans-30"/>
      </g>
     </g>
    </g>
    <g id="xtick_4">
     <g id="line2d_7">
      <path clip-path="url(#pfde702048d)" d="M 191.51295 307.584 
L 191.51295 41.472 
" style="fill:none;stroke:#b0b0b0;stroke-linecap:square;stroke-width:0.8;"/>
     </g>
     <g id="line2d_8">
      <g>
       <use style="stroke:#000000;stroke-width:0.8;" x="191.51295" xlink:href="#m5754a08e11" y="307.584"/>
      </g>
     </g>
     <g id="text_4">
      <!-- −0.5 -->
      <g transform="translate(179.371544 322.182437)scale(0.1 -0.1)">
       <use xlink:href="#DejaVuSans-2212"/>
       <use x="83.789062" xlink:href="#DejaVuSans-30"/>
       <use x="147.412109" xlink:href="#DejaVuSans-2e"/>
       <use x="179.199219" xlink:href="#DejaVuSans-35"/>
      </g>
     </g>
    </g>
    <g id="xtick_5">
     <g id="line2d_9">
      <path clip-path="url(#pfde702048d)" d="M 236.16 307.584 
L 236.16 41.472 
" style="fill:none;stroke:#b0b0b0;stroke-linecap:square;stroke-width:0.8;"/>
     </g>
     <g id="line2d_10">
      <g>
       <use style="stroke:#000000;stroke-width:0.8;" x="236.16" xlink:href="#m5754a08e11" y="307.584"/>
      </g>
     </g>
     <g id="text_5">
      <!-- 0.0 -->
      <g transform="translate(228.208438 322.182437)scale(0.1 -0.1)">
       <use xlink:href="#DejaVuSans-30"/>
       <use x="63.623047" xlink:href="#DejaVuSans-2e"/>
       <use x="95.410156" xlink:href="#DejaVuSans-30"/>
      </g>
     </g>
    </g>
    <g id="xtick_6">
     <g id="line2d_11">
      <path clip-path="url(#pfde702048d)" d="M 280.80705 307.584 
L 280.80705 41.472 
" style="fill:none;stroke:#b0b0b0;stroke-linecap:square;stroke-width:0.8;"/>
     </g>
     <g id="line2d_12">
      <g>
       <use style="stroke:#000000;stroke-width:0.8;" x="280.80705" xlink:href="#m5754a08e11" y="307.584"/>
      </g>
     </g>
     <g id="text_6">
      <!-- 0.5 -->
      <g transform="translate(272.855488 322.182437)scale(0.1 -0.1)">
       <use xlink:href="#DejaVuSans-30"/>
       <use x="63.623047" xlink:href="#DejaVuSans-2e"/>
       <use x="95.410156" xlink:href="#DejaVuSans-35"/>
      </g>
     </g>
    </g>
    <g id="xtick_7">
     <g id="line2d_13">
      <path clip-path="url(#pfde702048d)" d="M 325.4541 307.584 
L 325.4541 41.472 
" style="fill:none;stroke:#b0b0b0;stroke-linecap:square;stroke-width:0.8;"/>
     </g>
     <g id="line2d_14">
      <g>
       <use style="stroke:#000000;stroke-width:0.8;" x="325.4541" xlink:href="#m5754a08e11" y="307.584"/>
      </g>
     </g>
     <g id="text_7">
      <!-- 1.0 -->
      <g transform="translate(317.502538 322.182437)scale(0.1 -0.1)">
       <use xlink:href="#DejaVuSans-31"/>
       <use x="63.623047" xlink:href="#DejaVuSans-2e"/>
       <use x="95.410156" xlink:href="#DejaVuSans-30"/>
      </g>
     </g>
    </g>
    <g id="xtick_8">
     <g id="line2d_15">
      <path clip-path="url(#pfde702048d)" d="M 370.10115 307.584 
L 370.10115 41.472 
" style="fill:none;stroke:#b0b0b0;stroke-linecap:square;stroke-width:0.8;"/>
     </g>
     <g id="line2d_16">
      <g>
       <use style="stroke:#000000;stroke-width:0.8;" x="370.10115" xlink:href="#m5754a08e11" y="307.584"/>
      </g>
     </g>
     <g id="text_8">
      <!-- 1.5 -->
      <g transform="translate(362.149588 322.182437)scale(0.1 -0.1)">
       <use xlink:href="#DejaVuSans-31"/>
       <use x="63.623047" xlink:href="#DejaVuSans-2e"/>
       <use x="95.410156" xlink:href="#DejaVuSans-35"/>
      </g>
     </g>
    </g>
    <g id="xtick_9">
     <g id="line2d_17">
      <path clip-path="url(#pfde702048d)" d="M 414.7482 307.584 
L 414.7482 41.472 
" style="fill:none;stroke:#b0b0b0;stroke-linecap:square;stroke-width:0.8;"/>
     </g>
     <g id="line2d_18">
      <g>
       <use style="stroke:#000000;stroke-width:0.8;" x="414.7482" xlink:href="#m5754a08e11" y="307.584"/>
      </g>
     </g>
     <g id="text_9">
      <!-- 2.0 -->
      <g transform="translate(406.796638 322.182437)scale(0.1 -0.1)">
       <use xlink:href="#DejaVuSans-32"/>
       <use x="63.623047" xlink:href="#DejaVuSans-2e"/>
       <use x="95.410156" xlink:href="#DejaVuSans-30"/>
      </g>
     </g>
    </g>
    <g id="text_10">
     <!-- $\gamma_i$ -->
     <defs>
      <path d="M 23.296875 46.09375 
L 28.71875 12.3125 
L 54 54.6875 
L 63.53125 54.6875 
L 30.8125 0 
L 26.765625 -20.796875 
L 17.78125 -20.796875 
L 21.828125 0 
L 15.4375 40.828125 
Q 14.453125 46.96875 9.8125 46.96875 
L 7.421875 46.96875 
L 8.890625 54.6875 
L 12.3125 54.6875 
Q 21.921875 54.6875 23.296875 46.09375 
" id="DejaVuSans-Oblique-3b3"/>
      <path d="M 18.3125 75.984375 
L 27.296875 75.984375 
L 25.09375 64.59375 
L 16.109375 64.59375 
z
M 14.203125 54.6875 
L 23.1875 54.6875 
L 12.5 0 
L 3.515625 0 
z
" id="DejaVuSans-Oblique-69"/>
     </defs>
     <g transform="translate(232.06 335.84025)scale(0.1 -0.1)">
      <use transform="translate(0 0.3125)" xlink:href="#DejaVuSans-Oblique-3b3"/>
      <use transform="translate(59.179688 -16.09375)scale(0.7)" xlink:href="#DejaVuSans-Oblique-69"/>
     </g>
    </g>
   </g>
   <g id="matplotlib.axis_2">
    <g id="ytick_1">
     <g id="line2d_19">
      <path clip-path="url(#pfde702048d)" d="M 57.6 273.067756 
L 414.72 273.067756 
" style="fill:none;stroke:#b0b0b0;stroke-linecap:square;stroke-width:0.8;"/>
     </g>
     <g id="line2d_20">
      <defs>
       <path d="M 0 0 
L -3.5 0 
" id="m93043f55a8" style="stroke:#000000;stroke-width:0.8;"/>
      </defs>
      <g>
       <use style="stroke:#000000;stroke-width:0.8;" x="57.6" xlink:href="#m93043f55a8" y="273.067756"/>
      </g>
     </g>
     <g id="text_11">
      <!-- ${10^{-5}}$ -->
      <g transform="translate(27.1 276.866975)scale(0.1 -0.1)">
       <use transform="translate(0 0.684375)" xlink:href="#DejaVuSans-31"/>
       <use transform="translate(63.623047 0.684375)" xlink:href="#DejaVuSans-30"/>
       <use transform="translate(128.203125 38.965625)scale(0.7)" xlink:href="#DejaVuSans-2212"/>
       <use transform="translate(186.855469 38.965625)scale(0.7)" xlink:href="#DejaVuSans-35"/>
      </g>
     </g>
    </g>
    <g id="ytick_2">
     <g id="line2d_21">
      <path clip-path="url(#pfde702048d)" d="M 57.6 197.456961 
L 414.72 197.456961 
" style="fill:none;stroke:#b0b0b0;stroke-linecap:square;stroke-width:0.8;"/>
     </g>
     <g id="line2d_22">
      <g>
       <use style="stroke:#000000;stroke-width:0.8;" x="57.6" xlink:href="#m93043f55a8" y="197.456961"/>
      </g>
     </g>
     <g id="text_12">
      <!-- ${10^{-4}}$ -->
      <defs>
       <path d="M 37.796875 64.3125 
L 12.890625 25.390625 
L 37.796875 25.390625 
z
M 35.203125 72.90625 
L 47.609375 72.90625 
L 47.609375 25.390625 
L 58.015625 25.390625 
L 58.015625 17.1875 
L 47.609375 17.1875 
L 47.609375 0 
L 37.796875 0 
L 37.796875 17.1875 
L 4.890625 17.1875 
L 4.890625 26.703125 
z
" id="DejaVuSans-34"/>
      </defs>
      <g transform="translate(27.1 201.25618)scale(0.1 -0.1)">
       <use transform="translate(0 0.684375)" xlink:href="#DejaVuSans-31"/>
       <use transform="translate(63.623047 0.684375)" xlink:href="#DejaVuSans-30"/>
       <use transform="translate(128.203125 38.965625)scale(0.7)" xlink:href="#DejaVuSans-2212"/>
       <use transform="translate(186.855469 38.965625)scale(0.7)" xlink:href="#DejaVuSans-34"/>
      </g>
     </g>
    </g>
    <g id="ytick_3">
     <g id="line2d_23">
      <path clip-path="url(#pfde702048d)" d="M 57.6 121.846166 
L 414.72 121.846166 
" style="fill:none;stroke:#b0b0b0;stroke-linecap:square;stroke-width:0.8;"/>
     </g>
     <g id="line2d_24">
      <g>
       <use style="stroke:#000000;stroke-width:0.8;" x="57.6" xlink:href="#m93043f55a8" y="121.846166"/>
      </g>
     </g>
     <g id="text_13">
      <!-- ${10^{-3}}$ -->
      <defs>
       <path d="M 40.578125 39.3125 
Q 47.65625 37.796875 51.625 33 
Q 55.609375 28.21875 55.609375 21.1875 
Q 55.609375 10.40625 48.1875 4.484375 
Q 40.765625 -1.421875 27.09375 -1.421875 
Q 22.515625 -1.421875 17.65625 -0.515625 
Q 12.796875 0.390625 7.625 2.203125 
L 7.625 11.71875 
Q 11.71875 9.328125 16.59375 8.109375 
Q 21.484375 6.890625 26.8125 6.890625 
Q 36.078125 6.890625 40.9375 10.546875 
Q 45.796875 14.203125 45.796875 21.1875 
Q 45.796875 27.640625 41.28125 31.265625 
Q 36.765625 34.90625 28.71875 34.90625 
L 20.21875 34.90625 
L 20.21875 43.015625 
L 29.109375 43.015625 
Q 36.375 43.015625 40.234375 45.921875 
Q 44.09375 48.828125 44.09375 54.296875 
Q 44.09375 59.90625 40.109375 62.90625 
Q 36.140625 65.921875 28.71875 65.921875 
Q 24.65625 65.921875 20.015625 65.03125 
Q 15.375 64.15625 9.8125 62.3125 
L 9.8125 71.09375 
Q 15.4375 72.65625 20.34375 73.4375 
Q 25.25 74.21875 29.59375 74.21875 
Q 40.828125 74.21875 47.359375 69.109375 
Q 53.90625 64.015625 53.90625 55.328125 
Q 53.90625 49.265625 50.4375 45.09375 
Q 46.96875 40.921875 40.578125 39.3125 
" id="DejaVuSans-33"/>
      </defs>
      <g transform="translate(27.1 125.645385)scale(0.1 -0.1)">
       <use transform="translate(0 0.765625)" xlink:href="#DejaVuSans-31"/>
       <use transform="translate(63.623047 0.765625)" xlink:href="#DejaVuSans-30"/>
       <use transform="translate(128.203125 39.046875)scale(0.7)" xlink:href="#DejaVuSans-2212"/>
       <use transform="translate(186.855469 39.046875)scale(0.7)" xlink:href="#DejaVuSans-33"/>
      </g>
     </g>
    </g>
    <g id="ytick_4">
     <g id="line2d_25">
      <path clip-path="url(#pfde702048d)" d="M 57.6 46.235371 
L 414.72 46.235371 
" style="fill:none;stroke:#b0b0b0;stroke-linecap:square;stroke-width:0.8;"/>
     </g>
     <g id="line2d_26">
      <g>
       <use style="stroke:#000000;stroke-width:0.8;" x="57.6" xlink:href="#m93043f55a8" y="46.235371"/>
      </g>
     </g>
     <g id="text_14">
      <!-- ${10^{-2}}$ -->
      <g transform="translate(27.1 50.03459)scale(0.1 -0.1)">
       <use transform="translate(0 0.765625)" xlink:href="#DejaVuSans-31"/>
       <use transform="translate(63.623047 0.765625)" xlink:href="#DejaVuSans-30"/>
       <use transform="translate(128.203125 39.046875)scale(0.7)" xlink:href="#DejaVuSans-2212"/>
       <use transform="translate(186.855469 39.046875)scale(0.7)" xlink:href="#DejaVuSans-32"/>
      </g>
     </g>
    </g>
    <g id="ytick_5">
     <g id="line2d_27">
      <defs>
       <path d="M 0 0 
L -2 0 
" id="me68a02a3c2" style="stroke:#000000;stroke-width:0.6;"/>
      </defs>
      <g>
       <use style="stroke:#000000;stroke-width:0.6;" x="57.6" xlink:href="#me68a02a3c2" y="303.156316"/>
      </g>
     </g>
    </g>
    <g id="ytick_6">
     <g id="line2d_28">
      <g>
       <use style="stroke:#000000;stroke-width:0.6;" x="57.6" xlink:href="#me68a02a3c2" y="295.828873"/>
      </g>
     </g>
    </g>
    <g id="ytick_7">
     <g id="line2d_29">
      <g>
       <use style="stroke:#000000;stroke-width:0.6;" x="57.6" xlink:href="#me68a02a3c2" y="289.841916"/>
      </g>
     </g>
    </g>
    <g id="ytick_8">
     <g id="line2d_30">
      <g>
       <use style="stroke:#000000;stroke-width:0.6;" x="57.6" xlink:href="#me68a02a3c2" y="284.780016"/>
      </g>
     </g>
    </g>
    <g id="ytick_9">
     <g id="line2d_31">
      <g>
       <use style="stroke:#000000;stroke-width:0.6;" x="57.6" xlink:href="#me68a02a3c2" y="280.395199"/>
      </g>
     </g>
    </g>
    <g id="ytick_10">
     <g id="line2d_32">
      <g>
       <use style="stroke:#000000;stroke-width:0.6;" x="57.6" xlink:href="#me68a02a3c2" y="276.527516"/>
      </g>
     </g>
    </g>
    <g id="ytick_11">
     <g id="line2d_33">
      <g>
       <use style="stroke:#000000;stroke-width:0.6;" x="57.6" xlink:href="#me68a02a3c2" y="250.306639"/>
      </g>
     </g>
    </g>
    <g id="ytick_12">
     <g id="line2d_34">
      <g>
       <use style="stroke:#000000;stroke-width:0.6;" x="57.6" xlink:href="#me68a02a3c2" y="236.992238"/>
      </g>
     </g>
    </g>
    <g id="ytick_13">
     <g id="line2d_35">
      <g>
       <use style="stroke:#000000;stroke-width:0.6;" x="57.6" xlink:href="#me68a02a3c2" y="227.545521"/>
      </g>
     </g>
    </g>
    <g id="ytick_14">
     <g id="line2d_36">
      <g>
       <use style="stroke:#000000;stroke-width:0.6;" x="57.6" xlink:href="#me68a02a3c2" y="220.218078"/>
      </g>
     </g>
    </g>
    <g id="ytick_15">
     <g id="line2d_37">
      <g>
       <use style="stroke:#000000;stroke-width:0.6;" x="57.6" xlink:href="#me68a02a3c2" y="214.231121"/>
      </g>
     </g>
    </g>
    <g id="ytick_16">
     <g id="line2d_38">
      <g>
       <use style="stroke:#000000;stroke-width:0.6;" x="57.6" xlink:href="#me68a02a3c2" y="209.169221"/>
      </g>
     </g>
    </g>
    <g id="ytick_17">
     <g id="line2d_39">
      <g>
       <use style="stroke:#000000;stroke-width:0.6;" x="57.6" xlink:href="#me68a02a3c2" y="204.784404"/>
      </g>
     </g>
    </g>
    <g id="ytick_18">
     <g id="line2d_40">
      <g>
       <use style="stroke:#000000;stroke-width:0.6;" x="57.6" xlink:href="#me68a02a3c2" y="200.916721"/>
      </g>
     </g>
    </g>
    <g id="ytick_19">
     <g id="line2d_41">
      <g>
       <use style="stroke:#000000;stroke-width:0.6;" x="57.6" xlink:href="#me68a02a3c2" y="174.695844"/>
      </g>
     </g>
    </g>
    <g id="ytick_20">
     <g id="line2d_42">
      <g>
       <use style="stroke:#000000;stroke-width:0.6;" x="57.6" xlink:href="#me68a02a3c2" y="161.381444"/>
      </g>
     </g>
    </g>
    <g id="ytick_21">
     <g id="line2d_43">
      <g>
       <use style="stroke:#000000;stroke-width:0.6;" x="57.6" xlink:href="#me68a02a3c2" y="151.934726"/>
      </g>
     </g>
    </g>
    <g id="ytick_22">
     <g id="line2d_44">
      <g>
       <use style="stroke:#000000;stroke-width:0.6;" x="57.6" xlink:href="#me68a02a3c2" y="144.607283"/>
      </g>
     </g>
    </g>
    <g id="ytick_23">
     <g id="line2d_45">
      <g>
       <use style="stroke:#000000;stroke-width:0.6;" x="57.6" xlink:href="#me68a02a3c2" y="138.620326"/>
      </g>
     </g>
    </g>
    <g id="ytick_24">
     <g id="line2d_46">
      <g>
       <use style="stroke:#000000;stroke-width:0.6;" x="57.6" xlink:href="#me68a02a3c2" y="133.558426"/>
      </g>
     </g>
    </g>
    <g id="ytick_25">
     <g id="line2d_47">
      <g>
       <use style="stroke:#000000;stroke-width:0.6;" x="57.6" xlink:href="#me68a02a3c2" y="129.173609"/>
      </g>
     </g>
    </g>
    <g id="ytick_26">
     <g id="line2d_48">
      <g>
       <use style="stroke:#000000;stroke-width:0.6;" x="57.6" xlink:href="#me68a02a3c2" y="125.305926"/>
      </g>
     </g>
    </g>
    <g id="ytick_27">
     <g id="line2d_49">
      <g>
       <use style="stroke:#000000;stroke-width:0.6;" x="57.6" xlink:href="#me68a02a3c2" y="99.085049"/>
      </g>
     </g>
    </g>
    <g id="ytick_28">
     <g id="line2d_50">
      <g>
       <use style="stroke:#000000;stroke-width:0.6;" x="57.6" xlink:href="#me68a02a3c2" y="85.770649"/>
      </g>
     </g>
    </g>
    <g id="ytick_29">
     <g id="line2d_51">
      <g>
       <use style="stroke:#000000;stroke-width:0.6;" x="57.6" xlink:href="#me68a02a3c2" y="76.323932"/>
      </g>
     </g>
    </g>
    <g id="ytick_30">
     <g id="line2d_52">
      <g>
       <use style="stroke:#000000;stroke-width:0.6;" x="57.6" xlink:href="#me68a02a3c2" y="68.996489"/>
      </g>
     </g>
    </g>
    <g id="ytick_31">
     <g id="line2d_53">
      <g>
       <use style="stroke:#000000;stroke-width:0.6;" x="57.6" xlink:href="#me68a02a3c2" y="63.009532"/>
      </g>
     </g>
    </g>
    <g id="ytick_32">
     <g id="line2d_54">
      <g>
       <use style="stroke:#000000;stroke-width:0.6;" x="57.6" xlink:href="#me68a02a3c2" y="57.947632"/>
      </g>
     </g>
    </g>
    <g id="ytick_33">
     <g id="line2d_55">
      <g>
       <use style="stroke:#000000;stroke-width:0.6;" x="57.6" xlink:href="#me68a02a3c2" y="53.562814"/>
      </g>
     </g>
    </g>
    <g id="ytick_34">
     <g id="line2d_56">
      <g>
       <use style="stroke:#000000;stroke-width:0.6;" x="57.6" xlink:href="#me68a02a3c2" y="49.695132"/>
      </g>
     </g>
    </g>
    <g id="text_15">
     <!-- $\omega_i$ -->
     <defs>
      <path d="M 21.390625 -1.421875 
Q 1.125 -1.421875 6.78125 27.59375 
Q 8.984375 39.0625 19.625 54.6875 
L 29.296875 54.6875 
Q 19.234375 39.0625 17 27.34375 
Q 12.796875 6.203125 23.734375 6.203125 
Q 33.84375 6.203125 38.71875 32.46875 
L 47.015625 32.46875 
Q 41.703125 6.0625 51.8125 6.203125 
Q 62.703125 6.296875 66.796875 27.34375 
Q 69.046875 39.0625 65.140625 54.6875 
L 74.8125 54.6875 
Q 79.296875 39.0625 77.09375 27.59375 
Q 71.53125 -1.46875 51.21875 -1.421875 
Q 37.9375 -1.375 39.109375 13.1875 
Q 34.28125 -1.421875 21.390625 -1.421875 
" id="DejaVuSans-Oblique-3c9"/>
     </defs>
     <g transform="translate(21.020313 179.828)rotate(-90)scale(0.1 -0.1)">
      <use transform="translate(0 0.3125)" xlink:href="#DejaVuSans-Oblique-3c9"/>
      <use transform="translate(83.740234 -16.09375)scale(0.7)" xlink:href="#DejaVuSans-Oblique-69"/>
     </g>
    </g>
   </g>
   <g id="line2d_57">
    <defs>
     <path d="M 0 3 
C 0.795609 3 1.55874 2.683901 2.12132 2.12132 
C 2.683901 1.55874 3 0.795609 3 0 
C 3 -0.795609 2.683901 -1.55874 2.12132 -2.12132 
C 1.55874 -2.683901 0.795609 -3 0 -3 
C -0.795609 -3 -1.55874 -2.683901 -2.12132 -2.12132 
C -2.683901 -1.55874 -3 -0.795609 -3 0 
C -3 0.795609 -2.683901 1.55874 -2.12132 2.12132 
C -1.55874 2.683901 -0.795609 3 0 3 
z
" id="m82b2f22d0f" style="stroke:#1f77b4;"/>
    </defs>
    <g clip-path="url(#pfde702048d)">
     <use style="fill:#1f77b4;stroke:#1f77b4;" x="147.119593" xlink:href="#m82b2f22d0f" y="223.392289"/>
     <use style="fill:#1f77b4;stroke:#1f77b4;" x="150.256605" xlink:href="#m82b2f22d0f" y="138.838759"/>
     <use style="fill:#1f77b4;stroke:#1f77b4;" x="152.336605" xlink:href="#m82b2f22d0f" y="123.522554"/>
     <use style="fill:#1f77b4;stroke:#1f77b4;" x="325.003256" xlink:href="#m82b2f22d0f" y="204.547278"/>
     <use style="fill:#1f77b4;stroke:#1f77b4;" x="319.183555" xlink:href="#m82b2f22d0f" y="119.193773"/>
     <use style="fill:#1f77b4;stroke:#1f77b4;" x="318.331275" xlink:href="#m82b2f22d0f" y="115.17176"/>
     <use style="fill:#1f77b4;stroke:#1f77b4;" x="147.316744" xlink:href="#m82b2f22d0f" y="204.547278"/>
     <use style="fill:#1f77b4;stroke:#1f77b4;" x="154.892906" xlink:href="#m82b2f22d0f" y="111.421079"/>
     <use style="fill:#1f77b4;stroke:#1f77b4;" x="153.988725" xlink:href="#m82b2f22d0f" y="115.17176"/>
     <use style="fill:#1f77b4;stroke:#1f77b4;" x="322.063395" xlink:href="#m82b2f22d0f" y="138.838759"/>
     <use style="fill:#1f77b4;stroke:#1f77b4;" x="313.303264" xlink:href="#m82b2f22d0f" y="98.61086"/>
     <use style="fill:#1f77b4;stroke:#1f77b4;" x="325.341318" xlink:href="#m82b2f22d0f" y="249.98651"/>
     <use style="fill:#1f77b4;stroke:#1f77b4;" x="153.136445" xlink:href="#m82b2f22d0f" y="119.193773"/>
     <use style="fill:#1f77b4;stroke:#1f77b4;" x="157.910984" xlink:href="#m82b2f22d0f" y="101.526517"/>
     <use style="fill:#1f77b4;stroke:#1f77b4;" x="146.978682" xlink:href="#m82b2f22d0f" y="249.98651"/>
     <use style="fill:#1f77b4;stroke:#1f77b4;" x="314.409016" xlink:href="#m82b2f22d0f" y="101.526517"/>
     <use style="fill:#1f77b4;stroke:#1f77b4;" x="319.983395" xlink:href="#m82b2f22d0f" y="123.522554"/>
     <use style="fill:#1f77b4;stroke:#1f77b4;" x="148.244214" xlink:href="#m82b2f22d0f" y="168.023151"/>
     <use style="fill:#1f77b4;stroke:#1f77b4;" x="166.647909" xlink:href="#m82b2f22d0f" y="84.147963"/>
     <use style="fill:#1f77b4;stroke:#1f77b4;" x="150.89623" xlink:href="#m82b2f22d0f" y="133.284228"/>
     <use style="fill:#1f77b4;stroke:#1f77b4;" x="320.730291" xlink:href="#m82b2f22d0f" y="128.201446"/>
     <use style="fill:#1f77b4;stroke:#1f77b4;" x="305.672091" xlink:href="#m82b2f22d0f" y="84.147963"/>
     <use style="fill:#1f77b4;stroke:#1f77b4;" x="147.879232" xlink:href="#m82b2f22d0f" y="178.056908"/>
     <use style="fill:#1f77b4;stroke:#1f77b4;" x="159.016736" xlink:href="#m82b2f22d0f" y="98.61086"/>
     <use style="fill:#1f77b4;stroke:#1f77b4;" x="162.623398" xlink:href="#m82b2f22d0f" y="90.795231"/>
     <use style="fill:#1f77b4;stroke:#1f77b4;" x="325.200407" xlink:href="#m82b2f22d0f" y="223.392289"/>
     <use style="fill:#1f77b4;stroke:#1f77b4;" x="307.058658" xlink:href="#m82b2f22d0f" y="86.248788"/>
     <use style="fill:#1f77b4;stroke:#1f77b4;" x="315.465345" xlink:href="#m82b2f22d0f" y="104.621122"/>
     <use style="fill:#1f77b4;stroke:#1f77b4;" x="149.1405" xlink:href="#m82b2f22d0f" y="151.740005"/>
     <use style="fill:#1f77b4;stroke:#1f77b4;" x="179.241799" xlink:href="#m82b2f22d0f" y="70.684107"/>
     <use style="fill:#1f77b4;stroke:#1f77b4;" x="321.42377" xlink:href="#m82b2f22d0f" y="133.284228"/>
     <use style="fill:#1f77b4;stroke:#1f77b4;" x="317.427094" xlink:href="#m82b2f22d0f" y="111.421079"/>
     <use style="fill:#1f77b4;stroke:#1f77b4;" x="301.252598" xlink:href="#m82b2f22d0f" y="78.453383"/>
     <use style="fill:#1f77b4;stroke:#1f77b4;" x="149.671238" xlink:href="#m82b2f22d0f" y="144.952353"/>
     <use style="fill:#1f77b4;stroke:#1f77b4;" x="169.551857" xlink:href="#m82b2f22d0f" y="80.256152"/>
     <use style="fill:#1f77b4;stroke:#1f77b4;" x="165.261342" xlink:href="#m82b2f22d0f" y="86.248788"/>
     <use style="fill:#1f77b4;stroke:#1f77b4;" x="285.885707" xlink:href="#m82b2f22d0f" y="65.75282"/>
     <use style="fill:#1f77b4;stroke:#1f77b4;" x="293.078201" xlink:href="#m82b2f22d0f" y="70.684107"/>
     <use style="fill:#1f77b4;stroke:#1f77b4;" x="308.400444" xlink:href="#m82b2f22d0f" y="88.461932"/>
     <use style="fill:#1f77b4;stroke:#1f77b4;" x="156.854655" xlink:href="#m82b2f22d0f" y="104.621122"/>
     <use style="fill:#1f77b4;stroke:#1f77b4;" x="182.770613" xlink:href="#m82b2f22d0f" y="68.089187"/>
     <use style="fill:#1f77b4;stroke:#1f77b4;" x="324.749989" xlink:href="#m82b2f22d0f" y="189.954671"/>
     <use style="fill:#1f77b4;stroke:#1f77b4;" x="302.768143" xlink:href="#m82b2f22d0f" y="80.256152"/>
     <use style="fill:#1f77b4;stroke:#1f77b4;" x="298.099148" xlink:href="#m82b2f22d0f" y="75.109039"/>
     <use style="fill:#1f77b4;stroke:#1f77b4;" x="146.8941" xlink:href="#m82b2f22d0f" y="295.488"/>
     <use style="fill:#1f77b4;stroke:#1f77b4;" x="180.988782" xlink:href="#m82b2f22d0f" y="69.353088"/>
     <use style="fill:#1f77b4;stroke:#1f77b4;" x="171.067402" xlink:href="#m82b2f22d0f" y="78.453383"/>
     <use style="fill:#1f77b4;stroke:#1f77b4;" x="323.1795" xlink:href="#m82b2f22d0f" y="151.740005"/>
     <use style="fill:#1f77b4;stroke:#1f77b4;" x="282.096415" xlink:href="#m82b2f22d0f" y="63.657214"/>
     <use style="fill:#1f77b4;stroke:#1f77b4;" x="316.471582" xlink:href="#m82b2f22d0f" y="107.912387"/>
     <use style="fill:#1f77b4;stroke:#1f77b4;" x="172.624062" xlink:href="#m82b2f22d0f" y="76.739182"/>
     <use style="fill:#1f77b4;stroke:#1f77b4;" x="186.434293" xlink:href="#m82b2f22d0f" y="65.75282"/>
     <use style="fill:#1f77b4;stroke:#1f77b4;" x="155.848418" xlink:href="#m82b2f22d0f" y="107.912387"/>
     <use style="fill:#1f77b4;stroke:#1f77b4;" x="296.463235" xlink:href="#m82b2f22d0f" y="73.558883"/>
     <use style="fill:#1f77b4;stroke:#1f77b4;" x="287.733835" xlink:href="#m82b2f22d0f" y="66.88987"/>
     <use style="fill:#1f77b4;stroke:#1f77b4;" x="325.4259" xlink:href="#m82b2f22d0f" y="295.488"/>
     <use style="fill:#1f77b4;stroke:#1f77b4;" x="192.162355" xlink:href="#m82b2f22d0f" y="62.694939"/>
     <use style="fill:#1f77b4;stroke:#1f77b4;" x="168.078382" xlink:href="#m82b2f22d0f" y="82.152489"/>
     <use style="fill:#1f77b4;stroke:#1f77b4;" x="312.148786" xlink:href="#m82b2f22d0f" y="95.858928"/>
     <use style="fill:#1f77b4;stroke:#1f77b4;" x="274.179579" xlink:href="#m82b2f22d0f" y="60.131037"/>
     <use style="fill:#1f77b4;stroke:#1f77b4;" x="310.946313" xlink:href="#m82b2f22d0f" y="93.257545"/>
     <use style="fill:#1f77b4;stroke:#1f77b4;" x="177.530766" xlink:href="#m82b2f22d0f" y="72.085022"/>
     <use style="fill:#1f77b4;stroke:#1f77b4;" x="194.128916" xlink:href="#m82b2f22d0f" y="61.78746"/>
     <use style="fill:#1f77b4;stroke:#1f77b4;" x="324.440768" xlink:href="#m82b2f22d0f" y="178.056908"/>
     <use style="fill:#1f77b4;stroke:#1f77b4;" x="284.006171" xlink:href="#m82b2f22d0f" y="64.675915"/>
     <use style="fill:#1f77b4;stroke:#1f77b4;" x="304.241618" xlink:href="#m82b2f22d0f" y="82.152489"/>
     <use style="fill:#1f77b4;stroke:#1f77b4;" x="322.648762" xlink:href="#m82b2f22d0f" y="144.952353"/>
     <use style="fill:#1f77b4;stroke:#1f77b4;" x="200.182832" xlink:href="#m82b2f22d0f" y="59.37947"/>
     <use style="fill:#1f77b4;stroke:#1f77b4;" x="175.856765" xlink:href="#m82b2f22d0f" y="73.558883"/>
     <use style="fill:#1f77b4;stroke:#1f77b4;" x="309.696602" xlink:href="#m82b2f22d0f" y="90.795231"/>
     <use style="fill:#1f77b4;stroke:#1f77b4;" x="270.072033" xlink:href="#m82b2f22d0f" y="58.677434"/>
     <use style="fill:#1f77b4;stroke:#1f77b4;" x="147.570011" xlink:href="#m82b2f22d0f" y="189.954671"/>
     <use style="fill:#1f77b4;stroke:#1f77b4;" x="188.313829" xlink:href="#m82b2f22d0f" y="64.675915"/>
     <use style="fill:#1f77b4;stroke:#1f77b4;" x="198.140421" xlink:href="#m82b2f22d0f" y="60.131037"/>
     <use style="fill:#1f77b4;stroke:#1f77b4;" x="323.655275" xlink:href="#m82b2f22d0f" y="159.357473"/>
     <use style="fill:#1f77b4;stroke:#1f77b4;" x="278.191084" xlink:href="#m82b2f22d0f" y="61.78746"/>
     <use style="fill:#1f77b4;stroke:#1f77b4;" x="291.331218" xlink:href="#m82b2f22d0f" y="69.353088"/>
     <use style="fill:#1f77b4;stroke:#1f77b4;" x="184.586165" xlink:href="#m82b2f22d0f" y="66.88987"/>
     <use style="fill:#1f77b4;stroke:#1f77b4;" x="208.566606" xlink:href="#m82b2f22d0f" y="56.858488"/>
     <use style="fill:#1f77b4;stroke:#1f77b4;" x="160.171214" xlink:href="#m82b2f22d0f" y="95.858928"/>
     <use style="fill:#1f77b4;stroke:#1f77b4;" x="299.695938" xlink:href="#m82b2f22d0f" y="76.739182"/>
     <use style="fill:#1f77b4;stroke:#1f77b4;" x="263.753394" xlink:href="#m82b2f22d0f" y="56.858488"/>
     <use style="fill:#1f77b4;stroke:#1f77b4;" x="324.075786" xlink:href="#m82b2f22d0f" y="168.023151"/>
     <use style="fill:#1f77b4;stroke:#1f77b4;" x="196.122024" xlink:href="#m82b2f22d0f" y="60.933282"/>
     <use style="fill:#1f77b4;stroke:#1f77b4;" x="174.220852" xlink:href="#m82b2f22d0f" y="75.109039"/>
     <use style="fill:#1f77b4;stroke:#1f77b4;" x="161.373687" xlink:href="#m82b2f22d0f" y="93.257545"/>
     <use style="fill:#1f77b4;stroke:#1f77b4;" x="265.878822" xlink:href="#m82b2f22d0f" y="57.417856"/>
     <use style="fill:#1f77b4;stroke:#1f77b4;" x="280.157645" xlink:href="#m82b2f22d0f" y="62.694939"/>
     <use style="fill:#1f77b4;stroke:#1f77b4;" x="294.789234" xlink:href="#m82b2f22d0f" y="72.085022"/>
     <use style="fill:#1f77b4;stroke:#1f77b4;" x="212.868392" xlink:href="#m82b2f22d0f" y="55.876651"/>
     <use style="fill:#1f77b4;stroke:#1f77b4;" x="190.223585" xlink:href="#m82b2f22d0f" y="63.657214"/>
     <use style="fill:#1f77b4;stroke:#1f77b4;" x="289.549387" xlink:href="#m82b2f22d0f" y="68.089187"/>
     <use style="fill:#1f77b4;stroke:#1f77b4;" x="261.610539" xlink:href="#m82b2f22d0f" y="56.344991"/>
     <use style="fill:#1f77b4;stroke:#1f77b4;" x="163.919556" xlink:href="#m82b2f22d0f" y="88.461932"/>
     <use style="fill:#1f77b4;stroke:#1f77b4;" x="210.709461" xlink:href="#m82b2f22d0f" y="56.344991"/>
     <use style="fill:#1f77b4;stroke:#1f77b4;" x="202.247967" xlink:href="#m82b2f22d0f" y="58.677434"/>
     <use style="fill:#1f77b4;stroke:#1f77b4;" x="267.985478" xlink:href="#m82b2f22d0f" y="58.023881"/>
     <use style="fill:#1f77b4;stroke:#1f77b4;" x="259.451608" xlink:href="#m82b2f22d0f" y="55.876651"/>
     <use style="fill:#1f77b4;stroke:#1f77b4;" x="276.197976" xlink:href="#m82b2f22d0f" y="60.933282"/>
     <use style="fill:#1f77b4;stroke:#1f77b4;" x="151.589709" xlink:href="#m82b2f22d0f" y="128.201446"/>
     <use style="fill:#1f77b4;stroke:#1f77b4;" x="215.042035" xlink:href="#m82b2f22d0f" y="55.452829"/>
     <use style="fill:#1f77b4;stroke:#1f77b4;" x="148.664725" xlink:href="#m82b2f22d0f" y="159.357473"/>
     <use style="fill:#1f77b4;stroke:#1f77b4;" x="272.137168" xlink:href="#m82b2f22d0f" y="59.37947"/>
     <use style="fill:#1f77b4;stroke:#1f77b4;" x="257.277965" xlink:href="#m82b2f22d0f" y="55.452829"/>
     <use style="fill:#1f77b4;stroke:#1f77b4;" x="232.794489" xlink:href="#m82b2f22d0f" y="53.609495"/>
     <use style="fill:#1f77b4;stroke:#1f77b4;" x="217.229016" xlink:href="#m82b2f22d0f" y="55.072954"/>
     <use style="fill:#1f77b4;stroke:#1f77b4;" x="206.441178" xlink:href="#m82b2f22d0f" y="57.417856"/>
     <use style="fill:#1f77b4;stroke:#1f77b4;" x="246.237409" xlink:href="#m82b2f22d0f" y="53.983736"/>
     <use style="fill:#1f77b4;stroke:#1f77b4;" x="252.892046" xlink:href="#m82b2f22d0f" y="54.73652"/>
     <use style="fill:#1f77b4;stroke:#1f77b4;" x="244.004594" xlink:href="#m82b2f22d0f" y="53.817231"/>
     <use style="fill:#1f77b4;stroke:#1f77b4;" x="204.334522" xlink:href="#m82b2f22d0f" y="58.023881"/>
     <use style="fill:#1f77b4;stroke:#1f77b4;" x="219.427954" xlink:href="#m82b2f22d0f" y="54.73652"/>
     <use style="fill:#1f77b4;stroke:#1f77b4;" x="230.553177" xlink:href="#m82b2f22d0f" y="53.692536"/>
     <use style="fill:#1f77b4;stroke:#1f77b4;" x="248.46386" xlink:href="#m82b2f22d0f" y="54.192264"/>
     <use style="fill:#1f77b4;stroke:#1f77b4;" x="250.682539" xlink:href="#m82b2f22d0f" y="54.443084"/>
     <use style="fill:#1f77b4;stroke:#1f77b4;" x="237.282073" xlink:href="#m82b2f22d0f" y="53.568"/>
     <use style="fill:#1f77b4;stroke:#1f77b4;" x="221.637461" xlink:href="#m82b2f22d0f" y="54.443084"/>
     <use style="fill:#1f77b4;stroke:#1f77b4;" x="228.315406" xlink:href="#m82b2f22d0f" y="53.817231"/>
     <use style="fill:#1f77b4;stroke:#1f77b4;" x="239.525511" xlink:href="#m82b2f22d0f" y="53.609495"/>
     <use style="fill:#1f77b4;stroke:#1f77b4;" x="255.090984" xlink:href="#m82b2f22d0f" y="55.072954"/>
     <use style="fill:#1f77b4;stroke:#1f77b4;" x="241.766823" xlink:href="#m82b2f22d0f" y="53.692536"/>
     <use style="fill:#1f77b4;stroke:#1f77b4;" x="223.85614" xlink:href="#m82b2f22d0f" y="54.192264"/>
     <use style="fill:#1f77b4;stroke:#1f77b4;" x="226.082591" xlink:href="#m82b2f22d0f" y="53.983736"/>
     <use style="fill:#1f77b4;stroke:#1f77b4;" x="235.037927" xlink:href="#m82b2f22d0f" y="53.568"/>
    </g>
   </g>
   <g id="patch_3">
    <path d="M 57.6 307.584 
L 57.6 41.472 
" style="fill:none;stroke:#000000;stroke-linecap:square;stroke-linejoin:miter;stroke-width:0.8;"/>
   </g>
   <g id="patch_4">
    <path d="M 414.72 307.584 
L 414.72 41.472 
" style="fill:none;stroke:#000000;stroke-linecap:square;stroke-linejoin:miter;stroke-width:0.8;"/>
   </g>
   <g id="patch_5">
    <path d="M 57.6 307.584 
L 414.72 307.584 
" style="fill:none;stroke:#000000;stroke-linecap:square;stroke-linejoin:miter;stroke-width:0.8;"/>
   </g>
   <g id="patch_6">
    <path d="M 57.6 41.472 
L 414.72 41.472 
" style="fill:none;stroke:#000000;stroke-linecap:square;stroke-linejoin:miter;stroke-width:0.8;"/>
   </g>
  </g>
 </g>
 <defs>
  <clipPath id="pfde702048d">
   <rect height="266.112" width="357.12" x="57.6" y="41.472"/>
  </clipPath>
 </defs>
</svg>
