<?xml version="1.0" encoding="utf-8" standalone="no"?>
<!DOCTYPE svg PUBLIC "-//W3C//DTD SVG 1.1//EN"
  "http://www.w3.org/Graphics/SVG/1.1/DTD/svg11.dtd">
<!-- Created with matplotlib (http://matplotlib.org/) -->
<svg height="345pt" version="1.1" viewBox="0 0 460 345" width="460pt" xmlns="http://www.w3.org/2000/svg" xmlns:xlink="http://www.w3.org/1999/xlink">
 <defs>
  <style type="text/css">
*{stroke-linecap:butt;stroke-linejoin:round;}
  </style>
 </defs>
 <g id="figure_1">
  <g id="patch_1">
   <path d="M 0 345.6 
L 460.8 345.6 
L 460.8 0 
L 0 0 
z
" style="fill:#ffffff;"/>
  </g>
  <g id="axes_1">
   <g id="patch_2">
    <path d="M 57.6 307.584 
L 414.72 307.584 
L 414.72 41.472 
L 57.6 41.472 
z
" style="fill:#ffffff;"/>
   </g>
   <g id="matplotlib.axis_1">
    <g id="xtick_1">
     <g id="line2d_1">
      <path clip-path="url(#pc9ae1525e4)" d="M 57.564237 307.584 
L 57.564237 41.472 
" style="fill:none;stroke:#b0b0b0;stroke-linecap:square;stroke-width:0.8;"/>
     </g>
     <g id="line2d_2">
      <defs>
       <path d="M 0 0 
L 0 3.5 
" id="m7bc8e12195" style="stroke:#000000;stroke-width:0.8;"/>
      </defs>
      <g>
       <use style="stroke:#000000;stroke-width:0.8;" x="57.564237" xlink:href="#m7bc8e12195" y="307.584"/>
      </g>
     </g>
     <g id="text_1">
      <!-- −2.0 -->
      <defs>
       <path d="M 10.59375 35.5 
L 73.1875 35.5 
L 73.1875 27.203125 
L 10.59375 27.203125 
z
" id="DejaVuSans-2212"/>
       <path d="M 19.1875 8.296875 
L 53.609375 8.296875 
L 53.609375 0 
L 7.328125 0 
L 7.328125 8.296875 
Q 12.9375 14.109375 22.625 23.890625 
Q 32.328125 33.6875 34.8125 36.53125 
Q 39.546875 41.84375 41.421875 45.53125 
Q 43.3125 49.21875 43.3125 52.78125 
Q 43.3125 58.59375 39.234375 62.25 
Q 35.15625 65.921875 28.609375 65.921875 
Q 23.96875 65.921875 18.8125 64.3125 
Q 13.671875 62.703125 7.8125 59.421875 
L 7.8125 69.390625 
Q 13.765625 71.78125 18.9375 73 
Q 24.125 74.21875 28.421875 74.21875 
Q 39.75 74.21875 46.484375 68.546875 
Q 53.21875 62.890625 53.21875 53.421875 
Q 53.21875 48.921875 51.53125 44.890625 
Q 49.859375 40.875 45.40625 35.40625 
Q 44.1875 33.984375 37.640625 27.21875 
Q 31.109375 20.453125 19.1875 8.296875 
" id="DejaVuSans-32"/>
       <path d="M 10.6875 12.40625 
L 21 12.40625 
L 21 0 
L 10.6875 0 
z
" id="DejaVuSans-2e"/>
       <path d="M 31.78125 66.40625 
Q 24.171875 66.40625 20.328125 58.90625 
Q 16.5 51.421875 16.5 36.375 
Q 16.5 21.390625 20.328125 13.890625 
Q 24.171875 6.390625 31.78125 6.390625 
Q 39.453125 6.390625 43.28125 13.890625 
Q 47.125 21.390625 47.125 36.375 
Q 47.125 51.421875 43.28125 58.90625 
Q 39.453125 66.40625 31.78125 66.40625 
M 31.78125 74.21875 
Q 44.046875 74.21875 50.515625 64.515625 
Q 56.984375 54.828125 56.984375 36.375 
Q 56.984375 17.96875 50.515625 8.265625 
Q 44.046875 -1.421875 31.78125 -1.421875 
Q 19.53125 -1.421875 13.0625 8.265625 
Q 6.59375 17.96875 6.59375 36.375 
Q 6.59375 54.828125 13.0625 64.515625 
Q 19.53125 74.21875 31.78125 74.21875 
" id="DejaVuSans-30"/>
      </defs>
      <g transform="translate(45.422831 322.182437)scale(0.1 -0.1)">
       <use xlink:href="#DejaVuSans-2212"/>
       <use x="83.789062" xlink:href="#DejaVuSans-32"/>
       <use x="147.412109" xlink:href="#DejaVuSans-2e"/>
       <use x="179.199219" xlink:href="#DejaVuSans-30"/>
      </g>
     </g>
    </g>
    <g id="xtick_2">
     <g id="line2d_3">
      <path clip-path="url(#pc9ae1525e4)" d="M 102.213178 307.584 
L 102.213178 41.472 
" style="fill:none;stroke:#b0b0b0;stroke-linecap:square;stroke-width:0.8;"/>
     </g>
     <g id="line2d_4">
      <g>
       <use style="stroke:#000000;stroke-width:0.8;" x="102.213178" xlink:href="#m7bc8e12195" y="307.584"/>
      </g>
     </g>
     <g id="text_2">
      <!-- −1.5 -->
      <defs>
       <path d="M 12.40625 8.296875 
L 28.515625 8.296875 
L 28.515625 63.921875 
L 10.984375 60.40625 
L 10.984375 69.390625 
L 28.421875 72.90625 
L 38.28125 72.90625 
L 38.28125 8.296875 
L 54.390625 8.296875 
L 54.390625 0 
L 12.40625 0 
z
" id="DejaVuSans-31"/>
       <path d="M 10.796875 72.90625 
L 49.515625 72.90625 
L 49.515625 64.59375 
L 19.828125 64.59375 
L 19.828125 46.734375 
Q 21.96875 47.46875 24.109375 47.828125 
Q 26.265625 48.1875 28.421875 48.1875 
Q 40.625 48.1875 47.75 41.5 
Q 54.890625 34.8125 54.890625 23.390625 
Q 54.890625 11.625 47.5625 5.09375 
Q 40.234375 -1.421875 26.90625 -1.421875 
Q 22.3125 -1.421875 17.546875 -0.640625 
Q 12.796875 0.140625 7.71875 1.703125 
L 7.71875 11.625 
Q 12.109375 9.234375 16.796875 8.0625 
Q 21.484375 6.890625 26.703125 6.890625 
Q 35.15625 6.890625 40.078125 11.328125 
Q 45.015625 15.765625 45.015625 23.390625 
Q 45.015625 31 40.078125 35.4375 
Q 35.15625 39.890625 26.703125 39.890625 
Q 22.75 39.890625 18.8125 39.015625 
Q 14.890625 38.140625 10.796875 36.28125 
z
" id="DejaVuSans-35"/>
      </defs>
      <g transform="translate(90.071771 322.182437)scale(0.1 -0.1)">
       <use xlink:href="#DejaVuSans-2212"/>
       <use x="83.789062" xlink:href="#DejaVuSans-31"/>
       <use x="147.412109" xlink:href="#DejaVuSans-2e"/>
       <use x="179.199219" xlink:href="#DejaVuSans-35"/>
      </g>
     </g>
    </g>
    <g id="xtick_3">
     <g id="line2d_5">
      <path clip-path="url(#pc9ae1525e4)" d="M 146.862118 307.584 
L 146.862118 41.472 
" style="fill:none;stroke:#b0b0b0;stroke-linecap:square;stroke-width:0.8;"/>
     </g>
     <g id="line2d_6">
      <g>
       <use style="stroke:#000000;stroke-width:0.8;" x="146.862118" xlink:href="#m7bc8e12195" y="307.584"/>
      </g>
     </g>
     <g id="text_3">
      <!-- −1.0 -->
      <g transform="translate(134.720712 322.182437)scale(0.1 -0.1)">
       <use xlink:href="#DejaVuSans-2212"/>
       <use x="83.789062" xlink:href="#DejaVuSans-31"/>
       <use x="147.412109" xlink:href="#DejaVuSans-2e"/>
       <use x="179.199219" xlink:href="#DejaVuSans-30"/>
      </g>
     </g>
    </g>
    <g id="xtick_4">
     <g id="line2d_7">
      <path clip-path="url(#pc9ae1525e4)" d="M 191.511059 307.584 
L 191.511059 41.472 
" style="fill:none;stroke:#b0b0b0;stroke-linecap:square;stroke-width:0.8;"/>
     </g>
     <g id="line2d_8">
      <g>
       <use style="stroke:#000000;stroke-width:0.8;" x="191.511059" xlink:href="#m7bc8e12195" y="307.584"/>
      </g>
     </g>
     <g id="text_4">
      <!-- −0.5 -->
      <g transform="translate(179.369653 322.182437)scale(0.1 -0.1)">
       <use xlink:href="#DejaVuSans-2212"/>
       <use x="83.789062" xlink:href="#DejaVuSans-30"/>
       <use x="147.412109" xlink:href="#DejaVuSans-2e"/>
       <use x="179.199219" xlink:href="#DejaVuSans-35"/>
      </g>
     </g>
    </g>
    <g id="xtick_5">
     <g id="line2d_9">
      <path clip-path="url(#pc9ae1525e4)" d="M 236.16 307.584 
L 236.16 41.472 
" style="fill:none;stroke:#b0b0b0;stroke-linecap:square;stroke-width:0.8;"/>
     </g>
     <g id="line2d_10">
      <g>
       <use style="stroke:#000000;stroke-width:0.8;" x="236.16" xlink:href="#m7bc8e12195" y="307.584"/>
      </g>
     </g>
     <g id="text_5">
      <!-- 0.0 -->
      <g transform="translate(228.208438 322.182437)scale(0.1 -0.1)">
       <use xlink:href="#DejaVuSans-30"/>
       <use x="63.623047" xlink:href="#DejaVuSans-2e"/>
       <use x="95.410156" xlink:href="#DejaVuSans-30"/>
      </g>
     </g>
    </g>
    <g id="xtick_6">
     <g id="line2d_11">
      <path clip-path="url(#pc9ae1525e4)" d="M 280.808941 307.584 
L 280.808941 41.472 
" style="fill:none;stroke:#b0b0b0;stroke-linecap:square;stroke-width:0.8;"/>
     </g>
     <g id="line2d_12">
      <g>
       <use style="stroke:#000000;stroke-width:0.8;" x="280.808941" xlink:href="#m7bc8e12195" y="307.584"/>
      </g>
     </g>
     <g id="text_6">
      <!-- 0.5 -->
      <g transform="translate(272.857378 322.182437)scale(0.1 -0.1)">
       <use xlink:href="#DejaVuSans-30"/>
       <use x="63.623047" xlink:href="#DejaVuSans-2e"/>
       <use x="95.410156" xlink:href="#DejaVuSans-35"/>
      </g>
     </g>
    </g>
    <g id="xtick_7">
     <g id="line2d_13">
      <path clip-path="url(#pc9ae1525e4)" d="M 325.457882 307.584 
L 325.457882 41.472 
" style="fill:none;stroke:#b0b0b0;stroke-linecap:square;stroke-width:0.8;"/>
     </g>
     <g id="line2d_14">
      <g>
       <use style="stroke:#000000;stroke-width:0.8;" x="325.457882" xlink:href="#m7bc8e12195" y="307.584"/>
      </g>
     </g>
     <g id="text_7">
      <!-- 1.0 -->
      <g transform="translate(317.506319 322.182437)scale(0.1 -0.1)">
       <use xlink:href="#DejaVuSans-31"/>
       <use x="63.623047" xlink:href="#DejaVuSans-2e"/>
       <use x="95.410156" xlink:href="#DejaVuSans-30"/>
      </g>
     </g>
    </g>
    <g id="xtick_8">
     <g id="line2d_15">
      <path clip-path="url(#pc9ae1525e4)" d="M 370.106822 307.584 
L 370.106822 41.472 
" style="fill:none;stroke:#b0b0b0;stroke-linecap:square;stroke-width:0.8;"/>
     </g>
     <g id="line2d_16">
      <g>
       <use style="stroke:#000000;stroke-width:0.8;" x="370.106822" xlink:href="#m7bc8e12195" y="307.584"/>
      </g>
     </g>
     <g id="text_8">
      <!-- 1.5 -->
      <g transform="translate(362.15526 322.182437)scale(0.1 -0.1)">
       <use xlink:href="#DejaVuSans-31"/>
       <use x="63.623047" xlink:href="#DejaVuSans-2e"/>
       <use x="95.410156" xlink:href="#DejaVuSans-35"/>
      </g>
     </g>
    </g>
    <g id="xtick_9">
     <g id="line2d_17">
      <path clip-path="url(#pc9ae1525e4)" d="M 414.755763 307.584 
L 414.755763 41.472 
" style="fill:none;stroke:#b0b0b0;stroke-linecap:square;stroke-width:0.8;"/>
     </g>
     <g id="line2d_18">
      <g>
       <use style="stroke:#000000;stroke-width:0.8;" x="414.755763" xlink:href="#m7bc8e12195" y="307.584"/>
      </g>
     </g>
     <g id="text_9">
      <!-- 2.0 -->
      <g transform="translate(406.804201 322.182437)scale(0.1 -0.1)">
       <use xlink:href="#DejaVuSans-32"/>
       <use x="63.623047" xlink:href="#DejaVuSans-2e"/>
       <use x="95.410156" xlink:href="#DejaVuSans-30"/>
      </g>
     </g>
    </g>
    <g id="text_10">
     <!-- $\gamma_i$ -->
     <defs>
      <path d="M 23.296875 46.09375 
L 28.71875 12.3125 
L 54 54.6875 
L 63.53125 54.6875 
L 30.8125 0 
L 26.765625 -20.796875 
L 17.78125 -20.796875 
L 21.828125 0 
L 15.4375 40.828125 
Q 14.453125 46.96875 9.8125 46.96875 
L 7.421875 46.96875 
L 8.890625 54.6875 
L 12.3125 54.6875 
Q 21.921875 54.6875 23.296875 46.09375 
" id="DejaVuSans-Oblique-3b3"/>
      <path d="M 18.3125 75.984375 
L 27.296875 75.984375 
L 25.09375 64.59375 
L 16.109375 64.59375 
z
M 14.203125 54.6875 
L 23.1875 54.6875 
L 12.5 0 
L 3.515625 0 
z
" id="DejaVuSans-Oblique-69"/>
     </defs>
     <g transform="translate(232.06 335.84025)scale(0.1 -0.1)">
      <use transform="translate(0 0.3125)" xlink:href="#DejaVuSans-Oblique-3b3"/>
      <use transform="translate(59.179688 -16.09375)scale(0.7)" xlink:href="#DejaVuSans-Oblique-69"/>
     </g>
    </g>
   </g>
   <g id="matplotlib.axis_2">
    <g id="ytick_1">
     <g id="line2d_19">
      <path clip-path="url(#pc9ae1525e4)" d="M 57.6 284.410316 
L 414.72 284.410316 
" style="fill:none;stroke:#b0b0b0;stroke-linecap:square;stroke-width:0.8;"/>
     </g>
     <g id="line2d_20">
      <defs>
       <path d="M 0 0 
L -3.5 0 
" id="m3010ed6235" style="stroke:#000000;stroke-width:0.8;"/>
      </defs>
      <g>
       <use style="stroke:#000000;stroke-width:0.8;" x="57.6" xlink:href="#m3010ed6235" y="284.410316"/>
      </g>
     </g>
     <g id="text_11">
      <!-- ${10^{-5}}$ -->
      <g transform="translate(27.1 288.209535)scale(0.1 -0.1)">
       <use transform="translate(0 0.684375)" xlink:href="#DejaVuSans-31"/>
       <use transform="translate(63.623047 0.684375)" xlink:href="#DejaVuSans-30"/>
       <use transform="translate(128.203125 38.965625)scale(0.7)" xlink:href="#DejaVuSans-2212"/>
       <use transform="translate(186.855469 38.965625)scale(0.7)" xlink:href="#DejaVuSans-35"/>
      </g>
     </g>
    </g>
    <g id="ytick_2">
     <g id="line2d_21">
      <path clip-path="url(#pc9ae1525e4)" d="M 57.6 206.28025 
L 414.72 206.28025 
" style="fill:none;stroke:#b0b0b0;stroke-linecap:square;stroke-width:0.8;"/>
     </g>
     <g id="line2d_22">
      <g>
       <use style="stroke:#000000;stroke-width:0.8;" x="57.6" xlink:href="#m3010ed6235" y="206.28025"/>
      </g>
     </g>
     <g id="text_12">
      <!-- ${10^{-4}}$ -->
      <defs>
       <path d="M 37.796875 64.3125 
L 12.890625 25.390625 
L 37.796875 25.390625 
z
M 35.203125 72.90625 
L 47.609375 72.90625 
L 47.609375 25.390625 
L 58.015625 25.390625 
L 58.015625 17.1875 
L 47.609375 17.1875 
L 47.609375 0 
L 37.796875 0 
L 37.796875 17.1875 
L 4.890625 17.1875 
L 4.890625 26.703125 
z
" id="DejaVuSans-34"/>
      </defs>
      <g transform="translate(27.1 210.079469)scale(0.1 -0.1)">
       <use transform="translate(0 0.684375)" xlink:href="#DejaVuSans-31"/>
       <use transform="translate(63.623047 0.684375)" xlink:href="#DejaVuSans-30"/>
       <use transform="translate(128.203125 38.965625)scale(0.7)" xlink:href="#DejaVuSans-2212"/>
       <use transform="translate(186.855469 38.965625)scale(0.7)" xlink:href="#DejaVuSans-34"/>
      </g>
     </g>
    </g>
    <g id="ytick_3">
     <g id="line2d_23">
      <path clip-path="url(#pc9ae1525e4)" d="M 57.6 128.150184 
L 414.72 128.150184 
" style="fill:none;stroke:#b0b0b0;stroke-linecap:square;stroke-width:0.8;"/>
     </g>
     <g id="line2d_24">
      <g>
       <use style="stroke:#000000;stroke-width:0.8;" x="57.6" xlink:href="#m3010ed6235" y="128.150184"/>
      </g>
     </g>
     <g id="text_13">
      <!-- ${10^{-3}}$ -->
      <defs>
       <path d="M 40.578125 39.3125 
Q 47.65625 37.796875 51.625 33 
Q 55.609375 28.21875 55.609375 21.1875 
Q 55.609375 10.40625 48.1875 4.484375 
Q 40.765625 -1.421875 27.09375 -1.421875 
Q 22.515625 -1.421875 17.65625 -0.515625 
Q 12.796875 0.390625 7.625 2.203125 
L 7.625 11.71875 
Q 11.71875 9.328125 16.59375 8.109375 
Q 21.484375 6.890625 26.8125 6.890625 
Q 36.078125 6.890625 40.9375 10.546875 
Q 45.796875 14.203125 45.796875 21.1875 
Q 45.796875 27.640625 41.28125 31.265625 
Q 36.765625 34.90625 28.71875 34.90625 
L 20.21875 34.90625 
L 20.21875 43.015625 
L 29.109375 43.015625 
Q 36.375 43.015625 40.234375 45.921875 
Q 44.09375 48.828125 44.09375 54.296875 
Q 44.09375 59.90625 40.109375 62.90625 
Q 36.140625 65.921875 28.71875 65.921875 
Q 24.65625 65.921875 20.015625 65.03125 
Q 15.375 64.15625 9.8125 62.3125 
L 9.8125 71.09375 
Q 15.4375 72.65625 20.34375 73.4375 
Q 25.25 74.21875 29.59375 74.21875 
Q 40.828125 74.21875 47.359375 69.109375 
Q 53.90625 64.015625 53.90625 55.328125 
Q 53.90625 49.265625 50.4375 45.09375 
Q 46.96875 40.921875 40.578125 39.3125 
" id="DejaVuSans-33"/>
      </defs>
      <g transform="translate(27.1 131.949402)scale(0.1 -0.1)">
       <use transform="translate(0 0.765625)" xlink:href="#DejaVuSans-31"/>
       <use transform="translate(63.623047 0.765625)" xlink:href="#DejaVuSans-30"/>
       <use transform="translate(128.203125 39.046875)scale(0.7)" xlink:href="#DejaVuSans-2212"/>
       <use transform="translate(186.855469 39.046875)scale(0.7)" xlink:href="#DejaVuSans-33"/>
      </g>
     </g>
    </g>
    <g id="ytick_4">
     <g id="line2d_25">
      <path clip-path="url(#pc9ae1525e4)" d="M 57.6 50.020117 
L 414.72 50.020117 
" style="fill:none;stroke:#b0b0b0;stroke-linecap:square;stroke-width:0.8;"/>
     </g>
     <g id="line2d_26">
      <g>
       <use style="stroke:#000000;stroke-width:0.8;" x="57.6" xlink:href="#m3010ed6235" y="50.020117"/>
      </g>
     </g>
     <g id="text_14">
      <!-- ${10^{-2}}$ -->
      <g transform="translate(27.1 53.819336)scale(0.1 -0.1)">
       <use transform="translate(0 0.765625)" xlink:href="#DejaVuSans-31"/>
       <use transform="translate(63.623047 0.765625)" xlink:href="#DejaVuSans-30"/>
       <use transform="translate(128.203125 39.046875)scale(0.7)" xlink:href="#DejaVuSans-2212"/>
       <use transform="translate(186.855469 39.046875)scale(0.7)" xlink:href="#DejaVuSans-32"/>
      </g>
     </g>
    </g>
    <g id="ytick_5">
     <g id="line2d_27">
      <defs>
       <path d="M 0 0 
L -2 0 
" id="mb42a7e5a55" style="stroke:#000000;stroke-width:0.6;"/>
      </defs>
      <g>
       <use style="stroke:#000000;stroke-width:0.6;" x="57.6" xlink:href="#mb42a7e5a55" y="307.92981"/>
      </g>
     </g>
    </g>
    <g id="ytick_6">
     <g id="line2d_28">
      <g>
       <use style="stroke:#000000;stroke-width:0.6;" x="57.6" xlink:href="#mb42a7e5a55" y="301.743374"/>
      </g>
     </g>
    </g>
    <g id="ytick_7">
     <g id="line2d_29">
      <g>
       <use style="stroke:#000000;stroke-width:0.6;" x="57.6" xlink:href="#mb42a7e5a55" y="296.512817"/>
      </g>
     </g>
    </g>
    <g id="ytick_8">
     <g id="line2d_30">
      <g>
       <use style="stroke:#000000;stroke-width:0.6;" x="57.6" xlink:href="#mb42a7e5a55" y="291.981902"/>
      </g>
     </g>
    </g>
    <g id="ytick_9">
     <g id="line2d_31">
      <g>
       <use style="stroke:#000000;stroke-width:0.6;" x="57.6" xlink:href="#mb42a7e5a55" y="287.985352"/>
      </g>
     </g>
    </g>
    <g id="ytick_10">
     <g id="line2d_32">
      <g>
       <use style="stroke:#000000;stroke-width:0.6;" x="57.6" xlink:href="#mb42a7e5a55" y="260.890823"/>
      </g>
     </g>
    </g>
    <g id="ytick_11">
     <g id="line2d_33">
      <g>
       <use style="stroke:#000000;stroke-width:0.6;" x="57.6" xlink:href="#mb42a7e5a55" y="247.132801"/>
      </g>
     </g>
    </g>
    <g id="ytick_12">
     <g id="line2d_34">
      <g>
       <use style="stroke:#000000;stroke-width:0.6;" x="57.6" xlink:href="#mb42a7e5a55" y="237.371329"/>
      </g>
     </g>
    </g>
    <g id="ytick_13">
     <g id="line2d_35">
      <g>
       <use style="stroke:#000000;stroke-width:0.6;" x="57.6" xlink:href="#mb42a7e5a55" y="229.799744"/>
      </g>
     </g>
    </g>
    <g id="ytick_14">
     <g id="line2d_36">
      <g>
       <use style="stroke:#000000;stroke-width:0.6;" x="57.6" xlink:href="#mb42a7e5a55" y="223.613308"/>
      </g>
     </g>
    </g>
    <g id="ytick_15">
     <g id="line2d_37">
      <g>
       <use style="stroke:#000000;stroke-width:0.6;" x="57.6" xlink:href="#mb42a7e5a55" y="218.38275"/>
      </g>
     </g>
    </g>
    <g id="ytick_16">
     <g id="line2d_38">
      <g>
       <use style="stroke:#000000;stroke-width:0.6;" x="57.6" xlink:href="#mb42a7e5a55" y="213.851836"/>
      </g>
     </g>
    </g>
    <g id="ytick_17">
     <g id="line2d_39">
      <g>
       <use style="stroke:#000000;stroke-width:0.6;" x="57.6" xlink:href="#mb42a7e5a55" y="209.855286"/>
      </g>
     </g>
    </g>
    <g id="ytick_18">
     <g id="line2d_40">
      <g>
       <use style="stroke:#000000;stroke-width:0.6;" x="57.6" xlink:href="#mb42a7e5a55" y="182.760756"/>
      </g>
     </g>
    </g>
    <g id="ytick_19">
     <g id="line2d_41">
      <g>
       <use style="stroke:#000000;stroke-width:0.6;" x="57.6" xlink:href="#mb42a7e5a55" y="169.002735"/>
      </g>
     </g>
    </g>
    <g id="ytick_20">
     <g id="line2d_42">
      <g>
       <use style="stroke:#000000;stroke-width:0.6;" x="57.6" xlink:href="#mb42a7e5a55" y="159.241263"/>
      </g>
     </g>
    </g>
    <g id="ytick_21">
     <g id="line2d_43">
      <g>
       <use style="stroke:#000000;stroke-width:0.6;" x="57.6" xlink:href="#mb42a7e5a55" y="151.669677"/>
      </g>
     </g>
    </g>
    <g id="ytick_22">
     <g id="line2d_44">
      <g>
       <use style="stroke:#000000;stroke-width:0.6;" x="57.6" xlink:href="#mb42a7e5a55" y="145.483241"/>
      </g>
     </g>
    </g>
    <g id="ytick_23">
     <g id="line2d_45">
      <g>
       <use style="stroke:#000000;stroke-width:0.6;" x="57.6" xlink:href="#mb42a7e5a55" y="140.252684"/>
      </g>
     </g>
    </g>
    <g id="ytick_24">
     <g id="line2d_46">
      <g>
       <use style="stroke:#000000;stroke-width:0.6;" x="57.6" xlink:href="#mb42a7e5a55" y="135.721769"/>
      </g>
     </g>
    </g>
    <g id="ytick_25">
     <g id="line2d_47">
      <g>
       <use style="stroke:#000000;stroke-width:0.6;" x="57.6" xlink:href="#mb42a7e5a55" y="131.725219"/>
      </g>
     </g>
    </g>
    <g id="ytick_26">
     <g id="line2d_48">
      <g>
       <use style="stroke:#000000;stroke-width:0.6;" x="57.6" xlink:href="#mb42a7e5a55" y="104.63069"/>
      </g>
     </g>
    </g>
    <g id="ytick_27">
     <g id="line2d_49">
      <g>
       <use style="stroke:#000000;stroke-width:0.6;" x="57.6" xlink:href="#mb42a7e5a55" y="90.872668"/>
      </g>
     </g>
    </g>
    <g id="ytick_28">
     <g id="line2d_50">
      <g>
       <use style="stroke:#000000;stroke-width:0.6;" x="57.6" xlink:href="#mb42a7e5a55" y="81.111197"/>
      </g>
     </g>
    </g>
    <g id="ytick_29">
     <g id="line2d_51">
      <g>
       <use style="stroke:#000000;stroke-width:0.6;" x="57.6" xlink:href="#mb42a7e5a55" y="73.539611"/>
      </g>
     </g>
    </g>
    <g id="ytick_30">
     <g id="line2d_52">
      <g>
       <use style="stroke:#000000;stroke-width:0.6;" x="57.6" xlink:href="#mb42a7e5a55" y="67.353175"/>
      </g>
     </g>
    </g>
    <g id="ytick_31">
     <g id="line2d_53">
      <g>
       <use style="stroke:#000000;stroke-width:0.6;" x="57.6" xlink:href="#mb42a7e5a55" y="62.122618"/>
      </g>
     </g>
    </g>
    <g id="ytick_32">
     <g id="line2d_54">
      <g>
       <use style="stroke:#000000;stroke-width:0.6;" x="57.6" xlink:href="#mb42a7e5a55" y="57.591703"/>
      </g>
     </g>
    </g>
    <g id="ytick_33">
     <g id="line2d_55">
      <g>
       <use style="stroke:#000000;stroke-width:0.6;" x="57.6" xlink:href="#mb42a7e5a55" y="53.595153"/>
      </g>
     </g>
    </g>
    <g id="text_15">
     <!-- $\omega_i$ -->
     <defs>
      <path d="M 21.390625 -1.421875 
Q 1.125 -1.421875 6.78125 27.59375 
Q 8.984375 39.0625 19.625 54.6875 
L 29.296875 54.6875 
Q 19.234375 39.0625 17 27.34375 
Q 12.796875 6.203125 23.734375 6.203125 
Q 33.84375 6.203125 38.71875 32.46875 
L 47.015625 32.46875 
Q 41.703125 6.0625 51.8125 6.203125 
Q 62.703125 6.296875 66.796875 27.34375 
Q 69.046875 39.0625 65.140625 54.6875 
L 74.8125 54.6875 
Q 79.296875 39.0625 77.09375 27.59375 
Q 71.53125 -1.46875 51.21875 -1.421875 
Q 37.9375 -1.375 39.109375 13.1875 
Q 34.28125 -1.421875 21.390625 -1.421875 
" id="DejaVuSans-Oblique-3c9"/>
     </defs>
     <g transform="translate(21.020313 179.828)rotate(-90)scale(0.1 -0.1)">
      <use transform="translate(0 0.3125)" xlink:href="#DejaVuSans-Oblique-3c9"/>
      <use transform="translate(83.740234 -16.09375)scale(0.7)" xlink:href="#DejaVuSans-Oblique-69"/>
     </g>
    </g>
   </g>
   <g id="line2d_56">
    <defs>
     <path d="M 0 3 
C 0.795609 3 1.55874 2.683901 2.12132 2.12132 
C 2.683901 1.55874 3 0.795609 3 0 
C 3 -0.795609 2.683901 -1.55874 2.12132 -2.12132 
C 1.55874 -2.683901 0.795609 -3 0 -3 
C -0.795609 -3 -1.55874 -2.683901 -2.12132 -2.12132 
C -2.683901 -1.55874 -3 -0.795609 -3 0 
C -3 0.795609 -2.683901 1.55874 -2.12132 2.12132 
C -1.55874 2.683901 -0.795609 3 0 3 
z
" id="m45d988dc19" style="stroke:#1f77b4;"/>
    </defs>
    <g clip-path="url(#pc9ae1525e4)">
     <use style="fill:#1f77b4;stroke:#1f77b4;" x="148.146587" xlink:href="#m45d988dc19" y="174.211401"/>
     <use style="fill:#1f77b4;stroke:#1f77b4;" x="149.743498" xlink:href="#m45d988dc19" y="147.104344"/>
     <use style="fill:#1f77b4;stroke:#1f77b4;" x="153.780929" xlink:href="#m45d988dc19" y="118.169996"/>
     <use style="fill:#1f77b4;stroke:#1f77b4;" x="325.314858" xlink:href="#m45d988dc19" y="248.476197"/>
     <use style="fill:#1f77b4;stroke:#1f77b4;" x="319.481385" xlink:href="#m45d988dc19" y="122.952137"/>
     <use style="fill:#1f77b4;stroke:#1f77b4;" x="320.356958" xlink:href="#m45d988dc19" y="128.155649"/>
     <use style="fill:#1f77b4;stroke:#1f77b4;" x="146.897882" xlink:href="#m45d988dc19" y="295.488"/>
     <use style="fill:#1f77b4;stroke:#1f77b4;" x="154.789226" xlink:href="#m45d988dc19" y="113.753685"/>
     <use style="fill:#1f77b4;stroke:#1f77b4;" x="151.963042" xlink:href="#m45d988dc19" y="128.155649"/>
     <use style="fill:#1f77b4;stroke:#1f77b4;" x="321.165092" xlink:href="#m45d988dc19" y="133.850622"/>
     <use style="fill:#1f77b4;stroke:#1f77b4;" x="314.118311" xlink:href="#m45d988dc19" y="102.2912"/>
     <use style="fill:#1f77b4;stroke:#1f77b4;" x="324.173413" xlink:href="#m45d988dc19" y="174.211401"/>
     <use style="fill:#1f77b4;stroke:#1f77b4;" x="158.201689" xlink:href="#m45d988dc19" y="102.2912"/>
     <use style="fill:#1f77b4;stroke:#1f77b4;" x="159.46533" xlink:href="#m45d988dc19" y="98.963562"/>
     <use style="fill:#1f77b4;stroke:#1f77b4;" x="147.433756" xlink:href="#m45d988dc19" y="201.54599"/>
     <use style="fill:#1f77b4;stroke:#1f77b4;" x="312.85467" xlink:href="#m45d988dc19" y="98.963562"/>
     <use style="fill:#1f77b4;stroke:#1f77b4;" x="318.539071" xlink:href="#m45d988dc19" y="118.169996"/>
     <use style="fill:#1f77b4;stroke:#1f77b4;" x="323.178649" xlink:href="#m45d988dc19" y="154.942822"/>
     <use style="fill:#1f77b4;stroke:#1f77b4;" x="166.683055" xlink:href="#m45d988dc19" y="85.108288"/>
     <use style="fill:#1f77b4;stroke:#1f77b4;" x="323.711094" xlink:href="#m45d988dc19" y="163.868337"/>
     <use style="fill:#1f77b4;stroke:#1f77b4;" x="317.530774" xlink:href="#m45d988dc19" y="113.753685"/>
     <use style="fill:#1f77b4;stroke:#1f77b4;" x="305.636945" xlink:href="#m45d988dc19" y="85.108288"/>
     <use style="fill:#1f77b4;stroke:#1f77b4;" x="325.136185" xlink:href="#m45d988dc19" y="221.00547"/>
     <use style="fill:#1f77b4;stroke:#1f77b4;" x="160.790402" xlink:href="#m45d988dc19" y="95.843391"/>
     <use style="fill:#1f77b4;stroke:#1f77b4;" x="165.123351" xlink:href="#m45d988dc19" y="87.557563"/>
     <use style="fill:#1f77b4;stroke:#1f77b4;" x="324.565234" xlink:href="#m45d988dc19" y="186.484449"/>
     <use style="fill:#1f77b4;stroke:#1f77b4;" x="304.02159" xlink:href="#m45d988dc19" y="82.796858"/>
     <use style="fill:#1f77b4;stroke:#1f77b4;" x="321.905137" xlink:href="#m45d988dc19" y="140.127253"/>
     <use style="fill:#1f77b4;stroke:#1f77b4;" x="147.005142" xlink:href="#m45d988dc19" y="248.476197"/>
     <use style="fill:#1f77b4;stroke:#1f77b4;" x="179.083745" xlink:href="#m45d988dc19" y="71.380369"/>
     <use style="fill:#1f77b4;stroke:#1f77b4;" x="155.862701" xlink:href="#m45d988dc19" y="109.658452"/>
     <use style="fill:#1f77b4;stroke:#1f77b4;" x="307.196649" xlink:href="#m45d988dc19" y="87.557563"/>
     <use style="fill:#1f77b4;stroke:#1f77b4;" x="298.854781" xlink:href="#m45d988dc19" y="76.603905"/>
     <use style="fill:#1f77b4;stroke:#1f77b4;" x="324.886244" xlink:href="#m45d988dc19" y="201.54599"/>
     <use style="fill:#1f77b4;stroke:#1f77b4;" x="169.968121" xlink:href="#m45d988dc19" y="80.614186"/>
     <use style="fill:#1f77b4;stroke:#1f77b4;" x="171.69085" xlink:href="#m45d988dc19" y="78.552243"/>
     <use style="fill:#1f77b4;stroke:#1f77b4;" x="149.141351" xlink:href="#m45d988dc19" y="154.942822"/>
     <use style="fill:#1f77b4;stroke:#1f77b4;" x="291.26994" xlink:href="#m45d988dc19" y="69.829341"/>
     <use style="fill:#1f77b4;stroke:#1f77b4;" x="302.351879" xlink:href="#m45d988dc19" y="80.614186"/>
     <use style="fill:#1f77b4;stroke:#1f77b4;" x="152.838615" xlink:href="#m45d988dc19" y="122.952137"/>
     <use style="fill:#1f77b4;stroke:#1f77b4;" x="185.113506" xlink:href="#m45d988dc19" y="66.987083"/>
     <use style="fill:#1f77b4;stroke:#1f77b4;" x="325.422118" xlink:href="#m45d988dc19" y="295.488"/>
     <use style="fill:#1f77b4;stroke:#1f77b4;" x="300.62915" xlink:href="#m45d988dc19" y="78.552243"/>
     <use style="fill:#1f77b4;stroke:#1f77b4;" x="297.030195" xlink:href="#m45d988dc19" y="74.762828"/>
     <use style="fill:#1f77b4;stroke:#1f77b4;" x="148.608906" xlink:href="#m45d988dc19" y="163.868337"/>
     <use style="fill:#1f77b4;stroke:#1f77b4;" x="183.060517" xlink:href="#m45d988dc19" y="68.366149"/>
     <use style="fill:#1f77b4;stroke:#1f77b4;" x="175.289805" xlink:href="#m45d988dc19" y="74.762828"/>
     <use style="fill:#1f77b4;stroke:#1f77b4;" x="147.183815" xlink:href="#m45d988dc19" y="221.00547"/>
     <use style="fill:#1f77b4;stroke:#1f77b4;" x="280.808941" xlink:href="#m45d988dc19" y="63.322676"/>
     <use style="fill:#1f77b4;stroke:#1f77b4;" x="316.457299" xlink:href="#m45d988dc19" y="109.658452"/>
     <use style="fill:#1f77b4;stroke:#1f77b4;" x="229.846857" xlink:href="#m45d988dc19" y="53.731224"/>
     <use style="fill:#1f77b4;stroke:#1f77b4;" x="189.34047" xlink:href="#m45d988dc19" y="64.468238"/>
     <use style="fill:#1f77b4;stroke:#1f77b4;" x="315.319508" xlink:href="#m45d988dc19" y="105.847717"/>
     <use style="fill:#1f77b4;stroke:#1f77b4;" x="287.206494" xlink:href="#m45d988dc19" y="66.987083"/>
     <use style="fill:#1f77b4;stroke:#1f77b4;" x="289.259483" xlink:href="#m45d988dc19" y="68.366149"/>
     <use style="fill:#1f77b4;stroke:#1f77b4;" x="147.754766" xlink:href="#m45d988dc19" y="186.484449"/>
     <use style="fill:#1f77b4;stroke:#1f77b4;" x="193.717411" xlink:href="#m45d988dc19" y="62.249615"/>
     <use style="fill:#1f77b4;stroke:#1f77b4;" x="181.05006" xlink:href="#m45d988dc19" y="69.829341"/>
     <use style="fill:#1f77b4;stroke:#1f77b4;" x="150.414863" xlink:href="#m45d988dc19" y="140.127253"/>
     <use style="fill:#1f77b4;stroke:#1f77b4;" x="274.089691" xlink:href="#m45d988dc19" y="60.312174"/>
     <use style="fill:#1f77b4;stroke:#1f77b4;" x="163.620546" xlink:href="#m45d988dc19" y="90.15501"/>
     <use style="fill:#1f77b4;stroke:#1f77b4;" x="173.465219" xlink:href="#m45d988dc19" y="76.603905"/>
     <use style="fill:#1f77b4;stroke:#1f77b4;" x="195.957759" xlink:href="#m45d988dc19" y="61.246797"/>
     <use style="fill:#1f77b4;stroke:#1f77b4;" x="308.699454" xlink:href="#m45d988dc19" y="90.15501"/>
     <use style="fill:#1f77b4;stroke:#1f77b4;" x="285.112617" xlink:href="#m45d988dc19" y="65.688791"/>
     <use style="fill:#1f77b4;stroke:#1f77b4;" x="282.97953" xlink:href="#m45d988dc19" y="64.468238"/>
     <use style="fill:#1f77b4;stroke:#1f77b4;" x="205.222843" xlink:href="#m45d988dc19" y="57.899813"/>
     <use style="fill:#1f77b4;stroke:#1f77b4;" x="202.864706" xlink:href="#m45d988dc19" y="58.640278"/>
     <use style="fill:#1f77b4;stroke:#1f77b4;" x="168.29841" xlink:href="#m45d988dc19" y="82.796858"/>
     <use style="fill:#1f77b4;stroke:#1f77b4;" x="322.576502" xlink:href="#m45d988dc19" y="147.104344"/>
     <use style="fill:#1f77b4;stroke:#1f77b4;" x="269.455294" xlink:href="#m45d988dc19" y="58.640278"/>
     <use style="fill:#1f77b4;stroke:#1f77b4;" x="311.529598" xlink:href="#m45d988dc19" y="95.843391"/>
     <use style="fill:#1f77b4;stroke:#1f77b4;" x="177.163147" xlink:href="#m45d988dc19" y="73.023343"/>
     <use style="fill:#1f77b4;stroke:#1f77b4;" x="200.533239" xlink:href="#m45d988dc19" y="59.443893"/>
     <use style="fill:#1f77b4;stroke:#1f77b4;" x="310.144157" xlink:href="#m45d988dc19" y="92.912433"/>
     <use style="fill:#1f77b4;stroke:#1f77b4;" x="271.786761" xlink:href="#m45d988dc19" y="59.443893"/>
     <use style="fill:#1f77b4;stroke:#1f77b4;" x="278.602589" xlink:href="#m45d988dc19" y="62.249615"/>
     <use style="fill:#1f77b4;stroke:#1f77b4;" x="293.236255" xlink:href="#m45d988dc19" y="71.380369"/>
     <use style="fill:#1f77b4;stroke:#1f77b4;" x="210.011547" xlink:href="#m45d988dc19" y="56.603022"/>
     <use style="fill:#1f77b4;stroke:#1f77b4;" x="151.154908" xlink:href="#m45d988dc19" y="133.850622"/>
     <use style="fill:#1f77b4;stroke:#1f77b4;" x="276.362241" xlink:href="#m45d988dc19" y="61.246797"/>
     <use style="fill:#1f77b4;stroke:#1f77b4;" x="267.097157" xlink:href="#m45d988dc19" y="57.899813"/>
     <use style="fill:#1f77b4;stroke:#1f77b4;" x="198.230309" xlink:href="#m45d988dc19" y="60.312174"/>
     <use style="fill:#1f77b4;stroke:#1f77b4;" x="187.207383" xlink:href="#m45d988dc19" y="65.688791"/>
     <use style="fill:#1f77b4;stroke:#1f77b4;" x="191.511059" xlink:href="#m45d988dc19" y="63.322676"/>
     <use style="fill:#1f77b4;stroke:#1f77b4;" x="295.156853" xlink:href="#m45d988dc19" y="73.023343"/>
     <use style="fill:#1f77b4;stroke:#1f77b4;" x="264.714241" xlink:href="#m45d988dc19" y="57.221136"/>
     <use style="fill:#1f77b4;stroke:#1f77b4;" x="247.502422" xlink:href="#m45d988dc19" y="54.113103"/>
     <use style="fill:#1f77b4;stroke:#1f77b4;" x="157.000492" xlink:href="#m45d988dc19" y="105.847717"/>
     <use style="fill:#1f77b4;stroke:#1f77b4;" x="212.438279" xlink:href="#m45d988dc19" y="56.044377"/>
     <use style="fill:#1f77b4;stroke:#1f77b4;" x="207.605759" xlink:href="#m45d988dc19" y="57.221136"/>
     <use style="fill:#1f77b4;stroke:#1f77b4;" x="250.00444" xlink:href="#m45d988dc19" y="54.386755"/>
     <use style="fill:#1f77b4;stroke:#1f77b4;" x="262.308453" xlink:href="#m45d988dc19" y="56.603022"/>
     <use style="fill:#1f77b4;stroke:#1f77b4;" x="239.94991" xlink:href="#m45d988dc19" y="53.622379"/>
     <use style="fill:#1f77b4;stroke:#1f77b4;" x="214.884013" xlink:href="#m45d988dc19" y="55.544231"/>
     <use style="fill:#1f77b4;stroke:#1f77b4;" x="222.31556" xlink:href="#m45d988dc19" y="54.386755"/>
     <use style="fill:#1f77b4;stroke:#1f77b4;" x="242.473143" xlink:href="#m45d988dc19" y="53.731224"/>
     <use style="fill:#1f77b4;stroke:#1f77b4;" x="257.435987" xlink:href="#m45d988dc19" y="55.544231"/>
     <use style="fill:#1f77b4;stroke:#1f77b4;" x="234.896359" xlink:href="#m45d988dc19" y="53.568"/>
     <use style="fill:#1f77b4;stroke:#1f77b4;" x="224.817578" xlink:href="#m45d988dc19" y="54.113103"/>
     <use style="fill:#1f77b4;stroke:#1f77b4;" x="217.346787" xlink:href="#m45d988dc19" y="55.101725"/>
     <use style="fill:#1f77b4;stroke:#1f77b4;" x="232.37009" xlink:href="#m45d988dc19" y="53.622379"/>
     <use style="fill:#1f77b4;stroke:#1f77b4;" x="259.881721" xlink:href="#m45d988dc19" y="56.044377"/>
     <use style="fill:#1f77b4;stroke:#1f77b4;" x="254.973213" xlink:href="#m45d988dc19" y="55.101725"/>
     <use style="fill:#1f77b4;stroke:#1f77b4;" x="244.991319" xlink:href="#m45d988dc19" y="53.894711"/>
     <use style="fill:#1f77b4;stroke:#1f77b4;" x="219.824632" xlink:href="#m45d988dc19" y="54.716114"/>
     <use style="fill:#1f77b4;stroke:#1f77b4;" x="227.328681" xlink:href="#m45d988dc19" y="53.894711"/>
     <use style="fill:#1f77b4;stroke:#1f77b4;" x="237.423641" xlink:href="#m45d988dc19" y="53.568"/>
     <use style="fill:#1f77b4;stroke:#1f77b4;" x="252.495368" xlink:href="#m45d988dc19" y="54.716114"/>
     <use style="fill:#1f77b4;stroke:#1f77b4;" x="162.175843" xlink:href="#m45d988dc19" y="92.912433"/>
    </g>
   </g>
   <g id="patch_3">
    <path d="M 57.6 307.584 
L 57.6 41.472 
" style="fill:none;stroke:#000000;stroke-linecap:square;stroke-linejoin:miter;stroke-width:0.8;"/>
   </g>
   <g id="patch_4">
    <path d="M 414.72 307.584 
L 414.72 41.472 
" style="fill:none;stroke:#000000;stroke-linecap:square;stroke-linejoin:miter;stroke-width:0.8;"/>
   </g>
   <g id="patch_5">
    <path d="M 57.6 307.584 
L 414.72 307.584 
" style="fill:none;stroke:#000000;stroke-linecap:square;stroke-linejoin:miter;stroke-width:0.8;"/>
   </g>
   <g id="patch_6">
    <path d="M 57.6 41.472 
L 414.72 41.472 
" style="fill:none;stroke:#000000;stroke-linecap:square;stroke-linejoin:miter;stroke-width:0.8;"/>
   </g>
  </g>
 </g>
 <defs>
  <clipPath id="pc9ae1525e4">
   <rect height="266.112" width="357.12" x="57.6" y="41.472"/>
  </clipPath>
 </defs>
</svg>
