<?xml version="1.0" encoding="utf-8" standalone="no"?>
<!DOCTYPE svg PUBLIC "-//W3C//DTD SVG 1.1//EN"
  "http://www.w3.org/Graphics/SVG/1.1/DTD/svg11.dtd">
<!-- Created with matplotlib (http://matplotlib.org/) -->
<svg height="345pt" version="1.1" viewBox="0 0 460 345" width="460pt" xmlns="http://www.w3.org/2000/svg" xmlns:xlink="http://www.w3.org/1999/xlink">
 <defs>
  <style type="text/css">
*{stroke-linecap:butt;stroke-linejoin:round;}
  </style>
 </defs>
 <g id="figure_1">
  <g id="patch_1">
   <path d="M 0 345.6 
L 460.8 345.6 
L 460.8 0 
L 0 0 
z
" style="fill:#ffffff;"/>
  </g>
  <g id="axes_1">
   <g id="patch_2">
    <path d="M 57.6 307.584 
L 414.72 307.584 
L 414.72 41.472 
L 57.6 41.472 
z
" style="fill:#ffffff;"/>
   </g>
   <g id="matplotlib.axis_1">
    <g id="xtick_1">
     <g id="line2d_1">
      <path clip-path="url(#p51da07739a)" d="M 57.57752 307.584 
L 57.57752 41.472 
" style="fill:none;stroke:#b0b0b0;stroke-linecap:square;stroke-width:0.8;"/>
     </g>
     <g id="line2d_2">
      <defs>
       <path d="M 0 0 
L 0 3.5 
" id="md5a1283c3c" style="stroke:#000000;stroke-width:0.8;"/>
      </defs>
      <g>
       <use style="stroke:#000000;stroke-width:0.8;" x="57.57752" xlink:href="#md5a1283c3c" y="307.584"/>
      </g>
     </g>
     <g id="text_1">
      <!-- −2.0 -->
      <defs>
       <path d="M 10.59375 35.5 
L 73.1875 35.5 
L 73.1875 27.203125 
L 10.59375 27.203125 
z
" id="DejaVuSans-2212"/>
       <path d="M 19.1875 8.296875 
L 53.609375 8.296875 
L 53.609375 0 
L 7.328125 0 
L 7.328125 8.296875 
Q 12.9375 14.109375 22.625 23.890625 
Q 32.328125 33.6875 34.8125 36.53125 
Q 39.546875 41.84375 41.421875 45.53125 
Q 43.3125 49.21875 43.3125 52.78125 
Q 43.3125 58.59375 39.234375 62.25 
Q 35.15625 65.921875 28.609375 65.921875 
Q 23.96875 65.921875 18.8125 64.3125 
Q 13.671875 62.703125 7.8125 59.421875 
L 7.8125 69.390625 
Q 13.765625 71.78125 18.9375 73 
Q 24.125 74.21875 28.421875 74.21875 
Q 39.75 74.21875 46.484375 68.546875 
Q 53.21875 62.890625 53.21875 53.421875 
Q 53.21875 48.921875 51.53125 44.890625 
Q 49.859375 40.875 45.40625 35.40625 
Q 44.1875 33.984375 37.640625 27.21875 
Q 31.109375 20.453125 19.1875 8.296875 
" id="DejaVuSans-32"/>
       <path d="M 10.6875 12.40625 
L 21 12.40625 
L 21 0 
L 10.6875 0 
z
" id="DejaVuSans-2e"/>
       <path d="M 31.78125 66.40625 
Q 24.171875 66.40625 20.328125 58.90625 
Q 16.5 51.421875 16.5 36.375 
Q 16.5 21.390625 20.328125 13.890625 
Q 24.171875 6.390625 31.78125 6.390625 
Q 39.453125 6.390625 43.28125 13.890625 
Q 47.125 21.390625 47.125 36.375 
Q 47.125 51.421875 43.28125 58.90625 
Q 39.453125 66.40625 31.78125 66.40625 
M 31.78125 74.21875 
Q 44.046875 74.21875 50.515625 64.515625 
Q 56.984375 54.828125 56.984375 36.375 
Q 56.984375 17.96875 50.515625 8.265625 
Q 44.046875 -1.421875 31.78125 -1.421875 
Q 19.53125 -1.421875 13.0625 8.265625 
Q 6.59375 17.96875 6.59375 36.375 
Q 6.59375 54.828125 13.0625 64.515625 
Q 19.53125 74.21875 31.78125 74.21875 
" id="DejaVuSans-30"/>
      </defs>
      <g transform="translate(45.436113 322.182437)scale(0.1 -0.1)">
       <use xlink:href="#DejaVuSans-2212"/>
       <use x="83.789062" xlink:href="#DejaVuSans-32"/>
       <use x="147.412109" xlink:href="#DejaVuSans-2e"/>
       <use x="179.199219" xlink:href="#DejaVuSans-30"/>
      </g>
     </g>
    </g>
    <g id="xtick_2">
     <g id="line2d_3">
      <path clip-path="url(#p51da07739a)" d="M 102.22314 307.584 
L 102.22314 41.472 
" style="fill:none;stroke:#b0b0b0;stroke-linecap:square;stroke-width:0.8;"/>
     </g>
     <g id="line2d_4">
      <g>
       <use style="stroke:#000000;stroke-width:0.8;" x="102.22314" xlink:href="#md5a1283c3c" y="307.584"/>
      </g>
     </g>
     <g id="text_2">
      <!-- −1.5 -->
      <defs>
       <path d="M 12.40625 8.296875 
L 28.515625 8.296875 
L 28.515625 63.921875 
L 10.984375 60.40625 
L 10.984375 69.390625 
L 28.421875 72.90625 
L 38.28125 72.90625 
L 38.28125 8.296875 
L 54.390625 8.296875 
L 54.390625 0 
L 12.40625 0 
z
" id="DejaVuSans-31"/>
       <path d="M 10.796875 72.90625 
L 49.515625 72.90625 
L 49.515625 64.59375 
L 19.828125 64.59375 
L 19.828125 46.734375 
Q 21.96875 47.46875 24.109375 47.828125 
Q 26.265625 48.1875 28.421875 48.1875 
Q 40.625 48.1875 47.75 41.5 
Q 54.890625 34.8125 54.890625 23.390625 
Q 54.890625 11.625 47.5625 5.09375 
Q 40.234375 -1.421875 26.90625 -1.421875 
Q 22.3125 -1.421875 17.546875 -0.640625 
Q 12.796875 0.140625 7.71875 1.703125 
L 7.71875 11.625 
Q 12.109375 9.234375 16.796875 8.0625 
Q 21.484375 6.890625 26.703125 6.890625 
Q 35.15625 6.890625 40.078125 11.328125 
Q 45.015625 15.765625 45.015625 23.390625 
Q 45.015625 31 40.078125 35.4375 
Q 35.15625 39.890625 26.703125 39.890625 
Q 22.75 39.890625 18.8125 39.015625 
Q 14.890625 38.140625 10.796875 36.28125 
z
" id="DejaVuSans-35"/>
      </defs>
      <g transform="translate(90.081733 322.182437)scale(0.1 -0.1)">
       <use xlink:href="#DejaVuSans-2212"/>
       <use x="83.789062" xlink:href="#DejaVuSans-31"/>
       <use x="147.412109" xlink:href="#DejaVuSans-2e"/>
       <use x="179.199219" xlink:href="#DejaVuSans-35"/>
      </g>
     </g>
    </g>
    <g id="xtick_3">
     <g id="line2d_5">
      <path clip-path="url(#p51da07739a)" d="M 146.86876 307.584 
L 146.86876 41.472 
" style="fill:none;stroke:#b0b0b0;stroke-linecap:square;stroke-width:0.8;"/>
     </g>
     <g id="line2d_6">
      <g>
       <use style="stroke:#000000;stroke-width:0.8;" x="146.86876" xlink:href="#md5a1283c3c" y="307.584"/>
      </g>
     </g>
     <g id="text_3">
      <!-- −1.0 -->
      <g transform="translate(134.727354 322.182437)scale(0.1 -0.1)">
       <use xlink:href="#DejaVuSans-2212"/>
       <use x="83.789062" xlink:href="#DejaVuSans-31"/>
       <use x="147.412109" xlink:href="#DejaVuSans-2e"/>
       <use x="179.199219" xlink:href="#DejaVuSans-30"/>
      </g>
     </g>
    </g>
    <g id="xtick_4">
     <g id="line2d_7">
      <path clip-path="url(#p51da07739a)" d="M 191.51438 307.584 
L 191.51438 41.472 
" style="fill:none;stroke:#b0b0b0;stroke-linecap:square;stroke-width:0.8;"/>
     </g>
     <g id="line2d_8">
      <g>
       <use style="stroke:#000000;stroke-width:0.8;" x="191.51438" xlink:href="#md5a1283c3c" y="307.584"/>
      </g>
     </g>
     <g id="text_4">
      <!-- −0.5 -->
      <g transform="translate(179.372974 322.182437)scale(0.1 -0.1)">
       <use xlink:href="#DejaVuSans-2212"/>
       <use x="83.789062" xlink:href="#DejaVuSans-30"/>
       <use x="147.412109" xlink:href="#DejaVuSans-2e"/>
       <use x="179.199219" xlink:href="#DejaVuSans-35"/>
      </g>
     </g>
    </g>
    <g id="xtick_5">
     <g id="line2d_9">
      <path clip-path="url(#p51da07739a)" d="M 236.16 307.584 
L 236.16 41.472 
" style="fill:none;stroke:#b0b0b0;stroke-linecap:square;stroke-width:0.8;"/>
     </g>
     <g id="line2d_10">
      <g>
       <use style="stroke:#000000;stroke-width:0.8;" x="236.16" xlink:href="#md5a1283c3c" y="307.584"/>
      </g>
     </g>
     <g id="text_5">
      <!-- 0.0 -->
      <g transform="translate(228.208438 322.182437)scale(0.1 -0.1)">
       <use xlink:href="#DejaVuSans-30"/>
       <use x="63.623047" xlink:href="#DejaVuSans-2e"/>
       <use x="95.410156" xlink:href="#DejaVuSans-30"/>
      </g>
     </g>
    </g>
    <g id="xtick_6">
     <g id="line2d_11">
      <path clip-path="url(#p51da07739a)" d="M 280.80562 307.584 
L 280.80562 41.472 
" style="fill:none;stroke:#b0b0b0;stroke-linecap:square;stroke-width:0.8;"/>
     </g>
     <g id="line2d_12">
      <g>
       <use style="stroke:#000000;stroke-width:0.8;" x="280.80562" xlink:href="#md5a1283c3c" y="307.584"/>
      </g>
     </g>
     <g id="text_6">
      <!-- 0.5 -->
      <g transform="translate(272.854058 322.182437)scale(0.1 -0.1)">
       <use xlink:href="#DejaVuSans-30"/>
       <use x="63.623047" xlink:href="#DejaVuSans-2e"/>
       <use x="95.410156" xlink:href="#DejaVuSans-35"/>
      </g>
     </g>
    </g>
    <g id="xtick_7">
     <g id="line2d_13">
      <path clip-path="url(#p51da07739a)" d="M 325.45124 307.584 
L 325.45124 41.472 
" style="fill:none;stroke:#b0b0b0;stroke-linecap:square;stroke-width:0.8;"/>
     </g>
     <g id="line2d_14">
      <g>
       <use style="stroke:#000000;stroke-width:0.8;" x="325.45124" xlink:href="#md5a1283c3c" y="307.584"/>
      </g>
     </g>
     <g id="text_7">
      <!-- 1.0 -->
      <g transform="translate(317.499678 322.182437)scale(0.1 -0.1)">
       <use xlink:href="#DejaVuSans-31"/>
       <use x="63.623047" xlink:href="#DejaVuSans-2e"/>
       <use x="95.410156" xlink:href="#DejaVuSans-30"/>
      </g>
     </g>
    </g>
    <g id="xtick_8">
     <g id="line2d_15">
      <path clip-path="url(#p51da07739a)" d="M 370.09686 307.584 
L 370.09686 41.472 
" style="fill:none;stroke:#b0b0b0;stroke-linecap:square;stroke-width:0.8;"/>
     </g>
     <g id="line2d_16">
      <g>
       <use style="stroke:#000000;stroke-width:0.8;" x="370.09686" xlink:href="#md5a1283c3c" y="307.584"/>
      </g>
     </g>
     <g id="text_8">
      <!-- 1.5 -->
      <g transform="translate(362.145298 322.182437)scale(0.1 -0.1)">
       <use xlink:href="#DejaVuSans-31"/>
       <use x="63.623047" xlink:href="#DejaVuSans-2e"/>
       <use x="95.410156" xlink:href="#DejaVuSans-35"/>
      </g>
     </g>
    </g>
    <g id="xtick_9">
     <g id="line2d_17">
      <path clip-path="url(#p51da07739a)" d="M 414.74248 307.584 
L 414.74248 41.472 
" style="fill:none;stroke:#b0b0b0;stroke-linecap:square;stroke-width:0.8;"/>
     </g>
     <g id="line2d_18">
      <g>
       <use style="stroke:#000000;stroke-width:0.8;" x="414.74248" xlink:href="#md5a1283c3c" y="307.584"/>
      </g>
     </g>
     <g id="text_9">
      <!-- 2.0 -->
      <g transform="translate(406.790918 322.182437)scale(0.1 -0.1)">
       <use xlink:href="#DejaVuSans-32"/>
       <use x="63.623047" xlink:href="#DejaVuSans-2e"/>
       <use x="95.410156" xlink:href="#DejaVuSans-30"/>
      </g>
     </g>
    </g>
    <g id="text_10">
     <!-- $\gamma_i$ -->
     <defs>
      <path d="M 23.296875 46.09375 
L 28.71875 12.3125 
L 54 54.6875 
L 63.53125 54.6875 
L 30.8125 0 
L 26.765625 -20.796875 
L 17.78125 -20.796875 
L 21.828125 0 
L 15.4375 40.828125 
Q 14.453125 46.96875 9.8125 46.96875 
L 7.421875 46.96875 
L 8.890625 54.6875 
L 12.3125 54.6875 
Q 21.921875 54.6875 23.296875 46.09375 
" id="DejaVuSans-Oblique-3b3"/>
      <path d="M 18.3125 75.984375 
L 27.296875 75.984375 
L 25.09375 64.59375 
L 16.109375 64.59375 
z
M 14.203125 54.6875 
L 23.1875 54.6875 
L 12.5 0 
L 3.515625 0 
z
" id="DejaVuSans-Oblique-69"/>
     </defs>
     <g transform="translate(232.06 335.84025)scale(0.1 -0.1)">
      <use transform="translate(0 0.3125)" xlink:href="#DejaVuSans-Oblique-3b3"/>
      <use transform="translate(59.179688 -16.09375)scale(0.7)" xlink:href="#DejaVuSans-Oblique-69"/>
     </g>
    </g>
   </g>
   <g id="matplotlib.axis_2">
    <g id="ytick_1">
     <g id="line2d_19">
      <path clip-path="url(#p51da07739a)" d="M 57.6 262.907778 
L 414.72 262.907778 
" style="fill:none;stroke:#b0b0b0;stroke-linecap:square;stroke-width:0.8;"/>
     </g>
     <g id="line2d_20">
      <defs>
       <path d="M 0 0 
L -3.5 0 
" id="m99b9627c98" style="stroke:#000000;stroke-width:0.8;"/>
      </defs>
      <g>
       <use style="stroke:#000000;stroke-width:0.8;" x="57.6" xlink:href="#m99b9627c98" y="262.907778"/>
      </g>
     </g>
     <g id="text_11">
      <!-- ${10^{-5}}$ -->
      <g transform="translate(27.1 266.706997)scale(0.1 -0.1)">
       <use transform="translate(0 0.684375)" xlink:href="#DejaVuSans-31"/>
       <use transform="translate(63.623047 0.684375)" xlink:href="#DejaVuSans-30"/>
       <use transform="translate(128.203125 38.965625)scale(0.7)" xlink:href="#DejaVuSans-2212"/>
       <use transform="translate(186.855469 38.965625)scale(0.7)" xlink:href="#DejaVuSans-35"/>
      </g>
     </g>
    </g>
    <g id="ytick_2">
     <g id="line2d_21">
      <path clip-path="url(#p51da07739a)" d="M 57.6 189.55488 
L 414.72 189.55488 
" style="fill:none;stroke:#b0b0b0;stroke-linecap:square;stroke-width:0.8;"/>
     </g>
     <g id="line2d_22">
      <g>
       <use style="stroke:#000000;stroke-width:0.8;" x="57.6" xlink:href="#m99b9627c98" y="189.55488"/>
      </g>
     </g>
     <g id="text_12">
      <!-- ${10^{-4}}$ -->
      <defs>
       <path d="M 37.796875 64.3125 
L 12.890625 25.390625 
L 37.796875 25.390625 
z
M 35.203125 72.90625 
L 47.609375 72.90625 
L 47.609375 25.390625 
L 58.015625 25.390625 
L 58.015625 17.1875 
L 47.609375 17.1875 
L 47.609375 0 
L 37.796875 0 
L 37.796875 17.1875 
L 4.890625 17.1875 
L 4.890625 26.703125 
z
" id="DejaVuSans-34"/>
      </defs>
      <g transform="translate(27.1 193.354099)scale(0.1 -0.1)">
       <use transform="translate(0 0.684375)" xlink:href="#DejaVuSans-31"/>
       <use transform="translate(63.623047 0.684375)" xlink:href="#DejaVuSans-30"/>
       <use transform="translate(128.203125 38.965625)scale(0.7)" xlink:href="#DejaVuSans-2212"/>
       <use transform="translate(186.855469 38.965625)scale(0.7)" xlink:href="#DejaVuSans-34"/>
      </g>
     </g>
    </g>
    <g id="ytick_3">
     <g id="line2d_23">
      <path clip-path="url(#p51da07739a)" d="M 57.6 116.201983 
L 414.72 116.201983 
" style="fill:none;stroke:#b0b0b0;stroke-linecap:square;stroke-width:0.8;"/>
     </g>
     <g id="line2d_24">
      <g>
       <use style="stroke:#000000;stroke-width:0.8;" x="57.6" xlink:href="#m99b9627c98" y="116.201983"/>
      </g>
     </g>
     <g id="text_13">
      <!-- ${10^{-3}}$ -->
      <defs>
       <path d="M 40.578125 39.3125 
Q 47.65625 37.796875 51.625 33 
Q 55.609375 28.21875 55.609375 21.1875 
Q 55.609375 10.40625 48.1875 4.484375 
Q 40.765625 -1.421875 27.09375 -1.421875 
Q 22.515625 -1.421875 17.65625 -0.515625 
Q 12.796875 0.390625 7.625 2.203125 
L 7.625 11.71875 
Q 11.71875 9.328125 16.59375 8.109375 
Q 21.484375 6.890625 26.8125 6.890625 
Q 36.078125 6.890625 40.9375 10.546875 
Q 45.796875 14.203125 45.796875 21.1875 
Q 45.796875 27.640625 41.28125 31.265625 
Q 36.765625 34.90625 28.71875 34.90625 
L 20.21875 34.90625 
L 20.21875 43.015625 
L 29.109375 43.015625 
Q 36.375 43.015625 40.234375 45.921875 
Q 44.09375 48.828125 44.09375 54.296875 
Q 44.09375 59.90625 40.109375 62.90625 
Q 36.140625 65.921875 28.71875 65.921875 
Q 24.65625 65.921875 20.015625 65.03125 
Q 15.375 64.15625 9.8125 62.3125 
L 9.8125 71.09375 
Q 15.4375 72.65625 20.34375 73.4375 
Q 25.25 74.21875 29.59375 74.21875 
Q 40.828125 74.21875 47.359375 69.109375 
Q 53.90625 64.015625 53.90625 55.328125 
Q 53.90625 49.265625 50.4375 45.09375 
Q 46.96875 40.921875 40.578125 39.3125 
" id="DejaVuSans-33"/>
      </defs>
      <g transform="translate(27.1 120.001202)scale(0.1 -0.1)">
       <use transform="translate(0 0.765625)" xlink:href="#DejaVuSans-31"/>
       <use transform="translate(63.623047 0.765625)" xlink:href="#DejaVuSans-30"/>
       <use transform="translate(128.203125 39.046875)scale(0.7)" xlink:href="#DejaVuSans-2212"/>
       <use transform="translate(186.855469 39.046875)scale(0.7)" xlink:href="#DejaVuSans-33"/>
      </g>
     </g>
    </g>
    <g id="ytick_4">
     <g id="line2d_25">
      <path clip-path="url(#p51da07739a)" d="M 57.6 42.849085 
L 414.72 42.849085 
" style="fill:none;stroke:#b0b0b0;stroke-linecap:square;stroke-width:0.8;"/>
     </g>
     <g id="line2d_26">
      <g>
       <use style="stroke:#000000;stroke-width:0.8;" x="57.6" xlink:href="#m99b9627c98" y="42.849085"/>
      </g>
     </g>
     <g id="text_14">
      <!-- ${10^{-2}}$ -->
      <g transform="translate(27.1 46.648304)scale(0.1 -0.1)">
       <use transform="translate(0 0.765625)" xlink:href="#DejaVuSans-31"/>
       <use transform="translate(63.623047 0.765625)" xlink:href="#DejaVuSans-30"/>
       <use transform="translate(128.203125 39.046875)scale(0.7)" xlink:href="#DejaVuSans-2212"/>
       <use transform="translate(186.855469 39.046875)scale(0.7)" xlink:href="#DejaVuSans-32"/>
      </g>
     </g>
    </g>
    <g id="ytick_5">
     <g id="line2d_27">
      <defs>
       <path d="M 0 0 
L -2 0 
" id="md910fa8049" style="stroke:#000000;stroke-width:0.6;"/>
      </defs>
      <g>
       <use style="stroke:#000000;stroke-width:0.6;" x="57.6" xlink:href="#md910fa8049" y="301.262449"/>
      </g>
     </g>
    </g>
    <g id="ytick_6">
     <g id="line2d_28">
      <g>
       <use style="stroke:#000000;stroke-width:0.6;" x="57.6" xlink:href="#md910fa8049" y="292.097831"/>
      </g>
     </g>
    </g>
    <g id="ytick_7">
     <g id="line2d_29">
      <g>
       <use style="stroke:#000000;stroke-width:0.6;" x="57.6" xlink:href="#md910fa8049" y="284.9892"/>
      </g>
     </g>
    </g>
    <g id="ytick_8">
     <g id="line2d_30">
      <g>
       <use style="stroke:#000000;stroke-width:0.6;" x="57.6" xlink:href="#md910fa8049" y="279.181027"/>
      </g>
     </g>
    </g>
    <g id="ytick_9">
     <g id="line2d_31">
      <g>
       <use style="stroke:#000000;stroke-width:0.6;" x="57.6" xlink:href="#md910fa8049" y="274.270286"/>
      </g>
     </g>
    </g>
    <g id="ytick_10">
     <g id="line2d_32">
      <g>
       <use style="stroke:#000000;stroke-width:0.6;" x="57.6" xlink:href="#md910fa8049" y="270.016408"/>
      </g>
     </g>
    </g>
    <g id="ytick_11">
     <g id="line2d_33">
      <g>
       <use style="stroke:#000000;stroke-width:0.6;" x="57.6" xlink:href="#md910fa8049" y="266.264223"/>
      </g>
     </g>
    </g>
    <g id="ytick_12">
     <g id="line2d_34">
      <g>
       <use style="stroke:#000000;stroke-width:0.6;" x="57.6" xlink:href="#md910fa8049" y="240.826356"/>
      </g>
     </g>
    </g>
    <g id="ytick_13">
     <g id="line2d_35">
      <g>
       <use style="stroke:#000000;stroke-width:0.6;" x="57.6" xlink:href="#md910fa8049" y="227.909551"/>
      </g>
     </g>
    </g>
    <g id="ytick_14">
     <g id="line2d_36">
      <g>
       <use style="stroke:#000000;stroke-width:0.6;" x="57.6" xlink:href="#md910fa8049" y="218.744933"/>
      </g>
     </g>
    </g>
    <g id="ytick_15">
     <g id="line2d_37">
      <g>
       <use style="stroke:#000000;stroke-width:0.6;" x="57.6" xlink:href="#md910fa8049" y="211.636303"/>
      </g>
     </g>
    </g>
    <g id="ytick_16">
     <g id="line2d_38">
      <g>
       <use style="stroke:#000000;stroke-width:0.6;" x="57.6" xlink:href="#md910fa8049" y="205.828129"/>
      </g>
     </g>
    </g>
    <g id="ytick_17">
     <g id="line2d_39">
      <g>
       <use style="stroke:#000000;stroke-width:0.6;" x="57.6" xlink:href="#md910fa8049" y="200.917388"/>
      </g>
     </g>
    </g>
    <g id="ytick_18">
     <g id="line2d_40">
      <g>
       <use style="stroke:#000000;stroke-width:0.6;" x="57.6" xlink:href="#md910fa8049" y="196.663511"/>
      </g>
     </g>
    </g>
    <g id="ytick_19">
     <g id="line2d_41">
      <g>
       <use style="stroke:#000000;stroke-width:0.6;" x="57.6" xlink:href="#md910fa8049" y="192.911325"/>
      </g>
     </g>
    </g>
    <g id="ytick_20">
     <g id="line2d_42">
      <g>
       <use style="stroke:#000000;stroke-width:0.6;" x="57.6" xlink:href="#md910fa8049" y="167.473458"/>
      </g>
     </g>
    </g>
    <g id="ytick_21">
     <g id="line2d_43">
      <g>
       <use style="stroke:#000000;stroke-width:0.6;" x="57.6" xlink:href="#md910fa8049" y="154.556654"/>
      </g>
     </g>
    </g>
    <g id="ytick_22">
     <g id="line2d_44">
      <g>
       <use style="stroke:#000000;stroke-width:0.6;" x="57.6" xlink:href="#md910fa8049" y="145.392035"/>
      </g>
     </g>
    </g>
    <g id="ytick_23">
     <g id="line2d_45">
      <g>
       <use style="stroke:#000000;stroke-width:0.6;" x="57.6" xlink:href="#md910fa8049" y="138.283405"/>
      </g>
     </g>
    </g>
    <g id="ytick_24">
     <g id="line2d_46">
      <g>
       <use style="stroke:#000000;stroke-width:0.6;" x="57.6" xlink:href="#md910fa8049" y="132.475231"/>
      </g>
     </g>
    </g>
    <g id="ytick_25">
     <g id="line2d_47">
      <g>
       <use style="stroke:#000000;stroke-width:0.6;" x="57.6" xlink:href="#md910fa8049" y="127.56449"/>
      </g>
     </g>
    </g>
    <g id="ytick_26">
     <g id="line2d_48">
      <g>
       <use style="stroke:#000000;stroke-width:0.6;" x="57.6" xlink:href="#md910fa8049" y="123.310613"/>
      </g>
     </g>
    </g>
    <g id="ytick_27">
     <g id="line2d_49">
      <g>
       <use style="stroke:#000000;stroke-width:0.6;" x="57.6" xlink:href="#md910fa8049" y="119.558427"/>
      </g>
     </g>
    </g>
    <g id="ytick_28">
     <g id="line2d_50">
      <g>
       <use style="stroke:#000000;stroke-width:0.6;" x="57.6" xlink:href="#md910fa8049" y="94.12056"/>
      </g>
     </g>
    </g>
    <g id="ytick_29">
     <g id="line2d_51">
      <g>
       <use style="stroke:#000000;stroke-width:0.6;" x="57.6" xlink:href="#md910fa8049" y="81.203756"/>
      </g>
     </g>
    </g>
    <g id="ytick_30">
     <g id="line2d_52">
      <g>
       <use style="stroke:#000000;stroke-width:0.6;" x="57.6" xlink:href="#md910fa8049" y="72.039138"/>
      </g>
     </g>
    </g>
    <g id="ytick_31">
     <g id="line2d_53">
      <g>
       <use style="stroke:#000000;stroke-width:0.6;" x="57.6" xlink:href="#md910fa8049" y="64.930508"/>
      </g>
     </g>
    </g>
    <g id="ytick_32">
     <g id="line2d_54">
      <g>
       <use style="stroke:#000000;stroke-width:0.6;" x="57.6" xlink:href="#md910fa8049" y="59.122334"/>
      </g>
     </g>
    </g>
    <g id="ytick_33">
     <g id="line2d_55">
      <g>
       <use style="stroke:#000000;stroke-width:0.6;" x="57.6" xlink:href="#md910fa8049" y="54.211593"/>
      </g>
     </g>
    </g>
    <g id="ytick_34">
     <g id="line2d_56">
      <g>
       <use style="stroke:#000000;stroke-width:0.6;" x="57.6" xlink:href="#md910fa8049" y="49.957715"/>
      </g>
     </g>
    </g>
    <g id="ytick_35">
     <g id="line2d_57">
      <g>
       <use style="stroke:#000000;stroke-width:0.6;" x="57.6" xlink:href="#md910fa8049" y="46.20553"/>
      </g>
     </g>
    </g>
    <g id="text_15">
     <!-- $\omega_i$ -->
     <defs>
      <path d="M 21.390625 -1.421875 
Q 1.125 -1.421875 6.78125 27.59375 
Q 8.984375 39.0625 19.625 54.6875 
L 29.296875 54.6875 
Q 19.234375 39.0625 17 27.34375 
Q 12.796875 6.203125 23.734375 6.203125 
Q 33.84375 6.203125 38.71875 32.46875 
L 47.015625 32.46875 
Q 41.703125 6.0625 51.8125 6.203125 
Q 62.703125 6.296875 66.796875 27.34375 
Q 69.046875 39.0625 65.140625 54.6875 
L 74.8125 54.6875 
Q 79.296875 39.0625 77.09375 27.59375 
Q 71.53125 -1.46875 51.21875 -1.421875 
Q 37.9375 -1.375 39.109375 13.1875 
Q 34.28125 -1.421875 21.390625 -1.421875 
" id="DejaVuSans-Oblique-3c9"/>
     </defs>
     <g transform="translate(21.020313 179.828)rotate(-90)scale(0.1 -0.1)">
      <use transform="translate(0 0.3125)" xlink:href="#DejaVuSans-Oblique-3c9"/>
      <use transform="translate(83.740234 -16.09375)scale(0.7)" xlink:href="#DejaVuSans-Oblique-69"/>
     </g>
    </g>
   </g>
   <g id="line2d_58">
    <defs>
     <path d="M 0 3 
C 0.795609 3 1.55874 2.683901 2.12132 2.12132 
C 2.683901 1.55874 3 0.795609 3 0 
C 3 -0.795609 2.683901 -1.55874 2.12132 -2.12132 
C 1.55874 -2.683901 0.795609 -3 0 -3 
C -0.795609 -3 -1.55874 -2.683901 -2.12132 -2.12132 
C -2.683901 -1.55874 -3 -0.795609 -3 0 
C -3 0.795609 -2.683901 1.55874 -2.12132 2.12132 
C -1.55874 2.683901 -0.795609 3 0 3 
z
" id="m74d53daf91" style="stroke:#1f77b4;"/>
    </defs>
    <g clip-path="url(#p51da07739a)">
     <use style="fill:#1f77b4;stroke:#1f77b4;" x="324.016293" xlink:href="#m74d53daf91" y="163.336705"/>
     <use style="fill:#1f77b4;stroke:#1f77b4;" x="151.879487" xlink:href="#m74d53daf91" y="124.150939"/>
     <use style="fill:#1f77b4;stroke:#1f77b4;" x="153.287462" xlink:href="#m74d53daf91" y="116.521564"/>
     <use style="fill:#1f77b4;stroke:#1f77b4;" x="147.430204" xlink:href="#m74d53daf91" y="193.073438"/>
     <use style="fill:#1f77b4;stroke:#1f77b4;" x="317.457669" xlink:href="#m74d53daf91" y="109.824251"/>
     <use style="fill:#1f77b4;stroke:#1f77b4;" x="318.265775" xlink:href="#m74d53daf91" y="113.068905"/>
     <use style="fill:#1f77b4;stroke:#1f77b4;" x="325.248984" xlink:href="#m74d53daf91" y="225.534331"/>
     <use style="fill:#1f77b4;stroke:#1f77b4;" x="155.711372" xlink:href="#m74d53daf91" y="106.767428"/>
     <use style="fill:#1f77b4;stroke:#1f77b4;" x="154.054225" xlink:href="#m74d53daf91" y="113.068905"/>
     <use style="fill:#1f77b4;stroke:#1f77b4;" x="319.032538" xlink:href="#m74d53daf91" y="116.521564"/>
     <use style="fill:#1f77b4;stroke:#1f77b4;" x="314.789467" xlink:href="#m74d53daf91" y="101.150853"/>
     <use style="fill:#1f77b4;stroke:#1f77b4;" x="321.678758" xlink:href="#m74d53daf91" y="132.966957"/>
     <use style="fill:#1f77b4;stroke:#1f77b4;" x="154.862331" xlink:href="#m74d53daf91" y="109.824251"/>
     <use style="fill:#1f77b4;stroke:#1f77b4;" x="158.499736" xlink:href="#m74d53daf91" y="98.563491"/>
     <use style="fill:#1f77b4;stroke:#1f77b4;" x="149.107478" xlink:href="#m74d53daf91" y="149.312475"/>
     <use style="fill:#1f77b4;stroke:#1f77b4;" x="311.765054" xlink:href="#m74d53daf91" y="93.774511"/>
     <use style="fill:#1f77b4;stroke:#1f77b4;" x="312.811957" xlink:href="#m74d53daf91" y="96.107973"/>
     <use style="fill:#1f77b4;stroke:#1f77b4;" x="157.530533" xlink:href="#m74d53daf91" y="101.150853"/>
     <use style="fill:#1f77b4;stroke:#1f77b4;" x="166.349297" xlink:href="#m74d53daf91" y="83.667723"/>
     <use style="fill:#1f77b4;stroke:#1f77b4;" x="156.600922" xlink:href="#m74d53daf91" y="103.881227"/>
     <use style="fill:#1f77b4;stroke:#1f77b4;" x="315.719078" xlink:href="#m74d53daf91" y="103.881227"/>
     <use style="fill:#1f77b4;stroke:#1f77b4;" x="305.970703" xlink:href="#m74d53daf91" y="83.667723"/>
     <use style="fill:#1f77b4;stroke:#1f77b4;" x="323.212522" xlink:href="#m74d53daf91" y="149.312475"/>
     <use style="fill:#1f77b4;stroke:#1f77b4;" x="159.508043" xlink:href="#m74d53daf91" y="96.107973"/>
     <use style="fill:#1f77b4;stroke:#1f77b4;" x="162.762415" xlink:href="#m74d53daf91" y="89.440222"/>
     <use style="fill:#1f77b4;stroke:#1f77b4;" x="147.071016" xlink:href="#m74d53daf91" y="225.534331"/>
     <use style="fill:#1f77b4;stroke:#1f77b4;" x="304.703951" xlink:href="#m74d53daf91" y="81.915411"/>
     <use style="fill:#1f77b4;stroke:#1f77b4;" x="310.680081" xlink:href="#m74d53daf91" y="91.554474"/>
     <use style="fill:#1f77b4;stroke:#1f77b4;" x="150.641242" xlink:href="#m74d53daf91" y="132.966957"/>
     <use style="fill:#1f77b4;stroke:#1f77b4;" x="178.935422" xlink:href="#m74d53daf91" y="70.415653"/>
     <use style="fill:#1f77b4;stroke:#1f77b4;" x="149.57522" xlink:href="#m74d53daf91" y="143.352637"/>
     <use style="fill:#1f77b4;stroke:#1f77b4;" x="308.398131" xlink:href="#m74d53daf91" y="87.424956"/>
     <use style="fill:#1f77b4;stroke:#1f77b4;" x="302.067561" xlink:href="#m74d53daf91" y="78.641231"/>
     <use style="fill:#1f77b4;stroke:#1f77b4;" x="146.89124" xlink:href="#m74d53daf91" y="295.488"/>
     <use style="fill:#1f77b4;stroke:#1f77b4;" x="170.252439" xlink:href="#m74d53daf91" y="78.641231"/>
     <use style="fill:#1f77b4;stroke:#1f77b4;" x="167.616049" xlink:href="#m74d53daf91" y="81.915411"/>
     <use style="fill:#1f77b4;stroke:#1f77b4;" x="299.298441" xlink:href="#m74d53daf91" y="75.649422"/>
     <use style="fill:#1f77b4;stroke:#1f77b4;" x="290.251744" xlink:href="#m74d53daf91" y="68.134686"/>
     <use style="fill:#1f77b4;stroke:#1f77b4;" x="309.557585" xlink:href="#m74d53daf91" y="89.440222"/>
     <use style="fill:#1f77b4;stroke:#1f77b4;" x="147.22822" xlink:href="#m74d53daf91" y="207.242541"/>
     <use style="fill:#1f77b4;stroke:#1f77b4;" x="182.068256" xlink:href="#m74d53daf91" y="68.134686"/>
     <use style="fill:#1f77b4;stroke:#1f77b4;" x="147.968083" xlink:href="#m74d53daf91" y="171.7641"/>
     <use style="fill:#1f77b4;stroke:#1f77b4;" x="300.69925" xlink:href="#m74d53daf91" y="77.111724"/>
     <use style="fill:#1f77b4;stroke:#1f77b4;" x="294.908165" xlink:href="#m74d53daf91" y="71.636844"/>
     <use style="fill:#1f77b4;stroke:#1f77b4;" x="324.351917" xlink:href="#m74d53daf91" y="171.7641"/>
     <use style="fill:#1f77b4;stroke:#1f77b4;" x="180.487822" xlink:href="#m74d53daf91" y="69.24892"/>
     <use style="fill:#1f77b4;stroke:#1f77b4;" x="168.917315" xlink:href="#m74d53daf91" y="80.241248"/>
     <use style="fill:#1f77b4;stroke:#1f77b4;" x="322.233439" xlink:href="#m74d53daf91" y="137.932372"/>
     <use style="fill:#1f77b4;stroke:#1f77b4;" x="281.957413" xlink:href="#m74d53daf91" y="63.292482"/>
     <use style="fill:#1f77b4;stroke:#1f77b4;" x="316.608628" xlink:href="#m74d53daf91" y="106.767428"/>
     <use style="fill:#1f77b4;stroke:#1f77b4;" x="161.639919" xlink:href="#m74d53daf91" y="91.554474"/>
     <use style="fill:#1f77b4;stroke:#1f77b4;" x="188.654196" xlink:href="#m74d53daf91" y="64.168671"/>
     <use style="fill:#1f77b4;stroke:#1f77b4;" x="323.636431" xlink:href="#m74d53daf91" y="155.923458"/>
     <use style="fill:#1f77b4;stroke:#1f77b4;" x="293.384578" xlink:href="#m74d53daf91" y="70.415653"/>
     <use style="fill:#1f77b4;stroke:#1f77b4;" x="291.832178" xlink:href="#m74d53daf91" y="69.24892"/>
     <use style="fill:#1f77b4;stroke:#1f77b4;" x="325.42876" xlink:href="#m74d53daf91" y="295.488"/>
     <use style="fill:#1f77b4;stroke:#1f77b4;" x="190.362587" xlink:href="#m74d53daf91" y="63.292482"/>
     <use style="fill:#1f77b4;stroke:#1f77b4;" x="171.62075" xlink:href="#m74d53daf91" y="77.111724"/>
     <use style="fill:#1f77b4;stroke:#1f77b4;" x="324.643133" xlink:href="#m74d53daf91" y="181.515969"/>
     <use style="fill:#1f77b4;stroke:#1f77b4;" x="273.087152" xlink:href="#m74d53daf91" y="59.543439"/>
     <use style="fill:#1f77b4;stroke:#1f77b4;" x="150.086561" xlink:href="#m74d53daf91" y="137.932372"/>
     <use style="fill:#1f77b4;stroke:#1f77b4;" x="175.91783" xlink:href="#m74d53daf91" y="72.914624"/>
     <use style="fill:#1f77b4;stroke:#1f77b4;" x="192.094039" xlink:href="#m74d53daf91" y="62.459837"/>
     <use style="fill:#1f77b4;stroke:#1f77b4;" x="324.889796" xlink:href="#m74d53daf91" y="193.073438"/>
     <use style="fill:#1f77b4;stroke:#1f77b4;" x="283.665804" xlink:href="#m74d53daf91" y="64.168671"/>
     <use style="fill:#1f77b4;stroke:#1f77b4;" x="288.644074" xlink:href="#m74d53daf91" y="67.071147"/>
     <use style="fill:#1f77b4;stroke:#1f77b4;" x="325.36133" xlink:href="#m74d53daf91" y="251.341198"/>
     <use style="fill:#1f77b4;stroke:#1f77b4;" x="199.232848" xlink:href="#m74d53daf91" y="59.543439"/>
     <use style="fill:#1f77b4;stroke:#1f77b4;" x="160.554946" xlink:href="#m74d53daf91" y="93.774511"/>
     <use style="fill:#1f77b4;stroke:#1f77b4;" x="147.676867" xlink:href="#m74d53daf91" y="181.515969"/>
     <use style="fill:#1f77b4;stroke:#1f77b4;" x="269.402562" xlink:href="#m74d53daf91" y="58.321006"/>
     <use style="fill:#1f77b4;stroke:#1f77b4;" x="174.454159" xlink:href="#m74d53daf91" y="74.251308"/>
     <use style="fill:#1f77b4;stroke:#1f77b4;" x="186.969725" xlink:href="#m74d53daf91" y="65.089618"/>
     <use style="fill:#1f77b4;stroke:#1f77b4;" x="195.622625" xlink:href="#m74d53daf91" y="60.920765"/>
     <use style="fill:#1f77b4;stroke:#1f77b4;" x="322.74478" xlink:href="#m74d53daf91" y="143.352637"/>
     <use style="fill:#1f77b4;stroke:#1f77b4;" x="276.697375" xlink:href="#m74d53daf91" y="60.920765"/>
     <use style="fill:#1f77b4;stroke:#1f77b4;" x="285.350275" xlink:href="#m74d53daf91" y="65.089618"/>
     <use style="fill:#1f77b4;stroke:#1f77b4;" x="163.921869" xlink:href="#m74d53daf91" y="87.424956"/>
     <use style="fill:#1f77b4;stroke:#1f77b4;" x="208.567489" xlink:href="#m74d53daf91" y="56.765258"/>
     <use style="fill:#1f77b4;stroke:#1f77b4;" x="165.117697" xlink:href="#m74d53daf91" y="85.502605"/>
     <use style="fill:#1f77b4;stroke:#1f77b4;" x="313.820264" xlink:href="#m74d53daf91" y="98.563491"/>
     <use style="fill:#1f77b4;stroke:#1f77b4;" x="265.651027" xlink:href="#m74d53daf91" y="57.247628"/>
     <use style="fill:#1f77b4;stroke:#1f77b4;" x="320.440513" xlink:href="#m74d53daf91" y="124.150939"/>
     <use style="fill:#1f77b4;stroke:#1f77b4;" x="193.847679" xlink:href="#m74d53daf91" y="61.669611"/>
     <use style="fill:#1f77b4;stroke:#1f77b4;" x="201.066307" xlink:href="#m74d53daf91" y="58.913248"/>
     <use style="fill:#1f77b4;stroke:#1f77b4;" x="148.683569" xlink:href="#m74d53daf91" y="155.923458"/>
     <use style="fill:#1f77b4;stroke:#1f77b4;" x="267.534694" xlink:href="#m74d53daf91" y="57.766014"/>
     <use style="fill:#1f77b4;stroke:#1f77b4;" x="296.40217" xlink:href="#m74d53daf91" y="72.914624"/>
     <use style="fill:#1f77b4;stroke:#1f77b4;" x="146.95867" xlink:href="#m74d53daf91" y="251.341198"/>
     <use style="fill:#1f77b4;stroke:#1f77b4;" x="214.342542" xlink:href="#m74d53daf91" y="55.52906"/>
     <use style="fill:#1f77b4;stroke:#1f77b4;" x="325.09178" xlink:href="#m74d53daf91" y="207.242541"/>
     <use style="fill:#1f77b4;stroke:#1f77b4;" x="278.472321" xlink:href="#m74d53daf91" y="61.669611"/>
     <use style="fill:#1f77b4;stroke:#1f77b4;" x="261.840101" xlink:href="#m74d53daf91" y="56.318362"/>
     <use style="fill:#1f77b4;stroke:#1f77b4;" x="148.303707" xlink:href="#m74d53daf91" y="163.336705"/>
     <use style="fill:#1f77b4;stroke:#1f77b4;" x="202.917438" xlink:href="#m74d53daf91" y="58.321006"/>
     <use style="fill:#1f77b4;stroke:#1f77b4;" x="220.216433" xlink:href="#m74d53daf91" y="54.600219"/>
     <use style="fill:#1f77b4;stroke:#1f77b4;" x="307.202303" xlink:href="#m74d53daf91" y="85.502605"/>
     <use style="fill:#1f77b4;stroke:#1f77b4;" x="259.91476" xlink:href="#m74d53daf91" y="55.906446"/>
     <use style="fill:#1f77b4;stroke:#1f77b4;" x="303.402685" xlink:href="#m74d53daf91" y="80.241248"/>
     <use style="fill:#1f77b4;stroke:#1f77b4;" x="173.021559" xlink:href="#m74d53daf91" y="75.649422"/>
     <use style="fill:#1f77b4;stroke:#1f77b4;" x="210.479899" xlink:href="#m74d53daf91" y="56.318362"/>
     <use style="fill:#1f77b4;stroke:#1f77b4;" x="321.081016" xlink:href="#m74d53daf91" y="128.390543"/>
     <use style="fill:#1f77b4;stroke:#1f77b4;" x="271.253693" xlink:href="#m74d53daf91" y="58.913248"/>
     <use style="fill:#1f77b4;stroke:#1f77b4;" x="257.977458" xlink:href="#m74d53daf91" y="55.52906"/>
     <use style="fill:#1f77b4;stroke:#1f77b4;" x="152.562427" xlink:href="#m74d53daf91" y="120.206079"/>
     <use style="fill:#1f77b4;stroke:#1f77b4;" x="206.668973" xlink:href="#m74d53daf91" y="57.247628"/>
     <use style="fill:#1f77b4;stroke:#1f77b4;" x="177.411835" xlink:href="#m74d53daf91" y="71.636844"/>
     <use style="fill:#1f77b4;stroke:#1f77b4;" x="151.238984" xlink:href="#m74d53daf91" y="128.390543"/>
     <use style="fill:#1f77b4;stroke:#1f77b4;" x="256.02917" xlink:href="#m74d53daf91" y="55.185798"/>
     <use style="fill:#1f77b4;stroke:#1f77b4;" x="280.225961" xlink:href="#m74d53daf91" y="62.459837"/>
     <use style="fill:#1f77b4;stroke:#1f77b4;" x="212.40524" xlink:href="#m74d53daf91" y="55.906446"/>
     <use style="fill:#1f77b4;stroke:#1f77b4;" x="216.29083" xlink:href="#m74d53daf91" y="55.185798"/>
     <use style="fill:#1f77b4;stroke:#1f77b4;" x="287.009977" xlink:href="#m74d53daf91" y="66.056637"/>
     <use style="fill:#1f77b4;stroke:#1f77b4;" x="263.752511" xlink:href="#m74d53daf91" y="56.765258"/>
     <use style="fill:#1f77b4;stroke:#1f77b4;" x="274.902017" xlink:href="#m74d53daf91" y="60.212337"/>
     <use style="fill:#1f77b4;stroke:#1f77b4;" x="183.675926" xlink:href="#m74d53daf91" y="67.071147"/>
     <use style="fill:#1f77b4;stroke:#1f77b4;" x="218.249122" xlink:href="#m74d53daf91" y="54.876293"/>
     <use style="fill:#1f77b4;stroke:#1f77b4;" x="204.785306" xlink:href="#m74d53daf91" y="57.766014"/>
     <use style="fill:#1f77b4;stroke:#1f77b4;" x="238.163523" xlink:href="#m74d53daf91" y="53.584043"/>
     <use style="fill:#1f77b4;stroke:#1f77b4;" x="250.128227" xlink:href="#m74d53daf91" y="54.357288"/>
     <use style="fill:#1f77b4;stroke:#1f77b4;" x="319.757573" xlink:href="#m74d53daf91" y="120.206079"/>
     <use style="fill:#1f77b4;stroke:#1f77b4;" x="197.417983" xlink:href="#m74d53daf91" y="60.212337"/>
     <use style="fill:#1f77b4;stroke:#1f77b4;" x="224.174145" xlink:href="#m74d53daf91" y="54.147248"/>
     <use style="fill:#1f77b4;stroke:#1f77b4;" x="297.865841" xlink:href="#m74d53daf91" y="74.251308"/>
     <use style="fill:#1f77b4;stroke:#1f77b4;" x="252.103567" xlink:href="#m74d53daf91" y="54.600219"/>
     <use style="fill:#1f77b4;stroke:#1f77b4;" x="254.070878" xlink:href="#m74d53daf91" y="54.876293"/>
     <use style="fill:#1f77b4;stroke:#1f77b4;" x="232.153964" xlink:href="#m74d53daf91" y="53.632188"/>
     <use style="fill:#1f77b4;stroke:#1f77b4;" x="222.191773" xlink:href="#m74d53daf91" y="54.357288"/>
     <use style="fill:#1f77b4;stroke:#1f77b4;" x="185.310023" xlink:href="#m74d53daf91" y="66.056637"/>
     <use style="fill:#1f77b4;stroke:#1f77b4;" x="242.166533" xlink:href="#m74d53daf91" y="53.712483"/>
     <use style="fill:#1f77b4;stroke:#1f77b4;" x="248.145855" xlink:href="#m74d53daf91" y="54.147248"/>
     <use style="fill:#1f77b4;stroke:#1f77b4;" x="240.166036" xlink:href="#m74d53daf91" y="53.632188"/>
     <use style="fill:#1f77b4;stroke:#1f77b4;" x="228.155995" xlink:href="#m74d53daf91" y="53.82501"/>
     <use style="fill:#1f77b4;stroke:#1f77b4;" x="230.153467" xlink:href="#m74d53daf91" y="53.712483"/>
     <use style="fill:#1f77b4;stroke:#1f77b4;" x="234.156477" xlink:href="#m74d53daf91" y="53.584043"/>
     <use style="fill:#1f77b4;stroke:#1f77b4;" x="246.157447" xlink:href="#m74d53daf91" y="53.969882"/>
     <use style="fill:#1f77b4;stroke:#1f77b4;" x="244.164005" xlink:href="#m74d53daf91" y="53.82501"/>
     <use style="fill:#1f77b4;stroke:#1f77b4;" x="236.16" xlink:href="#m74d53daf91" y="53.568"/>
     <use style="fill:#1f77b4;stroke:#1f77b4;" x="226.162553" xlink:href="#m74d53daf91" y="53.969882"/>
    </g>
   </g>
   <g id="patch_3">
    <path d="M 57.6 307.584 
L 57.6 41.472 
" style="fill:none;stroke:#000000;stroke-linecap:square;stroke-linejoin:miter;stroke-width:0.8;"/>
   </g>
   <g id="patch_4">
    <path d="M 414.72 307.584 
L 414.72 41.472 
" style="fill:none;stroke:#000000;stroke-linecap:square;stroke-linejoin:miter;stroke-width:0.8;"/>
   </g>
   <g id="patch_5">
    <path d="M 57.6 307.584 
L 414.72 307.584 
" style="fill:none;stroke:#000000;stroke-linecap:square;stroke-linejoin:miter;stroke-width:0.8;"/>
   </g>
   <g id="patch_6">
    <path d="M 57.6 41.472 
L 414.72 41.472 
" style="fill:none;stroke:#000000;stroke-linecap:square;stroke-linejoin:miter;stroke-width:0.8;"/>
   </g>
  </g>
 </g>
 <defs>
  <clipPath id="p51da07739a">
   <rect height="266.112" width="357.12" x="57.6" y="41.472"/>
  </clipPath>
 </defs>
</svg>
