<?xml version="1.0" encoding="utf-8" standalone="no"?>
<!DOCTYPE svg PUBLIC "-//W3C//DTD SVG 1.1//EN"
  "http://www.w3.org/Graphics/SVG/1.1/DTD/svg11.dtd">
<!-- Created with matplotlib (http://matplotlib.org/) -->
<svg height="345pt" version="1.1" viewBox="0 0 460 345" width="460pt" xmlns="http://www.w3.org/2000/svg" xmlns:xlink="http://www.w3.org/1999/xlink">
 <defs>
  <style type="text/css">
*{stroke-linecap:butt;stroke-linejoin:round;}
  </style>
 </defs>
 <g id="figure_1">
  <g id="patch_1">
   <path d="M 0 345.6 
L 460.8 345.6 
L 460.8 0 
L 0 0 
z
" style="fill:#ffffff;"/>
  </g>
  <g id="axes_1">
   <g id="patch_2">
    <path d="M 57.6 307.584 
L 414.72 307.584 
L 414.72 41.472 
L 57.6 41.472 
z
" style="fill:#ffffff;"/>
   </g>
   <g id="matplotlib.axis_1">
    <g id="xtick_1">
     <g id="line2d_1">
      <path clip-path="url(#p6000793a7e)" d="M 57.514985 307.584 
L 57.514985 41.472 
" style="fill:none;stroke:#b0b0b0;stroke-linecap:square;stroke-width:0.8;"/>
     </g>
     <g id="line2d_2">
      <defs>
       <path d="M 0 0 
L 0 3.5 
" id="m3ccdd92b1a" style="stroke:#000000;stroke-width:0.8;"/>
      </defs>
      <g>
       <use style="stroke:#000000;stroke-width:0.8;" x="57.514985" xlink:href="#m3ccdd92b1a" y="307.584"/>
      </g>
     </g>
     <g id="text_1">
      <!-- −2.0 -->
      <defs>
       <path d="M 10.59375 35.5 
L 73.1875 35.5 
L 73.1875 27.203125 
L 10.59375 27.203125 
z
" id="DejaVuSans-2212"/>
       <path d="M 19.1875 8.296875 
L 53.609375 8.296875 
L 53.609375 0 
L 7.328125 0 
L 7.328125 8.296875 
Q 12.9375 14.109375 22.625 23.890625 
Q 32.328125 33.6875 34.8125 36.53125 
Q 39.546875 41.84375 41.421875 45.53125 
Q 43.3125 49.21875 43.3125 52.78125 
Q 43.3125 58.59375 39.234375 62.25 
Q 35.15625 65.921875 28.609375 65.921875 
Q 23.96875 65.921875 18.8125 64.3125 
Q 13.671875 62.703125 7.8125 59.421875 
L 7.8125 69.390625 
Q 13.765625 71.78125 18.9375 73 
Q 24.125 74.21875 28.421875 74.21875 
Q 39.75 74.21875 46.484375 68.546875 
Q 53.21875 62.890625 53.21875 53.421875 
Q 53.21875 48.921875 51.53125 44.890625 
Q 49.859375 40.875 45.40625 35.40625 
Q 44.1875 33.984375 37.640625 27.21875 
Q 31.109375 20.453125 19.1875 8.296875 
" id="DejaVuSans-32"/>
       <path d="M 10.6875 12.40625 
L 21 12.40625 
L 21 0 
L 10.6875 0 
z
" id="DejaVuSans-2e"/>
       <path d="M 31.78125 66.40625 
Q 24.171875 66.40625 20.328125 58.90625 
Q 16.5 51.421875 16.5 36.375 
Q 16.5 21.390625 20.328125 13.890625 
Q 24.171875 6.390625 31.78125 6.390625 
Q 39.453125 6.390625 43.28125 13.890625 
Q 47.125 21.390625 47.125 36.375 
Q 47.125 51.421875 43.28125 58.90625 
Q 39.453125 66.40625 31.78125 66.40625 
M 31.78125 74.21875 
Q 44.046875 74.21875 50.515625 64.515625 
Q 56.984375 54.828125 56.984375 36.375 
Q 56.984375 17.96875 50.515625 8.265625 
Q 44.046875 -1.421875 31.78125 -1.421875 
Q 19.53125 -1.421875 13.0625 8.265625 
Q 6.59375 17.96875 6.59375 36.375 
Q 6.59375 54.828125 13.0625 64.515625 
Q 19.53125 74.21875 31.78125 74.21875 
" id="DejaVuSans-30"/>
      </defs>
      <g transform="translate(45.373579 322.182437)scale(0.1 -0.1)">
       <use xlink:href="#DejaVuSans-2212"/>
       <use x="83.789062" xlink:href="#DejaVuSans-32"/>
       <use x="147.412109" xlink:href="#DejaVuSans-2e"/>
       <use x="179.199219" xlink:href="#DejaVuSans-30"/>
      </g>
     </g>
    </g>
    <g id="xtick_2">
     <g id="line2d_3">
      <path clip-path="url(#p6000793a7e)" d="M 102.176239 307.584 
L 102.176239 41.472 
" style="fill:none;stroke:#b0b0b0;stroke-linecap:square;stroke-width:0.8;"/>
     </g>
     <g id="line2d_4">
      <g>
       <use style="stroke:#000000;stroke-width:0.8;" x="102.176239" xlink:href="#m3ccdd92b1a" y="307.584"/>
      </g>
     </g>
     <g id="text_2">
      <!-- −1.5 -->
      <defs>
       <path d="M 12.40625 8.296875 
L 28.515625 8.296875 
L 28.515625 63.921875 
L 10.984375 60.40625 
L 10.984375 69.390625 
L 28.421875 72.90625 
L 38.28125 72.90625 
L 38.28125 8.296875 
L 54.390625 8.296875 
L 54.390625 0 
L 12.40625 0 
z
" id="DejaVuSans-31"/>
       <path d="M 10.796875 72.90625 
L 49.515625 72.90625 
L 49.515625 64.59375 
L 19.828125 64.59375 
L 19.828125 46.734375 
Q 21.96875 47.46875 24.109375 47.828125 
Q 26.265625 48.1875 28.421875 48.1875 
Q 40.625 48.1875 47.75 41.5 
Q 54.890625 34.8125 54.890625 23.390625 
Q 54.890625 11.625 47.5625 5.09375 
Q 40.234375 -1.421875 26.90625 -1.421875 
Q 22.3125 -1.421875 17.546875 -0.640625 
Q 12.796875 0.140625 7.71875 1.703125 
L 7.71875 11.625 
Q 12.109375 9.234375 16.796875 8.0625 
Q 21.484375 6.890625 26.703125 6.890625 
Q 35.15625 6.890625 40.078125 11.328125 
Q 45.015625 15.765625 45.015625 23.390625 
Q 45.015625 31 40.078125 35.4375 
Q 35.15625 39.890625 26.703125 39.890625 
Q 22.75 39.890625 18.8125 39.015625 
Q 14.890625 38.140625 10.796875 36.28125 
z
" id="DejaVuSans-35"/>
      </defs>
      <g transform="translate(90.034832 322.182437)scale(0.1 -0.1)">
       <use xlink:href="#DejaVuSans-2212"/>
       <use x="83.789062" xlink:href="#DejaVuSans-31"/>
       <use x="147.412109" xlink:href="#DejaVuSans-2e"/>
       <use x="179.199219" xlink:href="#DejaVuSans-35"/>
      </g>
     </g>
    </g>
    <g id="xtick_3">
     <g id="line2d_5">
      <path clip-path="url(#p6000793a7e)" d="M 146.837492 307.584 
L 146.837492 41.472 
" style="fill:none;stroke:#b0b0b0;stroke-linecap:square;stroke-width:0.8;"/>
     </g>
     <g id="line2d_6">
      <g>
       <use style="stroke:#000000;stroke-width:0.8;" x="146.837492" xlink:href="#m3ccdd92b1a" y="307.584"/>
      </g>
     </g>
     <g id="text_3">
      <!-- −1.0 -->
      <g transform="translate(134.696086 322.182437)scale(0.1 -0.1)">
       <use xlink:href="#DejaVuSans-2212"/>
       <use x="83.789062" xlink:href="#DejaVuSans-31"/>
       <use x="147.412109" xlink:href="#DejaVuSans-2e"/>
       <use x="179.199219" xlink:href="#DejaVuSans-30"/>
      </g>
     </g>
    </g>
    <g id="xtick_4">
     <g id="line2d_7">
      <path clip-path="url(#p6000793a7e)" d="M 191.498746 307.584 
L 191.498746 41.472 
" style="fill:none;stroke:#b0b0b0;stroke-linecap:square;stroke-width:0.8;"/>
     </g>
     <g id="line2d_8">
      <g>
       <use style="stroke:#000000;stroke-width:0.8;" x="191.498746" xlink:href="#m3ccdd92b1a" y="307.584"/>
      </g>
     </g>
     <g id="text_4">
      <!-- −0.5 -->
      <g transform="translate(179.35734 322.182437)scale(0.1 -0.1)">
       <use xlink:href="#DejaVuSans-2212"/>
       <use x="83.789062" xlink:href="#DejaVuSans-30"/>
       <use x="147.412109" xlink:href="#DejaVuSans-2e"/>
       <use x="179.199219" xlink:href="#DejaVuSans-35"/>
      </g>
     </g>
    </g>
    <g id="xtick_5">
     <g id="line2d_9">
      <path clip-path="url(#p6000793a7e)" d="M 236.16 307.584 
L 236.16 41.472 
" style="fill:none;stroke:#b0b0b0;stroke-linecap:square;stroke-width:0.8;"/>
     </g>
     <g id="line2d_10">
      <g>
       <use style="stroke:#000000;stroke-width:0.8;" x="236.16" xlink:href="#m3ccdd92b1a" y="307.584"/>
      </g>
     </g>
     <g id="text_5">
      <!-- 0.0 -->
      <g transform="translate(228.208437 322.182437)scale(0.1 -0.1)">
       <use xlink:href="#DejaVuSans-30"/>
       <use x="63.623047" xlink:href="#DejaVuSans-2e"/>
       <use x="95.410156" xlink:href="#DejaVuSans-30"/>
      </g>
     </g>
    </g>
    <g id="xtick_6">
     <g id="line2d_11">
      <path clip-path="url(#p6000793a7e)" d="M 280.821254 307.584 
L 280.821254 41.472 
" style="fill:none;stroke:#b0b0b0;stroke-linecap:square;stroke-width:0.8;"/>
     </g>
     <g id="line2d_12">
      <g>
       <use style="stroke:#000000;stroke-width:0.8;" x="280.821254" xlink:href="#m3ccdd92b1a" y="307.584"/>
      </g>
     </g>
     <g id="text_6">
      <!-- 0.5 -->
      <g transform="translate(272.869691 322.182437)scale(0.1 -0.1)">
       <use xlink:href="#DejaVuSans-30"/>
       <use x="63.623047" xlink:href="#DejaVuSans-2e"/>
       <use x="95.410156" xlink:href="#DejaVuSans-35"/>
      </g>
     </g>
    </g>
    <g id="xtick_7">
     <g id="line2d_13">
      <path clip-path="url(#p6000793a7e)" d="M 325.482508 307.584 
L 325.482508 41.472 
" style="fill:none;stroke:#b0b0b0;stroke-linecap:square;stroke-width:0.8;"/>
     </g>
     <g id="line2d_14">
      <g>
       <use style="stroke:#000000;stroke-width:0.8;" x="325.482508" xlink:href="#m3ccdd92b1a" y="307.584"/>
      </g>
     </g>
     <g id="text_7">
      <!-- 1.0 -->
      <g transform="translate(317.530945 322.182437)scale(0.1 -0.1)">
       <use xlink:href="#DejaVuSans-31"/>
       <use x="63.623047" xlink:href="#DejaVuSans-2e"/>
       <use x="95.410156" xlink:href="#DejaVuSans-30"/>
      </g>
     </g>
    </g>
    <g id="xtick_8">
     <g id="line2d_15">
      <path clip-path="url(#p6000793a7e)" d="M 370.143761 307.584 
L 370.143761 41.472 
" style="fill:none;stroke:#b0b0b0;stroke-linecap:square;stroke-width:0.8;"/>
     </g>
     <g id="line2d_16">
      <g>
       <use style="stroke:#000000;stroke-width:0.8;" x="370.143761" xlink:href="#m3ccdd92b1a" y="307.584"/>
      </g>
     </g>
     <g id="text_8">
      <!-- 1.5 -->
      <g transform="translate(362.192199 322.182437)scale(0.1 -0.1)">
       <use xlink:href="#DejaVuSans-31"/>
       <use x="63.623047" xlink:href="#DejaVuSans-2e"/>
       <use x="95.410156" xlink:href="#DejaVuSans-35"/>
      </g>
     </g>
    </g>
    <g id="xtick_9">
     <g id="line2d_17">
      <path clip-path="url(#p6000793a7e)" d="M 414.805015 307.584 
L 414.805015 41.472 
" style="fill:none;stroke:#b0b0b0;stroke-linecap:square;stroke-width:0.8;"/>
     </g>
     <g id="line2d_18">
      <g>
       <use style="stroke:#000000;stroke-width:0.8;" x="414.805015" xlink:href="#m3ccdd92b1a" y="307.584"/>
      </g>
     </g>
     <g id="text_9">
      <!-- 2.0 -->
      <g transform="translate(406.853453 322.182437)scale(0.1 -0.1)">
       <use xlink:href="#DejaVuSans-32"/>
       <use x="63.623047" xlink:href="#DejaVuSans-2e"/>
       <use x="95.410156" xlink:href="#DejaVuSans-30"/>
      </g>
     </g>
    </g>
    <g id="text_10">
     <!-- $\gamma_i$ -->
     <defs>
      <path d="M 23.296875 46.09375 
L 28.71875 12.3125 
L 54 54.6875 
L 63.53125 54.6875 
L 30.8125 0 
L 26.765625 -20.796875 
L 17.78125 -20.796875 
L 21.828125 0 
L 15.4375 40.828125 
Q 14.453125 46.96875 9.8125 46.96875 
L 7.421875 46.96875 
L 8.890625 54.6875 
L 12.3125 54.6875 
Q 21.921875 54.6875 23.296875 46.09375 
" id="DejaVuSans-Oblique-3b3"/>
      <path d="M 18.3125 75.984375 
L 27.296875 75.984375 
L 25.09375 64.59375 
L 16.109375 64.59375 
z
M 14.203125 54.6875 
L 23.1875 54.6875 
L 12.5 0 
L 3.515625 0 
z
" id="DejaVuSans-Oblique-69"/>
     </defs>
     <g transform="translate(232.06 335.84025)scale(0.1 -0.1)">
      <use transform="translate(0 0.3125)" xlink:href="#DejaVuSans-Oblique-3b3"/>
      <use transform="translate(59.179688 -16.09375)scale(0.7)" xlink:href="#DejaVuSans-Oblique-69"/>
     </g>
    </g>
   </g>
   <g id="matplotlib.axis_2">
    <g id="ytick_1">
     <g id="line2d_19">
      <path clip-path="url(#p6000793a7e)" d="M 57.6 244.094477 
L 414.72 244.094477 
" style="fill:none;stroke:#b0b0b0;stroke-linecap:square;stroke-width:0.8;"/>
     </g>
     <g id="line2d_20">
      <defs>
       <path d="M 0 0 
L -3.5 0 
" id="m11de22a6cc" style="stroke:#000000;stroke-width:0.8;"/>
      </defs>
      <g>
       <use style="stroke:#000000;stroke-width:0.8;" x="57.6" xlink:href="#m11de22a6cc" y="244.094477"/>
      </g>
     </g>
     <g id="text_11">
      <!-- ${10^{-4}}$ -->
      <defs>
       <path d="M 37.796875 64.3125 
L 12.890625 25.390625 
L 37.796875 25.390625 
z
M 35.203125 72.90625 
L 47.609375 72.90625 
L 47.609375 25.390625 
L 58.015625 25.390625 
L 58.015625 17.1875 
L 47.609375 17.1875 
L 47.609375 0 
L 37.796875 0 
L 37.796875 17.1875 
L 4.890625 17.1875 
L 4.890625 26.703125 
z
" id="DejaVuSans-34"/>
      </defs>
      <g transform="translate(27.1 247.893696)scale(0.1 -0.1)">
       <use transform="translate(0 0.684375)" xlink:href="#DejaVuSans-31"/>
       <use transform="translate(63.623047 0.684375)" xlink:href="#DejaVuSans-30"/>
       <use transform="translate(128.203125 38.965625)scale(0.7)" xlink:href="#DejaVuSans-2212"/>
       <use transform="translate(186.855469 38.965625)scale(0.7)" xlink:href="#DejaVuSans-34"/>
      </g>
     </g>
    </g>
    <g id="ytick_2">
     <g id="line2d_21">
      <path clip-path="url(#p6000793a7e)" d="M 57.6 155.174252 
L 414.72 155.174252 
" style="fill:none;stroke:#b0b0b0;stroke-linecap:square;stroke-width:0.8;"/>
     </g>
     <g id="line2d_22">
      <g>
       <use style="stroke:#000000;stroke-width:0.8;" x="57.6" xlink:href="#m11de22a6cc" y="155.174252"/>
      </g>
     </g>
     <g id="text_12">
      <!-- ${10^{-3}}$ -->
      <defs>
       <path d="M 40.578125 39.3125 
Q 47.65625 37.796875 51.625 33 
Q 55.609375 28.21875 55.609375 21.1875 
Q 55.609375 10.40625 48.1875 4.484375 
Q 40.765625 -1.421875 27.09375 -1.421875 
Q 22.515625 -1.421875 17.65625 -0.515625 
Q 12.796875 0.390625 7.625 2.203125 
L 7.625 11.71875 
Q 11.71875 9.328125 16.59375 8.109375 
Q 21.484375 6.890625 26.8125 6.890625 
Q 36.078125 6.890625 40.9375 10.546875 
Q 45.796875 14.203125 45.796875 21.1875 
Q 45.796875 27.640625 41.28125 31.265625 
Q 36.765625 34.90625 28.71875 34.90625 
L 20.21875 34.90625 
L 20.21875 43.015625 
L 29.109375 43.015625 
Q 36.375 43.015625 40.234375 45.921875 
Q 44.09375 48.828125 44.09375 54.296875 
Q 44.09375 59.90625 40.109375 62.90625 
Q 36.140625 65.921875 28.71875 65.921875 
Q 24.65625 65.921875 20.015625 65.03125 
Q 15.375 64.15625 9.8125 62.3125 
L 9.8125 71.09375 
Q 15.4375 72.65625 20.34375 73.4375 
Q 25.25 74.21875 29.59375 74.21875 
Q 40.828125 74.21875 47.359375 69.109375 
Q 53.90625 64.015625 53.90625 55.328125 
Q 53.90625 49.265625 50.4375 45.09375 
Q 46.96875 40.921875 40.578125 39.3125 
" id="DejaVuSans-33"/>
      </defs>
      <g transform="translate(27.1 158.973471)scale(0.1 -0.1)">
       <use transform="translate(0 0.765625)" xlink:href="#DejaVuSans-31"/>
       <use transform="translate(63.623047 0.765625)" xlink:href="#DejaVuSans-30"/>
       <use transform="translate(128.203125 39.046875)scale(0.7)" xlink:href="#DejaVuSans-2212"/>
       <use transform="translate(186.855469 39.046875)scale(0.7)" xlink:href="#DejaVuSans-33"/>
      </g>
     </g>
    </g>
    <g id="ytick_3">
     <g id="line2d_23">
      <path clip-path="url(#p6000793a7e)" d="M 57.6 66.254027 
L 414.72 66.254027 
" style="fill:none;stroke:#b0b0b0;stroke-linecap:square;stroke-width:0.8;"/>
     </g>
     <g id="line2d_24">
      <g>
       <use style="stroke:#000000;stroke-width:0.8;" x="57.6" xlink:href="#m11de22a6cc" y="66.254027"/>
      </g>
     </g>
     <g id="text_13">
      <!-- ${10^{-2}}$ -->
      <g transform="translate(27.1 70.053245)scale(0.1 -0.1)">
       <use transform="translate(0 0.765625)" xlink:href="#DejaVuSans-31"/>
       <use transform="translate(63.623047 0.765625)" xlink:href="#DejaVuSans-30"/>
       <use transform="translate(128.203125 39.046875)scale(0.7)" xlink:href="#DejaVuSans-2212"/>
       <use transform="translate(186.855469 39.046875)scale(0.7)" xlink:href="#DejaVuSans-32"/>
      </g>
     </g>
    </g>
    <g id="ytick_4">
     <g id="line2d_25">
      <defs>
       <path d="M 0 0 
L -2 0 
" id="mc562b42e49" style="stroke:#000000;stroke-width:0.6;"/>
      </defs>
      <g>
       <use style="stroke:#000000;stroke-width:0.6;" x="57.6" xlink:href="#mc562b42e49" y="306.247048"/>
      </g>
     </g>
    </g>
    <g id="ytick_5">
     <g id="line2d_26">
      <g>
       <use style="stroke:#000000;stroke-width:0.6;" x="57.6" xlink:href="#mc562b42e49" y="290.588973"/>
      </g>
     </g>
    </g>
    <g id="ytick_6">
     <g id="line2d_27">
      <g>
       <use style="stroke:#000000;stroke-width:0.6;" x="57.6" xlink:href="#mc562b42e49" y="279.479393"/>
      </g>
     </g>
    </g>
    <g id="ytick_7">
     <g id="line2d_28">
      <g>
       <use style="stroke:#000000;stroke-width:0.6;" x="57.6" xlink:href="#mc562b42e49" y="270.862132"/>
      </g>
     </g>
    </g>
    <g id="ytick_8">
     <g id="line2d_29">
      <g>
       <use style="stroke:#000000;stroke-width:0.6;" x="57.6" xlink:href="#mc562b42e49" y="263.821318"/>
      </g>
     </g>
    </g>
    <g id="ytick_9">
     <g id="line2d_30">
      <g>
       <use style="stroke:#000000;stroke-width:0.6;" x="57.6" xlink:href="#mc562b42e49" y="257.868395"/>
      </g>
     </g>
    </g>
    <g id="ytick_10">
     <g id="line2d_31">
      <g>
       <use style="stroke:#000000;stroke-width:0.6;" x="57.6" xlink:href="#mc562b42e49" y="252.711738"/>
      </g>
     </g>
    </g>
    <g id="ytick_11">
     <g id="line2d_32">
      <g>
       <use style="stroke:#000000;stroke-width:0.6;" x="57.6" xlink:href="#mc562b42e49" y="248.163244"/>
      </g>
     </g>
    </g>
    <g id="ytick_12">
     <g id="line2d_33">
      <g>
       <use style="stroke:#000000;stroke-width:0.6;" x="57.6" xlink:href="#mc562b42e49" y="217.326822"/>
      </g>
     </g>
    </g>
    <g id="ytick_13">
     <g id="line2d_34">
      <g>
       <use style="stroke:#000000;stroke-width:0.6;" x="57.6" xlink:href="#mc562b42e49" y="201.668748"/>
      </g>
     </g>
    </g>
    <g id="ytick_14">
     <g id="line2d_35">
      <g>
       <use style="stroke:#000000;stroke-width:0.6;" x="57.6" xlink:href="#mc562b42e49" y="190.559167"/>
      </g>
     </g>
    </g>
    <g id="ytick_15">
     <g id="line2d_36">
      <g>
       <use style="stroke:#000000;stroke-width:0.6;" x="57.6" xlink:href="#mc562b42e49" y="181.941907"/>
      </g>
     </g>
    </g>
    <g id="ytick_16">
     <g id="line2d_37">
      <g>
       <use style="stroke:#000000;stroke-width:0.6;" x="57.6" xlink:href="#mc562b42e49" y="174.901093"/>
      </g>
     </g>
    </g>
    <g id="ytick_17">
     <g id="line2d_38">
      <g>
       <use style="stroke:#000000;stroke-width:0.6;" x="57.6" xlink:href="#mc562b42e49" y="168.948169"/>
      </g>
     </g>
    </g>
    <g id="ytick_18">
     <g id="line2d_39">
      <g>
       <use style="stroke:#000000;stroke-width:0.6;" x="57.6" xlink:href="#mc562b42e49" y="163.791512"/>
      </g>
     </g>
    </g>
    <g id="ytick_19">
     <g id="line2d_40">
      <g>
       <use style="stroke:#000000;stroke-width:0.6;" x="57.6" xlink:href="#mc562b42e49" y="159.243018"/>
      </g>
     </g>
    </g>
    <g id="ytick_20">
     <g id="line2d_41">
      <g>
       <use style="stroke:#000000;stroke-width:0.6;" x="57.6" xlink:href="#mc562b42e49" y="128.406597"/>
      </g>
     </g>
    </g>
    <g id="ytick_21">
     <g id="line2d_42">
      <g>
       <use style="stroke:#000000;stroke-width:0.6;" x="57.6" xlink:href="#mc562b42e49" y="112.748522"/>
      </g>
     </g>
    </g>
    <g id="ytick_22">
     <g id="line2d_43">
      <g>
       <use style="stroke:#000000;stroke-width:0.6;" x="57.6" xlink:href="#mc562b42e49" y="101.638942"/>
      </g>
     </g>
    </g>
    <g id="ytick_23">
     <g id="line2d_44">
      <g>
       <use style="stroke:#000000;stroke-width:0.6;" x="57.6" xlink:href="#mc562b42e49" y="93.021682"/>
      </g>
     </g>
    </g>
    <g id="ytick_24">
     <g id="line2d_45">
      <g>
       <use style="stroke:#000000;stroke-width:0.6;" x="57.6" xlink:href="#mc562b42e49" y="85.980867"/>
      </g>
     </g>
    </g>
    <g id="ytick_25">
     <g id="line2d_46">
      <g>
       <use style="stroke:#000000;stroke-width:0.6;" x="57.6" xlink:href="#mc562b42e49" y="80.027944"/>
      </g>
     </g>
    </g>
    <g id="ytick_26">
     <g id="line2d_47">
      <g>
       <use style="stroke:#000000;stroke-width:0.6;" x="57.6" xlink:href="#mc562b42e49" y="74.871287"/>
      </g>
     </g>
    </g>
    <g id="ytick_27">
     <g id="line2d_48">
      <g>
       <use style="stroke:#000000;stroke-width:0.6;" x="57.6" xlink:href="#mc562b42e49" y="70.322793"/>
      </g>
     </g>
    </g>
    <g id="text_14">
     <!-- $\omega_i$ -->
     <defs>
      <path d="M 21.390625 -1.421875 
Q 1.125 -1.421875 6.78125 27.59375 
Q 8.984375 39.0625 19.625 54.6875 
L 29.296875 54.6875 
Q 19.234375 39.0625 17 27.34375 
Q 12.796875 6.203125 23.734375 6.203125 
Q 33.84375 6.203125 38.71875 32.46875 
L 47.015625 32.46875 
Q 41.703125 6.0625 51.8125 6.203125 
Q 62.703125 6.296875 66.796875 27.34375 
Q 69.046875 39.0625 65.140625 54.6875 
L 74.8125 54.6875 
Q 79.296875 39.0625 77.09375 27.59375 
Q 71.53125 -1.46875 51.21875 -1.421875 
Q 37.9375 -1.375 39.109375 13.1875 
Q 34.28125 -1.421875 21.390625 -1.421875 
" id="DejaVuSans-Oblique-3c9"/>
     </defs>
     <g transform="translate(21.020313 179.828)rotate(-90)scale(0.1 -0.1)">
      <use transform="translate(0 0.3125)" xlink:href="#DejaVuSans-Oblique-3c9"/>
      <use transform="translate(83.740234 -16.09375)scale(0.7)" xlink:href="#DejaVuSans-Oblique-69"/>
     </g>
    </g>
   </g>
   <g id="line2d_49">
    <defs>
     <path d="M 0 3 
C 0.795609 3 1.55874 2.683901 2.12132 2.12132 
C 2.683901 1.55874 3 0.795609 3 0 
C 3 -0.795609 2.683901 -1.55874 2.12132 -2.12132 
C 1.55874 -2.683901 0.795609 -3 0 -3 
C -0.795609 -3 -1.55874 -2.683901 -2.12132 -2.12132 
C -2.683901 -1.55874 -3 -0.795609 -3 0 
C -3 0.795609 -2.683901 1.55874 -2.12132 2.12132 
C -1.55874 2.683901 -0.795609 3 0 3 
z
" id="m1cc531b7eb" style="stroke:#1f77b4;"/>
    </defs>
    <g clip-path="url(#p6000793a7e)">
     <use style="fill:#1f77b4;stroke:#1f77b4;" x="148.954792" xlink:href="#m1cc531b7eb" y="171.772012"/>
     <use style="fill:#1f77b4;stroke:#1f77b4;" x="160.826161" xlink:href="#m1cc531b7eb" y="101.546415"/>
     <use style="fill:#1f77b4;stroke:#1f77b4;" x="155.206316" xlink:href="#m1cc531b7eb" y="120.08953"/>
     <use style="fill:#1f77b4;stroke:#1f77b4;" x="147.601659" xlink:href="#m1cc531b7eb" y="210.832725"/>
     <use style="fill:#1f77b4;stroke:#1f77b4;" x="318.683237" xlink:href="#m1cc531b7eb" y="127.755983"/>
     <use style="fill:#1f77b4;stroke:#1f77b4;" x="320.095701" xlink:href="#m1cc531b7eb" y="136.432458"/>
     <use style="fill:#1f77b4;stroke:#1f77b4;" x="147.177391" xlink:href="#m1cc531b7eb" y="242.026236"/>
     <use style="fill:#1f77b4;stroke:#1f77b4;" x="153.636763" xlink:href="#m1cc531b7eb" y="127.755983"/>
     <use style="fill:#1f77b4;stroke:#1f77b4;" x="325.397492" xlink:href="#m1cc531b7eb" y="295.488"/>
     <use style="fill:#1f77b4;stroke:#1f77b4;" x="325.142609" xlink:href="#m1cc531b7eb" y="242.026236"/>
     <use style="fill:#1f77b4;stroke:#1f77b4;" x="313.515561" xlink:href="#m1cc531b7eb" y="107.10331"/>
     <use style="fill:#1f77b4;stroke:#1f77b4;" x="324.125498" xlink:href="#m1cc531b7eb" y="188.785389"/>
     <use style="fill:#1f77b4;stroke:#1f77b4;" x="150.97161" xlink:href="#m1cc531b7eb" y="146.375497"/>
     <use style="fill:#1f77b4;stroke:#1f77b4;" x="158.804439" xlink:href="#m1cc531b7eb" y="107.10331"/>
     <use style="fill:#1f77b4;stroke:#1f77b4;" x="323.365208" xlink:href="#m1cc531b7eb" y="171.772012"/>
     <use style="fill:#1f77b4;stroke:#1f77b4;" x="311.493839" xlink:href="#m1cc531b7eb" y="101.546415"/>
     <use style="fill:#1f77b4;stroke:#1f77b4;" x="322.438917" xlink:href="#m1cc531b7eb" y="157.961015"/>
     <use style="fill:#1f77b4;stroke:#1f77b4;" x="146.922508" xlink:href="#m1cc531b7eb" y="295.488"/>
     <use style="fill:#1f77b4;stroke:#1f77b4;" x="165.29569" xlink:href="#m1cc531b7eb" y="91.90202"/>
     <use style="fill:#1f77b4;stroke:#1f77b4;" x="152.224299" xlink:href="#m1cc531b7eb" y="136.432458"/>
     <use style="fill:#1f77b4;stroke:#1f77b4;" x="315.390032" xlink:href="#m1cc531b7eb" y="113.250259"/>
     <use style="fill:#1f77b4;stroke:#1f77b4;" x="304.585011" xlink:href="#m1cc531b7eb" y="87.701363"/>
     <use style="fill:#1f77b4;stroke:#1f77b4;" x="156.929968" xlink:href="#m1cc531b7eb" y="113.250259"/>
     <use style="fill:#1f77b4;stroke:#1f77b4;" x="170.304539" xlink:href="#m1cc531b7eb" y="83.857191"/>
     <use style="fill:#1f77b4;stroke:#1f77b4;" x="167.734989" xlink:href="#m1cc531b7eb" y="87.701363"/>
     <use style="fill:#1f77b4;stroke:#1f77b4;" x="324.718341" xlink:href="#m1cc531b7eb" y="210.832725"/>
     <use style="fill:#1f77b4;stroke:#1f77b4;" x="302.015461" xlink:href="#m1cc531b7eb" y="83.857191"/>
     <use style="fill:#1f77b4;stroke:#1f77b4;" x="317.113684" xlink:href="#m1cc531b7eb" y="120.08953"/>
     <use style="fill:#1f77b4;stroke:#1f77b4;" x="255.492929" xlink:href="#m1cc531b7eb" y="55.420828"/>
     <use style="fill:#1f77b4;stroke:#1f77b4;" x="178.744599" xlink:href="#m1cc531b7eb" y="74.152327"/>
     <use style="fill:#1f77b4;stroke:#1f77b4;" x="259.278366" xlink:href="#m1cc531b7eb" y="56.245605"/>
     <use style="fill:#1f77b4;stroke:#1f77b4;" x="321.34839" xlink:href="#m1cc531b7eb" y="146.375497"/>
     <use style="fill:#1f77b4;stroke:#1f77b4;" x="299.320551" xlink:href="#m1cc531b7eb" y="80.335655"/>
     <use style="fill:#1f77b4;stroke:#1f77b4;" x="220.649309" xlink:href="#m1cc531b7eb" y="54.75038"/>
     <use style="fill:#1f77b4;stroke:#1f77b4;" x="172.999449" xlink:href="#m1cc531b7eb" y="80.335655"/>
     <use style="fill:#1f77b4;stroke:#1f77b4;" x="162.991285" xlink:href="#m1cc531b7eb" y="96.500232"/>
     <use style="fill:#1f77b4;stroke:#1f77b4;" x="307.02431" xlink:href="#m1cc531b7eb" y="91.90202"/>
     <use style="fill:#1f77b4;stroke:#1f77b4;" x="290.536097" xlink:href="#m1cc531b7eb" y="71.446895"/>
     <use style="fill:#1f77b4;stroke:#1f77b4;" x="309.328715" xlink:href="#m1cc531b7eb" y="96.500232"/>
     <use style="fill:#1f77b4;stroke:#1f77b4;" x="148.194502" xlink:href="#m1cc531b7eb" y="188.785389"/>
     <use style="fill:#1f77b4;stroke:#1f77b4;" x="184.926714" xlink:href="#m1cc531b7eb" y="68.975293"/>
     <use style="fill:#1f77b4;stroke:#1f77b4;" x="149.881083" xlink:href="#m1cc531b7eb" y="157.961015"/>
     <use style="fill:#1f77b4;stroke:#1f77b4;" x="296.505411" xlink:href="#m1cc531b7eb" y="77.108583"/>
     <use style="fill:#1f77b4;stroke:#1f77b4;" x="287.393286" xlink:href="#m1cc531b7eb" y="68.975293"/>
     <use style="fill:#1f77b4;stroke:#1f77b4;" x="236.16" xlink:href="#m1cc531b7eb" y="53.568"/>
     <use style="fill:#1f77b4;stroke:#1f77b4;" x="181.783903" xlink:href="#m1cc531b7eb" y="71.446895"/>
     <use style="fill:#1f77b4;stroke:#1f77b4;" x="188.167052" xlink:href="#m1cc531b7eb" y="66.723002"/>
     <use style="fill:#1f77b4;stroke:#1f77b4;" x="224.501073" xlink:href="#m1cc531b7eb" y="54.2316"/>
     <use style="fill:#1f77b4;stroke:#1f77b4;" x="280.821254" xlink:href="#m1cc531b7eb" y="64.677581"/>
     <use style="fill:#1f77b4;stroke:#1f77b4;" x="247.818927" xlink:href="#m1cc531b7eb" y="54.2316"/>
     <use style="fill:#1f77b4;stroke:#1f77b4;" x="191.498746" xlink:href="#m1cc531b7eb" y="64.677581"/>
     <use style="fill:#1f77b4;stroke:#1f77b4;" x="194.915456" xlink:href="#m1cc531b7eb" y="62.828344"/>
     <use style="fill:#1f77b4;stroke:#1f77b4;" x="209.300204" xlink:href="#m1cc531b7eb" y="57.228045"/>
     <use style="fill:#1f77b4;stroke:#1f77b4;" x="284.152948" xlink:href="#m1cc531b7eb" y="66.723002"/>
     <use style="fill:#1f77b4;stroke:#1f77b4;" x="277.404544" xlink:href="#m1cc531b7eb" y="62.828344"/>
     <use style="fill:#1f77b4;stroke:#1f77b4;" x="243.944969" xlink:href="#m1cc531b7eb" y="53.862464"/>
     <use style="fill:#1f77b4;stroke:#1f77b4;" x="198.410677" xlink:href="#m1cc531b7eb" y="61.166107"/>
     <use style="fill:#1f77b4;stroke:#1f77b4;" x="175.814589" xlink:href="#m1cc531b7eb" y="77.108583"/>
     <use style="fill:#1f77b4;stroke:#1f77b4;" x="240.056193" xlink:href="#m1cc531b7eb" y="53.641546"/>
     <use style="fill:#1f77b4;stroke:#1f77b4;" x="273.909323" xlink:href="#m1cc531b7eb" y="61.166107"/>
     <use style="fill:#1f77b4;stroke:#1f77b4;" x="293.575401" xlink:href="#m1cc531b7eb" y="74.152327"/>
     <use style="fill:#1f77b4;stroke:#1f77b4;" x="213.041634" xlink:href="#m1cc531b7eb" y="56.245605"/>
     <use style="fill:#1f77b4;stroke:#1f77b4;" x="201.977756" xlink:href="#m1cc531b7eb" y="59.682982"/>
     <use style="fill:#1f77b4;stroke:#1f77b4;" x="232.263807" xlink:href="#m1cc531b7eb" y="53.641546"/>
     <use style="fill:#1f77b4;stroke:#1f77b4;" x="270.342244" xlink:href="#m1cc531b7eb" y="59.682982"/>
     <use style="fill:#1f77b4;stroke:#1f77b4;" x="263.019796" xlink:href="#m1cc531b7eb" y="57.228045"/>
     <use style="fill:#1f77b4;stroke:#1f77b4;" x="228.375031" xlink:href="#m1cc531b7eb" y="53.862464"/>
     <use style="fill:#1f77b4;stroke:#1f77b4;" x="205.609903" xlink:href="#m1cc531b7eb" y="58.372215"/>
     <use style="fill:#1f77b4;stroke:#1f77b4;" x="216.827071" xlink:href="#m1cc531b7eb" y="55.420828"/>
     <use style="fill:#1f77b4;stroke:#1f77b4;" x="251.670691" xlink:href="#m1cc531b7eb" y="54.75038"/>
     <use style="fill:#1f77b4;stroke:#1f77b4;" x="266.710097" xlink:href="#m1cc531b7eb" y="58.372215"/>
    </g>
   </g>
   <g id="patch_3">
    <path d="M 57.6 307.584 
L 57.6 41.472 
" style="fill:none;stroke:#000000;stroke-linecap:square;stroke-linejoin:miter;stroke-width:0.8;"/>
   </g>
   <g id="patch_4">
    <path d="M 414.72 307.584 
L 414.72 41.472 
" style="fill:none;stroke:#000000;stroke-linecap:square;stroke-linejoin:miter;stroke-width:0.8;"/>
   </g>
   <g id="patch_5">
    <path d="M 57.6 307.584 
L 414.72 307.584 
" style="fill:none;stroke:#000000;stroke-linecap:square;stroke-linejoin:miter;stroke-width:0.8;"/>
   </g>
   <g id="patch_6">
    <path d="M 57.6 41.472 
L 414.72 41.472 
" style="fill:none;stroke:#000000;stroke-linecap:square;stroke-linejoin:miter;stroke-width:0.8;"/>
   </g>
  </g>
 </g>
 <defs>
  <clipPath id="p6000793a7e">
   <rect height="266.112" width="357.12" x="57.6" y="41.472"/>
  </clipPath>
 </defs>
</svg>
