<?xml version="1.0" encoding="utf-8" standalone="no"?>
<!DOCTYPE svg PUBLIC "-//W3C//DTD SVG 1.1//EN"
  "http://www.w3.org/Graphics/SVG/1.1/DTD/svg11.dtd">
<!-- Created with matplotlib (http://matplotlib.org/) -->
<svg height="345pt" version="1.1" viewBox="0 0 460 345" width="460pt" xmlns="http://www.w3.org/2000/svg" xmlns:xlink="http://www.w3.org/1999/xlink">
 <defs>
  <style type="text/css">
*{stroke-linecap:butt;stroke-linejoin:round;}
  </style>
 </defs>
 <g id="figure_1">
  <g id="patch_1">
   <path d="M 0 345.6 
L 460.8 345.6 
L 460.8 0 
L 0 0 
z
" style="fill:#ffffff;"/>
  </g>
  <g id="axes_1">
   <g id="patch_2">
    <path d="M 57.6 307.584 
L 414.72 307.584 
L 414.72 41.472 
L 57.6 41.472 
z
" style="fill:#ffffff;"/>
   </g>
   <g id="matplotlib.axis_1">
    <g id="xtick_1">
     <g id="line2d_1">
      <path clip-path="url(#p2c7daaeeca)" d="M 57.54905 307.584 
L 57.54905 41.472 
" style="fill:none;stroke:#b0b0b0;stroke-linecap:square;stroke-width:0.8;"/>
     </g>
     <g id="line2d_2">
      <defs>
       <path d="M 0 0 
L 0 3.5 
" id="me79588131a" style="stroke:#000000;stroke-width:0.8;"/>
      </defs>
      <g>
       <use style="stroke:#000000;stroke-width:0.8;" x="57.54905" xlink:href="#me79588131a" y="307.584"/>
      </g>
     </g>
     <g id="text_1">
      <!-- −2.0 -->
      <defs>
       <path d="M 10.59375 35.5 
L 73.1875 35.5 
L 73.1875 27.203125 
L 10.59375 27.203125 
z
" id="DejaVuSans-2212"/>
       <path d="M 19.1875 8.296875 
L 53.609375 8.296875 
L 53.609375 0 
L 7.328125 0 
L 7.328125 8.296875 
Q 12.9375 14.109375 22.625 23.890625 
Q 32.328125 33.6875 34.8125 36.53125 
Q 39.546875 41.84375 41.421875 45.53125 
Q 43.3125 49.21875 43.3125 52.78125 
Q 43.3125 58.59375 39.234375 62.25 
Q 35.15625 65.921875 28.609375 65.921875 
Q 23.96875 65.921875 18.8125 64.3125 
Q 13.671875 62.703125 7.8125 59.421875 
L 7.8125 69.390625 
Q 13.765625 71.78125 18.9375 73 
Q 24.125 74.21875 28.421875 74.21875 
Q 39.75 74.21875 46.484375 68.546875 
Q 53.21875 62.890625 53.21875 53.421875 
Q 53.21875 48.921875 51.53125 44.890625 
Q 49.859375 40.875 45.40625 35.40625 
Q 44.1875 33.984375 37.640625 27.21875 
Q 31.109375 20.453125 19.1875 8.296875 
" id="DejaVuSans-32"/>
       <path d="M 10.6875 12.40625 
L 21 12.40625 
L 21 0 
L 10.6875 0 
z
" id="DejaVuSans-2e"/>
       <path d="M 31.78125 66.40625 
Q 24.171875 66.40625 20.328125 58.90625 
Q 16.5 51.421875 16.5 36.375 
Q 16.5 21.390625 20.328125 13.890625 
Q 24.171875 6.390625 31.78125 6.390625 
Q 39.453125 6.390625 43.28125 13.890625 
Q 47.125 21.390625 47.125 36.375 
Q 47.125 51.421875 43.28125 58.90625 
Q 39.453125 66.40625 31.78125 66.40625 
M 31.78125 74.21875 
Q 44.046875 74.21875 50.515625 64.515625 
Q 56.984375 54.828125 56.984375 36.375 
Q 56.984375 17.96875 50.515625 8.265625 
Q 44.046875 -1.421875 31.78125 -1.421875 
Q 19.53125 -1.421875 13.0625 8.265625 
Q 6.59375 17.96875 6.59375 36.375 
Q 6.59375 54.828125 13.0625 64.515625 
Q 19.53125 74.21875 31.78125 74.21875 
" id="DejaVuSans-30"/>
      </defs>
      <g transform="translate(45.407644 322.182437)scale(0.1 -0.1)">
       <use xlink:href="#DejaVuSans-2212"/>
       <use x="83.789062" xlink:href="#DejaVuSans-32"/>
       <use x="147.412109" xlink:href="#DejaVuSans-2e"/>
       <use x="179.199219" xlink:href="#DejaVuSans-30"/>
      </g>
     </g>
    </g>
    <g id="xtick_2">
     <g id="line2d_3">
      <path clip-path="url(#p2c7daaeeca)" d="M 102.201788 307.584 
L 102.201788 41.472 
" style="fill:none;stroke:#b0b0b0;stroke-linecap:square;stroke-width:0.8;"/>
     </g>
     <g id="line2d_4">
      <g>
       <use style="stroke:#000000;stroke-width:0.8;" x="102.201788" xlink:href="#me79588131a" y="307.584"/>
      </g>
     </g>
     <g id="text_2">
      <!-- −1.5 -->
      <defs>
       <path d="M 12.40625 8.296875 
L 28.515625 8.296875 
L 28.515625 63.921875 
L 10.984375 60.40625 
L 10.984375 69.390625 
L 28.421875 72.90625 
L 38.28125 72.90625 
L 38.28125 8.296875 
L 54.390625 8.296875 
L 54.390625 0 
L 12.40625 0 
z
" id="DejaVuSans-31"/>
       <path d="M 10.796875 72.90625 
L 49.515625 72.90625 
L 49.515625 64.59375 
L 19.828125 64.59375 
L 19.828125 46.734375 
Q 21.96875 47.46875 24.109375 47.828125 
Q 26.265625 48.1875 28.421875 48.1875 
Q 40.625 48.1875 47.75 41.5 
Q 54.890625 34.8125 54.890625 23.390625 
Q 54.890625 11.625 47.5625 5.09375 
Q 40.234375 -1.421875 26.90625 -1.421875 
Q 22.3125 -1.421875 17.546875 -0.640625 
Q 12.796875 0.140625 7.71875 1.703125 
L 7.71875 11.625 
Q 12.109375 9.234375 16.796875 8.0625 
Q 21.484375 6.890625 26.703125 6.890625 
Q 35.15625 6.890625 40.078125 11.328125 
Q 45.015625 15.765625 45.015625 23.390625 
Q 45.015625 31 40.078125 35.4375 
Q 35.15625 39.890625 26.703125 39.890625 
Q 22.75 39.890625 18.8125 39.015625 
Q 14.890625 38.140625 10.796875 36.28125 
z
" id="DejaVuSans-35"/>
      </defs>
      <g transform="translate(90.060382 322.182437)scale(0.1 -0.1)">
       <use xlink:href="#DejaVuSans-2212"/>
       <use x="83.789062" xlink:href="#DejaVuSans-31"/>
       <use x="147.412109" xlink:href="#DejaVuSans-2e"/>
       <use x="179.199219" xlink:href="#DejaVuSans-35"/>
      </g>
     </g>
    </g>
    <g id="xtick_3">
     <g id="line2d_5">
      <path clip-path="url(#p2c7daaeeca)" d="M 146.854525 307.584 
L 146.854525 41.472 
" style="fill:none;stroke:#b0b0b0;stroke-linecap:square;stroke-width:0.8;"/>
     </g>
     <g id="line2d_6">
      <g>
       <use style="stroke:#000000;stroke-width:0.8;" x="146.854525" xlink:href="#me79588131a" y="307.584"/>
      </g>
     </g>
     <g id="text_3">
      <!-- −1.0 -->
      <g transform="translate(134.713119 322.182437)scale(0.1 -0.1)">
       <use xlink:href="#DejaVuSans-2212"/>
       <use x="83.789062" xlink:href="#DejaVuSans-31"/>
       <use x="147.412109" xlink:href="#DejaVuSans-2e"/>
       <use x="179.199219" xlink:href="#DejaVuSans-30"/>
      </g>
     </g>
    </g>
    <g id="xtick_4">
     <g id="line2d_7">
      <path clip-path="url(#p2c7daaeeca)" d="M 191.507263 307.584 
L 191.507263 41.472 
" style="fill:none;stroke:#b0b0b0;stroke-linecap:square;stroke-width:0.8;"/>
     </g>
     <g id="line2d_8">
      <g>
       <use style="stroke:#000000;stroke-width:0.8;" x="191.507263" xlink:href="#me79588131a" y="307.584"/>
      </g>
     </g>
     <g id="text_4">
      <!-- −0.5 -->
      <g transform="translate(179.365856 322.182437)scale(0.1 -0.1)">
       <use xlink:href="#DejaVuSans-2212"/>
       <use x="83.789062" xlink:href="#DejaVuSans-30"/>
       <use x="147.412109" xlink:href="#DejaVuSans-2e"/>
       <use x="179.199219" xlink:href="#DejaVuSans-35"/>
      </g>
     </g>
    </g>
    <g id="xtick_5">
     <g id="line2d_9">
      <path clip-path="url(#p2c7daaeeca)" d="M 236.16 307.584 
L 236.16 41.472 
" style="fill:none;stroke:#b0b0b0;stroke-linecap:square;stroke-width:0.8;"/>
     </g>
     <g id="line2d_10">
      <g>
       <use style="stroke:#000000;stroke-width:0.8;" x="236.16" xlink:href="#me79588131a" y="307.584"/>
      </g>
     </g>
     <g id="text_5">
      <!-- 0.0 -->
      <g transform="translate(228.208438 322.182437)scale(0.1 -0.1)">
       <use xlink:href="#DejaVuSans-30"/>
       <use x="63.623047" xlink:href="#DejaVuSans-2e"/>
       <use x="95.410156" xlink:href="#DejaVuSans-30"/>
      </g>
     </g>
    </g>
    <g id="xtick_6">
     <g id="line2d_11">
      <path clip-path="url(#p2c7daaeeca)" d="M 280.812737 307.584 
L 280.812737 41.472 
" style="fill:none;stroke:#b0b0b0;stroke-linecap:square;stroke-width:0.8;"/>
     </g>
     <g id="line2d_12">
      <g>
       <use style="stroke:#000000;stroke-width:0.8;" x="280.812737" xlink:href="#me79588131a" y="307.584"/>
      </g>
     </g>
     <g id="text_6">
      <!-- 0.5 -->
      <g transform="translate(272.861175 322.182437)scale(0.1 -0.1)">
       <use xlink:href="#DejaVuSans-30"/>
       <use x="63.623047" xlink:href="#DejaVuSans-2e"/>
       <use x="95.410156" xlink:href="#DejaVuSans-35"/>
      </g>
     </g>
    </g>
    <g id="xtick_7">
     <g id="line2d_13">
      <path clip-path="url(#p2c7daaeeca)" d="M 325.465475 307.584 
L 325.465475 41.472 
" style="fill:none;stroke:#b0b0b0;stroke-linecap:square;stroke-width:0.8;"/>
     </g>
     <g id="line2d_14">
      <g>
       <use style="stroke:#000000;stroke-width:0.8;" x="325.465475" xlink:href="#me79588131a" y="307.584"/>
      </g>
     </g>
     <g id="text_7">
      <!-- 1.0 -->
      <g transform="translate(317.513912 322.182437)scale(0.1 -0.1)">
       <use xlink:href="#DejaVuSans-31"/>
       <use x="63.623047" xlink:href="#DejaVuSans-2e"/>
       <use x="95.410156" xlink:href="#DejaVuSans-30"/>
      </g>
     </g>
    </g>
    <g id="xtick_8">
     <g id="line2d_15">
      <path clip-path="url(#p2c7daaeeca)" d="M 370.118212 307.584 
L 370.118212 41.472 
" style="fill:none;stroke:#b0b0b0;stroke-linecap:square;stroke-width:0.8;"/>
     </g>
     <g id="line2d_16">
      <g>
       <use style="stroke:#000000;stroke-width:0.8;" x="370.118212" xlink:href="#me79588131a" y="307.584"/>
      </g>
     </g>
     <g id="text_8">
      <!-- 1.5 -->
      <g transform="translate(362.16665 322.182437)scale(0.1 -0.1)">
       <use xlink:href="#DejaVuSans-31"/>
       <use x="63.623047" xlink:href="#DejaVuSans-2e"/>
       <use x="95.410156" xlink:href="#DejaVuSans-35"/>
      </g>
     </g>
    </g>
    <g id="xtick_9">
     <g id="line2d_17">
      <path clip-path="url(#p2c7daaeeca)" d="M 414.77095 307.584 
L 414.77095 41.472 
" style="fill:none;stroke:#b0b0b0;stroke-linecap:square;stroke-width:0.8;"/>
     </g>
     <g id="line2d_18">
      <g>
       <use style="stroke:#000000;stroke-width:0.8;" x="414.77095" xlink:href="#me79588131a" y="307.584"/>
      </g>
     </g>
     <g id="text_9">
      <!-- 2.0 -->
      <g transform="translate(406.819387 322.182437)scale(0.1 -0.1)">
       <use xlink:href="#DejaVuSans-32"/>
       <use x="63.623047" xlink:href="#DejaVuSans-2e"/>
       <use x="95.410156" xlink:href="#DejaVuSans-30"/>
      </g>
     </g>
    </g>
    <g id="text_10">
     <!-- $\gamma_i$ -->
     <defs>
      <path d="M 23.296875 46.09375 
L 28.71875 12.3125 
L 54 54.6875 
L 63.53125 54.6875 
L 30.8125 0 
L 26.765625 -20.796875 
L 17.78125 -20.796875 
L 21.828125 0 
L 15.4375 40.828125 
Q 14.453125 46.96875 9.8125 46.96875 
L 7.421875 46.96875 
L 8.890625 54.6875 
L 12.3125 54.6875 
Q 21.921875 54.6875 23.296875 46.09375 
" id="DejaVuSans-Oblique-3b3"/>
      <path d="M 18.3125 75.984375 
L 27.296875 75.984375 
L 25.09375 64.59375 
L 16.109375 64.59375 
z
M 14.203125 54.6875 
L 23.1875 54.6875 
L 12.5 0 
L 3.515625 0 
z
" id="DejaVuSans-Oblique-69"/>
     </defs>
     <g transform="translate(232.06 335.84025)scale(0.1 -0.1)">
      <use transform="translate(0 0.3125)" xlink:href="#DejaVuSans-Oblique-3b3"/>
      <use transform="translate(59.179688 -16.09375)scale(0.7)" xlink:href="#DejaVuSans-Oblique-69"/>
     </g>
    </g>
   </g>
   <g id="matplotlib.axis_2">
    <g id="ytick_1">
     <g id="line2d_19">
      <path clip-path="url(#p2c7daaeeca)" d="M 57.6 302.778852 
L 414.72 302.778852 
" style="fill:none;stroke:#b0b0b0;stroke-linecap:square;stroke-width:0.8;"/>
     </g>
     <g id="line2d_20">
      <defs>
       <path d="M 0 0 
L -3.5 0 
" id="m9d2b4aeee4" style="stroke:#000000;stroke-width:0.8;"/>
      </defs>
      <g>
       <use style="stroke:#000000;stroke-width:0.8;" x="57.6" xlink:href="#m9d2b4aeee4" y="302.778852"/>
      </g>
     </g>
     <g id="text_11">
      <!-- ${10^{-5}}$ -->
      <g transform="translate(27.1 306.578071)scale(0.1 -0.1)">
       <use transform="translate(0 0.684375)" xlink:href="#DejaVuSans-31"/>
       <use transform="translate(63.623047 0.684375)" xlink:href="#DejaVuSans-30"/>
       <use transform="translate(128.203125 38.965625)scale(0.7)" xlink:href="#DejaVuSans-2212"/>
       <use transform="translate(186.855469 38.965625)scale(0.7)" xlink:href="#DejaVuSans-35"/>
      </g>
     </g>
    </g>
    <g id="ytick_2">
     <g id="line2d_21">
      <path clip-path="url(#p2c7daaeeca)" d="M 57.6 220.568845 
L 414.72 220.568845 
" style="fill:none;stroke:#b0b0b0;stroke-linecap:square;stroke-width:0.8;"/>
     </g>
     <g id="line2d_22">
      <g>
       <use style="stroke:#000000;stroke-width:0.8;" x="57.6" xlink:href="#m9d2b4aeee4" y="220.568845"/>
      </g>
     </g>
     <g id="text_12">
      <!-- ${10^{-4}}$ -->
      <defs>
       <path d="M 37.796875 64.3125 
L 12.890625 25.390625 
L 37.796875 25.390625 
z
M 35.203125 72.90625 
L 47.609375 72.90625 
L 47.609375 25.390625 
L 58.015625 25.390625 
L 58.015625 17.1875 
L 47.609375 17.1875 
L 47.609375 0 
L 37.796875 0 
L 37.796875 17.1875 
L 4.890625 17.1875 
L 4.890625 26.703125 
z
" id="DejaVuSans-34"/>
      </defs>
      <g transform="translate(27.1 224.368064)scale(0.1 -0.1)">
       <use transform="translate(0 0.684375)" xlink:href="#DejaVuSans-31"/>
       <use transform="translate(63.623047 0.684375)" xlink:href="#DejaVuSans-30"/>
       <use transform="translate(128.203125 38.965625)scale(0.7)" xlink:href="#DejaVuSans-2212"/>
       <use transform="translate(186.855469 38.965625)scale(0.7)" xlink:href="#DejaVuSans-34"/>
      </g>
     </g>
    </g>
    <g id="ytick_3">
     <g id="line2d_23">
      <path clip-path="url(#p2c7daaeeca)" d="M 57.6 138.358838 
L 414.72 138.358838 
" style="fill:none;stroke:#b0b0b0;stroke-linecap:square;stroke-width:0.8;"/>
     </g>
     <g id="line2d_24">
      <g>
       <use style="stroke:#000000;stroke-width:0.8;" x="57.6" xlink:href="#m9d2b4aeee4" y="138.358838"/>
      </g>
     </g>
     <g id="text_13">
      <!-- ${10^{-3}}$ -->
      <defs>
       <path d="M 40.578125 39.3125 
Q 47.65625 37.796875 51.625 33 
Q 55.609375 28.21875 55.609375 21.1875 
Q 55.609375 10.40625 48.1875 4.484375 
Q 40.765625 -1.421875 27.09375 -1.421875 
Q 22.515625 -1.421875 17.65625 -0.515625 
Q 12.796875 0.390625 7.625 2.203125 
L 7.625 11.71875 
Q 11.71875 9.328125 16.59375 8.109375 
Q 21.484375 6.890625 26.8125 6.890625 
Q 36.078125 6.890625 40.9375 10.546875 
Q 45.796875 14.203125 45.796875 21.1875 
Q 45.796875 27.640625 41.28125 31.265625 
Q 36.765625 34.90625 28.71875 34.90625 
L 20.21875 34.90625 
L 20.21875 43.015625 
L 29.109375 43.015625 
Q 36.375 43.015625 40.234375 45.921875 
Q 44.09375 48.828125 44.09375 54.296875 
Q 44.09375 59.90625 40.109375 62.90625 
Q 36.140625 65.921875 28.71875 65.921875 
Q 24.65625 65.921875 20.015625 65.03125 
Q 15.375 64.15625 9.8125 62.3125 
L 9.8125 71.09375 
Q 15.4375 72.65625 20.34375 73.4375 
Q 25.25 74.21875 29.59375 74.21875 
Q 40.828125 74.21875 47.359375 69.109375 
Q 53.90625 64.015625 53.90625 55.328125 
Q 53.90625 49.265625 50.4375 45.09375 
Q 46.96875 40.921875 40.578125 39.3125 
" id="DejaVuSans-33"/>
      </defs>
      <g transform="translate(27.1 142.158057)scale(0.1 -0.1)">
       <use transform="translate(0 0.765625)" xlink:href="#DejaVuSans-31"/>
       <use transform="translate(63.623047 0.765625)" xlink:href="#DejaVuSans-30"/>
       <use transform="translate(128.203125 39.046875)scale(0.7)" xlink:href="#DejaVuSans-2212"/>
       <use transform="translate(186.855469 39.046875)scale(0.7)" xlink:href="#DejaVuSans-33"/>
      </g>
     </g>
    </g>
    <g id="ytick_4">
     <g id="line2d_25">
      <path clip-path="url(#p2c7daaeeca)" d="M 57.6 56.148831 
L 414.72 56.148831 
" style="fill:none;stroke:#b0b0b0;stroke-linecap:square;stroke-width:0.8;"/>
     </g>
     <g id="line2d_26">
      <g>
       <use style="stroke:#000000;stroke-width:0.8;" x="57.6" xlink:href="#m9d2b4aeee4" y="56.148831"/>
      </g>
     </g>
     <g id="text_14">
      <!-- ${10^{-2}}$ -->
      <g transform="translate(27.1 59.94805)scale(0.1 -0.1)">
       <use transform="translate(0 0.765625)" xlink:href="#DejaVuSans-31"/>
       <use transform="translate(63.623047 0.765625)" xlink:href="#DejaVuSans-30"/>
       <use transform="translate(128.203125 39.046875)scale(0.7)" xlink:href="#DejaVuSans-2212"/>
       <use transform="translate(186.855469 39.046875)scale(0.7)" xlink:href="#DejaVuSans-32"/>
      </g>
     </g>
    </g>
    <g id="ytick_5">
     <g id="line2d_27">
      <defs>
       <path d="M 0 0 
L -2 0 
" id="m84f5be8e09" style="stroke:#000000;stroke-width:0.6;"/>
      </defs>
      <g>
       <use style="stroke:#000000;stroke-width:0.6;" x="57.6" xlink:href="#m84f5be8e09" y="306.540576"/>
      </g>
     </g>
    </g>
    <g id="ytick_6">
     <g id="line2d_28">
      <g>
       <use style="stroke:#000000;stroke-width:0.6;" x="57.6" xlink:href="#m84f5be8e09" y="278.031174"/>
      </g>
     </g>
    </g>
    <g id="ytick_7">
     <g id="line2d_29">
      <g>
       <use style="stroke:#000000;stroke-width:0.6;" x="57.6" xlink:href="#m84f5be8e09" y="263.55471"/>
      </g>
     </g>
    </g>
    <g id="ytick_8">
     <g id="line2d_30">
      <g>
       <use style="stroke:#000000;stroke-width:0.6;" x="57.6" xlink:href="#m84f5be8e09" y="253.283496"/>
      </g>
     </g>
    </g>
    <g id="ytick_9">
     <g id="line2d_31">
      <g>
       <use style="stroke:#000000;stroke-width:0.6;" x="57.6" xlink:href="#m84f5be8e09" y="245.316523"/>
      </g>
     </g>
    </g>
    <g id="ytick_10">
     <g id="line2d_32">
      <g>
       <use style="stroke:#000000;stroke-width:0.6;" x="57.6" xlink:href="#m84f5be8e09" y="238.807032"/>
      </g>
     </g>
    </g>
    <g id="ytick_11">
     <g id="line2d_33">
      <g>
       <use style="stroke:#000000;stroke-width:0.6;" x="57.6" xlink:href="#m84f5be8e09" y="233.303336"/>
      </g>
     </g>
    </g>
    <g id="ytick_12">
     <g id="line2d_34">
      <g>
       <use style="stroke:#000000;stroke-width:0.6;" x="57.6" xlink:href="#m84f5be8e09" y="228.535818"/>
      </g>
     </g>
    </g>
    <g id="ytick_13">
     <g id="line2d_35">
      <g>
       <use style="stroke:#000000;stroke-width:0.6;" x="57.6" xlink:href="#m84f5be8e09" y="224.330569"/>
      </g>
     </g>
    </g>
    <g id="ytick_14">
     <g id="line2d_36">
      <g>
       <use style="stroke:#000000;stroke-width:0.6;" x="57.6" xlink:href="#m84f5be8e09" y="195.821167"/>
      </g>
     </g>
    </g>
    <g id="ytick_15">
     <g id="line2d_37">
      <g>
       <use style="stroke:#000000;stroke-width:0.6;" x="57.6" xlink:href="#m84f5be8e09" y="181.344703"/>
      </g>
     </g>
    </g>
    <g id="ytick_16">
     <g id="line2d_38">
      <g>
       <use style="stroke:#000000;stroke-width:0.6;" x="57.6" xlink:href="#m84f5be8e09" y="171.073489"/>
      </g>
     </g>
    </g>
    <g id="ytick_17">
     <g id="line2d_39">
      <g>
       <use style="stroke:#000000;stroke-width:0.6;" x="57.6" xlink:href="#m84f5be8e09" y="163.106516"/>
      </g>
     </g>
    </g>
    <g id="ytick_18">
     <g id="line2d_40">
      <g>
       <use style="stroke:#000000;stroke-width:0.6;" x="57.6" xlink:href="#m84f5be8e09" y="156.597025"/>
      </g>
     </g>
    </g>
    <g id="ytick_19">
     <g id="line2d_41">
      <g>
       <use style="stroke:#000000;stroke-width:0.6;" x="57.6" xlink:href="#m84f5be8e09" y="151.093329"/>
      </g>
     </g>
    </g>
    <g id="ytick_20">
     <g id="line2d_42">
      <g>
       <use style="stroke:#000000;stroke-width:0.6;" x="57.6" xlink:href="#m84f5be8e09" y="146.325811"/>
      </g>
     </g>
    </g>
    <g id="ytick_21">
     <g id="line2d_43">
      <g>
       <use style="stroke:#000000;stroke-width:0.6;" x="57.6" xlink:href="#m84f5be8e09" y="142.120562"/>
      </g>
     </g>
    </g>
    <g id="ytick_22">
     <g id="line2d_44">
      <g>
       <use style="stroke:#000000;stroke-width:0.6;" x="57.6" xlink:href="#m84f5be8e09" y="113.61116"/>
      </g>
     </g>
    </g>
    <g id="ytick_23">
     <g id="line2d_45">
      <g>
       <use style="stroke:#000000;stroke-width:0.6;" x="57.6" xlink:href="#m84f5be8e09" y="99.134696"/>
      </g>
     </g>
    </g>
    <g id="ytick_24">
     <g id="line2d_46">
      <g>
       <use style="stroke:#000000;stroke-width:0.6;" x="57.6" xlink:href="#m84f5be8e09" y="88.863482"/>
      </g>
     </g>
    </g>
    <g id="ytick_25">
     <g id="line2d_47">
      <g>
       <use style="stroke:#000000;stroke-width:0.6;" x="57.6" xlink:href="#m84f5be8e09" y="80.896509"/>
      </g>
     </g>
    </g>
    <g id="ytick_26">
     <g id="line2d_48">
      <g>
       <use style="stroke:#000000;stroke-width:0.6;" x="57.6" xlink:href="#m84f5be8e09" y="74.387018"/>
      </g>
     </g>
    </g>
    <g id="ytick_27">
     <g id="line2d_49">
      <g>
       <use style="stroke:#000000;stroke-width:0.6;" x="57.6" xlink:href="#m84f5be8e09" y="68.883322"/>
      </g>
     </g>
    </g>
    <g id="ytick_28">
     <g id="line2d_50">
      <g>
       <use style="stroke:#000000;stroke-width:0.6;" x="57.6" xlink:href="#m84f5be8e09" y="64.115804"/>
      </g>
     </g>
    </g>
    <g id="ytick_29">
     <g id="line2d_51">
      <g>
       <use style="stroke:#000000;stroke-width:0.6;" x="57.6" xlink:href="#m84f5be8e09" y="59.910555"/>
      </g>
     </g>
    </g>
    <g id="text_15">
     <!-- $\omega_i$ -->
     <defs>
      <path d="M 21.390625 -1.421875 
Q 1.125 -1.421875 6.78125 27.59375 
Q 8.984375 39.0625 19.625 54.6875 
L 29.296875 54.6875 
Q 19.234375 39.0625 17 27.34375 
Q 12.796875 6.203125 23.734375 6.203125 
Q 33.84375 6.203125 38.71875 32.46875 
L 47.015625 32.46875 
Q 41.703125 6.0625 51.8125 6.203125 
Q 62.703125 6.296875 66.796875 27.34375 
Q 69.046875 39.0625 65.140625 54.6875 
L 74.8125 54.6875 
Q 79.296875 39.0625 77.09375 27.59375 
Q 71.53125 -1.46875 51.21875 -1.421875 
Q 37.9375 -1.375 39.109375 13.1875 
Q 34.28125 -1.421875 21.390625 -1.421875 
" id="DejaVuSans-Oblique-3c9"/>
     </defs>
     <g transform="translate(21.020313 179.828)rotate(-90)scale(0.1 -0.1)">
      <use transform="translate(0 0.3125)" xlink:href="#DejaVuSans-Oblique-3c9"/>
      <use transform="translate(83.740234 -16.09375)scale(0.7)" xlink:href="#DejaVuSans-Oblique-69"/>
     </g>
    </g>
   </g>
   <g id="line2d_52">
    <defs>
     <path d="M 0 3 
C 0.795609 3 1.55874 2.683901 2.12132 2.12132 
C 2.683901 1.55874 3 0.795609 3 0 
C 3 -0.795609 2.683901 -1.55874 2.12132 -2.12132 
C 1.55874 -2.683901 0.795609 -3 0 -3 
C -0.795609 -3 -1.55874 -2.683901 -2.12132 -2.12132 
C -2.683901 -1.55874 -3 -0.795609 -3 0 
C -3 0.795609 -2.683901 1.55874 -2.12132 2.12132 
C -1.55874 2.683901 -0.795609 3 0 3 
z
" id="m8e03b16377" style="stroke:#1f77b4;"/>
    </defs>
    <g clip-path="url(#p2c7daaeeca)">
     <use style="fill:#1f77b4;stroke:#1f77b4;" x="147.058265" xlink:href="#m8e03b16377" y="246.033394"/>
     <use style="fill:#1f77b4;stroke:#1f77b4;" x="150.09581" xlink:href="#m8e03b16377" y="147.85964"/>
     <use style="fill:#1f77b4;stroke:#1f77b4;" x="152.949394" xlink:href="#m8e03b16377" y="125.899512"/>
     <use style="fill:#1f77b4;stroke:#1f77b4;" x="325.261735" xlink:href="#m8e03b16377" y="246.033394"/>
     <use style="fill:#1f77b4;stroke:#1f77b4;" x="319.370606" xlink:href="#m8e03b16377" y="125.899512"/>
     <use style="fill:#1f77b4;stroke:#1f77b4;" x="320.418303" xlink:href="#m8e03b16377" y="132.417677"/>
     <use style="fill:#1f77b4;stroke:#1f77b4;" x="146.905475" xlink:href="#m8e03b16377" y="295.488"/>
     <use style="fill:#1f77b4;stroke:#1f77b4;" x="154.092036" xlink:href="#m8e03b16377" y="120.001866"/>
     <use style="fill:#1f77b4;stroke:#1f77b4;" x="155.328319" xlink:href="#m8e03b16377" y="114.62991"/>
     <use style="fill:#1f77b4;stroke:#1f77b4;" x="324.19464" xlink:href="#m8e03b16377" y="180.889601"/>
     <use style="fill:#1f77b4;stroke:#1f77b4;" x="311.139919" xlink:href="#m8e03b16377" y="97.132879"/>
     <use style="fill:#1f77b4;stroke:#1f77b4;" x="315.663168" xlink:href="#m8e03b16377" y="109.709976"/>
     <use style="fill:#1f77b4;stroke:#1f77b4;" x="156.656832" xlink:href="#m8e03b16377" y="109.709976"/>
     <use style="fill:#1f77b4;stroke:#1f77b4;" x="158.07606" xlink:href="#m8e03b16377" y="105.183718"/>
     <use style="fill:#1f77b4;stroke:#1f77b4;" x="325.414525" xlink:href="#m8e03b16377" y="295.488"/>
     <use style="fill:#1f77b4;stroke:#1f77b4;" x="314.24394" xlink:href="#m8e03b16377" y="105.183718"/>
     <use style="fill:#1f77b4;stroke:#1f77b4;" x="318.227964" xlink:href="#m8e03b16377" y="120.001866"/>
     <use style="fill:#1f77b4;stroke:#1f77b4;" x="147.668556" xlink:href="#m8e03b16377" y="196.70113"/>
     <use style="fill:#1f77b4;stroke:#1f77b4;" x="166.472724" xlink:href="#m8e03b16377" y="87.076454"/>
     <use style="fill:#1f77b4;stroke:#1f77b4;" x="150.950141" xlink:href="#m8e03b16377" y="139.681297"/>
     <use style="fill:#1f77b4;stroke:#1f77b4;" x="316.991681" xlink:href="#m8e03b16377" y="114.62991"/>
     <use style="fill:#1f77b4;stroke:#1f77b4;" x="307.693783" xlink:href="#m8e03b16377" y="90.193498"/>
     <use style="fill:#1f77b4;stroke:#1f77b4;" x="322.22419" xlink:href="#m8e03b16377" y="147.85964"/>
     <use style="fill:#1f77b4;stroke:#1f77b4;" x="159.584383" xlink:href="#m8e03b16377" y="101.004146"/>
     <use style="fill:#1f77b4;stroke:#1f77b4;" x="164.626217" xlink:href="#m8e03b16377" y="90.193498"/>
     <use style="fill:#1f77b4;stroke:#1f77b4;" x="147.312723" xlink:href="#m8e03b16377" y="217.148403"/>
     <use style="fill:#1f77b4;stroke:#1f77b4;" x="301.917916" xlink:href="#m8e03b16377" y="81.451752"/>
     <use style="fill:#1f77b4;stroke:#1f77b4;" x="303.921254" xlink:href="#m8e03b16377" y="84.167985"/>
     <use style="fill:#1f77b4;stroke:#1f77b4;" x="148.682614" xlink:href="#m8e03b16377" y="168.020355"/>
     <use style="fill:#1f77b4;stroke:#1f77b4;" x="176.852716" xlink:href="#m8e03b16377" y="74.324473"/>
     <use style="fill:#1f77b4;stroke:#1f77b4;" x="321.369859" xlink:href="#m8e03b16377" y="139.681297"/>
     <use style="fill:#1f77b4;stroke:#1f77b4;" x="312.735617" xlink:href="#m8e03b16377" y="101.004146"/>
     <use style="fill:#1f77b4;stroke:#1f77b4;" x="297.688518" xlink:href="#m8e03b16377" y="76.541453"/>
     <use style="fill:#1f77b4;stroke:#1f77b4;" x="148.12536" xlink:href="#m8e03b16377" y="180.889601"/>
     <use style="fill:#1f77b4;stroke:#1f77b4;" x="170.402084" xlink:href="#m8e03b16377" y="81.451752"/>
     <use style="fill:#1f77b4;stroke:#1f77b4;" x="168.398746" xlink:href="#m8e03b16377" y="84.167985"/>
     <use style="fill:#1f77b4;stroke:#1f77b4;" x="149.33968" xlink:href="#m8e03b16377" y="157.190085"/>
     <use style="fill:#1f77b4;stroke:#1f77b4;" x="290.824415" xlink:href="#m8e03b16377" y="70.319886"/>
     <use style="fill:#1f77b4;stroke:#1f77b4;" x="309.458669" xlink:href="#m8e03b16377" y="93.538175"/>
     <use style="fill:#1f77b4;stroke:#1f77b4;" x="151.901697" xlink:href="#m8e03b16377" y="132.417677"/>
     <use style="fill:#1f77b4;stroke:#1f77b4;" x="183.911921" xlink:href="#m8e03b16377" y="68.516787"/>
     <use style="fill:#1f77b4;stroke:#1f77b4;" x="324.651444" xlink:href="#m8e03b16377" y="196.70113"/>
     <use style="fill:#1f77b4;stroke:#1f77b4;" x="305.847276" xlink:href="#m8e03b16377" y="87.076454"/>
     <use style="fill:#1f77b4;stroke:#1f77b4;" x="288.408079" xlink:href="#m8e03b16377" y="68.516787"/>
     <use style="fill:#1f77b4;stroke:#1f77b4;" x="323.637386" xlink:href="#m8e03b16377" y="168.020355"/>
     <use style="fill:#1f77b4;stroke:#1f77b4;" x="179.141621" xlink:href="#m8e03b16377" y="72.253361"/>
     <use style="fill:#1f77b4;stroke:#1f77b4;" x="172.480453" xlink:href="#m8e03b16377" y="78.913653"/>
     <use style="fill:#1f77b4;stroke:#1f77b4;" x="299.839547" xlink:href="#m8e03b16377" y="78.913653"/>
     <use style="fill:#1f77b4;stroke:#1f77b4;" x="280.812737" xlink:href="#m8e03b16377" y="63.829028"/>
     <use style="fill:#1f77b4;stroke:#1f77b4;" x="246.694181" xlink:href="#m8e03b16377" y="54.058071"/>
     <use style="fill:#1f77b4;stroke:#1f77b4;" x="162.861331" xlink:href="#m8e03b16377" y="93.538175"/>
     <use style="fill:#1f77b4;stroke:#1f77b4;" x="188.920618" xlink:href="#m8e03b16377" y="65.276739"/>
     <use style="fill:#1f77b4;stroke:#1f77b4;" x="237.668323" xlink:href="#m8e03b16377" y="53.568"/>
     <use style="fill:#1f77b4;stroke:#1f77b4;" x="295.467284" xlink:href="#m8e03b16377" y="74.324473"/>
     <use style="fill:#1f77b4;stroke:#1f77b4;" x="283.399382" xlink:href="#m8e03b16377" y="65.276739"/>
     <use style="fill:#1f77b4;stroke:#1f77b4;" x="186.387874" xlink:href="#m8e03b16377" y="66.837638"/>
     <use style="fill:#1f77b4;stroke:#1f77b4;" x="191.507263" xlink:href="#m8e03b16377" y="63.829028"/>
     <use style="fill:#1f77b4;stroke:#1f77b4;" x="181.495585" xlink:href="#m8e03b16377" y="70.319886"/>
     <use style="fill:#1f77b4;stroke:#1f77b4;" x="322.98032" xlink:href="#m8e03b16377" y="157.190085"/>
     <use style="fill:#1f77b4;stroke:#1f77b4;" x="272.759199" xlink:href="#m8e03b16377" y="60.122446"/>
     <use style="fill:#1f77b4;stroke:#1f77b4;" x="325.007277" xlink:href="#m8e03b16377" y="217.148403"/>
     <use style="fill:#1f77b4;stroke:#1f77b4;" x="174.631482" xlink:href="#m8e03b16377" y="76.541453"/>
     <use style="fill:#1f77b4;stroke:#1f77b4;" x="194.144857" xlink:href="#m8e03b16377" y="62.490004"/>
     <use style="fill:#1f77b4;stroke:#1f77b4;" x="216.708057" xlink:href="#m8e03b16377" y="55.293178"/>
     <use style="fill:#1f77b4;stroke:#1f77b4;" x="275.489609" xlink:href="#m8e03b16377" y="61.255664"/>
     <use style="fill:#1f77b4;stroke:#1f77b4;" x="278.175143" xlink:href="#m8e03b16377" y="62.490004"/>
     <use style="fill:#1f77b4;stroke:#1f77b4;" x="219.662952" xlink:href="#m8e03b16377" y="54.797417"/>
     <use style="fill:#1f77b4;stroke:#1f77b4;" x="202.332972" xlink:href="#m8e03b16377" y="59.087191"/>
     <use style="fill:#1f77b4;stroke:#1f77b4;" x="161.180081" xlink:href="#m8e03b16377" y="97.132879"/>
     <use style="fill:#1f77b4;stroke:#1f77b4;" x="285.932126" xlink:href="#m8e03b16377" y="66.837638"/>
     <use style="fill:#1f77b4;stroke:#1f77b4;" x="269.987028" xlink:href="#m8e03b16377" y="59.087191"/>
     <use style="fill:#1f77b4;stroke:#1f77b4;" x="293.178379" xlink:href="#m8e03b16377" y="72.253361"/>
     <use style="fill:#1f77b4;stroke:#1f77b4;" x="196.830391" xlink:href="#m8e03b16377" y="61.255664"/>
     <use style="fill:#1f77b4;stroke:#1f77b4;" x="199.560801" xlink:href="#m8e03b16377" y="60.122446"/>
     <use style="fill:#1f77b4;stroke:#1f77b4;" x="234.651677" xlink:href="#m8e03b16377" y="53.568"/>
     <use style="fill:#1f77b4;stroke:#1f77b4;" x="267.176261" xlink:href="#m8e03b16377" y="58.147096"/>
     <use style="fill:#1f77b4;stroke:#1f77b4;" x="258.544643" xlink:href="#m8e03b16377" y="55.874499"/>
     <use style="fill:#1f77b4;stroke:#1f77b4;" x="231.636752" xlink:href="#m8e03b16377" y="53.649523"/>
     <use style="fill:#1f77b4;stroke:#1f77b4;" x="207.989897" xlink:href="#m8e03b16377" y="57.299686"/>
     <use style="fill:#1f77b4;stroke:#1f77b4;" x="222.63667" xlink:href="#m8e03b16377" y="54.386038"/>
     <use style="fill:#1f77b4;stroke:#1f77b4;" x="255.611943" xlink:href="#m8e03b16377" y="55.293178"/>
     <use style="fill:#1f77b4;stroke:#1f77b4;" x="264.330103" xlink:href="#m8e03b16377" y="57.299686"/>
     <use style="fill:#1f77b4;stroke:#1f77b4;" x="243.693012" xlink:href="#m8e03b16377" y="53.812755"/>
     <use style="fill:#1f77b4;stroke:#1f77b4;" x="210.868198" xlink:href="#m8e03b16377" y="56.542787"/>
     <use style="fill:#1f77b4;stroke:#1f77b4;" x="205.143739" xlink:href="#m8e03b16377" y="58.147096"/>
     <use style="fill:#1f77b4;stroke:#1f77b4;" x="240.683248" xlink:href="#m8e03b16377" y="53.649523"/>
     <use style="fill:#1f77b4;stroke:#1f77b4;" x="261.451802" xlink:href="#m8e03b16377" y="56.542787"/>
     <use style="fill:#1f77b4;stroke:#1f77b4;" x="252.657048" xlink:href="#m8e03b16377" y="54.797417"/>
     <use style="fill:#1f77b4;stroke:#1f77b4;" x="225.625819" xlink:href="#m8e03b16377" y="54.058071"/>
     <use style="fill:#1f77b4;stroke:#1f77b4;" x="213.775357" xlink:href="#m8e03b16377" y="55.874499"/>
     <use style="fill:#1f77b4;stroke:#1f77b4;" x="228.626988" xlink:href="#m8e03b16377" y="53.812755"/>
     <use style="fill:#1f77b4;stroke:#1f77b4;" x="249.68333" xlink:href="#m8e03b16377" y="54.386038"/>
    </g>
   </g>
   <g id="patch_3">
    <path d="M 57.6 307.584 
L 57.6 41.472 
" style="fill:none;stroke:#000000;stroke-linecap:square;stroke-linejoin:miter;stroke-width:0.8;"/>
   </g>
   <g id="patch_4">
    <path d="M 414.72 307.584 
L 414.72 41.472 
" style="fill:none;stroke:#000000;stroke-linecap:square;stroke-linejoin:miter;stroke-width:0.8;"/>
   </g>
   <g id="patch_5">
    <path d="M 57.6 307.584 
L 414.72 307.584 
" style="fill:none;stroke:#000000;stroke-linecap:square;stroke-linejoin:miter;stroke-width:0.8;"/>
   </g>
   <g id="patch_6">
    <path d="M 57.6 41.472 
L 414.72 41.472 
" style="fill:none;stroke:#000000;stroke-linecap:square;stroke-linejoin:miter;stroke-width:0.8;"/>
   </g>
  </g>
 </g>
 <defs>
  <clipPath id="p2c7daaeeca">
   <rect height="266.112" width="357.12" x="57.6" y="41.472"/>
  </clipPath>
 </defs>
</svg>
