<?xml version="1.0" encoding="utf-8" standalone="no"?>
<!DOCTYPE svg PUBLIC "-//W3C//DTD SVG 1.1//EN"
  "http://www.w3.org/Graphics/SVG/1.1/DTD/svg11.dtd">
<!-- Created with matplotlib (http://matplotlib.org/) -->
<svg height="345pt" version="1.1" viewBox="0 0 460 345" width="460pt" xmlns="http://www.w3.org/2000/svg" xmlns:xlink="http://www.w3.org/1999/xlink">
 <defs>
  <style type="text/css">
*{stroke-linecap:butt;stroke-linejoin:round;}
  </style>
 </defs>
 <g id="figure_1">
  <g id="patch_1">
   <path d="M 0 345.6 
L 460.8 345.6 
L 460.8 0 
L 0 0 
z
" style="fill:#ffffff;"/>
  </g>
  <g id="axes_1">
   <g id="patch_2">
    <path d="M 57.6 307.584 
L 414.72 307.584 
L 414.72 41.472 
L 57.6 41.472 
z
" style="fill:#ffffff;"/>
   </g>
   <g id="matplotlib.axis_1">
    <g id="xtick_1">
     <g id="line2d_1">
      <path clip-path="url(#p2ec8fcf600)" d="M 57.585776 307.584 
L 57.585776 41.472 
" style="fill:none;stroke:#b0b0b0;stroke-linecap:square;stroke-width:0.8;"/>
     </g>
     <g id="line2d_2">
      <defs>
       <path d="M 0 0 
L 0 3.5 
" id="ma9564b468c" style="stroke:#000000;stroke-width:0.8;"/>
      </defs>
      <g>
       <use style="stroke:#000000;stroke-width:0.8;" x="57.585776" xlink:href="#ma9564b468c" y="307.584"/>
      </g>
     </g>
     <g id="text_1">
      <!-- −2.0 -->
      <defs>
       <path d="M 10.59375 35.5 
L 73.1875 35.5 
L 73.1875 27.203125 
L 10.59375 27.203125 
z
" id="DejaVuSans-2212"/>
       <path d="M 19.1875 8.296875 
L 53.609375 8.296875 
L 53.609375 0 
L 7.328125 0 
L 7.328125 8.296875 
Q 12.9375 14.109375 22.625 23.890625 
Q 32.328125 33.6875 34.8125 36.53125 
Q 39.546875 41.84375 41.421875 45.53125 
Q 43.3125 49.21875 43.3125 52.78125 
Q 43.3125 58.59375 39.234375 62.25 
Q 35.15625 65.921875 28.609375 65.921875 
Q 23.96875 65.921875 18.8125 64.3125 
Q 13.671875 62.703125 7.8125 59.421875 
L 7.8125 69.390625 
Q 13.765625 71.78125 18.9375 73 
Q 24.125 74.21875 28.421875 74.21875 
Q 39.75 74.21875 46.484375 68.546875 
Q 53.21875 62.890625 53.21875 53.421875 
Q 53.21875 48.921875 51.53125 44.890625 
Q 49.859375 40.875 45.40625 35.40625 
Q 44.1875 33.984375 37.640625 27.21875 
Q 31.109375 20.453125 19.1875 8.296875 
" id="DejaVuSans-32"/>
       <path d="M 10.6875 12.40625 
L 21 12.40625 
L 21 0 
L 10.6875 0 
z
" id="DejaVuSans-2e"/>
       <path d="M 31.78125 66.40625 
Q 24.171875 66.40625 20.328125 58.90625 
Q 16.5 51.421875 16.5 36.375 
Q 16.5 21.390625 20.328125 13.890625 
Q 24.171875 6.390625 31.78125 6.390625 
Q 39.453125 6.390625 43.28125 13.890625 
Q 47.125 21.390625 47.125 36.375 
Q 47.125 51.421875 43.28125 58.90625 
Q 39.453125 66.40625 31.78125 66.40625 
M 31.78125 74.21875 
Q 44.046875 74.21875 50.515625 64.515625 
Q 56.984375 54.828125 56.984375 36.375 
Q 56.984375 17.96875 50.515625 8.265625 
Q 44.046875 -1.421875 31.78125 -1.421875 
Q 19.53125 -1.421875 13.0625 8.265625 
Q 6.59375 17.96875 6.59375 36.375 
Q 6.59375 54.828125 13.0625 64.515625 
Q 19.53125 74.21875 31.78125 74.21875 
" id="DejaVuSans-30"/>
      </defs>
      <g transform="translate(45.44437 322.182437)scale(0.1 -0.1)">
       <use xlink:href="#DejaVuSans-2212"/>
       <use x="83.789062" xlink:href="#DejaVuSans-32"/>
       <use x="147.412109" xlink:href="#DejaVuSans-2e"/>
       <use x="179.199219" xlink:href="#DejaVuSans-30"/>
      </g>
     </g>
    </g>
    <g id="xtick_2">
     <g id="line2d_3">
      <path clip-path="url(#p2ec8fcf600)" d="M 102.229332 307.584 
L 102.229332 41.472 
" style="fill:none;stroke:#b0b0b0;stroke-linecap:square;stroke-width:0.8;"/>
     </g>
     <g id="line2d_4">
      <g>
       <use style="stroke:#000000;stroke-width:0.8;" x="102.229332" xlink:href="#ma9564b468c" y="307.584"/>
      </g>
     </g>
     <g id="text_2">
      <!-- −1.5 -->
      <defs>
       <path d="M 12.40625 8.296875 
L 28.515625 8.296875 
L 28.515625 63.921875 
L 10.984375 60.40625 
L 10.984375 69.390625 
L 28.421875 72.90625 
L 38.28125 72.90625 
L 38.28125 8.296875 
L 54.390625 8.296875 
L 54.390625 0 
L 12.40625 0 
z
" id="DejaVuSans-31"/>
       <path d="M 10.796875 72.90625 
L 49.515625 72.90625 
L 49.515625 64.59375 
L 19.828125 64.59375 
L 19.828125 46.734375 
Q 21.96875 47.46875 24.109375 47.828125 
Q 26.265625 48.1875 28.421875 48.1875 
Q 40.625 48.1875 47.75 41.5 
Q 54.890625 34.8125 54.890625 23.390625 
Q 54.890625 11.625 47.5625 5.09375 
Q 40.234375 -1.421875 26.90625 -1.421875 
Q 22.3125 -1.421875 17.546875 -0.640625 
Q 12.796875 0.140625 7.71875 1.703125 
L 7.71875 11.625 
Q 12.109375 9.234375 16.796875 8.0625 
Q 21.484375 6.890625 26.703125 6.890625 
Q 35.15625 6.890625 40.078125 11.328125 
Q 45.015625 15.765625 45.015625 23.390625 
Q 45.015625 31 40.078125 35.4375 
Q 35.15625 39.890625 26.703125 39.890625 
Q 22.75 39.890625 18.8125 39.015625 
Q 14.890625 38.140625 10.796875 36.28125 
z
" id="DejaVuSans-35"/>
      </defs>
      <g transform="translate(90.087926 322.182437)scale(0.1 -0.1)">
       <use xlink:href="#DejaVuSans-2212"/>
       <use x="83.789062" xlink:href="#DejaVuSans-31"/>
       <use x="147.412109" xlink:href="#DejaVuSans-2e"/>
       <use x="179.199219" xlink:href="#DejaVuSans-35"/>
      </g>
     </g>
    </g>
    <g id="xtick_3">
     <g id="line2d_5">
      <path clip-path="url(#p2ec8fcf600)" d="M 146.872888 307.584 
L 146.872888 41.472 
" style="fill:none;stroke:#b0b0b0;stroke-linecap:square;stroke-width:0.8;"/>
     </g>
     <g id="line2d_6">
      <g>
       <use style="stroke:#000000;stroke-width:0.8;" x="146.872888" xlink:href="#ma9564b468c" y="307.584"/>
      </g>
     </g>
     <g id="text_3">
      <!-- −1.0 -->
      <g transform="translate(134.731482 322.182437)scale(0.1 -0.1)">
       <use xlink:href="#DejaVuSans-2212"/>
       <use x="83.789062" xlink:href="#DejaVuSans-31"/>
       <use x="147.412109" xlink:href="#DejaVuSans-2e"/>
       <use x="179.199219" xlink:href="#DejaVuSans-30"/>
      </g>
     </g>
    </g>
    <g id="xtick_4">
     <g id="line2d_7">
      <path clip-path="url(#p2ec8fcf600)" d="M 191.516444 307.584 
L 191.516444 41.472 
" style="fill:none;stroke:#b0b0b0;stroke-linecap:square;stroke-width:0.8;"/>
     </g>
     <g id="line2d_8">
      <g>
       <use style="stroke:#000000;stroke-width:0.8;" x="191.516444" xlink:href="#ma9564b468c" y="307.584"/>
      </g>
     </g>
     <g id="text_4">
      <!-- −0.5 -->
      <g transform="translate(179.375038 322.182437)scale(0.1 -0.1)">
       <use xlink:href="#DejaVuSans-2212"/>
       <use x="83.789062" xlink:href="#DejaVuSans-30"/>
       <use x="147.412109" xlink:href="#DejaVuSans-2e"/>
       <use x="179.199219" xlink:href="#DejaVuSans-35"/>
      </g>
     </g>
    </g>
    <g id="xtick_5">
     <g id="line2d_9">
      <path clip-path="url(#p2ec8fcf600)" d="M 236.16 307.584 
L 236.16 41.472 
" style="fill:none;stroke:#b0b0b0;stroke-linecap:square;stroke-width:0.8;"/>
     </g>
     <g id="line2d_10">
      <g>
       <use style="stroke:#000000;stroke-width:0.8;" x="236.16" xlink:href="#ma9564b468c" y="307.584"/>
      </g>
     </g>
     <g id="text_5">
      <!-- 0.0 -->
      <g transform="translate(228.208437 322.182437)scale(0.1 -0.1)">
       <use xlink:href="#DejaVuSans-30"/>
       <use x="63.623047" xlink:href="#DejaVuSans-2e"/>
       <use x="95.410156" xlink:href="#DejaVuSans-30"/>
      </g>
     </g>
    </g>
    <g id="xtick_6">
     <g id="line2d_11">
      <path clip-path="url(#p2ec8fcf600)" d="M 280.803556 307.584 
L 280.803556 41.472 
" style="fill:none;stroke:#b0b0b0;stroke-linecap:square;stroke-width:0.8;"/>
     </g>
     <g id="line2d_12">
      <g>
       <use style="stroke:#000000;stroke-width:0.8;" x="280.803556" xlink:href="#ma9564b468c" y="307.584"/>
      </g>
     </g>
     <g id="text_6">
      <!-- 0.5 -->
      <g transform="translate(272.851993 322.182437)scale(0.1 -0.1)">
       <use xlink:href="#DejaVuSans-30"/>
       <use x="63.623047" xlink:href="#DejaVuSans-2e"/>
       <use x="95.410156" xlink:href="#DejaVuSans-35"/>
      </g>
     </g>
    </g>
    <g id="xtick_7">
     <g id="line2d_13">
      <path clip-path="url(#p2ec8fcf600)" d="M 325.447112 307.584 
L 325.447112 41.472 
" style="fill:none;stroke:#b0b0b0;stroke-linecap:square;stroke-width:0.8;"/>
     </g>
     <g id="line2d_14">
      <g>
       <use style="stroke:#000000;stroke-width:0.8;" x="325.447112" xlink:href="#ma9564b468c" y="307.584"/>
      </g>
     </g>
     <g id="text_7">
      <!-- 1.0 -->
      <g transform="translate(317.495549 322.182437)scale(0.1 -0.1)">
       <use xlink:href="#DejaVuSans-31"/>
       <use x="63.623047" xlink:href="#DejaVuSans-2e"/>
       <use x="95.410156" xlink:href="#DejaVuSans-30"/>
      </g>
     </g>
    </g>
    <g id="xtick_8">
     <g id="line2d_15">
      <path clip-path="url(#p2ec8fcf600)" d="M 370.090668 307.584 
L 370.090668 41.472 
" style="fill:none;stroke:#b0b0b0;stroke-linecap:square;stroke-width:0.8;"/>
     </g>
     <g id="line2d_16">
      <g>
       <use style="stroke:#000000;stroke-width:0.8;" x="370.090668" xlink:href="#ma9564b468c" y="307.584"/>
      </g>
     </g>
     <g id="text_8">
      <!-- 1.5 -->
      <g transform="translate(362.139105 322.182437)scale(0.1 -0.1)">
       <use xlink:href="#DejaVuSans-31"/>
       <use x="63.623047" xlink:href="#DejaVuSans-2e"/>
       <use x="95.410156" xlink:href="#DejaVuSans-35"/>
      </g>
     </g>
    </g>
    <g id="xtick_9">
     <g id="line2d_17">
      <path clip-path="url(#p2ec8fcf600)" d="M 414.734224 307.584 
L 414.734224 41.472 
" style="fill:none;stroke:#b0b0b0;stroke-linecap:square;stroke-width:0.8;"/>
     </g>
     <g id="line2d_18">
      <g>
       <use style="stroke:#000000;stroke-width:0.8;" x="414.734224" xlink:href="#ma9564b468c" y="307.584"/>
      </g>
     </g>
     <g id="text_9">
      <!-- 2.0 -->
      <g transform="translate(406.782661 322.182437)scale(0.1 -0.1)">
       <use xlink:href="#DejaVuSans-32"/>
       <use x="63.623047" xlink:href="#DejaVuSans-2e"/>
       <use x="95.410156" xlink:href="#DejaVuSans-30"/>
      </g>
     </g>
    </g>
    <g id="text_10">
     <!-- $\gamma_i$ -->
     <defs>
      <path d="M 23.296875 46.09375 
L 28.71875 12.3125 
L 54 54.6875 
L 63.53125 54.6875 
L 30.8125 0 
L 26.765625 -20.796875 
L 17.78125 -20.796875 
L 21.828125 0 
L 15.4375 40.828125 
Q 14.453125 46.96875 9.8125 46.96875 
L 7.421875 46.96875 
L 8.890625 54.6875 
L 12.3125 54.6875 
Q 21.921875 54.6875 23.296875 46.09375 
" id="DejaVuSans-Oblique-3b3"/>
      <path d="M 18.3125 75.984375 
L 27.296875 75.984375 
L 25.09375 64.59375 
L 16.109375 64.59375 
z
M 14.203125 54.6875 
L 23.1875 54.6875 
L 12.5 0 
L 3.515625 0 
z
" id="DejaVuSans-Oblique-69"/>
     </defs>
     <g transform="translate(232.06 335.84025)scale(0.1 -0.1)">
      <use transform="translate(0 0.3125)" xlink:href="#DejaVuSans-Oblique-3b3"/>
      <use transform="translate(59.179688 -16.09375)scale(0.7)" xlink:href="#DejaVuSans-Oblique-69"/>
     </g>
    </g>
   </g>
   <g id="matplotlib.axis_2">
    <g id="ytick_1">
     <g id="line2d_19">
      <path clip-path="url(#p2ec8fcf600)" d="M 57.6 244.133936 
L 414.72 244.133936 
" style="fill:none;stroke:#b0b0b0;stroke-linecap:square;stroke-width:0.8;"/>
     </g>
     <g id="line2d_20">
      <defs>
       <path d="M 0 0 
L -3.5 0 
" id="m43a224c7a2" style="stroke:#000000;stroke-width:0.8;"/>
      </defs>
      <g>
       <use style="stroke:#000000;stroke-width:0.8;" x="57.6" xlink:href="#m43a224c7a2" y="244.133936"/>
      </g>
     </g>
     <g id="text_11">
      <!-- ${10^{-5}}$ -->
      <g transform="translate(27.1 247.933155)scale(0.1 -0.1)">
       <use transform="translate(0 0.684375)" xlink:href="#DejaVuSans-31"/>
       <use transform="translate(63.623047 0.684375)" xlink:href="#DejaVuSans-30"/>
       <use transform="translate(128.203125 38.965625)scale(0.7)" xlink:href="#DejaVuSans-2212"/>
       <use transform="translate(186.855469 38.965625)scale(0.7)" xlink:href="#DejaVuSans-35"/>
      </g>
     </g>
    </g>
    <g id="ytick_2">
     <g id="line2d_21">
      <path clip-path="url(#p2ec8fcf600)" d="M 57.6 174.950123 
L 414.72 174.950123 
" style="fill:none;stroke:#b0b0b0;stroke-linecap:square;stroke-width:0.8;"/>
     </g>
     <g id="line2d_22">
      <g>
       <use style="stroke:#000000;stroke-width:0.8;" x="57.6" xlink:href="#m43a224c7a2" y="174.950123"/>
      </g>
     </g>
     <g id="text_12">
      <!-- ${10^{-4}}$ -->
      <defs>
       <path d="M 37.796875 64.3125 
L 12.890625 25.390625 
L 37.796875 25.390625 
z
M 35.203125 72.90625 
L 47.609375 72.90625 
L 47.609375 25.390625 
L 58.015625 25.390625 
L 58.015625 17.1875 
L 47.609375 17.1875 
L 47.609375 0 
L 37.796875 0 
L 37.796875 17.1875 
L 4.890625 17.1875 
L 4.890625 26.703125 
z
" id="DejaVuSans-34"/>
      </defs>
      <g transform="translate(27.1 178.749342)scale(0.1 -0.1)">
       <use transform="translate(0 0.684375)" xlink:href="#DejaVuSans-31"/>
       <use transform="translate(63.623047 0.684375)" xlink:href="#DejaVuSans-30"/>
       <use transform="translate(128.203125 38.965625)scale(0.7)" xlink:href="#DejaVuSans-2212"/>
       <use transform="translate(186.855469 38.965625)scale(0.7)" xlink:href="#DejaVuSans-34"/>
      </g>
     </g>
    </g>
    <g id="ytick_3">
     <g id="line2d_23">
      <path clip-path="url(#p2ec8fcf600)" d="M 57.6 105.76631 
L 414.72 105.76631 
" style="fill:none;stroke:#b0b0b0;stroke-linecap:square;stroke-width:0.8;"/>
     </g>
     <g id="line2d_24">
      <g>
       <use style="stroke:#000000;stroke-width:0.8;" x="57.6" xlink:href="#m43a224c7a2" y="105.76631"/>
      </g>
     </g>
     <g id="text_13">
      <!-- ${10^{-3}}$ -->
      <defs>
       <path d="M 40.578125 39.3125 
Q 47.65625 37.796875 51.625 33 
Q 55.609375 28.21875 55.609375 21.1875 
Q 55.609375 10.40625 48.1875 4.484375 
Q 40.765625 -1.421875 27.09375 -1.421875 
Q 22.515625 -1.421875 17.65625 -0.515625 
Q 12.796875 0.390625 7.625 2.203125 
L 7.625 11.71875 
Q 11.71875 9.328125 16.59375 8.109375 
Q 21.484375 6.890625 26.8125 6.890625 
Q 36.078125 6.890625 40.9375 10.546875 
Q 45.796875 14.203125 45.796875 21.1875 
Q 45.796875 27.640625 41.28125 31.265625 
Q 36.765625 34.90625 28.71875 34.90625 
L 20.21875 34.90625 
L 20.21875 43.015625 
L 29.109375 43.015625 
Q 36.375 43.015625 40.234375 45.921875 
Q 44.09375 48.828125 44.09375 54.296875 
Q 44.09375 59.90625 40.109375 62.90625 
Q 36.140625 65.921875 28.71875 65.921875 
Q 24.65625 65.921875 20.015625 65.03125 
Q 15.375 64.15625 9.8125 62.3125 
L 9.8125 71.09375 
Q 15.4375 72.65625 20.34375 73.4375 
Q 25.25 74.21875 29.59375 74.21875 
Q 40.828125 74.21875 47.359375 69.109375 
Q 53.90625 64.015625 53.90625 55.328125 
Q 53.90625 49.265625 50.4375 45.09375 
Q 46.96875 40.921875 40.578125 39.3125 
" id="DejaVuSans-33"/>
      </defs>
      <g transform="translate(27.1 109.565529)scale(0.1 -0.1)">
       <use transform="translate(0 0.765625)" xlink:href="#DejaVuSans-31"/>
       <use transform="translate(63.623047 0.765625)" xlink:href="#DejaVuSans-30"/>
       <use transform="translate(128.203125 39.046875)scale(0.7)" xlink:href="#DejaVuSans-2212"/>
       <use transform="translate(186.855469 39.046875)scale(0.7)" xlink:href="#DejaVuSans-33"/>
      </g>
     </g>
    </g>
    <g id="ytick_4">
     <g id="line2d_25">
      <defs>
       <path d="M 0 0 
L -2 0 
" id="mf43dd0443f" style="stroke:#000000;stroke-width:0.6;"/>
      </defs>
      <g>
       <use style="stroke:#000000;stroke-width:0.6;" x="57.6" xlink:href="#mf43dd0443f" y="292.491346"/>
      </g>
     </g>
    </g>
    <g id="ytick_5">
     <g id="line2d_26">
      <g>
       <use style="stroke:#000000;stroke-width:0.6;" x="57.6" xlink:href="#mf43dd0443f" y="280.308681"/>
      </g>
     </g>
    </g>
    <g id="ytick_6">
     <g id="line2d_27">
      <g>
       <use style="stroke:#000000;stroke-width:0.6;" x="57.6" xlink:href="#mf43dd0443f" y="271.664943"/>
      </g>
     </g>
    </g>
    <g id="ytick_7">
     <g id="line2d_28">
      <g>
       <use style="stroke:#000000;stroke-width:0.6;" x="57.6" xlink:href="#mf43dd0443f" y="264.960339"/>
      </g>
     </g>
    </g>
    <g id="ytick_8">
     <g id="line2d_29">
      <g>
       <use style="stroke:#000000;stroke-width:0.6;" x="57.6" xlink:href="#mf43dd0443f" y="259.482278"/>
      </g>
     </g>
    </g>
    <g id="ytick_9">
     <g id="line2d_30">
      <g>
       <use style="stroke:#000000;stroke-width:0.6;" x="57.6" xlink:href="#mf43dd0443f" y="254.850644"/>
      </g>
     </g>
    </g>
    <g id="ytick_10">
     <g id="line2d_31">
      <g>
       <use style="stroke:#000000;stroke-width:0.6;" x="57.6" xlink:href="#mf43dd0443f" y="250.83854"/>
      </g>
     </g>
    </g>
    <g id="ytick_11">
     <g id="line2d_32">
      <g>
       <use style="stroke:#000000;stroke-width:0.6;" x="57.6" xlink:href="#mf43dd0443f" y="247.299614"/>
      </g>
     </g>
    </g>
    <g id="ytick_12">
     <g id="line2d_33">
      <g>
       <use style="stroke:#000000;stroke-width:0.6;" x="57.6" xlink:href="#mf43dd0443f" y="223.307533"/>
      </g>
     </g>
    </g>
    <g id="ytick_13">
     <g id="line2d_34">
      <g>
       <use style="stroke:#000000;stroke-width:0.6;" x="57.6" xlink:href="#mf43dd0443f" y="211.124869"/>
      </g>
     </g>
    </g>
    <g id="ytick_14">
     <g id="line2d_35">
      <g>
       <use style="stroke:#000000;stroke-width:0.6;" x="57.6" xlink:href="#mf43dd0443f" y="202.48113"/>
      </g>
     </g>
    </g>
    <g id="ytick_15">
     <g id="line2d_36">
      <g>
       <use style="stroke:#000000;stroke-width:0.6;" x="57.6" xlink:href="#mf43dd0443f" y="195.776526"/>
      </g>
     </g>
    </g>
    <g id="ytick_16">
     <g id="line2d_37">
      <g>
       <use style="stroke:#000000;stroke-width:0.6;" x="57.6" xlink:href="#mf43dd0443f" y="190.298466"/>
      </g>
     </g>
    </g>
    <g id="ytick_17">
     <g id="line2d_38">
      <g>
       <use style="stroke:#000000;stroke-width:0.6;" x="57.6" xlink:href="#mf43dd0443f" y="185.666831"/>
      </g>
     </g>
    </g>
    <g id="ytick_18">
     <g id="line2d_39">
      <g>
       <use style="stroke:#000000;stroke-width:0.6;" x="57.6" xlink:href="#mf43dd0443f" y="181.654727"/>
      </g>
     </g>
    </g>
    <g id="ytick_19">
     <g id="line2d_40">
      <g>
       <use style="stroke:#000000;stroke-width:0.6;" x="57.6" xlink:href="#mf43dd0443f" y="178.115801"/>
      </g>
     </g>
    </g>
    <g id="ytick_20">
     <g id="line2d_41">
      <g>
       <use style="stroke:#000000;stroke-width:0.6;" x="57.6" xlink:href="#mf43dd0443f" y="154.12372"/>
      </g>
     </g>
    </g>
    <g id="ytick_21">
     <g id="line2d_42">
      <g>
       <use style="stroke:#000000;stroke-width:0.6;" x="57.6" xlink:href="#mf43dd0443f" y="141.941056"/>
      </g>
     </g>
    </g>
    <g id="ytick_22">
     <g id="line2d_43">
      <g>
       <use style="stroke:#000000;stroke-width:0.6;" x="57.6" xlink:href="#mf43dd0443f" y="133.297317"/>
      </g>
     </g>
    </g>
    <g id="ytick_23">
     <g id="line2d_44">
      <g>
       <use style="stroke:#000000;stroke-width:0.6;" x="57.6" xlink:href="#mf43dd0443f" y="126.592713"/>
      </g>
     </g>
    </g>
    <g id="ytick_24">
     <g id="line2d_45">
      <g>
       <use style="stroke:#000000;stroke-width:0.6;" x="57.6" xlink:href="#mf43dd0443f" y="121.114653"/>
      </g>
     </g>
    </g>
    <g id="ytick_25">
     <g id="line2d_46">
      <g>
       <use style="stroke:#000000;stroke-width:0.6;" x="57.6" xlink:href="#mf43dd0443f" y="116.483019"/>
      </g>
     </g>
    </g>
    <g id="ytick_26">
     <g id="line2d_47">
      <g>
       <use style="stroke:#000000;stroke-width:0.6;" x="57.6" xlink:href="#mf43dd0443f" y="112.470915"/>
      </g>
     </g>
    </g>
    <g id="ytick_27">
     <g id="line2d_48">
      <g>
       <use style="stroke:#000000;stroke-width:0.6;" x="57.6" xlink:href="#mf43dd0443f" y="108.931988"/>
      </g>
     </g>
    </g>
    <g id="ytick_28">
     <g id="line2d_49">
      <g>
       <use style="stroke:#000000;stroke-width:0.6;" x="57.6" xlink:href="#mf43dd0443f" y="84.939908"/>
      </g>
     </g>
    </g>
    <g id="ytick_29">
     <g id="line2d_50">
      <g>
       <use style="stroke:#000000;stroke-width:0.6;" x="57.6" xlink:href="#mf43dd0443f" y="72.757243"/>
      </g>
     </g>
    </g>
    <g id="ytick_30">
     <g id="line2d_51">
      <g>
       <use style="stroke:#000000;stroke-width:0.6;" x="57.6" xlink:href="#mf43dd0443f" y="64.113505"/>
      </g>
     </g>
    </g>
    <g id="ytick_31">
     <g id="line2d_52">
      <g>
       <use style="stroke:#000000;stroke-width:0.6;" x="57.6" xlink:href="#mf43dd0443f" y="57.4089"/>
      </g>
     </g>
    </g>
    <g id="ytick_32">
     <g id="line2d_53">
      <g>
       <use style="stroke:#000000;stroke-width:0.6;" x="57.6" xlink:href="#mf43dd0443f" y="51.93084"/>
      </g>
     </g>
    </g>
    <g id="ytick_33">
     <g id="line2d_54">
      <g>
       <use style="stroke:#000000;stroke-width:0.6;" x="57.6" xlink:href="#mf43dd0443f" y="47.299206"/>
      </g>
     </g>
    </g>
    <g id="ytick_34">
     <g id="line2d_55">
      <g>
       <use style="stroke:#000000;stroke-width:0.6;" x="57.6" xlink:href="#mf43dd0443f" y="43.287102"/>
      </g>
     </g>
    </g>
    <g id="text_14">
     <!-- $\omega_i$ -->
     <defs>
      <path d="M 21.390625 -1.421875 
Q 1.125 -1.421875 6.78125 27.59375 
Q 8.984375 39.0625 19.625 54.6875 
L 29.296875 54.6875 
Q 19.234375 39.0625 17 27.34375 
Q 12.796875 6.203125 23.734375 6.203125 
Q 33.84375 6.203125 38.71875 32.46875 
L 47.015625 32.46875 
Q 41.703125 6.0625 51.8125 6.203125 
Q 62.703125 6.296875 66.796875 27.34375 
Q 69.046875 39.0625 65.140625 54.6875 
L 74.8125 54.6875 
Q 79.296875 39.0625 77.09375 27.59375 
Q 71.53125 -1.46875 51.21875 -1.421875 
Q 37.9375 -1.375 39.109375 13.1875 
Q 34.28125 -1.421875 21.390625 -1.421875 
" id="DejaVuSans-Oblique-3c9"/>
     </defs>
     <g transform="translate(21.020313 179.828)rotate(-90)scale(0.1 -0.1)">
      <use transform="translate(0 0.3125)" xlink:href="#DejaVuSans-Oblique-3c9"/>
      <use transform="translate(83.740234 -16.09375)scale(0.7)" xlink:href="#DejaVuSans-Oblique-69"/>
     </g>
    </g>
   </g>
   <g id="line2d_56">
    <defs>
     <path d="M 0 3 
C 0.795609 3 1.55874 2.683901 2.12132 2.12132 
C 2.683901 1.55874 3 0.795609 3 0 
C 3 -0.795609 2.683901 -1.55874 2.12132 -2.12132 
C 1.55874 -2.683901 0.795609 -3 0 -3 
C -0.795609 -3 -1.55874 -2.683901 -2.12132 -2.12132 
C -2.683901 -1.55874 -3 -0.795609 -3 0 
C -3 0.795609 -2.683901 1.55874 -2.12132 2.12132 
C -1.55874 2.683901 -0.795609 3 0 3 
z
" id="m5f51656775" style="stroke:#1f77b4;"/>
    </defs>
    <g clip-path="url(#p2ec8fcf600)">
     <use style="fill:#1f77b4;stroke:#1f77b4;" x="147.384476" xlink:href="#m5f51656775" y="187.928792"/>
     <use style="fill:#1f77b4;stroke:#1f77b4;" x="151.958856" xlink:href="#m5f51656775" y="119.70315"/>
     <use style="fill:#1f77b4;stroke:#1f77b4;" x="153.669465" xlink:href="#m5f51656775" y="111.289486"/>
     <use style="fill:#1f77b4;stroke:#1f77b4;" x="325.091739" xlink:href="#m5f51656775" y="198.849788"/>
     <use style="fill:#1f77b4;stroke:#1f77b4;" x="317.378414" xlink:href="#m5f51656775" y="106.357714"/>
     <use style="fill:#1f77b4;stroke:#1f77b4;" x="320.877926" xlink:href="#m5f51656775" y="122.833234"/>
     <use style="fill:#1f77b4;stroke:#1f77b4;" x="147.568976" xlink:href="#m5f51656775" y="178.707045"/>
     <use style="fill:#1f77b4;stroke:#1f77b4;" x="155.616566" xlink:href="#m5f51656775" y="104.063022"/>
     <use style="fill:#1f77b4;stroke:#1f77b4;" x="152.502465" xlink:href="#m5f51656775" y="116.746289"/>
     <use style="fill:#1f77b4;stroke:#1f77b4;" x="318.027517" xlink:href="#m5f51656775" y="108.763446"/>
     <use style="fill:#1f77b4;stroke:#1f77b4;" x="315.276711" xlink:href="#m5f51656775" y="99.775005"/>
     <use style="fill:#1f77b4;stroke:#1f77b4;" x="324.751024" xlink:href="#m5f51656775" y="178.707045"/>
     <use style="fill:#1f77b4;stroke:#1f77b4;" x="154.292483" xlink:href="#m5f51656775" y="108.763446"/>
     <use style="fill:#1f77b4;stroke:#1f77b4;" x="157.794578" xlink:href="#m5f51656775" y="97.767988"/>
     <use style="fill:#1f77b4;stroke:#1f77b4;" x="148.913378" xlink:href="#m5f51656775" y="146.621287"/>
     <use style="fill:#1f77b4;stroke:#1f77b4;" x="312.122744" xlink:href="#m5f51656775" y="92.227213"/>
     <use style="fill:#1f77b4;stroke:#1f77b4;" x="318.650535" xlink:href="#m5f51656775" y="111.289486"/>
     <use style="fill:#1f77b4;stroke:#1f77b4;" x="158.570835" xlink:href="#m5f51656775" y="95.844382"/>
     <use style="fill:#1f77b4;stroke:#1f77b4;" x="165.648432" xlink:href="#m5f51656775" y="82.930429"/>
     <use style="fill:#1f77b4;stroke:#1f77b4;" x="154.941586" xlink:href="#m5f51656775" y="106.357714"/>
     <use style="fill:#1f77b4;stroke:#1f77b4;" x="314.525422" xlink:href="#m5f51656775" y="97.767988"/>
     <use style="fill:#1f77b4;stroke:#1f77b4;" x="307.638015" xlink:href="#m5f51656775" y="84.337073"/>
     <use style="fill:#1f77b4;stroke:#1f77b4;" x="147.228261" xlink:href="#m5f51656775" y="198.849788"/>
     <use style="fill:#1f77b4;stroke:#1f77b4;" x="160.197256" xlink:href="#m5f51656775" y="92.227213"/>
     <use style="fill:#1f77b4;stroke:#1f77b4;" x="162.817711" xlink:href="#m5f51656775" y="87.313012"/>
     <use style="fill:#1f77b4;stroke:#1f77b4;" x="324.297413" xlink:href="#m5f51656775" y="163.707241"/>
     <use style="fill:#1f77b4;stroke:#1f77b4;" x="304.67159" xlink:href="#m5f51656775" y="80.267568"/>
     <use style="fill:#1f77b4;stroke:#1f77b4;" x="316.703434" xlink:href="#m5f51656775" y="104.063022"/>
     <use style="fill:#1f77b4;stroke:#1f77b4;" x="157.043289" xlink:href="#m5f51656775" y="99.775005"/>
     <use style="fill:#1f77b4;stroke:#1f77b4;" x="180.135104" xlink:href="#m5f51656775" y="68.603363"/>
     <use style="fill:#1f77b4;stroke:#1f77b4;" x="320.361144" xlink:href="#m5f51656775" y="119.70315"/>
     <use style="fill:#1f77b4;stroke:#1f77b4;" x="310.39952" xlink:href="#m5f51656775" y="88.887863"/>
     <use style="fill:#1f77b4;stroke:#1f77b4;" x="303.638697" xlink:href="#m5f51656775" y="79.007033"/>
     <use style="fill:#1f77b4;stroke:#1f77b4;" x="150.489643" xlink:href="#m5f51656775" y="129.692743"/>
     <use style="fill:#1f77b4;stroke:#1f77b4;" x="167.64841" xlink:href="#m5f51656775" y="80.267568"/>
     <use style="fill:#1f77b4;stroke:#1f77b4;" x="166.637346" xlink:href="#m5f51656775" y="81.574676"/>
     <use style="fill:#1f77b4;stroke:#1f77b4;" x="322.265702" xlink:href="#m5f51656775" y="133.471577"/>
     <use style="fill:#1f77b4;stroke:#1f77b4;" x="293.416881" xlink:href="#m5f51656775" y="69.483699"/>
     <use style="fill:#1f77b4;stroke:#1f77b4;" x="313.749165" xlink:href="#m5f51656775" y="95.844382"/>
     <use style="fill:#1f77b4;stroke:#1f77b4;" x="161.92048" xlink:href="#m5f51656775" y="88.887863"/>
     <use style="fill:#1f77b4;stroke:#1f77b4;" x="183.936564" xlink:href="#m5f51656775" y="66.148402"/>
     <use style="fill:#1f77b4;stroke:#1f77b4;" x="150.054298" xlink:href="#m5f51656775" y="133.471577"/>
     <use style="fill:#1f77b4;stroke:#1f77b4;" x="302.584304" xlink:href="#m5f51656775" y="77.791158"/>
     <use style="fill:#1f77b4;stroke:#1f77b4;" x="299.295522" xlink:href="#m5f51656775" y="74.394403"/>
     <use style="fill:#1f77b4;stroke:#1f77b4;" x="323.731485" xlink:href="#m5f51656775" y="151.776397"/>
     <use style="fill:#1f77b4;stroke:#1f77b4;" x="177.689376" xlink:href="#m5f51656775" y="70.39656"/>
     <use style="fill:#1f77b4;stroke:#1f77b4;" x="170.811252" xlink:href="#m5f51656775" y="76.61817"/>
     <use style="fill:#1f77b4;stroke:#1f77b4;" x="319.817535" xlink:href="#m5f51656775" y="116.746289"/>
     <use style="fill:#1f77b4;stroke:#1f77b4;" x="281.720538" xlink:href="#m5f51656775" y="62.630299"/>
     <use style="fill:#1f77b4;stroke:#1f77b4;" x="319.247271" xlink:href="#m5f51656775" y="113.946395"/>
     <use style="fill:#1f77b4;stroke:#1f77b4;" x="169.735696" xlink:href="#m5f51656775" y="77.791158"/>
     <use style="fill:#1f77b4;stroke:#1f77b4;" x="187.887743" xlink:href="#m5f51656775" y="63.955686"/>
     <use style="fill:#1f77b4;stroke:#1f77b4;" x="323.05396" xlink:href="#m5f51656775" y="141.891381"/>
     <use style="fill:#1f77b4;stroke:#1f77b4;" x="295.825737" xlink:href="#m5f51656775" y="71.342949"/>
     <use style="fill:#1f77b4;stroke:#1f77b4;" x="297.00184" xlink:href="#m5f51656775" y="72.32394"/>
     <use style="fill:#1f77b4;stroke:#1f77b4;" x="146.929779" xlink:href="#m5f51656775" y="253.844768"/>
     <use style="fill:#1f77b4;stroke:#1f77b4;" x="186.554738" xlink:href="#m5f51656775" y="64.658666"/>
     <use style="fill:#1f77b4;stroke:#1f77b4;" x="173.024478" xlink:href="#m5f51656775" y="74.394403"/>
     <use style="fill:#1f77b4;stroke:#1f77b4;" x="306.671568" xlink:href="#m5f51656775" y="82.930429"/>
     <use style="fill:#1f77b4;stroke:#1f77b4;" x="273.251207" xlink:href="#m5f51656775" y="59.259652"/>
     <use style="fill:#1f77b4;stroke:#1f77b4;" x="324.935524" xlink:href="#m5f51656775" y="187.928792"/>
     <use style="fill:#1f77b4;stroke:#1f77b4;" x="174.161442" xlink:href="#m5f51656775" y="73.340681"/>
     <use style="fill:#1f77b4;stroke:#1f77b4;" x="189.236127" xlink:href="#m5f51656775" y="63.279765"/>
     <use style="fill:#1f77b4;stroke:#1f77b4;" x="324.538298" xlink:href="#m5f51656775" y="170.730762"/>
     <use style="fill:#1f77b4;stroke:#1f77b4;" x="287.082461" xlink:href="#m5f51656775" y="65.389344"/>
     <use style="fill:#1f77b4;stroke:#1f77b4;" x="301.508748" xlink:href="#m5f51656775" y="76.61817"/>
     <use style="fill:#1f77b4;stroke:#1f77b4;" x="148.588515" xlink:href="#m5f51656775" y="151.776397"/>
     <use style="fill:#1f77b4;stroke:#1f77b4;" x="199.068793" xlink:href="#m5f51656775" y="59.259652"/>
     <use style="fill:#1f77b4;stroke:#1f77b4;" x="164.681985" xlink:href="#m5f51656775" y="84.337073"/>
     <use style="fill:#1f77b4;stroke:#1f77b4;" x="298.158558" xlink:href="#m5f51656775" y="73.340681"/>
     <use style="fill:#1f77b4;stroke:#1f77b4;" x="276.126448" xlink:href="#m5f51656775" y="60.286172"/>
     <use style="fill:#1f77b4;stroke:#1f77b4;" x="147.000877" xlink:href="#m5f51656775" y="229.495396"/>
     <use style="fill:#1f77b4;stroke:#1f77b4;" x="182.652228" xlink:href="#m5f51656775" y="66.936567"/>
     <use style="fill:#1f77b4;stroke:#1f77b4;" x="185.237539" xlink:href="#m5f51656775" y="65.389344"/>
     <use style="fill:#1f77b4;stroke:#1f77b4;" x="147.781702" xlink:href="#m5f51656775" y="170.730762"/>
     <use style="fill:#1f77b4;stroke:#1f77b4;" x="277.545196" xlink:href="#m5f51656775" y="60.835144"/>
     <use style="fill:#1f77b4;stroke:#1f77b4;" x="294.630624" xlink:href="#m5f51656775" y="70.39656"/>
     <use style="fill:#1f77b4;stroke:#1f77b4;" x="149.26604" xlink:href="#m5f51656775" y="141.891381"/>
     <use style="fill:#1f77b4;stroke:#1f77b4;" x="206.455528" xlink:href="#m5f51656775" y="57.092332"/>
     <use style="fill:#1f77b4;stroke:#1f77b4;" x="151.442074" xlink:href="#m5f51656775" y="122.833234"/>
     <use style="fill:#1f77b4;stroke:#1f77b4;" x="290.93506" xlink:href="#m5f51656775" y="67.754612"/>
     <use style="fill:#1f77b4;stroke:#1f77b4;" x="271.79563" xlink:href="#m5f51656775" y="58.781299"/>
     <use style="fill:#1f77b4;stroke:#1f77b4;" x="325.432888" xlink:href="#m5f51656775" y="295.488"/>
     <use style="fill:#1f77b4;stroke:#1f77b4;" x="193.369242" xlink:href="#m5f51656775" y="61.408504"/>
     <use style="fill:#1f77b4;stroke:#1f77b4;" x="181.38494" xlink:href="#m5f51656775" y="67.754612"/>
     <use style="fill:#1f77b4;stroke:#1f77b4;" x="325.219619" xlink:href="#m5f51656775" y="212.230264"/>
     <use style="fill:#1f77b4;stroke:#1f77b4;" x="268.850881" xlink:href="#m5f51656775" y="57.89258"/>
     <use style="fill:#1f77b4;stroke:#1f77b4;" x="292.184896" xlink:href="#m5f51656775" y="68.603363"/>
     <use style="fill:#1f77b4;stroke:#1f77b4;" x="163.738311" xlink:href="#m5f51656775" y="85.797048"/>
     <use style="fill:#1f77b4;stroke:#1f77b4;" x="212.538052" xlink:href="#m5f51656775" y="55.74824"/>
     <use style="fill:#1f77b4;stroke:#1f77b4;" x="191.977314" xlink:href="#m5f51656775" y="62.006723"/>
     <use style="fill:#1f77b4;stroke:#1f77b4;" x="284.432257" xlink:href="#m5f51656775" y="63.955686"/>
     <use style="fill:#1f77b4;stroke:#1f77b4;" x="278.950758" xlink:href="#m5f51656775" y="61.408504"/>
     <use style="fill:#1f77b4;stroke:#1f77b4;" x="146.887112" xlink:href="#m5f51656775" y="295.488"/>
     <use style="fill:#1f77b4;stroke:#1f77b4;" x="201.991302" xlink:href="#m5f51656775" y="58.325723"/>
     <use style="fill:#1f77b4;stroke:#1f77b4;" x="194.774804" xlink:href="#m5f51656775" y="60.835144"/>
     <use style="fill:#1f77b4;stroke:#1f77b4;" x="325.390221" xlink:href="#m5f51656775" y="253.844768"/>
     <use style="fill:#1f77b4;stroke:#1f77b4;" x="259.781948" xlink:href="#m5f51656775" y="55.74824"/>
     <use style="fill:#1f77b4;stroke:#1f77b4;" x="305.682654" xlink:href="#m5f51656775" y="81.574676"/>
     <use style="fill:#1f77b4;stroke:#1f77b4;" x="316.002792" xlink:href="#m5f51656775" y="101.871201"/>
     <use style="fill:#1f77b4;stroke:#1f77b4;" x="207.963167" xlink:href="#m5f51656775" y="56.724644"/>
     <use style="fill:#1f77b4;stroke:#1f77b4;" x="324.028447" xlink:href="#m5f51656775" y="157.436634"/>
     <use style="fill:#1f77b4;stroke:#1f77b4;" x="270.328698" xlink:href="#m5f51656775" y="58.325723"/>
     <use style="fill:#1f77b4;stroke:#1f77b4;" x="267.362647" xlink:href="#m5f51656775" y="57.48155"/>
     <use style="fill:#1f77b4;stroke:#1f77b4;" x="325.319123" xlink:href="#m5f51656775" y="229.495396"/>
     <use style="fill:#1f77b4;stroke:#1f77b4;" x="209.47979" xlink:href="#m5f51656775" y="56.378226"/>
     <use style="fill:#1f77b4;stroke:#1f77b4;" x="176.494263" xlink:href="#m5f51656775" y="71.342949"/>
     <use style="fill:#1f77b4;stroke:#1f77b4;" x="308.581689" xlink:href="#m5f51656775" y="85.797048"/>
     <use style="fill:#1f77b4;stroke:#1f77b4;" x="253.579051" xlink:href="#m5f51656775" y="54.733894"/>
     <use style="fill:#1f77b4;stroke:#1f77b4;" x="190.599462" xlink:href="#m5f51656775" y="62.630299"/>
     <use style="fill:#1f77b4;stroke:#1f77b4;" x="211.004914" xlink:href="#m5f51656775" y="56.052834"/>
     <use style="fill:#1f77b4;stroke:#1f77b4;" x="204.957353" xlink:href="#m5f51656775" y="57.48155"/>
     <use style="fill:#1f77b4;stroke:#1f77b4;" x="147.100381" xlink:href="#m5f51656775" y="212.230264"/>
     <use style="fill:#1f77b4;stroke:#1f77b4;" x="264.356833" xlink:href="#m5f51656775" y="56.724644"/>
     <use style="fill:#1f77b4;stroke:#1f77b4;" x="283.083873" xlink:href="#m5f51656775" y="63.279765"/>
     <use style="fill:#1f77b4;stroke:#1f77b4;" x="149.646387" xlink:href="#m5f51656775" y="137.524559"/>
     <use style="fill:#1f77b4;stroke:#1f77b4;" x="217.180659" xlink:href="#m5f51656775" y="54.957233"/>
     <use style="fill:#1f77b4;stroke:#1f77b4;" x="197.625034" xlink:href="#m5f51656775" y="59.761146"/>
     <use style="fill:#1f77b4;stroke:#1f77b4;" x="274.694966" xlink:href="#m5f51656775" y="59.761146"/>
     <use style="fill:#1f77b4;stroke:#1f77b4;" x="252.013212" xlink:href="#m5f51656775" y="54.530461"/>
     <use style="fill:#1f77b4;stroke:#1f77b4;" x="289.667772" xlink:href="#m5f51656775" y="66.936567"/>
     <use style="fill:#1f77b4;stroke:#1f77b4;" x="196.193552" xlink:href="#m5f51656775" y="60.286172"/>
     <use style="fill:#1f77b4;stroke:#1f77b4;" x="214.078717" xlink:href="#m5f51656775" y="55.464235"/>
     <use style="fill:#1f77b4;stroke:#1f77b4;" x="150.952285" xlink:href="#m5f51656775" y="126.155592"/>
     <use style="fill:#1f77b4;stroke:#1f77b4;" x="258.241283" xlink:href="#m5f51656775" y="55.464235"/>
     <use style="fill:#1f77b4;stroke:#1f77b4;" x="285.765262" xlink:href="#m5f51656775" y="64.658666"/>
     <use style="fill:#1f77b4;stroke:#1f77b4;" x="161.046902" xlink:href="#m5f51656775" y="90.524771"/>
     <use style="fill:#1f77b4;stroke:#1f77b4;" x="220.306788" xlink:href="#m5f51656775" y="54.530461"/>
     <use style="fill:#1f77b4;stroke:#1f77b4;" x="156.317208" xlink:href="#m5f51656775" y="101.871201"/>
     <use style="fill:#1f77b4;stroke:#1f77b4;" x="280.342686" xlink:href="#m5f51656775" y="62.006723"/>
     <use style="fill:#1f77b4;stroke:#1f77b4;" x="256.693583" xlink:href="#m5f51656775" y="55.200625"/>
     <use style="fill:#1f77b4;stroke:#1f77b4;" x="171.907629" xlink:href="#m5f51656775" y="75.486427"/>
     <use style="fill:#1f77b4;stroke:#1f77b4;" x="322.673613" xlink:href="#m5f51656775" y="137.524559"/>
     <use style="fill:#1f77b4;stroke:#1f77b4;" x="221.877678" xlink:href="#m5f51656775" y="54.346799"/>
     <use style="fill:#1f77b4;stroke:#1f77b4;" x="323.406622" xlink:href="#m5f51656775" y="146.621287"/>
     <use style="fill:#1f77b4;stroke:#1f77b4;" x="255.139341" xlink:href="#m5f51656775" y="54.957233"/>
     <use style="fill:#1f77b4;stroke:#1f77b4;" x="309.502289" xlink:href="#m5f51656775" y="87.313012"/>
     <use style="fill:#1f77b4;stroke:#1f77b4;" x="168.681303" xlink:href="#m5f51656775" y="79.007033"/>
     <use style="fill:#1f77b4;stroke:#1f77b4;" x="225.032609" xlink:href="#m5f51656775" y="54.038319"/>
     <use style="fill:#1f77b4;stroke:#1f77b4;" x="178.903119" xlink:href="#m5f51656775" y="69.483699"/>
     <use style="fill:#1f77b4;stroke:#1f77b4;" x="288.383436" xlink:href="#m5f51656775" y="66.148402"/>
     <use style="fill:#1f77b4;stroke:#1f77b4;" x="248.866881" xlink:href="#m5f51656775" y="54.182787"/>
     <use style="fill:#1f77b4;stroke:#1f77b4;" x="148.022587" xlink:href="#m5f51656775" y="163.707241"/>
     <use style="fill:#1f77b4;stroke:#1f77b4;" x="215.626417" xlink:href="#m5f51656775" y="55.200625"/>
     <use style="fill:#1f77b4;stroke:#1f77b4;" x="265.864472" xlink:href="#m5f51656775" y="57.092332"/>
     <use style="fill:#1f77b4;stroke:#1f77b4;" x="321.367715" xlink:href="#m5f51656775" y="126.155592"/>
     <use style="fill:#1f77b4;stroke:#1f77b4;" x="247.287391" xlink:href="#m5f51656775" y="54.038319"/>
     <use style="fill:#1f77b4;stroke:#1f77b4;" x="148.291553" xlink:href="#m5f51656775" y="157.436634"/>
     <use style="fill:#1f77b4;stroke:#1f77b4;" x="200.52437" xlink:href="#m5f51656775" y="58.781299"/>
     <use style="fill:#1f77b4;stroke:#1f77b4;" x="226.615643" xlink:href="#m5f51656775" y="53.913301"/>
     <use style="fill:#1f77b4;stroke:#1f77b4;" x="312.948188" xlink:href="#m5f51656775" y="93.999011"/>
     <use style="fill:#1f77b4;stroke:#1f77b4;" x="262.84021" xlink:href="#m5f51656775" y="56.378226"/>
     <use style="fill:#1f77b4;stroke:#1f77b4;" x="261.315086" xlink:href="#m5f51656775" y="56.052834"/>
     <use style="fill:#1f77b4;stroke:#1f77b4;" x="321.830357" xlink:href="#m5f51656775" y="129.692743"/>
     <use style="fill:#1f77b4;stroke:#1f77b4;" x="223.453119" xlink:href="#m5f51656775" y="54.182787"/>
     <use style="fill:#1f77b4;stroke:#1f77b4;" x="218.740949" xlink:href="#m5f51656775" y="54.733894"/>
     <use style="fill:#1f77b4;stroke:#1f77b4;" x="300.412371" xlink:href="#m5f51656775" y="75.486427"/>
     <use style="fill:#1f77b4;stroke:#1f77b4;" x="244.118281" xlink:href="#m5f51656775" y="53.807652"/>
     <use style="fill:#1f77b4;stroke:#1f77b4;" x="311.273098" xlink:href="#m5f51656775" y="90.524771"/>
     <use style="fill:#1f77b4;stroke:#1f77b4;" x="203.469119" xlink:href="#m5f51656775" y="57.89258"/>
     <use style="fill:#1f77b4;stroke:#1f77b4;" x="229.79033" xlink:href="#m5f51656775" y="53.721304"/>
     <use style="fill:#1f77b4;stroke:#1f77b4;" x="159.371812" xlink:href="#m5f51656775" y="93.999011"/>
     <use style="fill:#1f77b4;stroke:#1f77b4;" x="250.442322" xlink:href="#m5f51656775" y="54.346799"/>
     <use style="fill:#1f77b4;stroke:#1f77b4;" x="245.704357" xlink:href="#m5f51656775" y="53.913301"/>
     <use style="fill:#1f77b4;stroke:#1f77b4;" x="153.072729" xlink:href="#m5f51656775" y="113.946395"/>
     <use style="fill:#1f77b4;stroke:#1f77b4;" x="228.201719" xlink:href="#m5f51656775" y="53.807652"/>
     <use style="fill:#1f77b4;stroke:#1f77b4;" x="175.31816" xlink:href="#m5f51656775" y="72.32394"/>
     <use style="fill:#1f77b4;stroke:#1f77b4;" x="237.753687" xlink:href="#m5f51656775" y="53.577574"/>
     <use style="fill:#1f77b4;stroke:#1f77b4;" x="242.52967" xlink:href="#m5f51656775" y="53.721304"/>
     <use style="fill:#1f77b4;stroke:#1f77b4;" x="236.16" xlink:href="#m5f51656775" y="53.568"/>
     <use style="fill:#1f77b4;stroke:#1f77b4;" x="232.973135" xlink:href="#m5f51656775" y="53.606301"/>
     <use style="fill:#1f77b4;stroke:#1f77b4;" x="231.380971" xlink:href="#m5f51656775" y="53.654201"/>
     <use style="fill:#1f77b4;stroke:#1f77b4;" x="234.566313" xlink:href="#m5f51656775" y="53.577574"/>
     <use style="fill:#1f77b4;stroke:#1f77b4;" x="240.939029" xlink:href="#m5f51656775" y="53.654201"/>
     <use style="fill:#1f77b4;stroke:#1f77b4;" x="239.346865" xlink:href="#m5f51656775" y="53.606301"/>
    </g>
   </g>
   <g id="patch_3">
    <path d="M 57.6 307.584 
L 57.6 41.472 
" style="fill:none;stroke:#000000;stroke-linecap:square;stroke-linejoin:miter;stroke-width:0.8;"/>
   </g>
   <g id="patch_4">
    <path d="M 414.72 307.584 
L 414.72 41.472 
" style="fill:none;stroke:#000000;stroke-linecap:square;stroke-linejoin:miter;stroke-width:0.8;"/>
   </g>
   <g id="patch_5">
    <path d="M 57.6 307.584 
L 414.72 307.584 
" style="fill:none;stroke:#000000;stroke-linecap:square;stroke-linejoin:miter;stroke-width:0.8;"/>
   </g>
   <g id="patch_6">
    <path d="M 57.6 41.472 
L 414.72 41.472 
" style="fill:none;stroke:#000000;stroke-linecap:square;stroke-linejoin:miter;stroke-width:0.8;"/>
   </g>
  </g>
 </g>
 <defs>
  <clipPath id="p2ec8fcf600">
   <rect height="266.112" width="357.12" x="57.6" y="41.472"/>
  </clipPath>
 </defs>
</svg>
