<?xml version="1.0" encoding="utf-8" standalone="no"?>
<!DOCTYPE svg PUBLIC "-//W3C//DTD SVG 1.1//EN"
  "http://www.w3.org/Graphics/SVG/1.1/DTD/svg11.dtd">
<!-- Created with matplotlib (http://matplotlib.org/) -->
<svg height="345pt" version="1.1" viewBox="0 0 460 345" width="460pt" xmlns="http://www.w3.org/2000/svg" xmlns:xlink="http://www.w3.org/1999/xlink">
 <defs>
  <style type="text/css">
*{stroke-linecap:butt;stroke-linejoin:round;}
  </style>
 </defs>
 <g id="figure_1">
  <g id="patch_1">
   <path d="M 0 345.6 
L 460.8 345.6 
L 460.8 0 
L 0 0 
z
" style="fill:#ffffff;"/>
  </g>
  <g id="axes_1">
   <g id="patch_2">
    <path d="M 57.6 307.584 
L 414.72 307.584 
L 414.72 41.472 
L 57.6 41.472 
z
" style="fill:#ffffff;"/>
   </g>
   <g id="matplotlib.axis_1">
    <g id="xtick_1">
     <g id="line2d_1">
      <path clip-path="url(#pc681147001)" d="M 100.554987 307.584 
L 100.554987 41.472 
" style="fill:none;stroke:#b0b0b0;stroke-linecap:square;stroke-width:0.8;"/>
     </g>
     <g id="line2d_2">
      <defs>
       <path d="M 0 0 
L 0 3.5 
" id="m93fb892578" style="stroke:#000000;stroke-width:0.8;"/>
      </defs>
      <g>
       <use style="stroke:#000000;stroke-width:0.8;" x="100.554987" xlink:href="#m93fb892578" y="307.584"/>
      </g>
     </g>
     <g id="text_1">
      <!-- −7.5 -->
      <defs>
       <path d="M 10.59375 35.5 
L 73.1875 35.5 
L 73.1875 27.203125 
L 10.59375 27.203125 
z
" id="DejaVuSans-2212"/>
       <path d="M 8.203125 72.90625 
L 55.078125 72.90625 
L 55.078125 68.703125 
L 28.609375 0 
L 18.3125 0 
L 43.21875 64.59375 
L 8.203125 64.59375 
z
" id="DejaVuSans-37"/>
       <path d="M 10.6875 12.40625 
L 21 12.40625 
L 21 0 
L 10.6875 0 
z
" id="DejaVuSans-2e"/>
       <path d="M 10.796875 72.90625 
L 49.515625 72.90625 
L 49.515625 64.59375 
L 19.828125 64.59375 
L 19.828125 46.734375 
Q 21.96875 47.46875 24.109375 47.828125 
Q 26.265625 48.1875 28.421875 48.1875 
Q 40.625 48.1875 47.75 41.5 
Q 54.890625 34.8125 54.890625 23.390625 
Q 54.890625 11.625 47.5625 5.09375 
Q 40.234375 -1.421875 26.90625 -1.421875 
Q 22.3125 -1.421875 17.546875 -0.640625 
Q 12.796875 0.140625 7.71875 1.703125 
L 7.71875 11.625 
Q 12.109375 9.234375 16.796875 8.0625 
Q 21.484375 6.890625 26.703125 6.890625 
Q 35.15625 6.890625 40.078125 11.328125 
Q 45.015625 15.765625 45.015625 23.390625 
Q 45.015625 31 40.078125 35.4375 
Q 35.15625 39.890625 26.703125 39.890625 
Q 22.75 39.890625 18.8125 39.015625 
Q 14.890625 38.140625 10.796875 36.28125 
z
" id="DejaVuSans-35"/>
      </defs>
      <g transform="translate(88.41358 322.182437)scale(0.1 -0.1)">
       <use xlink:href="#DejaVuSans-2212"/>
       <use x="83.789062" xlink:href="#DejaVuSans-37"/>
       <use x="147.412109" xlink:href="#DejaVuSans-2e"/>
       <use x="179.199219" xlink:href="#DejaVuSans-35"/>
      </g>
     </g>
    </g>
    <g id="xtick_2">
     <g id="line2d_3">
      <path clip-path="url(#pc681147001)" d="M 145.756658 307.584 
L 145.756658 41.472 
" style="fill:none;stroke:#b0b0b0;stroke-linecap:square;stroke-width:0.8;"/>
     </g>
     <g id="line2d_4">
      <g>
       <use style="stroke:#000000;stroke-width:0.8;" x="145.756658" xlink:href="#m93fb892578" y="307.584"/>
      </g>
     </g>
     <g id="text_2">
      <!-- −5.0 -->
      <defs>
       <path d="M 31.78125 66.40625 
Q 24.171875 66.40625 20.328125 58.90625 
Q 16.5 51.421875 16.5 36.375 
Q 16.5 21.390625 20.328125 13.890625 
Q 24.171875 6.390625 31.78125 6.390625 
Q 39.453125 6.390625 43.28125 13.890625 
Q 47.125 21.390625 47.125 36.375 
Q 47.125 51.421875 43.28125 58.90625 
Q 39.453125 66.40625 31.78125 66.40625 
M 31.78125 74.21875 
Q 44.046875 74.21875 50.515625 64.515625 
Q 56.984375 54.828125 56.984375 36.375 
Q 56.984375 17.96875 50.515625 8.265625 
Q 44.046875 -1.421875 31.78125 -1.421875 
Q 19.53125 -1.421875 13.0625 8.265625 
Q 6.59375 17.96875 6.59375 36.375 
Q 6.59375 54.828125 13.0625 64.515625 
Q 19.53125 74.21875 31.78125 74.21875 
" id="DejaVuSans-30"/>
      </defs>
      <g transform="translate(133.615251 322.182437)scale(0.1 -0.1)">
       <use xlink:href="#DejaVuSans-2212"/>
       <use x="83.789062" xlink:href="#DejaVuSans-35"/>
       <use x="147.412109" xlink:href="#DejaVuSans-2e"/>
       <use x="179.199219" xlink:href="#DejaVuSans-30"/>
      </g>
     </g>
    </g>
    <g id="xtick_3">
     <g id="line2d_5">
      <path clip-path="url(#pc681147001)" d="M 190.958329 307.584 
L 190.958329 41.472 
" style="fill:none;stroke:#b0b0b0;stroke-linecap:square;stroke-width:0.8;"/>
     </g>
     <g id="line2d_6">
      <g>
       <use style="stroke:#000000;stroke-width:0.8;" x="190.958329" xlink:href="#m93fb892578" y="307.584"/>
      </g>
     </g>
     <g id="text_3">
      <!-- −2.5 -->
      <defs>
       <path d="M 19.1875 8.296875 
L 53.609375 8.296875 
L 53.609375 0 
L 7.328125 0 
L 7.328125 8.296875 
Q 12.9375 14.109375 22.625 23.890625 
Q 32.328125 33.6875 34.8125 36.53125 
Q 39.546875 41.84375 41.421875 45.53125 
Q 43.3125 49.21875 43.3125 52.78125 
Q 43.3125 58.59375 39.234375 62.25 
Q 35.15625 65.921875 28.609375 65.921875 
Q 23.96875 65.921875 18.8125 64.3125 
Q 13.671875 62.703125 7.8125 59.421875 
L 7.8125 69.390625 
Q 13.765625 71.78125 18.9375 73 
Q 24.125 74.21875 28.421875 74.21875 
Q 39.75 74.21875 46.484375 68.546875 
Q 53.21875 62.890625 53.21875 53.421875 
Q 53.21875 48.921875 51.53125 44.890625 
Q 49.859375 40.875 45.40625 35.40625 
Q 44.1875 33.984375 37.640625 27.21875 
Q 31.109375 20.453125 19.1875 8.296875 
" id="DejaVuSans-32"/>
      </defs>
      <g transform="translate(178.816923 322.182437)scale(0.1 -0.1)">
       <use xlink:href="#DejaVuSans-2212"/>
       <use x="83.789062" xlink:href="#DejaVuSans-32"/>
       <use x="147.412109" xlink:href="#DejaVuSans-2e"/>
       <use x="179.199219" xlink:href="#DejaVuSans-35"/>
      </g>
     </g>
    </g>
    <g id="xtick_4">
     <g id="line2d_7">
      <path clip-path="url(#pc681147001)" d="M 236.16 307.584 
L 236.16 41.472 
" style="fill:none;stroke:#b0b0b0;stroke-linecap:square;stroke-width:0.8;"/>
     </g>
     <g id="line2d_8">
      <g>
       <use style="stroke:#000000;stroke-width:0.8;" x="236.16" xlink:href="#m93fb892578" y="307.584"/>
      </g>
     </g>
     <g id="text_4">
      <!-- 0.0 -->
      <g transform="translate(228.208438 322.182437)scale(0.1 -0.1)">
       <use xlink:href="#DejaVuSans-30"/>
       <use x="63.623047" xlink:href="#DejaVuSans-2e"/>
       <use x="95.410156" xlink:href="#DejaVuSans-30"/>
      </g>
     </g>
    </g>
    <g id="xtick_5">
     <g id="line2d_9">
      <path clip-path="url(#pc681147001)" d="M 281.361671 307.584 
L 281.361671 41.472 
" style="fill:none;stroke:#b0b0b0;stroke-linecap:square;stroke-width:0.8;"/>
     </g>
     <g id="line2d_10">
      <g>
       <use style="stroke:#000000;stroke-width:0.8;" x="281.361671" xlink:href="#m93fb892578" y="307.584"/>
      </g>
     </g>
     <g id="text_5">
      <!-- 2.5 -->
      <g transform="translate(273.410109 322.182437)scale(0.1 -0.1)">
       <use xlink:href="#DejaVuSans-32"/>
       <use x="63.623047" xlink:href="#DejaVuSans-2e"/>
       <use x="95.410156" xlink:href="#DejaVuSans-35"/>
      </g>
     </g>
    </g>
    <g id="xtick_6">
     <g id="line2d_11">
      <path clip-path="url(#pc681147001)" d="M 326.563342 307.584 
L 326.563342 41.472 
" style="fill:none;stroke:#b0b0b0;stroke-linecap:square;stroke-width:0.8;"/>
     </g>
     <g id="line2d_12">
      <g>
       <use style="stroke:#000000;stroke-width:0.8;" x="326.563342" xlink:href="#m93fb892578" y="307.584"/>
      </g>
     </g>
     <g id="text_6">
      <!-- 5.0 -->
      <g transform="translate(318.61178 322.182437)scale(0.1 -0.1)">
       <use xlink:href="#DejaVuSans-35"/>
       <use x="63.623047" xlink:href="#DejaVuSans-2e"/>
       <use x="95.410156" xlink:href="#DejaVuSans-30"/>
      </g>
     </g>
    </g>
    <g id="xtick_7">
     <g id="line2d_13">
      <path clip-path="url(#pc681147001)" d="M 371.765013 307.584 
L 371.765013 41.472 
" style="fill:none;stroke:#b0b0b0;stroke-linecap:square;stroke-width:0.8;"/>
     </g>
     <g id="line2d_14">
      <g>
       <use style="stroke:#000000;stroke-width:0.8;" x="371.765013" xlink:href="#m93fb892578" y="307.584"/>
      </g>
     </g>
     <g id="text_7">
      <!-- 7.5 -->
      <g transform="translate(363.813451 322.182437)scale(0.1 -0.1)">
       <use xlink:href="#DejaVuSans-37"/>
       <use x="63.623047" xlink:href="#DejaVuSans-2e"/>
       <use x="95.410156" xlink:href="#DejaVuSans-35"/>
      </g>
     </g>
    </g>
    <g id="text_8">
     <!-- $\gamma_i$ -->
     <defs>
      <path d="M 23.296875 46.09375 
L 28.71875 12.3125 
L 54 54.6875 
L 63.53125 54.6875 
L 30.8125 0 
L 26.765625 -20.796875 
L 17.78125 -20.796875 
L 21.828125 0 
L 15.4375 40.828125 
Q 14.453125 46.96875 9.8125 46.96875 
L 7.421875 46.96875 
L 8.890625 54.6875 
L 12.3125 54.6875 
Q 21.921875 54.6875 23.296875 46.09375 
" id="DejaVuSans-Oblique-3b3"/>
      <path d="M 18.3125 75.984375 
L 27.296875 75.984375 
L 25.09375 64.59375 
L 16.109375 64.59375 
z
M 14.203125 54.6875 
L 23.1875 54.6875 
L 12.5 0 
L 3.515625 0 
z
" id="DejaVuSans-Oblique-69"/>
     </defs>
     <g transform="translate(232.06 335.84025)scale(0.1 -0.1)">
      <use transform="translate(0 0.3125)" xlink:href="#DejaVuSans-Oblique-3b3"/>
      <use transform="translate(59.179688 -16.09375)scale(0.7)" xlink:href="#DejaVuSans-Oblique-69"/>
     </g>
    </g>
   </g>
   <g id="matplotlib.axis_2">
    <g id="ytick_1">
     <g id="line2d_15">
      <path clip-path="url(#pc681147001)" d="M 57.6 277.025491 
L 414.72 277.025491 
" style="fill:none;stroke:#b0b0b0;stroke-linecap:square;stroke-width:0.8;"/>
     </g>
     <g id="line2d_16">
      <defs>
       <path d="M 0 0 
L -3.5 0 
" id="m2eda78ac11" style="stroke:#000000;stroke-width:0.8;"/>
      </defs>
      <g>
       <use style="stroke:#000000;stroke-width:0.8;" x="57.6" xlink:href="#m2eda78ac11" y="277.025491"/>
      </g>
     </g>
     <g id="text_9">
      <!-- ${10^{-32}}$ -->
      <defs>
       <path d="M 12.40625 8.296875 
L 28.515625 8.296875 
L 28.515625 63.921875 
L 10.984375 60.40625 
L 10.984375 69.390625 
L 28.421875 72.90625 
L 38.28125 72.90625 
L 38.28125 8.296875 
L 54.390625 8.296875 
L 54.390625 0 
L 12.40625 0 
z
" id="DejaVuSans-31"/>
       <path d="M 40.578125 39.3125 
Q 47.65625 37.796875 51.625 33 
Q 55.609375 28.21875 55.609375 21.1875 
Q 55.609375 10.40625 48.1875 4.484375 
Q 40.765625 -1.421875 27.09375 -1.421875 
Q 22.515625 -1.421875 17.65625 -0.515625 
Q 12.796875 0.390625 7.625 2.203125 
L 7.625 11.71875 
Q 11.71875 9.328125 16.59375 8.109375 
Q 21.484375 6.890625 26.8125 6.890625 
Q 36.078125 6.890625 40.9375 10.546875 
Q 45.796875 14.203125 45.796875 21.1875 
Q 45.796875 27.640625 41.28125 31.265625 
Q 36.765625 34.90625 28.71875 34.90625 
L 20.21875 34.90625 
L 20.21875 43.015625 
L 29.109375 43.015625 
Q 36.375 43.015625 40.234375 45.921875 
Q 44.09375 48.828125 44.09375 54.296875 
Q 44.09375 59.90625 40.109375 62.90625 
Q 36.140625 65.921875 28.71875 65.921875 
Q 24.65625 65.921875 20.015625 65.03125 
Q 15.375 64.15625 9.8125 62.3125 
L 9.8125 71.09375 
Q 15.4375 72.65625 20.34375 73.4375 
Q 25.25 74.21875 29.59375 74.21875 
Q 40.828125 74.21875 47.359375 69.109375 
Q 53.90625 64.015625 53.90625 55.328125 
Q 53.90625 49.265625 50.4375 45.09375 
Q 46.96875 40.921875 40.578125 39.3125 
" id="DejaVuSans-33"/>
      </defs>
      <g transform="translate(22.7 280.82471)scale(0.1 -0.1)">
       <use transform="translate(0 0.765625)" xlink:href="#DejaVuSans-31"/>
       <use transform="translate(63.623047 0.765625)" xlink:href="#DejaVuSans-30"/>
       <use transform="translate(128.203125 39.046875)scale(0.7)" xlink:href="#DejaVuSans-2212"/>
       <use transform="translate(186.855469 39.046875)scale(0.7)" xlink:href="#DejaVuSans-33"/>
       <use transform="translate(231.391602 39.046875)scale(0.7)" xlink:href="#DejaVuSans-32"/>
      </g>
     </g>
    </g>
    <g id="ytick_2">
     <g id="line2d_17">
      <path clip-path="url(#pc681147001)" d="M 57.6 241.185588 
L 414.72 241.185588 
" style="fill:none;stroke:#b0b0b0;stroke-linecap:square;stroke-width:0.8;"/>
     </g>
     <g id="line2d_18">
      <g>
       <use style="stroke:#000000;stroke-width:0.8;" x="57.6" xlink:href="#m2eda78ac11" y="241.185588"/>
      </g>
     </g>
     <g id="text_10">
      <!-- ${10^{-27}}$ -->
      <g transform="translate(22.7 244.984807)scale(0.1 -0.1)">
       <use transform="translate(0 0.765625)" xlink:href="#DejaVuSans-31"/>
       <use transform="translate(63.623047 0.765625)" xlink:href="#DejaVuSans-30"/>
       <use transform="translate(128.203125 39.046875)scale(0.7)" xlink:href="#DejaVuSans-2212"/>
       <use transform="translate(186.855469 39.046875)scale(0.7)" xlink:href="#DejaVuSans-32"/>
       <use transform="translate(231.391602 39.046875)scale(0.7)" xlink:href="#DejaVuSans-37"/>
      </g>
     </g>
    </g>
    <g id="ytick_3">
     <g id="line2d_19">
      <path clip-path="url(#pc681147001)" d="M 57.6 205.345685 
L 414.72 205.345685 
" style="fill:none;stroke:#b0b0b0;stroke-linecap:square;stroke-width:0.8;"/>
     </g>
     <g id="line2d_20">
      <g>
       <use style="stroke:#000000;stroke-width:0.8;" x="57.6" xlink:href="#m2eda78ac11" y="205.345685"/>
      </g>
     </g>
     <g id="text_11">
      <!-- ${10^{-22}}$ -->
      <g transform="translate(22.7 209.144904)scale(0.1 -0.1)">
       <use transform="translate(0 0.765625)" xlink:href="#DejaVuSans-31"/>
       <use transform="translate(63.623047 0.765625)" xlink:href="#DejaVuSans-30"/>
       <use transform="translate(128.203125 39.046875)scale(0.7)" xlink:href="#DejaVuSans-2212"/>
       <use transform="translate(186.855469 39.046875)scale(0.7)" xlink:href="#DejaVuSans-32"/>
       <use transform="translate(231.391602 39.046875)scale(0.7)" xlink:href="#DejaVuSans-32"/>
      </g>
     </g>
    </g>
    <g id="ytick_4">
     <g id="line2d_21">
      <path clip-path="url(#pc681147001)" d="M 57.6 169.505782 
L 414.72 169.505782 
" style="fill:none;stroke:#b0b0b0;stroke-linecap:square;stroke-width:0.8;"/>
     </g>
     <g id="line2d_22">
      <g>
       <use style="stroke:#000000;stroke-width:0.8;" x="57.6" xlink:href="#m2eda78ac11" y="169.505782"/>
      </g>
     </g>
     <g id="text_12">
      <!-- ${10^{-17}}$ -->
      <g transform="translate(22.7 173.305001)scale(0.1 -0.1)">
       <use transform="translate(0 0.684375)" xlink:href="#DejaVuSans-31"/>
       <use transform="translate(63.623047 0.684375)" xlink:href="#DejaVuSans-30"/>
       <use transform="translate(128.203125 38.965625)scale(0.7)" xlink:href="#DejaVuSans-2212"/>
       <use transform="translate(186.855469 38.965625)scale(0.7)" xlink:href="#DejaVuSans-31"/>
       <use transform="translate(231.391602 38.965625)scale(0.7)" xlink:href="#DejaVuSans-37"/>
      </g>
     </g>
    </g>
    <g id="ytick_5">
     <g id="line2d_23">
      <path clip-path="url(#pc681147001)" d="M 57.6 133.665879 
L 414.72 133.665879 
" style="fill:none;stroke:#b0b0b0;stroke-linecap:square;stroke-width:0.8;"/>
     </g>
     <g id="line2d_24">
      <g>
       <use style="stroke:#000000;stroke-width:0.8;" x="57.6" xlink:href="#m2eda78ac11" y="133.665879"/>
      </g>
     </g>
     <g id="text_13">
      <!-- ${10^{-12}}$ -->
      <g transform="translate(22.7 137.465098)scale(0.1 -0.1)">
       <use transform="translate(0 0.765625)" xlink:href="#DejaVuSans-31"/>
       <use transform="translate(63.623047 0.765625)" xlink:href="#DejaVuSans-30"/>
       <use transform="translate(128.203125 39.046875)scale(0.7)" xlink:href="#DejaVuSans-2212"/>
       <use transform="translate(186.855469 39.046875)scale(0.7)" xlink:href="#DejaVuSans-31"/>
       <use transform="translate(231.391602 39.046875)scale(0.7)" xlink:href="#DejaVuSans-32"/>
      </g>
     </g>
    </g>
    <g id="ytick_6">
     <g id="line2d_25">
      <path clip-path="url(#pc681147001)" d="M 57.6 97.825977 
L 414.72 97.825977 
" style="fill:none;stroke:#b0b0b0;stroke-linecap:square;stroke-width:0.8;"/>
     </g>
     <g id="line2d_26">
      <g>
       <use style="stroke:#000000;stroke-width:0.8;" x="57.6" xlink:href="#m2eda78ac11" y="97.825977"/>
      </g>
     </g>
     <g id="text_14">
      <!-- ${10^{-7}}$ -->
      <g transform="translate(27.1 101.625195)scale(0.1 -0.1)">
       <use transform="translate(0 0.684375)" xlink:href="#DejaVuSans-31"/>
       <use transform="translate(63.623047 0.684375)" xlink:href="#DejaVuSans-30"/>
       <use transform="translate(128.203125 38.965625)scale(0.7)" xlink:href="#DejaVuSans-2212"/>
       <use transform="translate(186.855469 38.965625)scale(0.7)" xlink:href="#DejaVuSans-37"/>
      </g>
     </g>
    </g>
    <g id="ytick_7">
     <g id="line2d_27">
      <path clip-path="url(#pc681147001)" d="M 57.6 61.986074 
L 414.72 61.986074 
" style="fill:none;stroke:#b0b0b0;stroke-linecap:square;stroke-width:0.8;"/>
     </g>
     <g id="line2d_28">
      <g>
       <use style="stroke:#000000;stroke-width:0.8;" x="57.6" xlink:href="#m2eda78ac11" y="61.986074"/>
      </g>
     </g>
     <g id="text_15">
      <!-- ${10^{-2}}$ -->
      <g transform="translate(27.1 65.785293)scale(0.1 -0.1)">
       <use transform="translate(0 0.765625)" xlink:href="#DejaVuSans-31"/>
       <use transform="translate(63.623047 0.765625)" xlink:href="#DejaVuSans-30"/>
       <use transform="translate(128.203125 39.046875)scale(0.7)" xlink:href="#DejaVuSans-2212"/>
       <use transform="translate(186.855469 39.046875)scale(0.7)" xlink:href="#DejaVuSans-32"/>
      </g>
     </g>
    </g>
    <g id="text_16">
     <!-- $\omega_i$ -->
     <defs>
      <path d="M 21.390625 -1.421875 
Q 1.125 -1.421875 6.78125 27.59375 
Q 8.984375 39.0625 19.625 54.6875 
L 29.296875 54.6875 
Q 19.234375 39.0625 17 27.34375 
Q 12.796875 6.203125 23.734375 6.203125 
Q 33.84375 6.203125 38.71875 32.46875 
L 47.015625 32.46875 
Q 41.703125 6.0625 51.8125 6.203125 
Q 62.703125 6.296875 66.796875 27.34375 
Q 69.046875 39.0625 65.140625 54.6875 
L 74.8125 54.6875 
Q 79.296875 39.0625 77.09375 27.59375 
Q 71.53125 -1.46875 51.21875 -1.421875 
Q 37.9375 -1.375 39.109375 13.1875 
Q 34.28125 -1.421875 21.390625 -1.421875 
" id="DejaVuSans-Oblique-3c9"/>
     </defs>
     <g transform="translate(16.620312 179.828)rotate(-90)scale(0.1 -0.1)">
      <use transform="translate(0 0.3125)" xlink:href="#DejaVuSans-Oblique-3c9"/>
      <use transform="translate(83.740234 -16.09375)scale(0.7)" xlink:href="#DejaVuSans-Oblique-69"/>
     </g>
    </g>
   </g>
   <g id="line2d_29">
    <defs>
     <path d="M 0 3 
C 0.795609 3 1.55874 2.683901 2.12132 2.12132 
C 2.683901 1.55874 3 0.795609 3 0 
C 3 -0.795609 2.683901 -1.55874 2.12132 -2.12132 
C 1.55874 -2.683901 0.795609 -3 0 -3 
C -0.795609 -3 -1.55874 -2.683901 -2.12132 -2.12132 
C -2.683901 -1.55874 -3 -0.795609 -3 0 
C -3 0.795609 -2.683901 1.55874 -2.12132 2.12132 
C -1.55874 2.683901 -0.795609 3 0 3 
z
" id="m0ed01008f1" style="stroke:#1f77b4;"/>
    </defs>
    <g clip-path="url(#pc681147001)">
     <use style="fill:#1f77b4;stroke:#1f77b4;" x="365.634115" xlink:href="#m0ed01008f1" y="211.38802"/>
     <use style="fill:#1f77b4;stroke:#1f77b4;" x="334.994941" xlink:href="#m0ed01008f1" y="145.395924"/>
     <use style="fill:#1f77b4;stroke:#1f77b4;" x="342.139186" xlink:href="#m0ed01008f1" y="159.218469"/>
     <use style="fill:#1f77b4;stroke:#1f77b4;" x="97.737729" xlink:href="#m0ed01008f1" y="233.931107"/>
     <use style="fill:#1f77b4;stroke:#1f77b4;" x="349.568929" xlink:href="#m0ed01008f1" y="174.606462"/>
     <use style="fill:#1f77b4;stroke:#1f77b4;" x="357.361489" xlink:href="#m0ed01008f1" y="191.851"/>
     <use style="fill:#1f77b4;stroke:#1f77b4;" x="384.585565" xlink:href="#m0ed01008f1" y="260.830602"/>
     <use style="fill:#1f77b4;stroke:#1f77b4;" x="75.680668" xlink:href="#m0ed01008f1" y="295.488"/>
     <use style="fill:#1f77b4;stroke:#1f77b4;" x="396.639332" xlink:href="#m0ed01008f1" y="295.488"/>
     <use style="fill:#1f77b4;stroke:#1f77b4;" x="137.325059" xlink:href="#m0ed01008f1" y="145.395924"/>
     <use style="fill:#1f77b4;stroke:#1f77b4;" x="374.582271" xlink:href="#m0ed01008f1" y="233.931107"/>
     <use style="fill:#1f77b4;stroke:#1f77b4;" x="182.585907" xlink:href="#m0ed01008f1" y="80.156101"/>
     <use style="fill:#1f77b4;stroke:#1f77b4;" x="176.465753" xlink:href="#m0ed01008f1" y="86.71533"/>
     <use style="fill:#1f77b4;stroke:#1f77b4;" x="144.238213" xlink:href="#m0ed01008f1" y="132.932409"/>
     <use style="fill:#1f77b4;stroke:#1f77b4;" x="150.960426" xlink:href="#m0ed01008f1" y="121.675128"/>
     <use style="fill:#1f77b4;stroke:#1f77b4;" x="265.967482" xlink:href="#m0ed01008f1" y="61.425971"/>
     <use style="fill:#1f77b4;stroke:#1f77b4;" x="87.734435" xlink:href="#m0ed01008f1" y="260.830602"/>
     <use style="fill:#1f77b4;stroke:#1f77b4;" x="163.948307" xlink:href="#m0ed01008f1" y="102.337625"/>
     <use style="fill:#1f77b4;stroke:#1f77b4;" x="212.127605" xlink:href="#m0ed01008f1" y="58.505551"/>
     <use style="fill:#1f77b4;stroke:#1f77b4;" x="170.257504" xlink:href="#m0ed01008f1" y="94.093219"/>
     <use style="fill:#1f77b4;stroke:#1f77b4;" x="114.958511" xlink:href="#m0ed01008f1" y="191.851"/>
     <use style="fill:#1f77b4;stroke:#1f77b4;" x="328.081787" xlink:href="#m0ed01008f1" y="132.932409"/>
     <use style="fill:#1f77b4;stroke:#1f77b4;" x="314.797592" xlink:href="#m0ed01008f1" y="111.507326"/>
     <use style="fill:#1f77b4;stroke:#1f77b4;" x="277.719203" xlink:href="#m0ed01008f1" y="69.344344"/>
     <use style="fill:#1f77b4;stroke:#1f77b4;" x="157.522408" xlink:href="#m0ed01008f1" y="111.507326"/>
     <use style="fill:#1f77b4;stroke:#1f77b4;" x="308.371693" xlink:href="#m0ed01008f1" y="102.337625"/>
     <use style="fill:#1f77b4;stroke:#1f77b4;" x="260.192395" xlink:href="#m0ed01008f1" y="58.505551"/>
     <use style="fill:#1f77b4;stroke:#1f77b4;" x="233.742161" xlink:href="#m0ed01008f1" y="53.568"/>
     <use style="fill:#1f77b4;stroke:#1f77b4;" x="188.628295" xlink:href="#m0ed01008f1" y="74.376409"/>
     <use style="fill:#1f77b4;stroke:#1f77b4;" x="228.716806" xlink:href="#m0ed01008f1" y="53.842933"/>
     <use style="fill:#1f77b4;stroke:#1f77b4;" x="130.180814" xlink:href="#m0ed01008f1" y="159.218469"/>
     <use style="fill:#1f77b4;stroke:#1f77b4;" x="248.944963" xlink:href="#m0ed01008f1" y="54.710555"/>
     <use style="fill:#1f77b4;stroke:#1f77b4;" x="106.685885" xlink:href="#m0ed01008f1" y="211.38802"/>
     <use style="fill:#1f77b4;stroke:#1f77b4;" x="283.691705" xlink:href="#m0ed01008f1" y="74.376409"/>
     <use style="fill:#1f77b4;stroke:#1f77b4;" x="206.352518" xlink:href="#m0ed01008f1" y="61.425971"/>
     <use style="fill:#1f77b4;stroke:#1f77b4;" x="194.600797" xlink:href="#m0ed01008f1" y="69.344344"/>
     <use style="fill:#1f77b4;stroke:#1f77b4;" x="321.359574" xlink:href="#m0ed01008f1" y="121.675128"/>
     <use style="fill:#1f77b4;stroke:#1f77b4;" x="254.503925" xlink:href="#m0ed01008f1" y="56.266095"/>
     <use style="fill:#1f77b4;stroke:#1f77b4;" x="295.854247" xlink:href="#m0ed01008f1" y="86.71533"/>
     <use style="fill:#1f77b4;stroke:#1f77b4;" x="238.577839" xlink:href="#m0ed01008f1" y="53.568"/>
     <use style="fill:#1f77b4;stroke:#1f77b4;" x="122.751071" xlink:href="#m0ed01008f1" y="174.606462"/>
     <use style="fill:#1f77b4;stroke:#1f77b4;" x="302.062496" xlink:href="#m0ed01008f1" y="94.093219"/>
     <use style="fill:#1f77b4;stroke:#1f77b4;" x="243.603194" xlink:href="#m0ed01008f1" y="53.842933"/>
     <use style="fill:#1f77b4;stroke:#1f77b4;" x="271.81152" xlink:href="#m0ed01008f1" y="65.034199"/>
     <use style="fill:#1f77b4;stroke:#1f77b4;" x="200.50848" xlink:href="#m0ed01008f1" y="65.034199"/>
     <use style="fill:#1f77b4;stroke:#1f77b4;" x="217.816075" xlink:href="#m0ed01008f1" y="56.266095"/>
     <use style="fill:#1f77b4;stroke:#1f77b4;" x="223.375037" xlink:href="#m0ed01008f1" y="54.710555"/>
     <use style="fill:#1f77b4;stroke:#1f77b4;" x="289.734093" xlink:href="#m0ed01008f1" y="80.156101"/>
    </g>
   </g>
   <g id="patch_3">
    <path d="M 57.6 307.584 
L 57.6 41.472 
" style="fill:none;stroke:#000000;stroke-linecap:square;stroke-linejoin:miter;stroke-width:0.8;"/>
   </g>
   <g id="patch_4">
    <path d="M 414.72 307.584 
L 414.72 41.472 
" style="fill:none;stroke:#000000;stroke-linecap:square;stroke-linejoin:miter;stroke-width:0.8;"/>
   </g>
   <g id="patch_5">
    <path d="M 57.6 307.584 
L 414.72 307.584 
" style="fill:none;stroke:#000000;stroke-linecap:square;stroke-linejoin:miter;stroke-width:0.8;"/>
   </g>
   <g id="patch_6">
    <path d="M 57.6 41.472 
L 414.72 41.472 
" style="fill:none;stroke:#000000;stroke-linecap:square;stroke-linejoin:miter;stroke-width:0.8;"/>
   </g>
  </g>
 </g>
 <defs>
  <clipPath id="pc681147001">
   <rect height="266.112" width="357.12" x="57.6" y="41.472"/>
  </clipPath>
 </defs>
</svg>
