<?xml version="1.0" encoding="utf-8" standalone="no"?>
<!DOCTYPE svg PUBLIC "-//W3C//DTD SVG 1.1//EN"
  "http://www.w3.org/Graphics/SVG/1.1/DTD/svg11.dtd">
<!-- Created with matplotlib (http://matplotlib.org/) -->
<svg height="345pt" version="1.1" viewBox="0 0 460 345" width="460pt" xmlns="http://www.w3.org/2000/svg" xmlns:xlink="http://www.w3.org/1999/xlink">
 <defs>
  <style type="text/css">
*{stroke-linecap:butt;stroke-linejoin:round;}
  </style>
 </defs>
 <g id="figure_1">
  <g id="patch_1">
   <path d="M 0 345.6 
L 460.8 345.6 
L 460.8 0 
L 0 0 
z
" style="fill:#ffffff;"/>
  </g>
  <g id="axes_1">
   <g id="patch_2">
    <path d="M 57.6 307.584 
L 414.72 307.584 
L 414.72 41.472 
L 57.6 41.472 
z
" style="fill:#ffffff;"/>
   </g>
   <g id="matplotlib.axis_1">
    <g id="xtick_1">
     <g id="line2d_1">
      <path clip-path="url(#pb03b7cff45)" d="M 80.014661 307.584 
L 80.014661 41.472 
" style="fill:none;stroke:#b0b0b0;stroke-linecap:square;stroke-width:0.8;"/>
     </g>
     <g id="line2d_2">
      <defs>
       <path d="M 0 0 
L 0 3.5 
" id="m4542f4f9ac" style="stroke:#000000;stroke-width:0.8;"/>
      </defs>
      <g>
       <use style="stroke:#000000;stroke-width:0.8;" x="80.014661" xlink:href="#m4542f4f9ac" y="307.584"/>
      </g>
     </g>
     <g id="text_1">
      <!-- −10 -->
      <defs>
       <path d="M 10.59375 35.5 
L 73.1875 35.5 
L 73.1875 27.203125 
L 10.59375 27.203125 
z
" id="DejaVuSans-2212"/>
       <path d="M 12.40625 8.296875 
L 28.515625 8.296875 
L 28.515625 63.921875 
L 10.984375 60.40625 
L 10.984375 69.390625 
L 28.421875 72.90625 
L 38.28125 72.90625 
L 38.28125 8.296875 
L 54.390625 8.296875 
L 54.390625 0 
L 12.40625 0 
z
" id="DejaVuSans-31"/>
       <path d="M 31.78125 66.40625 
Q 24.171875 66.40625 20.328125 58.90625 
Q 16.5 51.421875 16.5 36.375 
Q 16.5 21.390625 20.328125 13.890625 
Q 24.171875 6.390625 31.78125 6.390625 
Q 39.453125 6.390625 43.28125 13.890625 
Q 47.125 21.390625 47.125 36.375 
Q 47.125 51.421875 43.28125 58.90625 
Q 39.453125 66.40625 31.78125 66.40625 
M 31.78125 74.21875 
Q 44.046875 74.21875 50.515625 64.515625 
Q 56.984375 54.828125 56.984375 36.375 
Q 56.984375 17.96875 50.515625 8.265625 
Q 44.046875 -1.421875 31.78125 -1.421875 
Q 19.53125 -1.421875 13.0625 8.265625 
Q 6.59375 17.96875 6.59375 36.375 
Q 6.59375 54.828125 13.0625 64.515625 
Q 19.53125 74.21875 31.78125 74.21875 
" id="DejaVuSans-30"/>
      </defs>
      <g transform="translate(69.462318 322.182437)scale(0.1 -0.1)">
       <use xlink:href="#DejaVuSans-2212"/>
       <use x="83.789062" xlink:href="#DejaVuSans-31"/>
       <use x="147.412109" xlink:href="#DejaVuSans-30"/>
      </g>
     </g>
    </g>
    <g id="xtick_2">
     <g id="line2d_3">
      <path clip-path="url(#pb03b7cff45)" d="M 158.087331 307.584 
L 158.087331 41.472 
" style="fill:none;stroke:#b0b0b0;stroke-linecap:square;stroke-width:0.8;"/>
     </g>
     <g id="line2d_4">
      <g>
       <use style="stroke:#000000;stroke-width:0.8;" x="158.087331" xlink:href="#m4542f4f9ac" y="307.584"/>
      </g>
     </g>
     <g id="text_2">
      <!-- −5 -->
      <defs>
       <path d="M 10.796875 72.90625 
L 49.515625 72.90625 
L 49.515625 64.59375 
L 19.828125 64.59375 
L 19.828125 46.734375 
Q 21.96875 47.46875 24.109375 47.828125 
Q 26.265625 48.1875 28.421875 48.1875 
Q 40.625 48.1875 47.75 41.5 
Q 54.890625 34.8125 54.890625 23.390625 
Q 54.890625 11.625 47.5625 5.09375 
Q 40.234375 -1.421875 26.90625 -1.421875 
Q 22.3125 -1.421875 17.546875 -0.640625 
Q 12.796875 0.140625 7.71875 1.703125 
L 7.71875 11.625 
Q 12.109375 9.234375 16.796875 8.0625 
Q 21.484375 6.890625 26.703125 6.890625 
Q 35.15625 6.890625 40.078125 11.328125 
Q 45.015625 15.765625 45.015625 23.390625 
Q 45.015625 31 40.078125 35.4375 
Q 35.15625 39.890625 26.703125 39.890625 
Q 22.75 39.890625 18.8125 39.015625 
Q 14.890625 38.140625 10.796875 36.28125 
z
" id="DejaVuSans-35"/>
      </defs>
      <g transform="translate(150.716237 322.182437)scale(0.1 -0.1)">
       <use xlink:href="#DejaVuSans-2212"/>
       <use x="83.789062" xlink:href="#DejaVuSans-35"/>
      </g>
     </g>
    </g>
    <g id="xtick_3">
     <g id="line2d_5">
      <path clip-path="url(#pb03b7cff45)" d="M 236.16 307.584 
L 236.16 41.472 
" style="fill:none;stroke:#b0b0b0;stroke-linecap:square;stroke-width:0.8;"/>
     </g>
     <g id="line2d_6">
      <g>
       <use style="stroke:#000000;stroke-width:0.8;" x="236.16" xlink:href="#m4542f4f9ac" y="307.584"/>
      </g>
     </g>
     <g id="text_3">
      <!-- 0 -->
      <g transform="translate(232.97875 322.182437)scale(0.1 -0.1)">
       <use xlink:href="#DejaVuSans-30"/>
      </g>
     </g>
    </g>
    <g id="xtick_4">
     <g id="line2d_7">
      <path clip-path="url(#pb03b7cff45)" d="M 314.232669 307.584 
L 314.232669 41.472 
" style="fill:none;stroke:#b0b0b0;stroke-linecap:square;stroke-width:0.8;"/>
     </g>
     <g id="line2d_8">
      <g>
       <use style="stroke:#000000;stroke-width:0.8;" x="314.232669" xlink:href="#m4542f4f9ac" y="307.584"/>
      </g>
     </g>
     <g id="text_4">
      <!-- 5 -->
      <g transform="translate(311.051419 322.182437)scale(0.1 -0.1)">
       <use xlink:href="#DejaVuSans-35"/>
      </g>
     </g>
    </g>
    <g id="xtick_5">
     <g id="line2d_9">
      <path clip-path="url(#pb03b7cff45)" d="M 392.305339 307.584 
L 392.305339 41.472 
" style="fill:none;stroke:#b0b0b0;stroke-linecap:square;stroke-width:0.8;"/>
     </g>
     <g id="line2d_10">
      <g>
       <use style="stroke:#000000;stroke-width:0.8;" x="392.305339" xlink:href="#m4542f4f9ac" y="307.584"/>
      </g>
     </g>
     <g id="text_5">
      <!-- 10 -->
      <g transform="translate(385.942839 322.182437)scale(0.1 -0.1)">
       <use xlink:href="#DejaVuSans-31"/>
       <use x="63.623047" xlink:href="#DejaVuSans-30"/>
      </g>
     </g>
    </g>
    <g id="text_6">
     <!-- $\gamma_i$ -->
     <defs>
      <path d="M 23.296875 46.09375 
L 28.71875 12.3125 
L 54 54.6875 
L 63.53125 54.6875 
L 30.8125 0 
L 26.765625 -20.796875 
L 17.78125 -20.796875 
L 21.828125 0 
L 15.4375 40.828125 
Q 14.453125 46.96875 9.8125 46.96875 
L 7.421875 46.96875 
L 8.890625 54.6875 
L 12.3125 54.6875 
Q 21.921875 54.6875 23.296875 46.09375 
" id="DejaVuSans-Oblique-3b3"/>
      <path d="M 18.3125 75.984375 
L 27.296875 75.984375 
L 25.09375 64.59375 
L 16.109375 64.59375 
z
M 14.203125 54.6875 
L 23.1875 54.6875 
L 12.5 0 
L 3.515625 0 
z
" id="DejaVuSans-Oblique-69"/>
     </defs>
     <g transform="translate(232.06 335.84025)scale(0.1 -0.1)">
      <use transform="translate(0 0.3125)" xlink:href="#DejaVuSans-Oblique-3b3"/>
      <use transform="translate(59.179688 -16.09375)scale(0.7)" xlink:href="#DejaVuSans-Oblique-69"/>
     </g>
    </g>
   </g>
   <g id="matplotlib.axis_2">
    <g id="ytick_1">
     <g id="line2d_11">
      <path clip-path="url(#pb03b7cff45)" d="M 57.6 281.660961 
L 414.72 281.660961 
" style="fill:none;stroke:#b0b0b0;stroke-linecap:square;stroke-width:0.8;"/>
     </g>
     <g id="line2d_12">
      <defs>
       <path d="M 0 0 
L -3.5 0 
" id="m72668122c4" style="stroke:#000000;stroke-width:0.8;"/>
      </defs>
      <g>
       <use style="stroke:#000000;stroke-width:0.8;" x="57.6" xlink:href="#m72668122c4" y="281.660961"/>
      </g>
     </g>
     <g id="text_7">
      <!-- ${10^{-45}}$ -->
      <defs>
       <path d="M 37.796875 64.3125 
L 12.890625 25.390625 
L 37.796875 25.390625 
z
M 35.203125 72.90625 
L 47.609375 72.90625 
L 47.609375 25.390625 
L 58.015625 25.390625 
L 58.015625 17.1875 
L 47.609375 17.1875 
L 47.609375 0 
L 37.796875 0 
L 37.796875 17.1875 
L 4.890625 17.1875 
L 4.890625 26.703125 
z
" id="DejaVuSans-34"/>
      </defs>
      <g transform="translate(22.7 285.46018)scale(0.1 -0.1)">
       <use transform="translate(0 0.684375)" xlink:href="#DejaVuSans-31"/>
       <use transform="translate(63.623047 0.684375)" xlink:href="#DejaVuSans-30"/>
       <use transform="translate(128.203125 38.965625)scale(0.7)" xlink:href="#DejaVuSans-2212"/>
       <use transform="translate(186.855469 38.965625)scale(0.7)" xlink:href="#DejaVuSans-34"/>
       <use transform="translate(231.391602 38.965625)scale(0.7)" xlink:href="#DejaVuSans-35"/>
      </g>
     </g>
    </g>
    <g id="ytick_2">
     <g id="line2d_13">
      <path clip-path="url(#pb03b7cff45)" d="M 57.6 250.69578 
L 414.72 250.69578 
" style="fill:none;stroke:#b0b0b0;stroke-linecap:square;stroke-width:0.8;"/>
     </g>
     <g id="line2d_14">
      <g>
       <use style="stroke:#000000;stroke-width:0.8;" x="57.6" xlink:href="#m72668122c4" y="250.69578"/>
      </g>
     </g>
     <g id="text_8">
      <!-- ${10^{-39}}$ -->
      <defs>
       <path d="M 40.578125 39.3125 
Q 47.65625 37.796875 51.625 33 
Q 55.609375 28.21875 55.609375 21.1875 
Q 55.609375 10.40625 48.1875 4.484375 
Q 40.765625 -1.421875 27.09375 -1.421875 
Q 22.515625 -1.421875 17.65625 -0.515625 
Q 12.796875 0.390625 7.625 2.203125 
L 7.625 11.71875 
Q 11.71875 9.328125 16.59375 8.109375 
Q 21.484375 6.890625 26.8125 6.890625 
Q 36.078125 6.890625 40.9375 10.546875 
Q 45.796875 14.203125 45.796875 21.1875 
Q 45.796875 27.640625 41.28125 31.265625 
Q 36.765625 34.90625 28.71875 34.90625 
L 20.21875 34.90625 
L 20.21875 43.015625 
L 29.109375 43.015625 
Q 36.375 43.015625 40.234375 45.921875 
Q 44.09375 48.828125 44.09375 54.296875 
Q 44.09375 59.90625 40.109375 62.90625 
Q 36.140625 65.921875 28.71875 65.921875 
Q 24.65625 65.921875 20.015625 65.03125 
Q 15.375 64.15625 9.8125 62.3125 
L 9.8125 71.09375 
Q 15.4375 72.65625 20.34375 73.4375 
Q 25.25 74.21875 29.59375 74.21875 
Q 40.828125 74.21875 47.359375 69.109375 
Q 53.90625 64.015625 53.90625 55.328125 
Q 53.90625 49.265625 50.4375 45.09375 
Q 46.96875 40.921875 40.578125 39.3125 
" id="DejaVuSans-33"/>
       <path d="M 10.984375 1.515625 
L 10.984375 10.5 
Q 14.703125 8.734375 18.5 7.8125 
Q 22.3125 6.890625 25.984375 6.890625 
Q 35.75 6.890625 40.890625 13.453125 
Q 46.046875 20.015625 46.78125 33.40625 
Q 43.953125 29.203125 39.59375 26.953125 
Q 35.25 24.703125 29.984375 24.703125 
Q 19.046875 24.703125 12.671875 31.3125 
Q 6.296875 37.9375 6.296875 49.421875 
Q 6.296875 60.640625 12.9375 67.421875 
Q 19.578125 74.21875 30.609375 74.21875 
Q 43.265625 74.21875 49.921875 64.515625 
Q 56.59375 54.828125 56.59375 36.375 
Q 56.59375 19.140625 48.40625 8.859375 
Q 40.234375 -1.421875 26.421875 -1.421875 
Q 22.703125 -1.421875 18.890625 -0.6875 
Q 15.09375 0.046875 10.984375 1.515625 
M 30.609375 32.421875 
Q 37.25 32.421875 41.125 36.953125 
Q 45.015625 41.5 45.015625 49.421875 
Q 45.015625 57.28125 41.125 61.84375 
Q 37.25 66.40625 30.609375 66.40625 
Q 23.96875 66.40625 20.09375 61.84375 
Q 16.21875 57.28125 16.21875 49.421875 
Q 16.21875 41.5 20.09375 36.953125 
Q 23.96875 32.421875 30.609375 32.421875 
" id="DejaVuSans-39"/>
      </defs>
      <g transform="translate(22.7 254.494999)scale(0.1 -0.1)">
       <use transform="translate(0 0.765625)" xlink:href="#DejaVuSans-31"/>
       <use transform="translate(63.623047 0.765625)" xlink:href="#DejaVuSans-30"/>
       <use transform="translate(128.203125 39.046875)scale(0.7)" xlink:href="#DejaVuSans-2212"/>
       <use transform="translate(186.855469 39.046875)scale(0.7)" xlink:href="#DejaVuSans-33"/>
       <use transform="translate(231.391602 39.046875)scale(0.7)" xlink:href="#DejaVuSans-39"/>
      </g>
     </g>
    </g>
    <g id="ytick_3">
     <g id="line2d_15">
      <path clip-path="url(#pb03b7cff45)" d="M 57.6 219.7306 
L 414.72 219.7306 
" style="fill:none;stroke:#b0b0b0;stroke-linecap:square;stroke-width:0.8;"/>
     </g>
     <g id="line2d_16">
      <g>
       <use style="stroke:#000000;stroke-width:0.8;" x="57.6" xlink:href="#m72668122c4" y="219.7306"/>
      </g>
     </g>
     <g id="text_9">
      <!-- ${10^{-33}}$ -->
      <g transform="translate(22.7 223.529818)scale(0.1 -0.1)">
       <use transform="translate(0 0.765625)" xlink:href="#DejaVuSans-31"/>
       <use transform="translate(63.623047 0.765625)" xlink:href="#DejaVuSans-30"/>
       <use transform="translate(128.203125 39.046875)scale(0.7)" xlink:href="#DejaVuSans-2212"/>
       <use transform="translate(186.855469 39.046875)scale(0.7)" xlink:href="#DejaVuSans-33"/>
       <use transform="translate(231.391602 39.046875)scale(0.7)" xlink:href="#DejaVuSans-33"/>
      </g>
     </g>
    </g>
    <g id="ytick_4">
     <g id="line2d_17">
      <path clip-path="url(#pb03b7cff45)" d="M 57.6 188.765419 
L 414.72 188.765419 
" style="fill:none;stroke:#b0b0b0;stroke-linecap:square;stroke-width:0.8;"/>
     </g>
     <g id="line2d_18">
      <g>
       <use style="stroke:#000000;stroke-width:0.8;" x="57.6" xlink:href="#m72668122c4" y="188.765419"/>
      </g>
     </g>
     <g id="text_10">
      <!-- ${10^{-27}}$ -->
      <defs>
       <path d="M 19.1875 8.296875 
L 53.609375 8.296875 
L 53.609375 0 
L 7.328125 0 
L 7.328125 8.296875 
Q 12.9375 14.109375 22.625 23.890625 
Q 32.328125 33.6875 34.8125 36.53125 
Q 39.546875 41.84375 41.421875 45.53125 
Q 43.3125 49.21875 43.3125 52.78125 
Q 43.3125 58.59375 39.234375 62.25 
Q 35.15625 65.921875 28.609375 65.921875 
Q 23.96875 65.921875 18.8125 64.3125 
Q 13.671875 62.703125 7.8125 59.421875 
L 7.8125 69.390625 
Q 13.765625 71.78125 18.9375 73 
Q 24.125 74.21875 28.421875 74.21875 
Q 39.75 74.21875 46.484375 68.546875 
Q 53.21875 62.890625 53.21875 53.421875 
Q 53.21875 48.921875 51.53125 44.890625 
Q 49.859375 40.875 45.40625 35.40625 
Q 44.1875 33.984375 37.640625 27.21875 
Q 31.109375 20.453125 19.1875 8.296875 
" id="DejaVuSans-32"/>
       <path d="M 8.203125 72.90625 
L 55.078125 72.90625 
L 55.078125 68.703125 
L 28.609375 0 
L 18.3125 0 
L 43.21875 64.59375 
L 8.203125 64.59375 
z
" id="DejaVuSans-37"/>
      </defs>
      <g transform="translate(22.7 192.564637)scale(0.1 -0.1)">
       <use transform="translate(0 0.765625)" xlink:href="#DejaVuSans-31"/>
       <use transform="translate(63.623047 0.765625)" xlink:href="#DejaVuSans-30"/>
       <use transform="translate(128.203125 39.046875)scale(0.7)" xlink:href="#DejaVuSans-2212"/>
       <use transform="translate(186.855469 39.046875)scale(0.7)" xlink:href="#DejaVuSans-32"/>
       <use transform="translate(231.391602 39.046875)scale(0.7)" xlink:href="#DejaVuSans-37"/>
      </g>
     </g>
    </g>
    <g id="ytick_5">
     <g id="line2d_19">
      <path clip-path="url(#pb03b7cff45)" d="M 57.6 157.800238 
L 414.72 157.800238 
" style="fill:none;stroke:#b0b0b0;stroke-linecap:square;stroke-width:0.8;"/>
     </g>
     <g id="line2d_20">
      <g>
       <use style="stroke:#000000;stroke-width:0.8;" x="57.6" xlink:href="#m72668122c4" y="157.800238"/>
      </g>
     </g>
     <g id="text_11">
      <!-- ${10^{-21}}$ -->
      <g transform="translate(22.7 161.599457)scale(0.1 -0.1)">
       <use transform="translate(0 0.765625)" xlink:href="#DejaVuSans-31"/>
       <use transform="translate(63.623047 0.765625)" xlink:href="#DejaVuSans-30"/>
       <use transform="translate(128.203125 39.046875)scale(0.7)" xlink:href="#DejaVuSans-2212"/>
       <use transform="translate(186.855469 39.046875)scale(0.7)" xlink:href="#DejaVuSans-32"/>
       <use transform="translate(231.391602 39.046875)scale(0.7)" xlink:href="#DejaVuSans-31"/>
      </g>
     </g>
    </g>
    <g id="ytick_6">
     <g id="line2d_21">
      <path clip-path="url(#pb03b7cff45)" d="M 57.6 126.835057 
L 414.72 126.835057 
" style="fill:none;stroke:#b0b0b0;stroke-linecap:square;stroke-width:0.8;"/>
     </g>
     <g id="line2d_22">
      <g>
       <use style="stroke:#000000;stroke-width:0.8;" x="57.6" xlink:href="#m72668122c4" y="126.835057"/>
      </g>
     </g>
     <g id="text_12">
      <!-- ${10^{-15}}$ -->
      <g transform="translate(22.7 130.634276)scale(0.1 -0.1)">
       <use transform="translate(0 0.684375)" xlink:href="#DejaVuSans-31"/>
       <use transform="translate(63.623047 0.684375)" xlink:href="#DejaVuSans-30"/>
       <use transform="translate(128.203125 38.965625)scale(0.7)" xlink:href="#DejaVuSans-2212"/>
       <use transform="translate(186.855469 38.965625)scale(0.7)" xlink:href="#DejaVuSans-31"/>
       <use transform="translate(231.391602 38.965625)scale(0.7)" xlink:href="#DejaVuSans-35"/>
      </g>
     </g>
    </g>
    <g id="ytick_7">
     <g id="line2d_23">
      <path clip-path="url(#pb03b7cff45)" d="M 57.6 95.869876 
L 414.72 95.869876 
" style="fill:none;stroke:#b0b0b0;stroke-linecap:square;stroke-width:0.8;"/>
     </g>
     <g id="line2d_24">
      <g>
       <use style="stroke:#000000;stroke-width:0.8;" x="57.6" xlink:href="#m72668122c4" y="95.869876"/>
      </g>
     </g>
     <g id="text_13">
      <!-- ${10^{-9}}$ -->
      <g transform="translate(27.1 99.669095)scale(0.1 -0.1)">
       <use transform="translate(0 0.765625)" xlink:href="#DejaVuSans-31"/>
       <use transform="translate(63.623047 0.765625)" xlink:href="#DejaVuSans-30"/>
       <use transform="translate(128.203125 39.046875)scale(0.7)" xlink:href="#DejaVuSans-2212"/>
       <use transform="translate(186.855469 39.046875)scale(0.7)" xlink:href="#DejaVuSans-39"/>
      </g>
     </g>
    </g>
    <g id="ytick_8">
     <g id="line2d_25">
      <path clip-path="url(#pb03b7cff45)" d="M 57.6 64.904695 
L 414.72 64.904695 
" style="fill:none;stroke:#b0b0b0;stroke-linecap:square;stroke-width:0.8;"/>
     </g>
     <g id="line2d_26">
      <g>
       <use style="stroke:#000000;stroke-width:0.8;" x="57.6" xlink:href="#m72668122c4" y="64.904695"/>
      </g>
     </g>
     <g id="text_14">
      <!-- ${10^{-3}}$ -->
      <g transform="translate(27.1 68.703914)scale(0.1 -0.1)">
       <use transform="translate(0 0.765625)" xlink:href="#DejaVuSans-31"/>
       <use transform="translate(63.623047 0.765625)" xlink:href="#DejaVuSans-30"/>
       <use transform="translate(128.203125 39.046875)scale(0.7)" xlink:href="#DejaVuSans-2212"/>
       <use transform="translate(186.855469 39.046875)scale(0.7)" xlink:href="#DejaVuSans-33"/>
      </g>
     </g>
    </g>
    <g id="text_15">
     <!-- $\omega_i$ -->
     <defs>
      <path d="M 21.390625 -1.421875 
Q 1.125 -1.421875 6.78125 27.59375 
Q 8.984375 39.0625 19.625 54.6875 
L 29.296875 54.6875 
Q 19.234375 39.0625 17 27.34375 
Q 12.796875 6.203125 23.734375 6.203125 
Q 33.84375 6.203125 38.71875 32.46875 
L 47.015625 32.46875 
Q 41.703125 6.0625 51.8125 6.203125 
Q 62.703125 6.296875 66.796875 27.34375 
Q 69.046875 39.0625 65.140625 54.6875 
L 74.8125 54.6875 
Q 79.296875 39.0625 77.09375 27.59375 
Q 71.53125 -1.46875 51.21875 -1.421875 
Q 37.9375 -1.375 39.109375 13.1875 
Q 34.28125 -1.421875 21.390625 -1.421875 
" id="DejaVuSans-Oblique-3c9"/>
     </defs>
     <g transform="translate(16.620312 179.828)rotate(-90)scale(0.1 -0.1)">
      <use transform="translate(0 0.3125)" xlink:href="#DejaVuSans-Oblique-3c9"/>
      <use transform="translate(83.740234 -16.09375)scale(0.7)" xlink:href="#DejaVuSans-Oblique-69"/>
     </g>
    </g>
   </g>
   <g id="line2d_27">
    <defs>
     <path d="M 0 3 
C 0.795609 3 1.55874 2.683901 2.12132 2.12132 
C 2.683901 1.55874 3 0.795609 3 0 
C 3 -0.795609 2.683901 -1.55874 2.12132 -2.12132 
C 1.55874 -2.683901 0.795609 -3 0 -3 
C -0.795609 -3 -1.55874 -2.683901 -2.12132 -2.12132 
C -2.683901 -1.55874 -3 -0.795609 -3 0 
C -3 0.795609 -2.683901 1.55874 -2.12132 2.12132 
C -1.55874 2.683901 -0.795609 3 0 3 
z
" id="mf958e309ab" style="stroke:#1f77b4;"/>
    </defs>
    <g clip-path="url(#pb03b7cff45)">
     <use style="fill:#1f77b4;stroke:#1f77b4;" x="83.092661" xlink:href="#mf958e309ab" y="267.373158"/>
     <use style="fill:#1f77b4;stroke:#1f77b4;" x="159.681546" xlink:href="#mf958e309ab" y="107.101797"/>
     <use style="fill:#1f77b4;stroke:#1f77b4;" x="173.895955" xlink:href="#mf958e309ab" y="89.056942"/>
     <use style="fill:#1f77b4;stroke:#1f77b4;" x="205.534998" xlink:href="#mf958e309ab" y="62.155394"/>
     <use style="fill:#1f77b4;stroke:#1f77b4;" x="183.111467" xlink:href="#mf958e309ab" y="79.331176"/>
     <use style="fill:#1f77b4;stroke:#1f77b4;" x="201.104224" xlink:href="#mf958e309ab" y="64.819745"/>
     <use style="fill:#1f77b4;stroke:#1f77b4;" x="154.811433" xlink:href="#mf958e309ab" y="114.132899"/>
     <use style="fill:#1f77b4;stroke:#1f77b4;" x="187.657775" xlink:href="#mf958e309ab" y="75.105254"/>
     <use style="fill:#1f77b4;stroke:#1f77b4;" x="73.214534" xlink:href="#mf958e309ab" y="295.488"/>
     <use style="fill:#1f77b4;stroke:#1f77b4;" x="91.269587" xlink:href="#mf958e309ab" y="245.287091"/>
     <use style="fill:#1f77b4;stroke:#1f77b4;" x="111.624801" xlink:href="#mf958e309ab" y="195.361271"/>
     <use style="fill:#1f77b4;stroke:#1f77b4;" x="98.566943" xlink:href="#mf958e309ab" y="226.54684"/>
     <use style="fill:#1f77b4;stroke:#1f77b4;" x="144.818281" xlink:href="#mf958e309ab" y="129.914772"/>
     <use style="fill:#1f77b4;stroke:#1f77b4;" x="117.643509" xlink:href="#mf958e309ab" y="182.014708"/>
     <use style="fill:#1f77b4;stroke:#1f77b4;" x="139.670956" xlink:href="#mf958e309ab" y="138.753697"/>
     <use style="fill:#1f77b4;stroke:#1f77b4;" x="178.525855" xlink:href="#mf958e309ab" y="83.976586"/>
     <use style="fill:#1f77b4;stroke:#1f77b4;" x="123.41812" xlink:href="#mf958e309ab" y="169.823429"/>
     <use style="fill:#1f77b4;stroke:#1f77b4;" x="209.945832" xlink:href="#mf958e309ab" y="59.859997"/>
     <use style="fill:#1f77b4;stroke:#1f77b4;" x="196.650176" xlink:href="#mf958e309ab" y="67.860267"/>
     <use style="fill:#1f77b4;stroke:#1f77b4;" x="192.169299" xlink:href="#mf958e309ab" y="71.285461"/>
     <use style="fill:#1f77b4;stroke:#1f77b4;" x="105.298209" xlink:href="#mf958e309ab" y="210.091428"/>
     <use style="fill:#1f77b4;stroke:#1f77b4;" x="218.720147" xlink:href="#mf958e309ab" y="56.352921"/>
     <use style="fill:#1f77b4;stroke:#1f77b4;" x="169.216225" xlink:href="#mf958e309ab" y="94.590156"/>
     <use style="fill:#1f77b4;stroke:#1f77b4;" x="128.993481" xlink:href="#mf958e309ab" y="158.6252"/>
     <use style="fill:#1f77b4;stroke:#1f77b4;" x="149.8607" xlink:href="#mf958e309ab" y="121.723896"/>
     <use style="fill:#1f77b4;stroke:#1f77b4;" x="223.089525" xlink:href="#mf958e309ab" y="55.132277"/>
     <use style="fill:#1f77b4;stroke:#1f77b4;" x="164.480443" xlink:href="#mf958e309ab" y="100.597025"/>
     <use style="fill:#1f77b4;stroke:#1f77b4;" x="214.33988" xlink:href="#mf958e309ab" y="57.9275"/>
     <use style="fill:#1f77b4;stroke:#1f77b4;" x="134.402662" xlink:href="#mf958e309ab" y="148.299492"/>
     <use style="fill:#1f77b4;stroke:#1f77b4;" x="343.326519" xlink:href="#mf958e309ab" y="158.6252"/>
     <use style="fill:#1f77b4;stroke:#1f77b4;" x="373.753057" xlink:href="#mf958e309ab" y="226.54684"/>
     <use style="fill:#1f77b4;stroke:#1f77b4;" x="337.917338" xlink:href="#mf958e309ab" y="148.299492"/>
     <use style="fill:#1f77b4;stroke:#1f77b4;" x="399.105466" xlink:href="#mf958e309ab" y="295.488"/>
     <use style="fill:#1f77b4;stroke:#1f77b4;" x="249.230475" xlink:href="#mf958e309ab" y="55.132277"/>
     <use style="fill:#1f77b4;stroke:#1f77b4;" x="360.695199" xlink:href="#mf958e309ab" y="195.361271"/>
     <use style="fill:#1f77b4;stroke:#1f77b4;" x="298.424045" xlink:href="#mf958e309ab" y="89.056942"/>
     <use style="fill:#1f77b4;stroke:#1f77b4;" x="284.662225" xlink:href="#mf958e309ab" y="75.105254"/>
     <use style="fill:#1f77b4;stroke:#1f77b4;" x="367.021791" xlink:href="#mf958e309ab" y="210.091428"/>
     <use style="fill:#1f77b4;stroke:#1f77b4;" x="381.050413" xlink:href="#mf958e309ab" y="245.287091"/>
     <use style="fill:#1f77b4;stroke:#1f77b4;" x="327.501719" xlink:href="#mf958e309ab" y="129.914772"/>
     <use style="fill:#1f77b4;stroke:#1f77b4;" x="389.227339" xlink:href="#mf958e309ab" y="267.373158"/>
     <use style="fill:#1f77b4;stroke:#1f77b4;" x="348.90188" xlink:href="#mf958e309ab" y="169.823429"/>
     <use style="fill:#1f77b4;stroke:#1f77b4;" x="271.215776" xlink:href="#mf958e309ab" y="64.819745"/>
     <use style="fill:#1f77b4;stroke:#1f77b4;" x="253.599853" xlink:href="#mf958e309ab" y="56.352921"/>
     <use style="fill:#1f77b4;stroke:#1f77b4;" x="266.785002" xlink:href="#mf958e309ab" y="62.155394"/>
     <use style="fill:#1f77b4;stroke:#1f77b4;" x="293.794145" xlink:href="#mf958e309ab" y="83.976586"/>
     <use style="fill:#1f77b4;stroke:#1f77b4;" x="312.638454" xlink:href="#mf958e309ab" y="107.101797"/>
     <use style="fill:#1f77b4;stroke:#1f77b4;" x="317.508567" xlink:href="#mf958e309ab" y="114.132899"/>
     <use style="fill:#1f77b4;stroke:#1f77b4;" x="275.669824" xlink:href="#mf958e309ab" y="67.860267"/>
     <use style="fill:#1f77b4;stroke:#1f77b4;" x="354.676491" xlink:href="#mf958e309ab" y="182.014708"/>
     <use style="fill:#1f77b4;stroke:#1f77b4;" x="231.80674" xlink:href="#mf958e309ab" y="53.741526"/>
     <use style="fill:#1f77b4;stroke:#1f77b4;" x="280.150701" xlink:href="#mf958e309ab" y="71.285461"/>
     <use style="fill:#1f77b4;stroke:#1f77b4;" x="236.16" xlink:href="#mf958e309ab" y="53.568"/>
     <use style="fill:#1f77b4;stroke:#1f77b4;" x="332.649044" xlink:href="#mf958e309ab" y="138.753697"/>
     <use style="fill:#1f77b4;stroke:#1f77b4;" x="257.98012" xlink:href="#mf958e309ab" y="57.9275"/>
     <use style="fill:#1f77b4;stroke:#1f77b4;" x="289.208533" xlink:href="#mf958e309ab" y="79.331176"/>
     <use style="fill:#1f77b4;stroke:#1f77b4;" x="227.450812" xlink:href="#mf958e309ab" y="54.262527"/>
     <use style="fill:#1f77b4;stroke:#1f77b4;" x="322.4593" xlink:href="#mf958e309ab" y="121.723896"/>
     <use style="fill:#1f77b4;stroke:#1f77b4;" x="244.869188" xlink:href="#mf958e309ab" y="54.262527"/>
     <use style="fill:#1f77b4;stroke:#1f77b4;" x="303.103775" xlink:href="#mf958e309ab" y="94.590156"/>
     <use style="fill:#1f77b4;stroke:#1f77b4;" x="262.374168" xlink:href="#mf958e309ab" y="59.859997"/>
     <use style="fill:#1f77b4;stroke:#1f77b4;" x="307.839557" xlink:href="#mf958e309ab" y="100.597025"/>
     <use style="fill:#1f77b4;stroke:#1f77b4;" x="240.51326" xlink:href="#mf958e309ab" y="53.741526"/>
    </g>
   </g>
   <g id="patch_3">
    <path d="M 57.6 307.584 
L 57.6 41.472 
" style="fill:none;stroke:#000000;stroke-linecap:square;stroke-linejoin:miter;stroke-width:0.8;"/>
   </g>
   <g id="patch_4">
    <path d="M 414.72 307.584 
L 414.72 41.472 
" style="fill:none;stroke:#000000;stroke-linecap:square;stroke-linejoin:miter;stroke-width:0.8;"/>
   </g>
   <g id="patch_5">
    <path d="M 57.6 307.584 
L 414.72 307.584 
" style="fill:none;stroke:#000000;stroke-linecap:square;stroke-linejoin:miter;stroke-width:0.8;"/>
   </g>
   <g id="patch_6">
    <path d="M 57.6 41.472 
L 414.72 41.472 
" style="fill:none;stroke:#000000;stroke-linecap:square;stroke-linejoin:miter;stroke-width:0.8;"/>
   </g>
  </g>
 </g>
 <defs>
  <clipPath id="pb03b7cff45">
   <rect height="266.112" width="357.12" x="57.6" y="41.472"/>
  </clipPath>
 </defs>
</svg>
