<?xml version="1.0" encoding="utf-8" standalone="no"?>
<!DOCTYPE svg PUBLIC "-//W3C//DTD SVG 1.1//EN"
  "http://www.w3.org/Graphics/SVG/1.1/DTD/svg11.dtd">
<!-- Created with matplotlib (http://matplotlib.org/) -->
<svg height="345pt" version="1.1" viewBox="0 0 460 345" width="460pt" xmlns="http://www.w3.org/2000/svg" xmlns:xlink="http://www.w3.org/1999/xlink">
 <defs>
  <style type="text/css">
*{stroke-linecap:butt;stroke-linejoin:round;}
  </style>
 </defs>
 <g id="figure_1">
  <g id="patch_1">
   <path d="M 0 345.6 
L 460.8 345.6 
L 460.8 0 
L 0 0 
z
" style="fill:#ffffff;"/>
  </g>
  <g id="axes_1">
   <g id="patch_2">
    <path d="M 57.6 307.584 
L 414.72 307.584 
L 414.72 41.472 
L 57.6 41.472 
z
" style="fill:#ffffff;"/>
   </g>
   <g id="matplotlib.axis_1">
    <g id="xtick_1">
     <g id="line2d_1">
      <path clip-path="url(#p7b9c8eec3d)" d="M 63.266066 307.584 
L 63.266066 41.472 
" style="fill:none;stroke:#b0b0b0;stroke-linecap:square;stroke-width:0.8;"/>
     </g>
     <g id="line2d_2">
      <defs>
       <path d="M 0 0 
L 0 3.5 
" id="med6e43e40b" style="stroke:#000000;stroke-width:0.8;"/>
      </defs>
      <g>
       <use style="stroke:#000000;stroke-width:0.8;" x="63.266066" xlink:href="#med6e43e40b" y="307.584"/>
      </g>
     </g>
     <g id="text_1">
      <!-- −15 -->
      <defs>
       <path d="M 10.59375 35.5 
L 73.1875 35.5 
L 73.1875 27.203125 
L 10.59375 27.203125 
z
" id="DejaVuSans-2212"/>
       <path d="M 12.40625 8.296875 
L 28.515625 8.296875 
L 28.515625 63.921875 
L 10.984375 60.40625 
L 10.984375 69.390625 
L 28.421875 72.90625 
L 38.28125 72.90625 
L 38.28125 8.296875 
L 54.390625 8.296875 
L 54.390625 0 
L 12.40625 0 
z
" id="DejaVuSans-31"/>
       <path d="M 10.796875 72.90625 
L 49.515625 72.90625 
L 49.515625 64.59375 
L 19.828125 64.59375 
L 19.828125 46.734375 
Q 21.96875 47.46875 24.109375 47.828125 
Q 26.265625 48.1875 28.421875 48.1875 
Q 40.625 48.1875 47.75 41.5 
Q 54.890625 34.8125 54.890625 23.390625 
Q 54.890625 11.625 47.5625 5.09375 
Q 40.234375 -1.421875 26.90625 -1.421875 
Q 22.3125 -1.421875 17.546875 -0.640625 
Q 12.796875 0.140625 7.71875 1.703125 
L 7.71875 11.625 
Q 12.109375 9.234375 16.796875 8.0625 
Q 21.484375 6.890625 26.703125 6.890625 
Q 35.15625 6.890625 40.078125 11.328125 
Q 45.015625 15.765625 45.015625 23.390625 
Q 45.015625 31 40.078125 35.4375 
Q 35.15625 39.890625 26.703125 39.890625 
Q 22.75 39.890625 18.8125 39.015625 
Q 14.890625 38.140625 10.796875 36.28125 
z
" id="DejaVuSans-35"/>
      </defs>
      <g transform="translate(52.713722 322.182437)scale(0.1 -0.1)">
       <use xlink:href="#DejaVuSans-2212"/>
       <use x="83.789062" xlink:href="#DejaVuSans-31"/>
       <use x="147.412109" xlink:href="#DejaVuSans-35"/>
      </g>
     </g>
    </g>
    <g id="xtick_2">
     <g id="line2d_3">
      <path clip-path="url(#p7b9c8eec3d)" d="M 120.897377 307.584 
L 120.897377 41.472 
" style="fill:none;stroke:#b0b0b0;stroke-linecap:square;stroke-width:0.8;"/>
     </g>
     <g id="line2d_4">
      <g>
       <use style="stroke:#000000;stroke-width:0.8;" x="120.897377" xlink:href="#med6e43e40b" y="307.584"/>
      </g>
     </g>
     <g id="text_2">
      <!-- −10 -->
      <defs>
       <path d="M 31.78125 66.40625 
Q 24.171875 66.40625 20.328125 58.90625 
Q 16.5 51.421875 16.5 36.375 
Q 16.5 21.390625 20.328125 13.890625 
Q 24.171875 6.390625 31.78125 6.390625 
Q 39.453125 6.390625 43.28125 13.890625 
Q 47.125 21.390625 47.125 36.375 
Q 47.125 51.421875 43.28125 58.90625 
Q 39.453125 66.40625 31.78125 66.40625 
M 31.78125 74.21875 
Q 44.046875 74.21875 50.515625 64.515625 
Q 56.984375 54.828125 56.984375 36.375 
Q 56.984375 17.96875 50.515625 8.265625 
Q 44.046875 -1.421875 31.78125 -1.421875 
Q 19.53125 -1.421875 13.0625 8.265625 
Q 6.59375 17.96875 6.59375 36.375 
Q 6.59375 54.828125 13.0625 64.515625 
Q 19.53125 74.21875 31.78125 74.21875 
" id="DejaVuSans-30"/>
      </defs>
      <g transform="translate(110.345034 322.182437)scale(0.1 -0.1)">
       <use xlink:href="#DejaVuSans-2212"/>
       <use x="83.789062" xlink:href="#DejaVuSans-31"/>
       <use x="147.412109" xlink:href="#DejaVuSans-30"/>
      </g>
     </g>
    </g>
    <g id="xtick_3">
     <g id="line2d_5">
      <path clip-path="url(#p7b9c8eec3d)" d="M 178.528689 307.584 
L 178.528689 41.472 
" style="fill:none;stroke:#b0b0b0;stroke-linecap:square;stroke-width:0.8;"/>
     </g>
     <g id="line2d_6">
      <g>
       <use style="stroke:#000000;stroke-width:0.8;" x="178.528689" xlink:href="#med6e43e40b" y="307.584"/>
      </g>
     </g>
     <g id="text_3">
      <!-- −5 -->
      <g transform="translate(171.157595 322.182437)scale(0.1 -0.1)">
       <use xlink:href="#DejaVuSans-2212"/>
       <use x="83.789062" xlink:href="#DejaVuSans-35"/>
      </g>
     </g>
    </g>
    <g id="xtick_4">
     <g id="line2d_7">
      <path clip-path="url(#p7b9c8eec3d)" d="M 236.16 307.584 
L 236.16 41.472 
" style="fill:none;stroke:#b0b0b0;stroke-linecap:square;stroke-width:0.8;"/>
     </g>
     <g id="line2d_8">
      <g>
       <use style="stroke:#000000;stroke-width:0.8;" x="236.16" xlink:href="#med6e43e40b" y="307.584"/>
      </g>
     </g>
     <g id="text_4">
      <!-- 0 -->
      <g transform="translate(232.97875 322.182437)scale(0.1 -0.1)">
       <use xlink:href="#DejaVuSans-30"/>
      </g>
     </g>
    </g>
    <g id="xtick_5">
     <g id="line2d_9">
      <path clip-path="url(#p7b9c8eec3d)" d="M 293.791311 307.584 
L 293.791311 41.472 
" style="fill:none;stroke:#b0b0b0;stroke-linecap:square;stroke-width:0.8;"/>
     </g>
     <g id="line2d_10">
      <g>
       <use style="stroke:#000000;stroke-width:0.8;" x="293.791311" xlink:href="#med6e43e40b" y="307.584"/>
      </g>
     </g>
     <g id="text_5">
      <!-- 5 -->
      <g transform="translate(290.610061 322.182437)scale(0.1 -0.1)">
       <use xlink:href="#DejaVuSans-35"/>
      </g>
     </g>
    </g>
    <g id="xtick_6">
     <g id="line2d_11">
      <path clip-path="url(#p7b9c8eec3d)" d="M 351.422623 307.584 
L 351.422623 41.472 
" style="fill:none;stroke:#b0b0b0;stroke-linecap:square;stroke-width:0.8;"/>
     </g>
     <g id="line2d_12">
      <g>
       <use style="stroke:#000000;stroke-width:0.8;" x="351.422623" xlink:href="#med6e43e40b" y="307.584"/>
      </g>
     </g>
     <g id="text_6">
      <!-- 10 -->
      <g transform="translate(345.060123 322.182437)scale(0.1 -0.1)">
       <use xlink:href="#DejaVuSans-31"/>
       <use x="63.623047" xlink:href="#DejaVuSans-30"/>
      </g>
     </g>
    </g>
    <g id="xtick_7">
     <g id="line2d_13">
      <path clip-path="url(#p7b9c8eec3d)" d="M 409.053934 307.584 
L 409.053934 41.472 
" style="fill:none;stroke:#b0b0b0;stroke-linecap:square;stroke-width:0.8;"/>
     </g>
     <g id="line2d_14">
      <g>
       <use style="stroke:#000000;stroke-width:0.8;" x="409.053934" xlink:href="#med6e43e40b" y="307.584"/>
      </g>
     </g>
     <g id="text_7">
      <!-- 15 -->
      <g transform="translate(402.691434 322.182437)scale(0.1 -0.1)">
       <use xlink:href="#DejaVuSans-31"/>
       <use x="63.623047" xlink:href="#DejaVuSans-35"/>
      </g>
     </g>
    </g>
    <g id="text_8">
     <!-- $\gamma_i$ -->
     <defs>
      <path d="M 23.296875 46.09375 
L 28.71875 12.3125 
L 54 54.6875 
L 63.53125 54.6875 
L 30.8125 0 
L 26.765625 -20.796875 
L 17.78125 -20.796875 
L 21.828125 0 
L 15.4375 40.828125 
Q 14.453125 46.96875 9.8125 46.96875 
L 7.421875 46.96875 
L 8.890625 54.6875 
L 12.3125 54.6875 
Q 21.921875 54.6875 23.296875 46.09375 
" id="DejaVuSans-Oblique-3b3"/>
      <path d="M 18.3125 75.984375 
L 27.296875 75.984375 
L 25.09375 64.59375 
L 16.109375 64.59375 
z
M 14.203125 54.6875 
L 23.1875 54.6875 
L 12.5 0 
L 3.515625 0 
z
" id="DejaVuSans-Oblique-69"/>
     </defs>
     <g transform="translate(232.06 335.84025)scale(0.1 -0.1)">
      <use transform="translate(0 0.3125)" xlink:href="#DejaVuSans-Oblique-3b3"/>
      <use transform="translate(59.179688 -16.09375)scale(0.7)" xlink:href="#DejaVuSans-Oblique-69"/>
     </g>
    </g>
   </g>
   <g id="matplotlib.axis_2">
    <g id="ytick_1">
     <g id="line2d_15">
      <path clip-path="url(#p7b9c8eec3d)" d="M 57.6 278.673709 
L 414.72 278.673709 
" style="fill:none;stroke:#b0b0b0;stroke-linecap:square;stroke-width:0.8;"/>
     </g>
     <g id="line2d_16">
      <defs>
       <path d="M 0 0 
L -3.5 0 
" id="me1f4809bcd" style="stroke:#000000;stroke-width:0.8;"/>
      </defs>
      <g>
       <use style="stroke:#000000;stroke-width:0.8;" x="57.6" xlink:href="#me1f4809bcd" y="278.673709"/>
      </g>
     </g>
     <g id="text_9">
      <!-- ${10^{-75}}$ -->
      <defs>
       <path d="M 8.203125 72.90625 
L 55.078125 72.90625 
L 55.078125 68.703125 
L 28.609375 0 
L 18.3125 0 
L 43.21875 64.59375 
L 8.203125 64.59375 
z
" id="DejaVuSans-37"/>
      </defs>
      <g transform="translate(22.7 282.472928)scale(0.1 -0.1)">
       <use transform="translate(0 0.684375)" xlink:href="#DejaVuSans-31"/>
       <use transform="translate(63.623047 0.684375)" xlink:href="#DejaVuSans-30"/>
       <use transform="translate(128.203125 38.965625)scale(0.7)" xlink:href="#DejaVuSans-2212"/>
       <use transform="translate(186.855469 38.965625)scale(0.7)" xlink:href="#DejaVuSans-37"/>
       <use transform="translate(231.391602 38.965625)scale(0.7)" xlink:href="#DejaVuSans-35"/>
      </g>
     </g>
    </g>
    <g id="ytick_2">
     <g id="line2d_17">
      <path clip-path="url(#p7b9c8eec3d)" d="M 57.6 248.268587 
L 414.72 248.268587 
" style="fill:none;stroke:#b0b0b0;stroke-linecap:square;stroke-width:0.8;"/>
     </g>
     <g id="line2d_18">
      <g>
       <use style="stroke:#000000;stroke-width:0.8;" x="57.6" xlink:href="#me1f4809bcd" y="248.268587"/>
      </g>
     </g>
     <g id="text_10">
      <!-- ${10^{-65}}$ -->
      <defs>
       <path d="M 33.015625 40.375 
Q 26.375 40.375 22.484375 35.828125 
Q 18.609375 31.296875 18.609375 23.390625 
Q 18.609375 15.53125 22.484375 10.953125 
Q 26.375 6.390625 33.015625 6.390625 
Q 39.65625 6.390625 43.53125 10.953125 
Q 47.40625 15.53125 47.40625 23.390625 
Q 47.40625 31.296875 43.53125 35.828125 
Q 39.65625 40.375 33.015625 40.375 
M 52.59375 71.296875 
L 52.59375 62.3125 
Q 48.875 64.0625 45.09375 64.984375 
Q 41.3125 65.921875 37.59375 65.921875 
Q 27.828125 65.921875 22.671875 59.328125 
Q 17.53125 52.734375 16.796875 39.40625 
Q 19.671875 43.65625 24.015625 45.921875 
Q 28.375 48.1875 33.59375 48.1875 
Q 44.578125 48.1875 50.953125 41.515625 
Q 57.328125 34.859375 57.328125 23.390625 
Q 57.328125 12.15625 50.6875 5.359375 
Q 44.046875 -1.421875 33.015625 -1.421875 
Q 20.359375 -1.421875 13.671875 8.265625 
Q 6.984375 17.96875 6.984375 36.375 
Q 6.984375 53.65625 15.1875 63.9375 
Q 23.390625 74.21875 37.203125 74.21875 
Q 40.921875 74.21875 44.703125 73.484375 
Q 48.484375 72.75 52.59375 71.296875 
" id="DejaVuSans-36"/>
      </defs>
      <g transform="translate(22.7 252.067806)scale(0.1 -0.1)">
       <use transform="translate(0 0.765625)" xlink:href="#DejaVuSans-31"/>
       <use transform="translate(63.623047 0.765625)" xlink:href="#DejaVuSans-30"/>
       <use transform="translate(128.203125 39.046875)scale(0.7)" xlink:href="#DejaVuSans-2212"/>
       <use transform="translate(186.855469 39.046875)scale(0.7)" xlink:href="#DejaVuSans-36"/>
       <use transform="translate(231.391602 39.046875)scale(0.7)" xlink:href="#DejaVuSans-35"/>
      </g>
     </g>
    </g>
    <g id="ytick_3">
     <g id="line2d_19">
      <path clip-path="url(#p7b9c8eec3d)" d="M 57.6 217.863465 
L 414.72 217.863465 
" style="fill:none;stroke:#b0b0b0;stroke-linecap:square;stroke-width:0.8;"/>
     </g>
     <g id="line2d_20">
      <g>
       <use style="stroke:#000000;stroke-width:0.8;" x="57.6" xlink:href="#me1f4809bcd" y="217.863465"/>
      </g>
     </g>
     <g id="text_11">
      <!-- ${10^{-55}}$ -->
      <g transform="translate(22.7 221.662683)scale(0.1 -0.1)">
       <use transform="translate(0 0.684375)" xlink:href="#DejaVuSans-31"/>
       <use transform="translate(63.623047 0.684375)" xlink:href="#DejaVuSans-30"/>
       <use transform="translate(128.203125 38.965625)scale(0.7)" xlink:href="#DejaVuSans-2212"/>
       <use transform="translate(186.855469 38.965625)scale(0.7)" xlink:href="#DejaVuSans-35"/>
       <use transform="translate(231.391602 38.965625)scale(0.7)" xlink:href="#DejaVuSans-35"/>
      </g>
     </g>
    </g>
    <g id="ytick_4">
     <g id="line2d_21">
      <path clip-path="url(#p7b9c8eec3d)" d="M 57.6 187.458342 
L 414.72 187.458342 
" style="fill:none;stroke:#b0b0b0;stroke-linecap:square;stroke-width:0.8;"/>
     </g>
     <g id="line2d_22">
      <g>
       <use style="stroke:#000000;stroke-width:0.8;" x="57.6" xlink:href="#me1f4809bcd" y="187.458342"/>
      </g>
     </g>
     <g id="text_12">
      <!-- ${10^{-45}}$ -->
      <defs>
       <path d="M 37.796875 64.3125 
L 12.890625 25.390625 
L 37.796875 25.390625 
z
M 35.203125 72.90625 
L 47.609375 72.90625 
L 47.609375 25.390625 
L 58.015625 25.390625 
L 58.015625 17.1875 
L 47.609375 17.1875 
L 47.609375 0 
L 37.796875 0 
L 37.796875 17.1875 
L 4.890625 17.1875 
L 4.890625 26.703125 
z
" id="DejaVuSans-34"/>
      </defs>
      <g transform="translate(22.7 191.257561)scale(0.1 -0.1)">
       <use transform="translate(0 0.684375)" xlink:href="#DejaVuSans-31"/>
       <use transform="translate(63.623047 0.684375)" xlink:href="#DejaVuSans-30"/>
       <use transform="translate(128.203125 38.965625)scale(0.7)" xlink:href="#DejaVuSans-2212"/>
       <use transform="translate(186.855469 38.965625)scale(0.7)" xlink:href="#DejaVuSans-34"/>
       <use transform="translate(231.391602 38.965625)scale(0.7)" xlink:href="#DejaVuSans-35"/>
      </g>
     </g>
    </g>
    <g id="ytick_5">
     <g id="line2d_23">
      <path clip-path="url(#p7b9c8eec3d)" d="M 57.6 157.05322 
L 414.72 157.05322 
" style="fill:none;stroke:#b0b0b0;stroke-linecap:square;stroke-width:0.8;"/>
     </g>
     <g id="line2d_24">
      <g>
       <use style="stroke:#000000;stroke-width:0.8;" x="57.6" xlink:href="#me1f4809bcd" y="157.05322"/>
      </g>
     </g>
     <g id="text_13">
      <!-- ${10^{-35}}$ -->
      <defs>
       <path d="M 40.578125 39.3125 
Q 47.65625 37.796875 51.625 33 
Q 55.609375 28.21875 55.609375 21.1875 
Q 55.609375 10.40625 48.1875 4.484375 
Q 40.765625 -1.421875 27.09375 -1.421875 
Q 22.515625 -1.421875 17.65625 -0.515625 
Q 12.796875 0.390625 7.625 2.203125 
L 7.625 11.71875 
Q 11.71875 9.328125 16.59375 8.109375 
Q 21.484375 6.890625 26.8125 6.890625 
Q 36.078125 6.890625 40.9375 10.546875 
Q 45.796875 14.203125 45.796875 21.1875 
Q 45.796875 27.640625 41.28125 31.265625 
Q 36.765625 34.90625 28.71875 34.90625 
L 20.21875 34.90625 
L 20.21875 43.015625 
L 29.109375 43.015625 
Q 36.375 43.015625 40.234375 45.921875 
Q 44.09375 48.828125 44.09375 54.296875 
Q 44.09375 59.90625 40.109375 62.90625 
Q 36.140625 65.921875 28.71875 65.921875 
Q 24.65625 65.921875 20.015625 65.03125 
Q 15.375 64.15625 9.8125 62.3125 
L 9.8125 71.09375 
Q 15.4375 72.65625 20.34375 73.4375 
Q 25.25 74.21875 29.59375 74.21875 
Q 40.828125 74.21875 47.359375 69.109375 
Q 53.90625 64.015625 53.90625 55.328125 
Q 53.90625 49.265625 50.4375 45.09375 
Q 46.96875 40.921875 40.578125 39.3125 
" id="DejaVuSans-33"/>
      </defs>
      <g transform="translate(22.7 160.852439)scale(0.1 -0.1)">
       <use transform="translate(0 0.765625)" xlink:href="#DejaVuSans-31"/>
       <use transform="translate(63.623047 0.765625)" xlink:href="#DejaVuSans-30"/>
       <use transform="translate(128.203125 39.046875)scale(0.7)" xlink:href="#DejaVuSans-2212"/>
       <use transform="translate(186.855469 39.046875)scale(0.7)" xlink:href="#DejaVuSans-33"/>
       <use transform="translate(231.391602 39.046875)scale(0.7)" xlink:href="#DejaVuSans-35"/>
      </g>
     </g>
    </g>
    <g id="ytick_6">
     <g id="line2d_25">
      <path clip-path="url(#p7b9c8eec3d)" d="M 57.6 126.648098 
L 414.72 126.648098 
" style="fill:none;stroke:#b0b0b0;stroke-linecap:square;stroke-width:0.8;"/>
     </g>
     <g id="line2d_26">
      <g>
       <use style="stroke:#000000;stroke-width:0.8;" x="57.6" xlink:href="#me1f4809bcd" y="126.648098"/>
      </g>
     </g>
     <g id="text_14">
      <!-- ${10^{-25}}$ -->
      <defs>
       <path d="M 19.1875 8.296875 
L 53.609375 8.296875 
L 53.609375 0 
L 7.328125 0 
L 7.328125 8.296875 
Q 12.9375 14.109375 22.625 23.890625 
Q 32.328125 33.6875 34.8125 36.53125 
Q 39.546875 41.84375 41.421875 45.53125 
Q 43.3125 49.21875 43.3125 52.78125 
Q 43.3125 58.59375 39.234375 62.25 
Q 35.15625 65.921875 28.609375 65.921875 
Q 23.96875 65.921875 18.8125 64.3125 
Q 13.671875 62.703125 7.8125 59.421875 
L 7.8125 69.390625 
Q 13.765625 71.78125 18.9375 73 
Q 24.125 74.21875 28.421875 74.21875 
Q 39.75 74.21875 46.484375 68.546875 
Q 53.21875 62.890625 53.21875 53.421875 
Q 53.21875 48.921875 51.53125 44.890625 
Q 49.859375 40.875 45.40625 35.40625 
Q 44.1875 33.984375 37.640625 27.21875 
Q 31.109375 20.453125 19.1875 8.296875 
" id="DejaVuSans-32"/>
      </defs>
      <g transform="translate(22.7 130.447316)scale(0.1 -0.1)">
       <use transform="translate(0 0.765625)" xlink:href="#DejaVuSans-31"/>
       <use transform="translate(63.623047 0.765625)" xlink:href="#DejaVuSans-30"/>
       <use transform="translate(128.203125 39.046875)scale(0.7)" xlink:href="#DejaVuSans-2212"/>
       <use transform="translate(186.855469 39.046875)scale(0.7)" xlink:href="#DejaVuSans-32"/>
       <use transform="translate(231.391602 39.046875)scale(0.7)" xlink:href="#DejaVuSans-35"/>
      </g>
     </g>
    </g>
    <g id="ytick_7">
     <g id="line2d_27">
      <path clip-path="url(#p7b9c8eec3d)" d="M 57.6 96.242975 
L 414.72 96.242975 
" style="fill:none;stroke:#b0b0b0;stroke-linecap:square;stroke-width:0.8;"/>
     </g>
     <g id="line2d_28">
      <g>
       <use style="stroke:#000000;stroke-width:0.8;" x="57.6" xlink:href="#me1f4809bcd" y="96.242975"/>
      </g>
     </g>
     <g id="text_15">
      <!-- ${10^{-15}}$ -->
      <g transform="translate(22.7 100.042194)scale(0.1 -0.1)">
       <use transform="translate(0 0.684375)" xlink:href="#DejaVuSans-31"/>
       <use transform="translate(63.623047 0.684375)" xlink:href="#DejaVuSans-30"/>
       <use transform="translate(128.203125 38.965625)scale(0.7)" xlink:href="#DejaVuSans-2212"/>
       <use transform="translate(186.855469 38.965625)scale(0.7)" xlink:href="#DejaVuSans-31"/>
       <use transform="translate(231.391602 38.965625)scale(0.7)" xlink:href="#DejaVuSans-35"/>
      </g>
     </g>
    </g>
    <g id="ytick_8">
     <g id="line2d_29">
      <path clip-path="url(#p7b9c8eec3d)" d="M 57.6 65.837853 
L 414.72 65.837853 
" style="fill:none;stroke:#b0b0b0;stroke-linecap:square;stroke-width:0.8;"/>
     </g>
     <g id="line2d_30">
      <g>
       <use style="stroke:#000000;stroke-width:0.8;" x="57.6" xlink:href="#me1f4809bcd" y="65.837853"/>
      </g>
     </g>
     <g id="text_16">
      <!-- ${10^{-5}}$ -->
      <g transform="translate(27.1 69.637072)scale(0.1 -0.1)">
       <use transform="translate(0 0.684375)" xlink:href="#DejaVuSans-31"/>
       <use transform="translate(63.623047 0.684375)" xlink:href="#DejaVuSans-30"/>
       <use transform="translate(128.203125 38.965625)scale(0.7)" xlink:href="#DejaVuSans-2212"/>
       <use transform="translate(186.855469 38.965625)scale(0.7)" xlink:href="#DejaVuSans-35"/>
      </g>
     </g>
    </g>
    <g id="text_17">
     <!-- $\omega_i$ -->
     <defs>
      <path d="M 21.390625 -1.421875 
Q 1.125 -1.421875 6.78125 27.59375 
Q 8.984375 39.0625 19.625 54.6875 
L 29.296875 54.6875 
Q 19.234375 39.0625 17 27.34375 
Q 12.796875 6.203125 23.734375 6.203125 
Q 33.84375 6.203125 38.71875 32.46875 
L 47.015625 32.46875 
Q 41.703125 6.0625 51.8125 6.203125 
Q 62.703125 6.296875 66.796875 27.34375 
Q 69.046875 39.0625 65.140625 54.6875 
L 74.8125 54.6875 
Q 79.296875 39.0625 77.09375 27.59375 
Q 71.53125 -1.46875 51.21875 -1.421875 
Q 37.9375 -1.375 39.109375 13.1875 
Q 34.28125 -1.421875 21.390625 -1.421875 
" id="DejaVuSans-Oblique-3c9"/>
     </defs>
     <g transform="translate(16.620312 179.828)rotate(-90)scale(0.1 -0.1)">
      <use transform="translate(0 0.3125)" xlink:href="#DejaVuSans-Oblique-3c9"/>
      <use transform="translate(83.740234 -16.09375)scale(0.7)" xlink:href="#DejaVuSans-Oblique-69"/>
     </g>
    </g>
   </g>
   <g id="line2d_31">
    <defs>
     <path d="M 0 3 
C 0.795609 3 1.55874 2.683901 2.12132 2.12132 
C 2.683901 1.55874 3 0.795609 3 0 
C 3 -0.795609 2.683901 -1.55874 2.12132 -2.12132 
C 1.55874 -2.683901 0.795609 -3 0 -3 
C -0.795609 -3 -1.55874 -2.683901 -2.12132 -2.12132 
C -2.683901 -1.55874 -3 -0.795609 -3 0 
C -3 0.795609 -2.683901 1.55874 -2.12132 2.12132 
C -1.55874 2.683901 -0.795609 3 0 3 
z
" id="m394da12abf" style="stroke:#1f77b4;"/>
    </defs>
    <g clip-path="url(#p7b9c8eec3d)">
     <use style="fill:#1f77b4;stroke:#1f77b4;" x="350.016917" xlink:href="#m394da12abf" y="181.358716"/>
     <use style="fill:#1f77b4;stroke:#1f77b4;" x="127.058243" xlink:href="#m394da12abf" y="170.913893"/>
     <use style="fill:#1f77b4;stroke:#1f77b4;" x="332.478772" xlink:href="#m394da12abf" y="145.000196"/>
     <use style="fill:#1f77b4;stroke:#1f77b4;" x="340.795176" xlink:href="#m394da12abf" y="161.498824"/>
     <use style="fill:#1f77b4;stroke:#1f77b4;" x="367.932258" xlink:href="#m394da12abf" y="224.448248"/>
     <use style="fill:#1f77b4;stroke:#1f77b4;" x="403.193738" xlink:href="#m394da12abf" y="295.488"/>
     <use style="fill:#1f77b4;stroke:#1f77b4;" x="111.366395" xlink:href="#m394da12abf" y="206.993567"/>
     <use style="fill:#1f77b4;stroke:#1f77b4;" x="117.145881" xlink:href="#m394da12abf" y="193.171492"/>
     <use style="fill:#1f77b4;stroke:#1f77b4;" x="187.810911" xlink:href="#m394da12abf" y="76.36648"/>
     <use style="fill:#1f77b4;stroke:#1f77b4;" x="278.423383" xlink:href="#m394da12abf" y="70.926403"/>
     <use style="fill:#1f77b4;stroke:#1f77b4;" x="360.953605" xlink:href="#m394da12abf" y="206.993567"/>
     <use style="fill:#1f77b4;stroke:#1f77b4;" x="345.261757" xlink:href="#m394da12abf" y="170.913893"/>
     <use style="fill:#1f77b4;stroke:#1f77b4;" x="200.165276" xlink:href="#m394da12abf" y="66.244886"/>
     <use style="fill:#1f77b4;stroke:#1f77b4;" x="214.414352" xlink:href="#m394da12abf" y="58.06824"/>
     <use style="fill:#1f77b4;stroke:#1f77b4;" x="154.886875" xlink:href="#m394da12abf" y="118.590157"/>
     <use style="fill:#1f77b4;stroke:#1f77b4;" x="287.610431" xlink:href="#m394da12abf" y="79.427857"/>
     <use style="fill:#1f77b4;stroke:#1f77b4;" x="265.288642" xlink:href="#m394da12abf" y="62.848666"/>
     <use style="fill:#1f77b4;stroke:#1f77b4;" x="161.886155" xlink:href="#m394da12abf" y="107.821357"/>
     <use style="fill:#1f77b4;stroke:#1f77b4;" x="221.522434" xlink:href="#m394da12abf" y="55.541807"/>
     <use style="fill:#1f77b4;stroke:#1f77b4;" x="303.682131" xlink:href="#m394da12abf" y="98.349117"/>
     <use style="fill:#1f77b4;stroke:#1f77b4;" x="193.896617" xlink:href="#m394da12abf" y="70.926403"/>
     <use style="fill:#1f77b4;stroke:#1f77b4;" x="263.266912" xlink:href="#m394da12abf" y="60.652018"/>
     <use style="fill:#1f77b4;stroke:#1f77b4;" x="143.767387" xlink:href="#m394da12abf" y="137.680297"/>
     <use style="fill:#1f77b4;stroke:#1f77b4;" x="284.509089" xlink:href="#m394da12abf" y="76.36648"/>
     <use style="fill:#1f77b4;stroke:#1f77b4;" x="297.130904" xlink:href="#m394da12abf" y="90.019019"/>
     <use style="fill:#1f77b4;stroke:#1f77b4;" x="324.747452" xlink:href="#m394da12abf" y="130.874188"/>
     <use style="fill:#1f77b4;stroke:#1f77b4;" x="272.154724" xlink:href="#m394da12abf" y="66.244886"/>
     <use style="fill:#1f77b4;stroke:#1f77b4;" x="290.746888" xlink:href="#m394da12abf" y="82.718544"/>
     <use style="fill:#1f77b4;stroke:#1f77b4;" x="336.549126" xlink:href="#m394da12abf" y="152.906961"/>
     <use style="fill:#1f77b4;stroke:#1f77b4;" x="151.274413" xlink:href="#m394da12abf" y="124.525626"/>
     <use style="fill:#1f77b4;stroke:#1f77b4;" x="355.174119" xlink:href="#m394da12abf" y="193.171492"/>
     <use style="fill:#1f77b4;stroke:#1f77b4;" x="131.524824" xlink:href="#m394da12abf" y="161.498824"/>
     <use style="fill:#1f77b4;stroke:#1f77b4;" x="104.387742" xlink:href="#m394da12abf" y="224.448248"/>
     <use style="fill:#1f77b4;stroke:#1f77b4;" x="196.812408" xlink:href="#m394da12abf" y="68.664137"/>
     <use style="fill:#1f77b4;stroke:#1f77b4;" x="139.841228" xlink:href="#m394da12abf" y="145.000196"/>
     <use style="fill:#1f77b4;stroke:#1f77b4;" x="122.303083" xlink:href="#m394da12abf" y="181.358716"/>
     <use style="fill:#1f77b4;stroke:#1f77b4;" x="190.876046" xlink:href="#m394da12abf" y="73.530419"/>
     <use style="fill:#1f77b4;stroke:#1f77b4;" x="248.223154" xlink:href="#m394da12abf" y="54.787514"/>
     <use style="fill:#1f77b4;stroke:#1f77b4;" x="175.189096" xlink:href="#m394da12abf" y="90.019019"/>
     <use style="fill:#1f77b4;stroke:#1f77b4;" x="281.443954" xlink:href="#m394da12abf" y="73.530419"/>
     <use style="fill:#1f77b4;stroke:#1f77b4;" x="226.751252" xlink:href="#m394da12abf" y="54.205495"/>
     <use style="fill:#1f77b4;stroke:#1f77b4;" x="69.126262" xlink:href="#m394da12abf" y="295.488"/>
     <use style="fill:#1f77b4;stroke:#1f77b4;" x="300.383816" xlink:href="#m394da12abf" y="94.049141"/>
     <use style="fill:#1f77b4;stroke:#1f77b4;" x="273.66188" xlink:href="#m394da12abf" y="68.900011"/>
     <use style="fill:#1f77b4;stroke:#1f77b4;" x="178.400382" xlink:href="#m394da12abf" y="86.245836"/>
     <use style="fill:#1f77b4;stroke:#1f77b4;" x="216.870205" xlink:href="#m394da12abf" y="57.201551"/>
     <use style="fill:#1f77b4;stroke:#1f77b4;" x="147.572548" xlink:href="#m394da12abf" y="130.874188"/>
     <use style="fill:#1f77b4;stroke:#1f77b4;" x="328.552613" xlink:href="#m394da12abf" y="137.680297"/>
     <use style="fill:#1f77b4;stroke:#1f77b4;" x="242.91732" xlink:href="#m394da12abf" y="53.796025"/>
     <use style="fill:#1f77b4;stroke:#1f77b4;" x="158.421085" xlink:href="#m394da12abf" y="113.031893"/>
     <use style="fill:#1f77b4;stroke:#1f77b4;" x="207.031358" xlink:href="#m394da12abf" y="62.848666"/>
     <use style="fill:#1f77b4;stroke:#1f77b4;" x="224.096846" xlink:href="#m394da12abf" y="54.787514"/>
     <use style="fill:#1f77b4;stroke:#1f77b4;" x="135.770874" xlink:href="#m394da12abf" y="152.906961"/>
     <use style="fill:#1f77b4;stroke:#1f77b4;" x="313.898915" xlink:href="#m394da12abf" y="113.031893"/>
     <use style="fill:#1f77b4;stroke:#1f77b4;" x="255.449795" xlink:href="#m394da12abf" y="57.201551"/>
     <use style="fill:#1f77b4;stroke:#1f77b4;" x="269.379861" xlink:href="#m394da12abf" y="64.222201"/>
     <use style="fill:#1f77b4;stroke:#1f77b4;" x="236.16" xlink:href="#m394da12abf" y="54.083178"/>
     <use style="fill:#1f77b4;stroke:#1f77b4;" x="198.65812" xlink:href="#m394da12abf" y="68.900011"/>
     <use style="fill:#1f77b4;stroke:#1f77b4;" x="253.179804" xlink:href="#m394da12abf" y="56.411023"/>
     <use style="fill:#1f77b4;stroke:#1f77b4;" x="250.797566" xlink:href="#m394da12abf" y="55.541807"/>
     <use style="fill:#1f77b4;stroke:#1f77b4;" x="275.507592" xlink:href="#m394da12abf" y="68.664137"/>
     <use style="fill:#1f77b4;stroke:#1f77b4;" x="257.905648" xlink:href="#m394da12abf" y="58.06824"/>
     <use style="fill:#1f77b4;stroke:#1f77b4;" x="229.40268" xlink:href="#m394da12abf" y="53.796025"/>
     <use style="fill:#1f77b4;stroke:#1f77b4;" x="321.045587" xlink:href="#m394da12abf" y="124.525626"/>
     <use style="fill:#1f77b4;stroke:#1f77b4;" x="171.936184" xlink:href="#m394da12abf" y="94.049141"/>
     <use style="fill:#1f77b4;stroke:#1f77b4;" x="260.565333" xlink:href="#m394da12abf" y="59.220266"/>
     <use style="fill:#1f77b4;stroke:#1f77b4;" x="165.289639" xlink:href="#m394da12abf" y="102.933994"/>
     <use style="fill:#1f77b4;stroke:#1f77b4;" x="231.989525" xlink:href="#m394da12abf" y="53.568"/>
     <use style="fill:#1f77b4;stroke:#1f77b4;" x="168.637869" xlink:href="#m394da12abf" y="98.349117"/>
     <use style="fill:#1f77b4;stroke:#1f77b4;" x="245.568748" xlink:href="#m394da12abf" y="54.205495"/>
     <use style="fill:#1f77b4;stroke:#1f77b4;" x="202.940139" xlink:href="#m394da12abf" y="64.222201"/>
     <use style="fill:#1f77b4;stroke:#1f77b4;" x="317.433125" xlink:href="#m394da12abf" y="118.590157"/>
     <use style="fill:#1f77b4;stroke:#1f77b4;" x="184.709569" xlink:href="#m394da12abf" y="79.427857"/>
     <use style="fill:#1f77b4;stroke:#1f77b4;" x="240.330475" xlink:href="#m394da12abf" y="53.568"/>
     <use style="fill:#1f77b4;stroke:#1f77b4;" x="266.727202" xlink:href="#m394da12abf" y="62.824016"/>
     <use style="fill:#1f77b4;stroke:#1f77b4;" x="307.030361" xlink:href="#m394da12abf" y="102.933994"/>
     <use style="fill:#1f77b4;stroke:#1f77b4;" x="181.573112" xlink:href="#m394da12abf" y="82.718544"/>
     <use style="fill:#1f77b4;stroke:#1f77b4;" x="211.754667" xlink:href="#m394da12abf" y="59.220266"/>
     <use style="fill:#1f77b4;stroke:#1f77b4;" x="219.140196" xlink:href="#m394da12abf" y="56.411023"/>
     <use style="fill:#1f77b4;stroke:#1f77b4;" x="205.592798" xlink:href="#m394da12abf" y="62.824016"/>
     <use style="fill:#1f77b4;stroke:#1f77b4;" x="293.919618" xlink:href="#m394da12abf" y="86.245836"/>
     <use style="fill:#1f77b4;stroke:#1f77b4;" x="237.940398" xlink:href="#m394da12abf" y="53.627572"/>
     <use style="fill:#1f77b4;stroke:#1f77b4;" x="310.433845" xlink:href="#m394da12abf" y="107.821357"/>
     <use style="fill:#1f77b4;stroke:#1f77b4;" x="234.379602" xlink:href="#m394da12abf" y="53.627572"/>
     <use style="fill:#1f77b4;stroke:#1f77b4;" x="209.053088" xlink:href="#m394da12abf" y="60.652018"/>
    </g>
   </g>
   <g id="patch_3">
    <path d="M 57.6 307.584 
L 57.6 41.472 
" style="fill:none;stroke:#000000;stroke-linecap:square;stroke-linejoin:miter;stroke-width:0.8;"/>
   </g>
   <g id="patch_4">
    <path d="M 414.72 307.584 
L 414.72 41.472 
" style="fill:none;stroke:#000000;stroke-linecap:square;stroke-linejoin:miter;stroke-width:0.8;"/>
   </g>
   <g id="patch_5">
    <path d="M 57.6 307.584 
L 414.72 307.584 
" style="fill:none;stroke:#000000;stroke-linecap:square;stroke-linejoin:miter;stroke-width:0.8;"/>
   </g>
   <g id="patch_6">
    <path d="M 57.6 41.472 
L 414.72 41.472 
" style="fill:none;stroke:#000000;stroke-linecap:square;stroke-linejoin:miter;stroke-width:0.8;"/>
   </g>
  </g>
 </g>
 <defs>
  <clipPath id="p7b9c8eec3d">
   <rect height="266.112" width="357.12" x="57.6" y="41.472"/>
  </clipPath>
 </defs>
</svg>
