<?xml version="1.0" encoding="utf-8" standalone="no"?>
<!DOCTYPE svg PUBLIC "-//W3C//DTD SVG 1.1//EN"
  "http://www.w3.org/Graphics/SVG/1.1/DTD/svg11.dtd">
<!-- Created with matplotlib (http://matplotlib.org/) -->
<svg height="345pt" version="1.1" viewBox="0 0 460 345" width="460pt" xmlns="http://www.w3.org/2000/svg" xmlns:xlink="http://www.w3.org/1999/xlink">
 <defs>
  <style type="text/css">
*{stroke-linecap:butt;stroke-linejoin:round;}
  </style>
 </defs>
 <g id="figure_1">
  <g id="patch_1">
   <path d="M 0 345.6 
L 460.8 345.6 
L 460.8 0 
L 0 0 
z
" style="fill:#ffffff;"/>
  </g>
  <g id="axes_1">
   <g id="patch_2">
    <path d="M 57.6 307.584 
L 414.72 307.584 
L 414.72 41.472 
L 57.6 41.472 
z
" style="fill:#ffffff;"/>
   </g>
   <g id="matplotlib.axis_1">
    <g id="xtick_1">
     <g id="line2d_1">
      <path clip-path="url(#pcdd3eb1b9c)" d="M 97.639133 307.584 
L 97.639133 41.472 
" style="fill:none;stroke:#b0b0b0;stroke-linecap:square;stroke-width:0.8;"/>
     </g>
     <g id="line2d_2">
      <defs>
       <path d="M 0 0 
L 0 3.5 
" id="m666f997f0a" style="stroke:#000000;stroke-width:0.8;"/>
      </defs>
      <g>
       <use style="stroke:#000000;stroke-width:0.8;" x="97.639133" xlink:href="#m666f997f0a" y="307.584"/>
      </g>
     </g>
     <g id="text_1">
      <!-- −10 -->
      <defs>
       <path d="M 10.59375 35.5 
L 73.1875 35.5 
L 73.1875 27.203125 
L 10.59375 27.203125 
z
" id="DejaVuSans-2212"/>
       <path d="M 12.40625 8.296875 
L 28.515625 8.296875 
L 28.515625 63.921875 
L 10.984375 60.40625 
L 10.984375 69.390625 
L 28.421875 72.90625 
L 38.28125 72.90625 
L 38.28125 8.296875 
L 54.390625 8.296875 
L 54.390625 0 
L 12.40625 0 
z
" id="DejaVuSans-31"/>
       <path d="M 31.78125 66.40625 
Q 24.171875 66.40625 20.328125 58.90625 
Q 16.5 51.421875 16.5 36.375 
Q 16.5 21.390625 20.328125 13.890625 
Q 24.171875 6.390625 31.78125 6.390625 
Q 39.453125 6.390625 43.28125 13.890625 
Q 47.125 21.390625 47.125 36.375 
Q 47.125 51.421875 43.28125 58.90625 
Q 39.453125 66.40625 31.78125 66.40625 
M 31.78125 74.21875 
Q 44.046875 74.21875 50.515625 64.515625 
Q 56.984375 54.828125 56.984375 36.375 
Q 56.984375 17.96875 50.515625 8.265625 
Q 44.046875 -1.421875 31.78125 -1.421875 
Q 19.53125 -1.421875 13.0625 8.265625 
Q 6.59375 17.96875 6.59375 36.375 
Q 6.59375 54.828125 13.0625 64.515625 
Q 19.53125 74.21875 31.78125 74.21875 
" id="DejaVuSans-30"/>
      </defs>
      <g transform="translate(87.086789 322.182437)scale(0.1 -0.1)">
       <use xlink:href="#DejaVuSans-2212"/>
       <use x="83.789062" xlink:href="#DejaVuSans-31"/>
       <use x="147.412109" xlink:href="#DejaVuSans-30"/>
      </g>
     </g>
    </g>
    <g id="xtick_2">
     <g id="line2d_3">
      <path clip-path="url(#pcdd3eb1b9c)" d="M 166.899566 307.584 
L 166.899566 41.472 
" style="fill:none;stroke:#b0b0b0;stroke-linecap:square;stroke-width:0.8;"/>
     </g>
     <g id="line2d_4">
      <g>
       <use style="stroke:#000000;stroke-width:0.8;" x="166.899566" xlink:href="#m666f997f0a" y="307.584"/>
      </g>
     </g>
     <g id="text_2">
      <!-- −5 -->
      <defs>
       <path d="M 10.796875 72.90625 
L 49.515625 72.90625 
L 49.515625 64.59375 
L 19.828125 64.59375 
L 19.828125 46.734375 
Q 21.96875 47.46875 24.109375 47.828125 
Q 26.265625 48.1875 28.421875 48.1875 
Q 40.625 48.1875 47.75 41.5 
Q 54.890625 34.8125 54.890625 23.390625 
Q 54.890625 11.625 47.5625 5.09375 
Q 40.234375 -1.421875 26.90625 -1.421875 
Q 22.3125 -1.421875 17.546875 -0.640625 
Q 12.796875 0.140625 7.71875 1.703125 
L 7.71875 11.625 
Q 12.109375 9.234375 16.796875 8.0625 
Q 21.484375 6.890625 26.703125 6.890625 
Q 35.15625 6.890625 40.078125 11.328125 
Q 45.015625 15.765625 45.015625 23.390625 
Q 45.015625 31 40.078125 35.4375 
Q 35.15625 39.890625 26.703125 39.890625 
Q 22.75 39.890625 18.8125 39.015625 
Q 14.890625 38.140625 10.796875 36.28125 
z
" id="DejaVuSans-35"/>
      </defs>
      <g transform="translate(159.528473 322.182437)scale(0.1 -0.1)">
       <use xlink:href="#DejaVuSans-2212"/>
       <use x="83.789062" xlink:href="#DejaVuSans-35"/>
      </g>
     </g>
    </g>
    <g id="xtick_3">
     <g id="line2d_5">
      <path clip-path="url(#pcdd3eb1b9c)" d="M 236.16 307.584 
L 236.16 41.472 
" style="fill:none;stroke:#b0b0b0;stroke-linecap:square;stroke-width:0.8;"/>
     </g>
     <g id="line2d_6">
      <g>
       <use style="stroke:#000000;stroke-width:0.8;" x="236.16" xlink:href="#m666f997f0a" y="307.584"/>
      </g>
     </g>
     <g id="text_3">
      <!-- 0 -->
      <g transform="translate(232.97875 322.182437)scale(0.1 -0.1)">
       <use xlink:href="#DejaVuSans-30"/>
      </g>
     </g>
    </g>
    <g id="xtick_4">
     <g id="line2d_7">
      <path clip-path="url(#pcdd3eb1b9c)" d="M 305.420434 307.584 
L 305.420434 41.472 
" style="fill:none;stroke:#b0b0b0;stroke-linecap:square;stroke-width:0.8;"/>
     </g>
     <g id="line2d_8">
      <g>
       <use style="stroke:#000000;stroke-width:0.8;" x="305.420434" xlink:href="#m666f997f0a" y="307.584"/>
      </g>
     </g>
     <g id="text_4">
      <!-- 5 -->
      <g transform="translate(302.239184 322.182437)scale(0.1 -0.1)">
       <use xlink:href="#DejaVuSans-35"/>
      </g>
     </g>
    </g>
    <g id="xtick_5">
     <g id="line2d_9">
      <path clip-path="url(#pcdd3eb1b9c)" d="M 374.680867 307.584 
L 374.680867 41.472 
" style="fill:none;stroke:#b0b0b0;stroke-linecap:square;stroke-width:0.8;"/>
     </g>
     <g id="line2d_10">
      <g>
       <use style="stroke:#000000;stroke-width:0.8;" x="374.680867" xlink:href="#m666f997f0a" y="307.584"/>
      </g>
     </g>
     <g id="text_5">
      <!-- 10 -->
      <g transform="translate(368.318367 322.182437)scale(0.1 -0.1)">
       <use xlink:href="#DejaVuSans-31"/>
       <use x="63.623047" xlink:href="#DejaVuSans-30"/>
      </g>
     </g>
    </g>
    <g id="text_6">
     <!-- $\gamma_i$ -->
     <defs>
      <path d="M 23.296875 46.09375 
L 28.71875 12.3125 
L 54 54.6875 
L 63.53125 54.6875 
L 30.8125 0 
L 26.765625 -20.796875 
L 17.78125 -20.796875 
L 21.828125 0 
L 15.4375 40.828125 
Q 14.453125 46.96875 9.8125 46.96875 
L 7.421875 46.96875 
L 8.890625 54.6875 
L 12.3125 54.6875 
Q 21.921875 54.6875 23.296875 46.09375 
" id="DejaVuSans-Oblique-3b3"/>
      <path d="M 18.3125 75.984375 
L 27.296875 75.984375 
L 25.09375 64.59375 
L 16.109375 64.59375 
z
M 14.203125 54.6875 
L 23.1875 54.6875 
L 12.5 0 
L 3.515625 0 
z
" id="DejaVuSans-Oblique-69"/>
     </defs>
     <g transform="translate(232.06 335.84025)scale(0.1 -0.1)">
      <use transform="translate(0 0.3125)" xlink:href="#DejaVuSans-Oblique-3b3"/>
      <use transform="translate(59.179688 -16.09375)scale(0.7)" xlink:href="#DejaVuSans-Oblique-69"/>
     </g>
    </g>
   </g>
   <g id="matplotlib.axis_2">
    <g id="ytick_1">
     <g id="line2d_11">
      <path clip-path="url(#pcdd3eb1b9c)" d="M 57.6 276.402756 
L 414.72 276.402756 
" style="fill:none;stroke:#b0b0b0;stroke-linecap:square;stroke-width:0.8;"/>
     </g>
     <g id="line2d_12">
      <defs>
       <path d="M 0 0 
L -3.5 0 
" id="m599cc05e7a" style="stroke:#000000;stroke-width:0.8;"/>
      </defs>
      <g>
       <use style="stroke:#000000;stroke-width:0.8;" x="57.6" xlink:href="#m599cc05e7a" y="276.402756"/>
      </g>
     </g>
     <g id="text_7">
      <!-- ${10^{-57}}$ -->
      <defs>
       <path d="M 8.203125 72.90625 
L 55.078125 72.90625 
L 55.078125 68.703125 
L 28.609375 0 
L 18.3125 0 
L 43.21875 64.59375 
L 8.203125 64.59375 
z
" id="DejaVuSans-37"/>
      </defs>
      <g transform="translate(22.7 280.201974)scale(0.1 -0.1)">
       <use transform="translate(0 0.684375)" xlink:href="#DejaVuSans-31"/>
       <use transform="translate(63.623047 0.684375)" xlink:href="#DejaVuSans-30"/>
       <use transform="translate(128.203125 38.965625)scale(0.7)" xlink:href="#DejaVuSans-2212"/>
       <use transform="translate(186.855469 38.965625)scale(0.7)" xlink:href="#DejaVuSans-35"/>
       <use transform="translate(231.315039 38.965625)scale(0.7)" xlink:href="#DejaVuSans-37"/>
      </g>
     </g>
    </g>
    <g id="ytick_2">
     <g id="line2d_13">
      <path clip-path="url(#pcdd3eb1b9c)" d="M 57.6 244.626981 
L 414.72 244.626981 
" style="fill:none;stroke:#b0b0b0;stroke-linecap:square;stroke-width:0.8;"/>
     </g>
     <g id="line2d_14">
      <g>
       <use style="stroke:#000000;stroke-width:0.8;" x="57.6" xlink:href="#m599cc05e7a" y="244.626981"/>
      </g>
     </g>
     <g id="text_8">
      <!-- ${10^{-49}}$ -->
      <defs>
       <path d="M 37.796875 64.3125 
L 12.890625 25.390625 
L 37.796875 25.390625 
z
M 35.203125 72.90625 
L 47.609375 72.90625 
L 47.609375 25.390625 
L 58.015625 25.390625 
L 58.015625 17.1875 
L 47.609375 17.1875 
L 47.609375 0 
L 37.796875 0 
L 37.796875 17.1875 
L 4.890625 17.1875 
L 4.890625 26.703125 
z
" id="DejaVuSans-34"/>
       <path d="M 10.984375 1.515625 
L 10.984375 10.5 
Q 14.703125 8.734375 18.5 7.8125 
Q 22.3125 6.890625 25.984375 6.890625 
Q 35.75 6.890625 40.890625 13.453125 
Q 46.046875 20.015625 46.78125 33.40625 
Q 43.953125 29.203125 39.59375 26.953125 
Q 35.25 24.703125 29.984375 24.703125 
Q 19.046875 24.703125 12.671875 31.3125 
Q 6.296875 37.9375 6.296875 49.421875 
Q 6.296875 60.640625 12.9375 67.421875 
Q 19.578125 74.21875 30.609375 74.21875 
Q 43.265625 74.21875 49.921875 64.515625 
Q 56.59375 54.828125 56.59375 36.375 
Q 56.59375 19.140625 48.40625 8.859375 
Q 40.234375 -1.421875 26.421875 -1.421875 
Q 22.703125 -1.421875 18.890625 -0.6875 
Q 15.09375 0.046875 10.984375 1.515625 
M 30.609375 32.421875 
Q 37.25 32.421875 41.125 36.953125 
Q 45.015625 41.5 45.015625 49.421875 
Q 45.015625 57.28125 41.125 61.84375 
Q 37.25 66.40625 30.609375 66.40625 
Q 23.96875 66.40625 20.09375 61.84375 
Q 16.21875 57.28125 16.21875 49.421875 
Q 16.21875 41.5 20.09375 36.953125 
Q 23.96875 32.421875 30.609375 32.421875 
" id="DejaVuSans-39"/>
      </defs>
      <g transform="translate(22.7 248.4262)scale(0.1 -0.1)">
       <use transform="translate(0 0.765625)" xlink:href="#DejaVuSans-31"/>
       <use transform="translate(63.623047 0.765625)" xlink:href="#DejaVuSans-30"/>
       <use transform="translate(128.203125 39.046875)scale(0.7)" xlink:href="#DejaVuSans-2212"/>
       <use transform="translate(186.855469 39.046875)scale(0.7)" xlink:href="#DejaVuSans-34"/>
       <use transform="translate(231.391602 39.046875)scale(0.7)" xlink:href="#DejaVuSans-39"/>
      </g>
     </g>
    </g>
    <g id="ytick_3">
     <g id="line2d_15">
      <path clip-path="url(#pcdd3eb1b9c)" d="M 57.6 212.851207 
L 414.72 212.851207 
" style="fill:none;stroke:#b0b0b0;stroke-linecap:square;stroke-width:0.8;"/>
     </g>
     <g id="line2d_16">
      <g>
       <use style="stroke:#000000;stroke-width:0.8;" x="57.6" xlink:href="#m599cc05e7a" y="212.851207"/>
      </g>
     </g>
     <g id="text_9">
      <!-- ${10^{-41}}$ -->
      <g transform="translate(22.7 216.650425)scale(0.1 -0.1)">
       <use transform="translate(0 0.684375)" xlink:href="#DejaVuSans-31"/>
       <use transform="translate(63.623047 0.684375)" xlink:href="#DejaVuSans-30"/>
       <use transform="translate(128.203125 38.965625)scale(0.7)" xlink:href="#DejaVuSans-2212"/>
       <use transform="translate(186.855469 38.965625)scale(0.7)" xlink:href="#DejaVuSans-34"/>
       <use transform="translate(231.391602 38.965625)scale(0.7)" xlink:href="#DejaVuSans-31"/>
      </g>
     </g>
    </g>
    <g id="ytick_4">
     <g id="line2d_17">
      <path clip-path="url(#pcdd3eb1b9c)" d="M 57.6 181.075432 
L 414.72 181.075432 
" style="fill:none;stroke:#b0b0b0;stroke-linecap:square;stroke-width:0.8;"/>
     </g>
     <g id="line2d_18">
      <g>
       <use style="stroke:#000000;stroke-width:0.8;" x="57.6" xlink:href="#m599cc05e7a" y="181.075432"/>
      </g>
     </g>
     <g id="text_10">
      <!-- ${10^{-33}}$ -->
      <defs>
       <path d="M 40.578125 39.3125 
Q 47.65625 37.796875 51.625 33 
Q 55.609375 28.21875 55.609375 21.1875 
Q 55.609375 10.40625 48.1875 4.484375 
Q 40.765625 -1.421875 27.09375 -1.421875 
Q 22.515625 -1.421875 17.65625 -0.515625 
Q 12.796875 0.390625 7.625 2.203125 
L 7.625 11.71875 
Q 11.71875 9.328125 16.59375 8.109375 
Q 21.484375 6.890625 26.8125 6.890625 
Q 36.078125 6.890625 40.9375 10.546875 
Q 45.796875 14.203125 45.796875 21.1875 
Q 45.796875 27.640625 41.28125 31.265625 
Q 36.765625 34.90625 28.71875 34.90625 
L 20.21875 34.90625 
L 20.21875 43.015625 
L 29.109375 43.015625 
Q 36.375 43.015625 40.234375 45.921875 
Q 44.09375 48.828125 44.09375 54.296875 
Q 44.09375 59.90625 40.109375 62.90625 
Q 36.140625 65.921875 28.71875 65.921875 
Q 24.65625 65.921875 20.015625 65.03125 
Q 15.375 64.15625 9.8125 62.3125 
L 9.8125 71.09375 
Q 15.4375 72.65625 20.34375 73.4375 
Q 25.25 74.21875 29.59375 74.21875 
Q 40.828125 74.21875 47.359375 69.109375 
Q 53.90625 64.015625 53.90625 55.328125 
Q 53.90625 49.265625 50.4375 45.09375 
Q 46.96875 40.921875 40.578125 39.3125 
" id="DejaVuSans-33"/>
      </defs>
      <g transform="translate(22.7 184.874651)scale(0.1 -0.1)">
       <use transform="translate(0 0.765625)" xlink:href="#DejaVuSans-31"/>
       <use transform="translate(63.623047 0.765625)" xlink:href="#DejaVuSans-30"/>
       <use transform="translate(128.203125 39.046875)scale(0.7)" xlink:href="#DejaVuSans-2212"/>
       <use transform="translate(186.855469 39.046875)scale(0.7)" xlink:href="#DejaVuSans-33"/>
       <use transform="translate(231.391602 39.046875)scale(0.7)" xlink:href="#DejaVuSans-33"/>
      </g>
     </g>
    </g>
    <g id="ytick_5">
     <g id="line2d_19">
      <path clip-path="url(#pcdd3eb1b9c)" d="M 57.6 149.299658 
L 414.72 149.299658 
" style="fill:none;stroke:#b0b0b0;stroke-linecap:square;stroke-width:0.8;"/>
     </g>
     <g id="line2d_20">
      <g>
       <use style="stroke:#000000;stroke-width:0.8;" x="57.6" xlink:href="#m599cc05e7a" y="149.299658"/>
      </g>
     </g>
     <g id="text_11">
      <!-- ${10^{-25}}$ -->
      <defs>
       <path d="M 19.1875 8.296875 
L 53.609375 8.296875 
L 53.609375 0 
L 7.328125 0 
L 7.328125 8.296875 
Q 12.9375 14.109375 22.625 23.890625 
Q 32.328125 33.6875 34.8125 36.53125 
Q 39.546875 41.84375 41.421875 45.53125 
Q 43.3125 49.21875 43.3125 52.78125 
Q 43.3125 58.59375 39.234375 62.25 
Q 35.15625 65.921875 28.609375 65.921875 
Q 23.96875 65.921875 18.8125 64.3125 
Q 13.671875 62.703125 7.8125 59.421875 
L 7.8125 69.390625 
Q 13.765625 71.78125 18.9375 73 
Q 24.125 74.21875 28.421875 74.21875 
Q 39.75 74.21875 46.484375 68.546875 
Q 53.21875 62.890625 53.21875 53.421875 
Q 53.21875 48.921875 51.53125 44.890625 
Q 49.859375 40.875 45.40625 35.40625 
Q 44.1875 33.984375 37.640625 27.21875 
Q 31.109375 20.453125 19.1875 8.296875 
" id="DejaVuSans-32"/>
      </defs>
      <g transform="translate(22.7 153.098877)scale(0.1 -0.1)">
       <use transform="translate(0 0.765625)" xlink:href="#DejaVuSans-31"/>
       <use transform="translate(63.623047 0.765625)" xlink:href="#DejaVuSans-30"/>
       <use transform="translate(128.203125 39.046875)scale(0.7)" xlink:href="#DejaVuSans-2212"/>
       <use transform="translate(186.855469 39.046875)scale(0.7)" xlink:href="#DejaVuSans-32"/>
       <use transform="translate(231.391602 39.046875)scale(0.7)" xlink:href="#DejaVuSans-35"/>
      </g>
     </g>
    </g>
    <g id="ytick_6">
     <g id="line2d_21">
      <path clip-path="url(#pcdd3eb1b9c)" d="M 57.6 117.523884 
L 414.72 117.523884 
" style="fill:none;stroke:#b0b0b0;stroke-linecap:square;stroke-width:0.8;"/>
     </g>
     <g id="line2d_22">
      <g>
       <use style="stroke:#000000;stroke-width:0.8;" x="57.6" xlink:href="#m599cc05e7a" y="117.523884"/>
      </g>
     </g>
     <g id="text_12">
      <!-- ${10^{-17}}$ -->
      <g transform="translate(22.7 121.323102)scale(0.1 -0.1)">
       <use transform="translate(0 0.684375)" xlink:href="#DejaVuSans-31"/>
       <use transform="translate(63.623047 0.684375)" xlink:href="#DejaVuSans-30"/>
       <use transform="translate(128.203125 38.965625)scale(0.7)" xlink:href="#DejaVuSans-2212"/>
       <use transform="translate(186.855469 38.965625)scale(0.7)" xlink:href="#DejaVuSans-31"/>
       <use transform="translate(231.391602 38.965625)scale(0.7)" xlink:href="#DejaVuSans-37"/>
      </g>
     </g>
    </g>
    <g id="ytick_7">
     <g id="line2d_23">
      <path clip-path="url(#pcdd3eb1b9c)" d="M 57.6 85.748109 
L 414.72 85.748109 
" style="fill:none;stroke:#b0b0b0;stroke-linecap:square;stroke-width:0.8;"/>
     </g>
     <g id="line2d_24">
      <g>
       <use style="stroke:#000000;stroke-width:0.8;" x="57.6" xlink:href="#m599cc05e7a" y="85.748109"/>
      </g>
     </g>
     <g id="text_13">
      <!-- ${10^{-9}}$ -->
      <g transform="translate(27.1 89.547328)scale(0.1 -0.1)">
       <use transform="translate(0 0.765625)" xlink:href="#DejaVuSans-31"/>
       <use transform="translate(63.623047 0.765625)" xlink:href="#DejaVuSans-30"/>
       <use transform="translate(128.203125 39.046875)scale(0.7)" xlink:href="#DejaVuSans-2212"/>
       <use transform="translate(186.855469 39.046875)scale(0.7)" xlink:href="#DejaVuSans-39"/>
      </g>
     </g>
    </g>
    <g id="ytick_8">
     <g id="line2d_25">
      <path clip-path="url(#pcdd3eb1b9c)" d="M 57.6 53.972335 
L 414.72 53.972335 
" style="fill:none;stroke:#b0b0b0;stroke-linecap:square;stroke-width:0.8;"/>
     </g>
     <g id="line2d_26">
      <g>
       <use style="stroke:#000000;stroke-width:0.8;" x="57.6" xlink:href="#m599cc05e7a" y="53.972335"/>
      </g>
     </g>
     <g id="text_14">
      <!-- ${10^{-1}}$ -->
      <g transform="translate(27.1 57.771554)scale(0.1 -0.1)">
       <use transform="translate(0 0.684375)" xlink:href="#DejaVuSans-31"/>
       <use transform="translate(63.623047 0.684375)" xlink:href="#DejaVuSans-30"/>
       <use transform="translate(128.203125 38.965625)scale(0.7)" xlink:href="#DejaVuSans-2212"/>
       <use transform="translate(186.855469 38.965625)scale(0.7)" xlink:href="#DejaVuSans-31"/>
      </g>
     </g>
    </g>
    <g id="text_15">
     <!-- $\omega_i$ -->
     <defs>
      <path d="M 21.390625 -1.421875 
Q 1.125 -1.421875 6.78125 27.59375 
Q 8.984375 39.0625 19.625 54.6875 
L 29.296875 54.6875 
Q 19.234375 39.0625 17 27.34375 
Q 12.796875 6.203125 23.734375 6.203125 
Q 33.84375 6.203125 38.71875 32.46875 
L 47.015625 32.46875 
Q 41.703125 6.0625 51.8125 6.203125 
Q 62.703125 6.296875 66.796875 27.34375 
Q 69.046875 39.0625 65.140625 54.6875 
L 74.8125 54.6875 
Q 79.296875 39.0625 77.09375 27.59375 
Q 71.53125 -1.46875 51.21875 -1.421875 
Q 37.9375 -1.375 39.109375 13.1875 
Q 34.28125 -1.421875 21.390625 -1.421875 
" id="DejaVuSans-Oblique-3c9"/>
     </defs>
     <g transform="translate(16.620312 179.828)rotate(-90)scale(0.1 -0.1)">
      <use transform="translate(0 0.3125)" xlink:href="#DejaVuSans-Oblique-3c9"/>
      <use transform="translate(83.740234 -16.09375)scale(0.7)" xlink:href="#DejaVuSans-Oblique-69"/>
     </g>
    </g>
   </g>
   <g id="line2d_27">
    <defs>
     <path d="M 0 3 
C 0.795609 3 1.55874 2.683901 2.12132 2.12132 
C 2.683901 1.55874 3 0.795609 3 0 
C 3 -0.795609 2.683901 -1.55874 2.12132 -2.12132 
C 1.55874 -2.683901 0.795609 -3 0 -3 
C -0.795609 -3 -1.55874 -2.683901 -2.12132 -2.12132 
C -2.683901 -1.55874 -3 -0.795609 -3 0 
C -3 0.795609 -2.683901 1.55874 -2.12132 2.12132 
C -1.55874 2.683901 -0.795609 3 0 3 
z
" id="m0eaff4cf34" style="stroke:#1f77b4;"/>
    </defs>
    <g clip-path="url(#pcdd3eb1b9c)">
     <use style="fill:#1f77b4;stroke:#1f77b4;" x="385.536272" xlink:href="#m0eaff4cf34" y="252.890443"/>
     <use style="fill:#1f77b4;stroke:#1f77b4;" x="86.783728" xlink:href="#m0eaff4cf34" y="252.890443"/>
     <use style="fill:#1f77b4;stroke:#1f77b4;" x="98.656737" xlink:href="#m0eaff4cf34" y="222.55642"/>
     <use style="fill:#1f77b4;stroke:#1f77b4;" x="368.321203" xlink:href="#m0eaff4cf34" y="209.703408"/>
     <use style="fill:#1f77b4;stroke:#1f77b4;" x="71.452087" xlink:href="#m0eaff4cf34" y="295.488"/>
     <use style="fill:#1f77b4;stroke:#1f77b4;" x="131.882073" xlink:href="#m0eaff4cf34" y="150.779242"/>
     <use style="fill:#1f77b4;stroke:#1f77b4;" x="103.998797" xlink:href="#m0eaff4cf34" y="209.703408"/>
     <use style="fill:#1f77b4;stroke:#1f77b4;" x="92.964365" xlink:href="#m0eaff4cf34" y="236.798049"/>
     <use style="fill:#1f77b4;stroke:#1f77b4;" x="178.480336" xlink:href="#m0eaff4cf34" y="83.192978"/>
     <use style="fill:#1f77b4;stroke:#1f77b4;" x="276.260427" xlink:href="#m0eaff4cf34" y="67.800193"/>
     <use style="fill:#1f77b4;stroke:#1f77b4;" x="340.437927" xlink:href="#m0eaff4cf34" y="150.779242"/>
     <use style="fill:#1f77b4;stroke:#1f77b4;" x="373.663263" xlink:href="#m0eaff4cf34" y="222.55642"/>
     <use style="fill:#1f77b4;stroke:#1f77b4;" x="118.62107" xlink:href="#m0eaff4cf34" y="177.086452"/>
     <use style="fill:#1f77b4;stroke:#1f77b4;" x="199.570434" xlink:href="#m0eaff4cf34" y="65.40126"/>
     <use style="fill:#1f77b4;stroke:#1f77b4;" x="140.22242" xlink:href="#m0eaff4cf34" y="135.836224"/>
     <use style="fill:#1f77b4;stroke:#1f77b4;" x="286.07418" xlink:href="#m0eaff4cf34" y="74.623272"/>
     <use style="fill:#1f77b4;stroke:#1f77b4;" x="272.749566" xlink:href="#m0eaff4cf34" y="65.40126"/>
     <use style="fill:#1f77b4;stroke:#1f77b4;" x="163.679729" xlink:href="#m0eaff4cf34" y="100.463556"/>
     <use style="fill:#1f77b4;stroke:#1f77b4;" x="392.473066" xlink:href="#m0eaff4cf34" y="271.711482"/>
     <use style="fill:#1f77b4;stroke:#1f77b4;" x="332.09758" xlink:href="#m0eaff4cf34" y="135.836224"/>
     <use style="fill:#1f77b4;stroke:#1f77b4;" x="316.251006" xlink:href="#m0eaff4cf34" y="110.863197"/>
     <use style="fill:#1f77b4;stroke:#1f77b4;" x="262.449911" xlink:href="#m0eaff4cf34" y="59.644482"/>
     <use style="fill:#1f77b4;stroke:#1f77b4;" x="127.575589" xlink:href="#m0eaff4cf34" y="158.979853"/>
     <use style="fill:#1f77b4;stroke:#1f77b4;" x="324.055056" xlink:href="#m0eaff4cf34" y="122.601535"/>
     <use style="fill:#1f77b4;stroke:#1f77b4;" x="336.226041" xlink:href="#m0eaff4cf34" y="143.078085"/>
     <use style="fill:#1f77b4;stroke:#1f77b4;" x="109.073254" xlink:href="#m0eaff4cf34" y="197.957161"/>
     <use style="fill:#1f77b4;stroke:#1f77b4;" x="344.744411" xlink:href="#m0eaff4cf34" y="158.979853"/>
     <use style="fill:#1f77b4;stroke:#1f77b4;" x="265.840463" xlink:href="#m0eaff4cf34" y="61.322096"/>
     <use style="fill:#1f77b4;stroke:#1f77b4;" x="216.344165" xlink:href="#m0eaff4cf34" y="57.138807"/>
     <use style="fill:#1f77b4;stroke:#1f77b4;" x="171.135071" xlink:href="#m0eaff4cf34" y="91.279045"/>
     <use style="fill:#1f77b4;stroke:#1f77b4;" x="353.69893" xlink:href="#m0eaff4cf34" y="177.086452"/>
     <use style="fill:#1f77b4;stroke:#1f77b4;" x="400.867913" xlink:href="#m0eaff4cf34" y="295.488"/>
     <use style="fill:#1f77b4;stroke:#1f77b4;" x="247.602243" xlink:href="#m0eaff4cf34" y="54.775655"/>
     <use style="fill:#1f77b4;stroke:#1f77b4;" x="144.27678" xlink:href="#m0eaff4cf34" y="129.020148"/>
     <use style="fill:#1f77b4;stroke:#1f77b4;" x="113.934586" xlink:href="#m0eaff4cf34" y="187.129433"/>
     <use style="fill:#1f77b4;stroke:#1f77b4;" x="152.193705" xlink:href="#m0eaff4cf34" y="116.556182"/>
     <use style="fill:#1f77b4;stroke:#1f77b4;" x="174.817126" xlink:href="#m0eaff4cf34" y="87.107681"/>
     <use style="fill:#1f77b4;stroke:#1f77b4;" x="255.975835" xlink:href="#m0eaff4cf34" y="57.138807"/>
     <use style="fill:#1f77b4;stroke:#1f77b4;" x="206.479537" xlink:href="#m0eaff4cf34" y="61.322096"/>
     <use style="fill:#1f77b4;stroke:#1f77b4;" x="182.153738" xlink:href="#m0eaff4cf34" y="79.482412"/>
     <use style="fill:#1f77b4;stroke:#1f77b4;" x="224.717757" xlink:href="#m0eaff4cf34" y="54.775655"/>
     <use style="fill:#1f77b4;stroke:#1f77b4;" x="304.895496" xlink:href="#m0eaff4cf34" y="95.726313"/>
     <use style="fill:#1f77b4;stroke:#1f77b4;" x="253.125272" xlink:href="#m0eaff4cf34" y="56.412514"/>
     <use style="fill:#1f77b4;stroke:#1f77b4;" x="269.276897" xlink:href="#m0eaff4cf34" y="63.242585"/>
     <use style="fill:#1f77b4;stroke:#1f77b4;" x="308.640271" xlink:href="#m0eaff4cf34" y="100.463556"/>
     <use style="fill:#1f77b4;stroke:#1f77b4;" x="279.834626" xlink:href="#m0eaff4cf34" y="70.443986"/>
     <use style="fill:#1f77b4;stroke:#1f77b4;" x="219.194728" xlink:href="#m0eaff4cf34" y="56.412514"/>
     <use style="fill:#1f77b4;stroke:#1f77b4;" x="312.423927" xlink:href="#m0eaff4cf34" y="105.504353"/>
     <use style="fill:#1f77b4;stroke:#1f77b4;" x="293.839664" xlink:href="#m0eaff4cf34" y="83.192978"/>
     <use style="fill:#1f77b4;stroke:#1f77b4;" x="297.502874" xlink:href="#m0eaff4cf34" y="87.107681"/>
     <use style="fill:#1f77b4;stroke:#1f77b4;" x="358.385414" xlink:href="#m0eaff4cf34" y="187.129433"/>
     <use style="fill:#1f77b4;stroke:#1f77b4;" x="167.424504" xlink:href="#m0eaff4cf34" y="95.726313"/>
     <use style="fill:#1f77b4;stroke:#1f77b4;" x="363.246746" xlink:href="#m0eaff4cf34" y="197.957161"/>
     <use style="fill:#1f77b4;stroke:#1f77b4;" x="79.846934" xlink:href="#m0eaff4cf34" y="271.711482"/>
     <use style="fill:#1f77b4;stroke:#1f77b4;" x="188.416635" xlink:href="#m0eaff4cf34" y="72.609887"/>
     <use style="fill:#1f77b4;stroke:#1f77b4;" x="123.160895" xlink:href="#m0eaff4cf34" y="167.728764"/>
     <use style="fill:#1f77b4;stroke:#1f77b4;" x="196.059573" xlink:href="#m0eaff4cf34" y="67.800193"/>
     <use style="fill:#1f77b4;stroke:#1f77b4;" x="203.043103" xlink:href="#m0eaff4cf34" y="63.242585"/>
     <use style="fill:#1f77b4;stroke:#1f77b4;" x="301.184929" xlink:href="#m0eaff4cf34" y="91.279045"/>
     <use style="fill:#1f77b4;stroke:#1f77b4;" x="244.449311" xlink:href="#m0eaff4cf34" y="54.117749"/>
     <use style="fill:#1f77b4;stroke:#1f77b4;" x="349.159105" xlink:href="#m0eaff4cf34" y="167.728764"/>
     <use style="fill:#1f77b4;stroke:#1f77b4;" x="187.389736" xlink:href="#m0eaff4cf34" y="73.471434"/>
     <use style="fill:#1f77b4;stroke:#1f77b4;" x="227.870689" xlink:href="#m0eaff4cf34" y="54.117749"/>
     <use style="fill:#1f77b4;stroke:#1f77b4;" x="192.485374" xlink:href="#m0eaff4cf34" y="70.443986"/>
     <use style="fill:#1f77b4;stroke:#1f77b4;" x="250.486677" xlink:href="#m0eaff4cf34" y="55.648046"/>
     <use style="fill:#1f77b4;stroke:#1f77b4;" x="136.093959" xlink:href="#m0eaff4cf34" y="143.078085"/>
     <use style="fill:#1f77b4;stroke:#1f77b4;" x="284.930264" xlink:href="#m0eaff4cf34" y="73.471434"/>
     <use style="fill:#1f77b4;stroke:#1f77b4;" x="221.833323" xlink:href="#m0eaff4cf34" y="55.648046"/>
     <use style="fill:#1f77b4;stroke:#1f77b4;" x="379.355635" xlink:href="#m0eaff4cf34" y="236.798049"/>
     <use style="fill:#1f77b4;stroke:#1f77b4;" x="259.134909" xlink:href="#m0eaff4cf34" y="58.230054"/>
     <use style="fill:#1f77b4;stroke:#1f77b4;" x="186.24582" xlink:href="#m0eaff4cf34" y="74.623272"/>
     <use style="fill:#1f77b4;stroke:#1f77b4;" x="236.16" xlink:href="#m0eaff4cf34" y="56.883465"/>
     <use style="fill:#1f77b4;stroke:#1f77b4;" x="209.870089" xlink:href="#m0eaff4cf34" y="59.644482"/>
     <use style="fill:#1f77b4;stroke:#1f77b4;" x="283.903365" xlink:href="#m0eaff4cf34" y="72.609887"/>
     <use style="fill:#1f77b4;stroke:#1f77b4;" x="148.264944" xlink:href="#m0eaff4cf34" y="122.601535"/>
     <use style="fill:#1f77b4;stroke:#1f77b4;" x="241.185203" xlink:href="#m0eaff4cf34" y="53.697249"/>
     <use style="fill:#1f77b4;stroke:#1f77b4;" x="290.166262" xlink:href="#m0eaff4cf34" y="79.482412"/>
     <use style="fill:#1f77b4;stroke:#1f77b4;" x="213.185091" xlink:href="#m0eaff4cf34" y="58.230054"/>
     <use style="fill:#1f77b4;stroke:#1f77b4;" x="159.896073" xlink:href="#m0eaff4cf34" y="105.504353"/>
     <use style="fill:#1f77b4;stroke:#1f77b4;" x="328.04322" xlink:href="#m0eaff4cf34" y="129.020148"/>
     <use style="fill:#1f77b4;stroke:#1f77b4;" x="320.126295" xlink:href="#m0eaff4cf34" y="116.556182"/>
     <use style="fill:#1f77b4;stroke:#1f77b4;" x="237.92738" xlink:href="#m0eaff4cf34" y="53.568"/>
     <use style="fill:#1f77b4;stroke:#1f77b4;" x="156.068994" xlink:href="#m0eaff4cf34" y="110.863197"/>
     <use style="fill:#1f77b4;stroke:#1f77b4;" x="234.39262" xlink:href="#m0eaff4cf34" y="53.568"/>
     <use style="fill:#1f77b4;stroke:#1f77b4;" x="231.134797" xlink:href="#m0eaff4cf34" y="53.697249"/>
    </g>
   </g>
   <g id="patch_3">
    <path d="M 57.6 307.584 
L 57.6 41.472 
" style="fill:none;stroke:#000000;stroke-linecap:square;stroke-linejoin:miter;stroke-width:0.8;"/>
   </g>
   <g id="patch_4">
    <path d="M 414.72 307.584 
L 414.72 41.472 
" style="fill:none;stroke:#000000;stroke-linecap:square;stroke-linejoin:miter;stroke-width:0.8;"/>
   </g>
   <g id="patch_5">
    <path d="M 57.6 307.584 
L 414.72 307.584 
" style="fill:none;stroke:#000000;stroke-linecap:square;stroke-linejoin:miter;stroke-width:0.8;"/>
   </g>
   <g id="patch_6">
    <path d="M 57.6 41.472 
L 414.72 41.472 
" style="fill:none;stroke:#000000;stroke-linecap:square;stroke-linejoin:miter;stroke-width:0.8;"/>
   </g>
  </g>
 </g>
 <defs>
  <clipPath id="pcdd3eb1b9c">
   <rect height="266.112" width="357.12" x="57.6" y="41.472"/>
  </clipPath>
 </defs>
</svg>
