<?xml version="1.0" encoding="utf-8" standalone="no"?>
<!DOCTYPE svg PUBLIC "-//W3C//DTD SVG 1.1//EN"
  "http://www.w3.org/Graphics/SVG/1.1/DTD/svg11.dtd">
<!-- Created with matplotlib (http://matplotlib.org/) -->
<svg height="345pt" version="1.1" viewBox="0 0 460 345" width="460pt" xmlns="http://www.w3.org/2000/svg" xmlns:xlink="http://www.w3.org/1999/xlink">
 <defs>
  <style type="text/css">
*{stroke-linecap:butt;stroke-linejoin:round;}
  </style>
 </defs>
 <g id="figure_1">
  <g id="patch_1">
   <path d="M 0 345.6 
L 460.8 345.6 
L 460.8 0 
L 0 0 
z
" style="fill:#ffffff;"/>
  </g>
  <g id="axes_1">
   <g id="patch_2">
    <path d="M 57.6 307.584 
L 414.72 307.584 
L 414.72 41.472 
L 57.6 41.472 
z
" style="fill:#ffffff;"/>
   </g>
   <g id="matplotlib.axis_1">
    <g id="xtick_1">
     <g id="line2d_1">
      <path clip-path="url(#p671d3ede53)" d="M 112.852953 307.584 
L 112.852953 41.472 
" style="fill:none;stroke:#b0b0b0;stroke-linecap:square;stroke-width:0.8;"/>
     </g>
     <g id="line2d_2">
      <defs>
       <path d="M 0 0 
L 0 3.5 
" id="m4d6085ca79" style="stroke:#000000;stroke-width:0.8;"/>
      </defs>
      <g>
       <use style="stroke:#000000;stroke-width:0.8;" x="112.852953" xlink:href="#m4d6085ca79" y="307.584"/>
      </g>
     </g>
     <g id="text_1">
      <!-- −10 -->
      <defs>
       <path d="M 10.59375 35.5 
L 73.1875 35.5 
L 73.1875 27.203125 
L 10.59375 27.203125 
z
" id="DejaVuSans-2212"/>
       <path d="M 12.40625 8.296875 
L 28.515625 8.296875 
L 28.515625 63.921875 
L 10.984375 60.40625 
L 10.984375 69.390625 
L 28.421875 72.90625 
L 38.28125 72.90625 
L 38.28125 8.296875 
L 54.390625 8.296875 
L 54.390625 0 
L 12.40625 0 
z
" id="DejaVuSans-31"/>
       <path d="M 31.78125 66.40625 
Q 24.171875 66.40625 20.328125 58.90625 
Q 16.5 51.421875 16.5 36.375 
Q 16.5 21.390625 20.328125 13.890625 
Q 24.171875 6.390625 31.78125 6.390625 
Q 39.453125 6.390625 43.28125 13.890625 
Q 47.125 21.390625 47.125 36.375 
Q 47.125 51.421875 43.28125 58.90625 
Q 39.453125 66.40625 31.78125 66.40625 
M 31.78125 74.21875 
Q 44.046875 74.21875 50.515625 64.515625 
Q 56.984375 54.828125 56.984375 36.375 
Q 56.984375 17.96875 50.515625 8.265625 
Q 44.046875 -1.421875 31.78125 -1.421875 
Q 19.53125 -1.421875 13.0625 8.265625 
Q 6.59375 17.96875 6.59375 36.375 
Q 6.59375 54.828125 13.0625 64.515625 
Q 19.53125 74.21875 31.78125 74.21875 
" id="DejaVuSans-30"/>
      </defs>
      <g transform="translate(102.30061 322.182437)scale(0.1 -0.1)">
       <use xlink:href="#DejaVuSans-2212"/>
       <use x="83.789062" xlink:href="#DejaVuSans-31"/>
       <use x="147.412109" xlink:href="#DejaVuSans-30"/>
      </g>
     </g>
    </g>
    <g id="xtick_2">
     <g id="line2d_3">
      <path clip-path="url(#p671d3ede53)" d="M 174.506477 307.584 
L 174.506477 41.472 
" style="fill:none;stroke:#b0b0b0;stroke-linecap:square;stroke-width:0.8;"/>
     </g>
     <g id="line2d_4">
      <g>
       <use style="stroke:#000000;stroke-width:0.8;" x="174.506477" xlink:href="#m4d6085ca79" y="307.584"/>
      </g>
     </g>
     <g id="text_2">
      <!-- −5 -->
      <defs>
       <path d="M 10.796875 72.90625 
L 49.515625 72.90625 
L 49.515625 64.59375 
L 19.828125 64.59375 
L 19.828125 46.734375 
Q 21.96875 47.46875 24.109375 47.828125 
Q 26.265625 48.1875 28.421875 48.1875 
Q 40.625 48.1875 47.75 41.5 
Q 54.890625 34.8125 54.890625 23.390625 
Q 54.890625 11.625 47.5625 5.09375 
Q 40.234375 -1.421875 26.90625 -1.421875 
Q 22.3125 -1.421875 17.546875 -0.640625 
Q 12.796875 0.140625 7.71875 1.703125 
L 7.71875 11.625 
Q 12.109375 9.234375 16.796875 8.0625 
Q 21.484375 6.890625 26.703125 6.890625 
Q 35.15625 6.890625 40.078125 11.328125 
Q 45.015625 15.765625 45.015625 23.390625 
Q 45.015625 31 40.078125 35.4375 
Q 35.15625 39.890625 26.703125 39.890625 
Q 22.75 39.890625 18.8125 39.015625 
Q 14.890625 38.140625 10.796875 36.28125 
z
" id="DejaVuSans-35"/>
      </defs>
      <g transform="translate(167.135383 322.182437)scale(0.1 -0.1)">
       <use xlink:href="#DejaVuSans-2212"/>
       <use x="83.789062" xlink:href="#DejaVuSans-35"/>
      </g>
     </g>
    </g>
    <g id="xtick_3">
     <g id="line2d_5">
      <path clip-path="url(#p671d3ede53)" d="M 236.16 307.584 
L 236.16 41.472 
" style="fill:none;stroke:#b0b0b0;stroke-linecap:square;stroke-width:0.8;"/>
     </g>
     <g id="line2d_6">
      <g>
       <use style="stroke:#000000;stroke-width:0.8;" x="236.16" xlink:href="#m4d6085ca79" y="307.584"/>
      </g>
     </g>
     <g id="text_3">
      <!-- 0 -->
      <g transform="translate(232.97875 322.182437)scale(0.1 -0.1)">
       <use xlink:href="#DejaVuSans-30"/>
      </g>
     </g>
    </g>
    <g id="xtick_4">
     <g id="line2d_7">
      <path clip-path="url(#p671d3ede53)" d="M 297.813523 307.584 
L 297.813523 41.472 
" style="fill:none;stroke:#b0b0b0;stroke-linecap:square;stroke-width:0.8;"/>
     </g>
     <g id="line2d_8">
      <g>
       <use style="stroke:#000000;stroke-width:0.8;" x="297.813523" xlink:href="#m4d6085ca79" y="307.584"/>
      </g>
     </g>
     <g id="text_4">
      <!-- 5 -->
      <g transform="translate(294.632273 322.182437)scale(0.1 -0.1)">
       <use xlink:href="#DejaVuSans-35"/>
      </g>
     </g>
    </g>
    <g id="xtick_5">
     <g id="line2d_9">
      <path clip-path="url(#p671d3ede53)" d="M 359.467047 307.584 
L 359.467047 41.472 
" style="fill:none;stroke:#b0b0b0;stroke-linecap:square;stroke-width:0.8;"/>
     </g>
     <g id="line2d_10">
      <g>
       <use style="stroke:#000000;stroke-width:0.8;" x="359.467047" xlink:href="#m4d6085ca79" y="307.584"/>
      </g>
     </g>
     <g id="text_5">
      <!-- 10 -->
      <g transform="translate(353.104547 322.182437)scale(0.1 -0.1)">
       <use xlink:href="#DejaVuSans-31"/>
       <use x="63.623047" xlink:href="#DejaVuSans-30"/>
      </g>
     </g>
    </g>
    <g id="text_6">
     <!-- $\gamma_i$ -->
     <defs>
      <path d="M 23.296875 46.09375 
L 28.71875 12.3125 
L 54 54.6875 
L 63.53125 54.6875 
L 30.8125 0 
L 26.765625 -20.796875 
L 17.78125 -20.796875 
L 21.828125 0 
L 15.4375 40.828125 
Q 14.453125 46.96875 9.8125 46.96875 
L 7.421875 46.96875 
L 8.890625 54.6875 
L 12.3125 54.6875 
Q 21.921875 54.6875 23.296875 46.09375 
" id="DejaVuSans-Oblique-3b3"/>
      <path d="M 18.3125 75.984375 
L 27.296875 75.984375 
L 25.09375 64.59375 
L 16.109375 64.59375 
z
M 14.203125 54.6875 
L 23.1875 54.6875 
L 12.5 0 
L 3.515625 0 
z
" id="DejaVuSans-Oblique-69"/>
     </defs>
     <g transform="translate(232.06 335.84025)scale(0.1 -0.1)">
      <use transform="translate(0 0.3125)" xlink:href="#DejaVuSans-Oblique-3b3"/>
      <use transform="translate(59.179688 -16.09375)scale(0.7)" xlink:href="#DejaVuSans-Oblique-69"/>
     </g>
    </g>
   </g>
   <g id="matplotlib.axis_2">
    <g id="ytick_1">
     <g id="line2d_11">
      <path clip-path="url(#p671d3ede53)" d="M 57.6 278.985176 
L 414.72 278.985176 
" style="fill:none;stroke:#b0b0b0;stroke-linecap:square;stroke-width:0.8;"/>
     </g>
     <g id="line2d_12">
      <defs>
       <path d="M 0 0 
L -3.5 0 
" id="m4ddb4a667d" style="stroke:#000000;stroke-width:0.8;"/>
      </defs>
      <g>
       <use style="stroke:#000000;stroke-width:0.8;" x="57.6" xlink:href="#m4ddb4a667d" y="278.985176"/>
      </g>
     </g>
     <g id="text_7">
      <!-- ${10^{-74}}$ -->
      <defs>
       <path d="M 8.203125 72.90625 
L 55.078125 72.90625 
L 55.078125 68.703125 
L 28.609375 0 
L 18.3125 0 
L 43.21875 64.59375 
L 8.203125 64.59375 
z
" id="DejaVuSans-37"/>
       <path d="M 37.796875 64.3125 
L 12.890625 25.390625 
L 37.796875 25.390625 
z
M 35.203125 72.90625 
L 47.609375 72.90625 
L 47.609375 25.390625 
L 58.015625 25.390625 
L 58.015625 17.1875 
L 47.609375 17.1875 
L 47.609375 0 
L 37.796875 0 
L 37.796875 17.1875 
L 4.890625 17.1875 
L 4.890625 26.703125 
z
" id="DejaVuSans-34"/>
      </defs>
      <g transform="translate(22.7 282.784395)scale(0.1 -0.1)">
       <use transform="translate(0 0.684375)" xlink:href="#DejaVuSans-31"/>
       <use transform="translate(63.623047 0.684375)" xlink:href="#DejaVuSans-30"/>
       <use transform="translate(128.203125 38.965625)scale(0.7)" xlink:href="#DejaVuSans-2212"/>
       <use transform="translate(186.855469 38.965625)scale(0.7)" xlink:href="#DejaVuSans-37"/>
       <use transform="translate(231.391602 38.965625)scale(0.7)" xlink:href="#DejaVuSans-34"/>
      </g>
     </g>
    </g>
    <g id="ytick_2">
     <g id="line2d_13">
      <path clip-path="url(#p671d3ede53)" d="M 57.6 248.122458 
L 414.72 248.122458 
" style="fill:none;stroke:#b0b0b0;stroke-linecap:square;stroke-width:0.8;"/>
     </g>
     <g id="line2d_14">
      <g>
       <use style="stroke:#000000;stroke-width:0.8;" x="57.6" xlink:href="#m4ddb4a667d" y="248.122458"/>
      </g>
     </g>
     <g id="text_8">
      <!-- ${10^{-64}}$ -->
      <defs>
       <path d="M 33.015625 40.375 
Q 26.375 40.375 22.484375 35.828125 
Q 18.609375 31.296875 18.609375 23.390625 
Q 18.609375 15.53125 22.484375 10.953125 
Q 26.375 6.390625 33.015625 6.390625 
Q 39.65625 6.390625 43.53125 10.953125 
Q 47.40625 15.53125 47.40625 23.390625 
Q 47.40625 31.296875 43.53125 35.828125 
Q 39.65625 40.375 33.015625 40.375 
M 52.59375 71.296875 
L 52.59375 62.3125 
Q 48.875 64.0625 45.09375 64.984375 
Q 41.3125 65.921875 37.59375 65.921875 
Q 27.828125 65.921875 22.671875 59.328125 
Q 17.53125 52.734375 16.796875 39.40625 
Q 19.671875 43.65625 24.015625 45.921875 
Q 28.375 48.1875 33.59375 48.1875 
Q 44.578125 48.1875 50.953125 41.515625 
Q 57.328125 34.859375 57.328125 23.390625 
Q 57.328125 12.15625 50.6875 5.359375 
Q 44.046875 -1.421875 33.015625 -1.421875 
Q 20.359375 -1.421875 13.671875 8.265625 
Q 6.984375 17.96875 6.984375 36.375 
Q 6.984375 53.65625 15.1875 63.9375 
Q 23.390625 74.21875 37.203125 74.21875 
Q 40.921875 74.21875 44.703125 73.484375 
Q 48.484375 72.75 52.59375 71.296875 
" id="DejaVuSans-36"/>
      </defs>
      <g transform="translate(22.7 251.921677)scale(0.1 -0.1)">
       <use transform="translate(0 0.765625)" xlink:href="#DejaVuSans-31"/>
       <use transform="translate(63.623047 0.765625)" xlink:href="#DejaVuSans-30"/>
       <use transform="translate(128.203125 39.046875)scale(0.7)" xlink:href="#DejaVuSans-2212"/>
       <use transform="translate(186.855469 39.046875)scale(0.7)" xlink:href="#DejaVuSans-36"/>
       <use transform="translate(231.391602 39.046875)scale(0.7)" xlink:href="#DejaVuSans-34"/>
      </g>
     </g>
    </g>
    <g id="ytick_3">
     <g id="line2d_15">
      <path clip-path="url(#p671d3ede53)" d="M 57.6 217.25974 
L 414.72 217.25974 
" style="fill:none;stroke:#b0b0b0;stroke-linecap:square;stroke-width:0.8;"/>
     </g>
     <g id="line2d_16">
      <g>
       <use style="stroke:#000000;stroke-width:0.8;" x="57.6" xlink:href="#m4ddb4a667d" y="217.25974"/>
      </g>
     </g>
     <g id="text_9">
      <!-- ${10^{-54}}$ -->
      <g transform="translate(22.7 221.058959)scale(0.1 -0.1)">
       <use transform="translate(0 0.684375)" xlink:href="#DejaVuSans-31"/>
       <use transform="translate(63.623047 0.684375)" xlink:href="#DejaVuSans-30"/>
       <use transform="translate(128.203125 38.965625)scale(0.7)" xlink:href="#DejaVuSans-2212"/>
       <use transform="translate(186.855469 38.965625)scale(0.7)" xlink:href="#DejaVuSans-35"/>
       <use transform="translate(231.391602 38.965625)scale(0.7)" xlink:href="#DejaVuSans-34"/>
      </g>
     </g>
    </g>
    <g id="ytick_4">
     <g id="line2d_17">
      <path clip-path="url(#p671d3ede53)" d="M 57.6 186.397022 
L 414.72 186.397022 
" style="fill:none;stroke:#b0b0b0;stroke-linecap:square;stroke-width:0.8;"/>
     </g>
     <g id="line2d_18">
      <g>
       <use style="stroke:#000000;stroke-width:0.8;" x="57.6" xlink:href="#m4ddb4a667d" y="186.397022"/>
      </g>
     </g>
     <g id="text_10">
      <!-- ${10^{-44}}$ -->
      <g transform="translate(22.7 190.19624)scale(0.1 -0.1)">
       <use transform="translate(0 0.684375)" xlink:href="#DejaVuSans-31"/>
       <use transform="translate(63.623047 0.684375)" xlink:href="#DejaVuSans-30"/>
       <use transform="translate(128.203125 38.965625)scale(0.7)" xlink:href="#DejaVuSans-2212"/>
       <use transform="translate(186.855469 38.965625)scale(0.7)" xlink:href="#DejaVuSans-34"/>
       <use transform="translate(231.391602 38.965625)scale(0.7)" xlink:href="#DejaVuSans-34"/>
      </g>
     </g>
    </g>
    <g id="ytick_5">
     <g id="line2d_19">
      <path clip-path="url(#p671d3ede53)" d="M 57.6 155.534304 
L 414.72 155.534304 
" style="fill:none;stroke:#b0b0b0;stroke-linecap:square;stroke-width:0.8;"/>
     </g>
     <g id="line2d_20">
      <g>
       <use style="stroke:#000000;stroke-width:0.8;" x="57.6" xlink:href="#m4ddb4a667d" y="155.534304"/>
      </g>
     </g>
     <g id="text_11">
      <!-- ${10^{-34}}$ -->
      <defs>
       <path d="M 40.578125 39.3125 
Q 47.65625 37.796875 51.625 33 
Q 55.609375 28.21875 55.609375 21.1875 
Q 55.609375 10.40625 48.1875 4.484375 
Q 40.765625 -1.421875 27.09375 -1.421875 
Q 22.515625 -1.421875 17.65625 -0.515625 
Q 12.796875 0.390625 7.625 2.203125 
L 7.625 11.71875 
Q 11.71875 9.328125 16.59375 8.109375 
Q 21.484375 6.890625 26.8125 6.890625 
Q 36.078125 6.890625 40.9375 10.546875 
Q 45.796875 14.203125 45.796875 21.1875 
Q 45.796875 27.640625 41.28125 31.265625 
Q 36.765625 34.90625 28.71875 34.90625 
L 20.21875 34.90625 
L 20.21875 43.015625 
L 29.109375 43.015625 
Q 36.375 43.015625 40.234375 45.921875 
Q 44.09375 48.828125 44.09375 54.296875 
Q 44.09375 59.90625 40.109375 62.90625 
Q 36.140625 65.921875 28.71875 65.921875 
Q 24.65625 65.921875 20.015625 65.03125 
Q 15.375 64.15625 9.8125 62.3125 
L 9.8125 71.09375 
Q 15.4375 72.65625 20.34375 73.4375 
Q 25.25 74.21875 29.59375 74.21875 
Q 40.828125 74.21875 47.359375 69.109375 
Q 53.90625 64.015625 53.90625 55.328125 
Q 53.90625 49.265625 50.4375 45.09375 
Q 46.96875 40.921875 40.578125 39.3125 
" id="DejaVuSans-33"/>
      </defs>
      <g transform="translate(22.7 159.333522)scale(0.1 -0.1)">
       <use transform="translate(0 0.765625)" xlink:href="#DejaVuSans-31"/>
       <use transform="translate(63.623047 0.765625)" xlink:href="#DejaVuSans-30"/>
       <use transform="translate(128.203125 39.046875)scale(0.7)" xlink:href="#DejaVuSans-2212"/>
       <use transform="translate(186.855469 39.046875)scale(0.7)" xlink:href="#DejaVuSans-33"/>
       <use transform="translate(231.391602 39.046875)scale(0.7)" xlink:href="#DejaVuSans-34"/>
      </g>
     </g>
    </g>
    <g id="ytick_6">
     <g id="line2d_21">
      <path clip-path="url(#p671d3ede53)" d="M 57.6 124.671586 
L 414.72 124.671586 
" style="fill:none;stroke:#b0b0b0;stroke-linecap:square;stroke-width:0.8;"/>
     </g>
     <g id="line2d_22">
      <g>
       <use style="stroke:#000000;stroke-width:0.8;" x="57.6" xlink:href="#m4ddb4a667d" y="124.671586"/>
      </g>
     </g>
     <g id="text_12">
      <!-- ${10^{-24}}$ -->
      <defs>
       <path d="M 19.1875 8.296875 
L 53.609375 8.296875 
L 53.609375 0 
L 7.328125 0 
L 7.328125 8.296875 
Q 12.9375 14.109375 22.625 23.890625 
Q 32.328125 33.6875 34.8125 36.53125 
Q 39.546875 41.84375 41.421875 45.53125 
Q 43.3125 49.21875 43.3125 52.78125 
Q 43.3125 58.59375 39.234375 62.25 
Q 35.15625 65.921875 28.609375 65.921875 
Q 23.96875 65.921875 18.8125 64.3125 
Q 13.671875 62.703125 7.8125 59.421875 
L 7.8125 69.390625 
Q 13.765625 71.78125 18.9375 73 
Q 24.125 74.21875 28.421875 74.21875 
Q 39.75 74.21875 46.484375 68.546875 
Q 53.21875 62.890625 53.21875 53.421875 
Q 53.21875 48.921875 51.53125 44.890625 
Q 49.859375 40.875 45.40625 35.40625 
Q 44.1875 33.984375 37.640625 27.21875 
Q 31.109375 20.453125 19.1875 8.296875 
" id="DejaVuSans-32"/>
      </defs>
      <g transform="translate(22.7 128.470804)scale(0.1 -0.1)">
       <use transform="translate(0 0.765625)" xlink:href="#DejaVuSans-31"/>
       <use transform="translate(63.623047 0.765625)" xlink:href="#DejaVuSans-30"/>
       <use transform="translate(128.203125 39.046875)scale(0.7)" xlink:href="#DejaVuSans-2212"/>
       <use transform="translate(186.855469 39.046875)scale(0.7)" xlink:href="#DejaVuSans-32"/>
       <use transform="translate(231.391602 39.046875)scale(0.7)" xlink:href="#DejaVuSans-34"/>
      </g>
     </g>
    </g>
    <g id="ytick_7">
     <g id="line2d_23">
      <path clip-path="url(#p671d3ede53)" d="M 57.6 93.808867 
L 414.72 93.808867 
" style="fill:none;stroke:#b0b0b0;stroke-linecap:square;stroke-width:0.8;"/>
     </g>
     <g id="line2d_24">
      <g>
       <use style="stroke:#000000;stroke-width:0.8;" x="57.6" xlink:href="#m4ddb4a667d" y="93.808867"/>
      </g>
     </g>
     <g id="text_13">
      <!-- ${10^{-14}}$ -->
      <g transform="translate(22.7 97.608086)scale(0.1 -0.1)">
       <use transform="translate(0 0.684375)" xlink:href="#DejaVuSans-31"/>
       <use transform="translate(63.623047 0.684375)" xlink:href="#DejaVuSans-30"/>
       <use transform="translate(128.203125 38.965625)scale(0.7)" xlink:href="#DejaVuSans-2212"/>
       <use transform="translate(186.855469 38.965625)scale(0.7)" xlink:href="#DejaVuSans-31"/>
       <use transform="translate(231.391602 38.965625)scale(0.7)" xlink:href="#DejaVuSans-34"/>
      </g>
     </g>
    </g>
    <g id="ytick_8">
     <g id="line2d_25">
      <path clip-path="url(#p671d3ede53)" d="M 57.6 62.946149 
L 414.72 62.946149 
" style="fill:none;stroke:#b0b0b0;stroke-linecap:square;stroke-width:0.8;"/>
     </g>
     <g id="line2d_26">
      <g>
       <use style="stroke:#000000;stroke-width:0.8;" x="57.6" xlink:href="#m4ddb4a667d" y="62.946149"/>
      </g>
     </g>
     <g id="text_14">
      <!-- ${10^{-4}}$ -->
      <g transform="translate(27.1 66.745368)scale(0.1 -0.1)">
       <use transform="translate(0 0.684375)" xlink:href="#DejaVuSans-31"/>
       <use transform="translate(63.623047 0.684375)" xlink:href="#DejaVuSans-30"/>
       <use transform="translate(128.203125 38.965625)scale(0.7)" xlink:href="#DejaVuSans-2212"/>
       <use transform="translate(186.855469 38.965625)scale(0.7)" xlink:href="#DejaVuSans-34"/>
      </g>
     </g>
    </g>
    <g id="text_15">
     <!-- $\omega_i$ -->
     <defs>
      <path d="M 21.390625 -1.421875 
Q 1.125 -1.421875 6.78125 27.59375 
Q 8.984375 39.0625 19.625 54.6875 
L 29.296875 54.6875 
Q 19.234375 39.0625 17 27.34375 
Q 12.796875 6.203125 23.734375 6.203125 
Q 33.84375 6.203125 38.71875 32.46875 
L 47.015625 32.46875 
Q 41.703125 6.0625 51.8125 6.203125 
Q 62.703125 6.296875 66.796875 27.34375 
Q 69.046875 39.0625 65.140625 54.6875 
L 74.8125 54.6875 
Q 79.296875 39.0625 77.09375 27.59375 
Q 71.53125 -1.46875 51.21875 -1.421875 
Q 37.9375 -1.375 39.109375 13.1875 
Q 34.28125 -1.421875 21.390625 -1.421875 
" id="DejaVuSans-Oblique-3c9"/>
     </defs>
     <g transform="translate(16.620312 179.828)rotate(-90)scale(0.1 -0.1)">
      <use transform="translate(0 0.3125)" xlink:href="#DejaVuSans-Oblique-3c9"/>
      <use transform="translate(83.740234 -16.09375)scale(0.7)" xlink:href="#DejaVuSans-Oblique-69"/>
     </g>
    </g>
   </g>
   <g id="line2d_27">
    <defs>
     <path d="M 0 3 
C 0.795609 3 1.55874 2.683901 2.12132 2.12132 
C 2.683901 1.55874 3 0.795609 3 0 
C 3 -0.795609 2.683901 -1.55874 2.12132 -2.12132 
C 1.55874 -2.683901 0.795609 -3 0 -3 
C -0.795609 -3 -1.55874 -2.683901 -2.12132 -2.12132 
C -2.683901 -1.55874 -3 -0.795609 -3 0 
C -3 0.795609 -2.683901 1.55874 -2.12132 2.12132 
C -1.55874 2.683901 -0.795609 3 0 3 
z
" id="md0a1909819" style="stroke:#1f77b4;"/>
    </defs>
    <g clip-path="url(#p671d3ede53)">
     <use style="fill:#1f77b4;stroke:#1f77b4;" x="93.127064" xlink:href="#md0a1909819" y="233.017048"/>
     <use style="fill:#1f77b4;stroke:#1f77b4;" x="110.065747" xlink:href="#md0a1909819" y="193.073625"/>
     <use style="fill:#1f77b4;stroke:#1f77b4;" x="97.667053" xlink:href="#md0a1909819" y="221.827298"/>
     <use style="fill:#1f77b4;stroke:#1f77b4;" x="395.218479" xlink:href="#md0a1909819" y="275.277705"/>
     <use style="fill:#1f77b4;stroke:#1f77b4;" x="144.80034" xlink:href="#md0a1909819" y="126.763274"/>
     <use style="fill:#1f77b4;stroke:#1f77b4;" x="389.301539" xlink:href="#md0a1909819" y="259.183315"/>
     <use style="fill:#1f77b4;stroke:#1f77b4;" x="347.497985" xlink:href="#md0a1909819" y="162.328767"/>
     <use style="fill:#1f77b4;stroke:#1f77b4;" x="203.171354" xlink:href="#md0a1909819" y="62.970989"/>
     <use style="fill:#1f77b4;stroke:#1f77b4;" x="131.707705" xlink:href="#md0a1909819" y="149.282146"/>
     <use style="fill:#1f77b4;stroke:#1f77b4;" x="277.459454" xlink:href="#md0a1909819" y="68.397169"/>
     <use style="fill:#1f77b4;stroke:#1f77b4;" x="252.822333" xlink:href="#md0a1909819" y="55.859893"/>
     <use style="fill:#1f77b4;stroke:#1f77b4;" x="101.974641" xlink:href="#md0a1909819" y="211.536918"/>
     <use style="fill:#1f77b4;stroke:#1f77b4;" x="88.283673" xlink:href="#md0a1909819" y="245.3407"/>
     <use style="fill:#1f77b4;stroke:#1f77b4;" x="106.096591" xlink:href="#md0a1909819" y="201.98941"/>
     <use style="fill:#1f77b4;stroke:#1f77b4;" x="117.636666" xlink:href="#md0a1909819" y="176.825812"/>
     <use style="fill:#1f77b4;stroke:#1f77b4;" x="266.400196" xlink:href="#md0a1909819" y="61.44415"/>
     <use style="fill:#1f77b4;stroke:#1f77b4;" x="300.225903" xlink:href="#md0a1909819" y="89.483518"/>
     <use style="fill:#1f77b4;stroke:#1f77b4;" x="183.604033" xlink:href="#md0a1909819" y="77.68416"/>
     <use style="fill:#1f77b4;stroke:#1f77b4;" x="224.822377" xlink:href="#md0a1909819" y="54.568954"/>
     <use style="fill:#1f77b4;stroke:#1f77b4;" x="69.930705" xlink:href="#md0a1909819" y="295.488"/>
     <use style="fill:#1f77b4;stroke:#1f77b4;" x="366.223409" xlink:href="#md0a1909819" y="201.98941"/>
     <use style="fill:#1f77b4;stroke:#1f77b4;" x="250.148544" xlink:href="#md0a1909819" y="55.147212"/>
     <use style="fill:#1f77b4;stroke:#1f77b4;" x="113.906289" xlink:href="#md0a1909819" y="184.706947"/>
     <use style="fill:#1f77b4;stroke:#1f77b4;" x="337.262636" xlink:href="#md0a1909819" y="143.235154"/>
     <use style="fill:#1f77b4;stroke:#1f77b4;" x="402.389295" xlink:href="#md0a1909819" y="295.488"/>
     <use style="fill:#1f77b4;stroke:#1f77b4;" x="370.345359" xlink:href="#md0a1909819" y="211.536918"/>
     <use style="fill:#1f77b4;stroke:#1f77b4;" x="283.060087" xlink:href="#md0a1909819" y="72.739344"/>
     <use style="fill:#1f77b4;stroke:#1f77b4;" x="205.919804" xlink:href="#md0a1909819" y="61.44415"/>
     <use style="fill:#1f77b4;stroke:#1f77b4;" x="318.149991" xlink:href="#md0a1909819" y="112.491887"/>
     <use style="fill:#1f77b4;stroke:#1f77b4;" x="358.413711" xlink:href="#md0a1909819" y="184.706947"/>
     <use style="fill:#1f77b4;stroke:#1f77b4;" x="354.683334" xlink:href="#md0a1909819" y="176.825812"/>
     <use style="fill:#1f77b4;stroke:#1f77b4;" x="351.048638" xlink:href="#md0a1909819" y="169.37996"/>
     <use style="fill:#1f77b4;stroke:#1f77b4;" x="83.018461" xlink:href="#md0a1909819" y="259.183315"/>
     <use style="fill:#1f77b4;stroke:#1f77b4;" x="180.753005" xlink:href="#md0a1909819" y="80.389946"/>
     <use style="fill:#1f77b4;stroke:#1f77b4;" x="384.036327" xlink:href="#md0a1909819" y="245.3407"/>
     <use style="fill:#1f77b4;stroke:#1f77b4;" x="121.271362" xlink:href="#md0a1909819" y="169.37996"/>
     <use style="fill:#1f77b4;stroke:#1f77b4;" x="291.566995" xlink:href="#md0a1909819" y="80.389946"/>
     <use style="fill:#1f77b4;stroke:#1f77b4;" x="255.51326" xlink:href="#md0a1909819" y="56.706687"/>
     <use style="fill:#1f77b4;stroke:#1f77b4;" x="309.071884" xlink:href="#md0a1909819" y="100.133728"/>
     <use style="fill:#1f77b4;stroke:#1f77b4;" x="362.254253" xlink:href="#md0a1909819" y="193.073625"/>
     <use style="fill:#1f77b4;stroke:#1f77b4;" x="211.385378" xlink:href="#md0a1909819" y="58.803776"/>
     <use style="fill:#1f77b4;stroke:#1f77b4;" x="124.822015" xlink:href="#md0a1909819" y="162.328767"/>
     <use style="fill:#1f77b4;stroke:#1f77b4;" x="147.960424" xlink:href="#md0a1909819" y="121.777945"/>
     <use style="fill:#1f77b4;stroke:#1f77b4;" x="285.880669" xlink:href="#md0a1909819" y="75.135013"/>
     <use style="fill:#1f77b4;stroke:#1f77b4;" x="77.101521" xlink:href="#md0a1909819" y="275.277705"/>
     <use style="fill:#1f77b4;stroke:#1f77b4;" x="141.59907" xlink:href="#md0a1909819" y="131.992051"/>
     <use style="fill:#1f77b4;stroke:#1f77b4;" x="186.439331" xlink:href="#md0a1909819" y="75.135013"/>
     <use style="fill:#1f77b4;stroke:#1f77b4;" x="340.612295" xlink:href="#md0a1909819" y="149.282146"/>
     <use style="fill:#1f77b4;stroke:#1f77b4;" x="244.879125" xlink:href="#md0a1909819" y="54.125897"/>
     <use style="fill:#1f77b4;stroke:#1f77b4;" x="177.885151" xlink:href="#md0a1909819" y="83.255838"/>
     <use style="fill:#1f77b4;stroke:#1f77b4;" x="172.094097" xlink:href="#md0a1909819" y="89.483518"/>
     <use style="fill:#1f77b4;stroke:#1f77b4;" x="219.497667" xlink:href="#md0a1909819" y="55.859893"/>
     <use style="fill:#1f77b4;stroke:#1f77b4;" x="194.860546" xlink:href="#md0a1909819" y="68.397169"/>
     <use style="fill:#1f77b4;stroke:#1f77b4;" x="160.250455" xlink:href="#md0a1909819" y="104.054519"/>
     <use style="fill:#1f77b4;stroke:#1f77b4;" x="327.51966" xlink:href="#md0a1909819" y="126.763274"/>
     <use style="fill:#1f77b4;stroke:#1f77b4;" x="151.082657" xlink:href="#md0a1909819" y="117.024296"/>
     <use style="fill:#1f77b4;stroke:#1f77b4;" x="208.657831" xlink:href="#md0a1909819" y="60.055524"/>
     <use style="fill:#1f77b4;stroke:#1f77b4;" x="157.225143" xlink:href="#md0a1909819" y="108.171407"/>
     <use style="fill:#1f77b4;stroke:#1f77b4;" x="379.192936" xlink:href="#md0a1909819" y="233.017048"/>
     <use style="fill:#1f77b4;stroke:#1f77b4;" x="269.148646" xlink:href="#md0a1909819" y="62.970989"/>
     <use style="fill:#1f77b4;stroke:#1f77b4;" x="280.253296" xlink:href="#md0a1909819" y="70.49427"/>
     <use style="fill:#1f77b4;stroke:#1f77b4;" x="189.259913" xlink:href="#md0a1909819" y="72.739344"/>
     <use style="fill:#1f77b4;stroke:#1f77b4;" x="200.412278" xlink:href="#md0a1909819" y="64.637579"/>
     <use style="fill:#1f77b4;stroke:#1f77b4;" x="274.677813" xlink:href="#md0a1909819" y="66.445658"/>
     <use style="fill:#1f77b4;stroke:#1f77b4;" x="297.320722" xlink:href="#md0a1909819" y="86.285639"/>
     <use style="fill:#1f77b4;stroke:#1f77b4;" x="374.652947" xlink:href="#md0a1909819" y="221.827298"/>
     <use style="fill:#1f77b4;stroke:#1f77b4;" x="128.298152" xlink:href="#md0a1909819" y="155.638806"/>
     <use style="fill:#1f77b4;stroke:#1f77b4;" x="344.021848" xlink:href="#md0a1909819" y="155.638806"/>
     <use style="fill:#1f77b4;stroke:#1f77b4;" x="174.999278" xlink:href="#md0a1909819" y="86.285639"/>
     <use style="fill:#1f77b4;stroke:#1f77b4;" x="288.715967" xlink:href="#md0a1909819" y="77.68416"/>
     <use style="fill:#1f77b4;stroke:#1f77b4;" x="260.934622" xlink:href="#md0a1909819" y="58.803776"/>
     <use style="fill:#1f77b4;stroke:#1f77b4;" x="135.057364" xlink:href="#md0a1909819" y="143.235154"/>
     <use style="fill:#1f77b4;stroke:#1f77b4;" x="222.171456" xlink:href="#md0a1909819" y="55.147212"/>
     <use style="fill:#1f77b4;stroke:#1f77b4;" x="214.102013" xlink:href="#md0a1909819" y="57.687789"/>
     <use style="fill:#1f77b4;stroke:#1f77b4;" x="321.237343" xlink:href="#md0a1909819" y="117.024296"/>
     <use style="fill:#1f77b4;stroke:#1f77b4;" x="166.2201" xlink:href="#md0a1909819" y="96.402276"/>
     <use style="fill:#1f77b4;stroke:#1f77b4;" x="324.359576" xlink:href="#md0a1909819" y="121.777945"/>
     <use style="fill:#1f77b4;stroke:#1f77b4;" x="258.217987" xlink:href="#md0a1909819" y="57.687789"/>
     <use style="fill:#1f77b4;stroke:#1f77b4;" x="330.72093" xlink:href="#md0a1909819" y="131.992051"/>
     <use style="fill:#1f77b4;stroke:#1f77b4;" x="169.16821" xlink:href="#md0a1909819" y="92.854053"/>
     <use style="fill:#1f77b4;stroke:#1f77b4;" x="303.15179" xlink:href="#md0a1909819" y="92.854053"/>
     <use style="fill:#1f77b4;stroke:#1f77b4;" x="239.801055" xlink:href="#md0a1909819" y="53.639951"/>
     <use style="fill:#1f77b4;stroke:#1f77b4;" x="294.434849" xlink:href="#md0a1909819" y="83.255838"/>
     <use style="fill:#1f77b4;stroke:#1f77b4;" x="192.066704" xlink:href="#md0a1909819" y="70.49427"/>
     <use style="fill:#1f77b4;stroke:#1f77b4;" x="138.352842" xlink:href="#md0a1909819" y="137.477609"/>
     <use style="fill:#1f77b4;stroke:#1f77b4;" x="333.967158" xlink:href="#md0a1909819" y="137.477609"/>
     <use style="fill:#1f77b4;stroke:#1f77b4;" x="242.307789" xlink:href="#md0a1909819" y="53.818173"/>
     <use style="fill:#1f77b4;stroke:#1f77b4;" x="312.069545" xlink:href="#md0a1909819" y="104.054519"/>
     <use style="fill:#1f77b4;stroke:#1f77b4;" x="227.440875" xlink:href="#md0a1909819" y="54.125897"/>
     <use style="fill:#1f77b4;stroke:#1f77b4;" x="197.642187" xlink:href="#md0a1909819" y="66.445658"/>
     <use style="fill:#1f77b4;stroke:#1f77b4;" x="163.248116" xlink:href="#md0a1909819" y="100.133728"/>
     <use style="fill:#1f77b4;stroke:#1f77b4;" x="271.907722" xlink:href="#md0a1909819" y="64.637579"/>
     <use style="fill:#1f77b4;stroke:#1f77b4;" x="247.497623" xlink:href="#md0a1909819" y="54.568954"/>
     <use style="fill:#1f77b4;stroke:#1f77b4;" x="306.0999" xlink:href="#md0a1909819" y="96.402276"/>
     <use style="fill:#1f77b4;stroke:#1f77b4;" x="230.012211" xlink:href="#md0a1909819" y="53.818173"/>
     <use style="fill:#1f77b4;stroke:#1f77b4;" x="232.518945" xlink:href="#md0a1909819" y="53.639951"/>
     <use style="fill:#1f77b4;stroke:#1f77b4;" x="237.362941" xlink:href="#md0a1909819" y="53.568"/>
     <use style="fill:#1f77b4;stroke:#1f77b4;" x="263.662169" xlink:href="#md0a1909819" y="60.055524"/>
     <use style="fill:#1f77b4;stroke:#1f77b4;" x="154.170009" xlink:href="#md0a1909819" y="112.491887"/>
     <use style="fill:#1f77b4;stroke:#1f77b4;" x="234.957059" xlink:href="#md0a1909819" y="53.568"/>
     <use style="fill:#1f77b4;stroke:#1f77b4;" x="216.80674" xlink:href="#md0a1909819" y="56.706687"/>
     <use style="fill:#1f77b4;stroke:#1f77b4;" x="315.094857" xlink:href="#md0a1909819" y="108.171407"/>
    </g>
   </g>
   <g id="patch_3">
    <path d="M 57.6 307.584 
L 57.6 41.472 
" style="fill:none;stroke:#000000;stroke-linecap:square;stroke-linejoin:miter;stroke-width:0.8;"/>
   </g>
   <g id="patch_4">
    <path d="M 414.72 307.584 
L 414.72 41.472 
" style="fill:none;stroke:#000000;stroke-linecap:square;stroke-linejoin:miter;stroke-width:0.8;"/>
   </g>
   <g id="patch_5">
    <path d="M 57.6 307.584 
L 414.72 307.584 
" style="fill:none;stroke:#000000;stroke-linecap:square;stroke-linejoin:miter;stroke-width:0.8;"/>
   </g>
   <g id="patch_6">
    <path d="M 57.6 41.472 
L 414.72 41.472 
" style="fill:none;stroke:#000000;stroke-linecap:square;stroke-linejoin:miter;stroke-width:0.8;"/>
   </g>
  </g>
 </g>
 <defs>
  <clipPath id="p671d3ede53">
   <rect height="266.112" width="357.12" x="57.6" y="41.472"/>
  </clipPath>
 </defs>
</svg>
