<?xml version="1.0" encoding="utf-8" standalone="no"?>
<!DOCTYPE svg PUBLIC "-//W3C//DTD SVG 1.1//EN"
  "http://www.w3.org/Graphics/SVG/1.1/DTD/svg11.dtd">
<!-- Created with matplotlib (http://matplotlib.org/) -->
<svg height="345pt" version="1.1" viewBox="0 0 460 345" width="460pt" xmlns="http://www.w3.org/2000/svg" xmlns:xlink="http://www.w3.org/1999/xlink">
 <defs>
  <style type="text/css">
*{stroke-linecap:butt;stroke-linejoin:round;}
  </style>
 </defs>
 <g id="figure_1">
  <g id="patch_1">
   <path d="M 0 345.6 
L 460.8 345.6 
L 460.8 0 
L 0 0 
z
" style="fill:#ffffff;"/>
  </g>
  <g id="axes_1">
   <g id="patch_2">
    <path d="M 57.6 307.584 
L 414.72 307.584 
L 414.72 41.472 
L 57.6 41.472 
z
" style="fill:#ffffff;"/>
   </g>
   <g id="matplotlib.axis_1">
    <g id="xtick_1">
     <g id="line2d_1">
      <path clip-path="url(#pa4b2bfb077)" d="M 112.267344 307.584 
L 112.267344 41.472 
" style="fill:none;stroke:#b0b0b0;stroke-linecap:square;stroke-width:0.8;"/>
     </g>
     <g id="line2d_2">
      <defs>
       <path d="M 0 0 
L 0 3.5 
" id="m30a47647c1" style="stroke:#000000;stroke-width:0.8;"/>
      </defs>
      <g>
       <use style="stroke:#000000;stroke-width:0.8;" x="112.267344" xlink:href="#m30a47647c1" y="307.584"/>
      </g>
     </g>
     <g id="text_1">
      <!-- −10 -->
      <defs>
       <path d="M 10.59375 35.5 
L 73.1875 35.5 
L 73.1875 27.203125 
L 10.59375 27.203125 
z
" id="DejaVuSans-2212"/>
       <path d="M 12.40625 8.296875 
L 28.515625 8.296875 
L 28.515625 63.921875 
L 10.984375 60.40625 
L 10.984375 69.390625 
L 28.421875 72.90625 
L 38.28125 72.90625 
L 38.28125 8.296875 
L 54.390625 8.296875 
L 54.390625 0 
L 12.40625 0 
z
" id="DejaVuSans-31"/>
       <path d="M 31.78125 66.40625 
Q 24.171875 66.40625 20.328125 58.90625 
Q 16.5 51.421875 16.5 36.375 
Q 16.5 21.390625 20.328125 13.890625 
Q 24.171875 6.390625 31.78125 6.390625 
Q 39.453125 6.390625 43.28125 13.890625 
Q 47.125 21.390625 47.125 36.375 
Q 47.125 51.421875 43.28125 58.90625 
Q 39.453125 66.40625 31.78125 66.40625 
M 31.78125 74.21875 
Q 44.046875 74.21875 50.515625 64.515625 
Q 56.984375 54.828125 56.984375 36.375 
Q 56.984375 17.96875 50.515625 8.265625 
Q 44.046875 -1.421875 31.78125 -1.421875 
Q 19.53125 -1.421875 13.0625 8.265625 
Q 6.59375 17.96875 6.59375 36.375 
Q 6.59375 54.828125 13.0625 64.515625 
Q 19.53125 74.21875 31.78125 74.21875 
" id="DejaVuSans-30"/>
      </defs>
      <g transform="translate(101.715 322.182437)scale(0.1 -0.1)">
       <use xlink:href="#DejaVuSans-2212"/>
       <use x="83.789062" xlink:href="#DejaVuSans-31"/>
       <use x="147.412109" xlink:href="#DejaVuSans-30"/>
      </g>
     </g>
    </g>
    <g id="xtick_2">
     <g id="line2d_3">
      <path clip-path="url(#pa4b2bfb077)" d="M 174.213672 307.584 
L 174.213672 41.472 
" style="fill:none;stroke:#b0b0b0;stroke-linecap:square;stroke-width:0.8;"/>
     </g>
     <g id="line2d_4">
      <g>
       <use style="stroke:#000000;stroke-width:0.8;" x="174.213672" xlink:href="#m30a47647c1" y="307.584"/>
      </g>
     </g>
     <g id="text_2">
      <!-- −5 -->
      <defs>
       <path d="M 10.796875 72.90625 
L 49.515625 72.90625 
L 49.515625 64.59375 
L 19.828125 64.59375 
L 19.828125 46.734375 
Q 21.96875 47.46875 24.109375 47.828125 
Q 26.265625 48.1875 28.421875 48.1875 
Q 40.625 48.1875 47.75 41.5 
Q 54.890625 34.8125 54.890625 23.390625 
Q 54.890625 11.625 47.5625 5.09375 
Q 40.234375 -1.421875 26.90625 -1.421875 
Q 22.3125 -1.421875 17.546875 -0.640625 
Q 12.796875 0.140625 7.71875 1.703125 
L 7.71875 11.625 
Q 12.109375 9.234375 16.796875 8.0625 
Q 21.484375 6.890625 26.703125 6.890625 
Q 35.15625 6.890625 40.078125 11.328125 
Q 45.015625 15.765625 45.015625 23.390625 
Q 45.015625 31 40.078125 35.4375 
Q 35.15625 39.890625 26.703125 39.890625 
Q 22.75 39.890625 18.8125 39.015625 
Q 14.890625 38.140625 10.796875 36.28125 
z
" id="DejaVuSans-35"/>
      </defs>
      <g transform="translate(166.842578 322.182437)scale(0.1 -0.1)">
       <use xlink:href="#DejaVuSans-2212"/>
       <use x="83.789062" xlink:href="#DejaVuSans-35"/>
      </g>
     </g>
    </g>
    <g id="xtick_3">
     <g id="line2d_5">
      <path clip-path="url(#pa4b2bfb077)" d="M 236.16 307.584 
L 236.16 41.472 
" style="fill:none;stroke:#b0b0b0;stroke-linecap:square;stroke-width:0.8;"/>
     </g>
     <g id="line2d_6">
      <g>
       <use style="stroke:#000000;stroke-width:0.8;" x="236.16" xlink:href="#m30a47647c1" y="307.584"/>
      </g>
     </g>
     <g id="text_3">
      <!-- 0 -->
      <g transform="translate(232.97875 322.182437)scale(0.1 -0.1)">
       <use xlink:href="#DejaVuSans-30"/>
      </g>
     </g>
    </g>
    <g id="xtick_4">
     <g id="line2d_7">
      <path clip-path="url(#pa4b2bfb077)" d="M 298.106328 307.584 
L 298.106328 41.472 
" style="fill:none;stroke:#b0b0b0;stroke-linecap:square;stroke-width:0.8;"/>
     </g>
     <g id="line2d_8">
      <g>
       <use style="stroke:#000000;stroke-width:0.8;" x="298.106328" xlink:href="#m30a47647c1" y="307.584"/>
      </g>
     </g>
     <g id="text_4">
      <!-- 5 -->
      <g transform="translate(294.925078 322.182437)scale(0.1 -0.1)">
       <use xlink:href="#DejaVuSans-35"/>
      </g>
     </g>
    </g>
    <g id="xtick_5">
     <g id="line2d_9">
      <path clip-path="url(#pa4b2bfb077)" d="M 360.052656 307.584 
L 360.052656 41.472 
" style="fill:none;stroke:#b0b0b0;stroke-linecap:square;stroke-width:0.8;"/>
     </g>
     <g id="line2d_10">
      <g>
       <use style="stroke:#000000;stroke-width:0.8;" x="360.052656" xlink:href="#m30a47647c1" y="307.584"/>
      </g>
     </g>
     <g id="text_5">
      <!-- 10 -->
      <g transform="translate(353.690156 322.182437)scale(0.1 -0.1)">
       <use xlink:href="#DejaVuSans-31"/>
       <use x="63.623047" xlink:href="#DejaVuSans-30"/>
      </g>
     </g>
    </g>
    <g id="text_6">
     <!-- $\gamma_i$ -->
     <defs>
      <path d="M 23.296875 46.09375 
L 28.71875 12.3125 
L 54 54.6875 
L 63.53125 54.6875 
L 30.8125 0 
L 26.765625 -20.796875 
L 17.78125 -20.796875 
L 21.828125 0 
L 15.4375 40.828125 
Q 14.453125 46.96875 9.8125 46.96875 
L 7.421875 46.96875 
L 8.890625 54.6875 
L 12.3125 54.6875 
Q 21.921875 54.6875 23.296875 46.09375 
" id="DejaVuSans-Oblique-3b3"/>
      <path d="M 18.3125 75.984375 
L 27.296875 75.984375 
L 25.09375 64.59375 
L 16.109375 64.59375 
z
M 14.203125 54.6875 
L 23.1875 54.6875 
L 12.5 0 
L 3.515625 0 
z
" id="DejaVuSans-Oblique-69"/>
     </defs>
     <g transform="translate(232.06 335.84025)scale(0.1 -0.1)">
      <use transform="translate(0 0.3125)" xlink:href="#DejaVuSans-Oblique-3b3"/>
      <use transform="translate(59.179688 -16.09375)scale(0.7)" xlink:href="#DejaVuSans-Oblique-69"/>
     </g>
    </g>
   </g>
   <g id="matplotlib.axis_2">
    <g id="ytick_1">
     <g id="line2d_11">
      <path clip-path="url(#pa4b2bfb077)" d="M 57.6 278.193626 
L 414.72 278.193626 
" style="fill:none;stroke:#b0b0b0;stroke-linecap:square;stroke-width:0.8;"/>
     </g>
     <g id="line2d_12">
      <defs>
       <path d="M 0 0 
L -3.5 0 
" id="md3273ab29d" style="stroke:#000000;stroke-width:0.8;"/>
      </defs>
      <g>
       <use style="stroke:#000000;stroke-width:0.8;" x="57.6" xlink:href="#md3273ab29d" y="278.193626"/>
      </g>
     </g>
     <g id="text_7">
      <!-- ${10^{-73}}$ -->
      <defs>
       <path d="M 8.203125 72.90625 
L 55.078125 72.90625 
L 55.078125 68.703125 
L 28.609375 0 
L 18.3125 0 
L 43.21875 64.59375 
L 8.203125 64.59375 
z
" id="DejaVuSans-37"/>
       <path d="M 40.578125 39.3125 
Q 47.65625 37.796875 51.625 33 
Q 55.609375 28.21875 55.609375 21.1875 
Q 55.609375 10.40625 48.1875 4.484375 
Q 40.765625 -1.421875 27.09375 -1.421875 
Q 22.515625 -1.421875 17.65625 -0.515625 
Q 12.796875 0.390625 7.625 2.203125 
L 7.625 11.71875 
Q 11.71875 9.328125 16.59375 8.109375 
Q 21.484375 6.890625 26.8125 6.890625 
Q 36.078125 6.890625 40.9375 10.546875 
Q 45.796875 14.203125 45.796875 21.1875 
Q 45.796875 27.640625 41.28125 31.265625 
Q 36.765625 34.90625 28.71875 34.90625 
L 20.21875 34.90625 
L 20.21875 43.015625 
L 29.109375 43.015625 
Q 36.375 43.015625 40.234375 45.921875 
Q 44.09375 48.828125 44.09375 54.296875 
Q 44.09375 59.90625 40.109375 62.90625 
Q 36.140625 65.921875 28.71875 65.921875 
Q 24.65625 65.921875 20.015625 65.03125 
Q 15.375 64.15625 9.8125 62.3125 
L 9.8125 71.09375 
Q 15.4375 72.65625 20.34375 73.4375 
Q 25.25 74.21875 29.59375 74.21875 
Q 40.828125 74.21875 47.359375 69.109375 
Q 53.90625 64.015625 53.90625 55.328125 
Q 53.90625 49.265625 50.4375 45.09375 
Q 46.96875 40.921875 40.578125 39.3125 
" id="DejaVuSans-33"/>
      </defs>
      <g transform="translate(22.7 281.992845)scale(0.1 -0.1)">
       <use transform="translate(0 0.765625)" xlink:href="#DejaVuSans-31"/>
       <use transform="translate(63.623047 0.765625)" xlink:href="#DejaVuSans-30"/>
       <use transform="translate(128.203125 39.046875)scale(0.7)" xlink:href="#DejaVuSans-2212"/>
       <use transform="translate(186.855469 39.046875)scale(0.7)" xlink:href="#DejaVuSans-37"/>
       <use transform="translate(231.391602 39.046875)scale(0.7)" xlink:href="#DejaVuSans-33"/>
      </g>
     </g>
    </g>
    <g id="ytick_2">
     <g id="line2d_13">
      <path clip-path="url(#pa4b2bfb077)" d="M 57.6 247.016233 
L 414.72 247.016233 
" style="fill:none;stroke:#b0b0b0;stroke-linecap:square;stroke-width:0.8;"/>
     </g>
     <g id="line2d_14">
      <g>
       <use style="stroke:#000000;stroke-width:0.8;" x="57.6" xlink:href="#md3273ab29d" y="247.016233"/>
      </g>
     </g>
     <g id="text_8">
      <!-- ${10^{-63}}$ -->
      <defs>
       <path d="M 33.015625 40.375 
Q 26.375 40.375 22.484375 35.828125 
Q 18.609375 31.296875 18.609375 23.390625 
Q 18.609375 15.53125 22.484375 10.953125 
Q 26.375 6.390625 33.015625 6.390625 
Q 39.65625 6.390625 43.53125 10.953125 
Q 47.40625 15.53125 47.40625 23.390625 
Q 47.40625 31.296875 43.53125 35.828125 
Q 39.65625 40.375 33.015625 40.375 
M 52.59375 71.296875 
L 52.59375 62.3125 
Q 48.875 64.0625 45.09375 64.984375 
Q 41.3125 65.921875 37.59375 65.921875 
Q 27.828125 65.921875 22.671875 59.328125 
Q 17.53125 52.734375 16.796875 39.40625 
Q 19.671875 43.65625 24.015625 45.921875 
Q 28.375 48.1875 33.59375 48.1875 
Q 44.578125 48.1875 50.953125 41.515625 
Q 57.328125 34.859375 57.328125 23.390625 
Q 57.328125 12.15625 50.6875 5.359375 
Q 44.046875 -1.421875 33.015625 -1.421875 
Q 20.359375 -1.421875 13.671875 8.265625 
Q 6.984375 17.96875 6.984375 36.375 
Q 6.984375 53.65625 15.1875 63.9375 
Q 23.390625 74.21875 37.203125 74.21875 
Q 40.921875 74.21875 44.703125 73.484375 
Q 48.484375 72.75 52.59375 71.296875 
" id="DejaVuSans-36"/>
      </defs>
      <g transform="translate(22.7 250.815452)scale(0.1 -0.1)">
       <use transform="translate(0 0.765625)" xlink:href="#DejaVuSans-31"/>
       <use transform="translate(63.623047 0.765625)" xlink:href="#DejaVuSans-30"/>
       <use transform="translate(128.203125 39.046875)scale(0.7)" xlink:href="#DejaVuSans-2212"/>
       <use transform="translate(186.855469 39.046875)scale(0.7)" xlink:href="#DejaVuSans-36"/>
       <use transform="translate(231.391602 39.046875)scale(0.7)" xlink:href="#DejaVuSans-33"/>
      </g>
     </g>
    </g>
    <g id="ytick_3">
     <g id="line2d_15">
      <path clip-path="url(#pa4b2bfb077)" d="M 57.6 215.838841 
L 414.72 215.838841 
" style="fill:none;stroke:#b0b0b0;stroke-linecap:square;stroke-width:0.8;"/>
     </g>
     <g id="line2d_16">
      <g>
       <use style="stroke:#000000;stroke-width:0.8;" x="57.6" xlink:href="#md3273ab29d" y="215.838841"/>
      </g>
     </g>
     <g id="text_9">
      <!-- ${10^{-53}}$ -->
      <g transform="translate(22.7 219.638059)scale(0.1 -0.1)">
       <use transform="translate(0 0.765625)" xlink:href="#DejaVuSans-31"/>
       <use transform="translate(63.623047 0.765625)" xlink:href="#DejaVuSans-30"/>
       <use transform="translate(128.203125 39.046875)scale(0.7)" xlink:href="#DejaVuSans-2212"/>
       <use transform="translate(186.855469 39.046875)scale(0.7)" xlink:href="#DejaVuSans-35"/>
       <use transform="translate(231.391602 39.046875)scale(0.7)" xlink:href="#DejaVuSans-33"/>
      </g>
     </g>
    </g>
    <g id="ytick_4">
     <g id="line2d_17">
      <path clip-path="url(#pa4b2bfb077)" d="M 57.6 184.661448 
L 414.72 184.661448 
" style="fill:none;stroke:#b0b0b0;stroke-linecap:square;stroke-width:0.8;"/>
     </g>
     <g id="line2d_18">
      <g>
       <use style="stroke:#000000;stroke-width:0.8;" x="57.6" xlink:href="#md3273ab29d" y="184.661448"/>
      </g>
     </g>
     <g id="text_10">
      <!-- ${10^{-43}}$ -->
      <defs>
       <path d="M 37.796875 64.3125 
L 12.890625 25.390625 
L 37.796875 25.390625 
z
M 35.203125 72.90625 
L 47.609375 72.90625 
L 47.609375 25.390625 
L 58.015625 25.390625 
L 58.015625 17.1875 
L 47.609375 17.1875 
L 47.609375 0 
L 37.796875 0 
L 37.796875 17.1875 
L 4.890625 17.1875 
L 4.890625 26.703125 
z
" id="DejaVuSans-34"/>
      </defs>
      <g transform="translate(22.7 188.460667)scale(0.1 -0.1)">
       <use transform="translate(0 0.765625)" xlink:href="#DejaVuSans-31"/>
       <use transform="translate(63.623047 0.765625)" xlink:href="#DejaVuSans-30"/>
       <use transform="translate(128.203125 39.046875)scale(0.7)" xlink:href="#DejaVuSans-2212"/>
       <use transform="translate(186.855469 39.046875)scale(0.7)" xlink:href="#DejaVuSans-34"/>
       <use transform="translate(231.391602 39.046875)scale(0.7)" xlink:href="#DejaVuSans-33"/>
      </g>
     </g>
    </g>
    <g id="ytick_5">
     <g id="line2d_19">
      <path clip-path="url(#pa4b2bfb077)" d="M 57.6 153.484055 
L 414.72 153.484055 
" style="fill:none;stroke:#b0b0b0;stroke-linecap:square;stroke-width:0.8;"/>
     </g>
     <g id="line2d_20">
      <g>
       <use style="stroke:#000000;stroke-width:0.8;" x="57.6" xlink:href="#md3273ab29d" y="153.484055"/>
      </g>
     </g>
     <g id="text_11">
      <!-- ${10^{-33}}$ -->
      <g transform="translate(22.7 157.283274)scale(0.1 -0.1)">
       <use transform="translate(0 0.765625)" xlink:href="#DejaVuSans-31"/>
       <use transform="translate(63.623047 0.765625)" xlink:href="#DejaVuSans-30"/>
       <use transform="translate(128.203125 39.046875)scale(0.7)" xlink:href="#DejaVuSans-2212"/>
       <use transform="translate(186.855469 39.046875)scale(0.7)" xlink:href="#DejaVuSans-33"/>
       <use transform="translate(231.391602 39.046875)scale(0.7)" xlink:href="#DejaVuSans-33"/>
      </g>
     </g>
    </g>
    <g id="ytick_6">
     <g id="line2d_21">
      <path clip-path="url(#pa4b2bfb077)" d="M 57.6 122.306662 
L 414.72 122.306662 
" style="fill:none;stroke:#b0b0b0;stroke-linecap:square;stroke-width:0.8;"/>
     </g>
     <g id="line2d_22">
      <g>
       <use style="stroke:#000000;stroke-width:0.8;" x="57.6" xlink:href="#md3273ab29d" y="122.306662"/>
      </g>
     </g>
     <g id="text_12">
      <!-- ${10^{-23}}$ -->
      <defs>
       <path d="M 19.1875 8.296875 
L 53.609375 8.296875 
L 53.609375 0 
L 7.328125 0 
L 7.328125 8.296875 
Q 12.9375 14.109375 22.625 23.890625 
Q 32.328125 33.6875 34.8125 36.53125 
Q 39.546875 41.84375 41.421875 45.53125 
Q 43.3125 49.21875 43.3125 52.78125 
Q 43.3125 58.59375 39.234375 62.25 
Q 35.15625 65.921875 28.609375 65.921875 
Q 23.96875 65.921875 18.8125 64.3125 
Q 13.671875 62.703125 7.8125 59.421875 
L 7.8125 69.390625 
Q 13.765625 71.78125 18.9375 73 
Q 24.125 74.21875 28.421875 74.21875 
Q 39.75 74.21875 46.484375 68.546875 
Q 53.21875 62.890625 53.21875 53.421875 
Q 53.21875 48.921875 51.53125 44.890625 
Q 49.859375 40.875 45.40625 35.40625 
Q 44.1875 33.984375 37.640625 27.21875 
Q 31.109375 20.453125 19.1875 8.296875 
" id="DejaVuSans-32"/>
      </defs>
      <g transform="translate(22.7 126.105881)scale(0.1 -0.1)">
       <use transform="translate(0 0.765625)" xlink:href="#DejaVuSans-31"/>
       <use transform="translate(63.623047 0.765625)" xlink:href="#DejaVuSans-30"/>
       <use transform="translate(128.203125 39.046875)scale(0.7)" xlink:href="#DejaVuSans-2212"/>
       <use transform="translate(186.855469 39.046875)scale(0.7)" xlink:href="#DejaVuSans-32"/>
       <use transform="translate(231.391602 39.046875)scale(0.7)" xlink:href="#DejaVuSans-33"/>
      </g>
     </g>
    </g>
    <g id="ytick_7">
     <g id="line2d_23">
      <path clip-path="url(#pa4b2bfb077)" d="M 57.6 91.12927 
L 414.72 91.12927 
" style="fill:none;stroke:#b0b0b0;stroke-linecap:square;stroke-width:0.8;"/>
     </g>
     <g id="line2d_24">
      <g>
       <use style="stroke:#000000;stroke-width:0.8;" x="57.6" xlink:href="#md3273ab29d" y="91.12927"/>
      </g>
     </g>
     <g id="text_13">
      <!-- ${10^{-13}}$ -->
      <g transform="translate(22.7 94.928488)scale(0.1 -0.1)">
       <use transform="translate(0 0.765625)" xlink:href="#DejaVuSans-31"/>
       <use transform="translate(63.623047 0.765625)" xlink:href="#DejaVuSans-30"/>
       <use transform="translate(128.203125 39.046875)scale(0.7)" xlink:href="#DejaVuSans-2212"/>
       <use transform="translate(186.855469 39.046875)scale(0.7)" xlink:href="#DejaVuSans-31"/>
       <use transform="translate(231.391602 39.046875)scale(0.7)" xlink:href="#DejaVuSans-33"/>
      </g>
     </g>
    </g>
    <g id="ytick_8">
     <g id="line2d_25">
      <path clip-path="url(#pa4b2bfb077)" d="M 57.6 59.951877 
L 414.72 59.951877 
" style="fill:none;stroke:#b0b0b0;stroke-linecap:square;stroke-width:0.8;"/>
     </g>
     <g id="line2d_26">
      <g>
       <use style="stroke:#000000;stroke-width:0.8;" x="57.6" xlink:href="#md3273ab29d" y="59.951877"/>
      </g>
     </g>
     <g id="text_14">
      <!-- ${10^{-3}}$ -->
      <g transform="translate(27.1 63.751096)scale(0.1 -0.1)">
       <use transform="translate(0 0.765625)" xlink:href="#DejaVuSans-31"/>
       <use transform="translate(63.623047 0.765625)" xlink:href="#DejaVuSans-30"/>
       <use transform="translate(128.203125 39.046875)scale(0.7)" xlink:href="#DejaVuSans-2212"/>
       <use transform="translate(186.855469 39.046875)scale(0.7)" xlink:href="#DejaVuSans-33"/>
      </g>
     </g>
    </g>
    <g id="text_15">
     <!-- $\omega_i$ -->
     <defs>
      <path d="M 21.390625 -1.421875 
Q 1.125 -1.421875 6.78125 27.59375 
Q 8.984375 39.0625 19.625 54.6875 
L 29.296875 54.6875 
Q 19.234375 39.0625 17 27.34375 
Q 12.796875 6.203125 23.734375 6.203125 
Q 33.84375 6.203125 38.71875 32.46875 
L 47.015625 32.46875 
Q 41.703125 6.0625 51.8125 6.203125 
Q 62.703125 6.296875 66.796875 27.34375 
Q 69.046875 39.0625 65.140625 54.6875 
L 74.8125 54.6875 
Q 79.296875 39.0625 77.09375 27.59375 
Q 71.53125 -1.46875 51.21875 -1.421875 
Q 37.9375 -1.375 39.109375 13.1875 
Q 34.28125 -1.421875 21.390625 -1.421875 
" id="DejaVuSans-Oblique-3c9"/>
     </defs>
     <g transform="translate(16.620312 179.828)rotate(-90)scale(0.1 -0.1)">
      <use transform="translate(0 0.3125)" xlink:href="#DejaVuSans-Oblique-3c9"/>
      <use transform="translate(83.740234 -16.09375)scale(0.7)" xlink:href="#DejaVuSans-Oblique-69"/>
     </g>
    </g>
   </g>
   <g id="line2d_27">
    <defs>
     <path d="M 0 3 
C 0.795609 3 1.55874 2.683901 2.12132 2.12132 
C 2.683901 1.55874 3 0.795609 3 0 
C 3 -0.795609 2.683901 -1.55874 2.12132 -2.12132 
C 1.55874 -2.683901 0.795609 -3 0 -3 
C -0.795609 -3 -1.55874 -2.683901 -2.12132 -2.12132 
C -2.683901 -1.55874 -3 -0.795609 -3 0 
C -3 0.795609 -2.683901 1.55874 -2.12132 2.12132 
C -1.55874 2.683901 -0.795609 3 0 3 
z
" id="mebf8c30cfb" style="stroke:#1f77b4;"/>
    </defs>
    <g clip-path="url(#pa4b2bfb077)">
     <use style="fill:#1f77b4;stroke:#1f77b4;" x="83.158917" xlink:href="#mebf8c30cfb" y="258.956524"/>
     <use style="fill:#1f77b4;stroke:#1f77b4;" x="374.419922" xlink:href="#mebf8c30cfb" y="221.388765"/>
     <use style="fill:#1f77b4;stroke:#1f77b4;" x="370.084951" xlink:href="#mebf8c30cfb" y="211.045097"/>
     <use style="fill:#1f77b4;stroke:#1f77b4;" x="389.161083" xlink:href="#mebf8c30cfb" y="258.956524"/>
     <use style="fill:#1f77b4;stroke:#1f77b4;" x="378.988696" xlink:href="#mebf8c30cfb" y="232.639145"/>
     <use style="fill:#1f77b4;stroke:#1f77b4;" x="93.331304" xlink:href="#mebf8c30cfb" y="232.639145"/>
     <use style="fill:#1f77b4;stroke:#1f77b4;" x="350.664958" xlink:href="#mebf8c30cfb" y="168.701418"/>
     <use style="fill:#1f77b4;stroke:#1f77b4;" x="77.204854" xlink:href="#mebf8c30cfb" y="275.149336"/>
     <use style="fill:#1f77b4;stroke:#1f77b4;" x="330.207772" xlink:href="#mebf8c30cfb" y="131.212645"/>
     <use style="fill:#1f77b4;stroke:#1f77b4;" x="317.559054" xlink:href="#mebf8c30cfb" y="111.70248"/>
     <use style="fill:#1f77b4;stroke:#1f77b4;" x="305.439691" xlink:href="#mebf8c30cfb" y="95.644409"/>
     <use style="fill:#1f77b4;stroke:#1f77b4;" x="128.726785" xlink:href="#mebf8c30cfb" y="154.913979"/>
     <use style="fill:#1f77b4;stroke:#1f77b4;" x="69.989266" xlink:href="#mebf8c30cfb" y="295.488"/>
     <use style="fill:#1f77b4;stroke:#1f77b4;" x="175.702001" xlink:href="#mebf8c30cfb" y="85.579788"/>
     <use style="fill:#1f77b4;stroke:#1f77b4;" x="365.93674" xlink:href="#mebf8c30cfb" y="201.450511"/>
     <use style="fill:#1f77b4;stroke:#1f77b4;" x="102.235049" xlink:href="#mebf8c30cfb" y="211.045097"/>
     <use style="fill:#1f77b4;stroke:#1f77b4;" x="308.427957" xlink:href="#mebf8c30cfb" y="99.364075"/>
     <use style="fill:#1f77b4;stroke:#1f77b4;" x="160.877342" xlink:href="#mebf8c30cfb" y="103.275703"/>
     <use style="fill:#1f77b4;stroke:#1f77b4;" x="145.333594" xlink:href="#mebf8c30cfb" y="125.977382"/>
     <use style="fill:#1f77b4;stroke:#1f77b4;" x="117.997082" xlink:href="#mebf8c30cfb" y="176.175827"/>
     <use style="fill:#1f77b4;stroke:#1f77b4;" x="256.894076" xlink:href="#mebf8c30cfb" y="57.249361"/>
     <use style="fill:#1f77b4;stroke:#1f77b4;" x="148.513353" xlink:href="#mebf8c30cfb" y="120.988258"/>
     <use style="fill:#1f77b4;stroke:#1f77b4;" x="323.806647" xlink:href="#mebf8c30cfb" y="120.988258"/>
     <use style="fill:#1f77b4;stroke:#1f77b4;" x="138.845495" xlink:href="#mebf8c30cfb" y="136.707453"/>
     <use style="fill:#1f77b4;stroke:#1f77b4;" x="395.115146" xlink:href="#mebf8c30cfb" y="275.149336"/>
     <use style="fill:#1f77b4;stroke:#1f77b4;" x="402.330734" xlink:href="#mebf8c30cfb" y="295.488"/>
     <use style="fill:#1f77b4;stroke:#1f77b4;" x="251.563066" xlink:href="#mebf8c30cfb" y="55.548453"/>
     <use style="fill:#1f77b4;stroke:#1f77b4;" x="326.986406" xlink:href="#mebf8c30cfb" y="125.977382"/>
     <use style="fill:#1f77b4;stroke:#1f77b4;" x="198.239327" xlink:href="#mebf8c30cfb" y="66.134055"/>
     <use style="fill:#1f77b4;stroke:#1f77b4;" x="361.942249" xlink:href="#mebf8c30cfb" y="192.493049"/>
     <use style="fill:#1f77b4;stroke:#1f77b4;" x="302.476207" xlink:href="#mebf8c30cfb" y="92.110663"/>
     <use style="fill:#1f77b4;stroke:#1f77b4;" x="347.091582" xlink:href="#mebf8c30cfb" y="161.625358"/>
     <use style="fill:#1f77b4;stroke:#1f77b4;" x="264.578646" xlink:href="#mebf8c30cfb" y="60.755145"/>
     <use style="fill:#1f77b4;stroke:#1f77b4;" x="358.077161" xlink:href="#mebf8c30cfb" y="184.089496"/>
     <use style="fill:#1f77b4;stroke:#1f77b4;" x="205.514232" xlink:href="#mebf8c30cfb" y="62.027351"/>
     <use style="fill:#1f77b4;stroke:#1f77b4;" x="110.377751" xlink:href="#mebf8c30cfb" y="192.493049"/>
     <use style="fill:#1f77b4;stroke:#1f77b4;" x="218.090931" xlink:href="#mebf8c30cfb" y="56.332975"/>
     <use style="fill:#1f77b4;stroke:#1f77b4;" x="383.862703" xlink:href="#mebf8c30cfb" y="245.03246"/>
     <use style="fill:#1f77b4;stroke:#1f77b4;" x="340.161893" xlink:href="#mebf8c30cfb" y="148.539158"/>
     <use style="fill:#1f77b4;stroke:#1f77b4;" x="314.48566" xlink:href="#mebf8c30cfb" y="107.386012"/>
     <use style="fill:#1f77b4;stroke:#1f77b4;" x="172.783945" xlink:href="#mebf8c30cfb" y="88.757409"/>
     <use style="fill:#1f77b4;stroke:#1f77b4;" x="132.158107" xlink:href="#mebf8c30cfb" y="148.539158"/>
     <use style="fill:#1f77b4;stroke:#1f77b4;" x="254.229069" xlink:href="#mebf8c30cfb" y="56.332975"/>
     <use style="fill:#1f77b4;stroke:#1f77b4;" x="88.457297" xlink:href="#mebf8c30cfb" y="245.03246"/>
     <use style="fill:#1f77b4;stroke:#1f77b4;" x="135.5291" xlink:href="#mebf8c30cfb" y="142.4771"/>
     <use style="fill:#1f77b4;stroke:#1f77b4;" x="203.304146" xlink:href="#mebf8c30cfb" y="63.165894"/>
     <use style="fill:#1f77b4;stroke:#1f77b4;" x="142.112228" xlink:href="#mebf8c30cfb" y="131.212645"/>
     <use style="fill:#1f77b4;stroke:#1f77b4;" x="279.547654" xlink:href="#mebf8c30cfb" y="70.005332"/>
     <use style="fill:#1f77b4;stroke:#1f77b4;" x="282.337318" xlink:href="#mebf8c30cfb" y="72.196057"/>
     <use style="fill:#1f77b4;stroke:#1f77b4;" x="293.721037" xlink:href="#mebf8c30cfb" y="82.573481"/>
     <use style="fill:#1f77b4;stroke:#1f77b4;" x="97.900078" xlink:href="#mebf8c30cfb" y="221.388765"/>
     <use style="fill:#1f77b4;stroke:#1f77b4;" x="223.412415" xlink:href="#mebf8c30cfb" y="54.89703"/>
     <use style="fill:#1f77b4;stroke:#1f77b4;" x="262.1295" xlink:href="#mebf8c30cfb" y="59.469422"/>
     <use style="fill:#1f77b4;stroke:#1f77b4;" x="121.655042" xlink:href="#mebf8c30cfb" y="168.701418"/>
     <use style="fill:#1f77b4;stroke:#1f77b4;" x="151.654824" xlink:href="#mebf8c30cfb" y="116.233451"/>
     <use style="fill:#1f77b4;stroke:#1f77b4;" x="195.530037" xlink:href="#mebf8c30cfb" y="67.980098"/>
     <use style="fill:#1f77b4;stroke:#1f77b4;" x="189.982682" xlink:href="#mebf8c30cfb" y="72.196057"/>
     <use style="fill:#1f77b4;stroke:#1f77b4;" x="187.168186" xlink:href="#mebf8c30cfb" y="74.547896"/>
     <use style="fill:#1f77b4;stroke:#1f77b4;" x="354.322918" xlink:href="#mebf8c30cfb" y="176.175827"/>
     <use style="fill:#1f77b4;stroke:#1f77b4;" x="343.593215" xlink:href="#mebf8c30cfb" y="154.913979"/>
     <use style="fill:#1f77b4;stroke:#1f77b4;" x="299.536055" xlink:href="#mebf8c30cfb" y="88.757409"/>
     <use style="fill:#1f77b4;stroke:#1f77b4;" x="290.844462" xlink:href="#mebf8c30cfb" y="79.73472"/>
     <use style="fill:#1f77b4;stroke:#1f77b4;" x="228.647851" xlink:href="#mebf8c30cfb" y="53.996067"/>
     <use style="fill:#1f77b4;stroke:#1f77b4;" x="200.860245" xlink:href="#mebf8c30cfb" y="64.50495"/>
     <use style="fill:#1f77b4;stroke:#1f77b4;" x="311.442658" xlink:href="#mebf8c30cfb" y="103.275703"/>
     <use style="fill:#1f77b4;stroke:#1f77b4;" x="246.273207" xlink:href="#mebf8c30cfb" y="54.379571"/>
     <use style="fill:#1f77b4;stroke:#1f77b4;" x="169.843793" xlink:href="#mebf8c30cfb" y="92.110663"/>
     <use style="fill:#1f77b4;stroke:#1f77b4;" x="215.425924" xlink:href="#mebf8c30cfb" y="57.249361"/>
     <use style="fill:#1f77b4;stroke:#1f77b4;" x="157.83434" xlink:href="#mebf8c30cfb" y="107.386012"/>
     <use style="fill:#1f77b4;stroke:#1f77b4;" x="285.151814" xlink:href="#mebf8c30cfb" y="74.547896"/>
     <use style="fill:#1f77b4;stroke:#1f77b4;" x="212.779893" xlink:href="#mebf8c30cfb" y="58.295819"/>
     <use style="fill:#1f77b4;stroke:#1f77b4;" x="106.38326" xlink:href="#mebf8c30cfb" y="201.450511"/>
     <use style="fill:#1f77b4;stroke:#1f77b4;" x="178.598963" xlink:href="#mebf8c30cfb" y="82.573481"/>
     <use style="fill:#1f77b4;stroke:#1f77b4;" x="220.756934" xlink:href="#mebf8c30cfb" y="55.548453"/>
     <use style="fill:#1f77b4;stroke:#1f77b4;" x="192.772346" xlink:href="#mebf8c30cfb" y="70.005332"/>
     <use style="fill:#1f77b4;stroke:#1f77b4;" x="336.7909" xlink:href="#mebf8c30cfb" y="142.4771"/>
     <use style="fill:#1f77b4;stroke:#1f77b4;" x="166.880309" xlink:href="#mebf8c30cfb" y="95.644409"/>
     <use style="fill:#1f77b4;stroke:#1f77b4;" x="210.1905" xlink:href="#mebf8c30cfb" y="59.469422"/>
     <use style="fill:#1f77b4;stroke:#1f77b4;" x="114.242839" xlink:href="#mebf8c30cfb" y="184.089496"/>
     <use style="fill:#1f77b4;stroke:#1f77b4;" x="181.475538" xlink:href="#mebf8c30cfb" y="79.73472"/>
     <use style="fill:#1f77b4;stroke:#1f77b4;" x="266.805768" xlink:href="#mebf8c30cfb" y="62.027351"/>
     <use style="fill:#1f77b4;stroke:#1f77b4;" x="271.459755" xlink:href="#mebf8c30cfb" y="64.50495"/>
     <use style="fill:#1f77b4;stroke:#1f77b4;" x="243.672149" xlink:href="#mebf8c30cfb" y="53.996067"/>
     <use style="fill:#1f77b4;stroke:#1f77b4;" x="274.080673" xlink:href="#mebf8c30cfb" y="66.134055"/>
     <use style="fill:#1f77b4;stroke:#1f77b4;" x="207.741354" xlink:href="#mebf8c30cfb" y="60.755145"/>
     <use style="fill:#1f77b4;stroke:#1f77b4;" x="241.117967" xlink:href="#mebf8c30cfb" y="53.743134"/>
     <use style="fill:#1f77b4;stroke:#1f77b4;" x="333.474505" xlink:href="#mebf8c30cfb" y="136.707453"/>
     <use style="fill:#1f77b4;stroke:#1f77b4;" x="154.760946" xlink:href="#mebf8c30cfb" y="111.70248"/>
     <use style="fill:#1f77b4;stroke:#1f77b4;" x="320.665176" xlink:href="#mebf8c30cfb" y="116.233451"/>
     <use style="fill:#1f77b4;stroke:#1f77b4;" x="163.892043" xlink:href="#mebf8c30cfb" y="99.364075"/>
     <use style="fill:#1f77b4;stroke:#1f77b4;" x="226.046793" xlink:href="#mebf8c30cfb" y="54.379571"/>
     <use style="fill:#1f77b4;stroke:#1f77b4;" x="259.540107" xlink:href="#mebf8c30cfb" y="58.295819"/>
     <use style="fill:#1f77b4;stroke:#1f77b4;" x="287.98796" xlink:href="#mebf8c30cfb" y="77.060333"/>
     <use style="fill:#1f77b4;stroke:#1f77b4;" x="276.789963" xlink:href="#mebf8c30cfb" y="67.980098"/>
     <use style="fill:#1f77b4;stroke:#1f77b4;" x="184.33204" xlink:href="#mebf8c30cfb" y="77.060333"/>
     <use style="fill:#1f77b4;stroke:#1f77b4;" x="296.617999" xlink:href="#mebf8c30cfb" y="85.579788"/>
     <use style="fill:#1f77b4;stroke:#1f77b4;" x="125.228418" xlink:href="#mebf8c30cfb" y="161.625358"/>
     <use style="fill:#1f77b4;stroke:#1f77b4;" x="238.618492" xlink:href="#mebf8c30cfb" y="53.608232"/>
     <use style="fill:#1f77b4;stroke:#1f77b4;" x="269.015854" xlink:href="#mebf8c30cfb" y="63.165894"/>
     <use style="fill:#1f77b4;stroke:#1f77b4;" x="248.907585" xlink:href="#mebf8c30cfb" y="54.89703"/>
     <use style="fill:#1f77b4;stroke:#1f77b4;" x="233.701508" xlink:href="#mebf8c30cfb" y="53.608232"/>
     <use style="fill:#1f77b4;stroke:#1f77b4;" x="231.202033" xlink:href="#mebf8c30cfb" y="53.743134"/>
     <use style="fill:#1f77b4;stroke:#1f77b4;" x="236.16" xlink:href="#mebf8c30cfb" y="53.568"/>
    </g>
   </g>
   <g id="patch_3">
    <path d="M 57.6 307.584 
L 57.6 41.472 
" style="fill:none;stroke:#000000;stroke-linecap:square;stroke-linejoin:miter;stroke-width:0.8;"/>
   </g>
   <g id="patch_4">
    <path d="M 414.72 307.584 
L 414.72 41.472 
" style="fill:none;stroke:#000000;stroke-linecap:square;stroke-linejoin:miter;stroke-width:0.8;"/>
   </g>
   <g id="patch_5">
    <path d="M 57.6 307.584 
L 414.72 307.584 
" style="fill:none;stroke:#000000;stroke-linecap:square;stroke-linejoin:miter;stroke-width:0.8;"/>
   </g>
   <g id="patch_6">
    <path d="M 57.6 41.472 
L 414.72 41.472 
" style="fill:none;stroke:#000000;stroke-linecap:square;stroke-linejoin:miter;stroke-width:0.8;"/>
   </g>
  </g>
 </g>
 <defs>
  <clipPath id="pa4b2bfb077">
   <rect height="266.112" width="357.12" x="57.6" y="41.472"/>
  </clipPath>
 </defs>
</svg>
