<?xml version="1.0" encoding="utf-8" standalone="no"?>
<!DOCTYPE svg PUBLIC "-//W3C//DTD SVG 1.1//EN"
  "http://www.w3.org/Graphics/SVG/1.1/DTD/svg11.dtd">
<!-- Created with matplotlib (http://matplotlib.org/) -->
<svg height="345pt" version="1.1" viewBox="0 0 460 345" width="460pt" xmlns="http://www.w3.org/2000/svg" xmlns:xlink="http://www.w3.org/1999/xlink">
 <defs>
  <style type="text/css">
*{stroke-linecap:butt;stroke-linejoin:round;}
  </style>
 </defs>
 <g id="figure_1">
  <g id="patch_1">
   <path d="M 0 345.6 
L 460.8 345.6 
L 460.8 0 
L 0 0 
z
" style="fill:#ffffff;"/>
  </g>
  <g id="axes_1">
   <g id="patch_2">
    <path d="M 57.6 307.584 
L 414.72 307.584 
L 414.72 41.472 
L 57.6 41.472 
z
" style="fill:#ffffff;"/>
   </g>
   <g id="matplotlib.axis_1">
    <g id="xtick_1">
     <g id="line2d_1">
      <path clip-path="url(#p0598c43022)" d="M 111.620519 307.584 
L 111.620519 41.472 
" style="fill:none;stroke:#b0b0b0;stroke-linecap:square;stroke-width:0.8;"/>
     </g>
     <g id="line2d_2">
      <defs>
       <path d="M 0 0 
L 0 3.5 
" id="m1b9f4c1d89" style="stroke:#000000;stroke-width:0.8;"/>
      </defs>
      <g>
       <use style="stroke:#000000;stroke-width:0.8;" x="111.620519" xlink:href="#m1b9f4c1d89" y="307.584"/>
      </g>
     </g>
     <g id="text_1">
      <!-- −10 -->
      <defs>
       <path d="M 10.59375 35.5 
L 73.1875 35.5 
L 73.1875 27.203125 
L 10.59375 27.203125 
z
" id="DejaVuSans-2212"/>
       <path d="M 12.40625 8.296875 
L 28.515625 8.296875 
L 28.515625 63.921875 
L 10.984375 60.40625 
L 10.984375 69.390625 
L 28.421875 72.90625 
L 38.28125 72.90625 
L 38.28125 8.296875 
L 54.390625 8.296875 
L 54.390625 0 
L 12.40625 0 
z
" id="DejaVuSans-31"/>
       <path d="M 31.78125 66.40625 
Q 24.171875 66.40625 20.328125 58.90625 
Q 16.5 51.421875 16.5 36.375 
Q 16.5 21.390625 20.328125 13.890625 
Q 24.171875 6.390625 31.78125 6.390625 
Q 39.453125 6.390625 43.28125 13.890625 
Q 47.125 21.390625 47.125 36.375 
Q 47.125 51.421875 43.28125 58.90625 
Q 39.453125 66.40625 31.78125 66.40625 
M 31.78125 74.21875 
Q 44.046875 74.21875 50.515625 64.515625 
Q 56.984375 54.828125 56.984375 36.375 
Q 56.984375 17.96875 50.515625 8.265625 
Q 44.046875 -1.421875 31.78125 -1.421875 
Q 19.53125 -1.421875 13.0625 8.265625 
Q 6.59375 17.96875 6.59375 36.375 
Q 6.59375 54.828125 13.0625 64.515625 
Q 19.53125 74.21875 31.78125 74.21875 
" id="DejaVuSans-30"/>
      </defs>
      <g transform="translate(101.068175 322.182437)scale(0.1 -0.1)">
       <use xlink:href="#DejaVuSans-2212"/>
       <use x="83.789062" xlink:href="#DejaVuSans-31"/>
       <use x="147.412109" xlink:href="#DejaVuSans-30"/>
      </g>
     </g>
    </g>
    <g id="xtick_2">
     <g id="line2d_3">
      <path clip-path="url(#p0598c43022)" d="M 173.89026 307.584 
L 173.89026 41.472 
" style="fill:none;stroke:#b0b0b0;stroke-linecap:square;stroke-width:0.8;"/>
     </g>
     <g id="line2d_4">
      <g>
       <use style="stroke:#000000;stroke-width:0.8;" x="173.89026" xlink:href="#m1b9f4c1d89" y="307.584"/>
      </g>
     </g>
     <g id="text_2">
      <!-- −5 -->
      <defs>
       <path d="M 10.796875 72.90625 
L 49.515625 72.90625 
L 49.515625 64.59375 
L 19.828125 64.59375 
L 19.828125 46.734375 
Q 21.96875 47.46875 24.109375 47.828125 
Q 26.265625 48.1875 28.421875 48.1875 
Q 40.625 48.1875 47.75 41.5 
Q 54.890625 34.8125 54.890625 23.390625 
Q 54.890625 11.625 47.5625 5.09375 
Q 40.234375 -1.421875 26.90625 -1.421875 
Q 22.3125 -1.421875 17.546875 -0.640625 
Q 12.796875 0.140625 7.71875 1.703125 
L 7.71875 11.625 
Q 12.109375 9.234375 16.796875 8.0625 
Q 21.484375 6.890625 26.703125 6.890625 
Q 35.15625 6.890625 40.078125 11.328125 
Q 45.015625 15.765625 45.015625 23.390625 
Q 45.015625 31 40.078125 35.4375 
Q 35.15625 39.890625 26.703125 39.890625 
Q 22.75 39.890625 18.8125 39.015625 
Q 14.890625 38.140625 10.796875 36.28125 
z
" id="DejaVuSans-35"/>
      </defs>
      <g transform="translate(166.519166 322.182437)scale(0.1 -0.1)">
       <use xlink:href="#DejaVuSans-2212"/>
       <use x="83.789062" xlink:href="#DejaVuSans-35"/>
      </g>
     </g>
    </g>
    <g id="xtick_3">
     <g id="line2d_5">
      <path clip-path="url(#p0598c43022)" d="M 236.16 307.584 
L 236.16 41.472 
" style="fill:none;stroke:#b0b0b0;stroke-linecap:square;stroke-width:0.8;"/>
     </g>
     <g id="line2d_6">
      <g>
       <use style="stroke:#000000;stroke-width:0.8;" x="236.16" xlink:href="#m1b9f4c1d89" y="307.584"/>
      </g>
     </g>
     <g id="text_3">
      <!-- 0 -->
      <g transform="translate(232.97875 322.182437)scale(0.1 -0.1)">
       <use xlink:href="#DejaVuSans-30"/>
      </g>
     </g>
    </g>
    <g id="xtick_4">
     <g id="line2d_7">
      <path clip-path="url(#p0598c43022)" d="M 298.42974 307.584 
L 298.42974 41.472 
" style="fill:none;stroke:#b0b0b0;stroke-linecap:square;stroke-width:0.8;"/>
     </g>
     <g id="line2d_8">
      <g>
       <use style="stroke:#000000;stroke-width:0.8;" x="298.42974" xlink:href="#m1b9f4c1d89" y="307.584"/>
      </g>
     </g>
     <g id="text_4">
      <!-- 5 -->
      <g transform="translate(295.24849 322.182437)scale(0.1 -0.1)">
       <use xlink:href="#DejaVuSans-35"/>
      </g>
     </g>
    </g>
    <g id="xtick_5">
     <g id="line2d_9">
      <path clip-path="url(#p0598c43022)" d="M 360.699481 307.584 
L 360.699481 41.472 
" style="fill:none;stroke:#b0b0b0;stroke-linecap:square;stroke-width:0.8;"/>
     </g>
     <g id="line2d_10">
      <g>
       <use style="stroke:#000000;stroke-width:0.8;" x="360.699481" xlink:href="#m1b9f4c1d89" y="307.584"/>
      </g>
     </g>
     <g id="text_5">
      <!-- 10 -->
      <g transform="translate(354.336981 322.182437)scale(0.1 -0.1)">
       <use xlink:href="#DejaVuSans-31"/>
       <use x="63.623047" xlink:href="#DejaVuSans-30"/>
      </g>
     </g>
    </g>
    <g id="text_6">
     <!-- $\gamma_i$ -->
     <defs>
      <path d="M 23.296875 46.09375 
L 28.71875 12.3125 
L 54 54.6875 
L 63.53125 54.6875 
L 30.8125 0 
L 26.765625 -20.796875 
L 17.78125 -20.796875 
L 21.828125 0 
L 15.4375 40.828125 
Q 14.453125 46.96875 9.8125 46.96875 
L 7.421875 46.96875 
L 8.890625 54.6875 
L 12.3125 54.6875 
Q 21.921875 54.6875 23.296875 46.09375 
" id="DejaVuSans-Oblique-3b3"/>
      <path d="M 18.3125 75.984375 
L 27.296875 75.984375 
L 25.09375 64.59375 
L 16.109375 64.59375 
z
M 14.203125 54.6875 
L 23.1875 54.6875 
L 12.5 0 
L 3.515625 0 
z
" id="DejaVuSans-Oblique-69"/>
     </defs>
     <g transform="translate(232.06 335.84025)scale(0.1 -0.1)">
      <use transform="translate(0 0.3125)" xlink:href="#DejaVuSans-Oblique-3b3"/>
      <use transform="translate(59.179688 -16.09375)scale(0.7)" xlink:href="#DejaVuSans-Oblique-69"/>
     </g>
    </g>
   </g>
   <g id="matplotlib.axis_2">
    <g id="ytick_1">
     <g id="line2d_11">
      <path clip-path="url(#p0598c43022)" d="M 57.6 277.588555 
L 414.72 277.588555 
" style="fill:none;stroke:#b0b0b0;stroke-linecap:square;stroke-width:0.8;"/>
     </g>
     <g id="line2d_12">
      <defs>
       <path d="M 0 0 
L -3.5 0 
" id="m8120ec9b13" style="stroke:#000000;stroke-width:0.8;"/>
      </defs>
      <g>
       <use style="stroke:#000000;stroke-width:0.8;" x="57.6" xlink:href="#m8120ec9b13" y="277.588555"/>
      </g>
     </g>
     <g id="text_7">
      <!-- ${10^{-72}}$ -->
      <defs>
       <path d="M 8.203125 72.90625 
L 55.078125 72.90625 
L 55.078125 68.703125 
L 28.609375 0 
L 18.3125 0 
L 43.21875 64.59375 
L 8.203125 64.59375 
z
" id="DejaVuSans-37"/>
       <path d="M 19.1875 8.296875 
L 53.609375 8.296875 
L 53.609375 0 
L 7.328125 0 
L 7.328125 8.296875 
Q 12.9375 14.109375 22.625 23.890625 
Q 32.328125 33.6875 34.8125 36.53125 
Q 39.546875 41.84375 41.421875 45.53125 
Q 43.3125 49.21875 43.3125 52.78125 
Q 43.3125 58.59375 39.234375 62.25 
Q 35.15625 65.921875 28.609375 65.921875 
Q 23.96875 65.921875 18.8125 64.3125 
Q 13.671875 62.703125 7.8125 59.421875 
L 7.8125 69.390625 
Q 13.765625 71.78125 18.9375 73 
Q 24.125 74.21875 28.421875 74.21875 
Q 39.75 74.21875 46.484375 68.546875 
Q 53.21875 62.890625 53.21875 53.421875 
Q 53.21875 48.921875 51.53125 44.890625 
Q 49.859375 40.875 45.40625 35.40625 
Q 44.1875 33.984375 37.640625 27.21875 
Q 31.109375 20.453125 19.1875 8.296875 
" id="DejaVuSans-32"/>
      </defs>
      <g transform="translate(22.7 281.387774)scale(0.1 -0.1)">
       <use transform="translate(0 0.765625)" xlink:href="#DejaVuSans-31"/>
       <use transform="translate(63.623047 0.765625)" xlink:href="#DejaVuSans-30"/>
       <use transform="translate(128.203125 39.046875)scale(0.7)" xlink:href="#DejaVuSans-2212"/>
       <use transform="translate(186.855469 39.046875)scale(0.7)" xlink:href="#DejaVuSans-37"/>
       <use transform="translate(231.391602 39.046875)scale(0.7)" xlink:href="#DejaVuSans-32"/>
      </g>
     </g>
    </g>
    <g id="ytick_2">
     <g id="line2d_13">
      <path clip-path="url(#p0598c43022)" d="M 57.6 246.056669 
L 414.72 246.056669 
" style="fill:none;stroke:#b0b0b0;stroke-linecap:square;stroke-width:0.8;"/>
     </g>
     <g id="line2d_14">
      <g>
       <use style="stroke:#000000;stroke-width:0.8;" x="57.6" xlink:href="#m8120ec9b13" y="246.056669"/>
      </g>
     </g>
     <g id="text_8">
      <!-- ${10^{-62}}$ -->
      <defs>
       <path d="M 33.015625 40.375 
Q 26.375 40.375 22.484375 35.828125 
Q 18.609375 31.296875 18.609375 23.390625 
Q 18.609375 15.53125 22.484375 10.953125 
Q 26.375 6.390625 33.015625 6.390625 
Q 39.65625 6.390625 43.53125 10.953125 
Q 47.40625 15.53125 47.40625 23.390625 
Q 47.40625 31.296875 43.53125 35.828125 
Q 39.65625 40.375 33.015625 40.375 
M 52.59375 71.296875 
L 52.59375 62.3125 
Q 48.875 64.0625 45.09375 64.984375 
Q 41.3125 65.921875 37.59375 65.921875 
Q 27.828125 65.921875 22.671875 59.328125 
Q 17.53125 52.734375 16.796875 39.40625 
Q 19.671875 43.65625 24.015625 45.921875 
Q 28.375 48.1875 33.59375 48.1875 
Q 44.578125 48.1875 50.953125 41.515625 
Q 57.328125 34.859375 57.328125 23.390625 
Q 57.328125 12.15625 50.6875 5.359375 
Q 44.046875 -1.421875 33.015625 -1.421875 
Q 20.359375 -1.421875 13.671875 8.265625 
Q 6.984375 17.96875 6.984375 36.375 
Q 6.984375 53.65625 15.1875 63.9375 
Q 23.390625 74.21875 37.203125 74.21875 
Q 40.921875 74.21875 44.703125 73.484375 
Q 48.484375 72.75 52.59375 71.296875 
" id="DejaVuSans-36"/>
      </defs>
      <g transform="translate(22.7 249.855888)scale(0.1 -0.1)">
       <use transform="translate(0 0.765625)" xlink:href="#DejaVuSans-31"/>
       <use transform="translate(63.623047 0.765625)" xlink:href="#DejaVuSans-30"/>
       <use transform="translate(128.203125 39.046875)scale(0.7)" xlink:href="#DejaVuSans-2212"/>
       <use transform="translate(186.855469 39.046875)scale(0.7)" xlink:href="#DejaVuSans-36"/>
       <use transform="translate(231.391602 39.046875)scale(0.7)" xlink:href="#DejaVuSans-32"/>
      </g>
     </g>
    </g>
    <g id="ytick_3">
     <g id="line2d_15">
      <path clip-path="url(#p0598c43022)" d="M 57.6 214.524784 
L 414.72 214.524784 
" style="fill:none;stroke:#b0b0b0;stroke-linecap:square;stroke-width:0.8;"/>
     </g>
     <g id="line2d_16">
      <g>
       <use style="stroke:#000000;stroke-width:0.8;" x="57.6" xlink:href="#m8120ec9b13" y="214.524784"/>
      </g>
     </g>
     <g id="text_9">
      <!-- ${10^{-52}}$ -->
      <g transform="translate(22.7 218.324002)scale(0.1 -0.1)">
       <use transform="translate(0 0.765625)" xlink:href="#DejaVuSans-31"/>
       <use transform="translate(63.623047 0.765625)" xlink:href="#DejaVuSans-30"/>
       <use transform="translate(128.203125 39.046875)scale(0.7)" xlink:href="#DejaVuSans-2212"/>
       <use transform="translate(186.855469 39.046875)scale(0.7)" xlink:href="#DejaVuSans-35"/>
       <use transform="translate(231.391602 39.046875)scale(0.7)" xlink:href="#DejaVuSans-32"/>
      </g>
     </g>
    </g>
    <g id="ytick_4">
     <g id="line2d_17">
      <path clip-path="url(#p0598c43022)" d="M 57.6 182.992898 
L 414.72 182.992898 
" style="fill:none;stroke:#b0b0b0;stroke-linecap:square;stroke-width:0.8;"/>
     </g>
     <g id="line2d_18">
      <g>
       <use style="stroke:#000000;stroke-width:0.8;" x="57.6" xlink:href="#m8120ec9b13" y="182.992898"/>
      </g>
     </g>
     <g id="text_10">
      <!-- ${10^{-42}}$ -->
      <defs>
       <path d="M 37.796875 64.3125 
L 12.890625 25.390625 
L 37.796875 25.390625 
z
M 35.203125 72.90625 
L 47.609375 72.90625 
L 47.609375 25.390625 
L 58.015625 25.390625 
L 58.015625 17.1875 
L 47.609375 17.1875 
L 47.609375 0 
L 37.796875 0 
L 37.796875 17.1875 
L 4.890625 17.1875 
L 4.890625 26.703125 
z
" id="DejaVuSans-34"/>
      </defs>
      <g transform="translate(22.7 186.792117)scale(0.1 -0.1)">
       <use transform="translate(0 0.765625)" xlink:href="#DejaVuSans-31"/>
       <use transform="translate(63.623047 0.765625)" xlink:href="#DejaVuSans-30"/>
       <use transform="translate(128.203125 39.046875)scale(0.7)" xlink:href="#DejaVuSans-2212"/>
       <use transform="translate(186.855469 39.046875)scale(0.7)" xlink:href="#DejaVuSans-34"/>
       <use transform="translate(231.391602 39.046875)scale(0.7)" xlink:href="#DejaVuSans-32"/>
      </g>
     </g>
    </g>
    <g id="ytick_5">
     <g id="line2d_19">
      <path clip-path="url(#p0598c43022)" d="M 57.6 151.461012 
L 414.72 151.461012 
" style="fill:none;stroke:#b0b0b0;stroke-linecap:square;stroke-width:0.8;"/>
     </g>
     <g id="line2d_20">
      <g>
       <use style="stroke:#000000;stroke-width:0.8;" x="57.6" xlink:href="#m8120ec9b13" y="151.461012"/>
      </g>
     </g>
     <g id="text_11">
      <!-- ${10^{-32}}$ -->
      <defs>
       <path d="M 40.578125 39.3125 
Q 47.65625 37.796875 51.625 33 
Q 55.609375 28.21875 55.609375 21.1875 
Q 55.609375 10.40625 48.1875 4.484375 
Q 40.765625 -1.421875 27.09375 -1.421875 
Q 22.515625 -1.421875 17.65625 -0.515625 
Q 12.796875 0.390625 7.625 2.203125 
L 7.625 11.71875 
Q 11.71875 9.328125 16.59375 8.109375 
Q 21.484375 6.890625 26.8125 6.890625 
Q 36.078125 6.890625 40.9375 10.546875 
Q 45.796875 14.203125 45.796875 21.1875 
Q 45.796875 27.640625 41.28125 31.265625 
Q 36.765625 34.90625 28.71875 34.90625 
L 20.21875 34.90625 
L 20.21875 43.015625 
L 29.109375 43.015625 
Q 36.375 43.015625 40.234375 45.921875 
Q 44.09375 48.828125 44.09375 54.296875 
Q 44.09375 59.90625 40.109375 62.90625 
Q 36.140625 65.921875 28.71875 65.921875 
Q 24.65625 65.921875 20.015625 65.03125 
Q 15.375 64.15625 9.8125 62.3125 
L 9.8125 71.09375 
Q 15.4375 72.65625 20.34375 73.4375 
Q 25.25 74.21875 29.59375 74.21875 
Q 40.828125 74.21875 47.359375 69.109375 
Q 53.90625 64.015625 53.90625 55.328125 
Q 53.90625 49.265625 50.4375 45.09375 
Q 46.96875 40.921875 40.578125 39.3125 
" id="DejaVuSans-33"/>
      </defs>
      <g transform="translate(22.7 155.260231)scale(0.1 -0.1)">
       <use transform="translate(0 0.765625)" xlink:href="#DejaVuSans-31"/>
       <use transform="translate(63.623047 0.765625)" xlink:href="#DejaVuSans-30"/>
       <use transform="translate(128.203125 39.046875)scale(0.7)" xlink:href="#DejaVuSans-2212"/>
       <use transform="translate(186.855469 39.046875)scale(0.7)" xlink:href="#DejaVuSans-33"/>
       <use transform="translate(231.391602 39.046875)scale(0.7)" xlink:href="#DejaVuSans-32"/>
      </g>
     </g>
    </g>
    <g id="ytick_6">
     <g id="line2d_21">
      <path clip-path="url(#p0598c43022)" d="M 57.6 119.929127 
L 414.72 119.929127 
" style="fill:none;stroke:#b0b0b0;stroke-linecap:square;stroke-width:0.8;"/>
     </g>
     <g id="line2d_22">
      <g>
       <use style="stroke:#000000;stroke-width:0.8;" x="57.6" xlink:href="#m8120ec9b13" y="119.929127"/>
      </g>
     </g>
     <g id="text_12">
      <!-- ${10^{-22}}$ -->
      <g transform="translate(22.7 123.728346)scale(0.1 -0.1)">
       <use transform="translate(0 0.765625)" xlink:href="#DejaVuSans-31"/>
       <use transform="translate(63.623047 0.765625)" xlink:href="#DejaVuSans-30"/>
       <use transform="translate(128.203125 39.046875)scale(0.7)" xlink:href="#DejaVuSans-2212"/>
       <use transform="translate(186.855469 39.046875)scale(0.7)" xlink:href="#DejaVuSans-32"/>
       <use transform="translate(231.391602 39.046875)scale(0.7)" xlink:href="#DejaVuSans-32"/>
      </g>
     </g>
    </g>
    <g id="ytick_7">
     <g id="line2d_23">
      <path clip-path="url(#p0598c43022)" d="M 57.6 88.397241 
L 414.72 88.397241 
" style="fill:none;stroke:#b0b0b0;stroke-linecap:square;stroke-width:0.8;"/>
     </g>
     <g id="line2d_24">
      <g>
       <use style="stroke:#000000;stroke-width:0.8;" x="57.6" xlink:href="#m8120ec9b13" y="88.397241"/>
      </g>
     </g>
     <g id="text_13">
      <!-- ${10^{-12}}$ -->
      <g transform="translate(22.7 92.19646)scale(0.1 -0.1)">
       <use transform="translate(0 0.765625)" xlink:href="#DejaVuSans-31"/>
       <use transform="translate(63.623047 0.765625)" xlink:href="#DejaVuSans-30"/>
       <use transform="translate(128.203125 39.046875)scale(0.7)" xlink:href="#DejaVuSans-2212"/>
       <use transform="translate(186.855469 39.046875)scale(0.7)" xlink:href="#DejaVuSans-31"/>
       <use transform="translate(231.391602 39.046875)scale(0.7)" xlink:href="#DejaVuSans-32"/>
      </g>
     </g>
    </g>
    <g id="ytick_8">
     <g id="line2d_25">
      <path clip-path="url(#p0598c43022)" d="M 57.6 56.865356 
L 414.72 56.865356 
" style="fill:none;stroke:#b0b0b0;stroke-linecap:square;stroke-width:0.8;"/>
     </g>
     <g id="line2d_26">
      <g>
       <use style="stroke:#000000;stroke-width:0.8;" x="57.6" xlink:href="#m8120ec9b13" y="56.865356"/>
      </g>
     </g>
     <g id="text_14">
      <!-- ${10^{-2}}$ -->
      <g transform="translate(27.1 60.664574)scale(0.1 -0.1)">
       <use transform="translate(0 0.765625)" xlink:href="#DejaVuSans-31"/>
       <use transform="translate(63.623047 0.765625)" xlink:href="#DejaVuSans-30"/>
       <use transform="translate(128.203125 39.046875)scale(0.7)" xlink:href="#DejaVuSans-2212"/>
       <use transform="translate(186.855469 39.046875)scale(0.7)" xlink:href="#DejaVuSans-32"/>
      </g>
     </g>
    </g>
    <g id="text_15">
     <!-- $\omega_i$ -->
     <defs>
      <path d="M 21.390625 -1.421875 
Q 1.125 -1.421875 6.78125 27.59375 
Q 8.984375 39.0625 19.625 54.6875 
L 29.296875 54.6875 
Q 19.234375 39.0625 17 27.34375 
Q 12.796875 6.203125 23.734375 6.203125 
Q 33.84375 6.203125 38.71875 32.46875 
L 47.015625 32.46875 
Q 41.703125 6.0625 51.8125 6.203125 
Q 62.703125 6.296875 66.796875 27.34375 
Q 69.046875 39.0625 65.140625 54.6875 
L 74.8125 54.6875 
Q 79.296875 39.0625 77.09375 27.59375 
Q 71.53125 -1.46875 51.21875 -1.421875 
Q 37.9375 -1.375 39.109375 13.1875 
Q 34.28125 -1.421875 21.390625 -1.421875 
" id="DejaVuSans-Oblique-3c9"/>
     </defs>
     <g transform="translate(16.620312 179.828)rotate(-90)scale(0.1 -0.1)">
      <use transform="translate(0 0.3125)" xlink:href="#DejaVuSans-Oblique-3c9"/>
      <use transform="translate(83.740234 -16.09375)scale(0.7)" xlink:href="#DejaVuSans-Oblique-69"/>
     </g>
    </g>
   </g>
   <g id="line2d_27">
    <defs>
     <path d="M 0 3 
C 0.795609 3 1.55874 2.683901 2.12132 2.12132 
C 2.683901 1.55874 3 0.795609 3 0 
C 3 -0.795609 2.683901 -1.55874 2.12132 -2.12132 
C 1.55874 -2.683901 0.795609 -3 0 -3 
C -0.795609 -3 -1.55874 -2.683901 -2.12132 -2.12132 
C -2.683901 -1.55874 -3 -0.795609 -3 0 
C -3 0.795609 -2.683901 1.55874 -2.12132 2.12132 
C -1.55874 2.683901 -0.795609 3 0 3 
z
" id="m2c26d219bf" style="stroke:#1f77b4;"/>
    </defs>
    <g clip-path="url(#p0598c43022)">
     <use style="fill:#1f77b4;stroke:#1f77b4;" x="77.321776" xlink:href="#m2c26d219bf" y="274.996506"/>
     <use style="fill:#1f77b4;stroke:#1f77b4;" x="350.209647" xlink:href="#m2c26d219bf" y="167.870065"/>
     <use style="fill:#1f77b4;stroke:#1f77b4;" x="369.781528" xlink:href="#m2c26d219bf" y="210.451827"/>
     <use style="fill:#1f77b4;stroke:#1f77b4;" x="402.266052" xlink:href="#m2c26d219bf" y="295.488"/>
     <use style="fill:#1f77b4;stroke:#1f77b4;" x="361.57604" xlink:href="#m2c26d219bf" y="191.788652"/>
     <use style="fill:#1f77b4;stroke:#1f77b4;" x="389.000581" xlink:href="#m2c26d219bf" y="258.68582"/>
     <use style="fill:#1f77b4;stroke:#1f77b4;" x="118.423193" xlink:href="#m2c26d219bf" y="175.382195"/>
     <use style="fill:#1f77b4;stroke:#1f77b4;" x="98.170541" xlink:href="#m2c26d219bf" y="220.861217"/>
     <use style="fill:#1f77b4;stroke:#1f77b4;" x="323.125223" xlink:href="#m2c26d219bf" y="119.983295"/>
     <use style="fill:#1f77b4;stroke:#1f77b4;" x="307.602239" xlink:href="#m2c26d219bf" y="98.341966"/>
     <use style="fill:#1f77b4;stroke:#1f77b4;" x="253.255842" xlink:href="#m2c26d219bf" y="56.01393"/>
     <use style="fill:#1f77b4;stroke:#1f77b4;" x="129.239465" xlink:href="#m2c26d219bf" y="154.019199"/>
     <use style="fill:#1f77b4;stroke:#1f77b4;" x="102.538472" xlink:href="#m2c26d219bf" y="210.451827"/>
     <use style="fill:#1f77b4;stroke:#1f77b4;" x="70.053948" xlink:href="#m2c26d219bf" y="295.488"/>
     <use style="fill:#1f77b4;stroke:#1f77b4;" x="378.75265" xlink:href="#m2c26d219bf" y="232.185737"/>
     <use style="fill:#1f77b4;stroke:#1f77b4;" x="255.977482" xlink:href="#m2c26d219bf" y="56.885709"/>
     <use style="fill:#1f77b4;stroke:#1f77b4;" x="284.041737" xlink:href="#m2c26d219bf" y="73.593342"/>
     <use style="fill:#1f77b4;stroke:#1f77b4;" x="158.601278" xlink:href="#m2c26d219bf" y="106.363621"/>
     <use style="fill:#1f77b4;stroke:#1f77b4;" x="221.74837" xlink:href="#m2c26d219bf" y="55.291232"/>
     <use style="fill:#1f77b4;stroke:#1f77b4;" x="125.712559" xlink:href="#m2c26d219bf" y="160.760384"/>
     <use style="fill:#1f77b4;stroke:#1f77b4;" x="289.819766" xlink:href="#m2c26d219bf" y="78.758469"/>
     <use style="fill:#1f77b4;stroke:#1f77b4;" x="275.484366" xlink:href="#m2c26d219bf" y="67.024173"/>
     <use style="fill:#1f77b4;stroke:#1f77b4;" x="394.998224" xlink:href="#m2c26d219bf" y="274.996506"/>
     <use style="fill:#1f77b4;stroke:#1f77b4;" x="316.820883" xlink:href="#m2c26d219bf" y="110.683415"/>
     <use style="fill:#1f77b4;stroke:#1f77b4;" x="155.499117" xlink:href="#m2c26d219bf" y="110.683415"/>
     <use style="fill:#1f77b4;stroke:#1f77b4;" x="106.71852" xlink:href="#m2c26d219bf" y="200.798608"/>
     <use style="fill:#1f77b4;stroke:#1f77b4;" x="260.83945" xlink:href="#m2c26d219bf" y="62.478532"/>
     <use style="fill:#1f77b4;stroke:#1f77b4;" x="343.080535" xlink:href="#m2c26d219bf" y="154.019199"/>
     <use style="fill:#1f77b4;stroke:#1f77b4;" x="173.702987" xlink:href="#m2c26d219bf" y="87.751247"/>
     <use style="fill:#1f77b4;stroke:#1f77b4;" x="216.342518" xlink:href="#m2c26d219bf" y="56.885709"/>
     <use style="fill:#1f77b4;stroke:#1f77b4;" x="179.58636" xlink:href="#m2c26d219bf" y="81.586228"/>
     <use style="fill:#1f77b4;stroke:#1f77b4;" x="319.955484" xlink:href="#m2c26d219bf" y="115.220161"/>
     <use style="fill:#1f77b4;stroke:#1f77b4;" x="258.727367" xlink:href="#m2c26d219bf" y="57.899181"/>
     <use style="fill:#1f77b4;stroke:#1f77b4;" x="374.149459" xlink:href="#m2c26d219bf" y="220.861217"/>
     <use style="fill:#1f77b4;stroke:#1f77b4;" x="210.875129" xlink:href="#m2c26d219bf" y="58.970835"/>
     <use style="fill:#1f77b4;stroke:#1f77b4;" x="353.896807" xlink:href="#m2c26d219bf" y="175.382195"/>
     <use style="fill:#1f77b4;stroke:#1f77b4;" x="278.323326" xlink:href="#m2c26d219bf" y="69.060494"/>
     <use style="fill:#1f77b4;stroke:#1f77b4;" x="383.663033" xlink:href="#m2c26d219bf" y="244.663589"/>
     <use style="fill:#1f77b4;stroke:#1f77b4;" x="281.175529" xlink:href="#m2c26d219bf" y="71.249352"/>
     <use style="fill:#1f77b4;stroke:#1f77b4;" x="267.041045" xlink:href="#m2c26d219bf" y="61.807792"/>
     <use style="fill:#1f77b4;stroke:#1f77b4;" x="142.73748" xlink:href="#m2c26d219bf" y="130.232425"/>
     <use style="fill:#1f77b4;stroke:#1f77b4;" x="336.22174" xlink:href="#m2c26d219bf" y="141.533215"/>
     <use style="fill:#1f77b4;stroke:#1f77b4;" x="170.730797" xlink:href="#m2c26d219bf" y="91.097308"/>
     <use style="fill:#1f77b4;stroke:#1f77b4;" x="332.87728" xlink:href="#m2c26d219bf" y="135.743884"/>
     <use style="fill:#1f77b4;stroke:#1f77b4;" x="219.064158" xlink:href="#m2c26d219bf" y="56.01393"/>
     <use style="fill:#1f77b4;stroke:#1f77b4;" x="264.248914" xlink:href="#m2c26d219bf" y="60.358463"/>
     <use style="fill:#1f77b4;stroke:#1f77b4;" x="136.09826" xlink:href="#m2c26d219bf" y="141.533215"/>
     <use style="fill:#1f77b4;stroke:#1f77b4;" x="313.718722" xlink:href="#m2c26d219bf" y="106.363621"/>
     <use style="fill:#1f77b4;stroke:#1f77b4;" x="176.654374" xlink:href="#m2c26d219bf" y="84.582423"/>
     <use style="fill:#1f77b4;stroke:#1f77b4;" x="357.680714" xlink:href="#m2c26d219bf" y="183.338039"/>
     <use style="fill:#1f77b4;stroke:#1f77b4;" x="83.319419" xlink:href="#m2c26d219bf" y="258.68582"/>
     <use style="fill:#1f77b4;stroke:#1f77b4;" x="202.476278" xlink:href="#m2c26d219bf" y="63.39994"/>
     <use style="fill:#1f77b4;stroke:#1f77b4;" x="301.589203" xlink:href="#m2c26d219bf" y="91.097308"/>
     <use style="fill:#1f77b4;stroke:#1f77b4;" x="93.56735" xlink:href="#m2c26d219bf" y="232.185737"/>
     <use style="fill:#1f77b4;stroke:#1f77b4;" x="145.986892" xlink:href="#m2c26d219bf" y="124.983405"/>
     <use style="fill:#1f77b4;stroke:#1f77b4;" x="365.60148" xlink:href="#m2c26d219bf" y="200.798608"/>
     <use style="fill:#1f77b4;stroke:#1f77b4;" x="208.071086" xlink:href="#m2c26d219bf" y="60.358463"/>
     <use style="fill:#1f77b4;stroke:#1f77b4;" x="149.194777" xlink:href="#m2c26d219bf" y="119.983295"/>
     <use style="fill:#1f77b4;stroke:#1f77b4;" x="346.607441" xlink:href="#m2c26d219bf" y="160.760384"/>
     <use style="fill:#1f77b4;stroke:#1f77b4;" x="88.656967" xlink:href="#m2c26d219bf" y="244.663589"/>
     <use style="fill:#1f77b4;stroke:#1f77b4;" x="247.95086" xlink:href="#m2c26d219bf" y="54.729198"/>
     <use style="fill:#1f77b4;stroke:#1f77b4;" x="205.278955" xlink:href="#m2c26d219bf" y="61.807792"/>
     <use style="fill:#1f77b4;stroke:#1f77b4;" x="231.412717" xlink:href="#m2c26d219bf" y="53.889718"/>
     <use style="fill:#1f77b4;stroke:#1f77b4;" x="193.996674" xlink:href="#m2c26d219bf" y="69.060494"/>
     <use style="fill:#1f77b4;stroke:#1f77b4;" x="110.74396" xlink:href="#m2c26d219bf" y="191.788652"/>
     <use style="fill:#1f77b4;stroke:#1f77b4;" x="269.843722" xlink:href="#m2c26d219bf" y="63.39994"/>
     <use style="fill:#1f77b4;stroke:#1f77b4;" x="199.661994" xlink:href="#m2c26d219bf" y="65.138037"/>
     <use style="fill:#1f77b4;stroke:#1f77b4;" x="224.36914" xlink:href="#m2c26d219bf" y="54.729198"/>
     <use style="fill:#1f77b4;stroke:#1f77b4;" x="161.673427" xlink:href="#m2c26d219bf" y="102.252333"/>
     <use style="fill:#1f77b4;stroke:#1f77b4;" x="339.620895" xlink:href="#m2c26d219bf" y="147.618143"/>
     <use style="fill:#1f77b4;stroke:#1f77b4;" x="298.617013" xlink:href="#m2c26d219bf" y="87.751247"/>
     <use style="fill:#1f77b4;stroke:#1f77b4;" x="185.397176" xlink:href="#m2c26d219bf" y="76.09533"/>
     <use style="fill:#1f77b4;stroke:#1f77b4;" x="122.110353" xlink:href="#m2c26d219bf" y="167.870065"/>
     <use style="fill:#1f77b4;stroke:#1f77b4;" x="329.58252" xlink:href="#m2c26d219bf" y="130.232425"/>
     <use style="fill:#1f77b4;stroke:#1f77b4;" x="229.195489" xlink:href="#m2c26d219bf" y="54.12276"/>
     <use style="fill:#1f77b4;stroke:#1f77b4;" x="286.922824" xlink:href="#m2c26d219bf" y="76.09533"/>
     <use style="fill:#1f77b4;stroke:#1f77b4;" x="132.699105" xlink:href="#m2c26d219bf" y="147.618143"/>
     <use style="fill:#1f77b4;stroke:#1f77b4;" x="164.717761" xlink:href="#m2c26d219bf" y="98.341966"/>
     <use style="fill:#1f77b4;stroke:#1f77b4;" x="114.639286" xlink:href="#m2c26d219bf" y="183.338039"/>
     <use style="fill:#1f77b4;stroke:#1f77b4;" x="250.57163" xlink:href="#m2c26d219bf" y="55.291232"/>
     <use style="fill:#1f77b4;stroke:#1f77b4;" x="243.124511" xlink:href="#m2c26d219bf" y="54.12276"/>
     <use style="fill:#1f77b4;stroke:#1f77b4;" x="139.44272" xlink:href="#m2c26d219bf" y="135.743884"/>
     <use style="fill:#1f77b4;stroke:#1f77b4;" x="304.583723" xlink:href="#m2c26d219bf" y="94.625684"/>
     <use style="fill:#1f77b4;stroke:#1f77b4;" x="310.646573" xlink:href="#m2c26d219bf" y="102.252333"/>
     <use style="fill:#1f77b4;stroke:#1f77b4;" x="272.658006" xlink:href="#m2c26d219bf" y="65.138037"/>
     <use style="fill:#1f77b4;stroke:#1f77b4;" x="261.444871" xlink:href="#m2c26d219bf" y="58.970835"/>
     <use style="fill:#1f77b4;stroke:#1f77b4;" x="196.835634" xlink:href="#m2c26d219bf" y="67.024173"/>
     <use style="fill:#1f77b4;stroke:#1f77b4;" x="152.364516" xlink:href="#m2c26d219bf" y="115.220161"/>
     <use style="fill:#1f77b4;stroke:#1f77b4;" x="326.333108" xlink:href="#m2c26d219bf" y="124.983405"/>
     <use style="fill:#1f77b4;stroke:#1f77b4;" x="191.144471" xlink:href="#m2c26d219bf" y="71.249352"/>
     <use style="fill:#1f77b4;stroke:#1f77b4;" x="167.736277" xlink:href="#m2c26d219bf" y="94.625684"/>
     <use style="fill:#1f77b4;stroke:#1f77b4;" x="295.665626" xlink:href="#m2c26d219bf" y="84.582423"/>
     <use style="fill:#1f77b4;stroke:#1f77b4;" x="238.591151" xlink:href="#m2c26d219bf" y="53.656118"/>
     <use style="fill:#1f77b4;stroke:#1f77b4;" x="292.73364" xlink:href="#m2c26d219bf" y="81.586228"/>
     <use style="fill:#1f77b4;stroke:#1f77b4;" x="211.48055" xlink:href="#m2c26d219bf" y="62.478532"/>
     <use style="fill:#1f77b4;stroke:#1f77b4;" x="213.592633" xlink:href="#m2c26d219bf" y="57.899181"/>
     <use style="fill:#1f77b4;stroke:#1f77b4;" x="236.16" xlink:href="#m2c26d219bf" y="53.568"/>
     <use style="fill:#1f77b4;stroke:#1f77b4;" x="240.907283" xlink:href="#m2c26d219bf" y="53.889718"/>
     <use style="fill:#1f77b4;stroke:#1f77b4;" x="245.447151" xlink:href="#m2c26d219bf" y="54.347875"/>
     <use style="fill:#1f77b4;stroke:#1f77b4;" x="226.872849" xlink:href="#m2c26d219bf" y="54.347875"/>
     <use style="fill:#1f77b4;stroke:#1f77b4;" x="233.728849" xlink:href="#m2c26d219bf" y="53.656118"/>
     <use style="fill:#1f77b4;stroke:#1f77b4;" x="182.500234" xlink:href="#m2c26d219bf" y="78.758469"/>
     <use style="fill:#1f77b4;stroke:#1f77b4;" x="188.278263" xlink:href="#m2c26d219bf" y="73.593342"/>
    </g>
   </g>
   <g id="patch_3">
    <path d="M 57.6 307.584 
L 57.6 41.472 
" style="fill:none;stroke:#000000;stroke-linecap:square;stroke-linejoin:miter;stroke-width:0.8;"/>
   </g>
   <g id="patch_4">
    <path d="M 414.72 307.584 
L 414.72 41.472 
" style="fill:none;stroke:#000000;stroke-linecap:square;stroke-linejoin:miter;stroke-width:0.8;"/>
   </g>
   <g id="patch_5">
    <path d="M 57.6 307.584 
L 414.72 307.584 
" style="fill:none;stroke:#000000;stroke-linecap:square;stroke-linejoin:miter;stroke-width:0.8;"/>
   </g>
   <g id="patch_6">
    <path d="M 57.6 41.472 
L 414.72 41.472 
" style="fill:none;stroke:#000000;stroke-linecap:square;stroke-linejoin:miter;stroke-width:0.8;"/>
   </g>
  </g>
 </g>
 <defs>
  <clipPath id="p0598c43022">
   <rect height="266.112" width="357.12" x="57.6" y="41.472"/>
  </clipPath>
 </defs>
</svg>
