<?xml version="1.0" encoding="utf-8" standalone="no"?>
<!DOCTYPE svg PUBLIC "-//W3C//DTD SVG 1.1//EN"
  "http://www.w3.org/Graphics/SVG/1.1/DTD/svg11.dtd">
<!-- Created with matplotlib (http://matplotlib.org/) -->
<svg height="432pt" version="1.1" viewBox="0 0 576 432" width="576pt" xmlns="http://www.w3.org/2000/svg" xmlns:xlink="http://www.w3.org/1999/xlink">
 <defs>
  <style type="text/css">
*{stroke-linecap:butt;stroke-linejoin:round;stroke-miterlimit:100000;}
  </style>
 </defs>
 <g id="figure_1">
  <g id="patch_1">
   <path d="M 0 432 
L 576 432 
L 576 0 
L 0 0 
z
" style="fill:#ffffff;"/>
  </g>
  <g id="axes_1">
   <g id="patch_2">
    <path d="M 72 388.8 
L 518.4 388.8 
L 518.4 43.2 
L 72 43.2 
z
" style="fill:#ffffff;"/>
   </g>
   <g id="line2d_1">
    <defs>
     <path d="M 0 3 
C 0.795609 3 1.55874 2.683901 2.12132 2.12132 
C 2.683901 1.55874 3 0.795609 3 0 
C 3 -0.795609 2.683901 -1.55874 2.12132 -2.12132 
C 1.55874 -2.683901 0.795609 -3 0 -3 
C -0.795609 -3 -1.55874 -2.683901 -2.12132 -2.12132 
C -2.683901 -1.55874 -3 -0.795609 -3 0 
C -3 0.795609 -2.683901 1.55874 -2.12132 2.12132 
C -1.55874 2.683901 -0.795609 3 0 3 
z
" id="mf2f20ba989" style="stroke:#000000;stroke-width:0.5;"/>
    </defs>
    <g clip-path="url(#p42ba13eb77)">
     <use style="fill:#0000ff;stroke:#000000;stroke-width:0.5;" x="432.336737825" xlink:href="#mf2f20ba989" y="290.057142669"/>
     <use style="fill:#0000ff;stroke:#000000;stroke-width:0.5;" x="186.44861589" xlink:href="#mf2f20ba989" y="290.056743139"/>
     <use style="fill:#0000ff;stroke:#000000;stroke-width:0.5;" x="466.734347343" xlink:href="#mf2f20ba989" y="290.057142857"/>
     <use style="fill:#0000ff;stroke:#000000;stroke-width:0.5;" x="172.90806216" xlink:href="#mf2f20ba989" y="290.057129706"/>
     <use style="fill:#0000ff;stroke:#000000;stroke-width:0.5;" x="141.837494205" xlink:href="#mf2f20ba989" y="290.057142856"/>
     <use style="fill:#0000ff;stroke:#000000;stroke-width:0.5;" x="392.006003911" xlink:href="#mf2f20ba989" y="290.051659893"/>
     <use style="fill:#0000ff;stroke:#000000;stroke-width:0.5;" x="101.817574138" xlink:href="#mf2f20ba989" y="290.057142857"/>
     <use style="fill:#0000ff;stroke:#000000;stroke-width:0.5;" x="123.665652657" xlink:href="#mf2f20ba989" y="290.057142857"/>
     <use style="fill:#0000ff;stroke:#000000;stroke-width:0.5;" x="488.582425862" xlink:href="#mf2f20ba989" y="290.057142857"/>
     <use style="fill:#0000ff;stroke:#000000;stroke-width:0.5;" x="381.330747576" xlink:href="#mf2f20ba989" y="290.009977129"/>
     <use style="fill:#0000ff;stroke:#000000;stroke-width:0.5;" x="370.332405617" xlink:href="#mf2f20ba989" y="289.686122735"/>
     <use style="fill:#0000ff;stroke:#000000;stroke-width:0.5;" x="331.579081506" xlink:href="#mf2f20ba989" y="239.132864431"/>
     <use style="fill:#0000ff;stroke:#000000;stroke-width:0.5;" x="247.505474798" xlink:href="#mf2f20ba989" y="275.660069638"/>
     <use style="fill:#0000ff;stroke:#000000;stroke-width:0.5;" x="220.067594383" xlink:href="#mf2f20ba989" y="289.686122735"/>
     <use style="fill:#0000ff;stroke:#000000;stroke-width:0.5;" x="448.562505795" xlink:href="#mf2f20ba989" y="290.057142856"/>
     <use style="fill:#0000ff;stroke:#000000;stroke-width:0.5;" x="359.061474629" xlink:href="#mf2f20ba989" y="288.016376683"/>
     <use style="fill:#0000ff;stroke:#000000;stroke-width:0.5;" x="158.063262175" xlink:href="#mf2f20ba989" y="290.057142669"/>
     <use style="fill:#0000ff;stroke:#000000;stroke-width:0.5;" x="209.069252424" xlink:href="#mf2f20ba989" y="290.009977129"/>
     <use style="fill:#0000ff;stroke:#000000;stroke-width:0.5;" x="271.444132733" xlink:href="#mf2f20ba989" y="151.50296316"/>
     <use style="fill:#0000ff;stroke:#000000;stroke-width:0.5;" x="258.820918494" xlink:href="#mf2f20ba989" y="239.132864431"/>
     <use style="fill:#0000ff;stroke:#000000;stroke-width:0.5;" x="403.95138411" xlink:href="#mf2f20ba989" y="290.056743139"/>
     <use style="fill:#0000ff;stroke:#000000;stroke-width:0.5;" x="308.138016974" xlink:href="#mf2f20ba989" y="66.6380884407"/>
     <use style="fill:#0000ff;stroke:#000000;stroke-width:0.5;" x="417.49193784" xlink:href="#mf2f20ba989" y="290.057129706"/>
     <use style="fill:#0000ff;stroke:#000000;stroke-width:0.5;" x="231.338525371" xlink:href="#mf2f20ba989" y="288.016376683"/>
     <use style="fill:#0000ff;stroke:#000000;stroke-width:0.5;" x="277.137590623" xlink:href="#mf2f20ba989" y="347.767697067"/>
     <use style="fill:#0000ff;stroke:#000000;stroke-width:0.5;" x="295.2" xlink:href="#mf2f20ba989" y="54.421237833"/>
     <use style="fill:#0000ff;stroke:#000000;stroke-width:0.5;" x="318.955867267" xlink:href="#mf2f20ba989" y="151.50296316"/>
     <use style="fill:#0000ff;stroke:#000000;stroke-width:0.5;" x="350.455174788" xlink:href="#mf2f20ba989" y="286.20968925"/>
     <use style="fill:#0000ff;stroke:#000000;stroke-width:0.5;" x="239.944825212" xlink:href="#mf2f20ba989" y="286.20968925"/>
     <use style="fill:#0000ff;stroke:#000000;stroke-width:0.5;" x="282.261983026" xlink:href="#mf2f20ba989" y="66.6380884407"/>
     <use style="fill:#0000ff;stroke:#000000;stroke-width:0.5;" x="198.393996089" xlink:href="#mf2f20ba989" y="290.051659893"/>
     <use style="fill:#0000ff;stroke:#000000;stroke-width:0.5;" x="342.894525202" xlink:href="#mf2f20ba989" y="275.660069638"/>
     <use style="fill:#0000ff;stroke:#000000;stroke-width:0.5;" x="313.262409377" xlink:href="#mf2f20ba989" y="347.767697067"/>
    </g>
   </g>
   <g id="patch_3">
    <path d="M 72 43.2 
L 518.4 43.2 
" style="fill:none;stroke:#000000;stroke-linecap:square;stroke-linejoin:miter;"/>
   </g>
   <g id="patch_4">
    <path d="M 518.4 388.8 
L 518.4 43.2 
" style="fill:none;stroke:#000000;stroke-linecap:square;stroke-linejoin:miter;"/>
   </g>
   <g id="patch_5">
    <path d="M 72 388.8 
L 518.4 388.8 
" style="fill:none;stroke:#000000;stroke-linecap:square;stroke-linejoin:miter;"/>
   </g>
   <g id="patch_6">
    <path d="M 72 388.8 
L 72 43.2 
" style="fill:none;stroke:#000000;stroke-linecap:square;stroke-linejoin:miter;"/>
   </g>
   <g id="matplotlib.axis_1">
    <g id="xtick_1">
     <g id="line2d_2">
      <path clip-path="url(#p42ba13eb77)" d="M 116.294555 388.8 
L 116.294555 43.2 
" style="fill:none;stroke:#000000;stroke-dasharray:1.000000,3.000000;stroke-dashoffset:0.0;stroke-width:0.5;"/>
     </g>
     <g id="line2d_3">
      <defs>
       <path d="M 0 0 
L 0 -4 
" id="mf27009af73" style="stroke:#000000;stroke-width:0.5;"/>
      </defs>
      <g>
       <use style="stroke:#000000;stroke-width:0.5;" x="116.29455517" xlink:href="#mf27009af73" y="388.8"/>
      </g>
     </g>
     <g id="line2d_4">
      <defs>
       <path d="M 0 0 
L 0 4 
" id="m6f7a6d2381" style="stroke:#000000;stroke-width:0.5;"/>
      </defs>
      <g>
       <use style="stroke:#000000;stroke-width:0.5;" x="116.29455517" xlink:href="#m6f7a6d2381" y="43.2"/>
      </g>
     </g>
     <g id="text_1">
      <!-- $-6$ -->
      <defs>
       <path d="M 65.90625 23 
C 67.59375 23 69.40625 23 69.40625 25 
C 69.40625 27 67.59375 27 65.90625 27 
L 11.796875 27 
C 10.09375 27 8.296875 27 8.296875 25 
C 8.296875 23 10.09375 23 11.796875 23 
z
" id="CMSY10-0"/>
       <path d="M 10.59375 34 
C 10.59375 57.65625 21.796875 63 28.296875 63 
C 30.40625 63 35.5 62.640625 37.5 59 
C 35.90625 59 32.90625 59 32.90625 55.515625 
C 32.90625 52.828125 35.09375 51.921875 36.5 51.921875 
C 37.40625 51.921875 40.09375 52.3125 40.09375 55.625 
C 40.09375 61.78125 35.09375 65.296875 28.203125 65.296875 
C 16.296875 65.296875 3.796875 52.96875 3.796875 31 
C 3.796875 3.953125 15.09375 -2 23.09375 -2 
C 32.796875 -2 42 6.671875 42 20.046875 
C 42 32.515625 33.90625 41.59375 23.703125 41.59375 
C 17.59375 41.59375 13.09375 37.609375 10.59375 30.625 
z
M 23.09375 0.390625 
C 10.796875 0.390625 10.796875 18.75 10.796875 22.4375 
C 10.796875 29.625 14.203125 40 23.5 40 
C 25.203125 40 30.09375 40 33.40625 33.125 
C 35.203125 29.21875 35.203125 25.140625 35.203125 20.140625 
C 35.203125 14.75 35.203125 10.78125 33.09375 6.78125 
C 30.90625 2.671875 27.703125 0.390625 23.09375 0.390625 
" id="CMR17-54"/>
      </defs>
      <g transform="translate(108.71881533 401.317984317)scale(0.12 -0.12)">
       <use transform="scale(0.996264009963)" xlink:href="#CMSY10-0"/>
       <use transform="translate(77.4874676506 0.0)scale(0.996264009963)" xlink:href="#CMR17-54"/>
      </g>
     </g>
    </g>
    <g id="xtick_2">
     <g id="line2d_5">
      <path clip-path="url(#p42ba13eb77)" d="M 175.929703 388.8 
L 175.929703 43.2 
" style="fill:none;stroke:#000000;stroke-dasharray:1.000000,3.000000;stroke-dashoffset:0.0;stroke-width:0.5;"/>
     </g>
     <g id="line2d_6">
      <g>
       <use style="stroke:#000000;stroke-width:0.5;" x="175.929703447" xlink:href="#mf27009af73" y="388.8"/>
      </g>
     </g>
     <g id="line2d_7">
      <g>
       <use style="stroke:#000000;stroke-width:0.5;" x="175.929703447" xlink:href="#m6f7a6d2381" y="43.2"/>
      </g>
     </g>
     <g id="text_2">
      <!-- $-4$ -->
      <defs>
       <path d="M 33.59375 64.40625 
C 33.59375 66.5 33.5 66.5 31.703125 66.5 
L 2 19.59375 
L 2 17 
L 27.796875 17 
L 27.796875 7.140625 
C 27.796875 3.5 27.59375 2.5 20.59375 2.5 
L 18.703125 2.5 
L 18.703125 0 
C 21.90625 0 27.296875 0 30.703125 0 
C 34.09375 0 39.5 0 42.703125 0 
L 42.703125 2.5 
L 40.796875 2.5 
C 33.796875 2.5 33.59375 3.5 33.59375 7.140625 
L 33.59375 17 
L 43.796875 17 
L 43.796875 19.59375 
L 33.59375 19.59375 
z
M 28.09375 57.859375 
L 28.09375 19.59375 
L 4 19.59375 
z
" id="CMR17-52"/>
      </defs>
      <g transform="translate(168.353963607 401.317984317)scale(0.12 -0.12)">
       <use transform="scale(0.996264009963)" xlink:href="#CMSY10-0"/>
       <use transform="translate(77.4874676506 0.0)scale(0.996264009963)" xlink:href="#CMR17-52"/>
      </g>
     </g>
    </g>
    <g id="xtick_3">
     <g id="line2d_8">
      <path clip-path="url(#p42ba13eb77)" d="M 235.564852 388.8 
L 235.564852 43.2 
" style="fill:none;stroke:#000000;stroke-dasharray:1.000000,3.000000;stroke-dashoffset:0.0;stroke-width:0.5;"/>
     </g>
     <g id="line2d_9">
      <g>
       <use style="stroke:#000000;stroke-width:0.5;" x="235.564851723" xlink:href="#mf27009af73" y="388.8"/>
      </g>
     </g>
     <g id="line2d_10">
      <g>
       <use style="stroke:#000000;stroke-width:0.5;" x="235.564851723" xlink:href="#m6f7a6d2381" y="43.2"/>
      </g>
     </g>
     <g id="text_3">
      <!-- $-2$ -->
      <defs>
       <path d="M 41.703125 15.453125 
L 39.90625 15.453125 
C 38.90625 8.375 38.09375 7.171875 37.703125 6.5625 
C 37.203125 5.765625 30 5.765625 28.59375 5.765625 
L 9.40625 5.765625 
C 13 9.671875 20 16.75 28.5 24.953125 
C 34.59375 30.734375 41.703125 37.53125 41.703125 47.421875 
C 41.703125 59.21875 32.296875 66 21.796875 66 
C 10.796875 66 4.09375 56.3125 4.09375 47.34375 
C 4.09375 43.4375 7 42.9375 8.203125 42.9375 
C 9.203125 42.9375 12.203125 43.546875 12.203125 47.03125 
C 12.203125 50.109375 9.59375 51 8.203125 51 
C 7.59375 51 7 50.90625 6.59375 50.703125 
C 8.5 59.21875 14.296875 63.40625 20.40625 63.40625 
C 29.09375 63.40625 34.796875 56.515625 34.796875 47.421875 
C 34.796875 38.734375 29.703125 31.25 24 24.75 
L 4.09375 2.28125 
L 4.09375 0 
L 39.296875 0 
z
" id="CMR17-50"/>
      </defs>
      <g transform="translate(227.989111883 401.317984317)scale(0.12 -0.12)">
       <use transform="scale(0.996264009963)" xlink:href="#CMSY10-0"/>
       <use transform="translate(77.4874676506 0.0)scale(0.996264009963)" xlink:href="#CMR17-50"/>
      </g>
     </g>
    </g>
    <g id="xtick_4">
     <g id="line2d_11">
      <path clip-path="url(#p42ba13eb77)" d="M 295.2 388.8 
L 295.2 43.2 
" style="fill:none;stroke:#000000;stroke-dasharray:1.000000,3.000000;stroke-dashoffset:0.0;stroke-width:0.5;"/>
     </g>
     <g id="line2d_12">
      <g>
       <use style="stroke:#000000;stroke-width:0.5;" x="295.2" xlink:href="#mf27009af73" y="388.8"/>
      </g>
     </g>
     <g id="line2d_13">
      <g>
       <use style="stroke:#000000;stroke-width:0.5;" x="295.2" xlink:href="#m6f7a6d2381" y="43.2"/>
      </g>
     </g>
     <g id="text_4">
      <!-- $0$ -->
      <defs>
       <path d="M 42 31.640625 
C 42 37.75 41.90625 48.125 37.703125 56.109375 
C 34 63.109375 28.09375 65.59375 22.90625 65.59375 
C 18.09375 65.59375 12 63.40625 8.203125 56.203125 
C 4.203125 48.71875 3.796875 39.4375 3.796875 31.640625 
C 3.796875 25.953125 3.90625 17.28125 7 9.671875 
C 11.296875 -0.609375 19 -2 22.90625 -2 
C 27.5 -2 34.5 -0.109375 38.59375 9.375 
C 41.59375 16.28125 42 24.359375 42 31.640625 
M 22.90625 -0.40625 
C 16.5 -0.40625 12.703125 5.078125 11.296875 12.6875 
C 10.203125 18.5625 10.203125 27.15625 10.203125 32.75 
C 10.203125 40.4375 10.203125 46.828125 11.5 52.921875 
C 13.40625 61.390625 19 64 22.90625 64 
C 27 64 32.296875 61.296875 34.203125 53.125 
C 35.5 47.4375 35.59375 40.734375 35.59375 32.75 
C 35.59375 26.25 35.59375 18.265625 34.40625 12.375 
C 32.296875 1.484375 26.40625 -0.40625 22.90625 -0.40625 
" id="CMR17-48"/>
      </defs>
      <g transform="translate(292.273504874 401.317984317)scale(0.12 -0.12)">
       <use transform="scale(0.996264009963)" xlink:href="#CMR17-48"/>
      </g>
     </g>
    </g>
    <g id="xtick_5">
     <g id="line2d_14">
      <path clip-path="url(#p42ba13eb77)" d="M 354.835148 388.8 
L 354.835148 43.2 
" style="fill:none;stroke:#000000;stroke-dasharray:1.000000,3.000000;stroke-dashoffset:0.0;stroke-width:0.5;"/>
     </g>
     <g id="line2d_15">
      <g>
       <use style="stroke:#000000;stroke-width:0.5;" x="354.835148277" xlink:href="#mf27009af73" y="388.8"/>
      </g>
     </g>
     <g id="line2d_16">
      <g>
       <use style="stroke:#000000;stroke-width:0.5;" x="354.835148277" xlink:href="#m6f7a6d2381" y="43.2"/>
      </g>
     </g>
     <g id="text_5">
      <!-- $2$ -->
      <g transform="translate(351.908653151 401.317984317)scale(0.12 -0.12)">
       <use transform="scale(0.996264009963)" xlink:href="#CMR17-50"/>
      </g>
     </g>
    </g>
    <g id="xtick_6">
     <g id="line2d_17">
      <path clip-path="url(#p42ba13eb77)" d="M 414.470297 388.8 
L 414.470297 43.2 
" style="fill:none;stroke:#000000;stroke-dasharray:1.000000,3.000000;stroke-dashoffset:0.0;stroke-width:0.5;"/>
     </g>
     <g id="line2d_18">
      <g>
       <use style="stroke:#000000;stroke-width:0.5;" x="414.470296553" xlink:href="#mf27009af73" y="388.8"/>
      </g>
     </g>
     <g id="line2d_19">
      <g>
       <use style="stroke:#000000;stroke-width:0.5;" x="414.470296553" xlink:href="#m6f7a6d2381" y="43.2"/>
      </g>
     </g>
     <g id="text_6">
      <!-- $4$ -->
      <g transform="translate(411.543801427 401.317984317)scale(0.12 -0.12)">
       <use transform="scale(0.996264009963)" xlink:href="#CMR17-52"/>
      </g>
     </g>
    </g>
    <g id="xtick_7">
     <g id="line2d_20">
      <path clip-path="url(#p42ba13eb77)" d="M 474.105445 388.8 
L 474.105445 43.2 
" style="fill:none;stroke:#000000;stroke-dasharray:1.000000,3.000000;stroke-dashoffset:0.0;stroke-width:0.5;"/>
     </g>
     <g id="line2d_21">
      <g>
       <use style="stroke:#000000;stroke-width:0.5;" x="474.10544483" xlink:href="#mf27009af73" y="388.8"/>
      </g>
     </g>
     <g id="line2d_22">
      <g>
       <use style="stroke:#000000;stroke-width:0.5;" x="474.10544483" xlink:href="#m6f7a6d2381" y="43.2"/>
      </g>
     </g>
     <g id="text_7">
      <!-- $6$ -->
      <g transform="translate(471.178949704 401.317984317)scale(0.12 -0.12)">
       <use transform="scale(0.996264009963)" xlink:href="#CMR17-54"/>
      </g>
     </g>
    </g>
    <g id="text_8">
     <!-- $\gamma_i$ -->
     <defs>
      <path d="M 37.796875 11.875 
C 37.59375 16.734375 37.40625 24.390625 33.59375 33.328125 
C 31.59375 38.3125 28.203125 43.5625 20.90625 43.5625 
C 8.59375 43.5625 1.90625 27.96875 1.90625 25.390625 
C 1.90625 24.484375 2.59375 24.484375 2.90625 24.484375 
C 3.796875 24.484375 3.796875 24.6875 4.296875 25.984375 
C 6.40625 32.140625 12.796875 37 19.703125 37 
C 33.59375 37 35.59375 21.609375 35.59375 11.78125 
C 35.59375 5.5 34.90625 3.4375 34.296875 1.4375 
C 32.40625 -4.71875 29.09375 -17.03125 29.09375 -19.8125 
C 29.09375 -20.609375 29.40625 -21.5 30.203125 -21.5 
C 31.703125 -21.5 32.59375 -18.21875 33.703125 -14.25 
C 36.09375 -5.515625 36.703125 -1.140625 37.203125 2.828125 
C 37.5 5.21875 43.203125 21.625 51.09375 37.21875 
C 51.796875 38.796875 53.203125 41.484375 53.203125 41.78125 
C 53.203125 41.875 53.09375 42.578125 52.203125 42.578125 
C 52 42.578125 51.5 42.578125 51.296875 42.171875 
C 51.09375 41.984375 47.59375 35.21875 44.59375 28.46875 
C 43.09375 25.09375 41.09375 20.625 37.796875 11.875 
" id="CMMI12-13"/>
      <path d="M 28.296875 14.265625 
C 28.296875 14.765625 27.90625 15.171875 27.296875 15.171875 
C 26.40625 15.171875 26.296875 14.875 25.796875 13.171875 
C 23.203125 4.09375 19.09375 1 15.796875 1 
C 14.59375 1 13.203125 1.296875 13.203125 4.296875 
C 13.203125 6.984375 14.40625 9.984375 15.5 12.96875 
L 22.5 31.53125 
C 22.796875 32.328125 23.5 34.125 23.5 36.015625 
C 23.5 40.21875 20.5 44 15.59375 44 
C 6.40625 44 2.703125 29.53125 2.703125 28.734375 
C 2.703125 28.34375 3.09375 27.84375 3.796875 27.84375 
C 4.703125 27.84375 4.796875 28.234375 5.203125 29.625 
C 7.59375 37.9375 11.40625 41.90625 15.296875 41.90625 
C 16.203125 41.90625 17.90625 41.90625 17.90625 38.71875 
C 17.90625 36.125 16.59375 32.828125 15.796875 30.640625 
L 8.796875 12.078125 
C 8.203125 10.484375 7.59375 8.875 7.59375 7.078125 
C 7.59375 2.59375 10.703125 -1 15.5 -1 
C 24.703125 -1 28.296875 13.578125 28.296875 14.265625 
M 27.5 62.703125 
C 27.5 64.203125 26.296875 66 24.09375 66 
C 21.796875 66 19.203125 63.796875 19.203125 61.203125 
C 19.203125 58.71875 21.296875 57.921875 22.5 57.921875 
C 25.203125 57.921875 27.5 60.515625 27.5 62.703125 
" id="CMMI12-105"/>
     </defs>
     <g transform="translate(290.72248222 417.382343191)scale(0.12 -0.12)">
      <use transform="translate(0.0 14.9439145441)scale(0.996264009963)" xlink:href="#CMMI12-13"/>
      <use transform="translate(50.5991326471 0.0)scale(0.697381766617)" xlink:href="#CMMI12-105"/>
     </g>
    </g>
   </g>
   <g id="matplotlib.axis_2">
    <g id="ytick_1">
     <g id="line2d_23">
      <path clip-path="url(#p42ba13eb77)" d="M 72 388.8 
L 518.4 388.8 
" style="fill:none;stroke:#000000;stroke-dasharray:1.000000,3.000000;stroke-dashoffset:0.0;stroke-width:0.5;"/>
     </g>
     <g id="line2d_24">
      <defs>
       <path d="M 0 0 
L 4 0 
" id="me5ecef89c0" style="stroke:#000000;stroke-width:0.5;"/>
      </defs>
      <g>
       <use style="stroke:#000000;stroke-width:0.5;" x="72.0" xlink:href="#me5ecef89c0" y="388.8"/>
      </g>
     </g>
     <g id="line2d_25">
      <defs>
       <path d="M 0 0 
L -4 0 
" id="m84c59d309e" style="stroke:#000000;stroke-width:0.5;"/>
      </defs>
      <g>
       <use style="stroke:#000000;stroke-width:0.5;" x="518.4" xlink:href="#m84c59d309e" y="388.8"/>
      </g>
     </g>
     <g id="text_9">
      <!-- $-0.10$ -->
      <defs>
       <path d="M 26.59375 63.40625 
C 26.59375 65.5 26.5 65.5 25.09375 65.5 
C 21.203125 61.1875 15.296875 59.796875 9.703125 59.796875 
C 9.40625 59.796875 8.90625 59.796875 8.796875 59.5 
C 8.703125 59.296875 8.703125 59.09375 8.703125 57 
C 11.796875 57 17 57.59375 21 59.984375 
L 21 7.203125 
C 21 3.6875 20.796875 2.5 12.203125 2.5 
L 9.203125 2.5 
L 9.203125 0 
C 14 0 19 0 23.796875 0 
C 28.59375 0 33.59375 0 38.40625 0 
L 38.40625 2.5 
L 35.40625 2.5 
C 26.796875 2.5 26.59375 3.59375 26.59375 7.15625 
z
" id="CMR17-49"/>
       <path d="M 18.40625 4.796875 
C 18.40625 7.6875 16 9.671875 13.59375 9.671875 
C 10.703125 9.671875 8.703125 7.28125 8.703125 4.890625 
C 8.703125 2 11.09375 0 13.5 0 
C 16.40625 0 18.40625 2.390625 18.40625 4.796875 
" id="CMMI12-58"/>
      </defs>
      <g transform="translate(37.8908785657 391.78580488)scale(0.12 -0.12)">
       <use transform="scale(0.996264009963)" xlink:href="#CMSY10-0"/>
       <use transform="translate(77.4874676506 0.0)scale(0.996264009963)" xlink:href="#CMR17-48"/>
       <use transform="translate(123.177944768 0.0)scale(0.996264009963)" xlink:href="#CMMI12-58"/>
       <use transform="translate(150.275121857 0.0)scale(0.996264009963)" xlink:href="#CMR17-49"/>
       <use transform="translate(195.965598975 0.0)scale(0.996264009963)" xlink:href="#CMR17-48"/>
      </g>
     </g>
    </g>
    <g id="ytick_2">
     <g id="line2d_26">
      <path clip-path="url(#p42ba13eb77)" d="M 72 339.428571 
L 518.4 339.428571 
" style="fill:none;stroke:#000000;stroke-dasharray:1.000000,3.000000;stroke-dashoffset:0.0;stroke-width:0.5;"/>
     </g>
     <g id="line2d_27">
      <g>
       <use style="stroke:#000000;stroke-width:0.5;" x="72.0" xlink:href="#me5ecef89c0" y="339.428571429"/>
      </g>
     </g>
     <g id="line2d_28">
      <g>
       <use style="stroke:#000000;stroke-width:0.5;" x="518.4" xlink:href="#m84c59d309e" y="339.428571429"/>
      </g>
     </g>
     <g id="text_10">
      <!-- $-0.05$ -->
      <defs>
       <path d="M 11.40625 57.6875 
C 12.40625 57.28125 16.5 56 20.703125 56 
C 30 56 35.09375 61.109375 38 64.0625 
C 38 64.953125 38 65.5 37.40625 65.5 
C 37.296875 65.5 37.09375 65.5 36.296875 65.046875 
C 32.796875 63.40625 28.703125 62.078125 23.703125 62.078125 
C 20.703125 62.078125 16.203125 62.484375 11.296875 64.671875 
C 10.203125 65.171875 10 65.171875 9.90625 65.171875 
C 9.40625 65.171875 9.296875 65.0625 9.296875 63.078125 
L 9.296875 34.421875 
C 9.296875 32.640625 9.296875 32.140625 10.296875 32.140625 
C 10.796875 32.140625 11 32.34375 11.5 33.03125 
C 14.703125 37.515625 19.09375 39.40625 24.09375 39.40625 
C 27.59375 39.40625 35.09375 37.21875 35.09375 20.140625 
C 35.09375 16.953125 35.09375 11.171875 32.09375 6.578125 
C 29.59375 2.484375 25.703125 0.390625 21.40625 0.390625 
C 14.796875 0.390625 8.09375 5 6.296875 12.71875 
C 6.703125 12.609375 7.5 12.421875 7.90625 12.421875 
C 9.203125 12.421875 11.703125 13.125 11.703125 16.21875 
C 11.703125 18.90625 9.796875 20 7.90625 20 
C 5.59375 20 4.09375 18.59375 4.09375 15.796875 
C 4.09375 7.09375 11 -2 21.59375 -2 
C 31.90625 -2 41.703125 6.875 41.703125 19.75 
C 41.703125 31.71875 33.90625 41 24.203125 41 
C 19.09375 41 14.796875 39.109375 11.40625 35.53125 
z
" id="CMR17-53"/>
      </defs>
      <g transform="translate(37.8908785657 342.414376308)scale(0.12 -0.12)">
       <use transform="scale(0.996264009963)" xlink:href="#CMSY10-0"/>
       <use transform="translate(77.4874676506 0.0)scale(0.996264009963)" xlink:href="#CMR17-48"/>
       <use transform="translate(123.177944768 0.0)scale(0.996264009963)" xlink:href="#CMMI12-58"/>
       <use transform="translate(150.275121857 0.0)scale(0.996264009963)" xlink:href="#CMR17-48"/>
       <use transform="translate(195.965598975 0.0)scale(0.996264009963)" xlink:href="#CMR17-53"/>
      </g>
     </g>
    </g>
    <g id="ytick_3">
     <g id="line2d_29">
      <path clip-path="url(#p42ba13eb77)" d="M 72 290.057143 
L 518.4 290.057143 
" style="fill:none;stroke:#000000;stroke-dasharray:1.000000,3.000000;stroke-dashoffset:0.0;stroke-width:0.5;"/>
     </g>
     <g id="line2d_30">
      <g>
       <use style="stroke:#000000;stroke-width:0.5;" x="72.0" xlink:href="#me5ecef89c0" y="290.057142857"/>
      </g>
     </g>
     <g id="line2d_31">
      <g>
       <use style="stroke:#000000;stroke-width:0.5;" x="518.4" xlink:href="#m84c59d309e" y="290.057142857"/>
      </g>
     </g>
     <g id="text_11">
      <!-- $0.00$ -->
      <g transform="translate(47.189367995 293.042947737)scale(0.12 -0.12)">
       <use transform="scale(0.996264009963)" xlink:href="#CMR17-48"/>
       <use transform="translate(45.6904771171 0.0)scale(0.996264009963)" xlink:href="#CMMI12-58"/>
       <use transform="translate(72.7876542069 0.0)scale(0.996264009963)" xlink:href="#CMR17-48"/>
       <use transform="translate(118.478131324 0.0)scale(0.996264009963)" xlink:href="#CMR17-48"/>
      </g>
     </g>
    </g>
    <g id="ytick_4">
     <g id="line2d_32">
      <path clip-path="url(#p42ba13eb77)" d="M 72 240.685714 
L 518.4 240.685714 
" style="fill:none;stroke:#000000;stroke-dasharray:1.000000,3.000000;stroke-dashoffset:0.0;stroke-width:0.5;"/>
     </g>
     <g id="line2d_33">
      <g>
       <use style="stroke:#000000;stroke-width:0.5;" x="72.0" xlink:href="#me5ecef89c0" y="240.685714286"/>
      </g>
     </g>
     <g id="line2d_34">
      <g>
       <use style="stroke:#000000;stroke-width:0.5;" x="518.4" xlink:href="#m84c59d309e" y="240.685714286"/>
      </g>
     </g>
     <g id="text_12">
      <!-- $0.05$ -->
      <g transform="translate(47.189367995 243.671519165)scale(0.12 -0.12)">
       <use transform="scale(0.996264009963)" xlink:href="#CMR17-48"/>
       <use transform="translate(45.6904771171 0.0)scale(0.996264009963)" xlink:href="#CMMI12-58"/>
       <use transform="translate(72.7876542069 0.0)scale(0.996264009963)" xlink:href="#CMR17-48"/>
       <use transform="translate(118.478131324 0.0)scale(0.996264009963)" xlink:href="#CMR17-53"/>
      </g>
     </g>
    </g>
    <g id="ytick_5">
     <g id="line2d_35">
      <path clip-path="url(#p42ba13eb77)" d="M 72 191.314286 
L 518.4 191.314286 
" style="fill:none;stroke:#000000;stroke-dasharray:1.000000,3.000000;stroke-dashoffset:0.0;stroke-width:0.5;"/>
     </g>
     <g id="line2d_36">
      <g>
       <use style="stroke:#000000;stroke-width:0.5;" x="72.0" xlink:href="#me5ecef89c0" y="191.314285714"/>
      </g>
     </g>
     <g id="line2d_37">
      <g>
       <use style="stroke:#000000;stroke-width:0.5;" x="518.4" xlink:href="#m84c59d309e" y="191.314285714"/>
      </g>
     </g>
     <g id="text_13">
      <!-- $0.10$ -->
      <g transform="translate(47.189367995 194.300090594)scale(0.12 -0.12)">
       <use transform="scale(0.996264009963)" xlink:href="#CMR17-48"/>
       <use transform="translate(45.6904771171 0.0)scale(0.996264009963)" xlink:href="#CMMI12-58"/>
       <use transform="translate(72.7876542069 0.0)scale(0.996264009963)" xlink:href="#CMR17-49"/>
       <use transform="translate(118.478131324 0.0)scale(0.996264009963)" xlink:href="#CMR17-48"/>
      </g>
     </g>
    </g>
    <g id="ytick_6">
     <g id="line2d_38">
      <path clip-path="url(#p42ba13eb77)" d="M 72 141.942857 
L 518.4 141.942857 
" style="fill:none;stroke:#000000;stroke-dasharray:1.000000,3.000000;stroke-dashoffset:0.0;stroke-width:0.5;"/>
     </g>
     <g id="line2d_39">
      <g>
       <use style="stroke:#000000;stroke-width:0.5;" x="72.0" xlink:href="#me5ecef89c0" y="141.942857143"/>
      </g>
     </g>
     <g id="line2d_40">
      <g>
       <use style="stroke:#000000;stroke-width:0.5;" x="518.4" xlink:href="#m84c59d309e" y="141.942857143"/>
      </g>
     </g>
     <g id="text_14">
      <!-- $0.15$ -->
      <g transform="translate(47.189367995 144.928662023)scale(0.12 -0.12)">
       <use transform="scale(0.996264009963)" xlink:href="#CMR17-48"/>
       <use transform="translate(45.6904771171 0.0)scale(0.996264009963)" xlink:href="#CMMI12-58"/>
       <use transform="translate(72.7876542069 0.0)scale(0.996264009963)" xlink:href="#CMR17-49"/>
       <use transform="translate(118.478131324 0.0)scale(0.996264009963)" xlink:href="#CMR17-53"/>
      </g>
     </g>
    </g>
    <g id="ytick_7">
     <g id="line2d_41">
      <path clip-path="url(#p42ba13eb77)" d="M 72 92.571429 
L 518.4 92.571429 
" style="fill:none;stroke:#000000;stroke-dasharray:1.000000,3.000000;stroke-dashoffset:0.0;stroke-width:0.5;"/>
     </g>
     <g id="line2d_42">
      <g>
       <use style="stroke:#000000;stroke-width:0.5;" x="72.0" xlink:href="#me5ecef89c0" y="92.5714285714"/>
      </g>
     </g>
     <g id="line2d_43">
      <g>
       <use style="stroke:#000000;stroke-width:0.5;" x="518.4" xlink:href="#m84c59d309e" y="92.5714285714"/>
      </g>
     </g>
     <g id="text_15">
      <!-- $0.20$ -->
      <g transform="translate(47.189367995 95.5572334511)scale(0.12 -0.12)">
       <use transform="scale(0.996264009963)" xlink:href="#CMR17-48"/>
       <use transform="translate(45.6904771171 0.0)scale(0.996264009963)" xlink:href="#CMMI12-58"/>
       <use transform="translate(72.7876542069 0.0)scale(0.996264009963)" xlink:href="#CMR17-50"/>
       <use transform="translate(118.478131324 0.0)scale(0.996264009963)" xlink:href="#CMR17-48"/>
      </g>
     </g>
    </g>
    <g id="ytick_8">
     <g id="line2d_44">
      <path clip-path="url(#p42ba13eb77)" d="M 72 43.2 
L 518.4 43.2 
" style="fill:none;stroke:#000000;stroke-dasharray:1.000000,3.000000;stroke-dashoffset:0.0;stroke-width:0.5;"/>
     </g>
     <g id="line2d_45">
      <g>
       <use style="stroke:#000000;stroke-width:0.5;" x="72.0" xlink:href="#me5ecef89c0" y="43.2"/>
      </g>
     </g>
     <g id="line2d_46">
      <g>
       <use style="stroke:#000000;stroke-width:0.5;" x="518.4" xlink:href="#m84c59d309e" y="43.2"/>
      </g>
     </g>
     <g id="text_16">
      <!-- $0.25$ -->
      <g transform="translate(47.189367995 46.1858048797)scale(0.12 -0.12)">
       <use transform="scale(0.996264009963)" xlink:href="#CMR17-48"/>
       <use transform="translate(45.6904771171 0.0)scale(0.996264009963)" xlink:href="#CMMI12-58"/>
       <use transform="translate(72.7876542069 0.0)scale(0.996264009963)" xlink:href="#CMR17-50"/>
       <use transform="translate(118.478131324 0.0)scale(0.996264009963)" xlink:href="#CMR17-53"/>
      </g>
     </g>
    </g>
    <g id="text_17">
     <!-- $\omega_i$ -->
     <defs>
      <path d="M 59.40625 37.421875 
C 59.40625 40.3125 58.59375 44 55.09375 44 
C 53.09375 44 50.796875 41.515625 50.796875 39.515625 
C 50.796875 38.625 51.203125 38.03125 52 37.125 
C 53.5 35.4375 55.40625 32.75 55.40625 28.078125 
C 55.40625 24.484375 53.203125 18.8125 51.59375 15.734375 
C 48.796875 10.25 44.203125 5.578125 39 5.578125 
C 32.703125 5.578125 30.296875 9.609375 29.203125 15.234375 
C 30.296875 17.859375 32.59375 24.375 32.59375 27 
C 32.59375 28.09375 32.203125 29 30.90625 29 
C 30.203125 29 29.40625 28.609375 28.90625 27.796875 
C 27.5 25.59375 26.203125 17.640625 26.296875 15.53125 
C 24.40625 11.8125 19 5.578125 12.59375 5.578125 
C 5.90625 5.578125 4.09375 11.453125 4.09375 17.125 
C 4.09375 27.46875 10.59375 36.53125 12.40625 39.015625 
C 13.40625 40.515625 14.09375 41.515625 14.09375 41.703125 
C 14.09375 42.40625 13.703125 43.5 12.796875 43.5 
C 11.203125 43.5 10.703125 42.203125 9.90625 41.015625 
C 4.796875 33.140625 1.203125 22.09375 1.203125 12.546875 
C 1.203125 6.375 3.5 -1 11 -1 
C 19.296875 -1 24.5 6.109375 26.59375 9.90625 
C 27.40625 4.296875 30.40625 -1 37.703125 -1 
C 45.296875 -1 50.09375 5.671875 53.703125 13.734375 
C 56.296875 19.515625 59.40625 31.953125 59.40625 37.421875 
" id="CMMI12-33"/>
     </defs>
     <g transform="translate(30.3445040084 221.086189546)rotate(-90.0)scale(0.12 -0.12)">
      <use transform="translate(0.0 14.9439145441)scale(0.996264009963)" xlink:href="#CMMI12-33"/>
      <use transform="translate(60.7437532836 0.0)scale(0.697381766617)" xlink:href="#CMMI12-105"/>
     </g>
    </g>
   </g>
  </g>
 </g>
 <defs>
  <clipPath id="p42ba13eb77">
   <rect height="345.6" width="446.4" x="72.0" y="43.2"/>
  </clipPath>
 </defs>
</svg>
