<?xml version="1.0" encoding="utf-8" standalone="no"?>
<!DOCTYPE svg PUBLIC "-//W3C//DTD SVG 1.1//EN"
  "http://www.w3.org/Graphics/SVG/1.1/DTD/svg11.dtd">
<!-- Created with matplotlib (http://matplotlib.org/) -->
<svg height="345pt" version="1.1" viewBox="0 0 460 345" width="460pt" xmlns="http://www.w3.org/2000/svg" xmlns:xlink="http://www.w3.org/1999/xlink">
 <defs>
  <style type="text/css">
*{stroke-linecap:butt;stroke-linejoin:round;}
  </style>
 </defs>
 <g id="figure_1">
  <g id="patch_1">
   <path d="M 0 345.6 
L 460.8 345.6 
L 460.8 0 
L 0 0 
z
" style="fill:#ffffff;"/>
  </g>
  <g id="axes_1">
   <g id="patch_2">
    <path d="M 57.6 307.584 
L 414.72 307.584 
L 414.72 41.472 
L 57.6 41.472 
z
" style="fill:#ffffff;"/>
   </g>
   <g id="matplotlib.axis_1">
    <g id="xtick_1">
     <g id="line2d_1">
      <path clip-path="url(#p8d9defc4bc)" d="M 58.779012 307.584 
L 58.779012 41.472 
" style="fill:none;stroke:#b0b0b0;stroke-linecap:square;stroke-width:0.8;"/>
     </g>
     <g id="line2d_2">
      <defs>
       <path d="M 0 0 
L 0 3.5 
" id="m645d6ea019" style="stroke:#000000;stroke-width:0.8;"/>
      </defs>
      <g>
       <use style="stroke:#000000;stroke-width:0.8;" x="58.779012" xlink:href="#m645d6ea019" y="307.584"/>
      </g>
     </g>
     <g id="text_1">
      <!-- 0 -->
      <defs>
       <path d="M 31.78125 66.40625 
Q 24.171875 66.40625 20.328125 58.90625 
Q 16.5 51.421875 16.5 36.375 
Q 16.5 21.390625 20.328125 13.890625 
Q 24.171875 6.390625 31.78125 6.390625 
Q 39.453125 6.390625 43.28125 13.890625 
Q 47.125 21.390625 47.125 36.375 
Q 47.125 51.421875 43.28125 58.90625 
Q 39.453125 66.40625 31.78125 66.40625 
M 31.78125 74.21875 
Q 44.046875 74.21875 50.515625 64.515625 
Q 56.984375 54.828125 56.984375 36.375 
Q 56.984375 17.96875 50.515625 8.265625 
Q 44.046875 -1.421875 31.78125 -1.421875 
Q 19.53125 -1.421875 13.0625 8.265625 
Q 6.59375 17.96875 6.59375 36.375 
Q 6.59375 54.828125 13.0625 64.515625 
Q 19.53125 74.21875 31.78125 74.21875 
" id="DejaVuSans-30"/>
      </defs>
      <g transform="translate(55.597762 322.182437)scale(0.1 -0.1)">
       <use xlink:href="#DejaVuSans-30"/>
      </g>
     </g>
    </g>
    <g id="xtick_2">
     <g id="line2d_3">
      <path clip-path="url(#p8d9defc4bc)" d="M 117.729616 307.584 
L 117.729616 41.472 
" style="fill:none;stroke:#b0b0b0;stroke-linecap:square;stroke-width:0.8;"/>
     </g>
     <g id="line2d_4">
      <g>
       <use style="stroke:#000000;stroke-width:0.8;" x="117.729616" xlink:href="#m645d6ea019" y="307.584"/>
      </g>
     </g>
     <g id="text_2">
      <!-- 50 -->
      <defs>
       <path d="M 10.796875 72.90625 
L 49.515625 72.90625 
L 49.515625 64.59375 
L 19.828125 64.59375 
L 19.828125 46.734375 
Q 21.96875 47.46875 24.109375 47.828125 
Q 26.265625 48.1875 28.421875 48.1875 
Q 40.625 48.1875 47.75 41.5 
Q 54.890625 34.8125 54.890625 23.390625 
Q 54.890625 11.625 47.5625 5.09375 
Q 40.234375 -1.421875 26.90625 -1.421875 
Q 22.3125 -1.421875 17.546875 -0.640625 
Q 12.796875 0.140625 7.71875 1.703125 
L 7.71875 11.625 
Q 12.109375 9.234375 16.796875 8.0625 
Q 21.484375 6.890625 26.703125 6.890625 
Q 35.15625 6.890625 40.078125 11.328125 
Q 45.015625 15.765625 45.015625 23.390625 
Q 45.015625 31 40.078125 35.4375 
Q 35.15625 39.890625 26.703125 39.890625 
Q 22.75 39.890625 18.8125 39.015625 
Q 14.890625 38.140625 10.796875 36.28125 
z
" id="DejaVuSans-35"/>
      </defs>
      <g transform="translate(111.367116 322.182437)scale(0.1 -0.1)">
       <use xlink:href="#DejaVuSans-35"/>
       <use x="63.623047" xlink:href="#DejaVuSans-30"/>
      </g>
     </g>
    </g>
    <g id="xtick_3">
     <g id="line2d_5">
      <path clip-path="url(#p8d9defc4bc)" d="M 176.680219 307.584 
L 176.680219 41.472 
" style="fill:none;stroke:#b0b0b0;stroke-linecap:square;stroke-width:0.8;"/>
     </g>
     <g id="line2d_6">
      <g>
       <use style="stroke:#000000;stroke-width:0.8;" x="176.680219" xlink:href="#m645d6ea019" y="307.584"/>
      </g>
     </g>
     <g id="text_3">
      <!-- 100 -->
      <defs>
       <path d="M 12.40625 8.296875 
L 28.515625 8.296875 
L 28.515625 63.921875 
L 10.984375 60.40625 
L 10.984375 69.390625 
L 28.421875 72.90625 
L 38.28125 72.90625 
L 38.28125 8.296875 
L 54.390625 8.296875 
L 54.390625 0 
L 12.40625 0 
z
" id="DejaVuSans-31"/>
      </defs>
      <g transform="translate(167.136469 322.182437)scale(0.1 -0.1)">
       <use xlink:href="#DejaVuSans-31"/>
       <use x="63.623047" xlink:href="#DejaVuSans-30"/>
       <use x="127.246094" xlink:href="#DejaVuSans-30"/>
      </g>
     </g>
    </g>
    <g id="xtick_4">
     <g id="line2d_7">
      <path clip-path="url(#p8d9defc4bc)" d="M 235.630823 307.584 
L 235.630823 41.472 
" style="fill:none;stroke:#b0b0b0;stroke-linecap:square;stroke-width:0.8;"/>
     </g>
     <g id="line2d_8">
      <g>
       <use style="stroke:#000000;stroke-width:0.8;" x="235.630823" xlink:href="#m645d6ea019" y="307.584"/>
      </g>
     </g>
     <g id="text_4">
      <!-- 150 -->
      <g transform="translate(226.087073 322.182437)scale(0.1 -0.1)">
       <use xlink:href="#DejaVuSans-31"/>
       <use x="63.623047" xlink:href="#DejaVuSans-35"/>
       <use x="127.246094" xlink:href="#DejaVuSans-30"/>
      </g>
     </g>
    </g>
    <g id="xtick_5">
     <g id="line2d_9">
      <path clip-path="url(#p8d9defc4bc)" d="M 294.581426 307.584 
L 294.581426 41.472 
" style="fill:none;stroke:#b0b0b0;stroke-linecap:square;stroke-width:0.8;"/>
     </g>
     <g id="line2d_10">
      <g>
       <use style="stroke:#000000;stroke-width:0.8;" x="294.581426" xlink:href="#m645d6ea019" y="307.584"/>
      </g>
     </g>
     <g id="text_5">
      <!-- 200 -->
      <defs>
       <path d="M 19.1875 8.296875 
L 53.609375 8.296875 
L 53.609375 0 
L 7.328125 0 
L 7.328125 8.296875 
Q 12.9375 14.109375 22.625 23.890625 
Q 32.328125 33.6875 34.8125 36.53125 
Q 39.546875 41.84375 41.421875 45.53125 
Q 43.3125 49.21875 43.3125 52.78125 
Q 43.3125 58.59375 39.234375 62.25 
Q 35.15625 65.921875 28.609375 65.921875 
Q 23.96875 65.921875 18.8125 64.3125 
Q 13.671875 62.703125 7.8125 59.421875 
L 7.8125 69.390625 
Q 13.765625 71.78125 18.9375 73 
Q 24.125 74.21875 28.421875 74.21875 
Q 39.75 74.21875 46.484375 68.546875 
Q 53.21875 62.890625 53.21875 53.421875 
Q 53.21875 48.921875 51.53125 44.890625 
Q 49.859375 40.875 45.40625 35.40625 
Q 44.1875 33.984375 37.640625 27.21875 
Q 31.109375 20.453125 19.1875 8.296875 
" id="DejaVuSans-32"/>
      </defs>
      <g transform="translate(285.037676 322.182437)scale(0.1 -0.1)">
       <use xlink:href="#DejaVuSans-32"/>
       <use x="63.623047" xlink:href="#DejaVuSans-30"/>
       <use x="127.246094" xlink:href="#DejaVuSans-30"/>
      </g>
     </g>
    </g>
    <g id="xtick_6">
     <g id="line2d_11">
      <path clip-path="url(#p8d9defc4bc)" d="M 353.53203 307.584 
L 353.53203 41.472 
" style="fill:none;stroke:#b0b0b0;stroke-linecap:square;stroke-width:0.8;"/>
     </g>
     <g id="line2d_12">
      <g>
       <use style="stroke:#000000;stroke-width:0.8;" x="353.53203" xlink:href="#m645d6ea019" y="307.584"/>
      </g>
     </g>
     <g id="text_6">
      <!-- 250 -->
      <g transform="translate(343.98828 322.182437)scale(0.1 -0.1)">
       <use xlink:href="#DejaVuSans-32"/>
       <use x="63.623047" xlink:href="#DejaVuSans-35"/>
       <use x="127.246094" xlink:href="#DejaVuSans-30"/>
      </g>
     </g>
    </g>
    <g id="xtick_7">
     <g id="line2d_13">
      <path clip-path="url(#p8d9defc4bc)" d="M 412.482633 307.584 
L 412.482633 41.472 
" style="fill:none;stroke:#b0b0b0;stroke-linecap:square;stroke-width:0.8;"/>
     </g>
     <g id="line2d_14">
      <g>
       <use style="stroke:#000000;stroke-width:0.8;" x="412.482633" xlink:href="#m645d6ea019" y="307.584"/>
      </g>
     </g>
     <g id="text_7">
      <!-- 300 -->
      <defs>
       <path d="M 40.578125 39.3125 
Q 47.65625 37.796875 51.625 33 
Q 55.609375 28.21875 55.609375 21.1875 
Q 55.609375 10.40625 48.1875 4.484375 
Q 40.765625 -1.421875 27.09375 -1.421875 
Q 22.515625 -1.421875 17.65625 -0.515625 
Q 12.796875 0.390625 7.625 2.203125 
L 7.625 11.71875 
Q 11.71875 9.328125 16.59375 8.109375 
Q 21.484375 6.890625 26.8125 6.890625 
Q 36.078125 6.890625 40.9375 10.546875 
Q 45.796875 14.203125 45.796875 21.1875 
Q 45.796875 27.640625 41.28125 31.265625 
Q 36.765625 34.90625 28.71875 34.90625 
L 20.21875 34.90625 
L 20.21875 43.015625 
L 29.109375 43.015625 
Q 36.375 43.015625 40.234375 45.921875 
Q 44.09375 48.828125 44.09375 54.296875 
Q 44.09375 59.90625 40.109375 62.90625 
Q 36.140625 65.921875 28.71875 65.921875 
Q 24.65625 65.921875 20.015625 65.03125 
Q 15.375 64.15625 9.8125 62.3125 
L 9.8125 71.09375 
Q 15.4375 72.65625 20.34375 73.4375 
Q 25.25 74.21875 29.59375 74.21875 
Q 40.828125 74.21875 47.359375 69.109375 
Q 53.90625 64.015625 53.90625 55.328125 
Q 53.90625 49.265625 50.4375 45.09375 
Q 46.96875 40.921875 40.578125 39.3125 
" id="DejaVuSans-33"/>
      </defs>
      <g transform="translate(402.938883 322.182437)scale(0.1 -0.1)">
       <use xlink:href="#DejaVuSans-33"/>
       <use x="63.623047" xlink:href="#DejaVuSans-30"/>
       <use x="127.246094" xlink:href="#DejaVuSans-30"/>
      </g>
     </g>
    </g>
    <g id="text_8">
     <!-- $\gamma_i$ -->
     <defs>
      <path d="M 23.296875 46.09375 
L 28.71875 12.3125 
L 54 54.6875 
L 63.53125 54.6875 
L 30.8125 0 
L 26.765625 -20.796875 
L 17.78125 -20.796875 
L 21.828125 0 
L 15.4375 40.828125 
Q 14.453125 46.96875 9.8125 46.96875 
L 7.421875 46.96875 
L 8.890625 54.6875 
L 12.3125 54.6875 
Q 21.921875 54.6875 23.296875 46.09375 
" id="DejaVuSans-Oblique-3b3"/>
      <path d="M 18.3125 75.984375 
L 27.296875 75.984375 
L 25.09375 64.59375 
L 16.109375 64.59375 
z
M 14.203125 54.6875 
L 23.1875 54.6875 
L 12.5 0 
L 3.515625 0 
z
" id="DejaVuSans-Oblique-69"/>
     </defs>
     <g transform="translate(232.06 335.84025)scale(0.1 -0.1)">
      <use transform="translate(0 0.3125)" xlink:href="#DejaVuSans-Oblique-3b3"/>
      <use transform="translate(59.179688 -16.09375)scale(0.7)" xlink:href="#DejaVuSans-Oblique-69"/>
     </g>
    </g>
   </g>
   <g id="matplotlib.axis_2">
    <g id="ytick_1">
     <g id="line2d_15">
      <path clip-path="url(#p8d9defc4bc)" d="M 57.6 308.016229 
L 414.72 308.016229 
" style="fill:none;stroke:#b0b0b0;stroke-linecap:square;stroke-width:0.8;"/>
     </g>
     <g id="line2d_16">
      <defs>
       <path d="M 0 0 
L -3.5 0 
" id="m4354a966a7" style="stroke:#000000;stroke-width:0.8;"/>
      </defs>
      <g>
       <use style="stroke:#000000;stroke-width:0.8;" x="57.6" xlink:href="#m4354a966a7" y="308.016229"/>
      </g>
     </g>
     <g id="text_9">
      <!-- ${10^{-136}}$ -->
      <defs>
       <path d="M 10.59375 35.5 
L 73.1875 35.5 
L 73.1875 27.203125 
L 10.59375 27.203125 
z
" id="DejaVuSans-2212"/>
       <path d="M 33.015625 40.375 
Q 26.375 40.375 22.484375 35.828125 
Q 18.609375 31.296875 18.609375 23.390625 
Q 18.609375 15.53125 22.484375 10.953125 
Q 26.375 6.390625 33.015625 6.390625 
Q 39.65625 6.390625 43.53125 10.953125 
Q 47.40625 15.53125 47.40625 23.390625 
Q 47.40625 31.296875 43.53125 35.828125 
Q 39.65625 40.375 33.015625 40.375 
M 52.59375 71.296875 
L 52.59375 62.3125 
Q 48.875 64.0625 45.09375 64.984375 
Q 41.3125 65.921875 37.59375 65.921875 
Q 27.828125 65.921875 22.671875 59.328125 
Q 17.53125 52.734375 16.796875 39.40625 
Q 19.671875 43.65625 24.015625 45.921875 
Q 28.375 48.1875 33.59375 48.1875 
Q 44.578125 48.1875 50.953125 41.515625 
Q 57.328125 34.859375 57.328125 23.390625 
Q 57.328125 12.15625 50.6875 5.359375 
Q 44.046875 -1.421875 33.015625 -1.421875 
Q 20.359375 -1.421875 13.671875 8.265625 
Q 6.984375 17.96875 6.984375 36.375 
Q 6.984375 53.65625 15.1875 63.9375 
Q 23.390625 74.21875 37.203125 74.21875 
Q 40.921875 74.21875 44.703125 73.484375 
Q 48.484375 72.75 52.59375 71.296875 
" id="DejaVuSans-36"/>
      </defs>
      <g transform="translate(18.2 311.815448)scale(0.1 -0.1)">
       <use transform="translate(0 0.765625)" xlink:href="#DejaVuSans-31"/>
       <use transform="translate(63.623047 0.765625)" xlink:href="#DejaVuSans-30"/>
       <use transform="translate(128.203125 39.046875)scale(0.7)" xlink:href="#DejaVuSans-2212"/>
       <use transform="translate(186.855469 39.046875)scale(0.7)" xlink:href="#DejaVuSans-31"/>
       <use transform="translate(231.391602 39.046875)scale(0.7)" xlink:href="#DejaVuSans-33"/>
       <use transform="translate(275.927734 39.046875)scale(0.7)" xlink:href="#DejaVuSans-36"/>
      </g>
     </g>
    </g>
    <g id="ytick_2">
     <g id="line2d_17">
      <path clip-path="url(#p8d9defc4bc)" d="M 57.6 277.893777 
L 414.72 277.893777 
" style="fill:none;stroke:#b0b0b0;stroke-linecap:square;stroke-width:0.8;"/>
     </g>
     <g id="line2d_18">
      <g>
       <use style="stroke:#000000;stroke-width:0.8;" x="57.6" xlink:href="#m4354a966a7" y="277.893777"/>
      </g>
     </g>
     <g id="text_10">
      <!-- ${10^{-120}}$ -->
      <g transform="translate(18.2 281.692995)scale(0.1 -0.1)">
       <use transform="translate(0 0.765625)" xlink:href="#DejaVuSans-31"/>
       <use transform="translate(63.623047 0.765625)" xlink:href="#DejaVuSans-30"/>
       <use transform="translate(128.203125 39.046875)scale(0.7)" xlink:href="#DejaVuSans-2212"/>
       <use transform="translate(186.855469 39.046875)scale(0.7)" xlink:href="#DejaVuSans-31"/>
       <use transform="translate(231.391602 39.046875)scale(0.7)" xlink:href="#DejaVuSans-32"/>
       <use transform="translate(275.927734 39.046875)scale(0.7)" xlink:href="#DejaVuSans-30"/>
      </g>
     </g>
    </g>
    <g id="ytick_3">
     <g id="line2d_19">
      <path clip-path="url(#p8d9defc4bc)" d="M 57.6 247.771324 
L 414.72 247.771324 
" style="fill:none;stroke:#b0b0b0;stroke-linecap:square;stroke-width:0.8;"/>
     </g>
     <g id="line2d_20">
      <g>
       <use style="stroke:#000000;stroke-width:0.8;" x="57.6" xlink:href="#m4354a966a7" y="247.771324"/>
      </g>
     </g>
     <g id="text_11">
      <!-- ${10^{-104}}$ -->
      <defs>
       <path d="M 37.796875 64.3125 
L 12.890625 25.390625 
L 37.796875 25.390625 
z
M 35.203125 72.90625 
L 47.609375 72.90625 
L 47.609375 25.390625 
L 58.015625 25.390625 
L 58.015625 17.1875 
L 47.609375 17.1875 
L 47.609375 0 
L 37.796875 0 
L 37.796875 17.1875 
L 4.890625 17.1875 
L 4.890625 26.703125 
z
" id="DejaVuSans-34"/>
      </defs>
      <g transform="translate(18.2 251.570543)scale(0.1 -0.1)">
       <use transform="translate(0 0.765625)" xlink:href="#DejaVuSans-31"/>
       <use transform="translate(63.623047 0.765625)" xlink:href="#DejaVuSans-30"/>
       <use transform="translate(128.203125 39.046875)scale(0.7)" xlink:href="#DejaVuSans-2212"/>
       <use transform="translate(186.855469 39.046875)scale(0.7)" xlink:href="#DejaVuSans-31"/>
       <use transform="translate(231.391602 39.046875)scale(0.7)" xlink:href="#DejaVuSans-30"/>
       <use transform="translate(275.927734 39.046875)scale(0.7)" xlink:href="#DejaVuSans-34"/>
      </g>
     </g>
    </g>
    <g id="ytick_4">
     <g id="line2d_21">
      <path clip-path="url(#p8d9defc4bc)" d="M 57.6 217.648872 
L 414.72 217.648872 
" style="fill:none;stroke:#b0b0b0;stroke-linecap:square;stroke-width:0.8;"/>
     </g>
     <g id="line2d_22">
      <g>
       <use style="stroke:#000000;stroke-width:0.8;" x="57.6" xlink:href="#m4354a966a7" y="217.648872"/>
      </g>
     </g>
     <g id="text_12">
      <!-- ${10^{-88}}$ -->
      <defs>
       <path d="M 31.78125 34.625 
Q 24.75 34.625 20.71875 30.859375 
Q 16.703125 27.09375 16.703125 20.515625 
Q 16.703125 13.921875 20.71875 10.15625 
Q 24.75 6.390625 31.78125 6.390625 
Q 38.8125 6.390625 42.859375 10.171875 
Q 46.921875 13.96875 46.921875 20.515625 
Q 46.921875 27.09375 42.890625 30.859375 
Q 38.875 34.625 31.78125 34.625 
M 21.921875 38.8125 
Q 15.578125 40.375 12.03125 44.71875 
Q 8.5 49.078125 8.5 55.328125 
Q 8.5 64.0625 14.71875 69.140625 
Q 20.953125 74.21875 31.78125 74.21875 
Q 42.671875 74.21875 48.875 69.140625 
Q 55.078125 64.0625 55.078125 55.328125 
Q 55.078125 49.078125 51.53125 44.71875 
Q 48 40.375 41.703125 38.8125 
Q 48.828125 37.15625 52.796875 32.3125 
Q 56.78125 27.484375 56.78125 20.515625 
Q 56.78125 9.90625 50.3125 4.234375 
Q 43.84375 -1.421875 31.78125 -1.421875 
Q 19.734375 -1.421875 13.25 4.234375 
Q 6.78125 9.90625 6.78125 20.515625 
Q 6.78125 27.484375 10.78125 32.3125 
Q 14.796875 37.15625 21.921875 38.8125 
M 18.3125 54.390625 
Q 18.3125 48.734375 21.84375 45.5625 
Q 25.390625 42.390625 31.78125 42.390625 
Q 38.140625 42.390625 41.71875 45.5625 
Q 45.3125 48.734375 45.3125 54.390625 
Q 45.3125 60.0625 41.71875 63.234375 
Q 38.140625 66.40625 31.78125 66.40625 
Q 25.390625 66.40625 21.84375 63.234375 
Q 18.3125 60.0625 18.3125 54.390625 
" id="DejaVuSans-38"/>
      </defs>
      <g transform="translate(22.7 221.448091)scale(0.1 -0.1)">
       <use transform="translate(0 0.765625)" xlink:href="#DejaVuSans-31"/>
       <use transform="translate(63.623047 0.765625)" xlink:href="#DejaVuSans-30"/>
       <use transform="translate(128.203125 39.046875)scale(0.7)" xlink:href="#DejaVuSans-2212"/>
       <use transform="translate(186.855469 39.046875)scale(0.7)" xlink:href="#DejaVuSans-38"/>
       <use transform="translate(231.391602 39.046875)scale(0.7)" xlink:href="#DejaVuSans-38"/>
      </g>
     </g>
    </g>
    <g id="ytick_5">
     <g id="line2d_23">
      <path clip-path="url(#p8d9defc4bc)" d="M 57.6 187.52642 
L 414.72 187.52642 
" style="fill:none;stroke:#b0b0b0;stroke-linecap:square;stroke-width:0.8;"/>
     </g>
     <g id="line2d_24">
      <g>
       <use style="stroke:#000000;stroke-width:0.8;" x="57.6" xlink:href="#m4354a966a7" y="187.52642"/>
      </g>
     </g>
     <g id="text_13">
      <!-- ${10^{-72}}$ -->
      <defs>
       <path d="M 8.203125 72.90625 
L 55.078125 72.90625 
L 55.078125 68.703125 
L 28.609375 0 
L 18.3125 0 
L 43.21875 64.59375 
L 8.203125 64.59375 
z
" id="DejaVuSans-37"/>
      </defs>
      <g transform="translate(22.7 191.325639)scale(0.1 -0.1)">
       <use transform="translate(0 0.765625)" xlink:href="#DejaVuSans-31"/>
       <use transform="translate(63.623047 0.765625)" xlink:href="#DejaVuSans-30"/>
       <use transform="translate(128.203125 39.046875)scale(0.7)" xlink:href="#DejaVuSans-2212"/>
       <use transform="translate(186.855469 39.046875)scale(0.7)" xlink:href="#DejaVuSans-37"/>
       <use transform="translate(231.391602 39.046875)scale(0.7)" xlink:href="#DejaVuSans-32"/>
      </g>
     </g>
    </g>
    <g id="ytick_6">
     <g id="line2d_25">
      <path clip-path="url(#p8d9defc4bc)" d="M 57.6 157.403968 
L 414.72 157.403968 
" style="fill:none;stroke:#b0b0b0;stroke-linecap:square;stroke-width:0.8;"/>
     </g>
     <g id="line2d_26">
      <g>
       <use style="stroke:#000000;stroke-width:0.8;" x="57.6" xlink:href="#m4354a966a7" y="157.403968"/>
      </g>
     </g>
     <g id="text_14">
      <!-- ${10^{-56}}$ -->
      <g transform="translate(22.7 161.203186)scale(0.1 -0.1)">
       <use transform="translate(0 0.765625)" xlink:href="#DejaVuSans-31"/>
       <use transform="translate(63.623047 0.765625)" xlink:href="#DejaVuSans-30"/>
       <use transform="translate(128.203125 39.046875)scale(0.7)" xlink:href="#DejaVuSans-2212"/>
       <use transform="translate(186.855469 39.046875)scale(0.7)" xlink:href="#DejaVuSans-35"/>
       <use transform="translate(231.391602 39.046875)scale(0.7)" xlink:href="#DejaVuSans-36"/>
      </g>
     </g>
    </g>
    <g id="ytick_7">
     <g id="line2d_27">
      <path clip-path="url(#p8d9defc4bc)" d="M 57.6 127.281515 
L 414.72 127.281515 
" style="fill:none;stroke:#b0b0b0;stroke-linecap:square;stroke-width:0.8;"/>
     </g>
     <g id="line2d_28">
      <g>
       <use style="stroke:#000000;stroke-width:0.8;" x="57.6" xlink:href="#m4354a966a7" y="127.281515"/>
      </g>
     </g>
     <g id="text_15">
      <!-- ${10^{-40}}$ -->
      <g transform="translate(22.7 131.080734)scale(0.1 -0.1)">
       <use transform="translate(0 0.765625)" xlink:href="#DejaVuSans-31"/>
       <use transform="translate(63.623047 0.765625)" xlink:href="#DejaVuSans-30"/>
       <use transform="translate(128.203125 39.046875)scale(0.7)" xlink:href="#DejaVuSans-2212"/>
       <use transform="translate(186.855469 39.046875)scale(0.7)" xlink:href="#DejaVuSans-34"/>
       <use transform="translate(231.391602 39.046875)scale(0.7)" xlink:href="#DejaVuSans-30"/>
      </g>
     </g>
    </g>
    <g id="ytick_8">
     <g id="line2d_29">
      <path clip-path="url(#p8d9defc4bc)" d="M 57.6 97.159063 
L 414.72 97.159063 
" style="fill:none;stroke:#b0b0b0;stroke-linecap:square;stroke-width:0.8;"/>
     </g>
     <g id="line2d_30">
      <g>
       <use style="stroke:#000000;stroke-width:0.8;" x="57.6" xlink:href="#m4354a966a7" y="97.159063"/>
      </g>
     </g>
     <g id="text_16">
      <!-- ${10^{-24}}$ -->
      <g transform="translate(22.7 100.958282)scale(0.1 -0.1)">
       <use transform="translate(0 0.765625)" xlink:href="#DejaVuSans-31"/>
       <use transform="translate(63.623047 0.765625)" xlink:href="#DejaVuSans-30"/>
       <use transform="translate(128.203125 39.046875)scale(0.7)" xlink:href="#DejaVuSans-2212"/>
       <use transform="translate(186.855469 39.046875)scale(0.7)" xlink:href="#DejaVuSans-32"/>
       <use transform="translate(231.391602 39.046875)scale(0.7)" xlink:href="#DejaVuSans-34"/>
      </g>
     </g>
    </g>
    <g id="ytick_9">
     <g id="line2d_31">
      <path clip-path="url(#p8d9defc4bc)" d="M 57.6 67.036611 
L 414.72 67.036611 
" style="fill:none;stroke:#b0b0b0;stroke-linecap:square;stroke-width:0.8;"/>
     </g>
     <g id="line2d_32">
      <g>
       <use style="stroke:#000000;stroke-width:0.8;" x="57.6" xlink:href="#m4354a966a7" y="67.036611"/>
      </g>
     </g>
     <g id="text_17">
      <!-- ${10^{-8}}$ -->
      <g transform="translate(27.1 70.83583)scale(0.1 -0.1)">
       <use transform="translate(0 0.765625)" xlink:href="#DejaVuSans-31"/>
       <use transform="translate(63.623047 0.765625)" xlink:href="#DejaVuSans-30"/>
       <use transform="translate(128.203125 39.046875)scale(0.7)" xlink:href="#DejaVuSans-2212"/>
       <use transform="translate(186.855469 39.046875)scale(0.7)" xlink:href="#DejaVuSans-38"/>
      </g>
     </g>
    </g>
    <g id="text_18">
     <!-- $\omega_i$ -->
     <defs>
      <path d="M 21.390625 -1.421875 
Q 1.125 -1.421875 6.78125 27.59375 
Q 8.984375 39.0625 19.625 54.6875 
L 29.296875 54.6875 
Q 19.234375 39.0625 17 27.34375 
Q 12.796875 6.203125 23.734375 6.203125 
Q 33.84375 6.203125 38.71875 32.46875 
L 47.015625 32.46875 
Q 41.703125 6.0625 51.8125 6.203125 
Q 62.703125 6.296875 66.796875 27.34375 
Q 69.046875 39.0625 65.140625 54.6875 
L 74.8125 54.6875 
Q 79.296875 39.0625 77.09375 27.59375 
Q 71.53125 -1.46875 51.21875 -1.421875 
Q 37.9375 -1.375 39.109375 13.1875 
Q 34.28125 -1.421875 21.390625 -1.421875 
" id="DejaVuSans-Oblique-3c9"/>
     </defs>
     <g transform="translate(12.120313 179.828)rotate(-90)scale(0.1 -0.1)">
      <use transform="translate(0 0.3125)" xlink:href="#DejaVuSans-Oblique-3c9"/>
      <use transform="translate(83.740234 -16.09375)scale(0.7)" xlink:href="#DejaVuSans-Oblique-69"/>
     </g>
    </g>
   </g>
   <g id="line2d_33">
    <defs>
     <path d="M 0 3 
C 0.795609 3 1.55874 2.683901 2.12132 2.12132 
C 2.683901 1.55874 3 0.795609 3 0 
C 3 -0.795609 2.683901 -1.55874 2.12132 -2.12132 
C 1.55874 -2.683901 0.795609 -3 0 -3 
C -0.795609 -3 -1.55874 -2.683901 -2.12132 -2.12132 
C -2.683901 -1.55874 -3 -0.795609 -3 0 
C -3 0.795609 -2.683901 1.55874 -2.12132 2.12132 
C -1.55874 2.683901 -0.795609 3 0 3 
z
" id="m405c13096d" style="stroke:#1f77b4;"/>
    </defs>
    <g clip-path="url(#p8d9defc4bc)">
     <use style="fill:#1f77b4;stroke:#1f77b4;" x="413.540988" xlink:href="#m405c13096d" y="295.488"/>
     <use style="fill:#1f77b4;stroke:#1f77b4;" x="359.821362" xlink:href="#m405c13096d" y="258.716246"/>
     <use style="fill:#1f77b4;stroke:#1f77b4;" x="374.747473" xlink:href="#m405c13096d" y="268.96716"/>
     <use style="fill:#1f77b4;stroke:#1f77b4;" x="346.434396" xlink:href="#m405c13096d" y="249.511932"/>
     <use style="fill:#1f77b4;stroke:#1f77b4;" x="81.134658" xlink:href="#m405c13096d" y="67.116328"/>
     <use style="fill:#1f77b4;stroke:#1f77b4;" x="83.011703" xlink:href="#m405c13096d" y="68.382611"/>
     <use style="fill:#1f77b4;stroke:#1f77b4;" x="75.987711" xlink:href="#m405c13096d" y="63.662209"/>
     <use style="fill:#1f77b4;stroke:#1f77b4;" x="118.330922" xlink:href="#m405c13096d" y="92.464932"/>
     <use style="fill:#1f77b4;stroke:#1f77b4;" x="244.144478" xlink:href="#m405c13096d" y="179.049884"/>
     <use style="fill:#1f77b4;stroke:#1f77b4;" x="183.610997" xlink:href="#m405c13096d" y="137.341114"/>
     <use style="fill:#1f77b4;stroke:#1f77b4;" x="109.261536" xlink:href="#m405c13096d" y="86.254351"/>
     <use style="fill:#1f77b4;stroke:#1f77b4;" x="147.080929" xlink:href="#m405c13096d" y="112.203536"/>
     <use style="fill:#1f77b4;stroke:#1f77b4;" x="205.480593" xlink:href="#m405c13096d" y="152.405327"/>
     <use style="fill:#1f77b4;stroke:#1f77b4;" x="89.136037" xlink:href="#m405c13096d" y="72.530038"/>
     <use style="fill:#1f77b4;stroke:#1f77b4;" x="151.185825" xlink:href="#m405c13096d" y="115.025919"/>
     <use style="fill:#1f77b4;stroke:#1f77b4;" x="69.672243" xlink:href="#m405c13096d" y="60.102834"/>
     <use style="fill:#1f77b4;stroke:#1f77b4;" x="103.691329" xlink:href="#m405c13096d" y="82.446144"/>
     <use style="fill:#1f77b4;stroke:#1f77b4;" x="131.833756" xlink:href="#m405c13096d" y="101.727943"/>
     <use style="fill:#1f77b4;stroke:#1f77b4;" x="266.882509" xlink:href="#m405c13096d" y="194.721449"/>
     <use style="fill:#1f77b4;stroke:#1f77b4;" x="106.429913" xlink:href="#m405c13096d" y="84.317756"/>
     <use style="fill:#1f77b4;stroke:#1f77b4;" x="74.433173" xlink:href="#m405c13096d" y="62.62702"/>
     <use style="fill:#1f77b4;stroke:#1f77b4;" x="121.551496" xlink:href="#m405c13096d" y="94.672719"/>
     <use style="fill:#1f77b4;stroke:#1f77b4;" x="217.503976" xlink:href="#m405c13096d" y="160.689919"/>
     <use style="fill:#1f77b4;stroke:#1f77b4;" x="91.344797" xlink:href="#m405c13096d" y="74.03039"/>
     <use style="fill:#1f77b4;stroke:#1f77b4;" x="124.874045" xlink:href="#m405c13096d" y="96.9515"/>
     <use style="fill:#1f77b4;stroke:#1f77b4;" x="77.623013" xlink:href="#m405c13096d" y="64.75608"/>
     <use style="fill:#1f77b4;stroke:#1f77b4;" x="334.183922" xlink:href="#m405c13096d" y="241.08288"/>
     <use style="fill:#1f77b4;stroke:#1f77b4;" x="391.986513" xlink:href="#m405c13096d" y="280.782831"/>
     <use style="fill:#1f77b4;stroke:#1f77b4;" x="112.187777" xlink:href="#m405c13096d" y="88.256985"/>
     <use style="fill:#1f77b4;stroke:#1f77b4;" x="164.257748" xlink:href="#m405c13096d" y="124.018244"/>
     <use style="fill:#1f77b4;stroke:#1f77b4;" x="188.826503" xlink:href="#m405c13096d" y="140.932946"/>
     <use style="fill:#1f77b4;stroke:#1f77b4;" x="322.82632" xlink:href="#m405c13096d" y="233.26426"/>
     <use style="fill:#1f77b4;stroke:#1f77b4;" x="71.584614" xlink:href="#m405c13096d" y="60.763948"/>
     <use style="fill:#1f77b4;stroke:#1f77b4;" x="63.757856" xlink:href="#m405c13096d" y="55.700404"/>
     <use style="fill:#1f77b4;stroke:#1f77b4;" x="115.210313" xlink:href="#m405c13096d" y="90.326779"/>
     <use style="fill:#1f77b4;stroke:#1f77b4;" x="237.126639" xlink:href="#m405c13096d" y="174.213072"/>
     <use style="fill:#1f77b4;stroke:#1f77b4;" x="64.637592" xlink:href="#m405c13096d" y="56.245543"/>
     <use style="fill:#1f77b4;stroke:#1f77b4;" x="60.54097" xlink:href="#m405c13096d" y="54.046468"/>
     <use style="fill:#1f77b4;stroke:#1f77b4;" x="275.104685" xlink:href="#m405c13096d" y="200.388032"/>
     <use style="fill:#1f77b4;stroke:#1f77b4;" x="251.42872" xlink:href="#m405c13096d" y="184.070389"/>
     <use style="fill:#1f77b4;stroke:#1f77b4;" x="87.011558" xlink:href="#m405c13096d" y="71.088997"/>
     <use style="fill:#1f77b4;stroke:#1f77b4;" x="143.096345" xlink:href="#m405c13096d" y="109.464644"/>
     <use style="fill:#1f77b4;stroke:#1f77b4;" x="66.608108" xlink:href="#m405c13096d" y="57.496566"/>
     <use style="fill:#1f77b4;stroke:#1f77b4;" x="62.307484" xlink:href="#m405c13096d" y="54.258667"/>
     <use style="fill:#1f77b4;stroke:#1f77b4;" x="72.961868" xlink:href="#m405c13096d" y="61.654545"/>
     <use style="fill:#1f77b4;stroke:#1f77b4;" x="312.199828" xlink:href="#m405c13096d" y="225.946314"/>
     <use style="fill:#1f77b4;stroke:#1f77b4;" x="230.357346" xlink:href="#m405c13096d" y="169.547711"/>
     <use style="fill:#1f77b4;stroke:#1f77b4;" x="62.941998" xlink:href="#m405c13096d" y="55.181011"/>
     <use style="fill:#1f77b4;stroke:#1f77b4;" x="96.019348" xlink:href="#m405c13096d" y="77.211638"/>
     <use style="fill:#1f77b4;stroke:#1f77b4;" x="67.69187" xlink:href="#m405c13096d" y="58.205659"/>
     <use style="fill:#1f77b4;stroke:#1f77b4;" x="194.205066" xlink:href="#m405c13096d" y="144.637582"/>
     <use style="fill:#1f77b4;stroke:#1f77b4;" x="168.880654" xlink:href="#m405c13096d" y="127.199778"/>
     <use style="fill:#1f77b4;stroke:#1f77b4;" x="292.711977" xlink:href="#m405c13096d" y="212.521189"/>
     <use style="fill:#1f77b4;stroke:#1f77b4;" x="70.377505" xlink:href="#m405c13096d" y="60.139808"/>
     <use style="fill:#1f77b4;stroke:#1f77b4;" x="128.300705" xlink:href="#m405c13096d" y="99.302726"/>
     <use style="fill:#1f77b4;stroke:#1f77b4;" x="101.044295" xlink:href="#m405c13096d" y="80.638528"/>
     <use style="fill:#1f77b4;stroke:#1f77b4;" x="59.545309" xlink:href="#m405c13096d" y="53.608097"/>
     <use style="fill:#1f77b4;stroke:#1f77b4;" x="98.487409" xlink:href="#m405c13096d" y="78.893981"/>
     <use style="fill:#1f77b4;stroke:#1f77b4;" x="68.805043" xlink:href="#m405c13096d" y="58.996715"/>
     <use style="fill:#1f77b4;stroke:#1f77b4;" x="59.263637" xlink:href="#m405c13096d" y="53.568"/>
     <use style="fill:#1f77b4;stroke:#1f77b4;" x="61.592658" xlink:href="#m405c13096d" y="54.449369"/>
     <use style="fill:#1f77b4;stroke:#1f77b4;" x="173.643758" xlink:href="#m405c13096d" y="130.478431"/>
     <use style="fill:#1f77b4;stroke:#1f77b4;" x="59.041751" xlink:href="#m405c13096d" y="53.653318"/>
     <use style="fill:#1f77b4;stroke:#1f77b4;" x="61.016724" xlink:href="#m405c13096d" y="54.182209"/>
     <use style="fill:#1f77b4;stroke:#1f77b4;" x="223.821021" xlink:href="#m405c13096d" y="165.043123"/>
     <use style="fill:#1f77b4;stroke:#1f77b4;" x="79.338597" xlink:href="#m405c13096d" y="65.907529"/>
     <use style="fill:#1f77b4;stroke:#1f77b4;" x="135.475622" xlink:href="#m405c13096d" y="104.228805"/>
     <use style="fill:#1f77b4;stroke:#1f77b4;" x="302.189988" xlink:href="#m405c13096d" y="219.051214"/>
     <use style="fill:#1f77b4;stroke:#1f77b4;" x="178.552059" xlink:href="#m405c13096d" y="133.857632"/>
     <use style="fill:#1f77b4;stroke:#1f77b4;" x="59.864825" xlink:href="#m405c13096d" y="53.786499"/>
     <use style="fill:#1f77b4;stroke:#1f77b4;" x="259.000022" xlink:href="#m405c13096d" y="189.288737"/>
     <use style="fill:#1f77b4;stroke:#1f77b4;" x="211.394095" xlink:href="#m405c13096d" y="156.479787"/>
     <use style="fill:#1f77b4;stroke:#1f77b4;" x="139.228896" xlink:href="#m405c13096d" y="106.807075"/>
     <use style="fill:#1f77b4;stroke:#1f77b4;" x="65.587976" xlink:href="#m405c13096d" y="56.84373"/>
     <use style="fill:#1f77b4;stroke:#1f77b4;" x="93.638868" xlink:href="#m405c13096d" y="75.590692"/>
     <use style="fill:#1f77b4;stroke:#1f77b4;" x="84.970407" xlink:href="#m405c13096d" y="69.706692"/>
     <use style="fill:#1f77b4;stroke:#1f77b4;" x="58.799401" xlink:href="#m405c13096d" y="54.536672"/>
     <use style="fill:#1f77b4;stroke:#1f77b4;" x="62.381346" xlink:href="#m405c13096d" y="54.781207"/>
     <use style="fill:#1f77b4;stroke:#1f77b4;" x="199.753812" xlink:href="#m405c13096d" y="148.459913"/>
     <use style="fill:#1f77b4;stroke:#1f77b4;" x="58.886276" xlink:href="#m405c13096d" y="53.90872"/>
     <use style="fill:#1f77b4;stroke:#1f77b4;" x="159.770429" xlink:href="#m405c13096d" y="120.930667"/>
     <use style="fill:#1f77b4;stroke:#1f77b4;" x="60.180777" xlink:href="#m405c13096d" y="54.019816"/>
     <use style="fill:#1f77b4;stroke:#1f77b4;" x="155.414437" xlink:href="#m405c13096d" y="117.934127"/>
     <use style="fill:#1f77b4;stroke:#1f77b4;" x="283.700676" xlink:href="#m405c13096d" y="206.311826"/>
    </g>
   </g>
   <g id="patch_3">
    <path d="M 57.6 307.584 
L 57.6 41.472 
" style="fill:none;stroke:#000000;stroke-linecap:square;stroke-linejoin:miter;stroke-width:0.8;"/>
   </g>
   <g id="patch_4">
    <path d="M 414.72 307.584 
L 414.72 41.472 
" style="fill:none;stroke:#000000;stroke-linecap:square;stroke-linejoin:miter;stroke-width:0.8;"/>
   </g>
   <g id="patch_5">
    <path d="M 57.6 307.584 
L 414.72 307.584 
" style="fill:none;stroke:#000000;stroke-linecap:square;stroke-linejoin:miter;stroke-width:0.8;"/>
   </g>
   <g id="patch_6">
    <path d="M 57.6 41.472 
L 414.72 41.472 
" style="fill:none;stroke:#000000;stroke-linecap:square;stroke-linejoin:miter;stroke-width:0.8;"/>
   </g>
  </g>
 </g>
 <defs>
  <clipPath id="p8d9defc4bc">
   <rect height="266.112" width="357.12" x="57.6" y="41.472"/>
  </clipPath>
 </defs>
</svg>
