<?xml version="1.0" encoding="utf-8" standalone="no"?>
<!DOCTYPE svg PUBLIC "-//W3C//DTD SVG 1.1//EN"
  "http://www.w3.org/Graphics/SVG/1.1/DTD/svg11.dtd">
<!-- Created with matplotlib (http://matplotlib.org/) -->
<svg height="345pt" version="1.1" viewBox="0 0 460 345" width="460pt" xmlns="http://www.w3.org/2000/svg" xmlns:xlink="http://www.w3.org/1999/xlink">
 <defs>
  <style type="text/css">
*{stroke-linecap:butt;stroke-linejoin:round;}
  </style>
 </defs>
 <g id="figure_1">
  <g id="patch_1">
   <path d="M 0 345.6 
L 460.8 345.6 
L 460.8 0 
L 0 0 
z
" style="fill:#ffffff;"/>
  </g>
  <g id="axes_1">
   <g id="patch_2">
    <path d="M 57.6 307.584 
L 414.72 307.584 
L 414.72 41.472 
L 57.6 41.472 
z
" style="fill:#ffffff;"/>
   </g>
   <g id="matplotlib.axis_1">
    <g id="xtick_1">
     <g id="line2d_1">
      <path clip-path="url(#p68351a3786)" d="M 58.550016 307.584 
L 58.550016 41.472 
" style="fill:none;stroke:#b0b0b0;stroke-linecap:square;stroke-width:0.8;"/>
     </g>
     <g id="line2d_2">
      <defs>
       <path d="M 0 0 
L 0 3.5 
" id="m7b7284b022" style="stroke:#000000;stroke-width:0.8;"/>
      </defs>
      <g>
       <use style="stroke:#000000;stroke-width:0.8;" x="58.550016" xlink:href="#m7b7284b022" y="307.584"/>
      </g>
     </g>
     <g id="text_1">
      <!-- 0 -->
      <defs>
       <path d="M 31.78125 66.40625 
Q 24.171875 66.40625 20.328125 58.90625 
Q 16.5 51.421875 16.5 36.375 
Q 16.5 21.390625 20.328125 13.890625 
Q 24.171875 6.390625 31.78125 6.390625 
Q 39.453125 6.390625 43.28125 13.890625 
Q 47.125 21.390625 47.125 36.375 
Q 47.125 51.421875 43.28125 58.90625 
Q 39.453125 66.40625 31.78125 66.40625 
M 31.78125 74.21875 
Q 44.046875 74.21875 50.515625 64.515625 
Q 56.984375 54.828125 56.984375 36.375 
Q 56.984375 17.96875 50.515625 8.265625 
Q 44.046875 -1.421875 31.78125 -1.421875 
Q 19.53125 -1.421875 13.0625 8.265625 
Q 6.59375 17.96875 6.59375 36.375 
Q 6.59375 54.828125 13.0625 64.515625 
Q 19.53125 74.21875 31.78125 74.21875 
" id="DejaVuSans-30"/>
      </defs>
      <g transform="translate(55.368766 322.182437)scale(0.1 -0.1)">
       <use xlink:href="#DejaVuSans-30"/>
      </g>
     </g>
    </g>
    <g id="xtick_2">
     <g id="line2d_3">
      <path clip-path="url(#p68351a3786)" d="M 106.050837 307.584 
L 106.050837 41.472 
" style="fill:none;stroke:#b0b0b0;stroke-linecap:square;stroke-width:0.8;"/>
     </g>
     <g id="line2d_4">
      <g>
       <use style="stroke:#000000;stroke-width:0.8;" x="106.050837" xlink:href="#m7b7284b022" y="307.584"/>
      </g>
     </g>
     <g id="text_2">
      <!-- 50 -->
      <defs>
       <path d="M 10.796875 72.90625 
L 49.515625 72.90625 
L 49.515625 64.59375 
L 19.828125 64.59375 
L 19.828125 46.734375 
Q 21.96875 47.46875 24.109375 47.828125 
Q 26.265625 48.1875 28.421875 48.1875 
Q 40.625 48.1875 47.75 41.5 
Q 54.890625 34.8125 54.890625 23.390625 
Q 54.890625 11.625 47.5625 5.09375 
Q 40.234375 -1.421875 26.90625 -1.421875 
Q 22.3125 -1.421875 17.546875 -0.640625 
Q 12.796875 0.140625 7.71875 1.703125 
L 7.71875 11.625 
Q 12.109375 9.234375 16.796875 8.0625 
Q 21.484375 6.890625 26.703125 6.890625 
Q 35.15625 6.890625 40.078125 11.328125 
Q 45.015625 15.765625 45.015625 23.390625 
Q 45.015625 31 40.078125 35.4375 
Q 35.15625 39.890625 26.703125 39.890625 
Q 22.75 39.890625 18.8125 39.015625 
Q 14.890625 38.140625 10.796875 36.28125 
z
" id="DejaVuSans-35"/>
      </defs>
      <g transform="translate(99.688337 322.182437)scale(0.1 -0.1)">
       <use xlink:href="#DejaVuSans-35"/>
       <use x="63.623047" xlink:href="#DejaVuSans-30"/>
      </g>
     </g>
    </g>
    <g id="xtick_3">
     <g id="line2d_5">
      <path clip-path="url(#p68351a3786)" d="M 153.551658 307.584 
L 153.551658 41.472 
" style="fill:none;stroke:#b0b0b0;stroke-linecap:square;stroke-width:0.8;"/>
     </g>
     <g id="line2d_6">
      <g>
       <use style="stroke:#000000;stroke-width:0.8;" x="153.551658" xlink:href="#m7b7284b022" y="307.584"/>
      </g>
     </g>
     <g id="text_3">
      <!-- 100 -->
      <defs>
       <path d="M 12.40625 8.296875 
L 28.515625 8.296875 
L 28.515625 63.921875 
L 10.984375 60.40625 
L 10.984375 69.390625 
L 28.421875 72.90625 
L 38.28125 72.90625 
L 38.28125 8.296875 
L 54.390625 8.296875 
L 54.390625 0 
L 12.40625 0 
z
" id="DejaVuSans-31"/>
      </defs>
      <g transform="translate(144.007908 322.182437)scale(0.1 -0.1)">
       <use xlink:href="#DejaVuSans-31"/>
       <use x="63.623047" xlink:href="#DejaVuSans-30"/>
       <use x="127.246094" xlink:href="#DejaVuSans-30"/>
      </g>
     </g>
    </g>
    <g id="xtick_4">
     <g id="line2d_7">
      <path clip-path="url(#p68351a3786)" d="M 201.052478 307.584 
L 201.052478 41.472 
" style="fill:none;stroke:#b0b0b0;stroke-linecap:square;stroke-width:0.8;"/>
     </g>
     <g id="line2d_8">
      <g>
       <use style="stroke:#000000;stroke-width:0.8;" x="201.052478" xlink:href="#m7b7284b022" y="307.584"/>
      </g>
     </g>
     <g id="text_4">
      <!-- 150 -->
      <g transform="translate(191.508728 322.182437)scale(0.1 -0.1)">
       <use xlink:href="#DejaVuSans-31"/>
       <use x="63.623047" xlink:href="#DejaVuSans-35"/>
       <use x="127.246094" xlink:href="#DejaVuSans-30"/>
      </g>
     </g>
    </g>
    <g id="xtick_5">
     <g id="line2d_9">
      <path clip-path="url(#p68351a3786)" d="M 248.553299 307.584 
L 248.553299 41.472 
" style="fill:none;stroke:#b0b0b0;stroke-linecap:square;stroke-width:0.8;"/>
     </g>
     <g id="line2d_10">
      <g>
       <use style="stroke:#000000;stroke-width:0.8;" x="248.553299" xlink:href="#m7b7284b022" y="307.584"/>
      </g>
     </g>
     <g id="text_5">
      <!-- 200 -->
      <defs>
       <path d="M 19.1875 8.296875 
L 53.609375 8.296875 
L 53.609375 0 
L 7.328125 0 
L 7.328125 8.296875 
Q 12.9375 14.109375 22.625 23.890625 
Q 32.328125 33.6875 34.8125 36.53125 
Q 39.546875 41.84375 41.421875 45.53125 
Q 43.3125 49.21875 43.3125 52.78125 
Q 43.3125 58.59375 39.234375 62.25 
Q 35.15625 65.921875 28.609375 65.921875 
Q 23.96875 65.921875 18.8125 64.3125 
Q 13.671875 62.703125 7.8125 59.421875 
L 7.8125 69.390625 
Q 13.765625 71.78125 18.9375 73 
Q 24.125 74.21875 28.421875 74.21875 
Q 39.75 74.21875 46.484375 68.546875 
Q 53.21875 62.890625 53.21875 53.421875 
Q 53.21875 48.921875 51.53125 44.890625 
Q 49.859375 40.875 45.40625 35.40625 
Q 44.1875 33.984375 37.640625 27.21875 
Q 31.109375 20.453125 19.1875 8.296875 
" id="DejaVuSans-32"/>
      </defs>
      <g transform="translate(239.009549 322.182437)scale(0.1 -0.1)">
       <use xlink:href="#DejaVuSans-32"/>
       <use x="63.623047" xlink:href="#DejaVuSans-30"/>
       <use x="127.246094" xlink:href="#DejaVuSans-30"/>
      </g>
     </g>
    </g>
    <g id="xtick_6">
     <g id="line2d_11">
      <path clip-path="url(#p68351a3786)" d="M 296.05412 307.584 
L 296.05412 41.472 
" style="fill:none;stroke:#b0b0b0;stroke-linecap:square;stroke-width:0.8;"/>
     </g>
     <g id="line2d_12">
      <g>
       <use style="stroke:#000000;stroke-width:0.8;" x="296.05412" xlink:href="#m7b7284b022" y="307.584"/>
      </g>
     </g>
     <g id="text_6">
      <!-- 250 -->
      <g transform="translate(286.51037 322.182437)scale(0.1 -0.1)">
       <use xlink:href="#DejaVuSans-32"/>
       <use x="63.623047" xlink:href="#DejaVuSans-35"/>
       <use x="127.246094" xlink:href="#DejaVuSans-30"/>
      </g>
     </g>
    </g>
    <g id="xtick_7">
     <g id="line2d_13">
      <path clip-path="url(#p68351a3786)" d="M 343.55494 307.584 
L 343.55494 41.472 
" style="fill:none;stroke:#b0b0b0;stroke-linecap:square;stroke-width:0.8;"/>
     </g>
     <g id="line2d_14">
      <g>
       <use style="stroke:#000000;stroke-width:0.8;" x="343.55494" xlink:href="#m7b7284b022" y="307.584"/>
      </g>
     </g>
     <g id="text_7">
      <!-- 300 -->
      <defs>
       <path d="M 40.578125 39.3125 
Q 47.65625 37.796875 51.625 33 
Q 55.609375 28.21875 55.609375 21.1875 
Q 55.609375 10.40625 48.1875 4.484375 
Q 40.765625 -1.421875 27.09375 -1.421875 
Q 22.515625 -1.421875 17.65625 -0.515625 
Q 12.796875 0.390625 7.625 2.203125 
L 7.625 11.71875 
Q 11.71875 9.328125 16.59375 8.109375 
Q 21.484375 6.890625 26.8125 6.890625 
Q 36.078125 6.890625 40.9375 10.546875 
Q 45.796875 14.203125 45.796875 21.1875 
Q 45.796875 27.640625 41.28125 31.265625 
Q 36.765625 34.90625 28.71875 34.90625 
L 20.21875 34.90625 
L 20.21875 43.015625 
L 29.109375 43.015625 
Q 36.375 43.015625 40.234375 45.921875 
Q 44.09375 48.828125 44.09375 54.296875 
Q 44.09375 59.90625 40.109375 62.90625 
Q 36.140625 65.921875 28.71875 65.921875 
Q 24.65625 65.921875 20.015625 65.03125 
Q 15.375 64.15625 9.8125 62.3125 
L 9.8125 71.09375 
Q 15.4375 72.65625 20.34375 73.4375 
Q 25.25 74.21875 29.59375 74.21875 
Q 40.828125 74.21875 47.359375 69.109375 
Q 53.90625 64.015625 53.90625 55.328125 
Q 53.90625 49.265625 50.4375 45.09375 
Q 46.96875 40.921875 40.578125 39.3125 
" id="DejaVuSans-33"/>
      </defs>
      <g transform="translate(334.01119 322.182437)scale(0.1 -0.1)">
       <use xlink:href="#DejaVuSans-33"/>
       <use x="63.623047" xlink:href="#DejaVuSans-30"/>
       <use x="127.246094" xlink:href="#DejaVuSans-30"/>
      </g>
     </g>
    </g>
    <g id="xtick_8">
     <g id="line2d_15">
      <path clip-path="url(#p68351a3786)" d="M 391.055761 307.584 
L 391.055761 41.472 
" style="fill:none;stroke:#b0b0b0;stroke-linecap:square;stroke-width:0.8;"/>
     </g>
     <g id="line2d_16">
      <g>
       <use style="stroke:#000000;stroke-width:0.8;" x="391.055761" xlink:href="#m7b7284b022" y="307.584"/>
      </g>
     </g>
     <g id="text_8">
      <!-- 350 -->
      <g transform="translate(381.512011 322.182437)scale(0.1 -0.1)">
       <use xlink:href="#DejaVuSans-33"/>
       <use x="63.623047" xlink:href="#DejaVuSans-35"/>
       <use x="127.246094" xlink:href="#DejaVuSans-30"/>
      </g>
     </g>
    </g>
    <g id="text_9">
     <!-- $\gamma_i$ -->
     <defs>
      <path d="M 23.296875 46.09375 
L 28.71875 12.3125 
L 54 54.6875 
L 63.53125 54.6875 
L 30.8125 0 
L 26.765625 -20.796875 
L 17.78125 -20.796875 
L 21.828125 0 
L 15.4375 40.828125 
Q 14.453125 46.96875 9.8125 46.96875 
L 7.421875 46.96875 
L 8.890625 54.6875 
L 12.3125 54.6875 
Q 21.921875 54.6875 23.296875 46.09375 
" id="DejaVuSans-Oblique-3b3"/>
      <path d="M 18.3125 75.984375 
L 27.296875 75.984375 
L 25.09375 64.59375 
L 16.109375 64.59375 
z
M 14.203125 54.6875 
L 23.1875 54.6875 
L 12.5 0 
L 3.515625 0 
z
" id="DejaVuSans-Oblique-69"/>
     </defs>
     <g transform="translate(232.06 335.84025)scale(0.1 -0.1)">
      <use transform="translate(0 0.3125)" xlink:href="#DejaVuSans-Oblique-3b3"/>
      <use transform="translate(59.179688 -16.09375)scale(0.7)" xlink:href="#DejaVuSans-Oblique-69"/>
     </g>
    </g>
   </g>
   <g id="matplotlib.axis_2">
    <g id="ytick_1">
     <g id="line2d_17">
      <path clip-path="url(#p68351a3786)" d="M 57.6 278.837735 
L 414.72 278.837735 
" style="fill:none;stroke:#b0b0b0;stroke-linecap:square;stroke-width:0.8;"/>
     </g>
     <g id="line2d_18">
      <defs>
       <path d="M 0 0 
L -3.5 0 
" id="mefa2cc4781" style="stroke:#000000;stroke-width:0.8;"/>
      </defs>
      <g>
       <use style="stroke:#000000;stroke-width:0.8;" x="57.6" xlink:href="#mefa2cc4781" y="278.837735"/>
      </g>
     </g>
     <g id="text_10">
      <!-- ${10^{-150}}$ -->
      <defs>
       <path d="M 10.59375 35.5 
L 73.1875 35.5 
L 73.1875 27.203125 
L 10.59375 27.203125 
z
" id="DejaVuSans-2212"/>
      </defs>
      <g transform="translate(18.2 282.636954)scale(0.1 -0.1)">
       <use transform="translate(0 0.765625)" xlink:href="#DejaVuSans-31"/>
       <use transform="translate(63.623047 0.765625)" xlink:href="#DejaVuSans-30"/>
       <use transform="translate(128.203125 39.046875)scale(0.7)" xlink:href="#DejaVuSans-2212"/>
       <use transform="translate(186.855469 39.046875)scale(0.7)" xlink:href="#DejaVuSans-31"/>
       <use transform="translate(231.391602 39.046875)scale(0.7)" xlink:href="#DejaVuSans-35"/>
       <use transform="translate(275.927734 39.046875)scale(0.7)" xlink:href="#DejaVuSans-30"/>
      </g>
     </g>
    </g>
    <g id="ytick_2">
     <g id="line2d_19">
      <path clip-path="url(#p68351a3786)" d="M 57.6 248.623299 
L 414.72 248.623299 
" style="fill:none;stroke:#b0b0b0;stroke-linecap:square;stroke-width:0.8;"/>
     </g>
     <g id="line2d_20">
      <g>
       <use style="stroke:#000000;stroke-width:0.8;" x="57.6" xlink:href="#mefa2cc4781" y="248.623299"/>
      </g>
     </g>
     <g id="text_11">
      <!-- ${10^{-130}}$ -->
      <g transform="translate(18.2 252.422518)scale(0.1 -0.1)">
       <use transform="translate(0 0.765625)" xlink:href="#DejaVuSans-31"/>
       <use transform="translate(63.623047 0.765625)" xlink:href="#DejaVuSans-30"/>
       <use transform="translate(128.203125 39.046875)scale(0.7)" xlink:href="#DejaVuSans-2212"/>
       <use transform="translate(186.855469 39.046875)scale(0.7)" xlink:href="#DejaVuSans-31"/>
       <use transform="translate(231.391602 39.046875)scale(0.7)" xlink:href="#DejaVuSans-33"/>
       <use transform="translate(275.927734 39.046875)scale(0.7)" xlink:href="#DejaVuSans-30"/>
      </g>
     </g>
    </g>
    <g id="ytick_3">
     <g id="line2d_21">
      <path clip-path="url(#p68351a3786)" d="M 57.6 218.408863 
L 414.72 218.408863 
" style="fill:none;stroke:#b0b0b0;stroke-linecap:square;stroke-width:0.8;"/>
     </g>
     <g id="line2d_22">
      <g>
       <use style="stroke:#000000;stroke-width:0.8;" x="57.6" xlink:href="#mefa2cc4781" y="218.408863"/>
      </g>
     </g>
     <g id="text_12">
      <!-- ${10^{-110}}$ -->
      <g transform="translate(18.2 222.208082)scale(0.1 -0.1)">
       <use transform="translate(0 0.765625)" xlink:href="#DejaVuSans-31"/>
       <use transform="translate(63.623047 0.765625)" xlink:href="#DejaVuSans-30"/>
       <use transform="translate(128.203125 39.046875)scale(0.7)" xlink:href="#DejaVuSans-2212"/>
       <use transform="translate(186.855469 39.046875)scale(0.7)" xlink:href="#DejaVuSans-31"/>
       <use transform="translate(231.391602 39.046875)scale(0.7)" xlink:href="#DejaVuSans-31"/>
       <use transform="translate(275.927734 39.046875)scale(0.7)" xlink:href="#DejaVuSans-30"/>
      </g>
     </g>
    </g>
    <g id="ytick_4">
     <g id="line2d_23">
      <path clip-path="url(#p68351a3786)" d="M 57.6 188.194427 
L 414.72 188.194427 
" style="fill:none;stroke:#b0b0b0;stroke-linecap:square;stroke-width:0.8;"/>
     </g>
     <g id="line2d_24">
      <g>
       <use style="stroke:#000000;stroke-width:0.8;" x="57.6" xlink:href="#mefa2cc4781" y="188.194427"/>
      </g>
     </g>
     <g id="text_13">
      <!-- ${10^{-90}}$ -->
      <defs>
       <path d="M 10.984375 1.515625 
L 10.984375 10.5 
Q 14.703125 8.734375 18.5 7.8125 
Q 22.3125 6.890625 25.984375 6.890625 
Q 35.75 6.890625 40.890625 13.453125 
Q 46.046875 20.015625 46.78125 33.40625 
Q 43.953125 29.203125 39.59375 26.953125 
Q 35.25 24.703125 29.984375 24.703125 
Q 19.046875 24.703125 12.671875 31.3125 
Q 6.296875 37.9375 6.296875 49.421875 
Q 6.296875 60.640625 12.9375 67.421875 
Q 19.578125 74.21875 30.609375 74.21875 
Q 43.265625 74.21875 49.921875 64.515625 
Q 56.59375 54.828125 56.59375 36.375 
Q 56.59375 19.140625 48.40625 8.859375 
Q 40.234375 -1.421875 26.421875 -1.421875 
Q 22.703125 -1.421875 18.890625 -0.6875 
Q 15.09375 0.046875 10.984375 1.515625 
M 30.609375 32.421875 
Q 37.25 32.421875 41.125 36.953125 
Q 45.015625 41.5 45.015625 49.421875 
Q 45.015625 57.28125 41.125 61.84375 
Q 37.25 66.40625 30.609375 66.40625 
Q 23.96875 66.40625 20.09375 61.84375 
Q 16.21875 57.28125 16.21875 49.421875 
Q 16.21875 41.5 20.09375 36.953125 
Q 23.96875 32.421875 30.609375 32.421875 
" id="DejaVuSans-39"/>
      </defs>
      <g transform="translate(22.7 191.993646)scale(0.1 -0.1)">
       <use transform="translate(0 0.765625)" xlink:href="#DejaVuSans-31"/>
       <use transform="translate(63.623047 0.765625)" xlink:href="#DejaVuSans-30"/>
       <use transform="translate(128.203125 39.046875)scale(0.7)" xlink:href="#DejaVuSans-2212"/>
       <use transform="translate(186.855469 39.046875)scale(0.7)" xlink:href="#DejaVuSans-39"/>
       <use transform="translate(231.391602 39.046875)scale(0.7)" xlink:href="#DejaVuSans-30"/>
      </g>
     </g>
    </g>
    <g id="ytick_5">
     <g id="line2d_25">
      <path clip-path="url(#p68351a3786)" d="M 57.6 157.979991 
L 414.72 157.979991 
" style="fill:none;stroke:#b0b0b0;stroke-linecap:square;stroke-width:0.8;"/>
     </g>
     <g id="line2d_26">
      <g>
       <use style="stroke:#000000;stroke-width:0.8;" x="57.6" xlink:href="#mefa2cc4781" y="157.979991"/>
      </g>
     </g>
     <g id="text_14">
      <!-- ${10^{-70}}$ -->
      <defs>
       <path d="M 8.203125 72.90625 
L 55.078125 72.90625 
L 55.078125 68.703125 
L 28.609375 0 
L 18.3125 0 
L 43.21875 64.59375 
L 8.203125 64.59375 
z
" id="DejaVuSans-37"/>
      </defs>
      <g transform="translate(22.7 161.77921)scale(0.1 -0.1)">
       <use transform="translate(0 0.765625)" xlink:href="#DejaVuSans-31"/>
       <use transform="translate(63.623047 0.765625)" xlink:href="#DejaVuSans-30"/>
       <use transform="translate(128.203125 39.046875)scale(0.7)" xlink:href="#DejaVuSans-2212"/>
       <use transform="translate(186.855469 39.046875)scale(0.7)" xlink:href="#DejaVuSans-37"/>
       <use transform="translate(231.391602 39.046875)scale(0.7)" xlink:href="#DejaVuSans-30"/>
      </g>
     </g>
    </g>
    <g id="ytick_6">
     <g id="line2d_27">
      <path clip-path="url(#p68351a3786)" d="M 57.6 127.765556 
L 414.72 127.765556 
" style="fill:none;stroke:#b0b0b0;stroke-linecap:square;stroke-width:0.8;"/>
     </g>
     <g id="line2d_28">
      <g>
       <use style="stroke:#000000;stroke-width:0.8;" x="57.6" xlink:href="#mefa2cc4781" y="127.765556"/>
      </g>
     </g>
     <g id="text_15">
      <!-- ${10^{-50}}$ -->
      <g transform="translate(22.7 131.564774)scale(0.1 -0.1)">
       <use transform="translate(0 0.765625)" xlink:href="#DejaVuSans-31"/>
       <use transform="translate(63.623047 0.765625)" xlink:href="#DejaVuSans-30"/>
       <use transform="translate(128.203125 39.046875)scale(0.7)" xlink:href="#DejaVuSans-2212"/>
       <use transform="translate(186.855469 39.046875)scale(0.7)" xlink:href="#DejaVuSans-35"/>
       <use transform="translate(231.391602 39.046875)scale(0.7)" xlink:href="#DejaVuSans-30"/>
      </g>
     </g>
    </g>
    <g id="ytick_7">
     <g id="line2d_29">
      <path clip-path="url(#p68351a3786)" d="M 57.6 97.55112 
L 414.72 97.55112 
" style="fill:none;stroke:#b0b0b0;stroke-linecap:square;stroke-width:0.8;"/>
     </g>
     <g id="line2d_30">
      <g>
       <use style="stroke:#000000;stroke-width:0.8;" x="57.6" xlink:href="#mefa2cc4781" y="97.55112"/>
      </g>
     </g>
     <g id="text_16">
      <!-- ${10^{-30}}$ -->
      <g transform="translate(22.7 101.350338)scale(0.1 -0.1)">
       <use transform="translate(0 0.765625)" xlink:href="#DejaVuSans-31"/>
       <use transform="translate(63.623047 0.765625)" xlink:href="#DejaVuSans-30"/>
       <use transform="translate(128.203125 39.046875)scale(0.7)" xlink:href="#DejaVuSans-2212"/>
       <use transform="translate(186.855469 39.046875)scale(0.7)" xlink:href="#DejaVuSans-33"/>
       <use transform="translate(231.391602 39.046875)scale(0.7)" xlink:href="#DejaVuSans-30"/>
      </g>
     </g>
    </g>
    <g id="ytick_8">
     <g id="line2d_31">
      <path clip-path="url(#p68351a3786)" d="M 57.6 67.336684 
L 414.72 67.336684 
" style="fill:none;stroke:#b0b0b0;stroke-linecap:square;stroke-width:0.8;"/>
     </g>
     <g id="line2d_32">
      <g>
       <use style="stroke:#000000;stroke-width:0.8;" x="57.6" xlink:href="#mefa2cc4781" y="67.336684"/>
      </g>
     </g>
     <g id="text_17">
      <!-- ${10^{-10}}$ -->
      <g transform="translate(22.7 71.135903)scale(0.1 -0.1)">
       <use transform="translate(0 0.765625)" xlink:href="#DejaVuSans-31"/>
       <use transform="translate(63.623047 0.765625)" xlink:href="#DejaVuSans-30"/>
       <use transform="translate(128.203125 39.046875)scale(0.7)" xlink:href="#DejaVuSans-2212"/>
       <use transform="translate(186.855469 39.046875)scale(0.7)" xlink:href="#DejaVuSans-31"/>
       <use transform="translate(231.391602 39.046875)scale(0.7)" xlink:href="#DejaVuSans-30"/>
      </g>
     </g>
    </g>
    <g id="text_18">
     <!-- $\omega_i$ -->
     <defs>
      <path d="M 21.390625 -1.421875 
Q 1.125 -1.421875 6.78125 27.59375 
Q 8.984375 39.0625 19.625 54.6875 
L 29.296875 54.6875 
Q 19.234375 39.0625 17 27.34375 
Q 12.796875 6.203125 23.734375 6.203125 
Q 33.84375 6.203125 38.71875 32.46875 
L 47.015625 32.46875 
Q 41.703125 6.0625 51.8125 6.203125 
Q 62.703125 6.296875 66.796875 27.34375 
Q 69.046875 39.0625 65.140625 54.6875 
L 74.8125 54.6875 
Q 79.296875 39.0625 77.09375 27.59375 
Q 71.53125 -1.46875 51.21875 -1.421875 
Q 37.9375 -1.375 39.109375 13.1875 
Q 34.28125 -1.421875 21.390625 -1.421875 
" id="DejaVuSans-Oblique-3c9"/>
     </defs>
     <g transform="translate(12.120313 179.828)rotate(-90)scale(0.1 -0.1)">
      <use transform="translate(0 0.3125)" xlink:href="#DejaVuSans-Oblique-3c9"/>
      <use transform="translate(83.740234 -16.09375)scale(0.7)" xlink:href="#DejaVuSans-Oblique-69"/>
     </g>
    </g>
   </g>
   <g id="line2d_33">
    <defs>
     <path d="M 0 3 
C 0.795609 3 1.55874 2.683901 2.12132 2.12132 
C 2.683901 1.55874 3 0.795609 3 0 
C 3 -0.795609 2.683901 -1.55874 2.12132 -2.12132 
C 1.55874 -2.683901 0.795609 -3 0 -3 
C -0.795609 -3 -1.55874 -2.683901 -2.12132 -2.12132 
C -2.683901 -1.55874 -3 -0.795609 -3 0 
C -3 0.795609 -2.683901 1.55874 -2.12132 2.12132 
C -1.55874 2.683901 -0.795609 3 0 3 
z
" id="md56273f980" style="stroke:#1f77b4;"/>
    </defs>
    <g clip-path="url(#p68351a3786)">
     <use style="fill:#1f77b4;stroke:#1f77b4;" x="413.769984" xlink:href="#md56273f980" y="295.488"/>
     <use style="fill:#1f77b4;stroke:#1f77b4;" x="366.910094" xlink:href="#md56273f980" y="263.506563"/>
     <use style="fill:#1f77b4;stroke:#1f77b4;" x="379.973309" xlink:href="#md56273f980" y="272.449732"/>
     <use style="fill:#1f77b4;stroke:#1f77b4;" x="395.017937" xlink:href="#md56273f980" y="282.729936"/>
     <use style="fill:#1f77b4;stroke:#1f77b4;" x="126.927107" xlink:href="#md56273f980" y="98.744148"/>
     <use style="fill:#1f77b4;stroke:#1f77b4;" x="239.792548" xlink:href="#md56273f980" y="176.223564"/>
     <use style="fill:#1f77b4;stroke:#1f77b4;" x="155.06777" xlink:href="#md56273f980" y="118.03429"/>
     <use style="fill:#1f77b4;stroke:#1f77b4;" x="185.813447" xlink:href="#md56273f980" y="139.139363"/>
     <use style="fill:#1f77b4;stroke:#1f77b4;" x="181.63188" xlink:href="#md56273f980" y="136.267844"/>
     <use style="fill:#1f77b4;stroke:#1f77b4;" x="218.279413" xlink:href="#md56273f980" y="161.441315"/>
     <use style="fill:#1f77b4;stroke:#1f77b4;" x="77.761489" xlink:href="#md56273f980" y="65.255924"/>
     <use style="fill:#1f77b4;stroke:#1f77b4;" x="334.362814" xlink:href="#md56273f980" y="241.186916"/>
     <use style="fill:#1f77b4;stroke:#1f77b4;" x="104.469677" xlink:href="#md56273f980" y="83.38843"/>
     <use style="fill:#1f77b4;stroke:#1f77b4;" x="94.161609" xlink:href="#md56273f980" y="76.363178"/>
     <use style="fill:#1f77b4;stroke:#1f77b4;" x="96.106326" xlink:href="#md56273f980" y="77.68686"/>
     <use style="fill:#1f77b4;stroke:#1f77b4;" x="124.167846" xlink:href="#md56273f980" y="96.854986"/>
     <use style="fill:#1f77b4;stroke:#1f77b4;" x="148.271147" xlink:href="#md56273f980" y="113.372177"/>
     <use style="fill:#1f77b4;stroke:#1f77b4;" x="109.012402" xlink:href="#md56273f980" y="86.490183"/>
     <use style="fill:#1f77b4;stroke:#1f77b4;" x="291.937868" xlink:href="#md56273f980" y="212.053623"/>
     <use style="fill:#1f77b4;stroke:#1f77b4;" x="111.376871" xlink:href="#md56273f980" y="88.1057"/>
     <use style="fill:#1f77b4;stroke:#1f77b4;" x="85.282563" xlink:href="#md56273f980" y="70.334059"/>
     <use style="fill:#1f77b4;stroke:#1f77b4;" x="203.637324" xlink:href="#md56273f980" y="151.381861"/>
     <use style="fill:#1f77b4;stroke:#1f77b4;" x="76.41507" xlink:href="#md56273f980" y="64.35133"/>
     <use style="fill:#1f77b4;stroke:#1f77b4;" x="72.684328" xlink:href="#md56273f980" y="61.85582"/>
     <use style="fill:#1f77b4;stroke:#1f77b4;" x="245.576602" xlink:href="#md56273f980" y="180.198164"/>
     <use style="fill:#1f77b4;stroke:#1f77b4;" x="190.100943" xlink:href="#md56273f980" y="142.083899"/>
     <use style="fill:#1f77b4;stroke:#1f77b4;" x="213.267322" xlink:href="#md56273f980" y="157.997707"/>
     <use style="fill:#1f77b4;stroke:#1f77b4;" x="73.876843" xlink:href="#md56273f980" y="62.651447"/>
     <use style="fill:#1f77b4;stroke:#1f77b4;" x="129.756093" xlink:href="#md56273f980" y="100.681579"/>
     <use style="fill:#1f77b4;stroke:#1f77b4;" x="169.689795" xlink:href="#md56273f980" y="128.068832"/>
     <use style="fill:#1f77b4;stroke:#1f77b4;" x="121.477094" xlink:href="#md56273f980" y="95.013267"/>
     <use style="fill:#1f77b4;stroke:#1f77b4;" x="68.417645" xlink:href="#md56273f980" y="59.032664"/>
     <use style="fill:#1f77b4;stroke:#1f77b4;" x="66.582709" xlink:href="#md56273f980" y="57.836116"/>
     <use style="fill:#1f77b4;stroke:#1f77b4;" x="324.963259" xlink:href="#md56273f980" y="234.734905"/>
     <use style="fill:#1f77b4;stroke:#1f77b4;" x="82.114618" xlink:href="#md56273f980" y="68.190787"/>
     <use style="fill:#1f77b4;stroke:#1f77b4;" x="208.388485" xlink:href="#md56273f980" y="154.645829"/>
     <use style="fill:#1f77b4;stroke:#1f77b4;" x="80.610849" xlink:href="#md56273f980" y="67.175421"/>
     <use style="fill:#1f77b4;stroke:#1f77b4;" x="194.498048" xlink:href="#md56273f980" y="145.103974"/>
     <use style="fill:#1f77b4;stroke:#1f77b4;" x="62.26899" xlink:href="#md56273f980" y="55.142201"/>
     <use style="fill:#1f77b4;stroke:#1f77b4;" x="61.740206" xlink:href="#md56273f980" y="54.864764"/>
     <use style="fill:#1f77b4;stroke:#1f77b4;" x="113.804603" xlink:href="#md56273f980" y="89.765111"/>
     <use style="fill:#1f77b4;stroke:#1f77b4;" x="270.653135" xlink:href="#md56273f980" y="197.429662"/>
     <use style="fill:#1f77b4;stroke:#1f77b4;" x="132.656086" xlink:href="#md56273f980" y="102.66815"/>
     <use style="fill:#1f77b4;stroke:#1f77b4;" x="61.296273" xlink:href="#md56273f980" y="54.706853"/>
     <use style="fill:#1f77b4;stroke:#1f77b4;" x="141.795991" xlink:href="#md56273f980" y="108.932164"/>
     <use style="fill:#1f77b4;stroke:#1f77b4;" x="344.382753" xlink:href="#md56273f980" y="248.062286"/>
     <use style="fill:#1f77b4;stroke:#1f77b4;" x="299.623086" xlink:href="#md56273f980" y="217.332969"/>
     <use style="fill:#1f77b4;stroke:#1f77b4;" x="138.67457" xlink:href="#md56273f980" y="106.792444"/>
     <use style="fill:#1f77b4;stroke:#1f77b4;" x="60.581776" xlink:href="#md56273f980" y="54.245289"/>
     <use style="fill:#1f77b4;stroke:#1f77b4;" x="64.944832" xlink:href="#md56273f980" y="56.78391"/>
     <use style="fill:#1f77b4;stroke:#1f77b4;" x="277.479722" xlink:href="#md56273f980" y="202.120267"/>
     <use style="fill:#1f77b4;stroke:#1f77b4;" x="88.667616" xlink:href="#md56273f980" y="72.62935"/>
     <use style="fill:#1f77b4;stroke:#1f77b4;" x="355.16204" xlink:href="#md56273f980" y="255.455054"/>
     <use style="fill:#1f77b4;stroke:#1f77b4;" x="59.543281" xlink:href="#md56273f980" y="53.685763"/>
     <use style="fill:#1f77b4;stroke:#1f77b4;" x="98.108794" xlink:href="#md56273f980" y="79.050767"/>
     <use style="fill:#1f77b4;stroke:#1f77b4;" x="264.066067" xlink:href="#md56273f980" y="192.903446"/>
     <use style="fill:#1f77b4;stroke:#1f77b4;" x="228.728446" xlink:href="#md56273f980" y="168.620897"/>
     <use style="fill:#1f77b4;stroke:#1f77b4;" x="100.169694" xlink:href="#md56273f980" y="80.455347"/>
     <use style="fill:#1f77b4;stroke:#1f77b4;" x="284.566493" xlink:href="#md56273f980" y="206.989368"/>
     <use style="fill:#1f77b4;stroke:#1f77b4;" x="71.542441" xlink:href="#md56273f980" y="61.096218"/>
     <use style="fill:#1f77b4;stroke:#1f77b4;" x="60.940099" xlink:href="#md56273f980" y="54.55016"/>
     <use style="fill:#1f77b4;stroke:#1f77b4;" x="90.44286" xlink:href="#md56273f980" y="73.834814"/>
     <use style="fill:#1f77b4;stroke:#1f77b4;" x="151.628345" xlink:href="#md56273f980" y="115.674835"/>
     <use style="fill:#1f77b4;stroke:#1f77b4;" x="65.739173" xlink:href="#md56273f980" y="57.291835"/>
     <use style="fill:#1f77b4;stroke:#1f77b4;" x="106.710291" xlink:href="#md56273f980" y="84.917952"/>
     <use style="fill:#1f77b4;stroke:#1f77b4;" x="62.85988" xlink:href="#md56273f980" y="55.487553"/>
     <use style="fill:#1f77b4;stroke:#1f77b4;" x="234.179577" xlink:href="#md56273f980" y="172.366583"/>
     <use style="fill:#1f77b4;stroke:#1f77b4;" x="165.900099" xlink:href="#md56273f980" y="125.467581"/>
     <use style="fill:#1f77b4;stroke:#1f77b4;" x="79.159947" xlink:href="#md56273f980" y="66.197214"/>
     <use style="fill:#1f77b4;stroke:#1f77b4;" x="257.700827" xlink:href="#md56273f980" y="188.529536"/>
     <use style="fill:#1f77b4;stroke:#1f77b4;" x="60.208518" xlink:href="#md56273f980" y="54.000183"/>
     <use style="fill:#1f77b4;stroke:#1f77b4;" x="102.289739" xlink:href="#md56273f980" y="81.901069"/>
     <use style="fill:#1f77b4;stroke:#1f77b4;" x="251.542119" xlink:href="#md56273f980" y="184.297482"/>
     <use style="fill:#1f77b4;stroke:#1f77b4;" x="223.430875" xlink:href="#md56273f980" y="164.980841"/>
     <use style="fill:#1f77b4;stroke:#1f77b4;" x="92.273994" xlink:href="#md56273f980" y="75.079296"/>
     <use style="fill:#1f77b4;stroke:#1f77b4;" x="59.857372" xlink:href="#md56273f980" y="53.818473"/>
     <use style="fill:#1f77b4;stroke:#1f77b4;" x="59.270902" xlink:href="#md56273f980" y="53.600917"/>
     <use style="fill:#1f77b4;stroke:#1f77b4;" x="199.008739" xlink:href="#md56273f980" y="148.202311"/>
     <use style="fill:#1f77b4;stroke:#1f77b4;" x="177.552828" xlink:href="#md56273f980" y="133.467007"/>
     <use style="fill:#1f77b4;stroke:#1f77b4;" x="158.591428" xlink:href="#md56273f980" y="120.451913"/>
     <use style="fill:#1f77b4;stroke:#1f77b4;" x="135.628437" xlink:href="#md56273f980" y="104.704782"/>
     <use style="fill:#1f77b4;stroke:#1f77b4;" x="63.504443" xlink:href="#md56273f980" y="55.87997"/>
     <use style="fill:#1f77b4;stroke:#1f77b4;" x="64.199789" xlink:href="#md56273f980" y="56.312915"/>
     <use style="fill:#1f77b4;stroke:#1f77b4;" x="162.201448" xlink:href="#md56273f980" y="122.929159"/>
     <use style="fill:#1f77b4;stroke:#1f77b4;" x="144.99429" xlink:href="#md56273f980" y="111.125026"/>
     <use style="fill:#1f77b4;stroke:#1f77b4;" x="83.6717" xlink:href="#md56273f980" y="69.243573"/>
     <use style="fill:#1f77b4;stroke:#1f77b4;" x="59.041794" xlink:href="#md56273f980" y="53.568"/>
     <use style="fill:#1f77b4;stroke:#1f77b4;" x="58.617056" xlink:href="#md56273f980" y="53.932454"/>
     <use style="fill:#1f77b4;stroke:#1f77b4;" x="70.450881" xlink:href="#md56273f980" y="60.372535"/>
     <use style="fill:#1f77b4;stroke:#1f77b4;" x="316.085821" xlink:href="#md56273f980" y="228.639622"/>
     <use style="fill:#1f77b4;stroke:#1f77b4;" x="173.573119" xlink:href="#md56273f980" y="130.734677"/>
     <use style="fill:#1f77b4;stroke:#1f77b4;" x="69.409367" xlink:href="#md56273f980" y="59.684696"/>
     <use style="fill:#1f77b4;stroke:#1f77b4;" x="58.856442" xlink:href="#md56273f980" y="53.595861"/>
     <use style="fill:#1f77b4;stroke:#1f77b4;" x="86.947697" xlink:href="#md56273f980" y="71.462545"/>
     <use style="fill:#1f77b4;stroke:#1f77b4;" x="75.120309" xlink:href="#md56273f980" y="63.483231"/>
     <use style="fill:#1f77b4;stroke:#1f77b4;" x="58.562734" xlink:href="#md56273f980" y="54.449889"/>
     <use style="fill:#1f77b4;stroke:#1f77b4;" x="116.296545" xlink:href="#md56273f980" y="91.469055"/>
     <use style="fill:#1f77b4;stroke:#1f77b4;" x="58.714901" xlink:href="#md56273f980" y="53.702622"/>
     <use style="fill:#1f77b4;stroke:#1f77b4;" x="67.475488" xlink:href="#md56273f980" y="58.416447"/>
     <use style="fill:#1f77b4;stroke:#1f77b4;" x="118.853693" xlink:href="#md56273f980" y="93.218205"/>
     <use style="fill:#1f77b4;stroke:#1f77b4;" x="307.657714" xlink:href="#md56273f980" y="222.851636"/>
    </g>
   </g>
   <g id="patch_3">
    <path d="M 57.6 307.584 
L 57.6 41.472 
" style="fill:none;stroke:#000000;stroke-linecap:square;stroke-linejoin:miter;stroke-width:0.8;"/>
   </g>
   <g id="patch_4">
    <path d="M 414.72 307.584 
L 414.72 41.472 
" style="fill:none;stroke:#000000;stroke-linecap:square;stroke-linejoin:miter;stroke-width:0.8;"/>
   </g>
   <g id="patch_5">
    <path d="M 57.6 307.584 
L 414.72 307.584 
" style="fill:none;stroke:#000000;stroke-linecap:square;stroke-linejoin:miter;stroke-width:0.8;"/>
   </g>
   <g id="patch_6">
    <path d="M 57.6 41.472 
L 414.72 41.472 
" style="fill:none;stroke:#000000;stroke-linecap:square;stroke-linejoin:miter;stroke-width:0.8;"/>
   </g>
  </g>
 </g>
 <defs>
  <clipPath id="p68351a3786">
   <rect height="266.112" width="357.12" x="57.6" y="41.472"/>
  </clipPath>
 </defs>
</svg>
