<?xml version="1.0" encoding="utf-8" standalone="no"?>
<!DOCTYPE svg PUBLIC "-//W3C//DTD SVG 1.1//EN"
  "http://www.w3.org/Graphics/SVG/1.1/DTD/svg11.dtd">
<!-- Created with matplotlib (http://matplotlib.org/) -->
<svg height="345pt" version="1.1" viewBox="0 0 460 345" width="460pt" xmlns="http://www.w3.org/2000/svg" xmlns:xlink="http://www.w3.org/1999/xlink">
 <defs>
  <style type="text/css">
*{stroke-linecap:butt;stroke-linejoin:round;}
  </style>
 </defs>
 <g id="figure_1">
  <g id="patch_1">
   <path d="M 0 345.6 
L 460.8 345.6 
L 460.8 0 
L 0 0 
z
" style="fill:#ffffff;"/>
  </g>
  <g id="axes_1">
   <g id="patch_2">
    <path d="M 57.6 307.584 
L 414.72 307.584 
L 414.72 41.472 
L 57.6 41.472 
z
" style="fill:#ffffff;"/>
   </g>
   <g id="matplotlib.axis_1">
    <g id="xtick_1">
     <g id="line2d_1">
      <path clip-path="url(#p465f4fe85c)" d="M 58.243587 307.584 
L 58.243587 41.472 
" style="fill:none;stroke:#b0b0b0;stroke-linecap:square;stroke-width:0.8;"/>
     </g>
     <g id="line2d_2">
      <defs>
       <path d="M 0 0 
L 0 3.5 
" id="m864e755686" style="stroke:#000000;stroke-width:0.8;"/>
      </defs>
      <g>
       <use style="stroke:#000000;stroke-width:0.8;" x="58.243587" xlink:href="#m864e755686" y="307.584"/>
      </g>
     </g>
     <g id="text_1">
      <!-- 0 -->
      <defs>
       <path d="M 31.78125 66.40625 
Q 24.171875 66.40625 20.328125 58.90625 
Q 16.5 51.421875 16.5 36.375 
Q 16.5 21.390625 20.328125 13.890625 
Q 24.171875 6.390625 31.78125 6.390625 
Q 39.453125 6.390625 43.28125 13.890625 
Q 47.125 21.390625 47.125 36.375 
Q 47.125 51.421875 43.28125 58.90625 
Q 39.453125 66.40625 31.78125 66.40625 
M 31.78125 74.21875 
Q 44.046875 74.21875 50.515625 64.515625 
Q 56.984375 54.828125 56.984375 36.375 
Q 56.984375 17.96875 50.515625 8.265625 
Q 44.046875 -1.421875 31.78125 -1.421875 
Q 19.53125 -1.421875 13.0625 8.265625 
Q 6.59375 17.96875 6.59375 36.375 
Q 6.59375 54.828125 13.0625 64.515625 
Q 19.53125 74.21875 31.78125 74.21875 
" id="DejaVuSans-30"/>
      </defs>
      <g transform="translate(55.062337 322.182437)scale(0.1 -0.1)">
       <use xlink:href="#DejaVuSans-30"/>
      </g>
     </g>
    </g>
    <g id="xtick_2">
     <g id="line2d_3">
      <path clip-path="url(#p465f4fe85c)" d="M 122.602316 307.584 
L 122.602316 41.472 
" style="fill:none;stroke:#b0b0b0;stroke-linecap:square;stroke-width:0.8;"/>
     </g>
     <g id="line2d_4">
      <g>
       <use style="stroke:#000000;stroke-width:0.8;" x="122.602316" xlink:href="#m864e755686" y="307.584"/>
      </g>
     </g>
     <g id="text_2">
      <!-- 100 -->
      <defs>
       <path d="M 12.40625 8.296875 
L 28.515625 8.296875 
L 28.515625 63.921875 
L 10.984375 60.40625 
L 10.984375 69.390625 
L 28.421875 72.90625 
L 38.28125 72.90625 
L 38.28125 8.296875 
L 54.390625 8.296875 
L 54.390625 0 
L 12.40625 0 
z
" id="DejaVuSans-31"/>
      </defs>
      <g transform="translate(113.058566 322.182437)scale(0.1 -0.1)">
       <use xlink:href="#DejaVuSans-31"/>
       <use x="63.623047" xlink:href="#DejaVuSans-30"/>
       <use x="127.246094" xlink:href="#DejaVuSans-30"/>
      </g>
     </g>
    </g>
    <g id="xtick_3">
     <g id="line2d_5">
      <path clip-path="url(#p465f4fe85c)" d="M 186.961045 307.584 
L 186.961045 41.472 
" style="fill:none;stroke:#b0b0b0;stroke-linecap:square;stroke-width:0.8;"/>
     </g>
     <g id="line2d_6">
      <g>
       <use style="stroke:#000000;stroke-width:0.8;" x="186.961045" xlink:href="#m864e755686" y="307.584"/>
      </g>
     </g>
     <g id="text_3">
      <!-- 200 -->
      <defs>
       <path d="M 19.1875 8.296875 
L 53.609375 8.296875 
L 53.609375 0 
L 7.328125 0 
L 7.328125 8.296875 
Q 12.9375 14.109375 22.625 23.890625 
Q 32.328125 33.6875 34.8125 36.53125 
Q 39.546875 41.84375 41.421875 45.53125 
Q 43.3125 49.21875 43.3125 52.78125 
Q 43.3125 58.59375 39.234375 62.25 
Q 35.15625 65.921875 28.609375 65.921875 
Q 23.96875 65.921875 18.8125 64.3125 
Q 13.671875 62.703125 7.8125 59.421875 
L 7.8125 69.390625 
Q 13.765625 71.78125 18.9375 73 
Q 24.125 74.21875 28.421875 74.21875 
Q 39.75 74.21875 46.484375 68.546875 
Q 53.21875 62.890625 53.21875 53.421875 
Q 53.21875 48.921875 51.53125 44.890625 
Q 49.859375 40.875 45.40625 35.40625 
Q 44.1875 33.984375 37.640625 27.21875 
Q 31.109375 20.453125 19.1875 8.296875 
" id="DejaVuSans-32"/>
      </defs>
      <g transform="translate(177.417295 322.182437)scale(0.1 -0.1)">
       <use xlink:href="#DejaVuSans-32"/>
       <use x="63.623047" xlink:href="#DejaVuSans-30"/>
       <use x="127.246094" xlink:href="#DejaVuSans-30"/>
      </g>
     </g>
    </g>
    <g id="xtick_4">
     <g id="line2d_7">
      <path clip-path="url(#p465f4fe85c)" d="M 251.319773 307.584 
L 251.319773 41.472 
" style="fill:none;stroke:#b0b0b0;stroke-linecap:square;stroke-width:0.8;"/>
     </g>
     <g id="line2d_8">
      <g>
       <use style="stroke:#000000;stroke-width:0.8;" x="251.319773" xlink:href="#m864e755686" y="307.584"/>
      </g>
     </g>
     <g id="text_4">
      <!-- 300 -->
      <defs>
       <path d="M 40.578125 39.3125 
Q 47.65625 37.796875 51.625 33 
Q 55.609375 28.21875 55.609375 21.1875 
Q 55.609375 10.40625 48.1875 4.484375 
Q 40.765625 -1.421875 27.09375 -1.421875 
Q 22.515625 -1.421875 17.65625 -0.515625 
Q 12.796875 0.390625 7.625 2.203125 
L 7.625 11.71875 
Q 11.71875 9.328125 16.59375 8.109375 
Q 21.484375 6.890625 26.8125 6.890625 
Q 36.078125 6.890625 40.9375 10.546875 
Q 45.796875 14.203125 45.796875 21.1875 
Q 45.796875 27.640625 41.28125 31.265625 
Q 36.765625 34.90625 28.71875 34.90625 
L 20.21875 34.90625 
L 20.21875 43.015625 
L 29.109375 43.015625 
Q 36.375 43.015625 40.234375 45.921875 
Q 44.09375 48.828125 44.09375 54.296875 
Q 44.09375 59.90625 40.109375 62.90625 
Q 36.140625 65.921875 28.71875 65.921875 
Q 24.65625 65.921875 20.015625 65.03125 
Q 15.375 64.15625 9.8125 62.3125 
L 9.8125 71.09375 
Q 15.4375 72.65625 20.34375 73.4375 
Q 25.25 74.21875 29.59375 74.21875 
Q 40.828125 74.21875 47.359375 69.109375 
Q 53.90625 64.015625 53.90625 55.328125 
Q 53.90625 49.265625 50.4375 45.09375 
Q 46.96875 40.921875 40.578125 39.3125 
" id="DejaVuSans-33"/>
      </defs>
      <g transform="translate(241.776023 322.182437)scale(0.1 -0.1)">
       <use xlink:href="#DejaVuSans-33"/>
       <use x="63.623047" xlink:href="#DejaVuSans-30"/>
       <use x="127.246094" xlink:href="#DejaVuSans-30"/>
      </g>
     </g>
    </g>
    <g id="xtick_5">
     <g id="line2d_9">
      <path clip-path="url(#p465f4fe85c)" d="M 315.678502 307.584 
L 315.678502 41.472 
" style="fill:none;stroke:#b0b0b0;stroke-linecap:square;stroke-width:0.8;"/>
     </g>
     <g id="line2d_10">
      <g>
       <use style="stroke:#000000;stroke-width:0.8;" x="315.678502" xlink:href="#m864e755686" y="307.584"/>
      </g>
     </g>
     <g id="text_5">
      <!-- 400 -->
      <defs>
       <path d="M 37.796875 64.3125 
L 12.890625 25.390625 
L 37.796875 25.390625 
z
M 35.203125 72.90625 
L 47.609375 72.90625 
L 47.609375 25.390625 
L 58.015625 25.390625 
L 58.015625 17.1875 
L 47.609375 17.1875 
L 47.609375 0 
L 37.796875 0 
L 37.796875 17.1875 
L 4.890625 17.1875 
L 4.890625 26.703125 
z
" id="DejaVuSans-34"/>
      </defs>
      <g transform="translate(306.134752 322.182437)scale(0.1 -0.1)">
       <use xlink:href="#DejaVuSans-34"/>
       <use x="63.623047" xlink:href="#DejaVuSans-30"/>
       <use x="127.246094" xlink:href="#DejaVuSans-30"/>
      </g>
     </g>
    </g>
    <g id="xtick_6">
     <g id="line2d_11">
      <path clip-path="url(#p465f4fe85c)" d="M 380.03723 307.584 
L 380.03723 41.472 
" style="fill:none;stroke:#b0b0b0;stroke-linecap:square;stroke-width:0.8;"/>
     </g>
     <g id="line2d_12">
      <g>
       <use style="stroke:#000000;stroke-width:0.8;" x="380.03723" xlink:href="#m864e755686" y="307.584"/>
      </g>
     </g>
     <g id="text_6">
      <!-- 500 -->
      <defs>
       <path d="M 10.796875 72.90625 
L 49.515625 72.90625 
L 49.515625 64.59375 
L 19.828125 64.59375 
L 19.828125 46.734375 
Q 21.96875 47.46875 24.109375 47.828125 
Q 26.265625 48.1875 28.421875 48.1875 
Q 40.625 48.1875 47.75 41.5 
Q 54.890625 34.8125 54.890625 23.390625 
Q 54.890625 11.625 47.5625 5.09375 
Q 40.234375 -1.421875 26.90625 -1.421875 
Q 22.3125 -1.421875 17.546875 -0.640625 
Q 12.796875 0.140625 7.71875 1.703125 
L 7.71875 11.625 
Q 12.109375 9.234375 16.796875 8.0625 
Q 21.484375 6.890625 26.703125 6.890625 
Q 35.15625 6.890625 40.078125 11.328125 
Q 45.015625 15.765625 45.015625 23.390625 
Q 45.015625 31 40.078125 35.4375 
Q 35.15625 39.890625 26.703125 39.890625 
Q 22.75 39.890625 18.8125 39.015625 
Q 14.890625 38.140625 10.796875 36.28125 
z
" id="DejaVuSans-35"/>
      </defs>
      <g transform="translate(370.49348 322.182437)scale(0.1 -0.1)">
       <use xlink:href="#DejaVuSans-35"/>
       <use x="63.623047" xlink:href="#DejaVuSans-30"/>
       <use x="127.246094" xlink:href="#DejaVuSans-30"/>
      </g>
     </g>
    </g>
    <g id="text_7">
     <!-- $\gamma_i$ -->
     <defs>
      <path d="M 23.296875 46.09375 
L 28.71875 12.3125 
L 54 54.6875 
L 63.53125 54.6875 
L 30.8125 0 
L 26.765625 -20.796875 
L 17.78125 -20.796875 
L 21.828125 0 
L 15.4375 40.828125 
Q 14.453125 46.96875 9.8125 46.96875 
L 7.421875 46.96875 
L 8.890625 54.6875 
L 12.3125 54.6875 
Q 21.921875 54.6875 23.296875 46.09375 
" id="DejaVuSans-Oblique-3b3"/>
      <path d="M 18.3125 75.984375 
L 27.296875 75.984375 
L 25.09375 64.59375 
L 16.109375 64.59375 
z
M 14.203125 54.6875 
L 23.1875 54.6875 
L 12.5 0 
L 3.515625 0 
z
" id="DejaVuSans-Oblique-69"/>
     </defs>
     <g transform="translate(232.06 335.84025)scale(0.1 -0.1)">
      <use transform="translate(0 0.3125)" xlink:href="#DejaVuSans-Oblique-3b3"/>
      <use transform="translate(59.179688 -16.09375)scale(0.7)" xlink:href="#DejaVuSans-Oblique-69"/>
     </g>
    </g>
   </g>
   <g id="matplotlib.axis_2">
    <g id="ytick_1">
     <g id="line2d_13">
      <path clip-path="url(#p465f4fe85c)" d="M 57.6 278.050043 
L 414.72 278.050043 
" style="fill:none;stroke:#b0b0b0;stroke-linecap:square;stroke-width:0.8;"/>
     </g>
     <g id="line2d_14">
      <defs>
       <path d="M 0 0 
L -3.5 0 
" id="md624fb7517" style="stroke:#000000;stroke-width:0.8;"/>
      </defs>
      <g>
       <use style="stroke:#000000;stroke-width:0.8;" x="57.6" xlink:href="#md624fb7517" y="278.050043"/>
      </g>
     </g>
     <g id="text_8">
      <!-- ${10^{-192}}$ -->
      <defs>
       <path d="M 10.59375 35.5 
L 73.1875 35.5 
L 73.1875 27.203125 
L 10.59375 27.203125 
z
" id="DejaVuSans-2212"/>
       <path d="M 10.984375 1.515625 
L 10.984375 10.5 
Q 14.703125 8.734375 18.5 7.8125 
Q 22.3125 6.890625 25.984375 6.890625 
Q 35.75 6.890625 40.890625 13.453125 
Q 46.046875 20.015625 46.78125 33.40625 
Q 43.953125 29.203125 39.59375 26.953125 
Q 35.25 24.703125 29.984375 24.703125 
Q 19.046875 24.703125 12.671875 31.3125 
Q 6.296875 37.9375 6.296875 49.421875 
Q 6.296875 60.640625 12.9375 67.421875 
Q 19.578125 74.21875 30.609375 74.21875 
Q 43.265625 74.21875 49.921875 64.515625 
Q 56.59375 54.828125 56.59375 36.375 
Q 56.59375 19.140625 48.40625 8.859375 
Q 40.234375 -1.421875 26.421875 -1.421875 
Q 22.703125 -1.421875 18.890625 -0.6875 
Q 15.09375 0.046875 10.984375 1.515625 
M 30.609375 32.421875 
Q 37.25 32.421875 41.125 36.953125 
Q 45.015625 41.5 45.015625 49.421875 
Q 45.015625 57.28125 41.125 61.84375 
Q 37.25 66.40625 30.609375 66.40625 
Q 23.96875 66.40625 20.09375 61.84375 
Q 16.21875 57.28125 16.21875 49.421875 
Q 16.21875 41.5 20.09375 36.953125 
Q 23.96875 32.421875 30.609375 32.421875 
" id="DejaVuSans-39"/>
      </defs>
      <g transform="translate(18.2 281.849262)scale(0.1 -0.1)">
       <use transform="translate(0 0.765625)" xlink:href="#DejaVuSans-31"/>
       <use transform="translate(63.623047 0.765625)" xlink:href="#DejaVuSans-30"/>
       <use transform="translate(128.203125 39.046875)scale(0.7)" xlink:href="#DejaVuSans-2212"/>
       <use transform="translate(186.855469 39.046875)scale(0.7)" xlink:href="#DejaVuSans-31"/>
       <use transform="translate(231.391602 39.046875)scale(0.7)" xlink:href="#DejaVuSans-39"/>
       <use transform="translate(275.916797 39.046875)scale(0.7)" xlink:href="#DejaVuSans-32"/>
      </g>
     </g>
    </g>
    <g id="ytick_2">
     <g id="line2d_15">
      <path clip-path="url(#p465f4fe85c)" d="M 57.6 247.511911 
L 414.72 247.511911 
" style="fill:none;stroke:#b0b0b0;stroke-linecap:square;stroke-width:0.8;"/>
     </g>
     <g id="line2d_16">
      <g>
       <use style="stroke:#000000;stroke-width:0.8;" x="57.6" xlink:href="#md624fb7517" y="247.511911"/>
      </g>
     </g>
     <g id="text_9">
      <!-- ${10^{-166}}$ -->
      <defs>
       <path d="M 33.015625 40.375 
Q 26.375 40.375 22.484375 35.828125 
Q 18.609375 31.296875 18.609375 23.390625 
Q 18.609375 15.53125 22.484375 10.953125 
Q 26.375 6.390625 33.015625 6.390625 
Q 39.65625 6.390625 43.53125 10.953125 
Q 47.40625 15.53125 47.40625 23.390625 
Q 47.40625 31.296875 43.53125 35.828125 
Q 39.65625 40.375 33.015625 40.375 
M 52.59375 71.296875 
L 52.59375 62.3125 
Q 48.875 64.0625 45.09375 64.984375 
Q 41.3125 65.921875 37.59375 65.921875 
Q 27.828125 65.921875 22.671875 59.328125 
Q 17.53125 52.734375 16.796875 39.40625 
Q 19.671875 43.65625 24.015625 45.921875 
Q 28.375 48.1875 33.59375 48.1875 
Q 44.578125 48.1875 50.953125 41.515625 
Q 57.328125 34.859375 57.328125 23.390625 
Q 57.328125 12.15625 50.6875 5.359375 
Q 44.046875 -1.421875 33.015625 -1.421875 
Q 20.359375 -1.421875 13.671875 8.265625 
Q 6.984375 17.96875 6.984375 36.375 
Q 6.984375 53.65625 15.1875 63.9375 
Q 23.390625 74.21875 37.203125 74.21875 
Q 40.921875 74.21875 44.703125 73.484375 
Q 48.484375 72.75 52.59375 71.296875 
" id="DejaVuSans-36"/>
      </defs>
      <g transform="translate(18.2 251.31113)scale(0.1 -0.1)">
       <use transform="translate(0 0.765625)" xlink:href="#DejaVuSans-31"/>
       <use transform="translate(63.623047 0.765625)" xlink:href="#DejaVuSans-30"/>
       <use transform="translate(128.203125 39.046875)scale(0.7)" xlink:href="#DejaVuSans-2212"/>
       <use transform="translate(186.855469 39.046875)scale(0.7)" xlink:href="#DejaVuSans-31"/>
       <use transform="translate(231.391602 39.046875)scale(0.7)" xlink:href="#DejaVuSans-36"/>
       <use transform="translate(275.927734 39.046875)scale(0.7)" xlink:href="#DejaVuSans-36"/>
      </g>
     </g>
    </g>
    <g id="ytick_3">
     <g id="line2d_17">
      <path clip-path="url(#p465f4fe85c)" d="M 57.6 216.97378 
L 414.72 216.97378 
" style="fill:none;stroke:#b0b0b0;stroke-linecap:square;stroke-width:0.8;"/>
     </g>
     <g id="line2d_18">
      <g>
       <use style="stroke:#000000;stroke-width:0.8;" x="57.6" xlink:href="#md624fb7517" y="216.97378"/>
      </g>
     </g>
     <g id="text_10">
      <!-- ${10^{-140}}$ -->
      <g transform="translate(18.2 220.772999)scale(0.1 -0.1)">
       <use transform="translate(0 0.765625)" xlink:href="#DejaVuSans-31"/>
       <use transform="translate(63.623047 0.765625)" xlink:href="#DejaVuSans-30"/>
       <use transform="translate(128.203125 39.046875)scale(0.7)" xlink:href="#DejaVuSans-2212"/>
       <use transform="translate(186.855469 39.046875)scale(0.7)" xlink:href="#DejaVuSans-31"/>
       <use transform="translate(231.391602 39.046875)scale(0.7)" xlink:href="#DejaVuSans-34"/>
       <use transform="translate(275.927734 39.046875)scale(0.7)" xlink:href="#DejaVuSans-30"/>
      </g>
     </g>
    </g>
    <g id="ytick_4">
     <g id="line2d_19">
      <path clip-path="url(#p465f4fe85c)" d="M 57.6 186.435648 
L 414.72 186.435648 
" style="fill:none;stroke:#b0b0b0;stroke-linecap:square;stroke-width:0.8;"/>
     </g>
     <g id="line2d_20">
      <g>
       <use style="stroke:#000000;stroke-width:0.8;" x="57.6" xlink:href="#md624fb7517" y="186.435648"/>
      </g>
     </g>
     <g id="text_11">
      <!-- ${10^{-114}}$ -->
      <g transform="translate(18.2 190.234867)scale(0.1 -0.1)">
       <use transform="translate(0 0.684375)" xlink:href="#DejaVuSans-31"/>
       <use transform="translate(63.623047 0.684375)" xlink:href="#DejaVuSans-30"/>
       <use transform="translate(128.203125 38.965625)scale(0.7)" xlink:href="#DejaVuSans-2212"/>
       <use transform="translate(186.855469 38.965625)scale(0.7)" xlink:href="#DejaVuSans-31"/>
       <use transform="translate(231.391602 38.965625)scale(0.7)" xlink:href="#DejaVuSans-31"/>
       <use transform="translate(275.927734 38.965625)scale(0.7)" xlink:href="#DejaVuSans-34"/>
      </g>
     </g>
    </g>
    <g id="ytick_5">
     <g id="line2d_21">
      <path clip-path="url(#p465f4fe85c)" d="M 57.6 155.897517 
L 414.72 155.897517 
" style="fill:none;stroke:#b0b0b0;stroke-linecap:square;stroke-width:0.8;"/>
     </g>
     <g id="line2d_22">
      <g>
       <use style="stroke:#000000;stroke-width:0.8;" x="57.6" xlink:href="#md624fb7517" y="155.897517"/>
      </g>
     </g>
     <g id="text_12">
      <!-- ${10^{-88}}$ -->
      <defs>
       <path d="M 31.78125 34.625 
Q 24.75 34.625 20.71875 30.859375 
Q 16.703125 27.09375 16.703125 20.515625 
Q 16.703125 13.921875 20.71875 10.15625 
Q 24.75 6.390625 31.78125 6.390625 
Q 38.8125 6.390625 42.859375 10.171875 
Q 46.921875 13.96875 46.921875 20.515625 
Q 46.921875 27.09375 42.890625 30.859375 
Q 38.875 34.625 31.78125 34.625 
M 21.921875 38.8125 
Q 15.578125 40.375 12.03125 44.71875 
Q 8.5 49.078125 8.5 55.328125 
Q 8.5 64.0625 14.71875 69.140625 
Q 20.953125 74.21875 31.78125 74.21875 
Q 42.671875 74.21875 48.875 69.140625 
Q 55.078125 64.0625 55.078125 55.328125 
Q 55.078125 49.078125 51.53125 44.71875 
Q 48 40.375 41.703125 38.8125 
Q 48.828125 37.15625 52.796875 32.3125 
Q 56.78125 27.484375 56.78125 20.515625 
Q 56.78125 9.90625 50.3125 4.234375 
Q 43.84375 -1.421875 31.78125 -1.421875 
Q 19.734375 -1.421875 13.25 4.234375 
Q 6.78125 9.90625 6.78125 20.515625 
Q 6.78125 27.484375 10.78125 32.3125 
Q 14.796875 37.15625 21.921875 38.8125 
M 18.3125 54.390625 
Q 18.3125 48.734375 21.84375 45.5625 
Q 25.390625 42.390625 31.78125 42.390625 
Q 38.140625 42.390625 41.71875 45.5625 
Q 45.3125 48.734375 45.3125 54.390625 
Q 45.3125 60.0625 41.71875 63.234375 
Q 38.140625 66.40625 31.78125 66.40625 
Q 25.390625 66.40625 21.84375 63.234375 
Q 18.3125 60.0625 18.3125 54.390625 
" id="DejaVuSans-38"/>
      </defs>
      <g transform="translate(22.7 159.696735)scale(0.1 -0.1)">
       <use transform="translate(0 0.765625)" xlink:href="#DejaVuSans-31"/>
       <use transform="translate(63.623047 0.765625)" xlink:href="#DejaVuSans-30"/>
       <use transform="translate(128.203125 39.046875)scale(0.7)" xlink:href="#DejaVuSans-2212"/>
       <use transform="translate(186.855469 39.046875)scale(0.7)" xlink:href="#DejaVuSans-38"/>
       <use transform="translate(231.391602 39.046875)scale(0.7)" xlink:href="#DejaVuSans-38"/>
      </g>
     </g>
    </g>
    <g id="ytick_6">
     <g id="line2d_23">
      <path clip-path="url(#p465f4fe85c)" d="M 57.6 125.359385 
L 414.72 125.359385 
" style="fill:none;stroke:#b0b0b0;stroke-linecap:square;stroke-width:0.8;"/>
     </g>
     <g id="line2d_24">
      <g>
       <use style="stroke:#000000;stroke-width:0.8;" x="57.6" xlink:href="#md624fb7517" y="125.359385"/>
      </g>
     </g>
     <g id="text_13">
      <!-- ${10^{-62}}$ -->
      <g transform="translate(22.7 129.158604)scale(0.1 -0.1)">
       <use transform="translate(0 0.765625)" xlink:href="#DejaVuSans-31"/>
       <use transform="translate(63.623047 0.765625)" xlink:href="#DejaVuSans-30"/>
       <use transform="translate(128.203125 39.046875)scale(0.7)" xlink:href="#DejaVuSans-2212"/>
       <use transform="translate(186.855469 39.046875)scale(0.7)" xlink:href="#DejaVuSans-36"/>
       <use transform="translate(231.391602 39.046875)scale(0.7)" xlink:href="#DejaVuSans-32"/>
      </g>
     </g>
    </g>
    <g id="ytick_7">
     <g id="line2d_25">
      <path clip-path="url(#p465f4fe85c)" d="M 57.6 94.821253 
L 414.72 94.821253 
" style="fill:none;stroke:#b0b0b0;stroke-linecap:square;stroke-width:0.8;"/>
     </g>
     <g id="line2d_26">
      <g>
       <use style="stroke:#000000;stroke-width:0.8;" x="57.6" xlink:href="#md624fb7517" y="94.821253"/>
      </g>
     </g>
     <g id="text_14">
      <!-- ${10^{-36}}$ -->
      <g transform="translate(22.7 98.620472)scale(0.1 -0.1)">
       <use transform="translate(0 0.765625)" xlink:href="#DejaVuSans-31"/>
       <use transform="translate(63.623047 0.765625)" xlink:href="#DejaVuSans-30"/>
       <use transform="translate(128.203125 39.046875)scale(0.7)" xlink:href="#DejaVuSans-2212"/>
       <use transform="translate(186.855469 39.046875)scale(0.7)" xlink:href="#DejaVuSans-33"/>
       <use transform="translate(231.391602 39.046875)scale(0.7)" xlink:href="#DejaVuSans-36"/>
      </g>
     </g>
    </g>
    <g id="ytick_8">
     <g id="line2d_27">
      <path clip-path="url(#p465f4fe85c)" d="M 57.6 64.283122 
L 414.72 64.283122 
" style="fill:none;stroke:#b0b0b0;stroke-linecap:square;stroke-width:0.8;"/>
     </g>
     <g id="line2d_28">
      <g>
       <use style="stroke:#000000;stroke-width:0.8;" x="57.6" xlink:href="#md624fb7517" y="64.283122"/>
      </g>
     </g>
     <g id="text_15">
      <!-- ${10^{-10}}$ -->
      <g transform="translate(22.7 68.08234)scale(0.1 -0.1)">
       <use transform="translate(0 0.765625)" xlink:href="#DejaVuSans-31"/>
       <use transform="translate(63.623047 0.765625)" xlink:href="#DejaVuSans-30"/>
       <use transform="translate(128.203125 39.046875)scale(0.7)" xlink:href="#DejaVuSans-2212"/>
       <use transform="translate(186.855469 39.046875)scale(0.7)" xlink:href="#DejaVuSans-31"/>
       <use transform="translate(231.391602 39.046875)scale(0.7)" xlink:href="#DejaVuSans-30"/>
      </g>
     </g>
    </g>
    <g id="text_16">
     <!-- $\omega_i$ -->
     <defs>
      <path d="M 21.390625 -1.421875 
Q 1.125 -1.421875 6.78125 27.59375 
Q 8.984375 39.0625 19.625 54.6875 
L 29.296875 54.6875 
Q 19.234375 39.0625 17 27.34375 
Q 12.796875 6.203125 23.734375 6.203125 
Q 33.84375 6.203125 38.71875 32.46875 
L 47.015625 32.46875 
Q 41.703125 6.0625 51.8125 6.203125 
Q 62.703125 6.296875 66.796875 27.34375 
Q 69.046875 39.0625 65.140625 54.6875 
L 74.8125 54.6875 
Q 79.296875 39.0625 77.09375 27.59375 
Q 71.53125 -1.46875 51.21875 -1.421875 
Q 37.9375 -1.375 39.109375 13.1875 
Q 34.28125 -1.421875 21.390625 -1.421875 
" id="DejaVuSans-Oblique-3c9"/>
     </defs>
     <g transform="translate(12.120313 179.828)rotate(-90)scale(0.1 -0.1)">
      <use transform="translate(0 0.3125)" xlink:href="#DejaVuSans-Oblique-3c9"/>
      <use transform="translate(83.740234 -16.09375)scale(0.7)" xlink:href="#DejaVuSans-Oblique-69"/>
     </g>
    </g>
   </g>
   <g id="line2d_29">
    <defs>
     <path d="M 0 3 
C 0.795609 3 1.55874 2.683901 2.12132 2.12132 
C 2.683901 1.55874 3 0.795609 3 0 
C 3 -0.795609 2.683901 -1.55874 2.12132 -2.12132 
C 1.55874 -2.683901 0.795609 -3 0 -3 
C -0.795609 -3 -1.55874 -2.683901 -2.12132 -2.12132 
C -2.683901 -1.55874 -3 -0.795609 -3 0 
C -3 0.795609 -2.683901 1.55874 -2.12132 2.12132 
C -1.55874 2.683901 -0.795609 3 0 3 
z
" id="mec628fcb76" style="stroke:#1f77b4;"/>
    </defs>
    <g clip-path="url(#p465f4fe85c)">
     <use style="fill:#1f77b4;stroke:#1f77b4;" x="262.640548" xlink:href="#mec628fcb76" y="213.185335"/>
     <use style="fill:#1f77b4;stroke:#1f77b4;" x="284.908497" xlink:href="#mec628fcb76" y="230.599438"/>
     <use style="fill:#1f77b4;stroke:#1f77b4;" x="232.609658" xlink:href="#mec628fcb76" y="189.56789"/>
     <use style="fill:#1f77b4;stroke:#1f77b4;" x="272.552549" xlink:href="#mec628fcb76" y="220.955922"/>
     <use style="fill:#1f77b4;stroke:#1f77b4;" x="135.43318" xlink:href="#mec628fcb76" y="112.977645"/>
     <use style="fill:#1f77b4;stroke:#1f77b4;" x="122.567659" xlink:href="#mec628fcb76" y="102.84605"/>
     <use style="fill:#1f77b4;stroke:#1f77b4;" x="76.056008" xlink:href="#mec628fcb76" y="66.368049"/>
     <use style="fill:#1f77b4;stroke:#1f77b4;" x="130.088136" xlink:href="#mec628fcb76" y="108.767577"/>
     <use style="fill:#1f77b4;stroke:#1f77b4;" x="414.076413" xlink:href="#mec628fcb76" y="295.488"/>
     <use style="fill:#1f77b4;stroke:#1f77b4;" x="78.395706" xlink:href="#mec628fcb76" y="68.18827"/>
     <use style="fill:#1f77b4;stroke:#1f77b4;" x="159.885667" xlink:href="#mec628fcb76" y="132.247777"/>
     <use style="fill:#1f77b4;stroke:#1f77b4;" x="67.408182" xlink:href="#mec628fcb76" y="59.693573"/>
     <use style="fill:#1f77b4;stroke:#1f77b4;" x="156.527932" xlink:href="#mec628fcb76" y="129.600989"/>
     <use style="fill:#1f77b4;stroke:#1f77b4;" x="153.263516" xlink:href="#mec628fcb76" y="127.027917"/>
     <use style="fill:#1f77b4;stroke:#1f77b4;" x="254.035818" xlink:href="#mec628fcb76" y="206.426526"/>
     <use style="fill:#1f77b4;stroke:#1f77b4;" x="120.185962" xlink:href="#mec628fcb76" y="100.97133"/>
     <use style="fill:#1f77b4;stroke:#1f77b4;" x="199.887266" xlink:href="#mec628fcb76" y="163.783808"/>
     <use style="fill:#1f77b4;stroke:#1f77b4;" x="132.72617" xlink:href="#mec628fcb76" y="110.845313"/>
     <use style="fill:#1f77b4;stroke:#1f77b4;" x="113.393885" xlink:href="#mec628fcb76" y="95.626988"/>
     <use style="fill:#1f77b4;stroke:#1f77b4;" x="190.763095" xlink:href="#mec628fcb76" y="156.590857"/>
     <use style="fill:#1f77b4;stroke:#1f77b4;" x="178.248103" xlink:href="#mec628fcb76" y="146.724055"/>
     <use style="fill:#1f77b4;stroke:#1f77b4;" x="66.631064" xlink:href="#mec628fcb76" y="59.101218"/>
     <use style="fill:#1f77b4;stroke:#1f77b4;" x="97.646299" xlink:href="#mec628fcb76" y="83.251879"/>
     <use style="fill:#1f77b4;stroke:#1f77b4;" x="62.713439" xlink:href="#mec628fcb76" y="56.162753"/>
     <use style="fill:#1f77b4;stroke:#1f77b4;" x="95.900687" xlink:href="#mec628fcb76" y="81.882061"/>
     <use style="fill:#1f77b4;stroke:#1f77b4;" x="111.242845" xlink:href="#mec628fcb76" y="93.93514"/>
     <use style="fill:#1f77b4;stroke:#1f77b4;" x="90.940405" xlink:href="#mec628fcb76" y="77.992719"/>
     <use style="fill:#1f77b4;stroke:#1f77b4;" x="92.548477" xlink:href="#mec628fcb76" y="79.253052"/>
     <use style="fill:#1f77b4;stroke:#1f77b4;" x="65.184022" xlink:href="#mec628fcb76" y="58.004535"/>
     <use style="fill:#1f77b4;stroke:#1f77b4;" x="63.878582" xlink:href="#mec628fcb76" y="57.024964"/>
     <use style="fill:#1f77b4;stroke:#1f77b4;" x="107.102664" xlink:href="#mec628fcb76" y="90.679909"/>
     <use style="fill:#1f77b4;stroke:#1f77b4;" x="103.170861" xlink:href="#mec628fcb76" y="87.590108"/>
     <use style="fill:#1f77b4;stroke:#1f77b4;" x="226.426503" xlink:href="#mec628fcb76" y="184.698119"/>
     <use style="fill:#1f77b4;stroke:#1f77b4;" x="163.341172" xlink:href="#mec628fcb76" y="134.971776"/>
     <use style="fill:#1f77b4;stroke:#1f77b4;" x="170.565728" xlink:href="#mec628fcb76" y="140.667297"/>
     <use style="fill:#1f77b4;stroke:#1f77b4;" x="209.771486" xlink:href="#mec628fcb76" y="171.574817"/>
     <use style="fill:#1f77b4;stroke:#1f77b4;" x="82.203461" xlink:href="#mec628fcb76" y="71.157655"/>
     <use style="fill:#1f77b4;stroke:#1f77b4;" x="246.299525" xlink:href="#mec628fcb76" y="200.343137"/>
     <use style="fill:#1f77b4;stroke:#1f77b4;" x="195.23863" xlink:href="#mec628fcb76" y="160.119193"/>
     <use style="fill:#1f77b4;stroke:#1f77b4;" x="80.893858" xlink:href="#mec628fcb76" y="70.135553"/>
     <use style="fill:#1f77b4;stroke:#1f77b4;" x="101.280524" xlink:href="#mec628fcb76" y="86.105231"/>
     <use style="fill:#1f77b4;stroke:#1f77b4;" x="77.206261" xlink:href="#mec628fcb76" y="67.26243"/>
     <use style="fill:#1f77b4;stroke:#1f77b4;" x="204.72512" xlink:href="#mec628fcb76" y="167.597319"/>
     <use style="fill:#1f77b4;stroke:#1f77b4;" x="166.899369" xlink:href="#mec628fcb76" y="137.776852"/>
     <use style="fill:#1f77b4;stroke:#1f77b4;" x="220.589225" xlink:href="#mec628fcb76" y="180.099499"/>
     <use style="fill:#1f77b4;stroke:#1f77b4;" x="215.049831" xlink:href="#mec628fcb76" y="175.734644"/>
     <use style="fill:#1f77b4;stroke:#1f77b4;" x="125.010766" xlink:href="#mec628fcb76" y="104.769425"/>
     <use style="fill:#1f77b4;stroke:#1f77b4;" x="70.87945" xlink:href="#mec628fcb76" y="62.35877"/>
     <use style="fill:#1f77b4;stroke:#1f77b4;" x="63.27854" xlink:href="#mec628fcb76" y="56.57914"/>
     <use style="fill:#1f77b4;stroke:#1f77b4;" x="64.513692" xlink:href="#mec628fcb76" y="57.500113"/>
     <use style="fill:#1f77b4;stroke:#1f77b4;" x="84.946128" xlink:href="#mec628fcb76" y="73.300578"/>
     <use style="fill:#1f77b4;stroke:#1f77b4;" x="68.221329" xlink:href="#mec628fcb76" y="60.315382"/>
     <use style="fill:#1f77b4;stroke:#1f77b4;" x="73.871518" xlink:href="#mec628fcb76" y="64.672553"/>
     <use style="fill:#1f77b4;stroke:#1f77b4;" x="59.089077" xlink:href="#mec628fcb76" y="53.787592"/>
     <use style="fill:#1f77b4;stroke:#1f77b4;" x="69.070748" xlink:href="#mec628fcb76" y="60.966758"/>
     <use style="fill:#1f77b4;stroke:#1f77b4;" x="117.864081" xlink:href="#mec628fcb76" y="99.144016"/>
     <use style="fill:#1f77b4;stroke:#1f77b4;" x="138.211422" xlink:href="#mec628fcb76" y="115.166343"/>
     <use style="fill:#1f77b4;stroke:#1f77b4;" x="69.956697" xlink:href="#mec628fcb76" y="61.647835"/>
     <use style="fill:#1f77b4;stroke:#1f77b4;" x="141.063324" xlink:href="#mec628fcb76" y="117.413315"/>
     <use style="fill:#1f77b4;stroke:#1f77b4;" x="58.70568" xlink:href="#mec628fcb76" y="53.588961"/>
     <use style="fill:#1f77b4;stroke:#1f77b4;" x="60.060562" xlink:href="#mec628fcb76" y="54.315841"/>
     <use style="fill:#1f77b4;stroke:#1f77b4;" x="127.516985" xlink:href="#mec628fcb76" y="106.742791"/>
     <use style="fill:#1f77b4;stroke:#1f77b4;" x="79.62476" xlink:href="#mec628fcb76" y="69.145871"/>
     <use style="fill:#1f77b4;stroke:#1f77b4;" x="115.600523" xlink:href="#mec628fcb76" y="97.362935"/>
     <use style="fill:#1f77b4;stroke:#1f77b4;" x="58.250082" xlink:href="#mec628fcb76" y="54.395745"/>
     <use style="fill:#1f77b4;stroke:#1f77b4;" x="89.376767" xlink:href="#mec628fcb76" y="76.767791"/>
     <use style="fill:#1f77b4;stroke:#1f77b4;" x="143.991512" xlink:href="#mec628fcb76" y="119.720623"/>
     <use style="fill:#1f77b4;stroke:#1f77b4;" x="94.201665" xlink:href="#mec628fcb76" y="80.549314"/>
     <use style="fill:#1f77b4;stroke:#1f77b4;" x="174.346354" xlink:href="#mec628fcb76" y="143.647905"/>
     <use style="fill:#1f77b4;stroke:#1f77b4;" x="58.430161" xlink:href="#mec628fcb76" y="53.603051"/>
     <use style="fill:#1f77b4;stroke:#1f77b4;" x="74.944552" xlink:href="#mec628fcb76" y="65.504845"/>
     <use style="fill:#1f77b4;stroke:#1f77b4;" x="72.836546" xlink:href="#mec628fcb76" y="63.870927"/>
     <use style="fill:#1f77b4;stroke:#1f77b4;" x="60.412373" xlink:href="#mec628fcb76" y="54.537457"/>
     <use style="fill:#1f77b4;stroke:#1f77b4;" x="59.497105" xlink:href="#mec628fcb76" y="54.069804"/>
     <use style="fill:#1f77b4;stroke:#1f77b4;" x="105.111245" xlink:href="#mec628fcb76" y="89.114743"/>
     <use style="fill:#1f77b4;stroke:#1f77b4;" x="87.856914" xlink:href="#mec628fcb76" y="75.577769"/>
     <use style="fill:#1f77b4;stroke:#1f77b4;" x="61.227242" xlink:href="#mec628fcb76" y="55.092985"/>
     <use style="fill:#1f77b4;stroke:#1f77b4;" x="61.687769" xlink:href="#mec628fcb76" y="55.419223"/>
     <use style="fill:#1f77b4;stroke:#1f77b4;" x="182.278722" xlink:href="#mec628fcb76" y="149.901823"/>
     <use style="fill:#1f77b4;stroke:#1f77b4;" x="65.889748" xlink:href="#mec628fcb76" y="58.538226"/>
     <use style="fill:#1f77b4;stroke:#1f77b4;" x="58.887175" xlink:href="#mec628fcb76" y="53.660002"/>
     <use style="fill:#1f77b4;stroke:#1f77b4;" x="60.801876" xlink:href="#mec628fcb76" y="54.798334"/>
     <use style="fill:#1f77b4;stroke:#1f77b4;" x="109.146162" xlink:href="#mec628fcb76" y="92.286419"/>
     <use style="fill:#1f77b4;stroke:#1f77b4;" x="59.751544" xlink:href="#mec628fcb76" y="54.149829"/>
     <use style="fill:#1f77b4;stroke:#1f77b4;" x="146.998833" xlink:href="#mec628fcb76" y="122.090505"/>
     <use style="fill:#1f77b4;stroke:#1f77b4;" x="83.554049" xlink:href="#mec628fcb76" y="72.212537"/>
     <use style="fill:#1f77b4;stroke:#1f77b4;" x="58.55248" xlink:href="#mec628fcb76" y="53.568"/>
     <use style="fill:#1f77b4;stroke:#1f77b4;" x="58.280206" xlink:href="#mec628fcb76" y="53.933915"/>
     <use style="fill:#1f77b4;stroke:#1f77b4;" x="239.20347" xlink:href="#mec628fcb76" y="194.759199"/>
     <use style="fill:#1f77b4;stroke:#1f77b4;" x="58.339508" xlink:href="#mec628fcb76" y="53.711436"/>
     <use style="fill:#1f77b4;stroke:#1f77b4;" x="186.447019" xlink:href="#mec628fcb76" y="153.188118"/>
     <use style="fill:#1f77b4;stroke:#1f77b4;" x="59.292002" xlink:href="#mec628fcb76" y="53.970769"/>
     <use style="fill:#1f77b4;stroke:#1f77b4;" x="71.839298" xlink:href="#mec628fcb76" y="63.099736"/>
     <use style="fill:#1f77b4;stroke:#1f77b4;" x="86.38023" xlink:href="#mec628fcb76" y="74.422181"/>
     <use style="fill:#1f77b4;stroke:#1f77b4;" x="150.088378" xlink:href="#mec628fcb76" y="124.525387"/>
     <use style="fill:#1f77b4;stroke:#1f77b4;" x="99.439299" xlink:href="#mec628fcb76" y="84.659385"/>
     <use style="fill:#1f77b4;stroke:#1f77b4;" x="62.183192" xlink:href="#mec628fcb76" y="55.776002"/>
    </g>
   </g>
   <g id="patch_3">
    <path d="M 57.6 307.584 
L 57.6 41.472 
" style="fill:none;stroke:#000000;stroke-linecap:square;stroke-linejoin:miter;stroke-width:0.8;"/>
   </g>
   <g id="patch_4">
    <path d="M 414.72 307.584 
L 414.72 41.472 
" style="fill:none;stroke:#000000;stroke-linecap:square;stroke-linejoin:miter;stroke-width:0.8;"/>
   </g>
   <g id="patch_5">
    <path d="M 57.6 307.584 
L 414.72 307.584 
" style="fill:none;stroke:#000000;stroke-linecap:square;stroke-linejoin:miter;stroke-width:0.8;"/>
   </g>
   <g id="patch_6">
    <path d="M 57.6 41.472 
L 414.72 41.472 
" style="fill:none;stroke:#000000;stroke-linecap:square;stroke-linejoin:miter;stroke-width:0.8;"/>
   </g>
  </g>
 </g>
 <defs>
  <clipPath id="p465f4fe85c">
   <rect height="266.112" width="357.12" x="57.6" y="41.472"/>
  </clipPath>
 </defs>
</svg>
