<?xml version="1.0" encoding="utf-8" standalone="no"?>
<!DOCTYPE svg PUBLIC "-//W3C//DTD SVG 1.1//EN"
  "http://www.w3.org/Graphics/SVG/1.1/DTD/svg11.dtd">
<!-- Created with matplotlib (http://matplotlib.org/) -->
<svg height="345pt" version="1.1" viewBox="0 0 460 345" width="460pt" xmlns="http://www.w3.org/2000/svg" xmlns:xlink="http://www.w3.org/1999/xlink">
 <defs>
  <style type="text/css">
*{stroke-linecap:butt;stroke-linejoin:round;}
  </style>
 </defs>
 <g id="figure_1">
  <g id="patch_1">
   <path d="M 0 345.6 
L 460.8 345.6 
L 460.8 0 
L 0 0 
z
" style="fill:#ffffff;"/>
  </g>
  <g id="axes_1">
   <g id="patch_2">
    <path d="M 57.6 307.584 
L 414.72 307.584 
L 414.72 41.472 
L 57.6 41.472 
z
" style="fill:#ffffff;"/>
   </g>
   <g id="matplotlib.axis_1">
    <g id="xtick_1">
     <g id="line2d_1">
      <path clip-path="url(#p175b9bc6ae)" d="M 58.681358 307.584 
L 58.681358 41.472 
" style="fill:none;stroke:#b0b0b0;stroke-linecap:square;stroke-width:0.8;"/>
     </g>
     <g id="line2d_2">
      <defs>
       <path d="M 0 0 
L 0 3.5 
" id="m45528680ea" style="stroke:#000000;stroke-width:0.8;"/>
      </defs>
      <g>
       <use style="stroke:#000000;stroke-width:0.8;" x="58.681358" xlink:href="#m45528680ea" y="307.584"/>
      </g>
     </g>
     <g id="text_1">
      <!-- 0 -->
      <defs>
       <path d="M 31.78125 66.40625 
Q 24.171875 66.40625 20.328125 58.90625 
Q 16.5 51.421875 16.5 36.375 
Q 16.5 21.390625 20.328125 13.890625 
Q 24.171875 6.390625 31.78125 6.390625 
Q 39.453125 6.390625 43.28125 13.890625 
Q 47.125 21.390625 47.125 36.375 
Q 47.125 51.421875 43.28125 58.90625 
Q 39.453125 66.40625 31.78125 66.40625 
M 31.78125 74.21875 
Q 44.046875 74.21875 50.515625 64.515625 
Q 56.984375 54.828125 56.984375 36.375 
Q 56.984375 17.96875 50.515625 8.265625 
Q 44.046875 -1.421875 31.78125 -1.421875 
Q 19.53125 -1.421875 13.0625 8.265625 
Q 6.59375 17.96875 6.59375 36.375 
Q 6.59375 54.828125 13.0625 64.515625 
Q 19.53125 74.21875 31.78125 74.21875 
" id="DejaVuSans-30"/>
      </defs>
      <g transform="translate(55.500108 322.182437)scale(0.1 -0.1)">
       <use xlink:href="#DejaVuSans-30"/>
      </g>
     </g>
    </g>
    <g id="xtick_2">
     <g id="line2d_3">
      <path clip-path="url(#p175b9bc6ae)" d="M 112.74925 307.584 
L 112.74925 41.472 
" style="fill:none;stroke:#b0b0b0;stroke-linecap:square;stroke-width:0.8;"/>
     </g>
     <g id="line2d_4">
      <g>
       <use style="stroke:#000000;stroke-width:0.8;" x="112.74925" xlink:href="#m45528680ea" y="307.584"/>
      </g>
     </g>
     <g id="text_2">
      <!-- 50 -->
      <defs>
       <path d="M 10.796875 72.90625 
L 49.515625 72.90625 
L 49.515625 64.59375 
L 19.828125 64.59375 
L 19.828125 46.734375 
Q 21.96875 47.46875 24.109375 47.828125 
Q 26.265625 48.1875 28.421875 48.1875 
Q 40.625 48.1875 47.75 41.5 
Q 54.890625 34.8125 54.890625 23.390625 
Q 54.890625 11.625 47.5625 5.09375 
Q 40.234375 -1.421875 26.90625 -1.421875 
Q 22.3125 -1.421875 17.546875 -0.640625 
Q 12.796875 0.140625 7.71875 1.703125 
L 7.71875 11.625 
Q 12.109375 9.234375 16.796875 8.0625 
Q 21.484375 6.890625 26.703125 6.890625 
Q 35.15625 6.890625 40.078125 11.328125 
Q 45.015625 15.765625 45.015625 23.390625 
Q 45.015625 31 40.078125 35.4375 
Q 35.15625 39.890625 26.703125 39.890625 
Q 22.75 39.890625 18.8125 39.015625 
Q 14.890625 38.140625 10.796875 36.28125 
z
" id="DejaVuSans-35"/>
      </defs>
      <g transform="translate(106.38675 322.182437)scale(0.1 -0.1)">
       <use xlink:href="#DejaVuSans-35"/>
       <use x="63.623047" xlink:href="#DejaVuSans-30"/>
      </g>
     </g>
    </g>
    <g id="xtick_3">
     <g id="line2d_5">
      <path clip-path="url(#p175b9bc6ae)" d="M 166.817142 307.584 
L 166.817142 41.472 
" style="fill:none;stroke:#b0b0b0;stroke-linecap:square;stroke-width:0.8;"/>
     </g>
     <g id="line2d_6">
      <g>
       <use style="stroke:#000000;stroke-width:0.8;" x="166.817142" xlink:href="#m45528680ea" y="307.584"/>
      </g>
     </g>
     <g id="text_3">
      <!-- 100 -->
      <defs>
       <path d="M 12.40625 8.296875 
L 28.515625 8.296875 
L 28.515625 63.921875 
L 10.984375 60.40625 
L 10.984375 69.390625 
L 28.421875 72.90625 
L 38.28125 72.90625 
L 38.28125 8.296875 
L 54.390625 8.296875 
L 54.390625 0 
L 12.40625 0 
z
" id="DejaVuSans-31"/>
      </defs>
      <g transform="translate(157.273392 322.182437)scale(0.1 -0.1)">
       <use xlink:href="#DejaVuSans-31"/>
       <use x="63.623047" xlink:href="#DejaVuSans-30"/>
       <use x="127.246094" xlink:href="#DejaVuSans-30"/>
      </g>
     </g>
    </g>
    <g id="xtick_4">
     <g id="line2d_7">
      <path clip-path="url(#p175b9bc6ae)" d="M 220.885033 307.584 
L 220.885033 41.472 
" style="fill:none;stroke:#b0b0b0;stroke-linecap:square;stroke-width:0.8;"/>
     </g>
     <g id="line2d_8">
      <g>
       <use style="stroke:#000000;stroke-width:0.8;" x="220.885033" xlink:href="#m45528680ea" y="307.584"/>
      </g>
     </g>
     <g id="text_4">
      <!-- 150 -->
      <g transform="translate(211.341283 322.182437)scale(0.1 -0.1)">
       <use xlink:href="#DejaVuSans-31"/>
       <use x="63.623047" xlink:href="#DejaVuSans-35"/>
       <use x="127.246094" xlink:href="#DejaVuSans-30"/>
      </g>
     </g>
    </g>
    <g id="xtick_5">
     <g id="line2d_9">
      <path clip-path="url(#p175b9bc6ae)" d="M 274.952925 307.584 
L 274.952925 41.472 
" style="fill:none;stroke:#b0b0b0;stroke-linecap:square;stroke-width:0.8;"/>
     </g>
     <g id="line2d_10">
      <g>
       <use style="stroke:#000000;stroke-width:0.8;" x="274.952925" xlink:href="#m45528680ea" y="307.584"/>
      </g>
     </g>
     <g id="text_5">
      <!-- 200 -->
      <defs>
       <path d="M 19.1875 8.296875 
L 53.609375 8.296875 
L 53.609375 0 
L 7.328125 0 
L 7.328125 8.296875 
Q 12.9375 14.109375 22.625 23.890625 
Q 32.328125 33.6875 34.8125 36.53125 
Q 39.546875 41.84375 41.421875 45.53125 
Q 43.3125 49.21875 43.3125 52.78125 
Q 43.3125 58.59375 39.234375 62.25 
Q 35.15625 65.921875 28.609375 65.921875 
Q 23.96875 65.921875 18.8125 64.3125 
Q 13.671875 62.703125 7.8125 59.421875 
L 7.8125 69.390625 
Q 13.765625 71.78125 18.9375 73 
Q 24.125 74.21875 28.421875 74.21875 
Q 39.75 74.21875 46.484375 68.546875 
Q 53.21875 62.890625 53.21875 53.421875 
Q 53.21875 48.921875 51.53125 44.890625 
Q 49.859375 40.875 45.40625 35.40625 
Q 44.1875 33.984375 37.640625 27.21875 
Q 31.109375 20.453125 19.1875 8.296875 
" id="DejaVuSans-32"/>
      </defs>
      <g transform="translate(265.409175 322.182437)scale(0.1 -0.1)">
       <use xlink:href="#DejaVuSans-32"/>
       <use x="63.623047" xlink:href="#DejaVuSans-30"/>
       <use x="127.246094" xlink:href="#DejaVuSans-30"/>
      </g>
     </g>
    </g>
    <g id="xtick_6">
     <g id="line2d_11">
      <path clip-path="url(#p175b9bc6ae)" d="M 329.020817 307.584 
L 329.020817 41.472 
" style="fill:none;stroke:#b0b0b0;stroke-linecap:square;stroke-width:0.8;"/>
     </g>
     <g id="line2d_12">
      <g>
       <use style="stroke:#000000;stroke-width:0.8;" x="329.020817" xlink:href="#m45528680ea" y="307.584"/>
      </g>
     </g>
     <g id="text_6">
      <!-- 250 -->
      <g transform="translate(319.477067 322.182437)scale(0.1 -0.1)">
       <use xlink:href="#DejaVuSans-32"/>
       <use x="63.623047" xlink:href="#DejaVuSans-35"/>
       <use x="127.246094" xlink:href="#DejaVuSans-30"/>
      </g>
     </g>
    </g>
    <g id="xtick_7">
     <g id="line2d_13">
      <path clip-path="url(#p175b9bc6ae)" d="M 383.088709 307.584 
L 383.088709 41.472 
" style="fill:none;stroke:#b0b0b0;stroke-linecap:square;stroke-width:0.8;"/>
     </g>
     <g id="line2d_14">
      <g>
       <use style="stroke:#000000;stroke-width:0.8;" x="383.088709" xlink:href="#m45528680ea" y="307.584"/>
      </g>
     </g>
     <g id="text_7">
      <!-- 300 -->
      <defs>
       <path d="M 40.578125 39.3125 
Q 47.65625 37.796875 51.625 33 
Q 55.609375 28.21875 55.609375 21.1875 
Q 55.609375 10.40625 48.1875 4.484375 
Q 40.765625 -1.421875 27.09375 -1.421875 
Q 22.515625 -1.421875 17.65625 -0.515625 
Q 12.796875 0.390625 7.625 2.203125 
L 7.625 11.71875 
Q 11.71875 9.328125 16.59375 8.109375 
Q 21.484375 6.890625 26.8125 6.890625 
Q 36.078125 6.890625 40.9375 10.546875 
Q 45.796875 14.203125 45.796875 21.1875 
Q 45.796875 27.640625 41.28125 31.265625 
Q 36.765625 34.90625 28.71875 34.90625 
L 20.21875 34.90625 
L 20.21875 43.015625 
L 29.109375 43.015625 
Q 36.375 43.015625 40.234375 45.921875 
Q 44.09375 48.828125 44.09375 54.296875 
Q 44.09375 59.90625 40.109375 62.90625 
Q 36.140625 65.921875 28.71875 65.921875 
Q 24.65625 65.921875 20.015625 65.03125 
Q 15.375 64.15625 9.8125 62.3125 
L 9.8125 71.09375 
Q 15.4375 72.65625 20.34375 73.4375 
Q 25.25 74.21875 29.59375 74.21875 
Q 40.828125 74.21875 47.359375 69.109375 
Q 53.90625 64.015625 53.90625 55.328125 
Q 53.90625 49.265625 50.4375 45.09375 
Q 46.96875 40.921875 40.578125 39.3125 
" id="DejaVuSans-33"/>
      </defs>
      <g transform="translate(373.544959 322.182437)scale(0.1 -0.1)">
       <use xlink:href="#DejaVuSans-33"/>
       <use x="63.623047" xlink:href="#DejaVuSans-30"/>
       <use x="127.246094" xlink:href="#DejaVuSans-30"/>
      </g>
     </g>
    </g>
    <g id="text_8">
     <!-- $\gamma_i$ -->
     <defs>
      <path d="M 23.296875 46.09375 
L 28.71875 12.3125 
L 54 54.6875 
L 63.53125 54.6875 
L 30.8125 0 
L 26.765625 -20.796875 
L 17.78125 -20.796875 
L 21.828125 0 
L 15.4375 40.828125 
Q 14.453125 46.96875 9.8125 46.96875 
L 7.421875 46.96875 
L 8.890625 54.6875 
L 12.3125 54.6875 
Q 21.921875 54.6875 23.296875 46.09375 
" id="DejaVuSans-Oblique-3b3"/>
      <path d="M 18.3125 75.984375 
L 27.296875 75.984375 
L 25.09375 64.59375 
L 16.109375 64.59375 
z
M 14.203125 54.6875 
L 23.1875 54.6875 
L 12.5 0 
L 3.515625 0 
z
" id="DejaVuSans-Oblique-69"/>
     </defs>
     <g transform="translate(232.06 335.84025)scale(0.1 -0.1)">
      <use transform="translate(0 0.3125)" xlink:href="#DejaVuSans-Oblique-3b3"/>
      <use transform="translate(59.179688 -16.09375)scale(0.7)" xlink:href="#DejaVuSans-Oblique-69"/>
     </g>
    </g>
   </g>
   <g id="matplotlib.axis_2">
    <g id="ytick_1">
     <g id="line2d_15">
      <path clip-path="url(#p175b9bc6ae)" d="M 57.6 277.884044 
L 414.72 277.884044 
" style="fill:none;stroke:#b0b0b0;stroke-linecap:square;stroke-width:0.8;"/>
     </g>
     <g id="line2d_16">
      <defs>
       <path d="M 0 0 
L -3.5 0 
" id="m913aad2ea2" style="stroke:#000000;stroke-width:0.8;"/>
      </defs>
      <g>
       <use style="stroke:#000000;stroke-width:0.8;" x="57.6" xlink:href="#m913aad2ea2" y="277.884044"/>
      </g>
     </g>
     <g id="text_9">
      <!-- ${10^{-131}}$ -->
      <defs>
       <path d="M 10.59375 35.5 
L 73.1875 35.5 
L 73.1875 27.203125 
L 10.59375 27.203125 
z
" id="DejaVuSans-2212"/>
      </defs>
      <g transform="translate(18.2 281.683262)scale(0.1 -0.1)">
       <use transform="translate(0 0.765625)" xlink:href="#DejaVuSans-31"/>
       <use transform="translate(63.623047 0.765625)" xlink:href="#DejaVuSans-30"/>
       <use transform="translate(128.203125 39.046875)scale(0.7)" xlink:href="#DejaVuSans-2212"/>
       <use transform="translate(186.855469 39.046875)scale(0.7)" xlink:href="#DejaVuSans-31"/>
       <use transform="translate(231.391602 39.046875)scale(0.7)" xlink:href="#DejaVuSans-33"/>
       <use transform="translate(275.927734 39.046875)scale(0.7)" xlink:href="#DejaVuSans-31"/>
      </g>
     </g>
    </g>
    <g id="ytick_2">
     <g id="line2d_17">
      <path clip-path="url(#p175b9bc6ae)" d="M 57.6 246.855799 
L 414.72 246.855799 
" style="fill:none;stroke:#b0b0b0;stroke-linecap:square;stroke-width:0.8;"/>
     </g>
     <g id="line2d_18">
      <g>
       <use style="stroke:#000000;stroke-width:0.8;" x="57.6" xlink:href="#m913aad2ea2" y="246.855799"/>
      </g>
     </g>
     <g id="text_10">
      <!-- ${10^{-113}}$ -->
      <g transform="translate(18.2 250.655018)scale(0.1 -0.1)">
       <use transform="translate(0 0.765625)" xlink:href="#DejaVuSans-31"/>
       <use transform="translate(63.623047 0.765625)" xlink:href="#DejaVuSans-30"/>
       <use transform="translate(128.203125 39.046875)scale(0.7)" xlink:href="#DejaVuSans-2212"/>
       <use transform="translate(186.855469 39.046875)scale(0.7)" xlink:href="#DejaVuSans-31"/>
       <use transform="translate(231.391602 39.046875)scale(0.7)" xlink:href="#DejaVuSans-31"/>
       <use transform="translate(275.927734 39.046875)scale(0.7)" xlink:href="#DejaVuSans-33"/>
      </g>
     </g>
    </g>
    <g id="ytick_3">
     <g id="line2d_19">
      <path clip-path="url(#p175b9bc6ae)" d="M 57.6 215.827554 
L 414.72 215.827554 
" style="fill:none;stroke:#b0b0b0;stroke-linecap:square;stroke-width:0.8;"/>
     </g>
     <g id="line2d_20">
      <g>
       <use style="stroke:#000000;stroke-width:0.8;" x="57.6" xlink:href="#m913aad2ea2" y="215.827554"/>
      </g>
     </g>
     <g id="text_11">
      <!-- ${10^{-95}}$ -->
      <defs>
       <path d="M 10.984375 1.515625 
L 10.984375 10.5 
Q 14.703125 8.734375 18.5 7.8125 
Q 22.3125 6.890625 25.984375 6.890625 
Q 35.75 6.890625 40.890625 13.453125 
Q 46.046875 20.015625 46.78125 33.40625 
Q 43.953125 29.203125 39.59375 26.953125 
Q 35.25 24.703125 29.984375 24.703125 
Q 19.046875 24.703125 12.671875 31.3125 
Q 6.296875 37.9375 6.296875 49.421875 
Q 6.296875 60.640625 12.9375 67.421875 
Q 19.578125 74.21875 30.609375 74.21875 
Q 43.265625 74.21875 49.921875 64.515625 
Q 56.59375 54.828125 56.59375 36.375 
Q 56.59375 19.140625 48.40625 8.859375 
Q 40.234375 -1.421875 26.421875 -1.421875 
Q 22.703125 -1.421875 18.890625 -0.6875 
Q 15.09375 0.046875 10.984375 1.515625 
M 30.609375 32.421875 
Q 37.25 32.421875 41.125 36.953125 
Q 45.015625 41.5 45.015625 49.421875 
Q 45.015625 57.28125 41.125 61.84375 
Q 37.25 66.40625 30.609375 66.40625 
Q 23.96875 66.40625 20.09375 61.84375 
Q 16.21875 57.28125 16.21875 49.421875 
Q 16.21875 41.5 20.09375 36.953125 
Q 23.96875 32.421875 30.609375 32.421875 
" id="DejaVuSans-39"/>
      </defs>
      <g transform="translate(22.7 219.626773)scale(0.1 -0.1)">
       <use transform="translate(0 0.765625)" xlink:href="#DejaVuSans-31"/>
       <use transform="translate(63.623047 0.765625)" xlink:href="#DejaVuSans-30"/>
       <use transform="translate(128.203125 39.046875)scale(0.7)" xlink:href="#DejaVuSans-2212"/>
       <use transform="translate(186.855469 39.046875)scale(0.7)" xlink:href="#DejaVuSans-39"/>
       <use transform="translate(231.391602 39.046875)scale(0.7)" xlink:href="#DejaVuSans-35"/>
      </g>
     </g>
    </g>
    <g id="ytick_4">
     <g id="line2d_21">
      <path clip-path="url(#p175b9bc6ae)" d="M 57.6 184.799309 
L 414.72 184.799309 
" style="fill:none;stroke:#b0b0b0;stroke-linecap:square;stroke-width:0.8;"/>
     </g>
     <g id="line2d_22">
      <g>
       <use style="stroke:#000000;stroke-width:0.8;" x="57.6" xlink:href="#m913aad2ea2" y="184.799309"/>
      </g>
     </g>
     <g id="text_12">
      <!-- ${10^{-77}}$ -->
      <defs>
       <path d="M 8.203125 72.90625 
L 55.078125 72.90625 
L 55.078125 68.703125 
L 28.609375 0 
L 18.3125 0 
L 43.21875 64.59375 
L 8.203125 64.59375 
z
" id="DejaVuSans-37"/>
      </defs>
      <g transform="translate(22.7 188.598528)scale(0.1 -0.1)">
       <use transform="translate(0 0.684375)" xlink:href="#DejaVuSans-31"/>
       <use transform="translate(63.623047 0.684375)" xlink:href="#DejaVuSans-30"/>
       <use transform="translate(128.203125 38.965625)scale(0.7)" xlink:href="#DejaVuSans-2212"/>
       <use transform="translate(186.855469 38.965625)scale(0.7)" xlink:href="#DejaVuSans-37"/>
       <use transform="translate(231.380664 38.965625)scale(0.7)" xlink:href="#DejaVuSans-37"/>
      </g>
     </g>
    </g>
    <g id="ytick_5">
     <g id="line2d_23">
      <path clip-path="url(#p175b9bc6ae)" d="M 57.6 153.771064 
L 414.72 153.771064 
" style="fill:none;stroke:#b0b0b0;stroke-linecap:square;stroke-width:0.8;"/>
     </g>
     <g id="line2d_24">
      <g>
       <use style="stroke:#000000;stroke-width:0.8;" x="57.6" xlink:href="#m913aad2ea2" y="153.771064"/>
      </g>
     </g>
     <g id="text_13">
      <!-- ${10^{-59}}$ -->
      <g transform="translate(22.7 157.570283)scale(0.1 -0.1)">
       <use transform="translate(0 0.765625)" xlink:href="#DejaVuSans-31"/>
       <use transform="translate(63.623047 0.765625)" xlink:href="#DejaVuSans-30"/>
       <use transform="translate(128.203125 39.046875)scale(0.7)" xlink:href="#DejaVuSans-2212"/>
       <use transform="translate(186.855469 39.046875)scale(0.7)" xlink:href="#DejaVuSans-35"/>
       <use transform="translate(231.336914 39.046875)scale(0.7)" xlink:href="#DejaVuSans-39"/>
      </g>
     </g>
    </g>
    <g id="ytick_6">
     <g id="line2d_25">
      <path clip-path="url(#p175b9bc6ae)" d="M 57.6 122.74282 
L 414.72 122.74282 
" style="fill:none;stroke:#b0b0b0;stroke-linecap:square;stroke-width:0.8;"/>
     </g>
     <g id="line2d_26">
      <g>
       <use style="stroke:#000000;stroke-width:0.8;" x="57.6" xlink:href="#m913aad2ea2" y="122.74282"/>
      </g>
     </g>
     <g id="text_14">
      <!-- ${10^{-41}}$ -->
      <defs>
       <path d="M 37.796875 64.3125 
L 12.890625 25.390625 
L 37.796875 25.390625 
z
M 35.203125 72.90625 
L 47.609375 72.90625 
L 47.609375 25.390625 
L 58.015625 25.390625 
L 58.015625 17.1875 
L 47.609375 17.1875 
L 47.609375 0 
L 37.796875 0 
L 37.796875 17.1875 
L 4.890625 17.1875 
L 4.890625 26.703125 
z
" id="DejaVuSans-34"/>
      </defs>
      <g transform="translate(22.7 126.542038)scale(0.1 -0.1)">
       <use transform="translate(0 0.684375)" xlink:href="#DejaVuSans-31"/>
       <use transform="translate(63.623047 0.684375)" xlink:href="#DejaVuSans-30"/>
       <use transform="translate(128.203125 38.965625)scale(0.7)" xlink:href="#DejaVuSans-2212"/>
       <use transform="translate(186.855469 38.965625)scale(0.7)" xlink:href="#DejaVuSans-34"/>
       <use transform="translate(231.391602 38.965625)scale(0.7)" xlink:href="#DejaVuSans-31"/>
      </g>
     </g>
    </g>
    <g id="ytick_7">
     <g id="line2d_27">
      <path clip-path="url(#p175b9bc6ae)" d="M 57.6 91.714575 
L 414.72 91.714575 
" style="fill:none;stroke:#b0b0b0;stroke-linecap:square;stroke-width:0.8;"/>
     </g>
     <g id="line2d_28">
      <g>
       <use style="stroke:#000000;stroke-width:0.8;" x="57.6" xlink:href="#m913aad2ea2" y="91.714575"/>
      </g>
     </g>
     <g id="text_15">
      <!-- ${10^{-23}}$ -->
      <g transform="translate(22.7 95.513794)scale(0.1 -0.1)">
       <use transform="translate(0 0.765625)" xlink:href="#DejaVuSans-31"/>
       <use transform="translate(63.623047 0.765625)" xlink:href="#DejaVuSans-30"/>
       <use transform="translate(128.203125 39.046875)scale(0.7)" xlink:href="#DejaVuSans-2212"/>
       <use transform="translate(186.855469 39.046875)scale(0.7)" xlink:href="#DejaVuSans-32"/>
       <use transform="translate(231.391602 39.046875)scale(0.7)" xlink:href="#DejaVuSans-33"/>
      </g>
     </g>
    </g>
    <g id="ytick_8">
     <g id="line2d_29">
      <path clip-path="url(#p175b9bc6ae)" d="M 57.6 60.68633 
L 414.72 60.68633 
" style="fill:none;stroke:#b0b0b0;stroke-linecap:square;stroke-width:0.8;"/>
     </g>
     <g id="line2d_30">
      <g>
       <use style="stroke:#000000;stroke-width:0.8;" x="57.6" xlink:href="#m913aad2ea2" y="60.68633"/>
      </g>
     </g>
     <g id="text_16">
      <!-- ${10^{-5}}$ -->
      <g transform="translate(27.1 64.485549)scale(0.1 -0.1)">
       <use transform="translate(0 0.684375)" xlink:href="#DejaVuSans-31"/>
       <use transform="translate(63.623047 0.684375)" xlink:href="#DejaVuSans-30"/>
       <use transform="translate(128.203125 38.965625)scale(0.7)" xlink:href="#DejaVuSans-2212"/>
       <use transform="translate(186.855469 38.965625)scale(0.7)" xlink:href="#DejaVuSans-35"/>
      </g>
     </g>
    </g>
    <g id="text_17">
     <!-- $\omega_i$ -->
     <defs>
      <path d="M 21.390625 -1.421875 
Q 1.125 -1.421875 6.78125 27.59375 
Q 8.984375 39.0625 19.625 54.6875 
L 29.296875 54.6875 
Q 19.234375 39.0625 17 27.34375 
Q 12.796875 6.203125 23.734375 6.203125 
Q 33.84375 6.203125 38.71875 32.46875 
L 47.015625 32.46875 
Q 41.703125 6.0625 51.8125 6.203125 
Q 62.703125 6.296875 66.796875 27.34375 
Q 69.046875 39.0625 65.140625 54.6875 
L 74.8125 54.6875 
Q 79.296875 39.0625 77.09375 27.59375 
Q 71.53125 -1.46875 51.21875 -1.421875 
Q 37.9375 -1.375 39.109375 13.1875 
Q 34.28125 -1.421875 21.390625 -1.421875 
" id="DejaVuSans-Oblique-3c9"/>
     </defs>
     <g transform="translate(12.120313 179.828)rotate(-90)scale(0.1 -0.1)">
      <use transform="translate(0 0.3125)" xlink:href="#DejaVuSans-Oblique-3c9"/>
      <use transform="translate(83.740234 -16.09375)scale(0.7)" xlink:href="#DejaVuSans-Oblique-69"/>
     </g>
    </g>
   </g>
   <g id="line2d_31">
    <defs>
     <path d="M 0 3 
C 0.795609 3 1.55874 2.683901 2.12132 2.12132 
C 2.683901 1.55874 3 0.795609 3 0 
C 3 -0.795609 2.683901 -1.55874 2.12132 -2.12132 
C 1.55874 -2.683901 0.795609 -3 0 -3 
C -0.795609 -3 -1.55874 -2.683901 -2.12132 -2.12132 
C -2.683901 -1.55874 -3 -0.795609 -3 0 
C -3 0.795609 -2.683901 1.55874 -2.12132 2.12132 
C -1.55874 2.683901 -0.795609 3 0 3 
z
" id="m5b46a024c2" style="stroke:#1f77b4;"/>
    </defs>
    <g clip-path="url(#p175b9bc6ae)">
     <use style="fill:#1f77b4;stroke:#1f77b4;" x="362.812105" xlink:href="#m5b46a024c2" y="260.738706"/>
     <use style="fill:#1f77b4;stroke:#1f77b4;" x="393.268632" xlink:href="#m5b46a024c2" y="281.606639"/>
     <use style="fill:#1f77b4;stroke:#1f77b4;" x="413.638642" xlink:href="#m5b46a024c2" y="295.488"/>
     <use style="fill:#1f77b4;stroke:#1f77b4;" x="350.112858" xlink:href="#m5b46a024c2" y="252.018679"/>
     <use style="fill:#1f77b4;stroke:#1f77b4;" x="122.789559" xlink:href="#m5b46a024c2" y="95.675328"/>
     <use style="fill:#1f77b4;stroke:#1f77b4;" x="252.4558" xlink:href="#m5b46a024c2" y="184.834373"/>
     <use style="fill:#1f77b4;stroke:#1f77b4;" x="103.52853" xlink:href="#m5b46a024c2" y="82.496836"/>
     <use style="fill:#1f77b4;stroke:#1f77b4;" x="161.965224" xlink:href="#m5b46a024c2" y="122.569069"/>
     <use style="fill:#1f77b4;stroke:#1f77b4;" x="209.560737" xlink:href="#m5b46a024c2" y="155.307989"/>
     <use style="fill:#1f77b4;stroke:#1f77b4;" x="79.167813" xlink:href="#m5b46a024c2" y="65.952755"/>
     <use style="fill:#1f77b4;stroke:#1f77b4;" x="119.789211" xlink:href="#m5b46a024c2" y="93.619652"/>
     <use style="fill:#1f77b4;stroke:#1f77b4;" x="132.3192" xlink:href="#m5b46a024c2" y="102.209436"/>
     <use style="fill:#1f77b4;stroke:#1f77b4;" x="101.096218" xlink:href="#m5b46a024c2" y="80.836556"/>
     <use style="fill:#1f77b4;stroke:#1f77b4;" x="92.119141" xlink:href="#m5b46a024c2" y="74.720788"/>
     <use style="fill:#1f77b4;stroke:#1f77b4;" x="142.680999" xlink:href="#m5b46a024c2" y="109.320873"/>
     <use style="fill:#1f77b4;stroke:#1f77b4;" x="198.926477" xlink:href="#m5b46a024c2" y="147.989957"/>
     <use style="fill:#1f77b4;stroke:#1f77b4;" x="232.870622" xlink:href="#m5b46a024c2" y="171.352176"/>
     <use style="fill:#1f77b4;stroke:#1f77b4;" x="96.459247" xlink:href="#m5b46a024c2" y="77.674912"/>
     <use style="fill:#1f77b4;stroke:#1f77b4;" x="220.85238" xlink:href="#m5b46a024c2" y="163.07958"/>
     <use style="fill:#1f77b4;stroke:#1f77b4;" x="108.626302" xlink:href="#m5b46a024c2" y="85.979949"/>
     <use style="fill:#1f77b4;stroke:#1f77b4;" x="80.810723" xlink:href="#m5b46a024c2" y="67.059319"/>
     <use style="fill:#1f77b4;stroke:#1f77b4;" x="114.042986" xlink:href="#m5b46a024c2" y="89.685175"/>
     <use style="fill:#1f77b4;stroke:#1f77b4;" x="308.024904" xlink:href="#m5b46a024c2" y="223.080742"/>
     <use style="fill:#1f77b4;stroke:#1f77b4;" x="274.281123" xlink:href="#m5b46a024c2" y="199.858369"/>
     <use style="fill:#1f77b4;stroke:#1f77b4;" x="111.294143" xlink:href="#m5b46a024c2" y="87.804371"/>
     <use style="fill:#1f77b4;stroke:#1f77b4;" x="298.982075" xlink:href="#m5b46a024c2" y="216.858655"/>
     <use style="fill:#1f77b4;stroke:#1f77b4;" x="73.264474" xlink:href="#m5b46a024c2" y="62.000671"/>
     <use style="fill:#1f77b4;stroke:#1f77b4;" x="376.954708" xlink:href="#m5b46a024c2" y="270.438989"/>
     <use style="fill:#1f77b4;stroke:#1f77b4;" x="67.354094" xlink:href="#m5b46a024c2" y="58.114165"/>
     <use style="fill:#1f77b4;stroke:#1f77b4;" x="290.374465" xlink:href="#m5b46a024c2" y="210.935122"/>
     <use style="fill:#1f77b4;stroke:#1f77b4;" x="90.058102" xlink:href="#m5b46a024c2" y="73.320051"/>
     <use style="fill:#1f77b4;stroke:#1f77b4;" x="166.148847" xlink:href="#m5b46a024c2" y="125.444901"/>
     <use style="fill:#1f77b4;stroke:#1f77b4;" x="64.57614" xlink:href="#m5b46a024c2" y="56.346065"/>
     <use style="fill:#1f77b4;stroke:#1f77b4;" x="239.178393" xlink:href="#m5b46a024c2" y="175.69429"/>
     <use style="fill:#1f77b4;stroke:#1f77b4;" x="77.592275" xlink:href="#m5b46a024c2" y="64.893877"/>
     <use style="fill:#1f77b4;stroke:#1f77b4;" x="125.87685" xlink:href="#m5b46a024c2" y="97.7914"/>
     <use style="fill:#1f77b4;stroke:#1f77b4;" x="76.083549" xlink:href="#m5b46a024c2" y="63.882397"/>
     <use style="fill:#1f77b4;stroke:#1f77b4;" x="59.935585" xlink:href="#m5b46a024c2" y="53.764897"/>
     <use style="fill:#1f77b4;stroke:#1f77b4;" x="98.740137" xlink:href="#m5b46a024c2" y="79.229476"/>
     <use style="fill:#1f77b4;stroke:#1f77b4;" x="60.743816" xlink:href="#m5b46a024c2" y="54.145104"/>
     <use style="fill:#1f77b4;stroke:#1f77b4;" x="84.301088" xlink:href="#m5b46a024c2" y="69.416843"/>
     <use style="fill:#1f77b4;stroke:#1f77b4;" x="174.869225" xlink:href="#m5b46a024c2" y="131.440812"/>
     <use style="fill:#1f77b4;stroke:#1f77b4;" x="179.413723" xlink:href="#m5b46a024c2" y="134.566195"/>
     <use style="fill:#1f77b4;stroke:#1f77b4;" x="150.079752" xlink:href="#m5b46a024c2" y="114.402063"/>
     <use style="fill:#1f77b4;stroke:#1f77b4;" x="94.25256" xlink:href="#m5b46a024c2" y="76.172218"/>
     <use style="fill:#1f77b4;stroke:#1f77b4;" x="338.478301" xlink:href="#m5b46a024c2" y="244.023968"/>
     <use style="fill:#1f77b4;stroke:#1f77b4;" x="157.894611" xlink:href="#m5b46a024c2" y="119.77143"/>
     <use style="fill:#1f77b4;stroke:#1f77b4;" x="62.373344" xlink:href="#m5b46a024c2" y="55.018741"/>
     <use style="fill:#1f77b4;stroke:#1f77b4;" x="129.052794" xlink:href="#m5b46a024c2" y="99.969025"/>
     <use style="fill:#1f77b4;stroke:#1f77b4;" x="63.043309" xlink:href="#m5b46a024c2" y="55.410395"/>
     <use style="fill:#1f77b4;stroke:#1f77b4;" x="259.456828" xlink:href="#m5b46a024c2" y="189.653834"/>
     <use style="fill:#1f77b4;stroke:#1f77b4;" x="226.765743" xlink:href="#m5b46a024c2" y="167.149871"/>
     <use style="fill:#1f77b4;stroke:#1f77b4;" x="266.724386" xlink:href="#m5b46a024c2" y="194.65667"/>
     <use style="fill:#1f77b4;stroke:#1f77b4;" x="68.40759" xlink:href="#m5b46a024c2" y="58.798091"/>
     <use style="fill:#1f77b4;stroke:#1f77b4;" x="66.364408" xlink:href="#m5b46a024c2" y="57.477229"/>
     <use style="fill:#1f77b4;stroke:#1f77b4;" x="63.777681" xlink:href="#m5b46a024c2" y="55.853264"/>
     <use style="fill:#1f77b4;stroke:#1f77b4;" x="188.893097" xlink:href="#m5b46a024c2" y="141.08674"/>
     <use style="fill:#1f77b4;stroke:#1f77b4;" x="193.837804" xlink:href="#m5b46a024c2" y="144.48864"/>
     <use style="fill:#1f77b4;stroke:#1f77b4;" x="245.701911" xlink:href="#m5b46a024c2" y="180.185017"/>
     <use style="fill:#1f77b4;stroke:#1f77b4;" x="61.767858" xlink:href="#m5b46a024c2" y="54.679067"/>
     <use style="fill:#1f77b4;stroke:#1f77b4;" x="146.329697" xlink:href="#m5b46a024c2" y="111.826359"/>
     <use style="fill:#1f77b4;stroke:#1f77b4;" x="65.438424" xlink:href="#m5b46a024c2" y="56.887667"/>
     <use style="fill:#1f77b4;stroke:#1f77b4;" x="60.315709" xlink:href="#m5b46a024c2" y="53.937087"/>
     <use style="fill:#1f77b4;stroke:#1f77b4;" x="69.525088" xlink:href="#m5b46a024c2" y="59.528777"/>
     <use style="fill:#1f77b4;stroke:#1f77b4;" x="86.149851" xlink:href="#m5b46a024c2" y="70.66856"/>
     <use style="fill:#1f77b4;stroke:#1f77b4;" x="58.896447" xlink:href="#m5b46a024c2" y="53.669841"/>
     <use style="fill:#1f77b4;stroke:#1f77b4;" x="70.706849" xlink:href="#m5b46a024c2" y="60.306106"/>
     <use style="fill:#1f77b4;stroke:#1f77b4;" x="106.038172" xlink:href="#m5b46a024c2" y="84.211043"/>
     <use style="fill:#1f77b4;stroke:#1f77b4;" x="317.564117" xlink:href="#m5b46a024c2" y="229.643044"/>
     <use style="fill:#1f77b4;stroke:#1f77b4;" x="82.521603" xlink:href="#m5b46a024c2" y="68.213894"/>
     <use style="fill:#1f77b4;stroke:#1f77b4;" x="71.953189" xlink:href="#m5b46a024c2" y="61.130055"/>
     <use style="fill:#1f77b4;stroke:#1f77b4;" x="74.641111" xlink:href="#m5b46a024c2" y="62.918064"/>
     <use style="fill:#1f77b4;stroke:#1f77b4;" x="215.120402" xlink:href="#m5b46a024c2" y="159.134358"/>
     <use style="fill:#1f77b4;stroke:#1f77b4;" x="184.086777" xlink:href="#m5b46a024c2" y="137.780428"/>
     <use style="fill:#1f77b4;stroke:#1f77b4;" x="116.874195" xlink:href="#m5b46a024c2" y="91.623278"/>
     <use style="fill:#1f77b4;stroke:#1f77b4;" x="59.601369" xlink:href="#m5b46a024c2" y="53.637536"/>
     <use style="fill:#1f77b4;stroke:#1f77b4;" x="139.131199" xlink:href="#m5b46a024c2" y="106.883926"/>
     <use style="fill:#1f77b4;stroke:#1f77b4;" x="204.165222" xlink:href="#m5b46a024c2" y="151.594875"/>
     <use style="fill:#1f77b4;stroke:#1f77b4;" x="170.448939" xlink:href="#m5b46a024c2" y="128.401298"/>
     <use style="fill:#1f77b4;stroke:#1f77b4;" x="282.153803" xlink:href="#m5b46a024c2" y="205.277225"/>
     <use style="fill:#1f77b4;stroke:#1f77b4;" x="58.69804" xlink:href="#m5b46a024c2" y="54.496622"/>
     <use style="fill:#1f77b4;stroke:#1f77b4;" x="59.314803" xlink:href="#m5b46a024c2" y="53.568"/>
     <use style="fill:#1f77b4;stroke:#1f77b4;" x="58.769125" xlink:href="#m5b46a024c2" y="53.915565"/>
     <use style="fill:#1f77b4;stroke:#1f77b4;" x="327.679399" xlink:href="#m5b46a024c2" y="236.599772"/>
     <use style="fill:#1f77b4;stroke:#1f77b4;" x="61.225828" xlink:href="#m5b46a024c2" y="54.389831"/>
     <use style="fill:#1f77b4;stroke:#1f77b4;" x="135.677988" xlink:href="#m5b46a024c2" y="104.51394"/>
     <use style="fill:#1f77b4;stroke:#1f77b4;" x="59.078944" xlink:href="#m5b46a024c2" y="53.571138"/>
     <use style="fill:#1f77b4;stroke:#1f77b4;" x="153.933788" xlink:href="#m5b46a024c2" y="117.04978"/>
     <use style="fill:#1f77b4;stroke:#1f77b4;" x="88.068604" xlink:href="#m5b46a024c2" y="71.969474"/>
    </g>
   </g>
   <g id="patch_3">
    <path d="M 57.6 307.584 
L 57.6 41.472 
" style="fill:none;stroke:#000000;stroke-linecap:square;stroke-linejoin:miter;stroke-width:0.8;"/>
   </g>
   <g id="patch_4">
    <path d="M 414.72 307.584 
L 414.72 41.472 
" style="fill:none;stroke:#000000;stroke-linecap:square;stroke-linejoin:miter;stroke-width:0.8;"/>
   </g>
   <g id="patch_5">
    <path d="M 57.6 307.584 
L 414.72 307.584 
" style="fill:none;stroke:#000000;stroke-linecap:square;stroke-linejoin:miter;stroke-width:0.8;"/>
   </g>
   <g id="patch_6">
    <path d="M 57.6 41.472 
L 414.72 41.472 
" style="fill:none;stroke:#000000;stroke-linecap:square;stroke-linejoin:miter;stroke-width:0.8;"/>
   </g>
  </g>
 </g>
 <defs>
  <clipPath id="p175b9bc6ae">
   <rect height="266.112" width="357.12" x="57.6" y="41.472"/>
  </clipPath>
 </defs>
</svg>
