<?xml version="1.0" encoding="utf-8" standalone="no"?>
<!DOCTYPE svg PUBLIC "-//W3C//DTD SVG 1.1//EN"
  "http://www.w3.org/Graphics/SVG/1.1/DTD/svg11.dtd">
<!-- Created with matplotlib (http://matplotlib.org/) -->
<svg height="345pt" version="1.1" viewBox="0 0 460 345" width="460pt" xmlns="http://www.w3.org/2000/svg" xmlns:xlink="http://www.w3.org/1999/xlink">
 <defs>
  <style type="text/css">
*{stroke-linecap:butt;stroke-linejoin:round;}
  </style>
 </defs>
 <g id="figure_1">
  <g id="patch_1">
   <path d="M 0 345.6 
L 460.8 345.6 
L 460.8 0 
L 0 0 
z
" style="fill:#ffffff;"/>
  </g>
  <g id="axes_1">
   <g id="patch_2">
    <path d="M 57.6 307.584 
L 414.72 307.584 
L 414.72 41.472 
L 57.6 41.472 
z
" style="fill:#ffffff;"/>
   </g>
   <g id="matplotlib.axis_1">
    <g id="xtick_1">
     <g id="line2d_1">
      <path clip-path="url(#pe9a0eaed74)" d="M 58.557023 307.584 
L 58.557023 41.472 
" style="fill:none;stroke:#b0b0b0;stroke-linecap:square;stroke-width:0.8;"/>
     </g>
     <g id="line2d_2">
      <defs>
       <path d="M 0 0 
L 0 3.5 
" id="m0cd8c8bcad" style="stroke:#000000;stroke-width:0.8;"/>
      </defs>
      <g>
       <use style="stroke:#000000;stroke-width:0.8;" x="58.557023" xlink:href="#m0cd8c8bcad" y="307.584"/>
      </g>
     </g>
     <g id="text_1">
      <!-- 0 -->
      <defs>
       <path d="M 31.78125 66.40625 
Q 24.171875 66.40625 20.328125 58.90625 
Q 16.5 51.421875 16.5 36.375 
Q 16.5 21.390625 20.328125 13.890625 
Q 24.171875 6.390625 31.78125 6.390625 
Q 39.453125 6.390625 43.28125 13.890625 
Q 47.125 21.390625 47.125 36.375 
Q 47.125 51.421875 43.28125 58.90625 
Q 39.453125 66.40625 31.78125 66.40625 
M 31.78125 74.21875 
Q 44.046875 74.21875 50.515625 64.515625 
Q 56.984375 54.828125 56.984375 36.375 
Q 56.984375 17.96875 50.515625 8.265625 
Q 44.046875 -1.421875 31.78125 -1.421875 
Q 19.53125 -1.421875 13.0625 8.265625 
Q 6.59375 17.96875 6.59375 36.375 
Q 6.59375 54.828125 13.0625 64.515625 
Q 19.53125 74.21875 31.78125 74.21875 
" id="DejaVuSans-30"/>
      </defs>
      <g transform="translate(55.375773 322.182437)scale(0.1 -0.1)">
       <use xlink:href="#DejaVuSans-30"/>
      </g>
     </g>
    </g>
    <g id="xtick_2">
     <g id="line2d_3">
      <path clip-path="url(#pe9a0eaed74)" d="M 106.408172 307.584 
L 106.408172 41.472 
" style="fill:none;stroke:#b0b0b0;stroke-linecap:square;stroke-width:0.8;"/>
     </g>
     <g id="line2d_4">
      <g>
       <use style="stroke:#000000;stroke-width:0.8;" x="106.408172" xlink:href="#m0cd8c8bcad" y="307.584"/>
      </g>
     </g>
     <g id="text_2">
      <!-- 50 -->
      <defs>
       <path d="M 10.796875 72.90625 
L 49.515625 72.90625 
L 49.515625 64.59375 
L 19.828125 64.59375 
L 19.828125 46.734375 
Q 21.96875 47.46875 24.109375 47.828125 
Q 26.265625 48.1875 28.421875 48.1875 
Q 40.625 48.1875 47.75 41.5 
Q 54.890625 34.8125 54.890625 23.390625 
Q 54.890625 11.625 47.5625 5.09375 
Q 40.234375 -1.421875 26.90625 -1.421875 
Q 22.3125 -1.421875 17.546875 -0.640625 
Q 12.796875 0.140625 7.71875 1.703125 
L 7.71875 11.625 
Q 12.109375 9.234375 16.796875 8.0625 
Q 21.484375 6.890625 26.703125 6.890625 
Q 35.15625 6.890625 40.078125 11.328125 
Q 45.015625 15.765625 45.015625 23.390625 
Q 45.015625 31 40.078125 35.4375 
Q 35.15625 39.890625 26.703125 39.890625 
Q 22.75 39.890625 18.8125 39.015625 
Q 14.890625 38.140625 10.796875 36.28125 
z
" id="DejaVuSans-35"/>
      </defs>
      <g transform="translate(100.045672 322.182437)scale(0.1 -0.1)">
       <use xlink:href="#DejaVuSans-35"/>
       <use x="63.623047" xlink:href="#DejaVuSans-30"/>
      </g>
     </g>
    </g>
    <g id="xtick_3">
     <g id="line2d_5">
      <path clip-path="url(#pe9a0eaed74)" d="M 154.259322 307.584 
L 154.259322 41.472 
" style="fill:none;stroke:#b0b0b0;stroke-linecap:square;stroke-width:0.8;"/>
     </g>
     <g id="line2d_6">
      <g>
       <use style="stroke:#000000;stroke-width:0.8;" x="154.259322" xlink:href="#m0cd8c8bcad" y="307.584"/>
      </g>
     </g>
     <g id="text_3">
      <!-- 100 -->
      <defs>
       <path d="M 12.40625 8.296875 
L 28.515625 8.296875 
L 28.515625 63.921875 
L 10.984375 60.40625 
L 10.984375 69.390625 
L 28.421875 72.90625 
L 38.28125 72.90625 
L 38.28125 8.296875 
L 54.390625 8.296875 
L 54.390625 0 
L 12.40625 0 
z
" id="DejaVuSans-31"/>
      </defs>
      <g transform="translate(144.715572 322.182437)scale(0.1 -0.1)">
       <use xlink:href="#DejaVuSans-31"/>
       <use x="63.623047" xlink:href="#DejaVuSans-30"/>
       <use x="127.246094" xlink:href="#DejaVuSans-30"/>
      </g>
     </g>
    </g>
    <g id="xtick_4">
     <g id="line2d_7">
      <path clip-path="url(#pe9a0eaed74)" d="M 202.110471 307.584 
L 202.110471 41.472 
" style="fill:none;stroke:#b0b0b0;stroke-linecap:square;stroke-width:0.8;"/>
     </g>
     <g id="line2d_8">
      <g>
       <use style="stroke:#000000;stroke-width:0.8;" x="202.110471" xlink:href="#m0cd8c8bcad" y="307.584"/>
      </g>
     </g>
     <g id="text_4">
      <!-- 150 -->
      <g transform="translate(192.566721 322.182437)scale(0.1 -0.1)">
       <use xlink:href="#DejaVuSans-31"/>
       <use x="63.623047" xlink:href="#DejaVuSans-35"/>
       <use x="127.246094" xlink:href="#DejaVuSans-30"/>
      </g>
     </g>
    </g>
    <g id="xtick_5">
     <g id="line2d_9">
      <path clip-path="url(#pe9a0eaed74)" d="M 249.96162 307.584 
L 249.96162 41.472 
" style="fill:none;stroke:#b0b0b0;stroke-linecap:square;stroke-width:0.8;"/>
     </g>
     <g id="line2d_10">
      <g>
       <use style="stroke:#000000;stroke-width:0.8;" x="249.96162" xlink:href="#m0cd8c8bcad" y="307.584"/>
      </g>
     </g>
     <g id="text_5">
      <!-- 200 -->
      <defs>
       <path d="M 19.1875 8.296875 
L 53.609375 8.296875 
L 53.609375 0 
L 7.328125 0 
L 7.328125 8.296875 
Q 12.9375 14.109375 22.625 23.890625 
Q 32.328125 33.6875 34.8125 36.53125 
Q 39.546875 41.84375 41.421875 45.53125 
Q 43.3125 49.21875 43.3125 52.78125 
Q 43.3125 58.59375 39.234375 62.25 
Q 35.15625 65.921875 28.609375 65.921875 
Q 23.96875 65.921875 18.8125 64.3125 
Q 13.671875 62.703125 7.8125 59.421875 
L 7.8125 69.390625 
Q 13.765625 71.78125 18.9375 73 
Q 24.125 74.21875 28.421875 74.21875 
Q 39.75 74.21875 46.484375 68.546875 
Q 53.21875 62.890625 53.21875 53.421875 
Q 53.21875 48.921875 51.53125 44.890625 
Q 49.859375 40.875 45.40625 35.40625 
Q 44.1875 33.984375 37.640625 27.21875 
Q 31.109375 20.453125 19.1875 8.296875 
" id="DejaVuSans-32"/>
      </defs>
      <g transform="translate(240.41787 322.182437)scale(0.1 -0.1)">
       <use xlink:href="#DejaVuSans-32"/>
       <use x="63.623047" xlink:href="#DejaVuSans-30"/>
       <use x="127.246094" xlink:href="#DejaVuSans-30"/>
      </g>
     </g>
    </g>
    <g id="xtick_6">
     <g id="line2d_11">
      <path clip-path="url(#pe9a0eaed74)" d="M 297.81277 307.584 
L 297.81277 41.472 
" style="fill:none;stroke:#b0b0b0;stroke-linecap:square;stroke-width:0.8;"/>
     </g>
     <g id="line2d_12">
      <g>
       <use style="stroke:#000000;stroke-width:0.8;" x="297.81277" xlink:href="#m0cd8c8bcad" y="307.584"/>
      </g>
     </g>
     <g id="text_6">
      <!-- 250 -->
      <g transform="translate(288.26902 322.182437)scale(0.1 -0.1)">
       <use xlink:href="#DejaVuSans-32"/>
       <use x="63.623047" xlink:href="#DejaVuSans-35"/>
       <use x="127.246094" xlink:href="#DejaVuSans-30"/>
      </g>
     </g>
    </g>
    <g id="xtick_7">
     <g id="line2d_13">
      <path clip-path="url(#pe9a0eaed74)" d="M 345.663919 307.584 
L 345.663919 41.472 
" style="fill:none;stroke:#b0b0b0;stroke-linecap:square;stroke-width:0.8;"/>
     </g>
     <g id="line2d_14">
      <g>
       <use style="stroke:#000000;stroke-width:0.8;" x="345.663919" xlink:href="#m0cd8c8bcad" y="307.584"/>
      </g>
     </g>
     <g id="text_7">
      <!-- 300 -->
      <defs>
       <path d="M 40.578125 39.3125 
Q 47.65625 37.796875 51.625 33 
Q 55.609375 28.21875 55.609375 21.1875 
Q 55.609375 10.40625 48.1875 4.484375 
Q 40.765625 -1.421875 27.09375 -1.421875 
Q 22.515625 -1.421875 17.65625 -0.515625 
Q 12.796875 0.390625 7.625 2.203125 
L 7.625 11.71875 
Q 11.71875 9.328125 16.59375 8.109375 
Q 21.484375 6.890625 26.8125 6.890625 
Q 36.078125 6.890625 40.9375 10.546875 
Q 45.796875 14.203125 45.796875 21.1875 
Q 45.796875 27.640625 41.28125 31.265625 
Q 36.765625 34.90625 28.71875 34.90625 
L 20.21875 34.90625 
L 20.21875 43.015625 
L 29.109375 43.015625 
Q 36.375 43.015625 40.234375 45.921875 
Q 44.09375 48.828125 44.09375 54.296875 
Q 44.09375 59.90625 40.109375 62.90625 
Q 36.140625 65.921875 28.71875 65.921875 
Q 24.65625 65.921875 20.015625 65.03125 
Q 15.375 64.15625 9.8125 62.3125 
L 9.8125 71.09375 
Q 15.4375 72.65625 20.34375 73.4375 
Q 25.25 74.21875 29.59375 74.21875 
Q 40.828125 74.21875 47.359375 69.109375 
Q 53.90625 64.015625 53.90625 55.328125 
Q 53.90625 49.265625 50.4375 45.09375 
Q 46.96875 40.921875 40.578125 39.3125 
" id="DejaVuSans-33"/>
      </defs>
      <g transform="translate(336.120169 322.182437)scale(0.1 -0.1)">
       <use xlink:href="#DejaVuSans-33"/>
       <use x="63.623047" xlink:href="#DejaVuSans-30"/>
       <use x="127.246094" xlink:href="#DejaVuSans-30"/>
      </g>
     </g>
    </g>
    <g id="xtick_8">
     <g id="line2d_15">
      <path clip-path="url(#pe9a0eaed74)" d="M 393.515069 307.584 
L 393.515069 41.472 
" style="fill:none;stroke:#b0b0b0;stroke-linecap:square;stroke-width:0.8;"/>
     </g>
     <g id="line2d_16">
      <g>
       <use style="stroke:#000000;stroke-width:0.8;" x="393.515069" xlink:href="#m0cd8c8bcad" y="307.584"/>
      </g>
     </g>
     <g id="text_8">
      <!-- 350 -->
      <g transform="translate(383.971319 322.182437)scale(0.1 -0.1)">
       <use xlink:href="#DejaVuSans-33"/>
       <use x="63.623047" xlink:href="#DejaVuSans-35"/>
       <use x="127.246094" xlink:href="#DejaVuSans-30"/>
      </g>
     </g>
    </g>
    <g id="text_9">
     <!-- $\gamma_i$ -->
     <defs>
      <path d="M 23.296875 46.09375 
L 28.71875 12.3125 
L 54 54.6875 
L 63.53125 54.6875 
L 30.8125 0 
L 26.765625 -20.796875 
L 17.78125 -20.796875 
L 21.828125 0 
L 15.4375 40.828125 
Q 14.453125 46.96875 9.8125 46.96875 
L 7.421875 46.96875 
L 8.890625 54.6875 
L 12.3125 54.6875 
Q 21.921875 54.6875 23.296875 46.09375 
" id="DejaVuSans-Oblique-3b3"/>
      <path d="M 18.3125 75.984375 
L 27.296875 75.984375 
L 25.09375 64.59375 
L 16.109375 64.59375 
z
M 14.203125 54.6875 
L 23.1875 54.6875 
L 12.5 0 
L 3.515625 0 
z
" id="DejaVuSans-Oblique-69"/>
     </defs>
     <g transform="translate(232.06 335.84025)scale(0.1 -0.1)">
      <use transform="translate(0 0.3125)" xlink:href="#DejaVuSans-Oblique-3b3"/>
      <use transform="translate(59.179688 -16.09375)scale(0.7)" xlink:href="#DejaVuSans-Oblique-69"/>
     </g>
    </g>
   </g>
   <g id="matplotlib.axis_2">
    <g id="ytick_1">
     <g id="line2d_17">
      <path clip-path="url(#pe9a0eaed74)" d="M 57.6 307.9284 
L 414.72 307.9284 
" style="fill:none;stroke:#b0b0b0;stroke-linecap:square;stroke-width:0.8;"/>
     </g>
     <g id="line2d_18">
      <defs>
       <path d="M 0 0 
L -3.5 0 
" id="m2cb19f2a00" style="stroke:#000000;stroke-width:0.8;"/>
      </defs>
      <g>
       <use style="stroke:#000000;stroke-width:0.8;" x="57.6" xlink:href="#m2cb19f2a00" y="307.9284"/>
      </g>
     </g>
     <g id="text_10">
      <!-- ${10^{-168}}$ -->
      <defs>
       <path d="M 10.59375 35.5 
L 73.1875 35.5 
L 73.1875 27.203125 
L 10.59375 27.203125 
z
" id="DejaVuSans-2212"/>
       <path d="M 33.015625 40.375 
Q 26.375 40.375 22.484375 35.828125 
Q 18.609375 31.296875 18.609375 23.390625 
Q 18.609375 15.53125 22.484375 10.953125 
Q 26.375 6.390625 33.015625 6.390625 
Q 39.65625 6.390625 43.53125 10.953125 
Q 47.40625 15.53125 47.40625 23.390625 
Q 47.40625 31.296875 43.53125 35.828125 
Q 39.65625 40.375 33.015625 40.375 
M 52.59375 71.296875 
L 52.59375 62.3125 
Q 48.875 64.0625 45.09375 64.984375 
Q 41.3125 65.921875 37.59375 65.921875 
Q 27.828125 65.921875 22.671875 59.328125 
Q 17.53125 52.734375 16.796875 39.40625 
Q 19.671875 43.65625 24.015625 45.921875 
Q 28.375 48.1875 33.59375 48.1875 
Q 44.578125 48.1875 50.953125 41.515625 
Q 57.328125 34.859375 57.328125 23.390625 
Q 57.328125 12.15625 50.6875 5.359375 
Q 44.046875 -1.421875 33.015625 -1.421875 
Q 20.359375 -1.421875 13.671875 8.265625 
Q 6.984375 17.96875 6.984375 36.375 
Q 6.984375 53.65625 15.1875 63.9375 
Q 23.390625 74.21875 37.203125 74.21875 
Q 40.921875 74.21875 44.703125 73.484375 
Q 48.484375 72.75 52.59375 71.296875 
" id="DejaVuSans-36"/>
       <path d="M 31.78125 34.625 
Q 24.75 34.625 20.71875 30.859375 
Q 16.703125 27.09375 16.703125 20.515625 
Q 16.703125 13.921875 20.71875 10.15625 
Q 24.75 6.390625 31.78125 6.390625 
Q 38.8125 6.390625 42.859375 10.171875 
Q 46.921875 13.96875 46.921875 20.515625 
Q 46.921875 27.09375 42.890625 30.859375 
Q 38.875 34.625 31.78125 34.625 
M 21.921875 38.8125 
Q 15.578125 40.375 12.03125 44.71875 
Q 8.5 49.078125 8.5 55.328125 
Q 8.5 64.0625 14.71875 69.140625 
Q 20.953125 74.21875 31.78125 74.21875 
Q 42.671875 74.21875 48.875 69.140625 
Q 55.078125 64.0625 55.078125 55.328125 
Q 55.078125 49.078125 51.53125 44.71875 
Q 48 40.375 41.703125 38.8125 
Q 48.828125 37.15625 52.796875 32.3125 
Q 56.78125 27.484375 56.78125 20.515625 
Q 56.78125 9.90625 50.3125 4.234375 
Q 43.84375 -1.421875 31.78125 -1.421875 
Q 19.734375 -1.421875 13.25 4.234375 
Q 6.78125 9.90625 6.78125 20.515625 
Q 6.78125 27.484375 10.78125 32.3125 
Q 14.796875 37.15625 21.921875 38.8125 
M 18.3125 54.390625 
Q 18.3125 48.734375 21.84375 45.5625 
Q 25.390625 42.390625 31.78125 42.390625 
Q 38.140625 42.390625 41.71875 45.5625 
Q 45.3125 48.734375 45.3125 54.390625 
Q 45.3125 60.0625 41.71875 63.234375 
Q 38.140625 66.40625 31.78125 66.40625 
Q 25.390625 66.40625 21.84375 63.234375 
Q 18.3125 60.0625 18.3125 54.390625 
" id="DejaVuSans-38"/>
      </defs>
      <g transform="translate(18.2 311.727619)scale(0.1 -0.1)">
       <use transform="translate(0 0.765625)" xlink:href="#DejaVuSans-31"/>
       <use transform="translate(63.623047 0.765625)" xlink:href="#DejaVuSans-30"/>
       <use transform="translate(128.203125 39.046875)scale(0.7)" xlink:href="#DejaVuSans-2212"/>
       <use transform="translate(186.855469 39.046875)scale(0.7)" xlink:href="#DejaVuSans-31"/>
       <use transform="translate(231.391602 39.046875)scale(0.7)" xlink:href="#DejaVuSans-36"/>
       <use transform="translate(275.927734 39.046875)scale(0.7)" xlink:href="#DejaVuSans-38"/>
      </g>
     </g>
    </g>
    <g id="ytick_2">
     <g id="line2d_19">
      <path clip-path="url(#pe9a0eaed74)" d="M 57.6 277.481646 
L 414.72 277.481646 
" style="fill:none;stroke:#b0b0b0;stroke-linecap:square;stroke-width:0.8;"/>
     </g>
     <g id="line2d_20">
      <g>
       <use style="stroke:#000000;stroke-width:0.8;" x="57.6" xlink:href="#m2cb19f2a00" y="277.481646"/>
      </g>
     </g>
     <g id="text_11">
      <!-- ${10^{-148}}$ -->
      <defs>
       <path d="M 37.796875 64.3125 
L 12.890625 25.390625 
L 37.796875 25.390625 
z
M 35.203125 72.90625 
L 47.609375 72.90625 
L 47.609375 25.390625 
L 58.015625 25.390625 
L 58.015625 17.1875 
L 47.609375 17.1875 
L 47.609375 0 
L 37.796875 0 
L 37.796875 17.1875 
L 4.890625 17.1875 
L 4.890625 26.703125 
z
" id="DejaVuSans-34"/>
      </defs>
      <g transform="translate(18.2 281.280865)scale(0.1 -0.1)">
       <use transform="translate(0 0.765625)" xlink:href="#DejaVuSans-31"/>
       <use transform="translate(63.623047 0.765625)" xlink:href="#DejaVuSans-30"/>
       <use transform="translate(128.203125 39.046875)scale(0.7)" xlink:href="#DejaVuSans-2212"/>
       <use transform="translate(186.855469 39.046875)scale(0.7)" xlink:href="#DejaVuSans-31"/>
       <use transform="translate(231.391602 39.046875)scale(0.7)" xlink:href="#DejaVuSans-34"/>
       <use transform="translate(275.927734 39.046875)scale(0.7)" xlink:href="#DejaVuSans-38"/>
      </g>
     </g>
    </g>
    <g id="ytick_3">
     <g id="line2d_21">
      <path clip-path="url(#pe9a0eaed74)" d="M 57.6 247.034892 
L 414.72 247.034892 
" style="fill:none;stroke:#b0b0b0;stroke-linecap:square;stroke-width:0.8;"/>
     </g>
     <g id="line2d_22">
      <g>
       <use style="stroke:#000000;stroke-width:0.8;" x="57.6" xlink:href="#m2cb19f2a00" y="247.034892"/>
      </g>
     </g>
     <g id="text_12">
      <!-- ${10^{-128}}$ -->
      <g transform="translate(18.2 250.834111)scale(0.1 -0.1)">
       <use transform="translate(0 0.765625)" xlink:href="#DejaVuSans-31"/>
       <use transform="translate(63.623047 0.765625)" xlink:href="#DejaVuSans-30"/>
       <use transform="translate(128.203125 39.046875)scale(0.7)" xlink:href="#DejaVuSans-2212"/>
       <use transform="translate(186.855469 39.046875)scale(0.7)" xlink:href="#DejaVuSans-31"/>
       <use transform="translate(231.391602 39.046875)scale(0.7)" xlink:href="#DejaVuSans-32"/>
       <use transform="translate(275.927734 39.046875)scale(0.7)" xlink:href="#DejaVuSans-38"/>
      </g>
     </g>
    </g>
    <g id="ytick_4">
     <g id="line2d_23">
      <path clip-path="url(#pe9a0eaed74)" d="M 57.6 216.588138 
L 414.72 216.588138 
" style="fill:none;stroke:#b0b0b0;stroke-linecap:square;stroke-width:0.8;"/>
     </g>
     <g id="line2d_24">
      <g>
       <use style="stroke:#000000;stroke-width:0.8;" x="57.6" xlink:href="#m2cb19f2a00" y="216.588138"/>
      </g>
     </g>
     <g id="text_13">
      <!-- ${10^{-108}}$ -->
      <g transform="translate(18.2 220.387357)scale(0.1 -0.1)">
       <use transform="translate(0 0.765625)" xlink:href="#DejaVuSans-31"/>
       <use transform="translate(63.623047 0.765625)" xlink:href="#DejaVuSans-30"/>
       <use transform="translate(128.203125 39.046875)scale(0.7)" xlink:href="#DejaVuSans-2212"/>
       <use transform="translate(186.855469 39.046875)scale(0.7)" xlink:href="#DejaVuSans-31"/>
       <use transform="translate(231.391602 39.046875)scale(0.7)" xlink:href="#DejaVuSans-30"/>
       <use transform="translate(275.927734 39.046875)scale(0.7)" xlink:href="#DejaVuSans-38"/>
      </g>
     </g>
    </g>
    <g id="ytick_5">
     <g id="line2d_25">
      <path clip-path="url(#pe9a0eaed74)" d="M 57.6 186.141384 
L 414.72 186.141384 
" style="fill:none;stroke:#b0b0b0;stroke-linecap:square;stroke-width:0.8;"/>
     </g>
     <g id="line2d_26">
      <g>
       <use style="stroke:#000000;stroke-width:0.8;" x="57.6" xlink:href="#m2cb19f2a00" y="186.141384"/>
      </g>
     </g>
     <g id="text_14">
      <!-- ${10^{-88}}$ -->
      <g transform="translate(22.7 189.940603)scale(0.1 -0.1)">
       <use transform="translate(0 0.765625)" xlink:href="#DejaVuSans-31"/>
       <use transform="translate(63.623047 0.765625)" xlink:href="#DejaVuSans-30"/>
       <use transform="translate(128.203125 39.046875)scale(0.7)" xlink:href="#DejaVuSans-2212"/>
       <use transform="translate(186.855469 39.046875)scale(0.7)" xlink:href="#DejaVuSans-38"/>
       <use transform="translate(231.391602 39.046875)scale(0.7)" xlink:href="#DejaVuSans-38"/>
      </g>
     </g>
    </g>
    <g id="ytick_6">
     <g id="line2d_27">
      <path clip-path="url(#pe9a0eaed74)" d="M 57.6 155.694631 
L 414.72 155.694631 
" style="fill:none;stroke:#b0b0b0;stroke-linecap:square;stroke-width:0.8;"/>
     </g>
     <g id="line2d_28">
      <g>
       <use style="stroke:#000000;stroke-width:0.8;" x="57.6" xlink:href="#m2cb19f2a00" y="155.694631"/>
      </g>
     </g>
     <g id="text_15">
      <!-- ${10^{-68}}$ -->
      <g transform="translate(22.7 159.493849)scale(0.1 -0.1)">
       <use transform="translate(0 0.765625)" xlink:href="#DejaVuSans-31"/>
       <use transform="translate(63.623047 0.765625)" xlink:href="#DejaVuSans-30"/>
       <use transform="translate(128.203125 39.046875)scale(0.7)" xlink:href="#DejaVuSans-2212"/>
       <use transform="translate(186.855469 39.046875)scale(0.7)" xlink:href="#DejaVuSans-36"/>
       <use transform="translate(231.391602 39.046875)scale(0.7)" xlink:href="#DejaVuSans-38"/>
      </g>
     </g>
    </g>
    <g id="ytick_7">
     <g id="line2d_29">
      <path clip-path="url(#pe9a0eaed74)" d="M 57.6 125.247877 
L 414.72 125.247877 
" style="fill:none;stroke:#b0b0b0;stroke-linecap:square;stroke-width:0.8;"/>
     </g>
     <g id="line2d_30">
      <g>
       <use style="stroke:#000000;stroke-width:0.8;" x="57.6" xlink:href="#m2cb19f2a00" y="125.247877"/>
      </g>
     </g>
     <g id="text_16">
      <!-- ${10^{-48}}$ -->
      <g transform="translate(22.7 129.047095)scale(0.1 -0.1)">
       <use transform="translate(0 0.765625)" xlink:href="#DejaVuSans-31"/>
       <use transform="translate(63.623047 0.765625)" xlink:href="#DejaVuSans-30"/>
       <use transform="translate(128.203125 39.046875)scale(0.7)" xlink:href="#DejaVuSans-2212"/>
       <use transform="translate(186.855469 39.046875)scale(0.7)" xlink:href="#DejaVuSans-34"/>
       <use transform="translate(231.391602 39.046875)scale(0.7)" xlink:href="#DejaVuSans-38"/>
      </g>
     </g>
    </g>
    <g id="ytick_8">
     <g id="line2d_31">
      <path clip-path="url(#pe9a0eaed74)" d="M 57.6 94.801123 
L 414.72 94.801123 
" style="fill:none;stroke:#b0b0b0;stroke-linecap:square;stroke-width:0.8;"/>
     </g>
     <g id="line2d_32">
      <g>
       <use style="stroke:#000000;stroke-width:0.8;" x="57.6" xlink:href="#m2cb19f2a00" y="94.801123"/>
      </g>
     </g>
     <g id="text_17">
      <!-- ${10^{-28}}$ -->
      <g transform="translate(22.7 98.600341)scale(0.1 -0.1)">
       <use transform="translate(0 0.765625)" xlink:href="#DejaVuSans-31"/>
       <use transform="translate(63.623047 0.765625)" xlink:href="#DejaVuSans-30"/>
       <use transform="translate(128.203125 39.046875)scale(0.7)" xlink:href="#DejaVuSans-2212"/>
       <use transform="translate(186.855469 39.046875)scale(0.7)" xlink:href="#DejaVuSans-32"/>
       <use transform="translate(231.391602 39.046875)scale(0.7)" xlink:href="#DejaVuSans-38"/>
      </g>
     </g>
    </g>
    <g id="ytick_9">
     <g id="line2d_33">
      <path clip-path="url(#pe9a0eaed74)" d="M 57.6 64.354369 
L 414.72 64.354369 
" style="fill:none;stroke:#b0b0b0;stroke-linecap:square;stroke-width:0.8;"/>
     </g>
     <g id="line2d_34">
      <g>
       <use style="stroke:#000000;stroke-width:0.8;" x="57.6" xlink:href="#m2cb19f2a00" y="64.354369"/>
      </g>
     </g>
     <g id="text_18">
      <!-- ${10^{-8}}$ -->
      <g transform="translate(27.1 68.153587)scale(0.1 -0.1)">
       <use transform="translate(0 0.765625)" xlink:href="#DejaVuSans-31"/>
       <use transform="translate(63.623047 0.765625)" xlink:href="#DejaVuSans-30"/>
       <use transform="translate(128.203125 39.046875)scale(0.7)" xlink:href="#DejaVuSans-2212"/>
       <use transform="translate(186.855469 39.046875)scale(0.7)" xlink:href="#DejaVuSans-38"/>
      </g>
     </g>
    </g>
    <g id="text_19">
     <!-- $\omega_i$ -->
     <defs>
      <path d="M 21.390625 -1.421875 
Q 1.125 -1.421875 6.78125 27.59375 
Q 8.984375 39.0625 19.625 54.6875 
L 29.296875 54.6875 
Q 19.234375 39.0625 17 27.34375 
Q 12.796875 6.203125 23.734375 6.203125 
Q 33.84375 6.203125 38.71875 32.46875 
L 47.015625 32.46875 
Q 41.703125 6.0625 51.8125 6.203125 
Q 62.703125 6.296875 66.796875 27.34375 
Q 69.046875 39.0625 65.140625 54.6875 
L 74.8125 54.6875 
Q 79.296875 39.0625 77.09375 27.59375 
Q 71.53125 -1.46875 51.21875 -1.421875 
Q 37.9375 -1.375 39.109375 13.1875 
Q 34.28125 -1.421875 21.390625 -1.421875 
" id="DejaVuSans-Oblique-3c9"/>
     </defs>
     <g transform="translate(12.120313 179.828)rotate(-90)scale(0.1 -0.1)">
      <use transform="translate(0 0.3125)" xlink:href="#DejaVuSans-Oblique-3c9"/>
      <use transform="translate(83.740234 -16.09375)scale(0.7)" xlink:href="#DejaVuSans-Oblique-69"/>
     </g>
    </g>
   </g>
   <g id="line2d_35">
    <defs>
     <path d="M 0 3 
C 0.795609 3 1.55874 2.683901 2.12132 2.12132 
C 2.683901 1.55874 3 0.795609 3 0 
C 3 -0.795609 2.683901 -1.55874 2.12132 -2.12132 
C 1.55874 -2.683901 0.795609 -3 0 -3 
C -0.795609 -3 -1.55874 -2.683901 -2.12132 -2.12132 
C -2.683901 -1.55874 -3 -0.795609 -3 0 
C -3 0.795609 -2.683901 1.55874 -2.12132 2.12132 
C -1.55874 2.683901 -0.795609 3 0 3 
z
" id="mc175d809a5" style="stroke:#1f77b4;"/>
    </defs>
    <g clip-path="url(#pe9a0eaed74)">
     <use style="fill:#1f77b4;stroke:#1f77b4;" x="334.120196" xlink:href="#mc175d809a5" y="241.011184"/>
     <use style="fill:#1f77b4;stroke:#1f77b4;" x="413.762977" xlink:href="#mc175d809a5" y="295.488"/>
     <use style="fill:#1f77b4;stroke:#1f77b4;" x="394.955786" xlink:href="#mc175d809a5" y="282.689261"/>
     <use style="fill:#1f77b4;stroke:#1f77b4;" x="354.981253" xlink:href="#mc175d809a5" y="255.325757"/>
     <use style="fill:#1f77b4;stroke:#1f77b4;" x="366.764349" xlink:href="#mc175d809a5" y="263.403525"/>
     <use style="fill:#1f77b4;stroke:#1f77b4;" x="101.65735" xlink:href="#mc175d809a5" y="81.417784"/>
     <use style="fill:#1f77b4;stroke:#1f77b4;" x="161.544907" xlink:href="#mc175d809a5" y="122.436571"/>
     <use style="fill:#1f77b4;stroke:#1f77b4;" x="203.048667" xlink:href="#mc175d809a5" y="150.94322"/>
     <use style="fill:#1f77b4;stroke:#1f77b4;" x="307.336798" xlink:href="#mc175d809a5" y="222.61694"/>
     <use style="fill:#1f77b4;stroke:#1f77b4;" x="84.743693" xlink:href="#mc175d809a5" y="69.917285"/>
     <use style="fill:#1f77b4;stroke:#1f77b4;" x="66.838731" xlink:href="#mc175d809a5" y="57.962129"/>
     <use style="fill:#1f77b4;stroke:#1f77b4;" x="239.286528" xlink:href="#mc175d809a5" y="175.848514"/>
     <use style="fill:#1f77b4;stroke:#1f77b4;" x="131.982602" xlink:href="#mc175d809a5" y="102.15943"/>
     <use style="fill:#1f77b4;stroke:#1f77b4;" x="134.954858" xlink:href="#mc175d809a5" y="104.196401"/>
     <use style="fill:#1f77b4;stroke:#1f77b4;" x="185.191074" xlink:href="#mc175d809a5" y="138.674323"/>
     <use style="fill:#1f77b4;stroke:#1f77b4;" x="212.699051" xlink:href="#mc175d809a5" y="157.574861"/>
     <use style="fill:#1f77b4;stroke:#1f77b4;" x="245.085134" xlink:href="#mc175d809a5" y="179.834223"/>
     <use style="fill:#1f77b4;stroke:#1f77b4;" x="77.334082" xlink:href="#mc175d809a5" y="64.925481"/>
     <use style="fill:#1f77b4;stroke:#1f77b4;" x="299.279009" xlink:href="#mc175d809a5" y="217.080795"/>
     <use style="fill:#1f77b4;stroke:#1f77b4;" x="78.702338" xlink:href="#mc175d809a5" y="65.842488"/>
     <use style="fill:#1f77b4;stroke:#1f77b4;" x="93.561734" xlink:href="#mc175d809a5" y="75.902436"/>
     <use style="fill:#1f77b4;stroke:#1f77b4;" x="150.961684" xlink:href="#mc175d809a5" y="115.173586"/>
     <use style="fill:#1f77b4;stroke:#1f77b4;" x="73.602505" xlink:href="#mc175d809a5" y="62.453549"/>
     <use style="fill:#1f77b4;stroke:#1f77b4;" x="76.025396" xlink:href="#mc175d809a5" y="64.052216"/>
     <use style="fill:#1f77b4;stroke:#1f77b4;" x="277.073195" xlink:href="#mc175d809a5" y="201.82087"/>
     <use style="fill:#1f77b4;stroke:#1f77b4;" x="80.128217" xlink:href="#mc175d809a5" y="66.801103"/>
     <use style="fill:#1f77b4;stroke:#1f77b4;" x="72.500549" xlink:href="#mc175d809a5" y="61.738979"/>
     <use style="fill:#1f77b4;stroke:#1f77b4;" x="263.622969" xlink:href="#mc175d809a5" y="192.576313"/>
     <use style="fill:#1f77b4;stroke:#1f77b4;" x="228.195494" xlink:href="#mc175d809a5" y="168.225232"/>
     <use style="fill:#1f77b4;stroke:#1f77b4;" x="99.544386" xlink:href="#mc175d809a5" y="79.976904"/>
     <use style="fill:#1f77b4;stroke:#1f77b4;" x="157.931009" xlink:href="#mc175d809a5" y="119.956067"/>
     <use style="fill:#1f77b4;stroke:#1f77b4;" x="291.571865" xlink:href="#mc175d809a5" y="211.784886"/>
     <use style="fill:#1f77b4;stroke:#1f77b4;" x="189.486147" xlink:href="#mc175d809a5" y="141.624834"/>
     <use style="fill:#1f77b4;stroke:#1f77b4;" x="181.002481" xlink:href="#mc175d809a5" y="135.797236"/>
     <use style="fill:#1f77b4;stroke:#1f77b4;" x="129.083198" xlink:href="#mc175d809a5" y="100.172882"/>
     <use style="fill:#1f77b4;stroke:#1f77b4;" x="147.602115" xlink:href="#mc175d809a5" y="112.868775"/>
     <use style="fill:#1f77b4;stroke:#1f77b4;" x="144.323381" xlink:href="#mc175d809a5" y="110.619836"/>
     <use style="fill:#1f77b4;stroke:#1f77b4;" x="63.028927" xlink:href="#mc175d809a5" y="55.52168"/>
     <use style="fill:#1f77b4;stroke:#1f77b4;" x="315.789424" xlink:href="#mc175d809a5" y="228.42341"/>
     <use style="fill:#1f77b4;stroke:#1f77b4;" x="324.692894" xlink:href="#mc175d809a5" y="234.538298"/>
     <use style="fill:#1f77b4;stroke:#1f77b4;" x="118.18814" xlink:href="#mc175d809a5" y="92.713276"/>
     <use style="fill:#1f77b4;stroke:#1f77b4;" x="172.931288" xlink:href="#mc175d809a5" y="130.254121"/>
     <use style="fill:#1f77b4;stroke:#1f77b4;" x="62.403219" xlink:href="#mc175d809a5" y="55.138952"/>
     <use style="fill:#1f77b4;stroke:#1f77b4;" x="69.565398" xlink:href="#mc175d809a5" y="59.795635"/>
     <use style="fill:#1f77b4;stroke:#1f77b4;" x="59.98272" xlink:href="#mc175d809a5" y="53.79694"/>
     <use style="fill:#1f77b4;stroke:#1f77b4;" x="115.634097" xlink:href="#mc175d809a5" y="90.966007"/>
     <use style="fill:#1f77b4;stroke:#1f77b4;" x="379.866498" xlink:href="#mc175d809a5" y="272.375802"/>
     <use style="fill:#1f77b4;stroke:#1f77b4;" x="103.830838" xlink:href="#mc175d809a5" y="82.900777"/>
     <use style="fill:#1f77b4;stroke:#1f77b4;" x="60.372003" xlink:href="#mc175d809a5" y="53.985053"/>
     <use style="fill:#1f77b4;stroke:#1f77b4;" x="95.497225" xlink:href="#mc175d809a5" y="77.219648"/>
     <use style="fill:#1f77b4;stroke:#1f77b4;" x="63.701295" xlink:href="#mc175d809a5" y="55.940498"/>
     <use style="fill:#1f77b4;stroke:#1f77b4;" x="344.169867" xlink:href="#mc175d809a5" y="247.908898"/>
     <use style="fill:#1f77b4;stroke:#1f77b4;" x="68.635418" xlink:href="#mc175d809a5" y="59.162026"/>
     <use style="fill:#1f77b4;stroke:#1f77b4;" x="59.552973" xlink:href="#mc175d809a5" y="56.115581"/>
     <use style="fill:#1f77b4;stroke:#1f77b4;" x="64.419766" xlink:href="#mc175d809a5" y="56.394753"/>
     <use style="fill:#1f77b4;stroke:#1f77b4;" x="89.864038" xlink:href="#mc175d809a5" y="73.389019"/>
     <use style="fill:#1f77b4;stroke:#1f77b4;" x="169.042542" xlink:href="#mc175d809a5" y="127.583884"/>
     <use style="fill:#1f77b4;stroke:#1f77b4;" x="207.809716" xlink:href="#mc175d809a5" y="154.214861"/>
     <use style="fill:#1f77b4;stroke:#1f77b4;" x="198.410789" xlink:href="#mc175d809a5" y="147.756437"/>
     <use style="fill:#1f77b4;stroke:#1f77b4;" x="59.117634" xlink:href="#mc175d809a5" y="53.647682"/>
     <use style="fill:#1f77b4;stroke:#1f77b4;" x="81.610676" xlink:href="#mc175d809a5" y="67.800139"/>
     <use style="fill:#1f77b4;stroke:#1f77b4;" x="70.506897" xlink:href="#mc175d809a5" y="60.435936"/>
     <use style="fill:#1f77b4;stroke:#1f77b4;" x="86.394159" xlink:href="#mc175d809a5" y="71.035015"/>
     <use style="fill:#1f77b4;stroke:#1f77b4;" x="126.255295" xlink:href="#mc175d809a5" y="98.235839"/>
     <use style="fill:#1f77b4;stroke:#1f77b4;" x="88.100833" xlink:href="#mc175d809a5" y="72.192209"/>
     <use style="fill:#1f77b4;stroke:#1f77b4;" x="138.001389" xlink:href="#mc175d809a5" y="106.284766"/>
     <use style="fill:#1f77b4;stroke:#1f77b4;" x="110.722213" xlink:href="#mc175d809a5" y="87.60758"/>
     <use style="fill:#1f77b4;stroke:#1f77b4;" x="257.240785" xlink:href="#mc175d809a5" y="188.189527"/>
     <use style="fill:#1f77b4;stroke:#1f77b4;" x="176.916946" xlink:href="#mc175d809a5" y="132.991228"/>
     <use style="fill:#1f77b4;stroke:#1f77b4;" x="97.491234" xlink:href="#mc175d809a5" y="78.577671"/>
     <use style="fill:#1f77b4;stroke:#1f77b4;" x="123.497617" xlink:href="#mc175d809a5" y="96.347432"/>
     <use style="fill:#1f77b4;stroke:#1f77b4;" x="65.183409" xlink:href="#mc175d809a5" y="56.88374"/>
     <use style="fill:#1f77b4;stroke:#1f77b4;" x="67.722947" xlink:href="#mc175d809a5" y="58.54843"/>
     <use style="fill:#1f77b4;stroke:#1f77b4;" x="141.1237" xlink:href="#mc175d809a5" y="108.425549"/>
     <use style="fill:#1f77b4;stroke:#1f77b4;" x="65.990641" xlink:href="#mc175d809a5" y="57.406599"/>
     <use style="fill:#1f77b4;stroke:#1f77b4;" x="59.64035" xlink:href="#mc175d809a5" y="53.643598"/>
     <use style="fill:#1f77b4;stroke:#1f77b4;" x="91.684181" xlink:href="#mc175d809a5" y="74.625668"/>
     <use style="fill:#1f77b4;stroke:#1f77b4;" x="71.474776" xlink:href="#mc175d809a5" y="61.076083"/>
     <use style="fill:#1f77b4;stroke:#1f77b4;" x="270.227859" xlink:href="#mc175d809a5" y="197.116054"/>
     <use style="fill:#1f77b4;stroke:#1f77b4;" x="58.628991" xlink:href="#mc175d809a5" y="53.854611"/>
     <use style="fill:#1f77b4;stroke:#1f77b4;" x="113.145783" xlink:href="#mc175d809a5" y="89.264329"/>
     <use style="fill:#1f77b4;stroke:#1f77b4;" x="59.008679" xlink:href="#mc175d809a5" y="54.157436"/>
     <use style="fill:#1f77b4;stroke:#1f77b4;" x="120.808949" xlink:href="#mc175d809a5" y="94.506838"/>
     <use style="fill:#1f77b4;stroke:#1f77b4;" x="222.885495" xlink:href="#mc175d809a5" y="164.575633"/>
     <use style="fill:#1f77b4;stroke:#1f77b4;" x="284.179701" xlink:href="#mc175d809a5" y="206.70491"/>
     <use style="fill:#1f77b4;stroke:#1f77b4;" x="74.779702" xlink:href="#mc175d809a5" y="63.226364"/>
     <use style="fill:#1f77b4;stroke:#1f77b4;" x="58.878602" xlink:href="#mc175d809a5" y="53.581664"/>
     <use style="fill:#1f77b4;stroke:#1f77b4;" x="106.065605" xlink:href="#mc175d809a5" y="84.426382"/>
     <use style="fill:#1f77b4;stroke:#1f77b4;" x="154.40398" xlink:href="#mc175d809a5" y="117.535559"/>
     <use style="fill:#1f77b4;stroke:#1f77b4;" x="251.065966" xlink:href="#mc175d809a5" y="183.945212"/>
     <use style="fill:#1f77b4;stroke:#1f77b4;" x="61.824504" xlink:href="#mc175d809a5" y="54.793009"/>
     <use style="fill:#1f77b4;stroke:#1f77b4;" x="61.292984" xlink:href="#mc175d809a5" y="54.484652"/>
     <use style="fill:#1f77b4;stroke:#1f77b4;" x="165.247944" xlink:href="#mc175d809a5" y="124.978624"/>
     <use style="fill:#1f77b4;stroke:#1f77b4;" x="59.350456" xlink:href="#mc175d809a5" y="53.568"/>
     <use style="fill:#1f77b4;stroke:#1f77b4;" x="233.659738" xlink:href="#mc175d809a5" y="171.980965"/>
     <use style="fill:#1f77b4;stroke:#1f77b4;" x="217.722266" xlink:href="#mc175d809a5" y="161.027051"/>
     <use style="fill:#1f77b4;stroke:#1f77b4;" x="58.733118" xlink:href="#mc175d809a5" y="53.635877"/>
     <use style="fill:#1f77b4;stroke:#1f77b4;" x="58.570703" xlink:href="#mc175d809a5" y="54.370661"/>
     <use style="fill:#1f77b4;stroke:#1f77b4;" x="83.14922" xlink:href="#mc175d809a5" y="68.838965"/>
     <use style="fill:#1f77b4;stroke:#1f77b4;" x="193.89139" xlink:href="#mc175d809a5" y="144.651294"/>
     <use style="fill:#1f77b4;stroke:#1f77b4;" x="108.362449" xlink:href="#mc175d809a5" y="85.995129"/>
     <use style="fill:#1f77b4;stroke:#1f77b4;" x="60.808786" xlink:href="#mc175d809a5" y="54.214888"/>
    </g>
   </g>
   <g id="patch_3">
    <path d="M 57.6 307.584 
L 57.6 41.472 
" style="fill:none;stroke:#000000;stroke-linecap:square;stroke-linejoin:miter;stroke-width:0.8;"/>
   </g>
   <g id="patch_4">
    <path d="M 414.72 307.584 
L 414.72 41.472 
" style="fill:none;stroke:#000000;stroke-linecap:square;stroke-linejoin:miter;stroke-width:0.8;"/>
   </g>
   <g id="patch_5">
    <path d="M 57.6 307.584 
L 414.72 307.584 
" style="fill:none;stroke:#000000;stroke-linecap:square;stroke-linejoin:miter;stroke-width:0.8;"/>
   </g>
   <g id="patch_6">
    <path d="M 57.6 41.472 
L 414.72 41.472 
" style="fill:none;stroke:#000000;stroke-linecap:square;stroke-linejoin:miter;stroke-width:0.8;"/>
   </g>
  </g>
 </g>
 <defs>
  <clipPath id="pe9a0eaed74">
   <rect height="266.112" width="357.12" x="57.6" y="41.472"/>
  </clipPath>
 </defs>
</svg>
