<?xml version="1.0" encoding="utf-8" standalone="no"?>
<!DOCTYPE svg PUBLIC "-//W3C//DTD SVG 1.1//EN"
  "http://www.w3.org/Graphics/SVG/1.1/DTD/svg11.dtd">
<!-- Created with matplotlib (http://matplotlib.org/) -->
<svg height="345pt" version="1.1" viewBox="0 0 460 345" width="460pt" xmlns="http://www.w3.org/2000/svg" xmlns:xlink="http://www.w3.org/1999/xlink">
 <defs>
  <style type="text/css">
*{stroke-linecap:butt;stroke-linejoin:round;}
  </style>
 </defs>
 <g id="figure_1">
  <g id="patch_1">
   <path d="M 0 345.6 
L 460.8 345.6 
L 460.8 0 
L 0 0 
z
" style="fill:#ffffff;"/>
  </g>
  <g id="axes_1">
   <g id="patch_2">
    <path d="M 57.6 307.584 
L 414.72 307.584 
L 414.72 41.472 
L 57.6 41.472 
z
" style="fill:#ffffff;"/>
   </g>
   <g id="matplotlib.axis_1">
    <g id="xtick_1">
     <g id="line2d_1">
      <path clip-path="url(#pdd08fa728b)" d="M 58.599094 307.584 
L 58.599094 41.472 
" style="fill:none;stroke:#b0b0b0;stroke-linecap:square;stroke-width:0.8;"/>
     </g>
     <g id="line2d_2">
      <defs>
       <path d="M 0 0 
L 0 3.5 
" id="m58b879df8a" style="stroke:#000000;stroke-width:0.8;"/>
      </defs>
      <g>
       <use style="stroke:#000000;stroke-width:0.8;" x="58.599094" xlink:href="#m58b879df8a" y="307.584"/>
      </g>
     </g>
     <g id="text_1">
      <!-- 0 -->
      <defs>
       <path d="M 31.78125 66.40625 
Q 24.171875 66.40625 20.328125 58.90625 
Q 16.5 51.421875 16.5 36.375 
Q 16.5 21.390625 20.328125 13.890625 
Q 24.171875 6.390625 31.78125 6.390625 
Q 39.453125 6.390625 43.28125 13.890625 
Q 47.125 21.390625 47.125 36.375 
Q 47.125 51.421875 43.28125 58.90625 
Q 39.453125 66.40625 31.78125 66.40625 
M 31.78125 74.21875 
Q 44.046875 74.21875 50.515625 64.515625 
Q 56.984375 54.828125 56.984375 36.375 
Q 56.984375 17.96875 50.515625 8.265625 
Q 44.046875 -1.421875 31.78125 -1.421875 
Q 19.53125 -1.421875 13.0625 8.265625 
Q 6.59375 17.96875 6.59375 36.375 
Q 6.59375 54.828125 13.0625 64.515625 
Q 19.53125 74.21875 31.78125 74.21875 
" id="DejaVuSans-30"/>
      </defs>
      <g transform="translate(55.417844 322.182437)scale(0.1 -0.1)">
       <use xlink:href="#DejaVuSans-30"/>
      </g>
     </g>
    </g>
    <g id="xtick_2">
     <g id="line2d_3">
      <path clip-path="url(#pdd08fa728b)" d="M 108.55379 307.584 
L 108.55379 41.472 
" style="fill:none;stroke:#b0b0b0;stroke-linecap:square;stroke-width:0.8;"/>
     </g>
     <g id="line2d_4">
      <g>
       <use style="stroke:#000000;stroke-width:0.8;" x="108.55379" xlink:href="#m58b879df8a" y="307.584"/>
      </g>
     </g>
     <g id="text_2">
      <!-- 50 -->
      <defs>
       <path d="M 10.796875 72.90625 
L 49.515625 72.90625 
L 49.515625 64.59375 
L 19.828125 64.59375 
L 19.828125 46.734375 
Q 21.96875 47.46875 24.109375 47.828125 
Q 26.265625 48.1875 28.421875 48.1875 
Q 40.625 48.1875 47.75 41.5 
Q 54.890625 34.8125 54.890625 23.390625 
Q 54.890625 11.625 47.5625 5.09375 
Q 40.234375 -1.421875 26.90625 -1.421875 
Q 22.3125 -1.421875 17.546875 -0.640625 
Q 12.796875 0.140625 7.71875 1.703125 
L 7.71875 11.625 
Q 12.109375 9.234375 16.796875 8.0625 
Q 21.484375 6.890625 26.703125 6.890625 
Q 35.15625 6.890625 40.078125 11.328125 
Q 45.015625 15.765625 45.015625 23.390625 
Q 45.015625 31 40.078125 35.4375 
Q 35.15625 39.890625 26.703125 39.890625 
Q 22.75 39.890625 18.8125 39.015625 
Q 14.890625 38.140625 10.796875 36.28125 
z
" id="DejaVuSans-35"/>
      </defs>
      <g transform="translate(102.19129 322.182437)scale(0.1 -0.1)">
       <use xlink:href="#DejaVuSans-35"/>
       <use x="63.623047" xlink:href="#DejaVuSans-30"/>
      </g>
     </g>
    </g>
    <g id="xtick_3">
     <g id="line2d_5">
      <path clip-path="url(#pdd08fa728b)" d="M 158.508487 307.584 
L 158.508487 41.472 
" style="fill:none;stroke:#b0b0b0;stroke-linecap:square;stroke-width:0.8;"/>
     </g>
     <g id="line2d_6">
      <g>
       <use style="stroke:#000000;stroke-width:0.8;" x="158.508487" xlink:href="#m58b879df8a" y="307.584"/>
      </g>
     </g>
     <g id="text_3">
      <!-- 100 -->
      <defs>
       <path d="M 12.40625 8.296875 
L 28.515625 8.296875 
L 28.515625 63.921875 
L 10.984375 60.40625 
L 10.984375 69.390625 
L 28.421875 72.90625 
L 38.28125 72.90625 
L 38.28125 8.296875 
L 54.390625 8.296875 
L 54.390625 0 
L 12.40625 0 
z
" id="DejaVuSans-31"/>
      </defs>
      <g transform="translate(148.964737 322.182437)scale(0.1 -0.1)">
       <use xlink:href="#DejaVuSans-31"/>
       <use x="63.623047" xlink:href="#DejaVuSans-30"/>
       <use x="127.246094" xlink:href="#DejaVuSans-30"/>
      </g>
     </g>
    </g>
    <g id="xtick_4">
     <g id="line2d_7">
      <path clip-path="url(#pdd08fa728b)" d="M 208.463183 307.584 
L 208.463183 41.472 
" style="fill:none;stroke:#b0b0b0;stroke-linecap:square;stroke-width:0.8;"/>
     </g>
     <g id="line2d_8">
      <g>
       <use style="stroke:#000000;stroke-width:0.8;" x="208.463183" xlink:href="#m58b879df8a" y="307.584"/>
      </g>
     </g>
     <g id="text_4">
      <!-- 150 -->
      <g transform="translate(198.919433 322.182437)scale(0.1 -0.1)">
       <use xlink:href="#DejaVuSans-31"/>
       <use x="63.623047" xlink:href="#DejaVuSans-35"/>
       <use x="127.246094" xlink:href="#DejaVuSans-30"/>
      </g>
     </g>
    </g>
    <g id="xtick_5">
     <g id="line2d_9">
      <path clip-path="url(#pdd08fa728b)" d="M 258.41788 307.584 
L 258.41788 41.472 
" style="fill:none;stroke:#b0b0b0;stroke-linecap:square;stroke-width:0.8;"/>
     </g>
     <g id="line2d_10">
      <g>
       <use style="stroke:#000000;stroke-width:0.8;" x="258.41788" xlink:href="#m58b879df8a" y="307.584"/>
      </g>
     </g>
     <g id="text_5">
      <!-- 200 -->
      <defs>
       <path d="M 19.1875 8.296875 
L 53.609375 8.296875 
L 53.609375 0 
L 7.328125 0 
L 7.328125 8.296875 
Q 12.9375 14.109375 22.625 23.890625 
Q 32.328125 33.6875 34.8125 36.53125 
Q 39.546875 41.84375 41.421875 45.53125 
Q 43.3125 49.21875 43.3125 52.78125 
Q 43.3125 58.59375 39.234375 62.25 
Q 35.15625 65.921875 28.609375 65.921875 
Q 23.96875 65.921875 18.8125 64.3125 
Q 13.671875 62.703125 7.8125 59.421875 
L 7.8125 69.390625 
Q 13.765625 71.78125 18.9375 73 
Q 24.125 74.21875 28.421875 74.21875 
Q 39.75 74.21875 46.484375 68.546875 
Q 53.21875 62.890625 53.21875 53.421875 
Q 53.21875 48.921875 51.53125 44.890625 
Q 49.859375 40.875 45.40625 35.40625 
Q 44.1875 33.984375 37.640625 27.21875 
Q 31.109375 20.453125 19.1875 8.296875 
" id="DejaVuSans-32"/>
      </defs>
      <g transform="translate(248.87413 322.182437)scale(0.1 -0.1)">
       <use xlink:href="#DejaVuSans-32"/>
       <use x="63.623047" xlink:href="#DejaVuSans-30"/>
       <use x="127.246094" xlink:href="#DejaVuSans-30"/>
      </g>
     </g>
    </g>
    <g id="xtick_6">
     <g id="line2d_11">
      <path clip-path="url(#pdd08fa728b)" d="M 308.372577 307.584 
L 308.372577 41.472 
" style="fill:none;stroke:#b0b0b0;stroke-linecap:square;stroke-width:0.8;"/>
     </g>
     <g id="line2d_12">
      <g>
       <use style="stroke:#000000;stroke-width:0.8;" x="308.372577" xlink:href="#m58b879df8a" y="307.584"/>
      </g>
     </g>
     <g id="text_6">
      <!-- 250 -->
      <g transform="translate(298.828827 322.182437)scale(0.1 -0.1)">
       <use xlink:href="#DejaVuSans-32"/>
       <use x="63.623047" xlink:href="#DejaVuSans-35"/>
       <use x="127.246094" xlink:href="#DejaVuSans-30"/>
      </g>
     </g>
    </g>
    <g id="xtick_7">
     <g id="line2d_13">
      <path clip-path="url(#pdd08fa728b)" d="M 358.327273 307.584 
L 358.327273 41.472 
" style="fill:none;stroke:#b0b0b0;stroke-linecap:square;stroke-width:0.8;"/>
     </g>
     <g id="line2d_14">
      <g>
       <use style="stroke:#000000;stroke-width:0.8;" x="358.327273" xlink:href="#m58b879df8a" y="307.584"/>
      </g>
     </g>
     <g id="text_7">
      <!-- 300 -->
      <defs>
       <path d="M 40.578125 39.3125 
Q 47.65625 37.796875 51.625 33 
Q 55.609375 28.21875 55.609375 21.1875 
Q 55.609375 10.40625 48.1875 4.484375 
Q 40.765625 -1.421875 27.09375 -1.421875 
Q 22.515625 -1.421875 17.65625 -0.515625 
Q 12.796875 0.390625 7.625 2.203125 
L 7.625 11.71875 
Q 11.71875 9.328125 16.59375 8.109375 
Q 21.484375 6.890625 26.8125 6.890625 
Q 36.078125 6.890625 40.9375 10.546875 
Q 45.796875 14.203125 45.796875 21.1875 
Q 45.796875 27.640625 41.28125 31.265625 
Q 36.765625 34.90625 28.71875 34.90625 
L 20.21875 34.90625 
L 20.21875 43.015625 
L 29.109375 43.015625 
Q 36.375 43.015625 40.234375 45.921875 
Q 44.09375 48.828125 44.09375 54.296875 
Q 44.09375 59.90625 40.109375 62.90625 
Q 36.140625 65.921875 28.71875 65.921875 
Q 24.65625 65.921875 20.015625 65.03125 
Q 15.375 64.15625 9.8125 62.3125 
L 9.8125 71.09375 
Q 15.4375 72.65625 20.34375 73.4375 
Q 25.25 74.21875 29.59375 74.21875 
Q 40.828125 74.21875 47.359375 69.109375 
Q 53.90625 64.015625 53.90625 55.328125 
Q 53.90625 49.265625 50.4375 45.09375 
Q 46.96875 40.921875 40.578125 39.3125 
" id="DejaVuSans-33"/>
      </defs>
      <g transform="translate(348.783523 322.182437)scale(0.1 -0.1)">
       <use xlink:href="#DejaVuSans-33"/>
       <use x="63.623047" xlink:href="#DejaVuSans-30"/>
       <use x="127.246094" xlink:href="#DejaVuSans-30"/>
      </g>
     </g>
    </g>
    <g id="xtick_8">
     <g id="line2d_15">
      <path clip-path="url(#pdd08fa728b)" d="M 408.28197 307.584 
L 408.28197 41.472 
" style="fill:none;stroke:#b0b0b0;stroke-linecap:square;stroke-width:0.8;"/>
     </g>
     <g id="line2d_16">
      <g>
       <use style="stroke:#000000;stroke-width:0.8;" x="408.28197" xlink:href="#m58b879df8a" y="307.584"/>
      </g>
     </g>
     <g id="text_8">
      <!-- 350 -->
      <g transform="translate(398.73822 322.182437)scale(0.1 -0.1)">
       <use xlink:href="#DejaVuSans-33"/>
       <use x="63.623047" xlink:href="#DejaVuSans-35"/>
       <use x="127.246094" xlink:href="#DejaVuSans-30"/>
      </g>
     </g>
    </g>
    <g id="text_9">
     <!-- $\gamma_i$ -->
     <defs>
      <path d="M 23.296875 46.09375 
L 28.71875 12.3125 
L 54 54.6875 
L 63.53125 54.6875 
L 30.8125 0 
L 26.765625 -20.796875 
L 17.78125 -20.796875 
L 21.828125 0 
L 15.4375 40.828125 
Q 14.453125 46.96875 9.8125 46.96875 
L 7.421875 46.96875 
L 8.890625 54.6875 
L 12.3125 54.6875 
Q 21.921875 54.6875 23.296875 46.09375 
" id="DejaVuSans-Oblique-3b3"/>
      <path d="M 18.3125 75.984375 
L 27.296875 75.984375 
L 25.09375 64.59375 
L 16.109375 64.59375 
z
M 14.203125 54.6875 
L 23.1875 54.6875 
L 12.5 0 
L 3.515625 0 
z
" id="DejaVuSans-Oblique-69"/>
     </defs>
     <g transform="translate(232.06 335.84025)scale(0.1 -0.1)">
      <use transform="translate(0 0.3125)" xlink:href="#DejaVuSans-Oblique-3b3"/>
      <use transform="translate(59.179688 -16.09375)scale(0.7)" xlink:href="#DejaVuSans-Oblique-69"/>
     </g>
    </g>
   </g>
   <g id="matplotlib.axis_2">
    <g id="ytick_1">
     <g id="line2d_17">
      <path clip-path="url(#pdd08fa728b)" d="M 57.6 277.981474 
L 414.72 277.981474 
" style="fill:none;stroke:#b0b0b0;stroke-linecap:square;stroke-width:0.8;"/>
     </g>
     <g id="line2d_18">
      <defs>
       <path d="M 0 0 
L -3.5 0 
" id="m0c45b2f981" style="stroke:#000000;stroke-width:0.8;"/>
      </defs>
      <g>
       <use style="stroke:#000000;stroke-width:0.8;" x="57.6" xlink:href="#m0c45b2f981" y="277.981474"/>
      </g>
     </g>
     <g id="text_10">
      <!-- ${10^{-142}}$ -->
      <defs>
       <path d="M 10.59375 35.5 
L 73.1875 35.5 
L 73.1875 27.203125 
L 10.59375 27.203125 
z
" id="DejaVuSans-2212"/>
       <path d="M 37.796875 64.3125 
L 12.890625 25.390625 
L 37.796875 25.390625 
z
M 35.203125 72.90625 
L 47.609375 72.90625 
L 47.609375 25.390625 
L 58.015625 25.390625 
L 58.015625 17.1875 
L 47.609375 17.1875 
L 47.609375 0 
L 37.796875 0 
L 37.796875 17.1875 
L 4.890625 17.1875 
L 4.890625 26.703125 
z
" id="DejaVuSans-34"/>
      </defs>
      <g transform="translate(18.2 281.780693)scale(0.1 -0.1)">
       <use transform="translate(0 0.765625)" xlink:href="#DejaVuSans-31"/>
       <use transform="translate(63.623047 0.765625)" xlink:href="#DejaVuSans-30"/>
       <use transform="translate(128.203125 39.046875)scale(0.7)" xlink:href="#DejaVuSans-2212"/>
       <use transform="translate(186.855469 39.046875)scale(0.7)" xlink:href="#DejaVuSans-31"/>
       <use transform="translate(231.391602 39.046875)scale(0.7)" xlink:href="#DejaVuSans-34"/>
       <use transform="translate(275.927734 39.046875)scale(0.7)" xlink:href="#DejaVuSans-32"/>
      </g>
     </g>
    </g>
    <g id="ytick_2">
     <g id="line2d_19">
      <path clip-path="url(#pdd08fa728b)" d="M 57.6 247.770868 
L 414.72 247.770868 
" style="fill:none;stroke:#b0b0b0;stroke-linecap:square;stroke-width:0.8;"/>
     </g>
     <g id="line2d_20">
      <g>
       <use style="stroke:#000000;stroke-width:0.8;" x="57.6" xlink:href="#m0c45b2f981" y="247.770868"/>
      </g>
     </g>
     <g id="text_11">
      <!-- ${10^{-123}}$ -->
      <g transform="translate(18.2 251.570086)scale(0.1 -0.1)">
       <use transform="translate(0 0.765625)" xlink:href="#DejaVuSans-31"/>
       <use transform="translate(63.623047 0.765625)" xlink:href="#DejaVuSans-30"/>
       <use transform="translate(128.203125 39.046875)scale(0.7)" xlink:href="#DejaVuSans-2212"/>
       <use transform="translate(186.855469 39.046875)scale(0.7)" xlink:href="#DejaVuSans-31"/>
       <use transform="translate(231.391602 39.046875)scale(0.7)" xlink:href="#DejaVuSans-32"/>
       <use transform="translate(275.927734 39.046875)scale(0.7)" xlink:href="#DejaVuSans-33"/>
      </g>
     </g>
    </g>
    <g id="ytick_3">
     <g id="line2d_21">
      <path clip-path="url(#pdd08fa728b)" d="M 57.6 217.560261 
L 414.72 217.560261 
" style="fill:none;stroke:#b0b0b0;stroke-linecap:square;stroke-width:0.8;"/>
     </g>
     <g id="line2d_22">
      <g>
       <use style="stroke:#000000;stroke-width:0.8;" x="57.6" xlink:href="#m0c45b2f981" y="217.560261"/>
      </g>
     </g>
     <g id="text_12">
      <!-- ${10^{-104}}$ -->
      <g transform="translate(18.2 221.35948)scale(0.1 -0.1)">
       <use transform="translate(0 0.765625)" xlink:href="#DejaVuSans-31"/>
       <use transform="translate(63.623047 0.765625)" xlink:href="#DejaVuSans-30"/>
       <use transform="translate(128.203125 39.046875)scale(0.7)" xlink:href="#DejaVuSans-2212"/>
       <use transform="translate(186.855469 39.046875)scale(0.7)" xlink:href="#DejaVuSans-31"/>
       <use transform="translate(231.391602 39.046875)scale(0.7)" xlink:href="#DejaVuSans-30"/>
       <use transform="translate(275.927734 39.046875)scale(0.7)" xlink:href="#DejaVuSans-34"/>
      </g>
     </g>
    </g>
    <g id="ytick_4">
     <g id="line2d_23">
      <path clip-path="url(#pdd08fa728b)" d="M 57.6 187.349654 
L 414.72 187.349654 
" style="fill:none;stroke:#b0b0b0;stroke-linecap:square;stroke-width:0.8;"/>
     </g>
     <g id="line2d_24">
      <g>
       <use style="stroke:#000000;stroke-width:0.8;" x="57.6" xlink:href="#m0c45b2f981" y="187.349654"/>
      </g>
     </g>
     <g id="text_13">
      <!-- ${10^{-85}}$ -->
      <defs>
       <path d="M 31.78125 34.625 
Q 24.75 34.625 20.71875 30.859375 
Q 16.703125 27.09375 16.703125 20.515625 
Q 16.703125 13.921875 20.71875 10.15625 
Q 24.75 6.390625 31.78125 6.390625 
Q 38.8125 6.390625 42.859375 10.171875 
Q 46.921875 13.96875 46.921875 20.515625 
Q 46.921875 27.09375 42.890625 30.859375 
Q 38.875 34.625 31.78125 34.625 
M 21.921875 38.8125 
Q 15.578125 40.375 12.03125 44.71875 
Q 8.5 49.078125 8.5 55.328125 
Q 8.5 64.0625 14.71875 69.140625 
Q 20.953125 74.21875 31.78125 74.21875 
Q 42.671875 74.21875 48.875 69.140625 
Q 55.078125 64.0625 55.078125 55.328125 
Q 55.078125 49.078125 51.53125 44.71875 
Q 48 40.375 41.703125 38.8125 
Q 48.828125 37.15625 52.796875 32.3125 
Q 56.78125 27.484375 56.78125 20.515625 
Q 56.78125 9.90625 50.3125 4.234375 
Q 43.84375 -1.421875 31.78125 -1.421875 
Q 19.734375 -1.421875 13.25 4.234375 
Q 6.78125 9.90625 6.78125 20.515625 
Q 6.78125 27.484375 10.78125 32.3125 
Q 14.796875 37.15625 21.921875 38.8125 
M 18.3125 54.390625 
Q 18.3125 48.734375 21.84375 45.5625 
Q 25.390625 42.390625 31.78125 42.390625 
Q 38.140625 42.390625 41.71875 45.5625 
Q 45.3125 48.734375 45.3125 54.390625 
Q 45.3125 60.0625 41.71875 63.234375 
Q 38.140625 66.40625 31.78125 66.40625 
Q 25.390625 66.40625 21.84375 63.234375 
Q 18.3125 60.0625 18.3125 54.390625 
" id="DejaVuSans-38"/>
      </defs>
      <g transform="translate(22.7 191.148873)scale(0.1 -0.1)">
       <use transform="translate(0 0.765625)" xlink:href="#DejaVuSans-31"/>
       <use transform="translate(63.623047 0.765625)" xlink:href="#DejaVuSans-30"/>
       <use transform="translate(128.203125 39.046875)scale(0.7)" xlink:href="#DejaVuSans-2212"/>
       <use transform="translate(186.855469 39.046875)scale(0.7)" xlink:href="#DejaVuSans-38"/>
       <use transform="translate(231.391602 39.046875)scale(0.7)" xlink:href="#DejaVuSans-35"/>
      </g>
     </g>
    </g>
    <g id="ytick_5">
     <g id="line2d_25">
      <path clip-path="url(#pdd08fa728b)" d="M 57.6 157.139047 
L 414.72 157.139047 
" style="fill:none;stroke:#b0b0b0;stroke-linecap:square;stroke-width:0.8;"/>
     </g>
     <g id="line2d_26">
      <g>
       <use style="stroke:#000000;stroke-width:0.8;" x="57.6" xlink:href="#m0c45b2f981" y="157.139047"/>
      </g>
     </g>
     <g id="text_14">
      <!-- ${10^{-66}}$ -->
      <defs>
       <path d="M 33.015625 40.375 
Q 26.375 40.375 22.484375 35.828125 
Q 18.609375 31.296875 18.609375 23.390625 
Q 18.609375 15.53125 22.484375 10.953125 
Q 26.375 6.390625 33.015625 6.390625 
Q 39.65625 6.390625 43.53125 10.953125 
Q 47.40625 15.53125 47.40625 23.390625 
Q 47.40625 31.296875 43.53125 35.828125 
Q 39.65625 40.375 33.015625 40.375 
M 52.59375 71.296875 
L 52.59375 62.3125 
Q 48.875 64.0625 45.09375 64.984375 
Q 41.3125 65.921875 37.59375 65.921875 
Q 27.828125 65.921875 22.671875 59.328125 
Q 17.53125 52.734375 16.796875 39.40625 
Q 19.671875 43.65625 24.015625 45.921875 
Q 28.375 48.1875 33.59375 48.1875 
Q 44.578125 48.1875 50.953125 41.515625 
Q 57.328125 34.859375 57.328125 23.390625 
Q 57.328125 12.15625 50.6875 5.359375 
Q 44.046875 -1.421875 33.015625 -1.421875 
Q 20.359375 -1.421875 13.671875 8.265625 
Q 6.984375 17.96875 6.984375 36.375 
Q 6.984375 53.65625 15.1875 63.9375 
Q 23.390625 74.21875 37.203125 74.21875 
Q 40.921875 74.21875 44.703125 73.484375 
Q 48.484375 72.75 52.59375 71.296875 
" id="DejaVuSans-36"/>
      </defs>
      <g transform="translate(22.7 160.938266)scale(0.1 -0.1)">
       <use transform="translate(0 0.765625)" xlink:href="#DejaVuSans-31"/>
       <use transform="translate(63.623047 0.765625)" xlink:href="#DejaVuSans-30"/>
       <use transform="translate(128.203125 39.046875)scale(0.7)" xlink:href="#DejaVuSans-2212"/>
       <use transform="translate(186.855469 39.046875)scale(0.7)" xlink:href="#DejaVuSans-36"/>
       <use transform="translate(231.391602 39.046875)scale(0.7)" xlink:href="#DejaVuSans-36"/>
      </g>
     </g>
    </g>
    <g id="ytick_6">
     <g id="line2d_27">
      <path clip-path="url(#pdd08fa728b)" d="M 57.6 126.928441 
L 414.72 126.928441 
" style="fill:none;stroke:#b0b0b0;stroke-linecap:square;stroke-width:0.8;"/>
     </g>
     <g id="line2d_28">
      <g>
       <use style="stroke:#000000;stroke-width:0.8;" x="57.6" xlink:href="#m0c45b2f981" y="126.928441"/>
      </g>
     </g>
     <g id="text_15">
      <!-- ${10^{-47}}$ -->
      <defs>
       <path d="M 8.203125 72.90625 
L 55.078125 72.90625 
L 55.078125 68.703125 
L 28.609375 0 
L 18.3125 0 
L 43.21875 64.59375 
L 8.203125 64.59375 
z
" id="DejaVuSans-37"/>
      </defs>
      <g transform="translate(22.7 130.727659)scale(0.1 -0.1)">
       <use transform="translate(0 0.684375)" xlink:href="#DejaVuSans-31"/>
       <use transform="translate(63.623047 0.684375)" xlink:href="#DejaVuSans-30"/>
       <use transform="translate(128.203125 38.965625)scale(0.7)" xlink:href="#DejaVuSans-2212"/>
       <use transform="translate(186.855469 38.965625)scale(0.7)" xlink:href="#DejaVuSans-34"/>
       <use transform="translate(231.391602 38.965625)scale(0.7)" xlink:href="#DejaVuSans-37"/>
      </g>
     </g>
    </g>
    <g id="ytick_7">
     <g id="line2d_29">
      <path clip-path="url(#pdd08fa728b)" d="M 57.6 96.717834 
L 414.72 96.717834 
" style="fill:none;stroke:#b0b0b0;stroke-linecap:square;stroke-width:0.8;"/>
     </g>
     <g id="line2d_30">
      <g>
       <use style="stroke:#000000;stroke-width:0.8;" x="57.6" xlink:href="#m0c45b2f981" y="96.717834"/>
      </g>
     </g>
     <g id="text_16">
      <!-- ${10^{-28}}$ -->
      <g transform="translate(22.7 100.517053)scale(0.1 -0.1)">
       <use transform="translate(0 0.765625)" xlink:href="#DejaVuSans-31"/>
       <use transform="translate(63.623047 0.765625)" xlink:href="#DejaVuSans-30"/>
       <use transform="translate(128.203125 39.046875)scale(0.7)" xlink:href="#DejaVuSans-2212"/>
       <use transform="translate(186.855469 39.046875)scale(0.7)" xlink:href="#DejaVuSans-32"/>
       <use transform="translate(231.391602 39.046875)scale(0.7)" xlink:href="#DejaVuSans-38"/>
      </g>
     </g>
    </g>
    <g id="ytick_8">
     <g id="line2d_31">
      <path clip-path="url(#pdd08fa728b)" d="M 57.6 66.507227 
L 414.72 66.507227 
" style="fill:none;stroke:#b0b0b0;stroke-linecap:square;stroke-width:0.8;"/>
     </g>
     <g id="line2d_32">
      <g>
       <use style="stroke:#000000;stroke-width:0.8;" x="57.6" xlink:href="#m0c45b2f981" y="66.507227"/>
      </g>
     </g>
     <g id="text_17">
      <!-- ${10^{-9}}$ -->
      <defs>
       <path d="M 10.984375 1.515625 
L 10.984375 10.5 
Q 14.703125 8.734375 18.5 7.8125 
Q 22.3125 6.890625 25.984375 6.890625 
Q 35.75 6.890625 40.890625 13.453125 
Q 46.046875 20.015625 46.78125 33.40625 
Q 43.953125 29.203125 39.59375 26.953125 
Q 35.25 24.703125 29.984375 24.703125 
Q 19.046875 24.703125 12.671875 31.3125 
Q 6.296875 37.9375 6.296875 49.421875 
Q 6.296875 60.640625 12.9375 67.421875 
Q 19.578125 74.21875 30.609375 74.21875 
Q 43.265625 74.21875 49.921875 64.515625 
Q 56.59375 54.828125 56.59375 36.375 
Q 56.59375 19.140625 48.40625 8.859375 
Q 40.234375 -1.421875 26.421875 -1.421875 
Q 22.703125 -1.421875 18.890625 -0.6875 
Q 15.09375 0.046875 10.984375 1.515625 
M 30.609375 32.421875 
Q 37.25 32.421875 41.125 36.953125 
Q 45.015625 41.5 45.015625 49.421875 
Q 45.015625 57.28125 41.125 61.84375 
Q 37.25 66.40625 30.609375 66.40625 
Q 23.96875 66.40625 20.09375 61.84375 
Q 16.21875 57.28125 16.21875 49.421875 
Q 16.21875 41.5 20.09375 36.953125 
Q 23.96875 32.421875 30.609375 32.421875 
" id="DejaVuSans-39"/>
      </defs>
      <g transform="translate(27.1 70.306446)scale(0.1 -0.1)">
       <use transform="translate(0 0.765625)" xlink:href="#DejaVuSans-31"/>
       <use transform="translate(63.623047 0.765625)" xlink:href="#DejaVuSans-30"/>
       <use transform="translate(128.203125 39.046875)scale(0.7)" xlink:href="#DejaVuSans-2212"/>
       <use transform="translate(186.855469 39.046875)scale(0.7)" xlink:href="#DejaVuSans-39"/>
      </g>
     </g>
    </g>
    <g id="text_18">
     <!-- $\omega_i$ -->
     <defs>
      <path d="M 21.390625 -1.421875 
Q 1.125 -1.421875 6.78125 27.59375 
Q 8.984375 39.0625 19.625 54.6875 
L 29.296875 54.6875 
Q 19.234375 39.0625 17 27.34375 
Q 12.796875 6.203125 23.734375 6.203125 
Q 33.84375 6.203125 38.71875 32.46875 
L 47.015625 32.46875 
Q 41.703125 6.0625 51.8125 6.203125 
Q 62.703125 6.296875 66.796875 27.34375 
Q 69.046875 39.0625 65.140625 54.6875 
L 74.8125 54.6875 
Q 79.296875 39.0625 77.09375 27.59375 
Q 71.53125 -1.46875 51.21875 -1.421875 
Q 37.9375 -1.375 39.109375 13.1875 
Q 34.28125 -1.421875 21.390625 -1.421875 
" id="DejaVuSans-Oblique-3c9"/>
     </defs>
     <g transform="translate(12.120313 179.828)rotate(-90)scale(0.1 -0.1)">
      <use transform="translate(0 0.3125)" xlink:href="#DejaVuSans-Oblique-3c9"/>
      <use transform="translate(83.740234 -16.09375)scale(0.7)" xlink:href="#DejaVuSans-Oblique-69"/>
     </g>
    </g>
   </g>
   <g id="line2d_33">
    <defs>
     <path d="M 0 3 
C 0.795609 3 1.55874 2.683901 2.12132 2.12132 
C 2.683901 1.55874 3 0.795609 3 0 
C 3 -0.795609 2.683901 -1.55874 2.12132 -2.12132 
C 1.55874 -2.683901 0.795609 -3 0 -3 
C -0.795609 -3 -1.55874 -2.683901 -2.12132 -2.12132 
C -2.683901 -1.55874 -3 -0.795609 -3 0 
C -3 0.795609 -2.683901 1.55874 -2.12132 2.12132 
C -1.55874 2.683901 -0.795609 3 0 3 
z
" id="m627ad552b0" style="stroke:#1f77b4;"/>
    </defs>
    <g clip-path="url(#pdd08fa728b)">
     <use style="fill:#1f77b4;stroke:#1f77b4;" x="394.375105" xlink:href="#m627ad552b0" y="282.319748"/>
     <use style="fill:#1f77b4;stroke:#1f77b4;" x="378.863114" xlink:href="#m627ad552b0" y="271.714381"/>
     <use style="fill:#1f77b4;stroke:#1f77b4;" x="342.204312" xlink:href="#m627ad552b0" y="246.580145"/>
     <use style="fill:#1f77b4;stroke:#1f77b4;" x="353.301075" xlink:href="#m627ad552b0" y="254.195219"/>
     <use style="fill:#1f77b4;stroke:#1f77b4;" x="94.59186" xlink:href="#m627ad552b0" y="76.585809"/>
     <use style="fill:#1f77b4;stroke:#1f77b4;" x="64.222698" xlink:href="#m627ad552b0" y="56.260913"/>
     <use style="fill:#1f77b4;stroke:#1f77b4;" x="322.227944" xlink:href="#m627ad552b0" y="232.862294"/>
     <use style="fill:#1f77b4;stroke:#1f77b4;" x="163.708131" xlink:href="#m627ad552b0" y="123.909819"/>
     <use style="fill:#1f77b4;stroke:#1f77b4;" x="365.401314" xlink:href="#m627ad552b0" y="262.493013"/>
     <use style="fill:#1f77b4;stroke:#1f77b4;" x="223.632957" xlink:href="#m627ad552b0" y="165.087881"/>
     <use style="fill:#1f77b4;stroke:#1f77b4;" x="92.59721" xlink:href="#m627ad552b0" y="75.228834"/>
     <use style="fill:#1f77b4;stroke:#1f77b4;" x="110.361823" xlink:href="#m627ad552b0" y="87.343969"/>
     <use style="fill:#1f77b4;stroke:#1f77b4;" x="259.742431" xlink:href="#m627ad552b0" y="189.914336"/>
     <use style="fill:#1f77b4;stroke:#1f77b4;" x="175.774601" xlink:href="#m627ad552b0" y="132.196858"/>
     <use style="fill:#1f77b4;stroke:#1f77b4;" x="413.720906" xlink:href="#m627ad552b0" y="295.488"/>
     <use style="fill:#1f77b4;stroke:#1f77b4;" x="212.984312" xlink:href="#m627ad552b0" y="157.76747"/>
     <use style="fill:#1f77b4;stroke:#1f77b4;" x="86.98385" xlink:href="#m627ad552b0" y="71.416861"/>
     <use style="fill:#1f77b4;stroke:#1f77b4;" x="240.832076" xlink:href="#m627ad552b0" y="176.91258"/>
     <use style="fill:#1f77b4;stroke:#1f77b4;" x="81.91294" xlink:href="#m627ad552b0" y="67.984834"/>
     <use style="fill:#1f77b4;stroke:#1f77b4;" x="296.194427" xlink:href="#m627ad552b0" y="214.973435"/>
     <use style="fill:#1f77b4;stroke:#1f77b4;" x="120.873855" xlink:href="#m627ad552b0" y="94.534549"/>
     <use style="fill:#1f77b4;stroke:#1f77b4;" x="88.793876" xlink:href="#m627ad552b0" y="72.644788"/>
     <use style="fill:#1f77b4;stroke:#1f77b4;" x="207.881942" xlink:href="#m627ad552b0" y="154.260143"/>
     <use style="fill:#1f77b4;stroke:#1f77b4;" x="142.166182" xlink:href="#m627ad552b0" y="109.125783"/>
     <use style="fill:#1f77b4;stroke:#1f77b4;" x="229.193914" xlink:href="#m627ad552b0" y="168.911018"/>
     <use style="fill:#1f77b4;stroke:#1f77b4;" x="288.307398" xlink:href="#m627ad552b0" y="209.552224"/>
     <use style="fill:#1f77b4;stroke:#1f77b4;" x="74.626225" xlink:href="#m627ad552b0" y="63.084679"/>
     <use style="fill:#1f77b4;stroke:#1f77b4;" x="80.340472" xlink:href="#m627ad552b0" y="66.923595"/>
     <use style="fill:#1f77b4;stroke:#1f77b4;" x="67.734292" xlink:href="#m627ad552b0" y="58.521012"/>
     <use style="fill:#1f77b4;stroke:#1f77b4;" x="78.826044" xlink:href="#m627ad552b0" y="65.903224"/>
     <use style="fill:#1f77b4;stroke:#1f77b4;" x="159.886537" xlink:href="#m627ad552b0" y="121.285978"/>
     <use style="fill:#1f77b4;stroke:#1f77b4;" x="266.487398" xlink:href="#m627ad552b0" y="194.55171"/>
     <use style="fill:#1f77b4;stroke:#1f77b4;" x="100.956506" xlink:href="#m627ad552b0" y="80.922235"/>
     <use style="fill:#1f77b4;stroke:#1f77b4;" x="145.532813" xlink:href="#m627ad552b0" y="111.435135"/>
     <use style="fill:#1f77b4;stroke:#1f77b4;" x="246.929588" xlink:href="#m627ad552b0" y="181.104903"/>
     <use style="fill:#1f77b4;stroke:#1f77b4;" x="156.160625" xlink:href="#m627ad552b0" y="118.728243"/>
     <use style="fill:#1f77b4;stroke:#1f77b4;" x="234.923765" xlink:href="#m627ad552b0" y="172.850401"/>
     <use style="fill:#1f77b4;stroke:#1f77b4;" x="83.543962" xlink:href="#m627ad552b0" y="69.08724"/>
     <use style="fill:#1f77b4;stroke:#1f77b4;" x="148.986031" xlink:href="#m627ad552b0" y="113.804373"/>
     <use style="fill:#1f77b4;stroke:#1f77b4;" x="135.685013" xlink:href="#m627ad552b0" y="104.681501"/>
     <use style="fill:#1f77b4;stroke:#1f77b4;" x="218.232326" xlink:href="#m627ad552b0" y="161.375125"/>
     <use style="fill:#1f77b4;stroke:#1f77b4;" x="118.138293" xlink:href="#m627ad552b0" y="92.662267"/>
     <use style="fill:#1f77b4;stroke:#1f77b4;" x="66.776639" xlink:href="#m627ad552b0" y="57.897891"/>
     <use style="fill:#1f77b4;stroke:#1f77b4;" x="331.8945" xlink:href="#m627ad552b0" y="239.501598"/>
     <use style="fill:#1f77b4;stroke:#1f77b4;" x="253.228437" xlink:href="#m627ad552b0" y="185.435675"/>
     <use style="fill:#1f77b4;stroke:#1f77b4;" x="107.909318" xlink:href="#m627ad552b0" y="85.668187"/>
     <use style="fill:#1f77b4;stroke:#1f77b4;" x="69.811851" xlink:href="#m627ad552b0" y="59.884664"/>
     <use style="fill:#1f77b4;stroke:#1f77b4;" x="171.649212" xlink:href="#m627ad552b0" y="129.363238"/>
     <use style="fill:#1f77b4;stroke:#1f77b4;" x="61.086105" xlink:href="#m627ad552b0" y="54.35479"/>
     <use style="fill:#1f77b4;stroke:#1f77b4;" x="62.010214" xlink:href="#m627ad552b0" y="54.130991"/>
     <use style="fill:#1f77b4;stroke:#1f77b4;" x="180.007519" xlink:href="#m627ad552b0" y="135.104695"/>
     <use style="fill:#1f77b4;stroke:#1f77b4;" x="280.746556" xlink:href="#m627ad552b0" y="204.354727"/>
     <use style="fill:#1f77b4;stroke:#1f77b4;" x="129.528248" xlink:href="#m627ad552b0" y="100.461785"/>
     <use style="fill:#1f77b4;stroke:#1f77b4;" x="68.745906" xlink:href="#m627ad552b0" y="59.183237"/>
     <use style="fill:#1f77b4;stroke:#1f77b4;" x="105.5249" xlink:href="#m627ad552b0" y="84.03973"/>
     <use style="fill:#1f77b4;stroke:#1f77b4;" x="65.021484" xlink:href="#m627ad552b0" y="56.768315"/>
     <use style="fill:#1f77b4;stroke:#1f77b4;" x="193.388142" xlink:href="#m627ad552b0" y="144.298637"/>
     <use style="fill:#1f77b4;stroke:#1f77b4;" x="61.747391" xlink:href="#m627ad552b0" y="53.874111"/>
     <use style="fill:#1f77b4;stroke:#1f77b4;" x="73.339294" xlink:href="#m627ad552b0" y="62.225252"/>
     <use style="fill:#1f77b4;stroke:#1f77b4;" x="126.567482" xlink:href="#m627ad552b0" y="98.433391"/>
     <use style="fill:#1f77b4;stroke:#1f77b4;" x="132.56691" xlink:href="#m627ad552b0" y="102.544138"/>
     <use style="fill:#1f77b4;stroke:#1f77b4;" x="138.884194" xlink:href="#m627ad552b0" y="106.874989"/>
     <use style="fill:#1f77b4;stroke:#1f77b4;" x="103.207603" xlink:href="#m627ad552b0" y="82.45795"/>
     <use style="fill:#1f77b4;stroke:#1f77b4;" x="112.883432" xlink:href="#m627ad552b0" y="89.067756"/>
     <use style="fill:#1f77b4;stroke:#1f77b4;" x="60.593015" xlink:href="#m627ad552b0" y="54.108801"/>
     <use style="fill:#1f77b4;stroke:#1f77b4;" x="313.103017" xlink:href="#m627ad552b0" y="226.593292"/>
     <use style="fill:#1f77b4;stroke:#1f77b4;" x="123.683146" xlink:href="#m627ad552b0" y="96.45796"/>
     <use style="fill:#1f77b4;stroke:#1f77b4;" x="90.664778" xlink:href="#m627ad552b0" y="73.915307"/>
     <use style="fill:#1f77b4;stroke:#1f77b4;" x="75.969375" xlink:href="#m627ad552b0" y="63.984008"/>
     <use style="fill:#1f77b4;stroke:#1f77b4;" x="65.872538" xlink:href="#m627ad552b0" y="57.313744"/>
     <use style="fill:#1f77b4;stroke:#1f77b4;" x="62.7713" xlink:href="#m627ad552b0" y="55.339569"/>
     <use style="fill:#1f77b4;stroke:#1f77b4;" x="60.160186" xlink:href="#m627ad552b0" y="53.899254"/>
     <use style="fill:#1f77b4;stroke:#1f77b4;" x="167.628073" xlink:href="#m627ad552b0" y="126.601588"/>
     <use style="fill:#1f77b4;stroke:#1f77b4;" x="198.08938" xlink:href="#m627ad552b0" y="147.52951"/>
     <use style="fill:#1f77b4;stroke:#1f77b4;" x="63.474536" xlink:href="#m627ad552b0" y="55.789102"/>
     <use style="fill:#1f77b4;stroke:#1f77b4;" x="58.679013" xlink:href="#m627ad552b0" y="53.909566"/>
     <use style="fill:#1f77b4;stroke:#1f77b4;" x="304.444436" xlink:href="#m627ad552b0" y="220.643441"/>
     <use style="fill:#1f77b4;stroke:#1f77b4;" x="96.649448" xlink:href="#m627ad552b0" y="77.986701"/>
     <use style="fill:#1f77b4;stroke:#1f77b4;" x="202.918888" xlink:href="#m627ad552b0" y="150.848807"/>
     <use style="fill:#1f77b4;stroke:#1f77b4;" x="77.369167" xlink:href="#m627ad552b0" y="64.923446"/>
     <use style="fill:#1f77b4;stroke:#1f77b4;" x="59.781997" xlink:href="#m627ad552b0" y="53.735922"/>
     <use style="fill:#1f77b4;stroke:#1f77b4;" x="61.865253" xlink:href="#m627ad552b0" y="53.735305"/>
     <use style="fill:#1f77b4;stroke:#1f77b4;" x="188.810332" xlink:href="#m627ad552b0" y="141.152873"/>
     <use style="fill:#1f77b4;stroke:#1f77b4;" x="98.770732" xlink:href="#m627ad552b0" y="79.432002"/>
     <use style="fill:#1f77b4;stroke:#1f77b4;" x="273.481644" xlink:href="#m627ad552b0" y="199.360305"/>
     <use style="fill:#1f77b4;stroke:#1f77b4;" x="59.456925" xlink:href="#m627ad552b0" y="53.623487"/>
     <use style="fill:#1f77b4;stroke:#1f77b4;" x="58.795545" xlink:href="#m627ad552b0" y="53.677781"/>
     <use style="fill:#1f77b4;stroke:#1f77b4;" x="85.234077" xlink:href="#m627ad552b0" y="70.231135"/>
     <use style="fill:#1f77b4;stroke:#1f77b4;" x="58.963951" xlink:href="#m627ad552b0" y="53.579564"/>
     <use style="fill:#1f77b4;stroke:#1f77b4;" x="115.475213" xlink:href="#m627ad552b0" y="90.84027"/>
     <use style="fill:#1f77b4;stroke:#1f77b4;" x="72.108177" xlink:href="#m627ad552b0" y="61.405544"/>
     <use style="fill:#1f77b4;stroke:#1f77b4;" x="70.932487" xlink:href="#m627ad552b0" y="60.625394"/>
     <use style="fill:#1f77b4;stroke:#1f77b4;" x="59.18435" xlink:href="#m627ad552b0" y="53.568"/>
     <use style="fill:#1f77b4;stroke:#1f77b4;" x="152.527903" xlink:href="#m627ad552b0" y="116.234908"/>
     <use style="fill:#1f77b4;stroke:#1f77b4;" x="58.61426" xlink:href="#m627ad552b0" y="54.448423"/>
     <use style="fill:#1f77b4;stroke:#1f77b4;" x="184.351495" xlink:href="#m627ad552b0" y="138.089165"/>
    </g>
   </g>
   <g id="patch_3">
    <path d="M 57.6 307.584 
L 57.6 41.472 
" style="fill:none;stroke:#000000;stroke-linecap:square;stroke-linejoin:miter;stroke-width:0.8;"/>
   </g>
   <g id="patch_4">
    <path d="M 414.72 307.584 
L 414.72 41.472 
" style="fill:none;stroke:#000000;stroke-linecap:square;stroke-linejoin:miter;stroke-width:0.8;"/>
   </g>
   <g id="patch_5">
    <path d="M 57.6 307.584 
L 414.72 307.584 
" style="fill:none;stroke:#000000;stroke-linecap:square;stroke-linejoin:miter;stroke-width:0.8;"/>
   </g>
   <g id="patch_6">
    <path d="M 57.6 41.472 
L 414.72 41.472 
" style="fill:none;stroke:#000000;stroke-linecap:square;stroke-linejoin:miter;stroke-width:0.8;"/>
   </g>
  </g>
 </g>
 <defs>
  <clipPath id="pdd08fa728b">
   <rect height="266.112" width="357.12" x="57.6" y="41.472"/>
  </clipPath>
 </defs>
</svg>
