<?xml version="1.0" encoding="utf-8" standalone="no"?>
<!DOCTYPE svg PUBLIC "-//W3C//DTD SVG 1.1//EN"
  "http://www.w3.org/Graphics/SVG/1.1/DTD/svg11.dtd">
<!-- Created with matplotlib (http://matplotlib.org/) -->
<svg height="345pt" version="1.1" viewBox="0 0 460 345" width="460pt" xmlns="http://www.w3.org/2000/svg" xmlns:xlink="http://www.w3.org/1999/xlink">
 <defs>
  <style type="text/css">
*{stroke-linecap:butt;stroke-linejoin:round;}
  </style>
 </defs>
 <g id="figure_1">
  <g id="patch_1">
   <path d="M 0 345.6 
L 460.8 345.6 
L 460.8 0 
L 0 0 
z
" style="fill:#ffffff;"/>
  </g>
  <g id="axes_1">
   <g id="patch_2">
    <path d="M 57.6 307.584 
L 414.72 307.584 
L 414.72 41.472 
L 57.6 41.472 
z
" style="fill:#ffffff;"/>
   </g>
   <g id="matplotlib.axis_1">
    <g id="xtick_1">
     <g id="line2d_1">
      <path clip-path="url(#pa432d5e6df)" d="M 58.769161 307.584 
L 58.769161 41.472 
" style="fill:none;stroke:#b0b0b0;stroke-linecap:square;stroke-width:0.8;"/>
     </g>
     <g id="line2d_2">
      <defs>
       <path d="M 0 0 
L 0 3.5 
" id="m1fc8afef27" style="stroke:#000000;stroke-width:0.8;"/>
      </defs>
      <g>
       <use style="stroke:#000000;stroke-width:0.8;" x="58.769161" xlink:href="#m1fc8afef27" y="307.584"/>
      </g>
     </g>
     <g id="text_1">
      <!-- 0 -->
      <defs>
       <path d="M 31.78125 66.40625 
Q 24.171875 66.40625 20.328125 58.90625 
Q 16.5 51.421875 16.5 36.375 
Q 16.5 21.390625 20.328125 13.890625 
Q 24.171875 6.390625 31.78125 6.390625 
Q 39.453125 6.390625 43.28125 13.890625 
Q 47.125 21.390625 47.125 36.375 
Q 47.125 51.421875 43.28125 58.90625 
Q 39.453125 66.40625 31.78125 66.40625 
M 31.78125 74.21875 
Q 44.046875 74.21875 50.515625 64.515625 
Q 56.984375 54.828125 56.984375 36.375 
Q 56.984375 17.96875 50.515625 8.265625 
Q 44.046875 -1.421875 31.78125 -1.421875 
Q 19.53125 -1.421875 13.0625 8.265625 
Q 6.59375 17.96875 6.59375 36.375 
Q 6.59375 54.828125 13.0625 64.515625 
Q 19.53125 74.21875 31.78125 74.21875 
" id="DejaVuSans-30"/>
      </defs>
      <g transform="translate(55.587911 322.182437)scale(0.1 -0.1)">
       <use xlink:href="#DejaVuSans-30"/>
      </g>
     </g>
    </g>
    <g id="xtick_2">
     <g id="line2d_3">
      <path clip-path="url(#pa432d5e6df)" d="M 117.227236 307.584 
L 117.227236 41.472 
" style="fill:none;stroke:#b0b0b0;stroke-linecap:square;stroke-width:0.8;"/>
     </g>
     <g id="line2d_4">
      <g>
       <use style="stroke:#000000;stroke-width:0.8;" x="117.227236" xlink:href="#m1fc8afef27" y="307.584"/>
      </g>
     </g>
     <g id="text_2">
      <!-- 50 -->
      <defs>
       <path d="M 10.796875 72.90625 
L 49.515625 72.90625 
L 49.515625 64.59375 
L 19.828125 64.59375 
L 19.828125 46.734375 
Q 21.96875 47.46875 24.109375 47.828125 
Q 26.265625 48.1875 28.421875 48.1875 
Q 40.625 48.1875 47.75 41.5 
Q 54.890625 34.8125 54.890625 23.390625 
Q 54.890625 11.625 47.5625 5.09375 
Q 40.234375 -1.421875 26.90625 -1.421875 
Q 22.3125 -1.421875 17.546875 -0.640625 
Q 12.796875 0.140625 7.71875 1.703125 
L 7.71875 11.625 
Q 12.109375 9.234375 16.796875 8.0625 
Q 21.484375 6.890625 26.703125 6.890625 
Q 35.15625 6.890625 40.078125 11.328125 
Q 45.015625 15.765625 45.015625 23.390625 
Q 45.015625 31 40.078125 35.4375 
Q 35.15625 39.890625 26.703125 39.890625 
Q 22.75 39.890625 18.8125 39.015625 
Q 14.890625 38.140625 10.796875 36.28125 
z
" id="DejaVuSans-35"/>
      </defs>
      <g transform="translate(110.864736 322.182437)scale(0.1 -0.1)">
       <use xlink:href="#DejaVuSans-35"/>
       <use x="63.623047" xlink:href="#DejaVuSans-30"/>
      </g>
     </g>
    </g>
    <g id="xtick_3">
     <g id="line2d_5">
      <path clip-path="url(#pa432d5e6df)" d="M 175.685311 307.584 
L 175.685311 41.472 
" style="fill:none;stroke:#b0b0b0;stroke-linecap:square;stroke-width:0.8;"/>
     </g>
     <g id="line2d_6">
      <g>
       <use style="stroke:#000000;stroke-width:0.8;" x="175.685311" xlink:href="#m1fc8afef27" y="307.584"/>
      </g>
     </g>
     <g id="text_3">
      <!-- 100 -->
      <defs>
       <path d="M 12.40625 8.296875 
L 28.515625 8.296875 
L 28.515625 63.921875 
L 10.984375 60.40625 
L 10.984375 69.390625 
L 28.421875 72.90625 
L 38.28125 72.90625 
L 38.28125 8.296875 
L 54.390625 8.296875 
L 54.390625 0 
L 12.40625 0 
z
" id="DejaVuSans-31"/>
      </defs>
      <g transform="translate(166.141561 322.182437)scale(0.1 -0.1)">
       <use xlink:href="#DejaVuSans-31"/>
       <use x="63.623047" xlink:href="#DejaVuSans-30"/>
       <use x="127.246094" xlink:href="#DejaVuSans-30"/>
      </g>
     </g>
    </g>
    <g id="xtick_4">
     <g id="line2d_7">
      <path clip-path="url(#pa432d5e6df)" d="M 234.143385 307.584 
L 234.143385 41.472 
" style="fill:none;stroke:#b0b0b0;stroke-linecap:square;stroke-width:0.8;"/>
     </g>
     <g id="line2d_8">
      <g>
       <use style="stroke:#000000;stroke-width:0.8;" x="234.143385" xlink:href="#m1fc8afef27" y="307.584"/>
      </g>
     </g>
     <g id="text_4">
      <!-- 150 -->
      <g transform="translate(224.599635 322.182437)scale(0.1 -0.1)">
       <use xlink:href="#DejaVuSans-31"/>
       <use x="63.623047" xlink:href="#DejaVuSans-35"/>
       <use x="127.246094" xlink:href="#DejaVuSans-30"/>
      </g>
     </g>
    </g>
    <g id="xtick_5">
     <g id="line2d_9">
      <path clip-path="url(#pa432d5e6df)" d="M 292.60146 307.584 
L 292.60146 41.472 
" style="fill:none;stroke:#b0b0b0;stroke-linecap:square;stroke-width:0.8;"/>
     </g>
     <g id="line2d_10">
      <g>
       <use style="stroke:#000000;stroke-width:0.8;" x="292.60146" xlink:href="#m1fc8afef27" y="307.584"/>
      </g>
     </g>
     <g id="text_5">
      <!-- 200 -->
      <defs>
       <path d="M 19.1875 8.296875 
L 53.609375 8.296875 
L 53.609375 0 
L 7.328125 0 
L 7.328125 8.296875 
Q 12.9375 14.109375 22.625 23.890625 
Q 32.328125 33.6875 34.8125 36.53125 
Q 39.546875 41.84375 41.421875 45.53125 
Q 43.3125 49.21875 43.3125 52.78125 
Q 43.3125 58.59375 39.234375 62.25 
Q 35.15625 65.921875 28.609375 65.921875 
Q 23.96875 65.921875 18.8125 64.3125 
Q 13.671875 62.703125 7.8125 59.421875 
L 7.8125 69.390625 
Q 13.765625 71.78125 18.9375 73 
Q 24.125 74.21875 28.421875 74.21875 
Q 39.75 74.21875 46.484375 68.546875 
Q 53.21875 62.890625 53.21875 53.421875 
Q 53.21875 48.921875 51.53125 44.890625 
Q 49.859375 40.875 45.40625 35.40625 
Q 44.1875 33.984375 37.640625 27.21875 
Q 31.109375 20.453125 19.1875 8.296875 
" id="DejaVuSans-32"/>
      </defs>
      <g transform="translate(283.05771 322.182437)scale(0.1 -0.1)">
       <use xlink:href="#DejaVuSans-32"/>
       <use x="63.623047" xlink:href="#DejaVuSans-30"/>
       <use x="127.246094" xlink:href="#DejaVuSans-30"/>
      </g>
     </g>
    </g>
    <g id="xtick_6">
     <g id="line2d_11">
      <path clip-path="url(#pa432d5e6df)" d="M 351.059534 307.584 
L 351.059534 41.472 
" style="fill:none;stroke:#b0b0b0;stroke-linecap:square;stroke-width:0.8;"/>
     </g>
     <g id="line2d_12">
      <g>
       <use style="stroke:#000000;stroke-width:0.8;" x="351.059534" xlink:href="#m1fc8afef27" y="307.584"/>
      </g>
     </g>
     <g id="text_6">
      <!-- 250 -->
      <g transform="translate(341.515784 322.182437)scale(0.1 -0.1)">
       <use xlink:href="#DejaVuSans-32"/>
       <use x="63.623047" xlink:href="#DejaVuSans-35"/>
       <use x="127.246094" xlink:href="#DejaVuSans-30"/>
      </g>
     </g>
    </g>
    <g id="xtick_7">
     <g id="line2d_13">
      <path clip-path="url(#pa432d5e6df)" d="M 409.517609 307.584 
L 409.517609 41.472 
" style="fill:none;stroke:#b0b0b0;stroke-linecap:square;stroke-width:0.8;"/>
     </g>
     <g id="line2d_14">
      <g>
       <use style="stroke:#000000;stroke-width:0.8;" x="409.517609" xlink:href="#m1fc8afef27" y="307.584"/>
      </g>
     </g>
     <g id="text_7">
      <!-- 300 -->
      <defs>
       <path d="M 40.578125 39.3125 
Q 47.65625 37.796875 51.625 33 
Q 55.609375 28.21875 55.609375 21.1875 
Q 55.609375 10.40625 48.1875 4.484375 
Q 40.765625 -1.421875 27.09375 -1.421875 
Q 22.515625 -1.421875 17.65625 -0.515625 
Q 12.796875 0.390625 7.625 2.203125 
L 7.625 11.71875 
Q 11.71875 9.328125 16.59375 8.109375 
Q 21.484375 6.890625 26.8125 6.890625 
Q 36.078125 6.890625 40.9375 10.546875 
Q 45.796875 14.203125 45.796875 21.1875 
Q 45.796875 27.640625 41.28125 31.265625 
Q 36.765625 34.90625 28.71875 34.90625 
L 20.21875 34.90625 
L 20.21875 43.015625 
L 29.109375 43.015625 
Q 36.375 43.015625 40.234375 45.921875 
Q 44.09375 48.828125 44.09375 54.296875 
Q 44.09375 59.90625 40.109375 62.90625 
Q 36.140625 65.921875 28.71875 65.921875 
Q 24.65625 65.921875 20.015625 65.03125 
Q 15.375 64.15625 9.8125 62.3125 
L 9.8125 71.09375 
Q 15.4375 72.65625 20.34375 73.4375 
Q 25.25 74.21875 29.59375 74.21875 
Q 40.828125 74.21875 47.359375 69.109375 
Q 53.90625 64.015625 53.90625 55.328125 
Q 53.90625 49.265625 50.4375 45.09375 
Q 46.96875 40.921875 40.578125 39.3125 
" id="DejaVuSans-33"/>
      </defs>
      <g transform="translate(399.973859 322.182437)scale(0.1 -0.1)">
       <use xlink:href="#DejaVuSans-33"/>
       <use x="63.623047" xlink:href="#DejaVuSans-30"/>
       <use x="127.246094" xlink:href="#DejaVuSans-30"/>
      </g>
     </g>
    </g>
    <g id="text_8">
     <!-- $\gamma_i$ -->
     <defs>
      <path d="M 23.296875 46.09375 
L 28.71875 12.3125 
L 54 54.6875 
L 63.53125 54.6875 
L 30.8125 0 
L 26.765625 -20.796875 
L 17.78125 -20.796875 
L 21.828125 0 
L 15.4375 40.828125 
Q 14.453125 46.96875 9.8125 46.96875 
L 7.421875 46.96875 
L 8.890625 54.6875 
L 12.3125 54.6875 
Q 21.921875 54.6875 23.296875 46.09375 
" id="DejaVuSans-Oblique-3b3"/>
      <path d="M 18.3125 75.984375 
L 27.296875 75.984375 
L 25.09375 64.59375 
L 16.109375 64.59375 
z
M 14.203125 54.6875 
L 23.1875 54.6875 
L 12.5 0 
L 3.515625 0 
z
" id="DejaVuSans-Oblique-69"/>
     </defs>
     <g transform="translate(232.06 335.84025)scale(0.1 -0.1)">
      <use transform="translate(0 0.3125)" xlink:href="#DejaVuSans-Oblique-3b3"/>
      <use transform="translate(59.179688 -16.09375)scale(0.7)" xlink:href="#DejaVuSans-Oblique-69"/>
     </g>
    </g>
   </g>
   <g id="matplotlib.axis_2">
    <g id="ytick_1">
     <g id="line2d_15">
      <path clip-path="url(#pa432d5e6df)" d="M 57.6 307.711536 
L 414.72 307.711536 
" style="fill:none;stroke:#b0b0b0;stroke-linecap:square;stroke-width:0.8;"/>
     </g>
     <g id="line2d_16">
      <defs>
       <path d="M 0 0 
L -3.5 0 
" id="m48bf241d96" style="stroke:#000000;stroke-width:0.8;"/>
      </defs>
      <g>
       <use style="stroke:#000000;stroke-width:0.8;" x="57.6" xlink:href="#m48bf241d96" y="307.711536"/>
      </g>
     </g>
     <g id="text_9">
      <!-- ${10^{-137}}$ -->
      <defs>
       <path d="M 10.59375 35.5 
L 73.1875 35.5 
L 73.1875 27.203125 
L 10.59375 27.203125 
z
" id="DejaVuSans-2212"/>
       <path d="M 8.203125 72.90625 
L 55.078125 72.90625 
L 55.078125 68.703125 
L 28.609375 0 
L 18.3125 0 
L 43.21875 64.59375 
L 8.203125 64.59375 
z
" id="DejaVuSans-37"/>
      </defs>
      <g transform="translate(18.2 311.510755)scale(0.1 -0.1)">
       <use transform="translate(0 0.765625)" xlink:href="#DejaVuSans-31"/>
       <use transform="translate(63.623047 0.765625)" xlink:href="#DejaVuSans-30"/>
       <use transform="translate(128.203125 39.046875)scale(0.7)" xlink:href="#DejaVuSans-2212"/>
       <use transform="translate(186.855469 39.046875)scale(0.7)" xlink:href="#DejaVuSans-31"/>
       <use transform="translate(231.391602 39.046875)scale(0.7)" xlink:href="#DejaVuSans-33"/>
       <use transform="translate(275.927734 39.046875)scale(0.7)" xlink:href="#DejaVuSans-37"/>
      </g>
     </g>
    </g>
    <g id="ytick_2">
     <g id="line2d_17">
      <path clip-path="url(#pa432d5e6df)" d="M 57.6 277.839688 
L 414.72 277.839688 
" style="fill:none;stroke:#b0b0b0;stroke-linecap:square;stroke-width:0.8;"/>
     </g>
     <g id="line2d_18">
      <g>
       <use style="stroke:#000000;stroke-width:0.8;" x="57.6" xlink:href="#m48bf241d96" y="277.839688"/>
      </g>
     </g>
     <g id="text_10">
      <!-- ${10^{-121}}$ -->
      <g transform="translate(18.2 281.638906)scale(0.1 -0.1)">
       <use transform="translate(0 0.765625)" xlink:href="#DejaVuSans-31"/>
       <use transform="translate(63.623047 0.765625)" xlink:href="#DejaVuSans-30"/>
       <use transform="translate(128.203125 39.046875)scale(0.7)" xlink:href="#DejaVuSans-2212"/>
       <use transform="translate(186.855469 39.046875)scale(0.7)" xlink:href="#DejaVuSans-31"/>
       <use transform="translate(231.391602 39.046875)scale(0.7)" xlink:href="#DejaVuSans-32"/>
       <use transform="translate(275.927734 39.046875)scale(0.7)" xlink:href="#DejaVuSans-31"/>
      </g>
     </g>
    </g>
    <g id="ytick_3">
     <g id="line2d_19">
      <path clip-path="url(#pa432d5e6df)" d="M 57.6 247.967839 
L 414.72 247.967839 
" style="fill:none;stroke:#b0b0b0;stroke-linecap:square;stroke-width:0.8;"/>
     </g>
     <g id="line2d_20">
      <g>
       <use style="stroke:#000000;stroke-width:0.8;" x="57.6" xlink:href="#m48bf241d96" y="247.967839"/>
      </g>
     </g>
     <g id="text_11">
      <!-- ${10^{-105}}$ -->
      <g transform="translate(18.2 251.767058)scale(0.1 -0.1)">
       <use transform="translate(0 0.765625)" xlink:href="#DejaVuSans-31"/>
       <use transform="translate(63.623047 0.765625)" xlink:href="#DejaVuSans-30"/>
       <use transform="translate(128.203125 39.046875)scale(0.7)" xlink:href="#DejaVuSans-2212"/>
       <use transform="translate(186.855469 39.046875)scale(0.7)" xlink:href="#DejaVuSans-31"/>
       <use transform="translate(231.391602 39.046875)scale(0.7)" xlink:href="#DejaVuSans-30"/>
       <use transform="translate(275.927734 39.046875)scale(0.7)" xlink:href="#DejaVuSans-35"/>
      </g>
     </g>
    </g>
    <g id="ytick_4">
     <g id="line2d_21">
      <path clip-path="url(#pa432d5e6df)" d="M 57.6 218.095991 
L 414.72 218.095991 
" style="fill:none;stroke:#b0b0b0;stroke-linecap:square;stroke-width:0.8;"/>
     </g>
     <g id="line2d_22">
      <g>
       <use style="stroke:#000000;stroke-width:0.8;" x="57.6" xlink:href="#m48bf241d96" y="218.095991"/>
      </g>
     </g>
     <g id="text_12">
      <!-- ${10^{-89}}$ -->
      <defs>
       <path d="M 31.78125 34.625 
Q 24.75 34.625 20.71875 30.859375 
Q 16.703125 27.09375 16.703125 20.515625 
Q 16.703125 13.921875 20.71875 10.15625 
Q 24.75 6.390625 31.78125 6.390625 
Q 38.8125 6.390625 42.859375 10.171875 
Q 46.921875 13.96875 46.921875 20.515625 
Q 46.921875 27.09375 42.890625 30.859375 
Q 38.875 34.625 31.78125 34.625 
M 21.921875 38.8125 
Q 15.578125 40.375 12.03125 44.71875 
Q 8.5 49.078125 8.5 55.328125 
Q 8.5 64.0625 14.71875 69.140625 
Q 20.953125 74.21875 31.78125 74.21875 
Q 42.671875 74.21875 48.875 69.140625 
Q 55.078125 64.0625 55.078125 55.328125 
Q 55.078125 49.078125 51.53125 44.71875 
Q 48 40.375 41.703125 38.8125 
Q 48.828125 37.15625 52.796875 32.3125 
Q 56.78125 27.484375 56.78125 20.515625 
Q 56.78125 9.90625 50.3125 4.234375 
Q 43.84375 -1.421875 31.78125 -1.421875 
Q 19.734375 -1.421875 13.25 4.234375 
Q 6.78125 9.90625 6.78125 20.515625 
Q 6.78125 27.484375 10.78125 32.3125 
Q 14.796875 37.15625 21.921875 38.8125 
M 18.3125 54.390625 
Q 18.3125 48.734375 21.84375 45.5625 
Q 25.390625 42.390625 31.78125 42.390625 
Q 38.140625 42.390625 41.71875 45.5625 
Q 45.3125 48.734375 45.3125 54.390625 
Q 45.3125 60.0625 41.71875 63.234375 
Q 38.140625 66.40625 31.78125 66.40625 
Q 25.390625 66.40625 21.84375 63.234375 
Q 18.3125 60.0625 18.3125 54.390625 
" id="DejaVuSans-38"/>
       <path d="M 10.984375 1.515625 
L 10.984375 10.5 
Q 14.703125 8.734375 18.5 7.8125 
Q 22.3125 6.890625 25.984375 6.890625 
Q 35.75 6.890625 40.890625 13.453125 
Q 46.046875 20.015625 46.78125 33.40625 
Q 43.953125 29.203125 39.59375 26.953125 
Q 35.25 24.703125 29.984375 24.703125 
Q 19.046875 24.703125 12.671875 31.3125 
Q 6.296875 37.9375 6.296875 49.421875 
Q 6.296875 60.640625 12.9375 67.421875 
Q 19.578125 74.21875 30.609375 74.21875 
Q 43.265625 74.21875 49.921875 64.515625 
Q 56.59375 54.828125 56.59375 36.375 
Q 56.59375 19.140625 48.40625 8.859375 
Q 40.234375 -1.421875 26.421875 -1.421875 
Q 22.703125 -1.421875 18.890625 -0.6875 
Q 15.09375 0.046875 10.984375 1.515625 
M 30.609375 32.421875 
Q 37.25 32.421875 41.125 36.953125 
Q 45.015625 41.5 45.015625 49.421875 
Q 45.015625 57.28125 41.125 61.84375 
Q 37.25 66.40625 30.609375 66.40625 
Q 23.96875 66.40625 20.09375 61.84375 
Q 16.21875 57.28125 16.21875 49.421875 
Q 16.21875 41.5 20.09375 36.953125 
Q 23.96875 32.421875 30.609375 32.421875 
" id="DejaVuSans-39"/>
      </defs>
      <g transform="translate(22.7 221.89521)scale(0.1 -0.1)">
       <use transform="translate(0 0.765625)" xlink:href="#DejaVuSans-31"/>
       <use transform="translate(63.623047 0.765625)" xlink:href="#DejaVuSans-30"/>
       <use transform="translate(128.203125 39.046875)scale(0.7)" xlink:href="#DejaVuSans-2212"/>
       <use transform="translate(186.855469 39.046875)scale(0.7)" xlink:href="#DejaVuSans-38"/>
       <use transform="translate(231.391602 39.046875)scale(0.7)" xlink:href="#DejaVuSans-39"/>
      </g>
     </g>
    </g>
    <g id="ytick_5">
     <g id="line2d_23">
      <path clip-path="url(#pa432d5e6df)" d="M 57.6 188.224143 
L 414.72 188.224143 
" style="fill:none;stroke:#b0b0b0;stroke-linecap:square;stroke-width:0.8;"/>
     </g>
     <g id="line2d_24">
      <g>
       <use style="stroke:#000000;stroke-width:0.8;" x="57.6" xlink:href="#m48bf241d96" y="188.224143"/>
      </g>
     </g>
     <g id="text_13">
      <!-- ${10^{-73}}$ -->
      <g transform="translate(22.7 192.023362)scale(0.1 -0.1)">
       <use transform="translate(0 0.765625)" xlink:href="#DejaVuSans-31"/>
       <use transform="translate(63.623047 0.765625)" xlink:href="#DejaVuSans-30"/>
       <use transform="translate(128.203125 39.046875)scale(0.7)" xlink:href="#DejaVuSans-2212"/>
       <use transform="translate(186.855469 39.046875)scale(0.7)" xlink:href="#DejaVuSans-37"/>
       <use transform="translate(231.391602 39.046875)scale(0.7)" xlink:href="#DejaVuSans-33"/>
      </g>
     </g>
    </g>
    <g id="ytick_6">
     <g id="line2d_25">
      <path clip-path="url(#pa432d5e6df)" d="M 57.6 158.352295 
L 414.72 158.352295 
" style="fill:none;stroke:#b0b0b0;stroke-linecap:square;stroke-width:0.8;"/>
     </g>
     <g id="line2d_26">
      <g>
       <use style="stroke:#000000;stroke-width:0.8;" x="57.6" xlink:href="#m48bf241d96" y="158.352295"/>
      </g>
     </g>
     <g id="text_14">
      <!-- ${10^{-57}}$ -->
      <g transform="translate(22.7 162.151513)scale(0.1 -0.1)">
       <use transform="translate(0 0.684375)" xlink:href="#DejaVuSans-31"/>
       <use transform="translate(63.623047 0.684375)" xlink:href="#DejaVuSans-30"/>
       <use transform="translate(128.203125 38.965625)scale(0.7)" xlink:href="#DejaVuSans-2212"/>
       <use transform="translate(186.855469 38.965625)scale(0.7)" xlink:href="#DejaVuSans-35"/>
       <use transform="translate(231.315039 38.965625)scale(0.7)" xlink:href="#DejaVuSans-37"/>
      </g>
     </g>
    </g>
    <g id="ytick_7">
     <g id="line2d_27">
      <path clip-path="url(#pa432d5e6df)" d="M 57.6 128.480446 
L 414.72 128.480446 
" style="fill:none;stroke:#b0b0b0;stroke-linecap:square;stroke-width:0.8;"/>
     </g>
     <g id="line2d_28">
      <g>
       <use style="stroke:#000000;stroke-width:0.8;" x="57.6" xlink:href="#m48bf241d96" y="128.480446"/>
      </g>
     </g>
     <g id="text_15">
      <!-- ${10^{-41}}$ -->
      <defs>
       <path d="M 37.796875 64.3125 
L 12.890625 25.390625 
L 37.796875 25.390625 
z
M 35.203125 72.90625 
L 47.609375 72.90625 
L 47.609375 25.390625 
L 58.015625 25.390625 
L 58.015625 17.1875 
L 47.609375 17.1875 
L 47.609375 0 
L 37.796875 0 
L 37.796875 17.1875 
L 4.890625 17.1875 
L 4.890625 26.703125 
z
" id="DejaVuSans-34"/>
      </defs>
      <g transform="translate(22.7 132.279665)scale(0.1 -0.1)">
       <use transform="translate(0 0.684375)" xlink:href="#DejaVuSans-31"/>
       <use transform="translate(63.623047 0.684375)" xlink:href="#DejaVuSans-30"/>
       <use transform="translate(128.203125 38.965625)scale(0.7)" xlink:href="#DejaVuSans-2212"/>
       <use transform="translate(186.855469 38.965625)scale(0.7)" xlink:href="#DejaVuSans-34"/>
       <use transform="translate(231.391602 38.965625)scale(0.7)" xlink:href="#DejaVuSans-31"/>
      </g>
     </g>
    </g>
    <g id="ytick_8">
     <g id="line2d_29">
      <path clip-path="url(#pa432d5e6df)" d="M 57.6 98.608598 
L 414.72 98.608598 
" style="fill:none;stroke:#b0b0b0;stroke-linecap:square;stroke-width:0.8;"/>
     </g>
     <g id="line2d_30">
      <g>
       <use style="stroke:#000000;stroke-width:0.8;" x="57.6" xlink:href="#m48bf241d96" y="98.608598"/>
      </g>
     </g>
     <g id="text_16">
      <!-- ${10^{-25}}$ -->
      <g transform="translate(22.7 102.407817)scale(0.1 -0.1)">
       <use transform="translate(0 0.765625)" xlink:href="#DejaVuSans-31"/>
       <use transform="translate(63.623047 0.765625)" xlink:href="#DejaVuSans-30"/>
       <use transform="translate(128.203125 39.046875)scale(0.7)" xlink:href="#DejaVuSans-2212"/>
       <use transform="translate(186.855469 39.046875)scale(0.7)" xlink:href="#DejaVuSans-32"/>
       <use transform="translate(231.391602 39.046875)scale(0.7)" xlink:href="#DejaVuSans-35"/>
      </g>
     </g>
    </g>
    <g id="ytick_9">
     <g id="line2d_31">
      <path clip-path="url(#pa432d5e6df)" d="M 57.6 68.73675 
L 414.72 68.73675 
" style="fill:none;stroke:#b0b0b0;stroke-linecap:square;stroke-width:0.8;"/>
     </g>
     <g id="line2d_32">
      <g>
       <use style="stroke:#000000;stroke-width:0.8;" x="57.6" xlink:href="#m48bf241d96" y="68.73675"/>
      </g>
     </g>
     <g id="text_17">
      <!-- ${10^{-9}}$ -->
      <g transform="translate(27.1 72.535969)scale(0.1 -0.1)">
       <use transform="translate(0 0.765625)" xlink:href="#DejaVuSans-31"/>
       <use transform="translate(63.623047 0.765625)" xlink:href="#DejaVuSans-30"/>
       <use transform="translate(128.203125 39.046875)scale(0.7)" xlink:href="#DejaVuSans-2212"/>
       <use transform="translate(186.855469 39.046875)scale(0.7)" xlink:href="#DejaVuSans-39"/>
      </g>
     </g>
    </g>
    <g id="text_18">
     <!-- $\omega_i$ -->
     <defs>
      <path d="M 21.390625 -1.421875 
Q 1.125 -1.421875 6.78125 27.59375 
Q 8.984375 39.0625 19.625 54.6875 
L 29.296875 54.6875 
Q 19.234375 39.0625 17 27.34375 
Q 12.796875 6.203125 23.734375 6.203125 
Q 33.84375 6.203125 38.71875 32.46875 
L 47.015625 32.46875 
Q 41.703125 6.0625 51.8125 6.203125 
Q 62.703125 6.296875 66.796875 27.34375 
Q 69.046875 39.0625 65.140625 54.6875 
L 74.8125 54.6875 
Q 79.296875 39.0625 77.09375 27.59375 
Q 71.53125 -1.46875 51.21875 -1.421875 
Q 37.9375 -1.375 39.109375 13.1875 
Q 34.28125 -1.421875 21.390625 -1.421875 
" id="DejaVuSans-Oblique-3c9"/>
     </defs>
     <g transform="translate(12.120313 179.828)rotate(-90)scale(0.1 -0.1)">
      <use transform="translate(0 0.3125)" xlink:href="#DejaVuSans-Oblique-3c9"/>
      <use transform="translate(83.740234 -16.09375)scale(0.7)" xlink:href="#DejaVuSans-Oblique-69"/>
     </g>
    </g>
   </g>
   <g id="line2d_33">
    <defs>
     <path d="M 0 3 
C 0.795609 3 1.55874 2.683901 2.12132 2.12132 
C 2.683901 1.55874 3 0.795609 3 0 
C 3 -0.795609 2.683901 -1.55874 2.12132 -2.12132 
C 1.55874 -2.683901 0.795609 -3 0 -3 
C -0.795609 -3 -1.55874 -2.683901 -2.12132 -2.12132 
C -2.683901 -1.55874 -3 -0.795609 -3 0 
C -3 0.795609 -2.683901 1.55874 -2.12132 2.12132 
C -1.55874 2.683901 -0.795609 3 0 3 
z
" id="mb555e6f1a8" style="stroke:#1f77b4;"/>
    </defs>
    <g clip-path="url(#pa432d5e6df)">
     <use style="fill:#1f77b4;stroke:#1f77b4;" x="360.155224" xlink:href="#mb555e6f1a8" y="258.935361"/>
     <use style="fill:#1f77b4;stroke:#1f77b4;" x="374.992979" xlink:href="#mb555e6f1a8" y="269.126279"/>
     <use style="fill:#1f77b4;stroke:#1f77b4;" x="392.128312" xlink:href="#mb555e6f1a8" y="280.871695"/>
     <use style="fill:#1f77b4;stroke:#1f77b4;" x="413.550839" xlink:href="#mb555e6f1a8" y="295.488"/>
     <use style="fill:#1f77b4;stroke:#1f77b4;" x="284.459325" xlink:href="#mb555e6f1a8" y="206.819936"/>
     <use style="fill:#1f77b4;stroke:#1f77b4;" x="231.377738" xlink:href="#mb555e6f1a8" y="170.233537"/>
     <use style="fill:#1f77b4;stroke:#1f77b4;" x="238.116033" xlink:href="#mb555e6f1a8" y="174.877899"/>
     <use style="fill:#1f77b4;stroke:#1f77b4;" x="116.574774" xlink:href="#mb555e6f1a8" y="91.240017"/>
     <use style="fill:#1f77b4;stroke:#1f77b4;" x="334.666072" xlink:href="#mb555e6f1a8" y="241.402839"/>
     <use style="fill:#1f77b4;stroke:#1f77b4;" x="346.846266" xlink:href="#mb555e6f1a8" y="249.784081"/>
     <use style="fill:#1f77b4;stroke:#1f77b4;" x="79.580399" xlink:href="#mb555e6f1a8" y="66.139989"/>
     <use style="fill:#1f77b4;stroke:#1f77b4;" x="95.030259" xlink:href="#mb555e6f1a8" y="76.52311"/>
     <use style="fill:#1f77b4;stroke:#1f77b4;" x="312.805177" xlink:href="#mb555e6f1a8" y="226.350114"/>
     <use style="fill:#1f77b4;stroke:#1f77b4;" x="224.870618" xlink:href="#mb555e6f1a8" y="165.748714"/>
     <use style="fill:#1f77b4;stroke:#1f77b4;" x="75.056697" xlink:href="#mb555e6f1a8" y="63.048109"/>
     <use style="fill:#1f77b4;stroke:#1f77b4;" x="97.402602" xlink:href="#mb555e6f1a8" y="78.137427"/>
     <use style="fill:#1f77b4;stroke:#1f77b4;" x="212.497074" xlink:href="#mb555e6f1a8" y="157.221445"/>
     <use style="fill:#1f77b4;stroke:#1f77b4;" x="84.582622" xlink:href="#mb555e6f1a8" y="69.472264"/>
     <use style="fill:#1f77b4;stroke:#1f77b4;" x="136.815956" xlink:href="#mb555e6f1a8" y="105.12787"/>
     <use style="fill:#1f77b4;stroke:#1f77b4;" x="206.607902" xlink:href="#mb555e6f1a8" y="153.163392"/>
     <use style="fill:#1f77b4;stroke:#1f77b4;" x="78.0486" xlink:href="#mb555e6f1a8" y="65.09113"/>
     <use style="fill:#1f77b4;stroke:#1f77b4;" x="90.559223" xlink:href="#mb555e6f1a8" y="73.489352"/>
     <use style="fill:#1f77b4;stroke:#1f77b4;" x="102.418671" xlink:href="#mb555e6f1a8" y="81.557491"/>
     <use style="fill:#1f77b4;stroke:#1f77b4;" x="81.153503" xlink:href="#mb555e6f1a8" y="67.199078"/>
     <use style="fill:#1f77b4;stroke:#1f77b4;" x="126.229546" xlink:href="#mb555e6f1a8" y="97.859763"/>
     <use style="fill:#1f77b4;stroke:#1f77b4;" x="267.727651" xlink:href="#mb555e6f1a8" y="195.288363"/>
     <use style="fill:#1f77b4;stroke:#1f77b4;" x="156.711683" xlink:href="#mb555e6f1a8" y="118.805542"/>
     <use style="fill:#1f77b4;stroke:#1f77b4;" x="63.528031" xlink:href="#mb555e6f1a8" y="55.541046"/>
     <use style="fill:#1f77b4;stroke:#1f77b4;" x="113.554262" xlink:href="#mb555e6f1a8" y="89.171259"/>
     <use style="fill:#1f77b4;stroke:#1f77b4;" x="152.493657" xlink:href="#mb555e6f1a8" y="115.904231"/>
     <use style="fill:#1f77b4;stroke:#1f77b4;" x="323.372611" xlink:href="#mb555e6f1a8" y="233.627867"/>
     <use style="fill:#1f77b4;stroke:#1f77b4;" x="62.760929" xlink:href="#mb555e6f1a8" y="55.081032"/>
     <use style="fill:#1f77b4;stroke:#1f77b4;" x="88.464602" xlink:href="#mb555e6f1a8" y="72.07424"/>
     <use style="fill:#1f77b4;stroke:#1f77b4;" x="133.179946" xlink:href="#mb555e6f1a8" y="102.630626"/>
     <use style="fill:#1f77b4;stroke:#1f77b4;" x="105.063217" xlink:href="#mb555e6f1a8" y="83.363413"/>
     <use style="fill:#1f77b4;stroke:#1f77b4;" x="99.865337" xlink:href="#mb555e6f1a8" y="79.815584"/>
     <use style="fill:#1f77b4;stroke:#1f77b4;" x="140.562507" xlink:href="#mb555e6f1a8" y="107.701925"/>
     <use style="fill:#1f77b4;stroke:#1f77b4;" x="107.799879" xlink:href="#mb555e6f1a8" y="85.233861"/>
     <use style="fill:#1f77b4;stroke:#1f77b4;" x="73.618565" xlink:href="#mb555e6f1a8" y="62.078813"/>
     <use style="fill:#1f77b4;stroke:#1f77b4;" x="60.721011" xlink:href="#mb555e6f1a8" y="54.453968"/>
     <use style="fill:#1f77b4;stroke:#1f77b4;" x="259.884543" xlink:href="#mb555e6f1a8" y="189.882405"/>
     <use style="fill:#1f77b4;stroke:#1f77b4;" x="170.139675" xlink:href="#mb555e6f1a8" y="128.04602"/>
     <use style="fill:#1f77b4;stroke:#1f77b4;" x="110.629789" xlink:href="#mb555e6f1a8" y="87.169529"/>
     <use style="fill:#1f77b4;stroke:#1f77b4;" x="66.332534" xlink:href="#mb555e6f1a8" y="57.347153"/>
     <use style="fill:#1f77b4;stroke:#1f77b4;" x="62.063898" xlink:href="#mb555e6f1a8" y="54.681816"/>
     <use style="fill:#1f77b4;stroke:#1f77b4;" x="190.018128" xlink:href="#mb555e6f1a8" y="141.734241"/>
     <use style="fill:#1f77b4;stroke:#1f77b4;" x="200.903968" xlink:href="#mb555e6f1a8" y="149.23336"/>
     <use style="fill:#1f77b4;stroke:#1f77b4;" x="59.930721" xlink:href="#mb555e6f1a8" y="53.687648"/>
     <use style="fill:#1f77b4;stroke:#1f77b4;" x="61.443843" xlink:href="#mb555e6f1a8" y="54.36426"/>
     <use style="fill:#1f77b4;stroke:#1f77b4;" x="69.656747" xlink:href="#mb555e6f1a8" y="59.448517"/>
     <use style="fill:#1f77b4;stroke:#1f77b4;" x="119.692954" xlink:href="#mb555e6f1a8" y="93.37688"/>
     <use style="fill:#1f77b4;stroke:#1f77b4;" x="60.330708" xlink:href="#mb555e6f1a8" y="53.834227"/>
     <use style="fill:#1f77b4;stroke:#1f77b4;" x="67.355475" xlink:href="#mb555e6f1a8" y="57.956797"/>
     <use style="fill:#1f77b4;stroke:#1f77b4;" x="129.651933" xlink:href="#mb555e6f1a8" y="100.208461"/>
     <use style="fill:#1f77b4;stroke:#1f77b4;" x="293.423012" xlink:href="#mb555e6f1a8" y="212.996908"/>
     <use style="fill:#1f77b4;stroke:#1f77b4;" x="218.581074" xlink:href="#mb555e6f1a8" y="161.414101"/>
     <use style="fill:#1f77b4;stroke:#1f77b4;" x="184.821347" xlink:href="#mb555e6f1a8" y="138.154944"/>
     <use style="fill:#1f77b4;stroke:#1f77b4;" x="179.779856" xlink:href="#mb555e6f1a8" y="134.683113"/>
     <use style="fill:#1f77b4;stroke:#1f77b4;" x="245.100976" xlink:href="#mb555e6f1a8" y="179.692408"/>
     <use style="fill:#1f77b4;stroke:#1f77b4;" x="59.228128" xlink:href="#mb555e6f1a8" y="53.568"/>
     <use style="fill:#1f77b4;stroke:#1f77b4;" x="70.91292" xlink:href="#mb555e6f1a8" y="60.276088"/>
     <use style="fill:#1f77b4;stroke:#1f77b4;" x="148.398328" xlink:href="#mb555e6f1a8" y="113.088035"/>
     <use style="fill:#1f77b4;stroke:#1f77b4;" x="302.850066" xlink:href="#mb555e6f1a8" y="219.49226"/>
     <use style="fill:#1f77b4;stroke:#1f77b4;" x="144.422324" xlink:href="#mb555e6f1a8" y="110.354648"/>
     <use style="fill:#1f77b4;stroke:#1f77b4;" x="64.35961" xlink:href="#mb555e6f1a8" y="56.060551"/>
     <use style="fill:#1f77b4;stroke:#1f77b4;" x="195.376643" xlink:href="#mb555e6f1a8" y="145.425427"/>
     <use style="fill:#1f77b4;stroke:#1f77b4;" x="72.234968" xlink:href="#mb555e6f1a8" y="61.15365"/>
     <use style="fill:#1f77b4;stroke:#1f77b4;" x="275.907945" xlink:href="#mb555e6f1a8" y="200.926478"/>
     <use style="fill:#1f77b4;stroke:#1f77b4;" x="252.350307" xlink:href="#mb555e6f1a8" y="184.689224"/>
     <use style="fill:#1f77b4;stroke:#1f77b4;" x="60.955752" xlink:href="#mb555e6f1a8" y="54.449114"/>
     <use style="fill:#1f77b4;stroke:#1f77b4;" x="165.530623" xlink:href="#mb555e6f1a8" y="124.873648"/>
     <use style="fill:#1f77b4;stroke:#1f77b4;" x="65.678656" xlink:href="#mb555e6f1a8" y="57.879821"/>
     <use style="fill:#1f77b4;stroke:#1f77b4;" x="161.056034" xlink:href="#mb555e6f1a8" y="121.794455"/>
     <use style="fill:#1f77b4;stroke:#1f77b4;" x="174.887765" xlink:href="#mb555e6f1a8" y="131.314707"/>
     <use style="fill:#1f77b4;stroke:#1f77b4;" x="65.218212" xlink:href="#mb555e6f1a8" y="56.713968"/>
     <use style="fill:#1f77b4;stroke:#1f77b4;" x="59.45404" xlink:href="#mb555e6f1a8" y="53.864648"/>
     <use style="fill:#1f77b4;stroke:#1f77b4;" x="68.46957" xlink:href="#mb555e6f1a8" y="58.673424"/>
     <use style="fill:#1f77b4;stroke:#1f77b4;" x="76.538205" xlink:href="#mb555e6f1a8" y="64.055658"/>
     <use style="fill:#1f77b4;stroke:#1f77b4;" x="58.872064" xlink:href="#mb555e6f1a8" y="53.876531"/>
     <use style="fill:#1f77b4;stroke:#1f77b4;" x="82.811266" xlink:href="#mb555e6f1a8" y="68.297849"/>
     <use style="fill:#1f77b4;stroke:#1f77b4;" x="59.631887" xlink:href="#mb555e6f1a8" y="53.899813"/>
     <use style="fill:#1f77b4;stroke:#1f77b4;" x="59.020555" xlink:href="#mb555e6f1a8" y="53.625616"/>
     <use style="fill:#1f77b4;stroke:#1f77b4;" x="86.469821" xlink:href="#mb555e6f1a8" y="70.732841"/>
     <use style="fill:#1f77b4;stroke:#1f77b4;" x="58.788737" xlink:href="#mb555e6f1a8" y="54.499688"/>
     <use style="fill:#1f77b4;stroke:#1f77b4;" x="92.748696" xlink:href="#mb555e6f1a8" y="74.973259"/>
     <use style="fill:#1f77b4;stroke:#1f77b4;" x="122.910574" xlink:href="#mb555e6f1a8" y="95.583033"/>
    </g>
   </g>
   <g id="patch_3">
    <path d="M 57.6 307.584 
L 57.6 41.472 
" style="fill:none;stroke:#000000;stroke-linecap:square;stroke-linejoin:miter;stroke-width:0.8;"/>
   </g>
   <g id="patch_4">
    <path d="M 414.72 307.584 
L 414.72 41.472 
" style="fill:none;stroke:#000000;stroke-linecap:square;stroke-linejoin:miter;stroke-width:0.8;"/>
   </g>
   <g id="patch_5">
    <path d="M 57.6 307.584 
L 414.72 307.584 
" style="fill:none;stroke:#000000;stroke-linecap:square;stroke-linejoin:miter;stroke-width:0.8;"/>
   </g>
   <g id="patch_6">
    <path d="M 57.6 41.472 
L 414.72 41.472 
" style="fill:none;stroke:#000000;stroke-linecap:square;stroke-linejoin:miter;stroke-width:0.8;"/>
   </g>
  </g>
 </g>
 <defs>
  <clipPath id="pa432d5e6df">
   <rect height="266.112" width="357.12" x="57.6" y="41.472"/>
  </clipPath>
 </defs>
</svg>
