<?xml version="1.0" encoding="utf-8" standalone="no"?>
<!DOCTYPE svg PUBLIC "-//W3C//DTD SVG 1.1//EN"
  "http://www.w3.org/Graphics/SVG/1.1/DTD/svg11.dtd">
<!-- Created with matplotlib (http://matplotlib.org/) -->
<svg height="345pt" version="1.1" viewBox="0 0 460 345" width="460pt" xmlns="http://www.w3.org/2000/svg" xmlns:xlink="http://www.w3.org/1999/xlink">
 <defs>
  <style type="text/css">
*{stroke-linecap:butt;stroke-linejoin:round;}
  </style>
 </defs>
 <g id="figure_1">
  <g id="patch_1">
   <path d="M 0 345.6 
L 460.8 345.6 
L 460.8 0 
L 0 0 
z
" style="fill:#ffffff;"/>
  </g>
  <g id="axes_1">
   <g id="patch_2">
    <path d="M 57.6 307.584 
L 414.72 307.584 
L 414.72 41.472 
L 57.6 41.472 
z
" style="fill:#ffffff;"/>
   </g>
   <g id="matplotlib.axis_1">
    <g id="xtick_1">
     <g id="line2d_1">
      <path clip-path="url(#p1fc0950af3)" d="M 58.694332 307.584 
L 58.694332 41.472 
" style="fill:none;stroke:#b0b0b0;stroke-linecap:square;stroke-width:0.8;"/>
     </g>
     <g id="line2d_2">
      <defs>
       <path d="M 0 0 
L 0 3.5 
" id="mca22cde4f5" style="stroke:#000000;stroke-width:0.8;"/>
      </defs>
      <g>
       <use style="stroke:#000000;stroke-width:0.8;" x="58.694332" xlink:href="#mca22cde4f5" y="307.584"/>
      </g>
     </g>
     <g id="text_1">
      <!-- 0 -->
      <defs>
       <path d="M 31.78125 66.40625 
Q 24.171875 66.40625 20.328125 58.90625 
Q 16.5 51.421875 16.5 36.375 
Q 16.5 21.390625 20.328125 13.890625 
Q 24.171875 6.390625 31.78125 6.390625 
Q 39.453125 6.390625 43.28125 13.890625 
Q 47.125 21.390625 47.125 36.375 
Q 47.125 51.421875 43.28125 58.90625 
Q 39.453125 66.40625 31.78125 66.40625 
M 31.78125 74.21875 
Q 44.046875 74.21875 50.515625 64.515625 
Q 56.984375 54.828125 56.984375 36.375 
Q 56.984375 17.96875 50.515625 8.265625 
Q 44.046875 -1.421875 31.78125 -1.421875 
Q 19.53125 -1.421875 13.0625 8.265625 
Q 6.59375 17.96875 6.59375 36.375 
Q 6.59375 54.828125 13.0625 64.515625 
Q 19.53125 74.21875 31.78125 74.21875 
" id="DejaVuSans-30"/>
      </defs>
      <g transform="translate(55.513082 322.182437)scale(0.1 -0.1)">
       <use xlink:href="#DejaVuSans-30"/>
      </g>
     </g>
    </g>
    <g id="xtick_2">
     <g id="line2d_3">
      <path clip-path="url(#p1fc0950af3)" d="M 113.410949 307.584 
L 113.410949 41.472 
" style="fill:none;stroke:#b0b0b0;stroke-linecap:square;stroke-width:0.8;"/>
     </g>
     <g id="line2d_4">
      <g>
       <use style="stroke:#000000;stroke-width:0.8;" x="113.410949" xlink:href="#mca22cde4f5" y="307.584"/>
      </g>
     </g>
     <g id="text_2">
      <!-- 50 -->
      <defs>
       <path d="M 10.796875 72.90625 
L 49.515625 72.90625 
L 49.515625 64.59375 
L 19.828125 64.59375 
L 19.828125 46.734375 
Q 21.96875 47.46875 24.109375 47.828125 
Q 26.265625 48.1875 28.421875 48.1875 
Q 40.625 48.1875 47.75 41.5 
Q 54.890625 34.8125 54.890625 23.390625 
Q 54.890625 11.625 47.5625 5.09375 
Q 40.234375 -1.421875 26.90625 -1.421875 
Q 22.3125 -1.421875 17.546875 -0.640625 
Q 12.796875 0.140625 7.71875 1.703125 
L 7.71875 11.625 
Q 12.109375 9.234375 16.796875 8.0625 
Q 21.484375 6.890625 26.703125 6.890625 
Q 35.15625 6.890625 40.078125 11.328125 
Q 45.015625 15.765625 45.015625 23.390625 
Q 45.015625 31 40.078125 35.4375 
Q 35.15625 39.890625 26.703125 39.890625 
Q 22.75 39.890625 18.8125 39.015625 
Q 14.890625 38.140625 10.796875 36.28125 
z
" id="DejaVuSans-35"/>
      </defs>
      <g transform="translate(107.048449 322.182437)scale(0.1 -0.1)">
       <use xlink:href="#DejaVuSans-35"/>
       <use x="63.623047" xlink:href="#DejaVuSans-30"/>
      </g>
     </g>
    </g>
    <g id="xtick_3">
     <g id="line2d_5">
      <path clip-path="url(#p1fc0950af3)" d="M 168.127567 307.584 
L 168.127567 41.472 
" style="fill:none;stroke:#b0b0b0;stroke-linecap:square;stroke-width:0.8;"/>
     </g>
     <g id="line2d_6">
      <g>
       <use style="stroke:#000000;stroke-width:0.8;" x="168.127567" xlink:href="#mca22cde4f5" y="307.584"/>
      </g>
     </g>
     <g id="text_3">
      <!-- 100 -->
      <defs>
       <path d="M 12.40625 8.296875 
L 28.515625 8.296875 
L 28.515625 63.921875 
L 10.984375 60.40625 
L 10.984375 69.390625 
L 28.421875 72.90625 
L 38.28125 72.90625 
L 38.28125 8.296875 
L 54.390625 8.296875 
L 54.390625 0 
L 12.40625 0 
z
" id="DejaVuSans-31"/>
      </defs>
      <g transform="translate(158.583817 322.182437)scale(0.1 -0.1)">
       <use xlink:href="#DejaVuSans-31"/>
       <use x="63.623047" xlink:href="#DejaVuSans-30"/>
       <use x="127.246094" xlink:href="#DejaVuSans-30"/>
      </g>
     </g>
    </g>
    <g id="xtick_4">
     <g id="line2d_7">
      <path clip-path="url(#p1fc0950af3)" d="M 222.844184 307.584 
L 222.844184 41.472 
" style="fill:none;stroke:#b0b0b0;stroke-linecap:square;stroke-width:0.8;"/>
     </g>
     <g id="line2d_8">
      <g>
       <use style="stroke:#000000;stroke-width:0.8;" x="222.844184" xlink:href="#mca22cde4f5" y="307.584"/>
      </g>
     </g>
     <g id="text_4">
      <!-- 150 -->
      <g transform="translate(213.300434 322.182437)scale(0.1 -0.1)">
       <use xlink:href="#DejaVuSans-31"/>
       <use x="63.623047" xlink:href="#DejaVuSans-35"/>
       <use x="127.246094" xlink:href="#DejaVuSans-30"/>
      </g>
     </g>
    </g>
    <g id="xtick_5">
     <g id="line2d_9">
      <path clip-path="url(#p1fc0950af3)" d="M 277.560801 307.584 
L 277.560801 41.472 
" style="fill:none;stroke:#b0b0b0;stroke-linecap:square;stroke-width:0.8;"/>
     </g>
     <g id="line2d_10">
      <g>
       <use style="stroke:#000000;stroke-width:0.8;" x="277.560801" xlink:href="#mca22cde4f5" y="307.584"/>
      </g>
     </g>
     <g id="text_5">
      <!-- 200 -->
      <defs>
       <path d="M 19.1875 8.296875 
L 53.609375 8.296875 
L 53.609375 0 
L 7.328125 0 
L 7.328125 8.296875 
Q 12.9375 14.109375 22.625 23.890625 
Q 32.328125 33.6875 34.8125 36.53125 
Q 39.546875 41.84375 41.421875 45.53125 
Q 43.3125 49.21875 43.3125 52.78125 
Q 43.3125 58.59375 39.234375 62.25 
Q 35.15625 65.921875 28.609375 65.921875 
Q 23.96875 65.921875 18.8125 64.3125 
Q 13.671875 62.703125 7.8125 59.421875 
L 7.8125 69.390625 
Q 13.765625 71.78125 18.9375 73 
Q 24.125 74.21875 28.421875 74.21875 
Q 39.75 74.21875 46.484375 68.546875 
Q 53.21875 62.890625 53.21875 53.421875 
Q 53.21875 48.921875 51.53125 44.890625 
Q 49.859375 40.875 45.40625 35.40625 
Q 44.1875 33.984375 37.640625 27.21875 
Q 31.109375 20.453125 19.1875 8.296875 
" id="DejaVuSans-32"/>
      </defs>
      <g transform="translate(268.017051 322.182437)scale(0.1 -0.1)">
       <use xlink:href="#DejaVuSans-32"/>
       <use x="63.623047" xlink:href="#DejaVuSans-30"/>
       <use x="127.246094" xlink:href="#DejaVuSans-30"/>
      </g>
     </g>
    </g>
    <g id="xtick_6">
     <g id="line2d_11">
      <path clip-path="url(#p1fc0950af3)" d="M 332.277418 307.584 
L 332.277418 41.472 
" style="fill:none;stroke:#b0b0b0;stroke-linecap:square;stroke-width:0.8;"/>
     </g>
     <g id="line2d_12">
      <g>
       <use style="stroke:#000000;stroke-width:0.8;" x="332.277418" xlink:href="#mca22cde4f5" y="307.584"/>
      </g>
     </g>
     <g id="text_6">
      <!-- 250 -->
      <g transform="translate(322.733668 322.182437)scale(0.1 -0.1)">
       <use xlink:href="#DejaVuSans-32"/>
       <use x="63.623047" xlink:href="#DejaVuSans-35"/>
       <use x="127.246094" xlink:href="#DejaVuSans-30"/>
      </g>
     </g>
    </g>
    <g id="xtick_7">
     <g id="line2d_13">
      <path clip-path="url(#p1fc0950af3)" d="M 386.994035 307.584 
L 386.994035 41.472 
" style="fill:none;stroke:#b0b0b0;stroke-linecap:square;stroke-width:0.8;"/>
     </g>
     <g id="line2d_14">
      <g>
       <use style="stroke:#000000;stroke-width:0.8;" x="386.994035" xlink:href="#mca22cde4f5" y="307.584"/>
      </g>
     </g>
     <g id="text_7">
      <!-- 300 -->
      <defs>
       <path d="M 40.578125 39.3125 
Q 47.65625 37.796875 51.625 33 
Q 55.609375 28.21875 55.609375 21.1875 
Q 55.609375 10.40625 48.1875 4.484375 
Q 40.765625 -1.421875 27.09375 -1.421875 
Q 22.515625 -1.421875 17.65625 -0.515625 
Q 12.796875 0.390625 7.625 2.203125 
L 7.625 11.71875 
Q 11.71875 9.328125 16.59375 8.109375 
Q 21.484375 6.890625 26.8125 6.890625 
Q 36.078125 6.890625 40.9375 10.546875 
Q 45.796875 14.203125 45.796875 21.1875 
Q 45.796875 27.640625 41.28125 31.265625 
Q 36.765625 34.90625 28.71875 34.90625 
L 20.21875 34.90625 
L 20.21875 43.015625 
L 29.109375 43.015625 
Q 36.375 43.015625 40.234375 45.921875 
Q 44.09375 48.828125 44.09375 54.296875 
Q 44.09375 59.90625 40.109375 62.90625 
Q 36.140625 65.921875 28.71875 65.921875 
Q 24.65625 65.921875 20.015625 65.03125 
Q 15.375 64.15625 9.8125 62.3125 
L 9.8125 71.09375 
Q 15.4375 72.65625 20.34375 73.4375 
Q 25.25 74.21875 29.59375 74.21875 
Q 40.828125 74.21875 47.359375 69.109375 
Q 53.90625 64.015625 53.90625 55.328125 
Q 53.90625 49.265625 50.4375 45.09375 
Q 46.96875 40.921875 40.578125 39.3125 
" id="DejaVuSans-33"/>
      </defs>
      <g transform="translate(377.450285 322.182437)scale(0.1 -0.1)">
       <use xlink:href="#DejaVuSans-33"/>
       <use x="63.623047" xlink:href="#DejaVuSans-30"/>
       <use x="127.246094" xlink:href="#DejaVuSans-30"/>
      </g>
     </g>
    </g>
    <g id="text_8">
     <!-- $\gamma_i$ -->
     <defs>
      <path d="M 23.296875 46.09375 
L 28.71875 12.3125 
L 54 54.6875 
L 63.53125 54.6875 
L 30.8125 0 
L 26.765625 -20.796875 
L 17.78125 -20.796875 
L 21.828125 0 
L 15.4375 40.828125 
Q 14.453125 46.96875 9.8125 46.96875 
L 7.421875 46.96875 
L 8.890625 54.6875 
L 12.3125 54.6875 
Q 21.921875 54.6875 23.296875 46.09375 
" id="DejaVuSans-Oblique-3b3"/>
      <path d="M 18.3125 75.984375 
L 27.296875 75.984375 
L 25.09375 64.59375 
L 16.109375 64.59375 
z
M 14.203125 54.6875 
L 23.1875 54.6875 
L 12.5 0 
L 3.515625 0 
z
" id="DejaVuSans-Oblique-69"/>
     </defs>
     <g transform="translate(232.06 335.84025)scale(0.1 -0.1)">
      <use transform="translate(0 0.3125)" xlink:href="#DejaVuSans-Oblique-3b3"/>
      <use transform="translate(59.179688 -16.09375)scale(0.7)" xlink:href="#DejaVuSans-Oblique-69"/>
     </g>
    </g>
   </g>
   <g id="matplotlib.axis_2">
    <g id="ytick_1">
     <g id="line2d_15">
      <path clip-path="url(#p1fc0950af3)" d="M 57.6 278.887202 
L 414.72 278.887202 
" style="fill:none;stroke:#b0b0b0;stroke-linecap:square;stroke-width:0.8;"/>
     </g>
     <g id="line2d_16">
      <defs>
       <path d="M 0 0 
L -3.5 0 
" id="m978c5d5433" style="stroke:#000000;stroke-width:0.8;"/>
      </defs>
      <g>
       <use style="stroke:#000000;stroke-width:0.8;" x="57.6" xlink:href="#m978c5d5433" y="278.887202"/>
      </g>
     </g>
     <g id="text_9">
      <!-- ${10^{-130}}$ -->
      <defs>
       <path d="M 10.59375 35.5 
L 73.1875 35.5 
L 73.1875 27.203125 
L 10.59375 27.203125 
z
" id="DejaVuSans-2212"/>
      </defs>
      <g transform="translate(18.2 282.686421)scale(0.1 -0.1)">
       <use transform="translate(0 0.765625)" xlink:href="#DejaVuSans-31"/>
       <use transform="translate(63.623047 0.765625)" xlink:href="#DejaVuSans-30"/>
       <use transform="translate(128.203125 39.046875)scale(0.7)" xlink:href="#DejaVuSans-2212"/>
       <use transform="translate(186.855469 39.046875)scale(0.7)" xlink:href="#DejaVuSans-31"/>
       <use transform="translate(231.391602 39.046875)scale(0.7)" xlink:href="#DejaVuSans-33"/>
       <use transform="translate(275.927734 39.046875)scale(0.7)" xlink:href="#DejaVuSans-30"/>
      </g>
     </g>
    </g>
    <g id="ytick_2">
     <g id="line2d_17">
      <path clip-path="url(#p1fc0950af3)" d="M 57.6 249.223037 
L 414.72 249.223037 
" style="fill:none;stroke:#b0b0b0;stroke-linecap:square;stroke-width:0.8;"/>
     </g>
     <g id="line2d_18">
      <g>
       <use style="stroke:#000000;stroke-width:0.8;" x="57.6" xlink:href="#m978c5d5433" y="249.223037"/>
      </g>
     </g>
     <g id="text_10">
      <!-- ${10^{-113}}$ -->
      <g transform="translate(18.2 253.022256)scale(0.1 -0.1)">
       <use transform="translate(0 0.765625)" xlink:href="#DejaVuSans-31"/>
       <use transform="translate(63.623047 0.765625)" xlink:href="#DejaVuSans-30"/>
       <use transform="translate(128.203125 39.046875)scale(0.7)" xlink:href="#DejaVuSans-2212"/>
       <use transform="translate(186.855469 39.046875)scale(0.7)" xlink:href="#DejaVuSans-31"/>
       <use transform="translate(231.391602 39.046875)scale(0.7)" xlink:href="#DejaVuSans-31"/>
       <use transform="translate(275.927734 39.046875)scale(0.7)" xlink:href="#DejaVuSans-33"/>
      </g>
     </g>
    </g>
    <g id="ytick_3">
     <g id="line2d_19">
      <path clip-path="url(#p1fc0950af3)" d="M 57.6 219.558872 
L 414.72 219.558872 
" style="fill:none;stroke:#b0b0b0;stroke-linecap:square;stroke-width:0.8;"/>
     </g>
     <g id="line2d_20">
      <g>
       <use style="stroke:#000000;stroke-width:0.8;" x="57.6" xlink:href="#m978c5d5433" y="219.558872"/>
      </g>
     </g>
     <g id="text_11">
      <!-- ${10^{-96}}$ -->
      <defs>
       <path d="M 10.984375 1.515625 
L 10.984375 10.5 
Q 14.703125 8.734375 18.5 7.8125 
Q 22.3125 6.890625 25.984375 6.890625 
Q 35.75 6.890625 40.890625 13.453125 
Q 46.046875 20.015625 46.78125 33.40625 
Q 43.953125 29.203125 39.59375 26.953125 
Q 35.25 24.703125 29.984375 24.703125 
Q 19.046875 24.703125 12.671875 31.3125 
Q 6.296875 37.9375 6.296875 49.421875 
Q 6.296875 60.640625 12.9375 67.421875 
Q 19.578125 74.21875 30.609375 74.21875 
Q 43.265625 74.21875 49.921875 64.515625 
Q 56.59375 54.828125 56.59375 36.375 
Q 56.59375 19.140625 48.40625 8.859375 
Q 40.234375 -1.421875 26.421875 -1.421875 
Q 22.703125 -1.421875 18.890625 -0.6875 
Q 15.09375 0.046875 10.984375 1.515625 
M 30.609375 32.421875 
Q 37.25 32.421875 41.125 36.953125 
Q 45.015625 41.5 45.015625 49.421875 
Q 45.015625 57.28125 41.125 61.84375 
Q 37.25 66.40625 30.609375 66.40625 
Q 23.96875 66.40625 20.09375 61.84375 
Q 16.21875 57.28125 16.21875 49.421875 
Q 16.21875 41.5 20.09375 36.953125 
Q 23.96875 32.421875 30.609375 32.421875 
" id="DejaVuSans-39"/>
       <path d="M 33.015625 40.375 
Q 26.375 40.375 22.484375 35.828125 
Q 18.609375 31.296875 18.609375 23.390625 
Q 18.609375 15.53125 22.484375 10.953125 
Q 26.375 6.390625 33.015625 6.390625 
Q 39.65625 6.390625 43.53125 10.953125 
Q 47.40625 15.53125 47.40625 23.390625 
Q 47.40625 31.296875 43.53125 35.828125 
Q 39.65625 40.375 33.015625 40.375 
M 52.59375 71.296875 
L 52.59375 62.3125 
Q 48.875 64.0625 45.09375 64.984375 
Q 41.3125 65.921875 37.59375 65.921875 
Q 27.828125 65.921875 22.671875 59.328125 
Q 17.53125 52.734375 16.796875 39.40625 
Q 19.671875 43.65625 24.015625 45.921875 
Q 28.375 48.1875 33.59375 48.1875 
Q 44.578125 48.1875 50.953125 41.515625 
Q 57.328125 34.859375 57.328125 23.390625 
Q 57.328125 12.15625 50.6875 5.359375 
Q 44.046875 -1.421875 33.015625 -1.421875 
Q 20.359375 -1.421875 13.671875 8.265625 
Q 6.984375 17.96875 6.984375 36.375 
Q 6.984375 53.65625 15.1875 63.9375 
Q 23.390625 74.21875 37.203125 74.21875 
Q 40.921875 74.21875 44.703125 73.484375 
Q 48.484375 72.75 52.59375 71.296875 
" id="DejaVuSans-36"/>
      </defs>
      <g transform="translate(22.7 223.358091)scale(0.1 -0.1)">
       <use transform="translate(0 0.765625)" xlink:href="#DejaVuSans-31"/>
       <use transform="translate(63.623047 0.765625)" xlink:href="#DejaVuSans-30"/>
       <use transform="translate(128.203125 39.046875)scale(0.7)" xlink:href="#DejaVuSans-2212"/>
       <use transform="translate(186.855469 39.046875)scale(0.7)" xlink:href="#DejaVuSans-39"/>
       <use transform="translate(231.391602 39.046875)scale(0.7)" xlink:href="#DejaVuSans-36"/>
      </g>
     </g>
    </g>
    <g id="ytick_4">
     <g id="line2d_21">
      <path clip-path="url(#p1fc0950af3)" d="M 57.6 189.894707 
L 414.72 189.894707 
" style="fill:none;stroke:#b0b0b0;stroke-linecap:square;stroke-width:0.8;"/>
     </g>
     <g id="line2d_22">
      <g>
       <use style="stroke:#000000;stroke-width:0.8;" x="57.6" xlink:href="#m978c5d5433" y="189.894707"/>
      </g>
     </g>
     <g id="text_12">
      <!-- ${10^{-79}}$ -->
      <defs>
       <path d="M 8.203125 72.90625 
L 55.078125 72.90625 
L 55.078125 68.703125 
L 28.609375 0 
L 18.3125 0 
L 43.21875 64.59375 
L 8.203125 64.59375 
z
" id="DejaVuSans-37"/>
      </defs>
      <g transform="translate(22.7 193.693926)scale(0.1 -0.1)">
       <use transform="translate(0 0.765625)" xlink:href="#DejaVuSans-31"/>
       <use transform="translate(63.623047 0.765625)" xlink:href="#DejaVuSans-30"/>
       <use transform="translate(128.203125 39.046875)scale(0.7)" xlink:href="#DejaVuSans-2212"/>
       <use transform="translate(186.855469 39.046875)scale(0.7)" xlink:href="#DejaVuSans-37"/>
       <use transform="translate(231.391602 39.046875)scale(0.7)" xlink:href="#DejaVuSans-39"/>
      </g>
     </g>
    </g>
    <g id="ytick_5">
     <g id="line2d_23">
      <path clip-path="url(#p1fc0950af3)" d="M 57.6 160.230542 
L 414.72 160.230542 
" style="fill:none;stroke:#b0b0b0;stroke-linecap:square;stroke-width:0.8;"/>
     </g>
     <g id="line2d_24">
      <g>
       <use style="stroke:#000000;stroke-width:0.8;" x="57.6" xlink:href="#m978c5d5433" y="160.230542"/>
      </g>
     </g>
     <g id="text_13">
      <!-- ${10^{-62}}$ -->
      <g transform="translate(22.7 164.029761)scale(0.1 -0.1)">
       <use transform="translate(0 0.765625)" xlink:href="#DejaVuSans-31"/>
       <use transform="translate(63.623047 0.765625)" xlink:href="#DejaVuSans-30"/>
       <use transform="translate(128.203125 39.046875)scale(0.7)" xlink:href="#DejaVuSans-2212"/>
       <use transform="translate(186.855469 39.046875)scale(0.7)" xlink:href="#DejaVuSans-36"/>
       <use transform="translate(231.391602 39.046875)scale(0.7)" xlink:href="#DejaVuSans-32"/>
      </g>
     </g>
    </g>
    <g id="ytick_6">
     <g id="line2d_25">
      <path clip-path="url(#p1fc0950af3)" d="M 57.6 130.566377 
L 414.72 130.566377 
" style="fill:none;stroke:#b0b0b0;stroke-linecap:square;stroke-width:0.8;"/>
     </g>
     <g id="line2d_26">
      <g>
       <use style="stroke:#000000;stroke-width:0.8;" x="57.6" xlink:href="#m978c5d5433" y="130.566377"/>
      </g>
     </g>
     <g id="text_14">
      <!-- ${10^{-45}}$ -->
      <defs>
       <path d="M 37.796875 64.3125 
L 12.890625 25.390625 
L 37.796875 25.390625 
z
M 35.203125 72.90625 
L 47.609375 72.90625 
L 47.609375 25.390625 
L 58.015625 25.390625 
L 58.015625 17.1875 
L 47.609375 17.1875 
L 47.609375 0 
L 37.796875 0 
L 37.796875 17.1875 
L 4.890625 17.1875 
L 4.890625 26.703125 
z
" id="DejaVuSans-34"/>
      </defs>
      <g transform="translate(22.7 134.365595)scale(0.1 -0.1)">
       <use transform="translate(0 0.684375)" xlink:href="#DejaVuSans-31"/>
       <use transform="translate(63.623047 0.684375)" xlink:href="#DejaVuSans-30"/>
       <use transform="translate(128.203125 38.965625)scale(0.7)" xlink:href="#DejaVuSans-2212"/>
       <use transform="translate(186.855469 38.965625)scale(0.7)" xlink:href="#DejaVuSans-34"/>
       <use transform="translate(231.391602 38.965625)scale(0.7)" xlink:href="#DejaVuSans-35"/>
      </g>
     </g>
    </g>
    <g id="ytick_7">
     <g id="line2d_27">
      <path clip-path="url(#p1fc0950af3)" d="M 57.6 100.902211 
L 414.72 100.902211 
" style="fill:none;stroke:#b0b0b0;stroke-linecap:square;stroke-width:0.8;"/>
     </g>
     <g id="line2d_28">
      <g>
       <use style="stroke:#000000;stroke-width:0.8;" x="57.6" xlink:href="#m978c5d5433" y="100.902211"/>
      </g>
     </g>
     <g id="text_15">
      <!-- ${10^{-28}}$ -->
      <defs>
       <path d="M 31.78125 34.625 
Q 24.75 34.625 20.71875 30.859375 
Q 16.703125 27.09375 16.703125 20.515625 
Q 16.703125 13.921875 20.71875 10.15625 
Q 24.75 6.390625 31.78125 6.390625 
Q 38.8125 6.390625 42.859375 10.171875 
Q 46.921875 13.96875 46.921875 20.515625 
Q 46.921875 27.09375 42.890625 30.859375 
Q 38.875 34.625 31.78125 34.625 
M 21.921875 38.8125 
Q 15.578125 40.375 12.03125 44.71875 
Q 8.5 49.078125 8.5 55.328125 
Q 8.5 64.0625 14.71875 69.140625 
Q 20.953125 74.21875 31.78125 74.21875 
Q 42.671875 74.21875 48.875 69.140625 
Q 55.078125 64.0625 55.078125 55.328125 
Q 55.078125 49.078125 51.53125 44.71875 
Q 48 40.375 41.703125 38.8125 
Q 48.828125 37.15625 52.796875 32.3125 
Q 56.78125 27.484375 56.78125 20.515625 
Q 56.78125 9.90625 50.3125 4.234375 
Q 43.84375 -1.421875 31.78125 -1.421875 
Q 19.734375 -1.421875 13.25 4.234375 
Q 6.78125 9.90625 6.78125 20.515625 
Q 6.78125 27.484375 10.78125 32.3125 
Q 14.796875 37.15625 21.921875 38.8125 
M 18.3125 54.390625 
Q 18.3125 48.734375 21.84375 45.5625 
Q 25.390625 42.390625 31.78125 42.390625 
Q 38.140625 42.390625 41.71875 45.5625 
Q 45.3125 48.734375 45.3125 54.390625 
Q 45.3125 60.0625 41.71875 63.234375 
Q 38.140625 66.40625 31.78125 66.40625 
Q 25.390625 66.40625 21.84375 63.234375 
Q 18.3125 60.0625 18.3125 54.390625 
" id="DejaVuSans-38"/>
      </defs>
      <g transform="translate(22.7 104.70143)scale(0.1 -0.1)">
       <use transform="translate(0 0.765625)" xlink:href="#DejaVuSans-31"/>
       <use transform="translate(63.623047 0.765625)" xlink:href="#DejaVuSans-30"/>
       <use transform="translate(128.203125 39.046875)scale(0.7)" xlink:href="#DejaVuSans-2212"/>
       <use transform="translate(186.855469 39.046875)scale(0.7)" xlink:href="#DejaVuSans-32"/>
       <use transform="translate(231.391602 39.046875)scale(0.7)" xlink:href="#DejaVuSans-38"/>
      </g>
     </g>
    </g>
    <g id="ytick_8">
     <g id="line2d_29">
      <path clip-path="url(#p1fc0950af3)" d="M 57.6 71.238046 
L 414.72 71.238046 
" style="fill:none;stroke:#b0b0b0;stroke-linecap:square;stroke-width:0.8;"/>
     </g>
     <g id="line2d_30">
      <g>
       <use style="stroke:#000000;stroke-width:0.8;" x="57.6" xlink:href="#m978c5d5433" y="71.238046"/>
      </g>
     </g>
     <g id="text_16">
      <!-- ${10^{-11}}$ -->
      <g transform="translate(22.7 75.037265)scale(0.1 -0.1)">
       <use transform="translate(0 0.684375)" xlink:href="#DejaVuSans-31"/>
       <use transform="translate(63.623047 0.684375)" xlink:href="#DejaVuSans-30"/>
       <use transform="translate(128.203125 38.965625)scale(0.7)" xlink:href="#DejaVuSans-2212"/>
       <use transform="translate(186.855469 38.965625)scale(0.7)" xlink:href="#DejaVuSans-31"/>
       <use transform="translate(231.391602 38.965625)scale(0.7)" xlink:href="#DejaVuSans-31"/>
      </g>
     </g>
    </g>
    <g id="ytick_9">
     <g id="line2d_31">
      <path clip-path="url(#p1fc0950af3)" d="M 57.6 41.573881 
L 414.72 41.573881 
" style="fill:none;stroke:#b0b0b0;stroke-linecap:square;stroke-width:0.8;"/>
     </g>
     <g id="line2d_32">
      <g>
       <use style="stroke:#000000;stroke-width:0.8;" x="57.6" xlink:href="#m978c5d5433" y="41.573881"/>
      </g>
     </g>
     <g id="text_17">
      <!-- ${10^{6}}$ -->
      <g transform="translate(33 45.3731)scale(0.1 -0.1)">
       <use transform="translate(0 0.765625)" xlink:href="#DejaVuSans-31"/>
       <use transform="translate(63.623047 0.765625)" xlink:href="#DejaVuSans-30"/>
       <use transform="translate(128.203125 39.046875)scale(0.7)" xlink:href="#DejaVuSans-36"/>
      </g>
     </g>
    </g>
    <g id="text_18">
     <!-- $\omega_i$ -->
     <defs>
      <path d="M 21.390625 -1.421875 
Q 1.125 -1.421875 6.78125 27.59375 
Q 8.984375 39.0625 19.625 54.6875 
L 29.296875 54.6875 
Q 19.234375 39.0625 17 27.34375 
Q 12.796875 6.203125 23.734375 6.203125 
Q 33.84375 6.203125 38.71875 32.46875 
L 47.015625 32.46875 
Q 41.703125 6.0625 51.8125 6.203125 
Q 62.703125 6.296875 66.796875 27.34375 
Q 69.046875 39.0625 65.140625 54.6875 
L 74.8125 54.6875 
Q 79.296875 39.0625 77.09375 27.59375 
Q 71.53125 -1.46875 51.21875 -1.421875 
Q 37.9375 -1.375 39.109375 13.1875 
Q 34.28125 -1.421875 21.390625 -1.421875 
" id="DejaVuSans-Oblique-3c9"/>
     </defs>
     <g transform="translate(12.120313 179.828)rotate(-90)scale(0.1 -0.1)">
      <use transform="translate(0 0.3125)" xlink:href="#DejaVuSans-Oblique-3c9"/>
      <use transform="translate(83.740234 -16.09375)scale(0.7)" xlink:href="#DejaVuSans-Oblique-69"/>
     </g>
    </g>
   </g>
   <g id="line2d_33">
    <defs>
     <path d="M 0 3 
C 0.795609 3 1.55874 2.683901 2.12132 2.12132 
C 2.683901 1.55874 3 0.795609 3 0 
C 3 -0.795609 2.683901 -1.55874 2.12132 -2.12132 
C 1.55874 -2.683901 0.795609 -3 0 -3 
C -0.795609 -3 -1.55874 -2.683901 -2.12132 -2.12132 
C -2.683901 -1.55874 -3 -0.795609 -3 0 
C -3 0.795609 -2.683901 1.55874 -2.12132 2.12132 
C -1.55874 2.683901 -0.795609 3 0 3 
z
" id="macd068e56b" style="stroke:#1f77b4;"/>
    </defs>
    <g clip-path="url(#p1fc0950af3)">
     <use style="fill:#1f77b4;stroke:#1f77b4;" x="413.625668" xlink:href="#macd068e56b" y="295.488"/>
     <use style="fill:#1f77b4;stroke:#1f77b4;" x="327.023717" xlink:href="#macd068e56b" y="236.146812"/>
     <use style="fill:#1f77b4;stroke:#1f77b4;" x="393.096007" xlink:href="#macd068e56b" y="281.495085"/>
     <use style="fill:#1f77b4;stroke:#1f77b4;" x="349.616432" xlink:href="#macd068e56b" y="251.678644"/>
     <use style="fill:#1f77b4;stroke:#1f77b4;" x="376.657222" xlink:href="#macd068e56b" y="270.239566"/>
     <use style="fill:#1f77b4;stroke:#1f77b4;" x="219.56396" xlink:href="#macd068e56b" y="162.175384"/>
     <use style="fill:#1f77b4;stroke:#1f77b4;" x="66.529962" xlink:href="#macd068e56b" y="57.551646"/>
     <use style="fill:#1f77b4;stroke:#1f77b4;" x="164.673367" xlink:href="#macd068e56b" y="124.405685"/>
     <use style="fill:#1f77b4;stroke:#1f77b4;" x="231.639509" xlink:href="#macd068e56b" y="170.489064"/>
     <use style="fill:#1f77b4;stroke:#1f77b4;" x="362.408736" xlink:href="#macd068e56b" y="260.464518"/>
     <use style="fill:#1f77b4;stroke:#1f77b4;" x="107.197403" xlink:href="#macd068e56b" y="84.971801"/>
     <use style="fill:#1f77b4;stroke:#1f77b4;" x="92.923357" xlink:href="#macd068e56b" y="75.235385"/>
     <use style="fill:#1f77b4;stroke:#1f77b4;" x="84.909996" xlink:href="#macd068e56b" y="69.796295"/>
     <use style="fill:#1f77b4;stroke:#1f77b4;" x="121.309667" xlink:href="#macd068e56b" y="94.631196"/>
     <use style="fill:#1f77b4;stroke:#1f77b4;" x="112.590138" xlink:href="#macd068e56b" y="88.660055"/>
     <use style="fill:#1f77b4;stroke:#1f77b4;" x="95.110555" xlink:href="#macd068e56b" y="76.724072"/>
     <use style="fill:#1f77b4;stroke:#1f77b4;" x="76.489648" xlink:href="#macd068e56b" y="64.121924"/>
     <use style="fill:#1f77b4;stroke:#1f77b4;" x="86.804708" xlink:href="#macd068e56b" y="71.07978"/>
     <use style="fill:#1f77b4;stroke:#1f77b4;" x="134.179019" xlink:href="#macd068e56b" y="103.456713"/>
     <use style="fill:#1f77b4;stroke:#1f77b4;" x="97.373101" xlink:href="#macd068e56b" y="78.265478"/>
     <use style="fill:#1f77b4;stroke:#1f77b4;" x="118.317139" xlink:href="#macd068e56b" y="92.580992"/>
     <use style="fill:#1f77b4;stroke:#1f77b4;" x="225.504942" xlink:href="#macd068e56b" y="166.265484"/>
     <use style="fill:#1f77b4;stroke:#1f77b4;" x="130.823146" xlink:href="#macd068e56b" y="101.154149"/>
     <use style="fill:#1f77b4;stroke:#1f77b4;" x="237.979137" xlink:href="#macd068e56b" y="174.853988"/>
     <use style="fill:#1f77b4;stroke:#1f77b4;" x="64.695248" xlink:href="#macd068e56b" y="56.38844"/>
     <use style="fill:#1f77b4;stroke:#1f77b4;" x="298.133566" xlink:href="#macd068e56b" y="216.26863"/>
     <use style="fill:#1f77b4;stroke:#1f77b4;" x="144.829598" xlink:href="#macd068e56b" y="110.768777"/>
     <use style="fill:#1f77b4;stroke:#1f77b4;" x="115.41114" xlink:href="#macd068e56b" y="90.590957"/>
     <use style="fill:#1f77b4;stroke:#1f77b4;" x="213.806345" xlink:href="#macd068e56b" y="158.211759"/>
     <use style="fill:#1f77b4;stroke:#1f77b4;" x="72.257788" xlink:href="#macd068e56b" y="61.299807"/>
     <use style="fill:#1f77b4;stroke:#1f77b4;" x="67.544685" xlink:href="#macd068e56b" y="58.20576"/>
     <use style="fill:#1f77b4;stroke:#1f77b4;" x="137.630573" xlink:href="#macd068e56b" y="105.825663"/>
     <use style="fill:#1f77b4;stroke:#1f77b4;" x="60.329025" xlink:href="#macd068e56b" y="53.93505"/>
     <use style="fill:#1f77b4;stroke:#1f77b4;" x="127.560901" xlink:href="#macd068e56b" y="98.916573"/>
     <use style="fill:#1f77b4;stroke:#1f77b4;" x="63.875181" xlink:href="#macd068e56b" y="55.880581"/>
     <use style="fill:#1f77b4;stroke:#1f77b4;" x="109.852683" xlink:href="#macd068e56b" y="86.78731"/>
     <use style="fill:#1f77b4;stroke:#1f77b4;" x="168.982564" xlink:href="#macd068e56b" y="127.368738"/>
     <use style="fill:#1f77b4;stroke:#1f77b4;" x="337.898423" xlink:href="#macd068e56b" y="243.624793"/>
     <use style="fill:#1f77b4;stroke:#1f77b4;" x="307.235714" xlink:href="#macd068e56b" y="222.532919"/>
     <use style="fill:#1f77b4;stroke:#1f77b4;" x="197.54665" xlink:href="#macd068e56b" y="147.020049"/>
     <use style="fill:#1f77b4;stroke:#1f77b4;" x="316.838973" xlink:href="#macd068e56b" y="229.140749"/>
     <use style="fill:#1f77b4;stroke:#1f77b4;" x="152.439456" xlink:href="#macd068e56b" y="115.99663"/>
     <use style="fill:#1f77b4;stroke:#1f77b4;" x="61.807106" xlink:href="#macd068e56b" y="54.666975"/>
     <use style="fill:#1f77b4;stroke:#1f77b4;" x="75.011768" xlink:href="#macd068e56b" y="63.133204"/>
     <use style="fill:#1f77b4;stroke:#1f77b4;" x="73.601311" xlink:href="#macd068e56b" y="62.192562"/>
     <use style="fill:#1f77b4;stroke:#1f77b4;" x="265.676747" xlink:href="#macd068e56b" y="193.924726"/>
     <use style="fill:#1f77b4;stroke:#1f77b4;" x="187.478082" xlink:href="#macd068e56b" y="140.091441"/>
     <use style="fill:#1f77b4;stroke:#1f77b4;" x="177.969969" xlink:href="#macd068e56b" y="133.55009"/>
     <use style="fill:#1f77b4;stroke:#1f77b4;" x="83.086411" xlink:href="#macd068e56b" y="68.562876"/>
     <use style="fill:#1f77b4;stroke:#1f77b4;" x="104.623002" xlink:href="#macd068e56b" y="83.212659"/>
     <use style="fill:#1f77b4;stroke:#1f77b4;" x="90.810568" xlink:href="#macd068e56b" y="73.798813"/>
     <use style="fill:#1f77b4;stroke:#1f77b4;" x="173.413414" xlink:href="#macd068e56b" y="130.415947"/>
     <use style="fill:#1f77b4;stroke:#1f77b4;" x="251.32723" xlink:href="#macd068e56b" y="184.044627"/>
     <use style="fill:#1f77b4;stroke:#1f77b4;" x="59.621351" xlink:href="#macd068e56b" y="53.64425"/>
     <use style="fill:#1f77b4;stroke:#1f77b4;" x="61.250114" xlink:href="#macd068e56b" y="54.371831"/>
     <use style="fill:#1f77b4;stroke:#1f77b4;" x="244.536793" xlink:href="#macd068e56b" y="179.369141"/>
     <use style="fill:#1f77b4;stroke:#1f77b4;" x="289.470834" xlink:href="#macd068e56b" y="210.30585"/>
     <use style="fill:#1f77b4;stroke:#1f77b4;" x="182.656608" xlink:href="#macd068e56b" y="136.774169"/>
     <use style="fill:#1f77b4;stroke:#1f77b4;" x="62.430617" xlink:href="#macd068e56b" y="55.018022"/>
     <use style="fill:#1f77b4;stroke:#1f77b4;" x="59.952276" xlink:href="#macd068e56b" y="53.771917"/>
     <use style="fill:#1f77b4;stroke:#1f77b4;" x="202.805528" xlink:href="#macd068e56b" y="150.639467"/>
     <use style="fill:#1f77b4;stroke:#1f77b4;" x="60.75885" xlink:href="#macd068e56b" y="54.130992"/>
     <use style="fill:#1f77b4;stroke:#1f77b4;" x="160.482068" xlink:href="#macd068e56b" y="121.524214"/>
     <use style="fill:#1f77b4;stroke:#1f77b4;" x="124.390348" xlink:href="#macd068e56b" y="96.742668"/>
     <use style="fill:#1f77b4;stroke:#1f77b4;" x="258.367361" xlink:href="#macd068e56b" y="188.892026"/>
     <use style="fill:#1f77b4;stroke:#1f77b4;" x="59.097968" xlink:href="#macd068e56b" y="53.568"/>
     <use style="fill:#1f77b4;stroke:#1f77b4;" x="59.335377" xlink:href="#macd068e56b" y="53.569625"/>
     <use style="fill:#1f77b4;stroke:#1f77b4;" x="69.769791" xlink:href="#macd068e56b" y="59.657453"/>
     <use style="fill:#1f77b4;stroke:#1f77b4;" x="156.40518" xlink:href="#macd068e56b" y="118.721937"/>
     <use style="fill:#1f77b4;stroke:#1f77b4;" x="63.120172" xlink:href="#macd068e56b" y="55.423243"/>
     <use style="fill:#1f77b4;stroke:#1f77b4;" x="79.649803" xlink:href="#macd068e56b" y="66.244576"/>
     <use style="fill:#1f77b4;stroke:#1f77b4;" x="70.980751" xlink:href="#macd068e56b" y="60.454799"/>
     <use style="fill:#1f77b4;stroke:#1f77b4;" x="102.12825" xlink:href="#macd068e56b" y="81.509065"/>
     <use style="fill:#1f77b4;stroke:#1f77b4;" x="192.439553" xlink:href="#macd068e56b" y="143.505448"/>
     <use style="fill:#1f77b4;stroke:#1f77b4;" x="208.222946" xlink:href="#macd068e56b" y="154.368336"/>
     <use style="fill:#1f77b4;stroke:#1f77b4;" x="58.783728" xlink:href="#macd068e56b" y="53.910566"/>
     <use style="fill:#1f77b4;stroke:#1f77b4;" x="68.624541" xlink:href="#macd068e56b" y="58.907752"/>
     <use style="fill:#1f77b4;stroke:#1f77b4;" x="88.771299" xlink:href="#macd068e56b" y="72.413787"/>
     <use style="fill:#1f77b4;stroke:#1f77b4;" x="281.198825" xlink:href="#macd068e56b" y="204.611369"/>
     <use style="fill:#1f77b4;stroke:#1f77b4;" x="273.278236" xlink:href="#macd068e56b" y="199.158355"/>
     <use style="fill:#1f77b4;stroke:#1f77b4;" x="58.711335" xlink:href="#macd068e56b" y="54.497484"/>
     <use style="fill:#1f77b4;stroke:#1f77b4;" x="81.333238" xlink:href="#macd068e56b" y="67.379098"/>
     <use style="fill:#1f77b4;stroke:#1f77b4;" x="78.035472" xlink:href="#macd068e56b" y="65.158956"/>
     <use style="fill:#1f77b4;stroke:#1f77b4;" x="148.581871" xlink:href="#macd068e56b" y="113.346221"/>
     <use style="fill:#1f77b4;stroke:#1f77b4;" x="99.711984" xlink:href="#macd068e56b" y="79.860248"/>
     <use style="fill:#1f77b4;stroke:#1f77b4;" x="65.580183" xlink:href="#macd068e56b" y="56.94571"/>
     <use style="fill:#1f77b4;stroke:#1f77b4;" x="58.913144" xlink:href="#macd068e56b" y="53.664229"/>
     <use style="fill:#1f77b4;stroke:#1f77b4;" x="141.179991" xlink:href="#macd068e56b" y="108.262488"/>
    </g>
   </g>
   <g id="patch_3">
    <path d="M 57.6 307.584 
L 57.6 41.472 
" style="fill:none;stroke:#000000;stroke-linecap:square;stroke-linejoin:miter;stroke-width:0.8;"/>
   </g>
   <g id="patch_4">
    <path d="M 414.72 307.584 
L 414.72 41.472 
" style="fill:none;stroke:#000000;stroke-linecap:square;stroke-linejoin:miter;stroke-width:0.8;"/>
   </g>
   <g id="patch_5">
    <path d="M 57.6 307.584 
L 414.72 307.584 
" style="fill:none;stroke:#000000;stroke-linecap:square;stroke-linejoin:miter;stroke-width:0.8;"/>
   </g>
   <g id="patch_6">
    <path d="M 57.6 41.472 
L 414.72 41.472 
" style="fill:none;stroke:#000000;stroke-linecap:square;stroke-linejoin:miter;stroke-width:0.8;"/>
   </g>
  </g>
 </g>
 <defs>
  <clipPath id="p1fc0950af3">
   <rect height="266.112" width="357.12" x="57.6" y="41.472"/>
  </clipPath>
 </defs>
</svg>
