<?xml version="1.0" encoding="utf-8" standalone="no"?>
<!DOCTYPE svg PUBLIC "-//W3C//DTD SVG 1.1//EN"
  "http://www.w3.org/Graphics/SVG/1.1/DTD/svg11.dtd">
<!-- Created with matplotlib (http://matplotlib.org/) -->
<svg height="345pt" version="1.1" viewBox="0 0 460 345" width="460pt" xmlns="http://www.w3.org/2000/svg" xmlns:xlink="http://www.w3.org/1999/xlink">
 <defs>
  <style type="text/css">
*{stroke-linecap:butt;stroke-linejoin:round;}
  </style>
 </defs>
 <g id="figure_1">
  <g id="patch_1">
   <path d="M 0 345.6 
L 460.8 345.6 
L 460.8 0 
L 0 0 
z
" style="fill:#ffffff;"/>
  </g>
  <g id="axes_1">
   <g id="patch_2">
    <path d="M 57.6 307.584 
L 414.72 307.584 
L 414.72 41.472 
L 57.6 41.472 
z
" style="fill:#ffffff;"/>
   </g>
   <g id="matplotlib.axis_1">
    <g id="xtick_1">
     <g id="line2d_1">
      <path clip-path="url(#p6dfdc437c8)" d="M 58.532416 307.584 
L 58.532416 41.472 
" style="fill:none;stroke:#b0b0b0;stroke-linecap:square;stroke-width:0.8;"/>
     </g>
     <g id="line2d_2">
      <defs>
       <path d="M 0 0 
L 0 3.5 
" id="mfbd9b48e97" style="stroke:#000000;stroke-width:0.8;"/>
      </defs>
      <g>
       <use style="stroke:#000000;stroke-width:0.8;" x="58.532416" xlink:href="#mfbd9b48e97" y="307.584"/>
      </g>
     </g>
     <g id="text_1">
      <!-- 0 -->
      <defs>
       <path d="M 31.78125 66.40625 
Q 24.171875 66.40625 20.328125 58.90625 
Q 16.5 51.421875 16.5 36.375 
Q 16.5 21.390625 20.328125 13.890625 
Q 24.171875 6.390625 31.78125 6.390625 
Q 39.453125 6.390625 43.28125 13.890625 
Q 47.125 21.390625 47.125 36.375 
Q 47.125 51.421875 43.28125 58.90625 
Q 39.453125 66.40625 31.78125 66.40625 
M 31.78125 74.21875 
Q 44.046875 74.21875 50.515625 64.515625 
Q 56.984375 54.828125 56.984375 36.375 
Q 56.984375 17.96875 50.515625 8.265625 
Q 44.046875 -1.421875 31.78125 -1.421875 
Q 19.53125 -1.421875 13.0625 8.265625 
Q 6.59375 17.96875 6.59375 36.375 
Q 6.59375 54.828125 13.0625 64.515625 
Q 19.53125 74.21875 31.78125 74.21875 
" id="DejaVuSans-30"/>
      </defs>
      <g transform="translate(55.351166 322.182437)scale(0.1 -0.1)">
       <use xlink:href="#DejaVuSans-30"/>
      </g>
     </g>
    </g>
    <g id="xtick_2">
     <g id="line2d_3">
      <path clip-path="url(#p6dfdc437c8)" d="M 105.153194 307.584 
L 105.153194 41.472 
" style="fill:none;stroke:#b0b0b0;stroke-linecap:square;stroke-width:0.8;"/>
     </g>
     <g id="line2d_4">
      <g>
       <use style="stroke:#000000;stroke-width:0.8;" x="105.153194" xlink:href="#mfbd9b48e97" y="307.584"/>
      </g>
     </g>
     <g id="text_2">
      <!-- 50 -->
      <defs>
       <path d="M 10.796875 72.90625 
L 49.515625 72.90625 
L 49.515625 64.59375 
L 19.828125 64.59375 
L 19.828125 46.734375 
Q 21.96875 47.46875 24.109375 47.828125 
Q 26.265625 48.1875 28.421875 48.1875 
Q 40.625 48.1875 47.75 41.5 
Q 54.890625 34.8125 54.890625 23.390625 
Q 54.890625 11.625 47.5625 5.09375 
Q 40.234375 -1.421875 26.90625 -1.421875 
Q 22.3125 -1.421875 17.546875 -0.640625 
Q 12.796875 0.140625 7.71875 1.703125 
L 7.71875 11.625 
Q 12.109375 9.234375 16.796875 8.0625 
Q 21.484375 6.890625 26.703125 6.890625 
Q 35.15625 6.890625 40.078125 11.328125 
Q 45.015625 15.765625 45.015625 23.390625 
Q 45.015625 31 40.078125 35.4375 
Q 35.15625 39.890625 26.703125 39.890625 
Q 22.75 39.890625 18.8125 39.015625 
Q 14.890625 38.140625 10.796875 36.28125 
z
" id="DejaVuSans-35"/>
      </defs>
      <g transform="translate(98.790694 322.182437)scale(0.1 -0.1)">
       <use xlink:href="#DejaVuSans-35"/>
       <use x="63.623047" xlink:href="#DejaVuSans-30"/>
      </g>
     </g>
    </g>
    <g id="xtick_3">
     <g id="line2d_5">
      <path clip-path="url(#p6dfdc437c8)" d="M 151.773972 307.584 
L 151.773972 41.472 
" style="fill:none;stroke:#b0b0b0;stroke-linecap:square;stroke-width:0.8;"/>
     </g>
     <g id="line2d_6">
      <g>
       <use style="stroke:#000000;stroke-width:0.8;" x="151.773972" xlink:href="#mfbd9b48e97" y="307.584"/>
      </g>
     </g>
     <g id="text_3">
      <!-- 100 -->
      <defs>
       <path d="M 12.40625 8.296875 
L 28.515625 8.296875 
L 28.515625 63.921875 
L 10.984375 60.40625 
L 10.984375 69.390625 
L 28.421875 72.90625 
L 38.28125 72.90625 
L 38.28125 8.296875 
L 54.390625 8.296875 
L 54.390625 0 
L 12.40625 0 
z
" id="DejaVuSans-31"/>
      </defs>
      <g transform="translate(142.230222 322.182437)scale(0.1 -0.1)">
       <use xlink:href="#DejaVuSans-31"/>
       <use x="63.623047" xlink:href="#DejaVuSans-30"/>
       <use x="127.246094" xlink:href="#DejaVuSans-30"/>
      </g>
     </g>
    </g>
    <g id="xtick_4">
     <g id="line2d_7">
      <path clip-path="url(#p6dfdc437c8)" d="M 198.39475 307.584 
L 198.39475 41.472 
" style="fill:none;stroke:#b0b0b0;stroke-linecap:square;stroke-width:0.8;"/>
     </g>
     <g id="line2d_8">
      <g>
       <use style="stroke:#000000;stroke-width:0.8;" x="198.39475" xlink:href="#mfbd9b48e97" y="307.584"/>
      </g>
     </g>
     <g id="text_4">
      <!-- 150 -->
      <g transform="translate(188.851 322.182437)scale(0.1 -0.1)">
       <use xlink:href="#DejaVuSans-31"/>
       <use x="63.623047" xlink:href="#DejaVuSans-35"/>
       <use x="127.246094" xlink:href="#DejaVuSans-30"/>
      </g>
     </g>
    </g>
    <g id="xtick_5">
     <g id="line2d_9">
      <path clip-path="url(#p6dfdc437c8)" d="M 245.015529 307.584 
L 245.015529 41.472 
" style="fill:none;stroke:#b0b0b0;stroke-linecap:square;stroke-width:0.8;"/>
     </g>
     <g id="line2d_10">
      <g>
       <use style="stroke:#000000;stroke-width:0.8;" x="245.015529" xlink:href="#mfbd9b48e97" y="307.584"/>
      </g>
     </g>
     <g id="text_5">
      <!-- 200 -->
      <defs>
       <path d="M 19.1875 8.296875 
L 53.609375 8.296875 
L 53.609375 0 
L 7.328125 0 
L 7.328125 8.296875 
Q 12.9375 14.109375 22.625 23.890625 
Q 32.328125 33.6875 34.8125 36.53125 
Q 39.546875 41.84375 41.421875 45.53125 
Q 43.3125 49.21875 43.3125 52.78125 
Q 43.3125 58.59375 39.234375 62.25 
Q 35.15625 65.921875 28.609375 65.921875 
Q 23.96875 65.921875 18.8125 64.3125 
Q 13.671875 62.703125 7.8125 59.421875 
L 7.8125 69.390625 
Q 13.765625 71.78125 18.9375 73 
Q 24.125 74.21875 28.421875 74.21875 
Q 39.75 74.21875 46.484375 68.546875 
Q 53.21875 62.890625 53.21875 53.421875 
Q 53.21875 48.921875 51.53125 44.890625 
Q 49.859375 40.875 45.40625 35.40625 
Q 44.1875 33.984375 37.640625 27.21875 
Q 31.109375 20.453125 19.1875 8.296875 
" id="DejaVuSans-32"/>
      </defs>
      <g transform="translate(235.471779 322.182437)scale(0.1 -0.1)">
       <use xlink:href="#DejaVuSans-32"/>
       <use x="63.623047" xlink:href="#DejaVuSans-30"/>
       <use x="127.246094" xlink:href="#DejaVuSans-30"/>
      </g>
     </g>
    </g>
    <g id="xtick_6">
     <g id="line2d_11">
      <path clip-path="url(#p6dfdc437c8)" d="M 291.636307 307.584 
L 291.636307 41.472 
" style="fill:none;stroke:#b0b0b0;stroke-linecap:square;stroke-width:0.8;"/>
     </g>
     <g id="line2d_12">
      <g>
       <use style="stroke:#000000;stroke-width:0.8;" x="291.636307" xlink:href="#mfbd9b48e97" y="307.584"/>
      </g>
     </g>
     <g id="text_6">
      <!-- 250 -->
      <g transform="translate(282.092557 322.182437)scale(0.1 -0.1)">
       <use xlink:href="#DejaVuSans-32"/>
       <use x="63.623047" xlink:href="#DejaVuSans-35"/>
       <use x="127.246094" xlink:href="#DejaVuSans-30"/>
      </g>
     </g>
    </g>
    <g id="xtick_7">
     <g id="line2d_13">
      <path clip-path="url(#p6dfdc437c8)" d="M 338.257085 307.584 
L 338.257085 41.472 
" style="fill:none;stroke:#b0b0b0;stroke-linecap:square;stroke-width:0.8;"/>
     </g>
     <g id="line2d_14">
      <g>
       <use style="stroke:#000000;stroke-width:0.8;" x="338.257085" xlink:href="#mfbd9b48e97" y="307.584"/>
      </g>
     </g>
     <g id="text_7">
      <!-- 300 -->
      <defs>
       <path d="M 40.578125 39.3125 
Q 47.65625 37.796875 51.625 33 
Q 55.609375 28.21875 55.609375 21.1875 
Q 55.609375 10.40625 48.1875 4.484375 
Q 40.765625 -1.421875 27.09375 -1.421875 
Q 22.515625 -1.421875 17.65625 -0.515625 
Q 12.796875 0.390625 7.625 2.203125 
L 7.625 11.71875 
Q 11.71875 9.328125 16.59375 8.109375 
Q 21.484375 6.890625 26.8125 6.890625 
Q 36.078125 6.890625 40.9375 10.546875 
Q 45.796875 14.203125 45.796875 21.1875 
Q 45.796875 27.640625 41.28125 31.265625 
Q 36.765625 34.90625 28.71875 34.90625 
L 20.21875 34.90625 
L 20.21875 43.015625 
L 29.109375 43.015625 
Q 36.375 43.015625 40.234375 45.921875 
Q 44.09375 48.828125 44.09375 54.296875 
Q 44.09375 59.90625 40.109375 62.90625 
Q 36.140625 65.921875 28.71875 65.921875 
Q 24.65625 65.921875 20.015625 65.03125 
Q 15.375 64.15625 9.8125 62.3125 
L 9.8125 71.09375 
Q 15.4375 72.65625 20.34375 73.4375 
Q 25.25 74.21875 29.59375 74.21875 
Q 40.828125 74.21875 47.359375 69.109375 
Q 53.90625 64.015625 53.90625 55.328125 
Q 53.90625 49.265625 50.4375 45.09375 
Q 46.96875 40.921875 40.578125 39.3125 
" id="DejaVuSans-33"/>
      </defs>
      <g transform="translate(328.713335 322.182437)scale(0.1 -0.1)">
       <use xlink:href="#DejaVuSans-33"/>
       <use x="63.623047" xlink:href="#DejaVuSans-30"/>
       <use x="127.246094" xlink:href="#DejaVuSans-30"/>
      </g>
     </g>
    </g>
    <g id="xtick_8">
     <g id="line2d_15">
      <path clip-path="url(#p6dfdc437c8)" d="M 384.877863 307.584 
L 384.877863 41.472 
" style="fill:none;stroke:#b0b0b0;stroke-linecap:square;stroke-width:0.8;"/>
     </g>
     <g id="line2d_16">
      <g>
       <use style="stroke:#000000;stroke-width:0.8;" x="384.877863" xlink:href="#mfbd9b48e97" y="307.584"/>
      </g>
     </g>
     <g id="text_8">
      <!-- 350 -->
      <g transform="translate(375.334113 322.182437)scale(0.1 -0.1)">
       <use xlink:href="#DejaVuSans-33"/>
       <use x="63.623047" xlink:href="#DejaVuSans-35"/>
       <use x="127.246094" xlink:href="#DejaVuSans-30"/>
      </g>
     </g>
    </g>
    <g id="text_9">
     <!-- $\gamma_i$ -->
     <defs>
      <path d="M 23.296875 46.09375 
L 28.71875 12.3125 
L 54 54.6875 
L 63.53125 54.6875 
L 30.8125 0 
L 26.765625 -20.796875 
L 17.78125 -20.796875 
L 21.828125 0 
L 15.4375 40.828125 
Q 14.453125 46.96875 9.8125 46.96875 
L 7.421875 46.96875 
L 8.890625 54.6875 
L 12.3125 54.6875 
Q 21.921875 54.6875 23.296875 46.09375 
" id="DejaVuSans-Oblique-3b3"/>
      <path d="M 18.3125 75.984375 
L 27.296875 75.984375 
L 25.09375 64.59375 
L 16.109375 64.59375 
z
M 14.203125 54.6875 
L 23.1875 54.6875 
L 12.5 0 
L 3.515625 0 
z
" id="DejaVuSans-Oblique-69"/>
     </defs>
     <g transform="translate(232.06 335.84025)scale(0.1 -0.1)">
      <use transform="translate(0 0.3125)" xlink:href="#DejaVuSans-Oblique-3b3"/>
      <use transform="translate(59.179688 -16.09375)scale(0.7)" xlink:href="#DejaVuSans-Oblique-69"/>
     </g>
    </g>
   </g>
   <g id="matplotlib.axis_2">
    <g id="ytick_1">
     <g id="line2d_17">
      <path clip-path="url(#p6dfdc437c8)" d="M 57.6 279.033732 
L 414.72 279.033732 
" style="fill:none;stroke:#b0b0b0;stroke-linecap:square;stroke-width:0.8;"/>
     </g>
     <g id="line2d_18">
      <defs>
       <path d="M 0 0 
L -3.5 0 
" id="mbe08dec611" style="stroke:#000000;stroke-width:0.8;"/>
      </defs>
      <g>
       <use style="stroke:#000000;stroke-width:0.8;" x="57.6" xlink:href="#mbe08dec611" y="279.033732"/>
      </g>
     </g>
     <g id="text_10">
      <!-- ${10^{-153}}$ -->
      <defs>
       <path d="M 10.59375 35.5 
L 73.1875 35.5 
L 73.1875 27.203125 
L 10.59375 27.203125 
z
" id="DejaVuSans-2212"/>
      </defs>
      <g transform="translate(18.2 282.83295)scale(0.1 -0.1)">
       <use transform="translate(0 0.765625)" xlink:href="#DejaVuSans-31"/>
       <use transform="translate(63.623047 0.765625)" xlink:href="#DejaVuSans-30"/>
       <use transform="translate(128.203125 39.046875)scale(0.7)" xlink:href="#DejaVuSans-2212"/>
       <use transform="translate(186.855469 39.046875)scale(0.7)" xlink:href="#DejaVuSans-31"/>
       <use transform="translate(231.391602 39.046875)scale(0.7)" xlink:href="#DejaVuSans-35"/>
       <use transform="translate(275.927734 39.046875)scale(0.7)" xlink:href="#DejaVuSans-33"/>
      </g>
     </g>
    </g>
    <g id="ytick_2">
     <g id="line2d_19">
      <path clip-path="url(#p6dfdc437c8)" d="M 57.6 249.389699 
L 414.72 249.389699 
" style="fill:none;stroke:#b0b0b0;stroke-linecap:square;stroke-width:0.8;"/>
     </g>
     <g id="line2d_20">
      <g>
       <use style="stroke:#000000;stroke-width:0.8;" x="57.6" xlink:href="#mbe08dec611" y="249.389699"/>
      </g>
     </g>
     <g id="text_11">
      <!-- ${10^{-133}}$ -->
      <g transform="translate(18.2 253.188918)scale(0.1 -0.1)">
       <use transform="translate(0 0.765625)" xlink:href="#DejaVuSans-31"/>
       <use transform="translate(63.623047 0.765625)" xlink:href="#DejaVuSans-30"/>
       <use transform="translate(128.203125 39.046875)scale(0.7)" xlink:href="#DejaVuSans-2212"/>
       <use transform="translate(186.855469 39.046875)scale(0.7)" xlink:href="#DejaVuSans-31"/>
       <use transform="translate(231.391602 39.046875)scale(0.7)" xlink:href="#DejaVuSans-33"/>
       <use transform="translate(275.927734 39.046875)scale(0.7)" xlink:href="#DejaVuSans-33"/>
      </g>
     </g>
    </g>
    <g id="ytick_3">
     <g id="line2d_21">
      <path clip-path="url(#p6dfdc437c8)" d="M 57.6 219.745667 
L 414.72 219.745667 
" style="fill:none;stroke:#b0b0b0;stroke-linecap:square;stroke-width:0.8;"/>
     </g>
     <g id="line2d_22">
      <g>
       <use style="stroke:#000000;stroke-width:0.8;" x="57.6" xlink:href="#mbe08dec611" y="219.745667"/>
      </g>
     </g>
     <g id="text_12">
      <!-- ${10^{-113}}$ -->
      <g transform="translate(18.2 223.544886)scale(0.1 -0.1)">
       <use transform="translate(0 0.765625)" xlink:href="#DejaVuSans-31"/>
       <use transform="translate(63.623047 0.765625)" xlink:href="#DejaVuSans-30"/>
       <use transform="translate(128.203125 39.046875)scale(0.7)" xlink:href="#DejaVuSans-2212"/>
       <use transform="translate(186.855469 39.046875)scale(0.7)" xlink:href="#DejaVuSans-31"/>
       <use transform="translate(231.391602 39.046875)scale(0.7)" xlink:href="#DejaVuSans-31"/>
       <use transform="translate(275.927734 39.046875)scale(0.7)" xlink:href="#DejaVuSans-33"/>
      </g>
     </g>
    </g>
    <g id="ytick_4">
     <g id="line2d_23">
      <path clip-path="url(#p6dfdc437c8)" d="M 57.6 190.101635 
L 414.72 190.101635 
" style="fill:none;stroke:#b0b0b0;stroke-linecap:square;stroke-width:0.8;"/>
     </g>
     <g id="line2d_24">
      <g>
       <use style="stroke:#000000;stroke-width:0.8;" x="57.6" xlink:href="#mbe08dec611" y="190.101635"/>
      </g>
     </g>
     <g id="text_13">
      <!-- ${10^{-93}}$ -->
      <defs>
       <path d="M 10.984375 1.515625 
L 10.984375 10.5 
Q 14.703125 8.734375 18.5 7.8125 
Q 22.3125 6.890625 25.984375 6.890625 
Q 35.75 6.890625 40.890625 13.453125 
Q 46.046875 20.015625 46.78125 33.40625 
Q 43.953125 29.203125 39.59375 26.953125 
Q 35.25 24.703125 29.984375 24.703125 
Q 19.046875 24.703125 12.671875 31.3125 
Q 6.296875 37.9375 6.296875 49.421875 
Q 6.296875 60.640625 12.9375 67.421875 
Q 19.578125 74.21875 30.609375 74.21875 
Q 43.265625 74.21875 49.921875 64.515625 
Q 56.59375 54.828125 56.59375 36.375 
Q 56.59375 19.140625 48.40625 8.859375 
Q 40.234375 -1.421875 26.421875 -1.421875 
Q 22.703125 -1.421875 18.890625 -0.6875 
Q 15.09375 0.046875 10.984375 1.515625 
M 30.609375 32.421875 
Q 37.25 32.421875 41.125 36.953125 
Q 45.015625 41.5 45.015625 49.421875 
Q 45.015625 57.28125 41.125 61.84375 
Q 37.25 66.40625 30.609375 66.40625 
Q 23.96875 66.40625 20.09375 61.84375 
Q 16.21875 57.28125 16.21875 49.421875 
Q 16.21875 41.5 20.09375 36.953125 
Q 23.96875 32.421875 30.609375 32.421875 
" id="DejaVuSans-39"/>
      </defs>
      <g transform="translate(22.7 193.900854)scale(0.1 -0.1)">
       <use transform="translate(0 0.765625)" xlink:href="#DejaVuSans-31"/>
       <use transform="translate(63.623047 0.765625)" xlink:href="#DejaVuSans-30"/>
       <use transform="translate(128.203125 39.046875)scale(0.7)" xlink:href="#DejaVuSans-2212"/>
       <use transform="translate(186.855469 39.046875)scale(0.7)" xlink:href="#DejaVuSans-39"/>
       <use transform="translate(231.391602 39.046875)scale(0.7)" xlink:href="#DejaVuSans-33"/>
      </g>
     </g>
    </g>
    <g id="ytick_5">
     <g id="line2d_25">
      <path clip-path="url(#p6dfdc437c8)" d="M 57.6 160.457603 
L 414.72 160.457603 
" style="fill:none;stroke:#b0b0b0;stroke-linecap:square;stroke-width:0.8;"/>
     </g>
     <g id="line2d_26">
      <g>
       <use style="stroke:#000000;stroke-width:0.8;" x="57.6" xlink:href="#mbe08dec611" y="160.457603"/>
      </g>
     </g>
     <g id="text_14">
      <!-- ${10^{-73}}$ -->
      <defs>
       <path d="M 8.203125 72.90625 
L 55.078125 72.90625 
L 55.078125 68.703125 
L 28.609375 0 
L 18.3125 0 
L 43.21875 64.59375 
L 8.203125 64.59375 
z
" id="DejaVuSans-37"/>
      </defs>
      <g transform="translate(22.7 164.256821)scale(0.1 -0.1)">
       <use transform="translate(0 0.765625)" xlink:href="#DejaVuSans-31"/>
       <use transform="translate(63.623047 0.765625)" xlink:href="#DejaVuSans-30"/>
       <use transform="translate(128.203125 39.046875)scale(0.7)" xlink:href="#DejaVuSans-2212"/>
       <use transform="translate(186.855469 39.046875)scale(0.7)" xlink:href="#DejaVuSans-37"/>
       <use transform="translate(231.391602 39.046875)scale(0.7)" xlink:href="#DejaVuSans-33"/>
      </g>
     </g>
    </g>
    <g id="ytick_6">
     <g id="line2d_27">
      <path clip-path="url(#p6dfdc437c8)" d="M 57.6 130.81357 
L 414.72 130.81357 
" style="fill:none;stroke:#b0b0b0;stroke-linecap:square;stroke-width:0.8;"/>
     </g>
     <g id="line2d_28">
      <g>
       <use style="stroke:#000000;stroke-width:0.8;" x="57.6" xlink:href="#mbe08dec611" y="130.81357"/>
      </g>
     </g>
     <g id="text_15">
      <!-- ${10^{-53}}$ -->
      <g transform="translate(22.7 134.612789)scale(0.1 -0.1)">
       <use transform="translate(0 0.765625)" xlink:href="#DejaVuSans-31"/>
       <use transform="translate(63.623047 0.765625)" xlink:href="#DejaVuSans-30"/>
       <use transform="translate(128.203125 39.046875)scale(0.7)" xlink:href="#DejaVuSans-2212"/>
       <use transform="translate(186.855469 39.046875)scale(0.7)" xlink:href="#DejaVuSans-35"/>
       <use transform="translate(231.391602 39.046875)scale(0.7)" xlink:href="#DejaVuSans-33"/>
      </g>
     </g>
    </g>
    <g id="ytick_7">
     <g id="line2d_29">
      <path clip-path="url(#p6dfdc437c8)" d="M 57.6 101.169538 
L 414.72 101.169538 
" style="fill:none;stroke:#b0b0b0;stroke-linecap:square;stroke-width:0.8;"/>
     </g>
     <g id="line2d_30">
      <g>
       <use style="stroke:#000000;stroke-width:0.8;" x="57.6" xlink:href="#mbe08dec611" y="101.169538"/>
      </g>
     </g>
     <g id="text_16">
      <!-- ${10^{-33}}$ -->
      <g transform="translate(22.7 104.968757)scale(0.1 -0.1)">
       <use transform="translate(0 0.765625)" xlink:href="#DejaVuSans-31"/>
       <use transform="translate(63.623047 0.765625)" xlink:href="#DejaVuSans-30"/>
       <use transform="translate(128.203125 39.046875)scale(0.7)" xlink:href="#DejaVuSans-2212"/>
       <use transform="translate(186.855469 39.046875)scale(0.7)" xlink:href="#DejaVuSans-33"/>
       <use transform="translate(231.391602 39.046875)scale(0.7)" xlink:href="#DejaVuSans-33"/>
      </g>
     </g>
    </g>
    <g id="ytick_8">
     <g id="line2d_31">
      <path clip-path="url(#p6dfdc437c8)" d="M 57.6 71.525506 
L 414.72 71.525506 
" style="fill:none;stroke:#b0b0b0;stroke-linecap:square;stroke-width:0.8;"/>
     </g>
     <g id="line2d_32">
      <g>
       <use style="stroke:#000000;stroke-width:0.8;" x="57.6" xlink:href="#mbe08dec611" y="71.525506"/>
      </g>
     </g>
     <g id="text_17">
      <!-- ${10^{-13}}$ -->
      <g transform="translate(22.7 75.324725)scale(0.1 -0.1)">
       <use transform="translate(0 0.765625)" xlink:href="#DejaVuSans-31"/>
       <use transform="translate(63.623047 0.765625)" xlink:href="#DejaVuSans-30"/>
       <use transform="translate(128.203125 39.046875)scale(0.7)" xlink:href="#DejaVuSans-2212"/>
       <use transform="translate(186.855469 39.046875)scale(0.7)" xlink:href="#DejaVuSans-31"/>
       <use transform="translate(231.391602 39.046875)scale(0.7)" xlink:href="#DejaVuSans-33"/>
      </g>
     </g>
    </g>
    <g id="ytick_9">
     <g id="line2d_33">
      <path clip-path="url(#p6dfdc437c8)" d="M 57.6 41.881474 
L 414.72 41.881474 
" style="fill:none;stroke:#b0b0b0;stroke-linecap:square;stroke-width:0.8;"/>
     </g>
     <g id="line2d_34">
      <g>
       <use style="stroke:#000000;stroke-width:0.8;" x="57.6" xlink:href="#mbe08dec611" y="41.881474"/>
      </g>
     </g>
     <g id="text_18">
      <!-- ${10^{7}}$ -->
      <g transform="translate(33 45.680693)scale(0.1 -0.1)">
       <use transform="translate(0 0.684375)" xlink:href="#DejaVuSans-31"/>
       <use transform="translate(63.623047 0.684375)" xlink:href="#DejaVuSans-30"/>
       <use transform="translate(128.203125 38.965625)scale(0.7)" xlink:href="#DejaVuSans-37"/>
      </g>
     </g>
    </g>
    <g id="text_19">
     <!-- $\omega_i$ -->
     <defs>
      <path d="M 21.390625 -1.421875 
Q 1.125 -1.421875 6.78125 27.59375 
Q 8.984375 39.0625 19.625 54.6875 
L 29.296875 54.6875 
Q 19.234375 39.0625 17 27.34375 
Q 12.796875 6.203125 23.734375 6.203125 
Q 33.84375 6.203125 38.71875 32.46875 
L 47.015625 32.46875 
Q 41.703125 6.0625 51.8125 6.203125 
Q 62.703125 6.296875 66.796875 27.34375 
Q 69.046875 39.0625 65.140625 54.6875 
L 74.8125 54.6875 
Q 79.296875 39.0625 77.09375 27.59375 
Q 71.53125 -1.46875 51.21875 -1.421875 
Q 37.9375 -1.375 39.109375 13.1875 
Q 34.28125 -1.421875 21.390625 -1.421875 
" id="DejaVuSans-Oblique-3c9"/>
     </defs>
     <g transform="translate(12.120313 179.828)rotate(-90)scale(0.1 -0.1)">
      <use transform="translate(0 0.3125)" xlink:href="#DejaVuSans-Oblique-3c9"/>
      <use transform="translate(83.740234 -16.09375)scale(0.7)" xlink:href="#DejaVuSans-Oblique-69"/>
     </g>
    </g>
   </g>
   <g id="line2d_35">
    <defs>
     <path d="M 0 3 
C 0.795609 3 1.55874 2.683901 2.12132 2.12132 
C 2.683901 1.55874 3 0.795609 3 0 
C 3 -0.795609 2.683901 -1.55874 2.12132 -2.12132 
C 1.55874 -2.683901 0.795609 -3 0 -3 
C -0.795609 -3 -1.55874 -2.683901 -2.12132 -2.12132 
C -2.683901 -1.55874 -3 -0.795609 -3 0 
C -3 0.795609 -2.683901 1.55874 -2.12132 2.12132 
C -1.55874 2.683901 -0.795609 3 0 3 
z
" id="m641fa39f5c" style="stroke:#1f77b4;"/>
    </defs>
    <g clip-path="url(#p6dfdc437c8)">
     <use style="fill:#1f77b4;stroke:#1f77b4;" x="367.57276" xlink:href="#m641fa39f5c" y="263.9556"/>
     <use style="fill:#1f77b4;stroke:#1f77b4;" x="413.787584" xlink:href="#m641fa39f5c" y="295.488"/>
     <use style="fill:#1f77b4;stroke:#1f77b4;" x="380.461251" xlink:href="#m641fa39f5c" y="272.7766"/>
     <use style="fill:#1f77b4;stroke:#1f77b4;" x="326.157578" xlink:href="#m641fa39f5c" y="235.5569"/>
     <use style="fill:#1f77b4;stroke:#1f77b4;" x="355.978265" xlink:href="#m641fa39f5c" y="256.01165"/>
     <use style="fill:#1f77b4;stroke:#1f77b4;" x="180.087982" xlink:href="#m641fa39f5c" y="135.23617"/>
     <use style="fill:#1f77b4;stroke:#1f77b4;" x="64.405629" xlink:href="#m641fa39f5c" y="56.483625"/>
     <use style="fill:#1f77b4;stroke:#1f77b4;" x="272.457281" xlink:href="#m641fa39f5c" y="198.681086"/>
     <use style="fill:#1f77b4;stroke:#1f77b4;" x="72.374531" xlink:href="#m641fa39f5c" y="61.718714"/>
     <use style="fill:#1f77b4;stroke:#1f77b4;" x="176.125916" xlink:href="#m641fa39f5c" y="132.51645"/>
     <use style="fill:#1f77b4;stroke:#1f77b4;" x="68.44619" xlink:href="#m641fa39f5c" y="59.125652"/>
     <use style="fill:#1f77b4;stroke:#1f77b4;" x="132.373639" xlink:href="#m641fa39f5c" y="102.510927"/>
     <use style="fill:#1f77b4;stroke:#1f77b4;" x="79.828138" xlink:href="#m641fa39f5c" y="66.695723"/>
     <use style="fill:#1f77b4;stroke:#1f77b4;" x="253.534797" xlink:href="#m641fa39f5c" y="185.682012"/>
     <use style="fill:#1f77b4;stroke:#1f77b4;" x="74.642445" xlink:href="#m641fa39f5c" y="63.222531"/>
     <use style="fill:#1f77b4;stroke:#1f77b4;" x="335.442133" xlink:href="#m641fa39f5c" y="241.928112"/>
     <use style="fill:#1f77b4;stroke:#1f77b4;" x="121.435677" xlink:href="#m641fa39f5c" y="95.022819"/>
     <use style="fill:#1f77b4;stroke:#1f77b4;" x="73.481208" xlink:href="#m641fa39f5c" y="62.451152"/>
     <use style="fill:#1f77b4;stroke:#1f77b4;" x="69.362317" xlink:href="#m641fa39f5c" y="59.731406"/>
     <use style="fill:#1f77b4;stroke:#1f77b4;" x="168.482361" xlink:href="#m641fa39f5c" y="127.270466"/>
     <use style="fill:#1f77b4;stroke:#1f77b4;" x="106.954818" xlink:href="#m641fa39f5c" y="85.124855"/>
     <use style="fill:#1f77b4;stroke:#1f77b4;" x="241.893006" xlink:href="#m641fa39f5c" y="177.68428"/>
     <use style="fill:#1f77b4;stroke:#1f77b4;" x="286.224128" xlink:href="#m641fa39f5c" y="208.137473"/>
     <use style="fill:#1f77b4;stroke:#1f77b4;" x="87.506573" xlink:href="#m641fa39f5c" y="71.885094"/>
     <use style="fill:#1f77b4;stroke:#1f77b4;" x="77.128047" xlink:href="#m641fa39f5c" y="64.882454"/>
     <use style="fill:#1f77b4;stroke:#1f77b4;" x="129.538038" xlink:href="#m641fa39f5c" y="100.568933"/>
     <use style="fill:#1f77b4;stroke:#1f77b4;" x="345.33677" xlink:href="#m641fa39f5c" y="248.715518"/>
     <use style="fill:#1f77b4;stroke:#1f77b4;" x="293.514992" xlink:href="#m641fa39f5c" y="213.144993"/>
     <use style="fill:#1f77b4;stroke:#1f77b4;" x="90.95196" xlink:href="#m641fa39f5c" y="74.223292"/>
     <use style="fill:#1f77b4;stroke:#1f77b4;" x="100.527396" xlink:href="#m641fa39f5c" y="80.740082"/>
     <use style="fill:#1f77b4;stroke:#1f77b4;" x="201.424587" xlink:href="#m641fa39f5c" y="149.886519"/>
     <use style="fill:#1f77b4;stroke:#1f77b4;" x="109.215022" xlink:href="#m641fa39f5c" y="86.668216"/>
     <use style="fill:#1f77b4;stroke:#1f77b4;" x="85.86456" xlink:href="#m641fa39f5c" y="70.772471"/>
     <use style="fill:#1f77b4;stroke:#1f77b4;" x="111.535377" xlink:href="#m641fa39f5c" y="88.253318"/>
     <use style="fill:#1f77b4;stroke:#1f77b4;" x="196.942089" xlink:href="#m641fa39f5c" y="146.808224"/>
     <use style="fill:#1f77b4;stroke:#1f77b4;" x="309.056942" xlink:href="#m641fa39f5c" y="223.817745"/>
     <use style="fill:#1f77b4;stroke:#1f77b4;" x="102.611737" xlink:href="#m641fa39f5c" y="82.161274"/>
     <use style="fill:#1f77b4;stroke:#1f77b4;" x="71.321376" xlink:href="#m641fa39f5c" y="61.023704"/>
     <use style="fill:#1f77b4;stroke:#1f77b4;" x="92.756127" xlink:href="#m641fa39f5c" y="75.449323"/>
     <use style="fill:#1f77b4;stroke:#1f77b4;" x="192.57095" xlink:href="#m641fa39f5c" y="143.806623"/>
     <use style="fill:#1f77b4;stroke:#1f77b4;" x="75.858206" xlink:href="#m641fa39f5c" y="64.033084"/>
     <use style="fill:#1f77b4;stroke:#1f77b4;" x="124.070222" xlink:href="#m641fa39f5c" y="96.82567"/>
     <use style="fill:#1f77b4;stroke:#1f77b4;" x="81.257791" xlink:href="#m641fa39f5c" y="67.658875"/>
     <use style="fill:#1f77b4;stroke:#1f77b4;" x="67.566424" xlink:href="#m641fa39f5c" y="58.544005"/>
     <use style="fill:#1f77b4;stroke:#1f77b4;" x="395.299683" xlink:href="#m641fa39f5c" y="282.91303"/>
     <use style="fill:#1f77b4;stroke:#1f77b4;" x="230.924085" xlink:href="#m641fa39f5c" y="170.148959"/>
     <use style="fill:#1f77b4;stroke:#1f77b4;" x="161.195664" xlink:href="#m641fa39f5c" y="122.270621"/>
     <use style="fill:#1f77b4;stroke:#1f77b4;" x="63.712345" xlink:href="#m641fa39f5c" y="56.043175"/>
     <use style="fill:#1f77b4;stroke:#1f77b4;" x="65.139335" xlink:href="#m641fa39f5c" y="56.955319"/>
     <use style="fill:#1f77b4;stroke:#1f77b4;" x="126.77063" xlink:href="#m641fa39f5c" y="98.674119"/>
     <use style="fill:#1f77b4;stroke:#1f77b4;" x="96.529751" xlink:href="#m641fa39f5c" y="78.016684"/>
     <use style="fill:#1f77b4;stroke:#1f77b4;" x="247.624826" xlink:href="#m641fa39f5c" y="181.621948"/>
     <use style="fill:#1f77b4;stroke:#1f77b4;" x="206.022685" xlink:href="#m641fa39f5c" y="153.044413"/>
     <use style="fill:#1f77b4;stroke:#1f77b4;" x="84.275903" xlink:href="#m641fa39f5c" y="69.697277"/>
     <use style="fill:#1f77b4;stroke:#1f77b4;" x="265.936935" xlink:href="#m641fa39f5c" y="194.201956"/>
     <use style="fill:#1f77b4;stroke:#1f77b4;" x="62.451637" xlink:href="#m641fa39f5c" y="55.259867"/>
     <use style="fill:#1f77b4;stroke:#1f77b4;" x="225.669743" xlink:href="#m641fa39f5c" y="166.539514"/>
     <use style="fill:#1f77b4;stroke:#1f77b4;" x="147.621139" xlink:href="#m641fa39f5c" y="112.960296"/>
     <use style="fill:#1f77b4;stroke:#1f77b4;" x="98.500279" xlink:href="#m641fa39f5c" y="79.35869"/>
     <use style="fill:#1f77b4;stroke:#1f77b4;" x="215.58452" xlink:href="#m641fa39f5c" y="159.611892"/>
     <use style="fill:#1f77b4;stroke:#1f77b4;" x="116.359924" xlink:href="#m641fa39f5c" y="91.55102"/>
     <use style="fill:#1f77b4;stroke:#1f77b4;" x="220.558764" xlink:href="#m641fa39f5c" y="163.028671"/>
     <use style="fill:#1f77b4;stroke:#1f77b4;" x="157.680277" xlink:href="#m641fa39f5c" y="119.858991"/>
     <use style="fill:#1f77b4;stroke:#1f77b4;" x="113.916718" xlink:href="#m641fa39f5c" y="89.880723"/>
     <use style="fill:#1f77b4;stroke:#1f77b4;" x="59.850295" xlink:href="#m641fa39f5c" y="55.54358"/>
     <use style="fill:#1f77b4;stroke:#1f77b4;" x="59.412646" xlink:href="#m641fa39f5c" y="53.644725"/>
     <use style="fill:#1f77b4;stroke:#1f77b4;" x="138.254529" xlink:href="#m641fa39f5c" y="106.539924"/>
     <use style="fill:#1f77b4;stroke:#1f77b4;" x="259.634457" xlink:href="#m641fa39f5c" y="189.872357"/>
     <use style="fill:#1f77b4;stroke:#1f77b4;" x="317.386392" xlink:href="#m641fa39f5c" y="229.536322"/>
     <use style="fill:#1f77b4;stroke:#1f77b4;" x="61.363615" xlink:href="#m641fa39f5c" y="54.612362"/>
     <use style="fill:#1f77b4;stroke:#1f77b4;" x="82.740363" xlink:href="#m641fa39f5c" y="68.659418"/>
     <use style="fill:#1f77b4;stroke:#1f77b4;" x="172.258281" xlink:href="#m641fa39f5c" y="129.861835"/>
     <use style="fill:#1f77b4;stroke:#1f77b4;" x="154.247357" xlink:href="#m641fa39f5c" y="117.50428"/>
     <use style="fill:#1f77b4;stroke:#1f77b4;" x="279.2129" xlink:href="#m641fa39f5c" y="203.321633"/>
     <use style="fill:#1f77b4;stroke:#1f77b4;" x="135.278693" xlink:href="#m641fa39f5c" y="104.500955"/>
     <use style="fill:#1f77b4;stroke:#1f77b4;" x="60.88552" xlink:href="#m641fa39f5c" y="54.34192"/>
     <use style="fill:#1f77b4;stroke:#1f77b4;" x="150.89493" xlink:href="#m641fa39f5c" y="115.205138"/>
     <use style="fill:#1f77b4;stroke:#1f77b4;" x="89.20225" xlink:href="#m641fa39f5c" y="73.035299"/>
     <use style="fill:#1f77b4;stroke:#1f77b4;" x="66.72146" xlink:href="#m641fa39f5c" y="57.987204"/>
     <use style="fill:#1f77b4;stroke:#1f77b4;" x="301.114265" xlink:href="#m641fa39f5c" y="218.363806"/>
     <use style="fill:#1f77b4;stroke:#1f77b4;" x="118.86592" xlink:href="#m641fa39f5c" y="93.264833"/>
     <use style="fill:#1f77b4;stroke:#1f77b4;" x="236.329125" xlink:href="#m641fa39f5c" y="173.862024"/>
     <use style="fill:#1f77b4;stroke:#1f77b4;" x="210.740989" xlink:href="#m641fa39f5c" y="156.285059"/>
     <use style="fill:#1f77b4;stroke:#1f77b4;" x="164.795615" xlink:href="#m641fa39f5c" y="124.740604"/>
     <use style="fill:#1f77b4;stroke:#1f77b4;" x="61.885779" xlink:href="#m641fa39f5c" y="54.918705"/>
     <use style="fill:#1f77b4;stroke:#1f77b4;" x="94.615219" xlink:href="#m641fa39f5c" y="76.71368"/>
     <use style="fill:#1f77b4;stroke:#1f77b4;" x="58.778163" xlink:href="#m641fa39f5c" y="53.624617"/>
     <use style="fill:#1f77b4;stroke:#1f77b4;" x="65.911884" xlink:href="#m641fa39f5c" y="57.457027"/>
     <use style="fill:#1f77b4;stroke:#1f77b4;" x="144.42423" xlink:href="#m641fa39f5c" y="110.768556"/>
     <use style="fill:#1f77b4;stroke:#1f77b4;" x="184.147388" xlink:href="#m641fa39f5c" y="138.022986"/>
     <use style="fill:#1f77b4;stroke:#1f77b4;" x="104.753974" xlink:href="#m641fa39f5c" y="83.622708"/>
     <use style="fill:#1f77b4;stroke:#1f77b4;" x="59.709667" xlink:href="#m641fa39f5c" y="53.77769"/>
     <use style="fill:#1f77b4;stroke:#1f77b4;" x="59.156929" xlink:href="#m641fa39f5c" y="53.578674"/>
     <use style="fill:#1f77b4;stroke:#1f77b4;" x="63.060711" xlink:href="#m641fa39f5c" y="55.634966"/>
     <use style="fill:#1f77b4;stroke:#1f77b4;" x="70.318895" xlink:href="#m641fa39f5c" y="60.362792"/>
     <use style="fill:#1f77b4;stroke:#1f77b4;" x="141.302548" xlink:href="#m641fa39f5c" y="108.628788"/>
     <use style="fill:#1f77b4;stroke:#1f77b4;" x="58.576547" xlink:href="#m641fa39f5c" y="54.083909"/>
     <use style="fill:#1f77b4;stroke:#1f77b4;" x="58.945349" xlink:href="#m641fa39f5c" y="53.568"/>
     <use style="fill:#1f77b4;stroke:#1f77b4;" x="60.064422" xlink:href="#m641fa39f5c" y="53.924389"/>
     <use style="fill:#1f77b4;stroke:#1f77b4;" x="58.539307" xlink:href="#m641fa39f5c" y="54.765894"/>
     <use style="fill:#1f77b4;stroke:#1f77b4;" x="188.307257" xlink:href="#m641fa39f5c" y="140.879037"/>
     <use style="fill:#1f77b4;stroke:#1f77b4;" x="60.451911" xlink:href="#m641fa39f5c" y="54.109176"/>
     <use style="fill:#1f77b4;stroke:#1f77b4;" x="78.451483" xlink:href="#m641fa39f5c" y="65.770145"/>
     <use style="fill:#1f77b4;stroke:#1f77b4;" x="58.655355" xlink:href="#m641fa39f5c" y="53.774521"/>
    </g>
   </g>
   <g id="patch_3">
    <path d="M 57.6 307.584 
L 57.6 41.472 
" style="fill:none;stroke:#000000;stroke-linecap:square;stroke-linejoin:miter;stroke-width:0.8;"/>
   </g>
   <g id="patch_4">
    <path d="M 414.72 307.584 
L 414.72 41.472 
" style="fill:none;stroke:#000000;stroke-linecap:square;stroke-linejoin:miter;stroke-width:0.8;"/>
   </g>
   <g id="patch_5">
    <path d="M 57.6 307.584 
L 414.72 307.584 
" style="fill:none;stroke:#000000;stroke-linecap:square;stroke-linejoin:miter;stroke-width:0.8;"/>
   </g>
   <g id="patch_6">
    <path d="M 57.6 41.472 
L 414.72 41.472 
" style="fill:none;stroke:#000000;stroke-linecap:square;stroke-linejoin:miter;stroke-width:0.8;"/>
   </g>
  </g>
 </g>
 <defs>
  <clipPath id="p6dfdc437c8">
   <rect height="266.112" width="357.12" x="57.6" y="41.472"/>
  </clipPath>
 </defs>
</svg>
