<?xml version="1.0" encoding="utf-8" standalone="no"?>
<!DOCTYPE svg PUBLIC "-//W3C//DTD SVG 1.1//EN"
  "http://www.w3.org/Graphics/SVG/1.1/DTD/svg11.dtd">
<!-- Created with matplotlib (http://matplotlib.org/) -->
<svg height="345pt" version="1.1" viewBox="0 0 460 345" width="460pt" xmlns="http://www.w3.org/2000/svg" xmlns:xlink="http://www.w3.org/1999/xlink">
 <defs>
  <style type="text/css">
*{stroke-linecap:butt;stroke-linejoin:round;}
  </style>
 </defs>
 <g id="figure_1">
  <g id="patch_1">
   <path d="M 0 345.6 
L 460.8 345.6 
L 460.8 0 
L 0 0 
z
" style="fill:#ffffff;"/>
  </g>
  <g id="axes_1">
   <g id="patch_2">
    <path d="M 57.6 307.584 
L 414.72 307.584 
L 414.72 41.472 
L 57.6 41.472 
z
" style="fill:#ffffff;"/>
   </g>
   <g id="matplotlib.axis_1">
    <g id="xtick_1">
     <g id="line2d_1">
      <path clip-path="url(#p2239c3218f)" d="M 58.575512 307.584 
L 58.575512 41.472 
" style="fill:none;stroke:#b0b0b0;stroke-linecap:square;stroke-width:0.8;"/>
     </g>
     <g id="line2d_2">
      <defs>
       <path d="M 0 0 
L 0 3.5 
" id="m2a5d2fa6d9" style="stroke:#000000;stroke-width:0.8;"/>
      </defs>
      <g>
       <use style="stroke:#000000;stroke-width:0.8;" x="58.575512" xlink:href="#m2a5d2fa6d9" y="307.584"/>
      </g>
     </g>
     <g id="text_1">
      <!-- 0 -->
      <defs>
       <path d="M 31.78125 66.40625 
Q 24.171875 66.40625 20.328125 58.90625 
Q 16.5 51.421875 16.5 36.375 
Q 16.5 21.390625 20.328125 13.890625 
Q 24.171875 6.390625 31.78125 6.390625 
Q 39.453125 6.390625 43.28125 13.890625 
Q 47.125 21.390625 47.125 36.375 
Q 47.125 51.421875 43.28125 58.90625 
Q 39.453125 66.40625 31.78125 66.40625 
M 31.78125 74.21875 
Q 44.046875 74.21875 50.515625 64.515625 
Q 56.984375 54.828125 56.984375 36.375 
Q 56.984375 17.96875 50.515625 8.265625 
Q 44.046875 -1.421875 31.78125 -1.421875 
Q 19.53125 -1.421875 13.0625 8.265625 
Q 6.59375 17.96875 6.59375 36.375 
Q 6.59375 54.828125 13.0625 64.515625 
Q 19.53125 74.21875 31.78125 74.21875 
" id="DejaVuSans-30"/>
      </defs>
      <g transform="translate(55.394262 322.182437)scale(0.1 -0.1)">
       <use xlink:href="#DejaVuSans-30"/>
      </g>
     </g>
    </g>
    <g id="xtick_2">
     <g id="line2d_3">
      <path clip-path="url(#p2239c3218f)" d="M 107.351104 307.584 
L 107.351104 41.472 
" style="fill:none;stroke:#b0b0b0;stroke-linecap:square;stroke-width:0.8;"/>
     </g>
     <g id="line2d_4">
      <g>
       <use style="stroke:#000000;stroke-width:0.8;" x="107.351104" xlink:href="#m2a5d2fa6d9" y="307.584"/>
      </g>
     </g>
     <g id="text_2">
      <!-- 50 -->
      <defs>
       <path d="M 10.796875 72.90625 
L 49.515625 72.90625 
L 49.515625 64.59375 
L 19.828125 64.59375 
L 19.828125 46.734375 
Q 21.96875 47.46875 24.109375 47.828125 
Q 26.265625 48.1875 28.421875 48.1875 
Q 40.625 48.1875 47.75 41.5 
Q 54.890625 34.8125 54.890625 23.390625 
Q 54.890625 11.625 47.5625 5.09375 
Q 40.234375 -1.421875 26.90625 -1.421875 
Q 22.3125 -1.421875 17.546875 -0.640625 
Q 12.796875 0.140625 7.71875 1.703125 
L 7.71875 11.625 
Q 12.109375 9.234375 16.796875 8.0625 
Q 21.484375 6.890625 26.703125 6.890625 
Q 35.15625 6.890625 40.078125 11.328125 
Q 45.015625 15.765625 45.015625 23.390625 
Q 45.015625 31 40.078125 35.4375 
Q 35.15625 39.890625 26.703125 39.890625 
Q 22.75 39.890625 18.8125 39.015625 
Q 14.890625 38.140625 10.796875 36.28125 
z
" id="DejaVuSans-35"/>
      </defs>
      <g transform="translate(100.988604 322.182437)scale(0.1 -0.1)">
       <use xlink:href="#DejaVuSans-35"/>
       <use x="63.623047" xlink:href="#DejaVuSans-30"/>
      </g>
     </g>
    </g>
    <g id="xtick_3">
     <g id="line2d_5">
      <path clip-path="url(#p2239c3218f)" d="M 156.126696 307.584 
L 156.126696 41.472 
" style="fill:none;stroke:#b0b0b0;stroke-linecap:square;stroke-width:0.8;"/>
     </g>
     <g id="line2d_6">
      <g>
       <use style="stroke:#000000;stroke-width:0.8;" x="156.126696" xlink:href="#m2a5d2fa6d9" y="307.584"/>
      </g>
     </g>
     <g id="text_3">
      <!-- 100 -->
      <defs>
       <path d="M 12.40625 8.296875 
L 28.515625 8.296875 
L 28.515625 63.921875 
L 10.984375 60.40625 
L 10.984375 69.390625 
L 28.421875 72.90625 
L 38.28125 72.90625 
L 38.28125 8.296875 
L 54.390625 8.296875 
L 54.390625 0 
L 12.40625 0 
z
" id="DejaVuSans-31"/>
      </defs>
      <g transform="translate(146.582946 322.182437)scale(0.1 -0.1)">
       <use xlink:href="#DejaVuSans-31"/>
       <use x="63.623047" xlink:href="#DejaVuSans-30"/>
       <use x="127.246094" xlink:href="#DejaVuSans-30"/>
      </g>
     </g>
    </g>
    <g id="xtick_4">
     <g id="line2d_7">
      <path clip-path="url(#p2239c3218f)" d="M 204.902287 307.584 
L 204.902287 41.472 
" style="fill:none;stroke:#b0b0b0;stroke-linecap:square;stroke-width:0.8;"/>
     </g>
     <g id="line2d_8">
      <g>
       <use style="stroke:#000000;stroke-width:0.8;" x="204.902287" xlink:href="#m2a5d2fa6d9" y="307.584"/>
      </g>
     </g>
     <g id="text_4">
      <!-- 150 -->
      <g transform="translate(195.358537 322.182437)scale(0.1 -0.1)">
       <use xlink:href="#DejaVuSans-31"/>
       <use x="63.623047" xlink:href="#DejaVuSans-35"/>
       <use x="127.246094" xlink:href="#DejaVuSans-30"/>
      </g>
     </g>
    </g>
    <g id="xtick_5">
     <g id="line2d_9">
      <path clip-path="url(#p2239c3218f)" d="M 253.677879 307.584 
L 253.677879 41.472 
" style="fill:none;stroke:#b0b0b0;stroke-linecap:square;stroke-width:0.8;"/>
     </g>
     <g id="line2d_10">
      <g>
       <use style="stroke:#000000;stroke-width:0.8;" x="253.677879" xlink:href="#m2a5d2fa6d9" y="307.584"/>
      </g>
     </g>
     <g id="text_5">
      <!-- 200 -->
      <defs>
       <path d="M 19.1875 8.296875 
L 53.609375 8.296875 
L 53.609375 0 
L 7.328125 0 
L 7.328125 8.296875 
Q 12.9375 14.109375 22.625 23.890625 
Q 32.328125 33.6875 34.8125 36.53125 
Q 39.546875 41.84375 41.421875 45.53125 
Q 43.3125 49.21875 43.3125 52.78125 
Q 43.3125 58.59375 39.234375 62.25 
Q 35.15625 65.921875 28.609375 65.921875 
Q 23.96875 65.921875 18.8125 64.3125 
Q 13.671875 62.703125 7.8125 59.421875 
L 7.8125 69.390625 
Q 13.765625 71.78125 18.9375 73 
Q 24.125 74.21875 28.421875 74.21875 
Q 39.75 74.21875 46.484375 68.546875 
Q 53.21875 62.890625 53.21875 53.421875 
Q 53.21875 48.921875 51.53125 44.890625 
Q 49.859375 40.875 45.40625 35.40625 
Q 44.1875 33.984375 37.640625 27.21875 
Q 31.109375 20.453125 19.1875 8.296875 
" id="DejaVuSans-32"/>
      </defs>
      <g transform="translate(244.134129 322.182437)scale(0.1 -0.1)">
       <use xlink:href="#DejaVuSans-32"/>
       <use x="63.623047" xlink:href="#DejaVuSans-30"/>
       <use x="127.246094" xlink:href="#DejaVuSans-30"/>
      </g>
     </g>
    </g>
    <g id="xtick_6">
     <g id="line2d_11">
      <path clip-path="url(#p2239c3218f)" d="M 302.453471 307.584 
L 302.453471 41.472 
" style="fill:none;stroke:#b0b0b0;stroke-linecap:square;stroke-width:0.8;"/>
     </g>
     <g id="line2d_12">
      <g>
       <use style="stroke:#000000;stroke-width:0.8;" x="302.453471" xlink:href="#m2a5d2fa6d9" y="307.584"/>
      </g>
     </g>
     <g id="text_6">
      <!-- 250 -->
      <g transform="translate(292.909721 322.182437)scale(0.1 -0.1)">
       <use xlink:href="#DejaVuSans-32"/>
       <use x="63.623047" xlink:href="#DejaVuSans-35"/>
       <use x="127.246094" xlink:href="#DejaVuSans-30"/>
      </g>
     </g>
    </g>
    <g id="xtick_7">
     <g id="line2d_13">
      <path clip-path="url(#p2239c3218f)" d="M 351.229063 307.584 
L 351.229063 41.472 
" style="fill:none;stroke:#b0b0b0;stroke-linecap:square;stroke-width:0.8;"/>
     </g>
     <g id="line2d_14">
      <g>
       <use style="stroke:#000000;stroke-width:0.8;" x="351.229063" xlink:href="#m2a5d2fa6d9" y="307.584"/>
      </g>
     </g>
     <g id="text_7">
      <!-- 300 -->
      <defs>
       <path d="M 40.578125 39.3125 
Q 47.65625 37.796875 51.625 33 
Q 55.609375 28.21875 55.609375 21.1875 
Q 55.609375 10.40625 48.1875 4.484375 
Q 40.765625 -1.421875 27.09375 -1.421875 
Q 22.515625 -1.421875 17.65625 -0.515625 
Q 12.796875 0.390625 7.625 2.203125 
L 7.625 11.71875 
Q 11.71875 9.328125 16.59375 8.109375 
Q 21.484375 6.890625 26.8125 6.890625 
Q 36.078125 6.890625 40.9375 10.546875 
Q 45.796875 14.203125 45.796875 21.1875 
Q 45.796875 27.640625 41.28125 31.265625 
Q 36.765625 34.90625 28.71875 34.90625 
L 20.21875 34.90625 
L 20.21875 43.015625 
L 29.109375 43.015625 
Q 36.375 43.015625 40.234375 45.921875 
Q 44.09375 48.828125 44.09375 54.296875 
Q 44.09375 59.90625 40.109375 62.90625 
Q 36.140625 65.921875 28.71875 65.921875 
Q 24.65625 65.921875 20.015625 65.03125 
Q 15.375 64.15625 9.8125 62.3125 
L 9.8125 71.09375 
Q 15.4375 72.65625 20.34375 73.4375 
Q 25.25 74.21875 29.59375 74.21875 
Q 40.828125 74.21875 47.359375 69.109375 
Q 53.90625 64.015625 53.90625 55.328125 
Q 53.90625 49.265625 50.4375 45.09375 
Q 46.96875 40.921875 40.578125 39.3125 
" id="DejaVuSans-33"/>
      </defs>
      <g transform="translate(341.685313 322.182437)scale(0.1 -0.1)">
       <use xlink:href="#DejaVuSans-33"/>
       <use x="63.623047" xlink:href="#DejaVuSans-30"/>
       <use x="127.246094" xlink:href="#DejaVuSans-30"/>
      </g>
     </g>
    </g>
    <g id="xtick_8">
     <g id="line2d_15">
      <path clip-path="url(#p2239c3218f)" d="M 400.004655 307.584 
L 400.004655 41.472 
" style="fill:none;stroke:#b0b0b0;stroke-linecap:square;stroke-width:0.8;"/>
     </g>
     <g id="line2d_16">
      <g>
       <use style="stroke:#000000;stroke-width:0.8;" x="400.004655" xlink:href="#m2a5d2fa6d9" y="307.584"/>
      </g>
     </g>
     <g id="text_8">
      <!-- 350 -->
      <g transform="translate(390.460905 322.182437)scale(0.1 -0.1)">
       <use xlink:href="#DejaVuSans-33"/>
       <use x="63.623047" xlink:href="#DejaVuSans-35"/>
       <use x="127.246094" xlink:href="#DejaVuSans-30"/>
      </g>
     </g>
    </g>
    <g id="text_9">
     <!-- $\gamma_i$ -->
     <defs>
      <path d="M 23.296875 46.09375 
L 28.71875 12.3125 
L 54 54.6875 
L 63.53125 54.6875 
L 30.8125 0 
L 26.765625 -20.796875 
L 17.78125 -20.796875 
L 21.828125 0 
L 15.4375 40.828125 
Q 14.453125 46.96875 9.8125 46.96875 
L 7.421875 46.96875 
L 8.890625 54.6875 
L 12.3125 54.6875 
Q 21.921875 54.6875 23.296875 46.09375 
" id="DejaVuSans-Oblique-3b3"/>
      <path d="M 18.3125 75.984375 
L 27.296875 75.984375 
L 25.09375 64.59375 
L 16.109375 64.59375 
z
M 14.203125 54.6875 
L 23.1875 54.6875 
L 12.5 0 
L 3.515625 0 
z
" id="DejaVuSans-Oblique-69"/>
     </defs>
     <g transform="translate(232.06 335.84025)scale(0.1 -0.1)">
      <use transform="translate(0 0.3125)" xlink:href="#DejaVuSans-Oblique-3b3"/>
      <use transform="translate(59.179688 -16.09375)scale(0.7)" xlink:href="#DejaVuSans-Oblique-69"/>
     </g>
    </g>
   </g>
   <g id="matplotlib.axis_2">
    <g id="ytick_1">
     <g id="line2d_17">
      <path clip-path="url(#p2239c3218f)" d="M 57.6 278.7849 
L 414.72 278.7849 
" style="fill:none;stroke:#b0b0b0;stroke-linecap:square;stroke-width:0.8;"/>
     </g>
     <g id="line2d_18">
      <defs>
       <path d="M 0 0 
L -3.5 0 
" id="mfa8b0a7930" style="stroke:#000000;stroke-width:0.8;"/>
      </defs>
      <g>
       <use style="stroke:#000000;stroke-width:0.8;" x="57.6" xlink:href="#mfa8b0a7930" y="278.7849"/>
      </g>
     </g>
     <g id="text_10">
      <!-- ${10^{-146}}$ -->
      <defs>
       <path d="M 10.59375 35.5 
L 73.1875 35.5 
L 73.1875 27.203125 
L 10.59375 27.203125 
z
" id="DejaVuSans-2212"/>
       <path d="M 37.796875 64.3125 
L 12.890625 25.390625 
L 37.796875 25.390625 
z
M 35.203125 72.90625 
L 47.609375 72.90625 
L 47.609375 25.390625 
L 58.015625 25.390625 
L 58.015625 17.1875 
L 47.609375 17.1875 
L 47.609375 0 
L 37.796875 0 
L 37.796875 17.1875 
L 4.890625 17.1875 
L 4.890625 26.703125 
z
" id="DejaVuSans-34"/>
       <path d="M 33.015625 40.375 
Q 26.375 40.375 22.484375 35.828125 
Q 18.609375 31.296875 18.609375 23.390625 
Q 18.609375 15.53125 22.484375 10.953125 
Q 26.375 6.390625 33.015625 6.390625 
Q 39.65625 6.390625 43.53125 10.953125 
Q 47.40625 15.53125 47.40625 23.390625 
Q 47.40625 31.296875 43.53125 35.828125 
Q 39.65625 40.375 33.015625 40.375 
M 52.59375 71.296875 
L 52.59375 62.3125 
Q 48.875 64.0625 45.09375 64.984375 
Q 41.3125 65.921875 37.59375 65.921875 
Q 27.828125 65.921875 22.671875 59.328125 
Q 17.53125 52.734375 16.796875 39.40625 
Q 19.671875 43.65625 24.015625 45.921875 
Q 28.375 48.1875 33.59375 48.1875 
Q 44.578125 48.1875 50.953125 41.515625 
Q 57.328125 34.859375 57.328125 23.390625 
Q 57.328125 12.15625 50.6875 5.359375 
Q 44.046875 -1.421875 33.015625 -1.421875 
Q 20.359375 -1.421875 13.671875 8.265625 
Q 6.984375 17.96875 6.984375 36.375 
Q 6.984375 53.65625 15.1875 63.9375 
Q 23.390625 74.21875 37.203125 74.21875 
Q 40.921875 74.21875 44.703125 73.484375 
Q 48.484375 72.75 52.59375 71.296875 
" id="DejaVuSans-36"/>
      </defs>
      <g transform="translate(18.2 282.584118)scale(0.1 -0.1)">
       <use transform="translate(0 0.765625)" xlink:href="#DejaVuSans-31"/>
       <use transform="translate(63.623047 0.765625)" xlink:href="#DejaVuSans-30"/>
       <use transform="translate(128.203125 39.046875)scale(0.7)" xlink:href="#DejaVuSans-2212"/>
       <use transform="translate(186.855469 39.046875)scale(0.7)" xlink:href="#DejaVuSans-31"/>
       <use transform="translate(231.391602 39.046875)scale(0.7)" xlink:href="#DejaVuSans-34"/>
       <use transform="translate(275.927734 39.046875)scale(0.7)" xlink:href="#DejaVuSans-36"/>
      </g>
     </g>
    </g>
    <g id="ytick_2">
     <g id="line2d_19">
      <path clip-path="url(#p2239c3218f)" d="M 57.6 249.289621 
L 414.72 249.289621 
" style="fill:none;stroke:#b0b0b0;stroke-linecap:square;stroke-width:0.8;"/>
     </g>
     <g id="line2d_20">
      <g>
       <use style="stroke:#000000;stroke-width:0.8;" x="57.6" xlink:href="#mfa8b0a7930" y="249.289621"/>
      </g>
     </g>
     <g id="text_11">
      <!-- ${10^{-127}}$ -->
      <defs>
       <path d="M 8.203125 72.90625 
L 55.078125 72.90625 
L 55.078125 68.703125 
L 28.609375 0 
L 18.3125 0 
L 43.21875 64.59375 
L 8.203125 64.59375 
z
" id="DejaVuSans-37"/>
      </defs>
      <g transform="translate(18.2 253.088839)scale(0.1 -0.1)">
       <use transform="translate(0 0.765625)" xlink:href="#DejaVuSans-31"/>
       <use transform="translate(63.623047 0.765625)" xlink:href="#DejaVuSans-30"/>
       <use transform="translate(128.203125 39.046875)scale(0.7)" xlink:href="#DejaVuSans-2212"/>
       <use transform="translate(186.855469 39.046875)scale(0.7)" xlink:href="#DejaVuSans-31"/>
       <use transform="translate(231.391602 39.046875)scale(0.7)" xlink:href="#DejaVuSans-32"/>
       <use transform="translate(275.927734 39.046875)scale(0.7)" xlink:href="#DejaVuSans-37"/>
      </g>
     </g>
    </g>
    <g id="ytick_3">
     <g id="line2d_21">
      <path clip-path="url(#p2239c3218f)" d="M 57.6 219.794342 
L 414.72 219.794342 
" style="fill:none;stroke:#b0b0b0;stroke-linecap:square;stroke-width:0.8;"/>
     </g>
     <g id="line2d_22">
      <g>
       <use style="stroke:#000000;stroke-width:0.8;" x="57.6" xlink:href="#mfa8b0a7930" y="219.794342"/>
      </g>
     </g>
     <g id="text_12">
      <!-- ${10^{-108}}$ -->
      <defs>
       <path d="M 31.78125 34.625 
Q 24.75 34.625 20.71875 30.859375 
Q 16.703125 27.09375 16.703125 20.515625 
Q 16.703125 13.921875 20.71875 10.15625 
Q 24.75 6.390625 31.78125 6.390625 
Q 38.8125 6.390625 42.859375 10.171875 
Q 46.921875 13.96875 46.921875 20.515625 
Q 46.921875 27.09375 42.890625 30.859375 
Q 38.875 34.625 31.78125 34.625 
M 21.921875 38.8125 
Q 15.578125 40.375 12.03125 44.71875 
Q 8.5 49.078125 8.5 55.328125 
Q 8.5 64.0625 14.71875 69.140625 
Q 20.953125 74.21875 31.78125 74.21875 
Q 42.671875 74.21875 48.875 69.140625 
Q 55.078125 64.0625 55.078125 55.328125 
Q 55.078125 49.078125 51.53125 44.71875 
Q 48 40.375 41.703125 38.8125 
Q 48.828125 37.15625 52.796875 32.3125 
Q 56.78125 27.484375 56.78125 20.515625 
Q 56.78125 9.90625 50.3125 4.234375 
Q 43.84375 -1.421875 31.78125 -1.421875 
Q 19.734375 -1.421875 13.25 4.234375 
Q 6.78125 9.90625 6.78125 20.515625 
Q 6.78125 27.484375 10.78125 32.3125 
Q 14.796875 37.15625 21.921875 38.8125 
M 18.3125 54.390625 
Q 18.3125 48.734375 21.84375 45.5625 
Q 25.390625 42.390625 31.78125 42.390625 
Q 38.140625 42.390625 41.71875 45.5625 
Q 45.3125 48.734375 45.3125 54.390625 
Q 45.3125 60.0625 41.71875 63.234375 
Q 38.140625 66.40625 31.78125 66.40625 
Q 25.390625 66.40625 21.84375 63.234375 
Q 18.3125 60.0625 18.3125 54.390625 
" id="DejaVuSans-38"/>
      </defs>
      <g transform="translate(18.2 223.59356)scale(0.1 -0.1)">
       <use transform="translate(0 0.765625)" xlink:href="#DejaVuSans-31"/>
       <use transform="translate(63.623047 0.765625)" xlink:href="#DejaVuSans-30"/>
       <use transform="translate(128.203125 39.046875)scale(0.7)" xlink:href="#DejaVuSans-2212"/>
       <use transform="translate(186.855469 39.046875)scale(0.7)" xlink:href="#DejaVuSans-31"/>
       <use transform="translate(231.391602 39.046875)scale(0.7)" xlink:href="#DejaVuSans-30"/>
       <use transform="translate(275.927734 39.046875)scale(0.7)" xlink:href="#DejaVuSans-38"/>
      </g>
     </g>
    </g>
    <g id="ytick_4">
     <g id="line2d_23">
      <path clip-path="url(#p2239c3218f)" d="M 57.6 190.299063 
L 414.72 190.299063 
" style="fill:none;stroke:#b0b0b0;stroke-linecap:square;stroke-width:0.8;"/>
     </g>
     <g id="line2d_24">
      <g>
       <use style="stroke:#000000;stroke-width:0.8;" x="57.6" xlink:href="#mfa8b0a7930" y="190.299063"/>
      </g>
     </g>
     <g id="text_13">
      <!-- ${10^{-89}}$ -->
      <defs>
       <path d="M 10.984375 1.515625 
L 10.984375 10.5 
Q 14.703125 8.734375 18.5 7.8125 
Q 22.3125 6.890625 25.984375 6.890625 
Q 35.75 6.890625 40.890625 13.453125 
Q 46.046875 20.015625 46.78125 33.40625 
Q 43.953125 29.203125 39.59375 26.953125 
Q 35.25 24.703125 29.984375 24.703125 
Q 19.046875 24.703125 12.671875 31.3125 
Q 6.296875 37.9375 6.296875 49.421875 
Q 6.296875 60.640625 12.9375 67.421875 
Q 19.578125 74.21875 30.609375 74.21875 
Q 43.265625 74.21875 49.921875 64.515625 
Q 56.59375 54.828125 56.59375 36.375 
Q 56.59375 19.140625 48.40625 8.859375 
Q 40.234375 -1.421875 26.421875 -1.421875 
Q 22.703125 -1.421875 18.890625 -0.6875 
Q 15.09375 0.046875 10.984375 1.515625 
M 30.609375 32.421875 
Q 37.25 32.421875 41.125 36.953125 
Q 45.015625 41.5 45.015625 49.421875 
Q 45.015625 57.28125 41.125 61.84375 
Q 37.25 66.40625 30.609375 66.40625 
Q 23.96875 66.40625 20.09375 61.84375 
Q 16.21875 57.28125 16.21875 49.421875 
Q 16.21875 41.5 20.09375 36.953125 
Q 23.96875 32.421875 30.609375 32.421875 
" id="DejaVuSans-39"/>
      </defs>
      <g transform="translate(22.7 194.098282)scale(0.1 -0.1)">
       <use transform="translate(0 0.765625)" xlink:href="#DejaVuSans-31"/>
       <use transform="translate(63.623047 0.765625)" xlink:href="#DejaVuSans-30"/>
       <use transform="translate(128.203125 39.046875)scale(0.7)" xlink:href="#DejaVuSans-2212"/>
       <use transform="translate(186.855469 39.046875)scale(0.7)" xlink:href="#DejaVuSans-38"/>
       <use transform="translate(231.391602 39.046875)scale(0.7)" xlink:href="#DejaVuSans-39"/>
      </g>
     </g>
    </g>
    <g id="ytick_5">
     <g id="line2d_25">
      <path clip-path="url(#p2239c3218f)" d="M 57.6 160.803784 
L 414.72 160.803784 
" style="fill:none;stroke:#b0b0b0;stroke-linecap:square;stroke-width:0.8;"/>
     </g>
     <g id="line2d_26">
      <g>
       <use style="stroke:#000000;stroke-width:0.8;" x="57.6" xlink:href="#mfa8b0a7930" y="160.803784"/>
      </g>
     </g>
     <g id="text_14">
      <!-- ${10^{-70}}$ -->
      <g transform="translate(22.7 164.603003)scale(0.1 -0.1)">
       <use transform="translate(0 0.765625)" xlink:href="#DejaVuSans-31"/>
       <use transform="translate(63.623047 0.765625)" xlink:href="#DejaVuSans-30"/>
       <use transform="translate(128.203125 39.046875)scale(0.7)" xlink:href="#DejaVuSans-2212"/>
       <use transform="translate(186.855469 39.046875)scale(0.7)" xlink:href="#DejaVuSans-37"/>
       <use transform="translate(231.391602 39.046875)scale(0.7)" xlink:href="#DejaVuSans-30"/>
      </g>
     </g>
    </g>
    <g id="ytick_6">
     <g id="line2d_27">
      <path clip-path="url(#p2239c3218f)" d="M 57.6 131.308505 
L 414.72 131.308505 
" style="fill:none;stroke:#b0b0b0;stroke-linecap:square;stroke-width:0.8;"/>
     </g>
     <g id="line2d_28">
      <g>
       <use style="stroke:#000000;stroke-width:0.8;" x="57.6" xlink:href="#mfa8b0a7930" y="131.308505"/>
      </g>
     </g>
     <g id="text_15">
      <!-- ${10^{-51}}$ -->
      <g transform="translate(22.7 135.107724)scale(0.1 -0.1)">
       <use transform="translate(0 0.684375)" xlink:href="#DejaVuSans-31"/>
       <use transform="translate(63.623047 0.684375)" xlink:href="#DejaVuSans-30"/>
       <use transform="translate(128.203125 38.965625)scale(0.7)" xlink:href="#DejaVuSans-2212"/>
       <use transform="translate(186.855469 38.965625)scale(0.7)" xlink:href="#DejaVuSans-35"/>
       <use transform="translate(231.391602 38.965625)scale(0.7)" xlink:href="#DejaVuSans-31"/>
      </g>
     </g>
    </g>
    <g id="ytick_7">
     <g id="line2d_29">
      <path clip-path="url(#p2239c3218f)" d="M 57.6 101.813226 
L 414.72 101.813226 
" style="fill:none;stroke:#b0b0b0;stroke-linecap:square;stroke-width:0.8;"/>
     </g>
     <g id="line2d_30">
      <g>
       <use style="stroke:#000000;stroke-width:0.8;" x="57.6" xlink:href="#mfa8b0a7930" y="101.813226"/>
      </g>
     </g>
     <g id="text_16">
      <!-- ${10^{-32}}$ -->
      <g transform="translate(22.7 105.612445)scale(0.1 -0.1)">
       <use transform="translate(0 0.765625)" xlink:href="#DejaVuSans-31"/>
       <use transform="translate(63.623047 0.765625)" xlink:href="#DejaVuSans-30"/>
       <use transform="translate(128.203125 39.046875)scale(0.7)" xlink:href="#DejaVuSans-2212"/>
       <use transform="translate(186.855469 39.046875)scale(0.7)" xlink:href="#DejaVuSans-33"/>
       <use transform="translate(231.391602 39.046875)scale(0.7)" xlink:href="#DejaVuSans-32"/>
      </g>
     </g>
    </g>
    <g id="ytick_8">
     <g id="line2d_31">
      <path clip-path="url(#p2239c3218f)" d="M 57.6 72.317947 
L 414.72 72.317947 
" style="fill:none;stroke:#b0b0b0;stroke-linecap:square;stroke-width:0.8;"/>
     </g>
     <g id="line2d_32">
      <g>
       <use style="stroke:#000000;stroke-width:0.8;" x="57.6" xlink:href="#mfa8b0a7930" y="72.317947"/>
      </g>
     </g>
     <g id="text_17">
      <!-- ${10^{-13}}$ -->
      <g transform="translate(22.7 76.117166)scale(0.1 -0.1)">
       <use transform="translate(0 0.765625)" xlink:href="#DejaVuSans-31"/>
       <use transform="translate(63.623047 0.765625)" xlink:href="#DejaVuSans-30"/>
       <use transform="translate(128.203125 39.046875)scale(0.7)" xlink:href="#DejaVuSans-2212"/>
       <use transform="translate(186.855469 39.046875)scale(0.7)" xlink:href="#DejaVuSans-31"/>
       <use transform="translate(231.391602 39.046875)scale(0.7)" xlink:href="#DejaVuSans-33"/>
      </g>
     </g>
    </g>
    <g id="ytick_9">
     <g id="line2d_33">
      <path clip-path="url(#p2239c3218f)" d="M 57.6 42.822668 
L 414.72 42.822668 
" style="fill:none;stroke:#b0b0b0;stroke-linecap:square;stroke-width:0.8;"/>
     </g>
     <g id="line2d_34">
      <g>
       <use style="stroke:#000000;stroke-width:0.8;" x="57.6" xlink:href="#mfa8b0a7930" y="42.822668"/>
      </g>
     </g>
     <g id="text_18">
      <!-- ${10^{6}}$ -->
      <g transform="translate(33 46.621887)scale(0.1 -0.1)">
       <use transform="translate(0 0.765625)" xlink:href="#DejaVuSans-31"/>
       <use transform="translate(63.623047 0.765625)" xlink:href="#DejaVuSans-30"/>
       <use transform="translate(128.203125 39.046875)scale(0.7)" xlink:href="#DejaVuSans-36"/>
      </g>
     </g>
    </g>
    <g id="text_19">
     <!-- $\omega_i$ -->
     <defs>
      <path d="M 21.390625 -1.421875 
Q 1.125 -1.421875 6.78125 27.59375 
Q 8.984375 39.0625 19.625 54.6875 
L 29.296875 54.6875 
Q 19.234375 39.0625 17 27.34375 
Q 12.796875 6.203125 23.734375 6.203125 
Q 33.84375 6.203125 38.71875 32.46875 
L 47.015625 32.46875 
Q 41.703125 6.0625 51.8125 6.203125 
Q 62.703125 6.296875 66.796875 27.34375 
Q 69.046875 39.0625 65.140625 54.6875 
L 74.8125 54.6875 
Q 79.296875 39.0625 77.09375 27.59375 
Q 71.53125 -1.46875 51.21875 -1.421875 
Q 37.9375 -1.375 39.109375 13.1875 
Q 34.28125 -1.421875 21.390625 -1.421875 
" id="DejaVuSans-Oblique-3c9"/>
     </defs>
     <g transform="translate(12.120313 179.828)rotate(-90)scale(0.1 -0.1)">
      <use transform="translate(0 0.3125)" xlink:href="#DejaVuSans-Oblique-3c9"/>
      <use transform="translate(83.740234 -16.09375)scale(0.7)" xlink:href="#DejaVuSans-Oblique-69"/>
     </g>
    </g>
   </g>
   <g id="line2d_35">
    <defs>
     <path d="M 0 3 
C 0.795609 3 1.55874 2.683901 2.12132 2.12132 
C 2.683901 1.55874 3 0.795609 3 0 
C 3 -0.795609 2.683901 -1.55874 2.12132 -2.12132 
C 1.55874 -2.683901 0.795609 -3 0 -3 
C -0.795609 -3 -1.55874 -2.683901 -2.12132 -2.12132 
C -2.683901 -1.55874 -3 -0.795609 -3 0 
C -3 0.795609 -2.683901 1.55874 -2.12132 2.12132 
C -1.55874 2.683901 -0.795609 3 0 3 
z
" id="m6fcf24c85f" style="stroke:#1f77b4;"/>
    </defs>
    <g clip-path="url(#p2239c3218f)">
     <use style="fill:#1f77b4;stroke:#1f77b4;" x="343.351331" xlink:href="#m6fcf24c85f" y="247.347012"/>
     <use style="fill:#1f77b4;stroke:#1f77b4;" x="379.446831" xlink:href="#m6fcf24c85f" y="272.09536"/>
     <use style="fill:#1f77b4;stroke:#1f77b4;" x="333.194404" xlink:href="#m6fcf24c85f" y="240.373376"/>
     <use style="fill:#1f77b4;stroke:#1f77b4;" x="354.280688" xlink:href="#m6fcf24c85f" y="254.847274"/>
     <use style="fill:#1f77b4;stroke:#1f77b4;" x="77.176708" xlink:href="#m6fcf24c85f" y="64.76931"/>
     <use style="fill:#1f77b4;stroke:#1f77b4;" x="249.365264" xlink:href="#m6fcf24c85f" y="182.756305"/>
     <use style="fill:#1f77b4;stroke:#1f77b4;" x="366.195229" xlink:href="#m6fcf24c85f" y="263.017821"/>
     <use style="fill:#1f77b4;stroke:#1f77b4;" x="183.091222" xlink:href="#m6fcf24c85f" y="137.198309"/>
     <use style="fill:#1f77b4;stroke:#1f77b4;" x="275.590315" xlink:href="#m6fcf24c85f" y="200.787374"/>
     <use style="fill:#1f77b4;stroke:#1f77b4;" x="129.835549" xlink:href="#m6fcf24c85f" y="100.645152"/>
     <use style="fill:#1f77b4;stroke:#1f77b4;" x="323.668725" xlink:href="#m6fcf24c85f" y="233.830777"/>
     <use style="fill:#1f77b4;stroke:#1f77b4;" x="314.674449" xlink:href="#m6fcf24c85f" y="227.65148"/>
     <use style="fill:#1f77b4;stroke:#1f77b4;" x="113.565509" xlink:href="#m6fcf24c85f" y="89.505922"/>
     <use style="fill:#1f77b4;stroke:#1f77b4;" x="81.513003" xlink:href="#m6fcf24c85f" y="67.685518"/>
     <use style="fill:#1f77b4;stroke:#1f77b4;" x="99.715734" xlink:href="#m6fcf24c85f" y="80.046892"/>
     <use style="fill:#1f77b4;stroke:#1f77b4;" x="111.095103" xlink:href="#m6fcf24c85f" y="87.816753"/>
     <use style="fill:#1f77b4;stroke:#1f77b4;" x="67.848769" xlink:href="#m6fcf24c85f" y="58.594266"/>
     <use style="fill:#1f77b4;stroke:#1f77b4;" x="71.606993" xlink:href="#m6fcf24c85f" y="61.303118"/>
     <use style="fill:#1f77b4;stroke:#1f77b4;" x="196.368653" xlink:href="#m6fcf24c85f" y="146.322353"/>
     <use style="fill:#1f77b4;stroke:#1f77b4;" x="73.412347" xlink:href="#m6fcf24c85f" y="62.30057"/>
     <use style="fill:#1f77b4;stroke:#1f77b4;" x="166.892723" xlink:href="#m6fcf24c85f" y="126.07109"/>
     <use style="fill:#1f77b4;stroke:#1f77b4;" x="104.07654" xlink:href="#m6fcf24c85f" y="83.02204"/>
     <use style="fill:#1f77b4;stroke:#1f77b4;" x="83.072469" xlink:href="#m6fcf24c85f" y="68.738741"/>
     <use style="fill:#1f77b4;stroke:#1f77b4;" x="97.628339" xlink:href="#m6fcf24c85f" y="78.624084"/>
     <use style="fill:#1f77b4;stroke:#1f77b4;" x="226.327648" xlink:href="#m6fcf24c85f" y="166.916656"/>
     <use style="fill:#1f77b4;stroke:#1f77b4;" x="80.010306" xlink:href="#m6fcf24c85f" y="66.672472"/>
     <use style="fill:#1f77b4;stroke:#1f77b4;" x="86.362237" xlink:href="#m6fcf24c85f" y="70.965503"/>
     <use style="fill:#1f77b4;stroke:#1f77b4;" x="84.688792" xlink:href="#m6fcf24c85f" y="69.832043"/>
     <use style="fill:#1f77b4;stroke:#1f77b4;" x="268.685099" xlink:href="#m6fcf24c85f" y="196.039883"/>
     <use style="fill:#1f77b4;stroke:#1f77b4;" x="159.380887" xlink:href="#m6fcf24c85f" y="120.913041"/>
     <use style="fill:#1f77b4;stroke:#1f77b4;" x="215.786925" xlink:href="#m6fcf24c85f" y="159.669995"/>
     <use style="fill:#1f77b4;stroke:#1f77b4;" x="243.338316" xlink:href="#m6fcf24c85f" y="178.612342"/>
     <use style="fill:#1f77b4;stroke:#1f77b4;" x="394.71224" xlink:href="#m6fcf24c85f" y="282.532438"/>
     <use style="fill:#1f77b4;stroke:#1f77b4;" x="116.102991" xlink:href="#m6fcf24c85f" y="91.241656"/>
     <use style="fill:#1f77b4;stroke:#1f77b4;" x="298.001474" xlink:href="#m6fcf24c85f" y="216.193416"/>
     <use style="fill:#1f77b4;stroke:#1f77b4;" x="231.829482" xlink:href="#m6fcf24c85f" y="170.699345"/>
     <use style="fill:#1f77b4;stroke:#1f77b4;" x="65.581668" xlink:href="#m6fcf24c85f" y="57.328568"/>
     <use style="fill:#1f77b4;stroke:#1f77b4;" x="91.729461" xlink:href="#m6fcf24c85f" y="74.609013"/>
     <use style="fill:#1f77b4;stroke:#1f77b4;" x="70.743301" xlink:href="#m6fcf24c85f" y="60.564307"/>
     <use style="fill:#1f77b4;stroke:#1f77b4;" x="88.093183" xlink:href="#m6fcf24c85f" y="72.139304"/>
     <use style="fill:#1f77b4;stroke:#1f77b4;" x="282.760754" xlink:href="#m6fcf24c85f" y="205.716943"/>
     <use style="fill:#1f77b4;stroke:#1f77b4;" x="205.816493" xlink:href="#m6fcf24c85f" y="152.816119"/>
     <use style="fill:#1f77b4;stroke:#1f77b4;" x="306.137617" xlink:href="#m6fcf24c85f" y="221.785231"/>
     <use style="fill:#1f77b4;stroke:#1f77b4;" x="124.128747" xlink:href="#m6fcf24c85f" y="96.735569"/>
     <use style="fill:#1f77b4;stroke:#1f77b4;" x="201.029902" xlink:href="#m6fcf24c85f" y="149.52604"/>
     <use style="fill:#1f77b4;stroke:#1f77b4;" x="413.744488" xlink:href="#m6fcf24c85f" y="295.488"/>
     <use style="fill:#1f77b4;stroke:#1f77b4;" x="255.589339" xlink:href="#m6fcf24c85f" y="187.035807"/>
     <use style="fill:#1f77b4;stroke:#1f77b4;" x="148.789045" xlink:href="#m6fcf24c85f" y="113.642967"/>
     <use style="fill:#1f77b4;stroke:#1f77b4;" x="59.858467" xlink:href="#m6fcf24c85f" y="53.760306"/>
     <use style="fill:#1f77b4;stroke:#1f77b4;" x="60.575203" xlink:href="#m6fcf24c85f" y="54.149401"/>
     <use style="fill:#1f77b4;stroke:#1f77b4;" x="155.762458" xlink:href="#m6fcf24c85f" y="118.428995"/>
     <use style="fill:#1f77b4;stroke:#1f77b4;" x="142.1531" xlink:href="#m6fcf24c85f" y="109.09026"/>
     <use style="fill:#1f77b4;stroke:#1f77b4;" x="135.8397" xlink:href="#m6fcf24c85f" y="104.76068"/>
     <use style="fill:#1f77b4;stroke:#1f77b4;" x="152.232565" xlink:href="#m6fcf24c85f" y="116.00613"/>
     <use style="fill:#1f77b4;stroke:#1f77b4;" x="61.86283" xlink:href="#m6fcf24c85f" y="54.854206"/>
     <use style="fill:#1f77b4;stroke:#1f77b4;" x="210.733611" xlink:href="#m6fcf24c85f" y="156.196143"/>
     <use style="fill:#1f77b4;stroke:#1f77b4;" x="106.35155" xlink:href="#m6fcf24c85f" y="84.575436"/>
     <use style="fill:#1f77b4;stroke:#1f77b4;" x="93.635879" xlink:href="#m6fcf24c85f" y="75.905581"/>
     <use style="fill:#1f77b4;stroke:#1f77b4;" x="89.882085" xlink:href="#m6fcf24c85f" y="73.353705"/>
     <use style="fill:#1f77b4;stroke:#1f77b4;" x="220.982654" xlink:href="#m6fcf24c85f" y="163.241936"/>
     <use style="fill:#1f77b4;stroke:#1f77b4;" x="78.564596" xlink:href="#m6fcf24c85f" y="65.700027"/>
     <use style="fill:#1f77b4;stroke:#1f77b4;" x="138.956948" xlink:href="#m6fcf24c85f" y="106.898171"/>
     <use style="fill:#1f77b4;stroke:#1f77b4;" x="191.827987" xlink:href="#m6fcf24c85f" y="143.201798"/>
     <use style="fill:#1f77b4;stroke:#1f77b4;" x="62.987909" xlink:href="#m6fcf24c85f" y="55.495815"/>
     <use style="fill:#1f77b4;stroke:#1f77b4;" x="60.967725" xlink:href="#m6fcf24c85f" y="54.38532"/>
     <use style="fill:#1f77b4;stroke:#1f77b4;" x="59.551024" xlink:href="#m6fcf24c85f" y="53.636337"/>
     <use style="fill:#1f77b4;stroke:#1f77b4;" x="63.62702" xlink:href="#m6fcf24c85f" y="55.891895"/>
     <use style="fill:#1f77b4;stroke:#1f77b4;" x="237.496572" xlink:href="#m6fcf24c85f" y="174.595762"/>
     <use style="fill:#1f77b4;stroke:#1f77b4;" x="69.76317" xlink:href="#m6fcf24c85f" y="59.858894"/>
     <use style="fill:#1f77b4;stroke:#1f77b4;" x="60.202846" xlink:href="#m6fcf24c85f" y="53.933492"/>
     <use style="fill:#1f77b4;stroke:#1f77b4;" x="64.300857" xlink:href="#m6fcf24c85f" y="56.334411"/>
     <use style="fill:#1f77b4;stroke:#1f77b4;" x="126.945674" xlink:href="#m6fcf24c85f" y="98.66509"/>
     <use style="fill:#1f77b4;stroke:#1f77b4;" x="163.090157" xlink:href="#m6fcf24c85f" y="123.459846"/>
     <use style="fill:#1f77b4;stroke:#1f77b4;" x="66.207198" xlink:href="#m6fcf24c85f" y="57.637649"/>
     <use style="fill:#1f77b4;stroke:#1f77b4;" x="68.784809" xlink:href="#m6fcf24c85f" y="59.202888"/>
     <use style="fill:#1f77b4;stroke:#1f77b4;" x="62.397121" xlink:href="#m6fcf24c85f" y="55.147859"/>
     <use style="fill:#1f77b4;stroke:#1f77b4;" x="74.587387" xlink:href="#m6fcf24c85f" y="63.05008"/>
     <use style="fill:#1f77b4;stroke:#1f77b4;" x="64.973871" xlink:href="#m6fcf24c85f" y="56.833632"/>
     <use style="fill:#1f77b4;stroke:#1f77b4;" x="178.887341" xlink:href="#m6fcf24c85f" y="134.310044"/>
     <use style="fill:#1f77b4;stroke:#1f77b4;" x="108.690768" xlink:href="#m6fcf24c85f" y="86.173471"/>
     <use style="fill:#1f77b4;stroke:#1f77b4;" x="59.068703" xlink:href="#m6fcf24c85f" y="53.574207"/>
     <use style="fill:#1f77b4;stroke:#1f77b4;" x="58.801288" xlink:href="#m6fcf24c85f" y="53.887853"/>
     <use style="fill:#1f77b4;stroke:#1f77b4;" x="72.397214" xlink:href="#m6fcf24c85f" y="61.752431"/>
     <use style="fill:#1f77b4;stroke:#1f77b4;" x="290.221234" xlink:href="#m6fcf24c85f" y="210.845532"/>
     <use style="fill:#1f77b4;stroke:#1f77b4;" x="187.403524" xlink:href="#m6fcf24c85f" y="140.161373"/>
     <use style="fill:#1f77b4;stroke:#1f77b4;" x="101.864875" xlink:href="#m6fcf24c85f" y="81.512706"/>
     <use style="fill:#1f77b4;stroke:#1f77b4;" x="61.389413" xlink:href="#m6fcf24c85f" y="54.611939"/>
     <use style="fill:#1f77b4;stroke:#1f77b4;" x="95.601953" xlink:href="#m6fcf24c85f" y="77.243798"/>
     <use style="fill:#1f77b4;stroke:#1f77b4;" x="170.791206" xlink:href="#m6fcf24c85f" y="128.748568"/>
     <use style="fill:#1f77b4;stroke:#1f77b4;" x="58.631016" xlink:href="#m6fcf24c85f" y="54.026065"/>
     <use style="fill:#1f77b4;stroke:#1f77b4;" x="145.429863" xlink:href="#m6fcf24c85f" y="111.338114"/>
     <use style="fill:#1f77b4;stroke:#1f77b4;" x="121.383469" xlink:href="#m6fcf24c85f" y="94.855706"/>
     <use style="fill:#1f77b4;stroke:#1f77b4;" x="132.799743" xlink:href="#m6fcf24c85f" y="102.676687"/>
     <use style="fill:#1f77b4;stroke:#1f77b4;" x="66.976871" xlink:href="#m6fcf24c85f" y="58.052128"/>
     <use style="fill:#1f77b4;stroke:#1f77b4;" x="58.586038" xlink:href="#m6fcf24c85f" y="54.561561"/>
     <use style="fill:#1f77b4;stroke:#1f77b4;" x="118.708607" xlink:href="#m6fcf24c85f" y="93.024666"/>
     <use style="fill:#1f77b4;stroke:#1f77b4;" x="59.286246" xlink:href="#m6fcf24c85f" y="53.568"/>
     <use style="fill:#1f77b4;stroke:#1f77b4;" x="58.906528" xlink:href="#m6fcf24c85f" y="53.722945"/>
     <use style="fill:#1f77b4;stroke:#1f77b4;" x="262.024101" xlink:href="#m6fcf24c85f" y="191.460123"/>
     <use style="fill:#1f77b4;stroke:#1f77b4;" x="58.708943" xlink:href="#m6fcf24c85f" y="53.834542"/>
     <use style="fill:#1f77b4;stroke:#1f77b4;" x="174.78841" xlink:href="#m6fcf24c85f" y="131.4942"/>
     <use style="fill:#1f77b4;stroke:#1f77b4;" x="75.848899" xlink:href="#m6fcf24c85f" y="63.883204"/>
    </g>
   </g>
   <g id="patch_3">
    <path d="M 57.6 307.584 
L 57.6 41.472 
" style="fill:none;stroke:#000000;stroke-linecap:square;stroke-linejoin:miter;stroke-width:0.8;"/>
   </g>
   <g id="patch_4">
    <path d="M 414.72 307.584 
L 414.72 41.472 
" style="fill:none;stroke:#000000;stroke-linecap:square;stroke-linejoin:miter;stroke-width:0.8;"/>
   </g>
   <g id="patch_5">
    <path d="M 57.6 307.584 
L 414.72 307.584 
" style="fill:none;stroke:#000000;stroke-linecap:square;stroke-linejoin:miter;stroke-width:0.8;"/>
   </g>
   <g id="patch_6">
    <path d="M 57.6 41.472 
L 414.72 41.472 
" style="fill:none;stroke:#000000;stroke-linecap:square;stroke-linejoin:miter;stroke-width:0.8;"/>
   </g>
  </g>
 </g>
 <defs>
  <clipPath id="p2239c3218f">
   <rect height="266.112" width="357.12" x="57.6" y="41.472"/>
  </clipPath>
 </defs>
</svg>
