<?xml version="1.0" encoding="utf-8" standalone="no"?>
<!DOCTYPE svg PUBLIC "-//W3C//DTD SVG 1.1//EN"
  "http://www.w3.org/Graphics/SVG/1.1/DTD/svg11.dtd">
<!-- Created with matplotlib (http://matplotlib.org/) -->
<svg height="345pt" version="1.1" viewBox="0 0 460 345" width="460pt" xmlns="http://www.w3.org/2000/svg" xmlns:xlink="http://www.w3.org/1999/xlink">
 <defs>
  <style type="text/css">
*{stroke-linecap:butt;stroke-linejoin:round;}
  </style>
 </defs>
 <g id="figure_1">
  <g id="patch_1">
   <path d="M 0 345.6 
L 460.8 345.6 
L 460.8 0 
L 0 0 
z
" style="fill:#ffffff;"/>
  </g>
  <g id="axes_1">
   <g id="patch_2">
    <path d="M 57.6 307.584 
L 414.72 307.584 
L 414.72 41.472 
L 57.6 41.472 
z
" style="fill:#ffffff;"/>
   </g>
   <g id="matplotlib.axis_1">
    <g id="xtick_1">
     <g id="line2d_1">
      <path clip-path="url(#p76d2c9fc9f)" d="M 58.619675 307.584 
L 58.619675 41.472 
" style="fill:none;stroke:#b0b0b0;stroke-linecap:square;stroke-width:0.8;"/>
     </g>
     <g id="line2d_2">
      <defs>
       <path d="M 0 0 
L 0 3.5 
" id="mf902bc8ca5" style="stroke:#000000;stroke-width:0.8;"/>
      </defs>
      <g>
       <use style="stroke:#000000;stroke-width:0.8;" x="58.619675" xlink:href="#mf902bc8ca5" y="307.584"/>
      </g>
     </g>
     <g id="text_1">
      <!-- 0 -->
      <defs>
       <path d="M 31.78125 66.40625 
Q 24.171875 66.40625 20.328125 58.90625 
Q 16.5 51.421875 16.5 36.375 
Q 16.5 21.390625 20.328125 13.890625 
Q 24.171875 6.390625 31.78125 6.390625 
Q 39.453125 6.390625 43.28125 13.890625 
Q 47.125 21.390625 47.125 36.375 
Q 47.125 51.421875 43.28125 58.90625 
Q 39.453125 66.40625 31.78125 66.40625 
M 31.78125 74.21875 
Q 44.046875 74.21875 50.515625 64.515625 
Q 56.984375 54.828125 56.984375 36.375 
Q 56.984375 17.96875 50.515625 8.265625 
Q 44.046875 -1.421875 31.78125 -1.421875 
Q 19.53125 -1.421875 13.0625 8.265625 
Q 6.59375 17.96875 6.59375 36.375 
Q 6.59375 54.828125 13.0625 64.515625 
Q 19.53125 74.21875 31.78125 74.21875 
" id="DejaVuSans-30"/>
      </defs>
      <g transform="translate(55.438425 322.182437)scale(0.1 -0.1)">
       <use xlink:href="#DejaVuSans-30"/>
      </g>
     </g>
    </g>
    <g id="xtick_2">
     <g id="line2d_3">
      <path clip-path="url(#p76d2c9fc9f)" d="M 109.603428 307.584 
L 109.603428 41.472 
" style="fill:none;stroke:#b0b0b0;stroke-linecap:square;stroke-width:0.8;"/>
     </g>
     <g id="line2d_4">
      <g>
       <use style="stroke:#000000;stroke-width:0.8;" x="109.603428" xlink:href="#mf902bc8ca5" y="307.584"/>
      </g>
     </g>
     <g id="text_2">
      <!-- 50 -->
      <defs>
       <path d="M 10.796875 72.90625 
L 49.515625 72.90625 
L 49.515625 64.59375 
L 19.828125 64.59375 
L 19.828125 46.734375 
Q 21.96875 47.46875 24.109375 47.828125 
Q 26.265625 48.1875 28.421875 48.1875 
Q 40.625 48.1875 47.75 41.5 
Q 54.890625 34.8125 54.890625 23.390625 
Q 54.890625 11.625 47.5625 5.09375 
Q 40.234375 -1.421875 26.90625 -1.421875 
Q 22.3125 -1.421875 17.546875 -0.640625 
Q 12.796875 0.140625 7.71875 1.703125 
L 7.71875 11.625 
Q 12.109375 9.234375 16.796875 8.0625 
Q 21.484375 6.890625 26.703125 6.890625 
Q 35.15625 6.890625 40.078125 11.328125 
Q 45.015625 15.765625 45.015625 23.390625 
Q 45.015625 31 40.078125 35.4375 
Q 35.15625 39.890625 26.703125 39.890625 
Q 22.75 39.890625 18.8125 39.015625 
Q 14.890625 38.140625 10.796875 36.28125 
z
" id="DejaVuSans-35"/>
      </defs>
      <g transform="translate(103.240928 322.182437)scale(0.1 -0.1)">
       <use xlink:href="#DejaVuSans-35"/>
       <use x="63.623047" xlink:href="#DejaVuSans-30"/>
      </g>
     </g>
    </g>
    <g id="xtick_3">
     <g id="line2d_5">
      <path clip-path="url(#p76d2c9fc9f)" d="M 160.587181 307.584 
L 160.587181 41.472 
" style="fill:none;stroke:#b0b0b0;stroke-linecap:square;stroke-width:0.8;"/>
     </g>
     <g id="line2d_6">
      <g>
       <use style="stroke:#000000;stroke-width:0.8;" x="160.587181" xlink:href="#mf902bc8ca5" y="307.584"/>
      </g>
     </g>
     <g id="text_3">
      <!-- 100 -->
      <defs>
       <path d="M 12.40625 8.296875 
L 28.515625 8.296875 
L 28.515625 63.921875 
L 10.984375 60.40625 
L 10.984375 69.390625 
L 28.421875 72.90625 
L 38.28125 72.90625 
L 38.28125 8.296875 
L 54.390625 8.296875 
L 54.390625 0 
L 12.40625 0 
z
" id="DejaVuSans-31"/>
      </defs>
      <g transform="translate(151.043431 322.182437)scale(0.1 -0.1)">
       <use xlink:href="#DejaVuSans-31"/>
       <use x="63.623047" xlink:href="#DejaVuSans-30"/>
       <use x="127.246094" xlink:href="#DejaVuSans-30"/>
      </g>
     </g>
    </g>
    <g id="xtick_4">
     <g id="line2d_7">
      <path clip-path="url(#p76d2c9fc9f)" d="M 211.570934 307.584 
L 211.570934 41.472 
" style="fill:none;stroke:#b0b0b0;stroke-linecap:square;stroke-width:0.8;"/>
     </g>
     <g id="line2d_8">
      <g>
       <use style="stroke:#000000;stroke-width:0.8;" x="211.570934" xlink:href="#mf902bc8ca5" y="307.584"/>
      </g>
     </g>
     <g id="text_4">
      <!-- 150 -->
      <g transform="translate(202.027184 322.182437)scale(0.1 -0.1)">
       <use xlink:href="#DejaVuSans-31"/>
       <use x="63.623047" xlink:href="#DejaVuSans-35"/>
       <use x="127.246094" xlink:href="#DejaVuSans-30"/>
      </g>
     </g>
    </g>
    <g id="xtick_5">
     <g id="line2d_9">
      <path clip-path="url(#p76d2c9fc9f)" d="M 262.554687 307.584 
L 262.554687 41.472 
" style="fill:none;stroke:#b0b0b0;stroke-linecap:square;stroke-width:0.8;"/>
     </g>
     <g id="line2d_10">
      <g>
       <use style="stroke:#000000;stroke-width:0.8;" x="262.554687" xlink:href="#mf902bc8ca5" y="307.584"/>
      </g>
     </g>
     <g id="text_5">
      <!-- 200 -->
      <defs>
       <path d="M 19.1875 8.296875 
L 53.609375 8.296875 
L 53.609375 0 
L 7.328125 0 
L 7.328125 8.296875 
Q 12.9375 14.109375 22.625 23.890625 
Q 32.328125 33.6875 34.8125 36.53125 
Q 39.546875 41.84375 41.421875 45.53125 
Q 43.3125 49.21875 43.3125 52.78125 
Q 43.3125 58.59375 39.234375 62.25 
Q 35.15625 65.921875 28.609375 65.921875 
Q 23.96875 65.921875 18.8125 64.3125 
Q 13.671875 62.703125 7.8125 59.421875 
L 7.8125 69.390625 
Q 13.765625 71.78125 18.9375 73 
Q 24.125 74.21875 28.421875 74.21875 
Q 39.75 74.21875 46.484375 68.546875 
Q 53.21875 62.890625 53.21875 53.421875 
Q 53.21875 48.921875 51.53125 44.890625 
Q 49.859375 40.875 45.40625 35.40625 
Q 44.1875 33.984375 37.640625 27.21875 
Q 31.109375 20.453125 19.1875 8.296875 
" id="DejaVuSans-32"/>
      </defs>
      <g transform="translate(253.010937 322.182437)scale(0.1 -0.1)">
       <use xlink:href="#DejaVuSans-32"/>
       <use x="63.623047" xlink:href="#DejaVuSans-30"/>
       <use x="127.246094" xlink:href="#DejaVuSans-30"/>
      </g>
     </g>
    </g>
    <g id="xtick_6">
     <g id="line2d_11">
      <path clip-path="url(#p76d2c9fc9f)" d="M 313.53844 307.584 
L 313.53844 41.472 
" style="fill:none;stroke:#b0b0b0;stroke-linecap:square;stroke-width:0.8;"/>
     </g>
     <g id="line2d_12">
      <g>
       <use style="stroke:#000000;stroke-width:0.8;" x="313.53844" xlink:href="#mf902bc8ca5" y="307.584"/>
      </g>
     </g>
     <g id="text_6">
      <!-- 250 -->
      <g transform="translate(303.99469 322.182437)scale(0.1 -0.1)">
       <use xlink:href="#DejaVuSans-32"/>
       <use x="63.623047" xlink:href="#DejaVuSans-35"/>
       <use x="127.246094" xlink:href="#DejaVuSans-30"/>
      </g>
     </g>
    </g>
    <g id="xtick_7">
     <g id="line2d_13">
      <path clip-path="url(#p76d2c9fc9f)" d="M 364.522193 307.584 
L 364.522193 41.472 
" style="fill:none;stroke:#b0b0b0;stroke-linecap:square;stroke-width:0.8;"/>
     </g>
     <g id="line2d_14">
      <g>
       <use style="stroke:#000000;stroke-width:0.8;" x="364.522193" xlink:href="#mf902bc8ca5" y="307.584"/>
      </g>
     </g>
     <g id="text_7">
      <!-- 300 -->
      <defs>
       <path d="M 40.578125 39.3125 
Q 47.65625 37.796875 51.625 33 
Q 55.609375 28.21875 55.609375 21.1875 
Q 55.609375 10.40625 48.1875 4.484375 
Q 40.765625 -1.421875 27.09375 -1.421875 
Q 22.515625 -1.421875 17.65625 -0.515625 
Q 12.796875 0.390625 7.625 2.203125 
L 7.625 11.71875 
Q 11.71875 9.328125 16.59375 8.109375 
Q 21.484375 6.890625 26.8125 6.890625 
Q 36.078125 6.890625 40.9375 10.546875 
Q 45.796875 14.203125 45.796875 21.1875 
Q 45.796875 27.640625 41.28125 31.265625 
Q 36.765625 34.90625 28.71875 34.90625 
L 20.21875 34.90625 
L 20.21875 43.015625 
L 29.109375 43.015625 
Q 36.375 43.015625 40.234375 45.921875 
Q 44.09375 48.828125 44.09375 54.296875 
Q 44.09375 59.90625 40.109375 62.90625 
Q 36.140625 65.921875 28.71875 65.921875 
Q 24.65625 65.921875 20.015625 65.03125 
Q 15.375 64.15625 9.8125 62.3125 
L 9.8125 71.09375 
Q 15.4375 72.65625 20.34375 73.4375 
Q 25.25 74.21875 29.59375 74.21875 
Q 40.828125 74.21875 47.359375 69.109375 
Q 53.90625 64.015625 53.90625 55.328125 
Q 53.90625 49.265625 50.4375 45.09375 
Q 46.96875 40.921875 40.578125 39.3125 
" id="DejaVuSans-33"/>
      </defs>
      <g transform="translate(354.978443 322.182437)scale(0.1 -0.1)">
       <use xlink:href="#DejaVuSans-33"/>
       <use x="63.623047" xlink:href="#DejaVuSans-30"/>
       <use x="127.246094" xlink:href="#DejaVuSans-30"/>
      </g>
     </g>
    </g>
    <g id="text_8">
     <!-- $\gamma_i$ -->
     <defs>
      <path d="M 23.296875 46.09375 
L 28.71875 12.3125 
L 54 54.6875 
L 63.53125 54.6875 
L 30.8125 0 
L 26.765625 -20.796875 
L 17.78125 -20.796875 
L 21.828125 0 
L 15.4375 40.828125 
Q 14.453125 46.96875 9.8125 46.96875 
L 7.421875 46.96875 
L 8.890625 54.6875 
L 12.3125 54.6875 
Q 21.921875 54.6875 23.296875 46.09375 
" id="DejaVuSans-Oblique-3b3"/>
      <path d="M 18.3125 75.984375 
L 27.296875 75.984375 
L 25.09375 64.59375 
L 16.109375 64.59375 
z
M 14.203125 54.6875 
L 23.1875 54.6875 
L 12.5 0 
L 3.515625 0 
z
" id="DejaVuSans-Oblique-69"/>
     </defs>
     <g transform="translate(232.06 335.84025)scale(0.1 -0.1)">
      <use transform="translate(0 0.3125)" xlink:href="#DejaVuSans-Oblique-3b3"/>
      <use transform="translate(59.179688 -16.09375)scale(0.7)" xlink:href="#DejaVuSans-Oblique-69"/>
     </g>
    </g>
   </g>
   <g id="matplotlib.axis_2">
    <g id="ytick_1">
     <g id="line2d_15">
      <path clip-path="url(#p76d2c9fc9f)" d="M 57.6 277.823108 
L 414.72 277.823108 
" style="fill:none;stroke:#b0b0b0;stroke-linecap:square;stroke-width:0.8;"/>
     </g>
     <g id="line2d_16">
      <defs>
       <path d="M 0 0 
L -3.5 0 
" id="m212ab017eb" style="stroke:#000000;stroke-width:0.8;"/>
      </defs>
      <g>
       <use style="stroke:#000000;stroke-width:0.8;" x="57.6" xlink:href="#m212ab017eb" y="277.823108"/>
      </g>
     </g>
     <g id="text_9">
      <!-- ${10^{-139}}$ -->
      <defs>
       <path d="M 10.59375 35.5 
L 73.1875 35.5 
L 73.1875 27.203125 
L 10.59375 27.203125 
z
" id="DejaVuSans-2212"/>
       <path d="M 10.984375 1.515625 
L 10.984375 10.5 
Q 14.703125 8.734375 18.5 7.8125 
Q 22.3125 6.890625 25.984375 6.890625 
Q 35.75 6.890625 40.890625 13.453125 
Q 46.046875 20.015625 46.78125 33.40625 
Q 43.953125 29.203125 39.59375 26.953125 
Q 35.25 24.703125 29.984375 24.703125 
Q 19.046875 24.703125 12.671875 31.3125 
Q 6.296875 37.9375 6.296875 49.421875 
Q 6.296875 60.640625 12.9375 67.421875 
Q 19.578125 74.21875 30.609375 74.21875 
Q 43.265625 74.21875 49.921875 64.515625 
Q 56.59375 54.828125 56.59375 36.375 
Q 56.59375 19.140625 48.40625 8.859375 
Q 40.234375 -1.421875 26.421875 -1.421875 
Q 22.703125 -1.421875 18.890625 -0.6875 
Q 15.09375 0.046875 10.984375 1.515625 
M 30.609375 32.421875 
Q 37.25 32.421875 41.125 36.953125 
Q 45.015625 41.5 45.015625 49.421875 
Q 45.015625 57.28125 41.125 61.84375 
Q 37.25 66.40625 30.609375 66.40625 
Q 23.96875 66.40625 20.09375 61.84375 
Q 16.21875 57.28125 16.21875 49.421875 
Q 16.21875 41.5 20.09375 36.953125 
Q 23.96875 32.421875 30.609375 32.421875 
" id="DejaVuSans-39"/>
      </defs>
      <g transform="translate(18.2 281.622326)scale(0.1 -0.1)">
       <use transform="translate(0 0.765625)" xlink:href="#DejaVuSans-31"/>
       <use transform="translate(63.623047 0.765625)" xlink:href="#DejaVuSans-30"/>
       <use transform="translate(128.203125 39.046875)scale(0.7)" xlink:href="#DejaVuSans-2212"/>
       <use transform="translate(186.855469 39.046875)scale(0.7)" xlink:href="#DejaVuSans-31"/>
       <use transform="translate(231.391602 39.046875)scale(0.7)" xlink:href="#DejaVuSans-33"/>
       <use transform="translate(275.927734 39.046875)scale(0.7)" xlink:href="#DejaVuSans-39"/>
      </g>
     </g>
    </g>
    <g id="ytick_2">
     <g id="line2d_17">
      <path clip-path="url(#p76d2c9fc9f)" d="M 57.6 246.974829 
L 414.72 246.974829 
" style="fill:none;stroke:#b0b0b0;stroke-linecap:square;stroke-width:0.8;"/>
     </g>
     <g id="line2d_18">
      <g>
       <use style="stroke:#000000;stroke-width:0.8;" x="57.6" xlink:href="#m212ab017eb" y="246.974829"/>
      </g>
     </g>
     <g id="text_10">
      <!-- ${10^{-120}}$ -->
      <g transform="translate(18.2 250.774048)scale(0.1 -0.1)">
       <use transform="translate(0 0.765625)" xlink:href="#DejaVuSans-31"/>
       <use transform="translate(63.623047 0.765625)" xlink:href="#DejaVuSans-30"/>
       <use transform="translate(128.203125 39.046875)scale(0.7)" xlink:href="#DejaVuSans-2212"/>
       <use transform="translate(186.855469 39.046875)scale(0.7)" xlink:href="#DejaVuSans-31"/>
       <use transform="translate(231.391602 39.046875)scale(0.7)" xlink:href="#DejaVuSans-32"/>
       <use transform="translate(275.927734 39.046875)scale(0.7)" xlink:href="#DejaVuSans-30"/>
      </g>
     </g>
    </g>
    <g id="ytick_3">
     <g id="line2d_19">
      <path clip-path="url(#p76d2c9fc9f)" d="M 57.6 216.12655 
L 414.72 216.12655 
" style="fill:none;stroke:#b0b0b0;stroke-linecap:square;stroke-width:0.8;"/>
     </g>
     <g id="line2d_20">
      <g>
       <use style="stroke:#000000;stroke-width:0.8;" x="57.6" xlink:href="#m212ab017eb" y="216.12655"/>
      </g>
     </g>
     <g id="text_11">
      <!-- ${10^{-101}}$ -->
      <g transform="translate(18.2 219.925769)scale(0.1 -0.1)">
       <use transform="translate(0 0.765625)" xlink:href="#DejaVuSans-31"/>
       <use transform="translate(63.623047 0.765625)" xlink:href="#DejaVuSans-30"/>
       <use transform="translate(128.203125 39.046875)scale(0.7)" xlink:href="#DejaVuSans-2212"/>
       <use transform="translate(186.855469 39.046875)scale(0.7)" xlink:href="#DejaVuSans-31"/>
       <use transform="translate(231.391602 39.046875)scale(0.7)" xlink:href="#DejaVuSans-30"/>
       <use transform="translate(275.927734 39.046875)scale(0.7)" xlink:href="#DejaVuSans-31"/>
      </g>
     </g>
    </g>
    <g id="ytick_4">
     <g id="line2d_21">
      <path clip-path="url(#p76d2c9fc9f)" d="M 57.6 185.278271 
L 414.72 185.278271 
" style="fill:none;stroke:#b0b0b0;stroke-linecap:square;stroke-width:0.8;"/>
     </g>
     <g id="line2d_22">
      <g>
       <use style="stroke:#000000;stroke-width:0.8;" x="57.6" xlink:href="#m212ab017eb" y="185.278271"/>
      </g>
     </g>
     <g id="text_12">
      <!-- ${10^{-82}}$ -->
      <defs>
       <path d="M 31.78125 34.625 
Q 24.75 34.625 20.71875 30.859375 
Q 16.703125 27.09375 16.703125 20.515625 
Q 16.703125 13.921875 20.71875 10.15625 
Q 24.75 6.390625 31.78125 6.390625 
Q 38.8125 6.390625 42.859375 10.171875 
Q 46.921875 13.96875 46.921875 20.515625 
Q 46.921875 27.09375 42.890625 30.859375 
Q 38.875 34.625 31.78125 34.625 
M 21.921875 38.8125 
Q 15.578125 40.375 12.03125 44.71875 
Q 8.5 49.078125 8.5 55.328125 
Q 8.5 64.0625 14.71875 69.140625 
Q 20.953125 74.21875 31.78125 74.21875 
Q 42.671875 74.21875 48.875 69.140625 
Q 55.078125 64.0625 55.078125 55.328125 
Q 55.078125 49.078125 51.53125 44.71875 
Q 48 40.375 41.703125 38.8125 
Q 48.828125 37.15625 52.796875 32.3125 
Q 56.78125 27.484375 56.78125 20.515625 
Q 56.78125 9.90625 50.3125 4.234375 
Q 43.84375 -1.421875 31.78125 -1.421875 
Q 19.734375 -1.421875 13.25 4.234375 
Q 6.78125 9.90625 6.78125 20.515625 
Q 6.78125 27.484375 10.78125 32.3125 
Q 14.796875 37.15625 21.921875 38.8125 
M 18.3125 54.390625 
Q 18.3125 48.734375 21.84375 45.5625 
Q 25.390625 42.390625 31.78125 42.390625 
Q 38.140625 42.390625 41.71875 45.5625 
Q 45.3125 48.734375 45.3125 54.390625 
Q 45.3125 60.0625 41.71875 63.234375 
Q 38.140625 66.40625 31.78125 66.40625 
Q 25.390625 66.40625 21.84375 63.234375 
Q 18.3125 60.0625 18.3125 54.390625 
" id="DejaVuSans-38"/>
      </defs>
      <g transform="translate(22.7 189.07749)scale(0.1 -0.1)">
       <use transform="translate(0 0.765625)" xlink:href="#DejaVuSans-31"/>
       <use transform="translate(63.623047 0.765625)" xlink:href="#DejaVuSans-30"/>
       <use transform="translate(128.203125 39.046875)scale(0.7)" xlink:href="#DejaVuSans-2212"/>
       <use transform="translate(186.855469 39.046875)scale(0.7)" xlink:href="#DejaVuSans-38"/>
       <use transform="translate(231.391602 39.046875)scale(0.7)" xlink:href="#DejaVuSans-32"/>
      </g>
     </g>
    </g>
    <g id="ytick_5">
     <g id="line2d_23">
      <path clip-path="url(#p76d2c9fc9f)" d="M 57.6 154.429992 
L 414.72 154.429992 
" style="fill:none;stroke:#b0b0b0;stroke-linecap:square;stroke-width:0.8;"/>
     </g>
     <g id="line2d_24">
      <g>
       <use style="stroke:#000000;stroke-width:0.8;" x="57.6" xlink:href="#m212ab017eb" y="154.429992"/>
      </g>
     </g>
     <g id="text_13">
      <!-- ${10^{-63}}$ -->
      <defs>
       <path d="M 33.015625 40.375 
Q 26.375 40.375 22.484375 35.828125 
Q 18.609375 31.296875 18.609375 23.390625 
Q 18.609375 15.53125 22.484375 10.953125 
Q 26.375 6.390625 33.015625 6.390625 
Q 39.65625 6.390625 43.53125 10.953125 
Q 47.40625 15.53125 47.40625 23.390625 
Q 47.40625 31.296875 43.53125 35.828125 
Q 39.65625 40.375 33.015625 40.375 
M 52.59375 71.296875 
L 52.59375 62.3125 
Q 48.875 64.0625 45.09375 64.984375 
Q 41.3125 65.921875 37.59375 65.921875 
Q 27.828125 65.921875 22.671875 59.328125 
Q 17.53125 52.734375 16.796875 39.40625 
Q 19.671875 43.65625 24.015625 45.921875 
Q 28.375 48.1875 33.59375 48.1875 
Q 44.578125 48.1875 50.953125 41.515625 
Q 57.328125 34.859375 57.328125 23.390625 
Q 57.328125 12.15625 50.6875 5.359375 
Q 44.046875 -1.421875 33.015625 -1.421875 
Q 20.359375 -1.421875 13.671875 8.265625 
Q 6.984375 17.96875 6.984375 36.375 
Q 6.984375 53.65625 15.1875 63.9375 
Q 23.390625 74.21875 37.203125 74.21875 
Q 40.921875 74.21875 44.703125 73.484375 
Q 48.484375 72.75 52.59375 71.296875 
" id="DejaVuSans-36"/>
      </defs>
      <g transform="translate(22.7 158.229211)scale(0.1 -0.1)">
       <use transform="translate(0 0.765625)" xlink:href="#DejaVuSans-31"/>
       <use transform="translate(63.623047 0.765625)" xlink:href="#DejaVuSans-30"/>
       <use transform="translate(128.203125 39.046875)scale(0.7)" xlink:href="#DejaVuSans-2212"/>
       <use transform="translate(186.855469 39.046875)scale(0.7)" xlink:href="#DejaVuSans-36"/>
       <use transform="translate(231.391602 39.046875)scale(0.7)" xlink:href="#DejaVuSans-33"/>
      </g>
     </g>
    </g>
    <g id="ytick_6">
     <g id="line2d_25">
      <path clip-path="url(#p76d2c9fc9f)" d="M 57.6 123.581713 
L 414.72 123.581713 
" style="fill:none;stroke:#b0b0b0;stroke-linecap:square;stroke-width:0.8;"/>
     </g>
     <g id="line2d_26">
      <g>
       <use style="stroke:#000000;stroke-width:0.8;" x="57.6" xlink:href="#m212ab017eb" y="123.581713"/>
      </g>
     </g>
     <g id="text_14">
      <!-- ${10^{-44}}$ -->
      <defs>
       <path d="M 37.796875 64.3125 
L 12.890625 25.390625 
L 37.796875 25.390625 
z
M 35.203125 72.90625 
L 47.609375 72.90625 
L 47.609375 25.390625 
L 58.015625 25.390625 
L 58.015625 17.1875 
L 47.609375 17.1875 
L 47.609375 0 
L 37.796875 0 
L 37.796875 17.1875 
L 4.890625 17.1875 
L 4.890625 26.703125 
z
" id="DejaVuSans-34"/>
      </defs>
      <g transform="translate(22.7 127.380932)scale(0.1 -0.1)">
       <use transform="translate(0 0.684375)" xlink:href="#DejaVuSans-31"/>
       <use transform="translate(63.623047 0.684375)" xlink:href="#DejaVuSans-30"/>
       <use transform="translate(128.203125 38.965625)scale(0.7)" xlink:href="#DejaVuSans-2212"/>
       <use transform="translate(186.855469 38.965625)scale(0.7)" xlink:href="#DejaVuSans-34"/>
       <use transform="translate(231.391602 38.965625)scale(0.7)" xlink:href="#DejaVuSans-34"/>
      </g>
     </g>
    </g>
    <g id="ytick_7">
     <g id="line2d_27">
      <path clip-path="url(#p76d2c9fc9f)" d="M 57.6 92.733434 
L 414.72 92.733434 
" style="fill:none;stroke:#b0b0b0;stroke-linecap:square;stroke-width:0.8;"/>
     </g>
     <g id="line2d_28">
      <g>
       <use style="stroke:#000000;stroke-width:0.8;" x="57.6" xlink:href="#m212ab017eb" y="92.733434"/>
      </g>
     </g>
     <g id="text_15">
      <!-- ${10^{-25}}$ -->
      <g transform="translate(22.7 96.532653)scale(0.1 -0.1)">
       <use transform="translate(0 0.765625)" xlink:href="#DejaVuSans-31"/>
       <use transform="translate(63.623047 0.765625)" xlink:href="#DejaVuSans-30"/>
       <use transform="translate(128.203125 39.046875)scale(0.7)" xlink:href="#DejaVuSans-2212"/>
       <use transform="translate(186.855469 39.046875)scale(0.7)" xlink:href="#DejaVuSans-32"/>
       <use transform="translate(231.391602 39.046875)scale(0.7)" xlink:href="#DejaVuSans-35"/>
      </g>
     </g>
    </g>
    <g id="ytick_8">
     <g id="line2d_29">
      <path clip-path="url(#p76d2c9fc9f)" d="M 57.6 61.885155 
L 414.72 61.885155 
" style="fill:none;stroke:#b0b0b0;stroke-linecap:square;stroke-width:0.8;"/>
     </g>
     <g id="line2d_30">
      <g>
       <use style="stroke:#000000;stroke-width:0.8;" x="57.6" xlink:href="#m212ab017eb" y="61.885155"/>
      </g>
     </g>
     <g id="text_16">
      <!-- ${10^{-6}}$ -->
      <g transform="translate(27.1 65.684374)scale(0.1 -0.1)">
       <use transform="translate(0 0.765625)" xlink:href="#DejaVuSans-31"/>
       <use transform="translate(63.623047 0.765625)" xlink:href="#DejaVuSans-30"/>
       <use transform="translate(128.203125 39.046875)scale(0.7)" xlink:href="#DejaVuSans-2212"/>
       <use transform="translate(186.855469 39.046875)scale(0.7)" xlink:href="#DejaVuSans-36"/>
      </g>
     </g>
    </g>
    <g id="text_17">
     <!-- $\omega_i$ -->
     <defs>
      <path d="M 21.390625 -1.421875 
Q 1.125 -1.421875 6.78125 27.59375 
Q 8.984375 39.0625 19.625 54.6875 
L 29.296875 54.6875 
Q 19.234375 39.0625 17 27.34375 
Q 12.796875 6.203125 23.734375 6.203125 
Q 33.84375 6.203125 38.71875 32.46875 
L 47.015625 32.46875 
Q 41.703125 6.0625 51.8125 6.203125 
Q 62.703125 6.296875 66.796875 27.34375 
Q 69.046875 39.0625 65.140625 54.6875 
L 74.8125 54.6875 
Q 79.296875 39.0625 77.09375 27.59375 
Q 71.53125 -1.46875 51.21875 -1.421875 
Q 37.9375 -1.375 39.109375 13.1875 
Q 34.28125 -1.421875 21.390625 -1.421875 
" id="DejaVuSans-Oblique-3c9"/>
     </defs>
     <g transform="translate(12.120313 179.828)rotate(-90)scale(0.1 -0.1)">
      <use transform="translate(0 0.3125)" xlink:href="#DejaVuSans-Oblique-3c9"/>
      <use transform="translate(83.740234 -16.09375)scale(0.7)" xlink:href="#DejaVuSans-Oblique-69"/>
     </g>
    </g>
   </g>
   <g id="line2d_31">
    <defs>
     <path d="M 0 3 
C 0.795609 3 1.55874 2.683901 2.12132 2.12132 
C 2.683901 1.55874 3 0.795609 3 0 
C 3 -0.795609 2.683901 -1.55874 2.12132 -2.12132 
C 1.55874 -2.683901 0.795609 -3 0 -3 
C -0.795609 -3 -1.55874 -2.683901 -2.12132 -2.12132 
C -2.683901 -1.55874 -3 -0.795609 -3 0 
C -3 0.795609 -2.683901 1.55874 -2.12132 2.12132 
C -1.55874 2.683901 -0.795609 3 0 3 
z
" id="mb6acd6423d" style="stroke:#1f77b4;"/>
    </defs>
    <g clip-path="url(#p76d2c9fc9f)">
     <use style="fill:#1f77b4;stroke:#1f77b4;" x="378.398902" xlink:href="#mb6acd6423d" y="271.402798"/>
     <use style="fill:#1f77b4;stroke:#1f77b4;" x="413.700325" xlink:href="#mb6acd6423d" y="295.488"/>
     <use style="fill:#1f77b4;stroke:#1f77b4;" x="394.105545" xlink:href="#mb6acd6423d" y="282.145445"/>
     <use style="fill:#1f77b4;stroke:#1f77b4;" x="321.097481" xlink:href="#mb6acd6423d" y="232.077619"/>
     <use style="fill:#1f77b4;stroke:#1f77b4;" x="216.147306" xlink:href="#mb6acd6423d" y="159.905903"/>
     <use style="fill:#1f77b4;stroke:#1f77b4;" x="81.786876" xlink:href="#mb6acd6423d" y="67.838682"/>
     <use style="fill:#1f77b4;stroke:#1f77b4;" x="352.526849" xlink:href="#mb6acd6423d" y="253.663986"/>
     <use style="fill:#1f77b4;stroke:#1f77b4;" x="210.86499" xlink:href="#mb6acd6423d" y="156.273377"/>
     <use style="fill:#1f77b4;stroke:#1f77b4;" x="279.18367" xlink:href="#mb6acd6423d" y="203.261132"/>
     <use style="fill:#1f77b4;stroke:#1f77b4;" x="311.872831" xlink:href="#mb6acd6423d" y="225.737501"/>
     <use style="fill:#1f77b4;stroke:#1f77b4;" x="110.6713" xlink:href="#mb6acd6423d" y="87.495777"/>
     <use style="fill:#1f77b4;stroke:#1f77b4;" x="85.143604" xlink:href="#mb6acd6423d" y="70.108528"/>
     <use style="fill:#1f77b4;stroke:#1f77b4;" x="195.883107" xlink:href="#mb6acd6423d" y="145.972127"/>
     <use style="fill:#1f77b4;stroke:#1f77b4;" x="186.558563" xlink:href="#mb6acd6423d" y="139.562157"/>
     <use style="fill:#1f77b4;stroke:#1f77b4;" x="136.546608" xlink:href="#mb6acd6423d" y="105.2171"/>
     <use style="fill:#1f77b4;stroke:#1f77b4;" x="103.384665" xlink:href="#mb6acd6423d" y="82.51815"/>
     <use style="fill:#1f77b4;stroke:#1f77b4;" x="68.55652" xlink:href="#mb6acd6423d" y="59.003943"/>
     <use style="fill:#1f77b4;stroke:#1f77b4;" x="139.823435" xlink:href="#mb6acd6423d" y="107.46466"/>
     <use style="fill:#1f77b4;stroke:#1f77b4;" x="200.739028" xlink:href="#mb6acd6423d" y="149.310695"/>
     <use style="fill:#1f77b4;stroke:#1f77b4;" x="124.268455" xlink:href="#mb6acd6423d" y="96.801293"/>
     <use style="fill:#1f77b4;stroke:#1f77b4;" x="83.434681" xlink:href="#mb6acd6423d" y="68.95213"/>
     <use style="fill:#1f77b4;stroke:#1f77b4;" x="191.157923" xlink:href="#mb6acd6423d" y="142.723737"/>
     <use style="fill:#1f77b4;stroke:#1f77b4;" x="264.789699" xlink:href="#mb6acd6423d" y="193.361483"/>
     <use style="fill:#1f77b4;stroke:#1f77b4;" x="143.186745" xlink:href="#mb6acd6423d" y="109.772096"/>
     <use style="fill:#1f77b4;stroke:#1f77b4;" x="121.398125" xlink:href="#mb6acd6423d" y="94.835449"/>
     <use style="fill:#1f77b4;stroke:#1f77b4;" x="66.596861" xlink:href="#mb6acd6423d" y="57.729409"/>
     <use style="fill:#1f77b4;stroke:#1f77b4;" x="65.700708" xlink:href="#mb6acd6423d" y="57.153479"/>
     <use style="fill:#1f77b4;stroke:#1f77b4;" x="177.719586" xlink:href="#mb6acd6423d" y="133.487278"/>
     <use style="fill:#1f77b4;stroke:#1f77b4;" x="130.245068" xlink:href="#mb6acd6423d" y="100.896604"/>
     <use style="fill:#1f77b4;stroke:#1f77b4;" x="341.300085" xlink:href="#mb6acd6423d" y="245.956537"/>
     <use style="fill:#1f77b4;stroke:#1f77b4;" x="364.772083" xlink:href="#mb6acd6423d" y="262.064635"/>
     <use style="fill:#1f77b4;stroke:#1f77b4;" x="96.716692" xlink:href="#mb6acd6423d" y="77.971276"/>
     <use style="fill:#1f77b4;stroke:#1f77b4;" x="78.672339" xlink:href="#mb6acd6423d" y="65.739291"/>
     <use style="fill:#1f77b4;stroke:#1f77b4;" x="133.354404" xlink:href="#mb6acd6423d" y="103.028147"/>
     <use style="fill:#1f77b4;stroke:#1f77b4;" x="169.333987" xlink:href="#mb6acd6423d" y="127.725436"/>
     <use style="fill:#1f77b4;stroke:#1f77b4;" x="232.95904" xlink:href="#mb6acd6423d" y="171.468127"/>
     <use style="fill:#1f77b4;stroke:#1f77b4;" x="73.153104" xlink:href="#mb6acd6423d" y="62.042521"/>
     <use style="fill:#1f77b4;stroke:#1f77b4;" x="150.180827" xlink:href="#mb6acd6423d" y="114.572068"/>
     <use style="fill:#1f77b4;stroke:#1f77b4;" x="86.91425" xlink:href="#mb6acd6423d" y="71.308245"/>
     <use style="fill:#1f77b4;stroke:#1f77b4;" x="205.731038" xlink:href="#mb6acd6423d" y="152.743108"/>
     <use style="fill:#1f77b4;stroke:#1f77b4;" x="98.872169" xlink:href="#mb6acd6423d" y="79.440075"/>
     <use style="fill:#1f77b4;stroke:#1f77b4;" x="257.983829" xlink:href="#mb6acd6423d" y="188.680393"/>
     <use style="fill:#1f77b4;stroke:#1f77b4;" x="80.199611" xlink:href="#mb6acd6423d" y="66.767842"/>
     <use style="fill:#1f77b4;stroke:#1f77b4;" x="61.014632" xlink:href="#mb6acd6423d" y="54.384769"/>
     <use style="fill:#1f77b4;stroke:#1f77b4;" x="59.961838" xlink:href="#mb6acd6423d" y="53.863044"/>
     <use style="fill:#1f77b4;stroke:#1f77b4;" x="294.786067" xlink:href="#mb6acd6423d" y="213.990399"/>
     <use style="fill:#1f77b4;stroke:#1f77b4;" x="67.548722" xlink:href="#mb6acd6423d" y="58.346276"/>
     <use style="fill:#1f77b4;stroke:#1f77b4;" x="69.62053" xlink:href="#mb6acd6423d" y="59.702359"/>
     <use style="fill:#1f77b4;stroke:#1f77b4;" x="59.351289" xlink:href="#mb6acd6423d" y="53.596153"/>
     <use style="fill:#1f77b4;stroke:#1f77b4;" x="75.795705" xlink:href="#mb6acd6423d" y="63.807914"/>
     <use style="fill:#1f77b4;stroke:#1f77b4;" x="271.84908" xlink:href="#mb6acd6423d" y="198.216788"/>
     <use style="fill:#1f77b4;stroke:#1f77b4;" x="330.872208" xlink:href="#mb6acd6423d" y="238.793982"/>
     <use style="fill:#1f77b4;stroke:#1f77b4;" x="127.216941" xlink:href="#mb6acd6423d" y="98.821342"/>
     <use style="fill:#1f77b4;stroke:#1f77b4;" x="286.819101" xlink:href="#mb6acd6423d" y="208.512021"/>
     <use style="fill:#1f77b4;stroke:#1f77b4;" x="77.204535" xlink:href="#mb6acd6423d" y="64.752738"/>
     <use style="fill:#1f77b4;stroke:#1f77b4;" x="113.242365" xlink:href="#mb6acd6423d" y="89.253852"/>
     <use style="fill:#1f77b4;stroke:#1f77b4;" x="90.643285" xlink:href="#mb6acd6423d" y="73.839234"/>
     <use style="fill:#1f77b4;stroke:#1f77b4;" x="70.741064" xlink:href="#mb6acd6423d" y="60.441542"/>
     <use style="fill:#1f77b4;stroke:#1f77b4;" x="71.918465" xlink:href="#mb6acd6423d" y="61.221559"/>
     <use style="fill:#1f77b4;stroke:#1f77b4;" x="59.108618" xlink:href="#mb6acd6423d" y="53.568"/>
     <use style="fill:#1f77b4;stroke:#1f77b4;" x="146.63851" xlink:href="#mb6acd6423d" y="112.140755"/>
     <use style="fill:#1f77b4;stroke:#1f77b4;" x="153.815923" xlink:href="#mb6acd6423d" y="117.067559"/>
     <use style="fill:#1f77b4;stroke:#1f77b4;" x="64.860098" xlink:href="#mb6acd6423d" y="56.618751"/>
     <use style="fill:#1f77b4;stroke:#1f77b4;" x="105.743509" xlink:href="#mb6acd6423d" y="84.128636"/>
     <use style="fill:#1f77b4;stroke:#1f77b4;" x="245.060846" xlink:href="#mb6acd6423d" y="179.791782"/>
     <use style="fill:#1f77b4;stroke:#1f77b4;" x="60.617562" xlink:href="#mb6acd6423d" y="54.27839"/>
     <use style="fill:#1f77b4;stroke:#1f77b4;" x="251.412898" xlink:href="#mb6acd6423d" y="184.160821"/>
     <use style="fill:#1f77b4;stroke:#1f77b4;" x="182.080508" xlink:href="#mb6acd6423d" y="136.48429"/>
     <use style="fill:#1f77b4;stroke:#1f77b4;" x="115.88638" xlink:href="#mb6acd6423d" y="91.062608"/>
     <use style="fill:#1f77b4;stroke:#1f77b4;" x="59.63935" xlink:href="#mb6acd6423d" y="53.692401"/>
     <use style="fill:#1f77b4;stroke:#1f77b4;" x="62.671969" xlink:href="#mb6acd6423d" y="55.268602"/>
     <use style="fill:#1f77b4;stroke:#1f77b4;" x="92.603039" xlink:href="#mb6acd6423d" y="75.171369"/>
     <use style="fill:#1f77b4;stroke:#1f77b4;" x="64.074971" xlink:href="#mb6acd6423d" y="56.125691"/>
     <use style="fill:#1f77b4;stroke:#1f77b4;" x="303.121894" xlink:href="#mb6acd6423d" y="219.721723"/>
     <use style="fill:#1f77b4;stroke:#1f77b4;" x="74.445377" xlink:href="#mb6acd6423d" y="62.904579"/>
     <use style="fill:#1f77b4;stroke:#1f77b4;" x="88.747255" xlink:href="#mb6acd6423d" y="72.551675"/>
     <use style="fill:#1f77b4;stroke:#1f77b4;" x="94.627251" xlink:href="#mb6acd6423d" y="76.54855"/>
     <use style="fill:#1f77b4;stroke:#1f77b4;" x="227.186073" xlink:href="#mb6acd6423d" y="167.497622"/>
     <use style="fill:#1f77b4;stroke:#1f77b4;" x="118.604544" xlink:href="#mb6acd6423d" y="92.922855"/>
     <use style="fill:#1f77b4;stroke:#1f77b4;" x="62.055816" xlink:href="#mb6acd6423d" y="54.909486"/>
     <use style="fill:#1f77b4;stroke:#1f77b4;" x="157.546169" xlink:href="#mb6acd6423d" y="119.62885"/>
     <use style="fill:#1f77b4;stroke:#1f77b4;" x="60.290484" xlink:href="#mb6acd6423d" y="54.114023"/>
     <use style="fill:#1f77b4;stroke:#1f77b4;" x="61.500301" xlink:href="#mb6acd6423d" y="54.606413"/>
     <use style="fill:#1f77b4;stroke:#1f77b4;" x="63.345439" xlink:href="#mb6acd6423d" y="55.675122"/>
     <use style="fill:#1f77b4;stroke:#1f77b4;" x="173.471939" xlink:href="#mb6acd6423d" y="130.568478"/>
     <use style="fill:#1f77b4;stroke:#1f77b4;" x="238.913665" xlink:href="#mb6acd6423d" y="175.563693"/>
     <use style="fill:#1f77b4;stroke:#1f77b4;" x="58.915004" xlink:href="#mb6acd6423d" y="53.616879"/>
     <use style="fill:#1f77b4;stroke:#1f77b4;" x="58.771548" xlink:href="#mb6acd6423d" y="53.766869"/>
     <use style="fill:#1f77b4;stroke:#1f77b4;" x="161.374096" xlink:href="#mb6acd6423d" y="122.257672"/>
     <use style="fill:#1f77b4;stroke:#1f77b4;" x="58.677692" xlink:href="#mb6acd6423d" y="54.074158"/>
     <use style="fill:#1f77b4;stroke:#1f77b4;" x="221.585059" xlink:href="#mb6acd6423d" y="163.645531"/>
     <use style="fill:#1f77b4;stroke:#1f77b4;" x="101.09453" xlink:href="#mb6acd6423d" y="80.955504"/>
     <use style="fill:#1f77b4;stroke:#1f77b4;" x="58.629976" xlink:href="#mb6acd6423d" y="54.711559"/>
     <use style="fill:#1f77b4;stroke:#1f77b4;" x="108.172043" xlink:href="#mb6acd6423d" y="85.787615"/>
     <use style="fill:#1f77b4;stroke:#1f77b4;" x="165.302405" xlink:href="#mb6acd6423d" y="124.955874"/>
    </g>
   </g>
   <g id="patch_3">
    <path d="M 57.6 307.584 
L 57.6 41.472 
" style="fill:none;stroke:#000000;stroke-linecap:square;stroke-linejoin:miter;stroke-width:0.8;"/>
   </g>
   <g id="patch_4">
    <path d="M 414.72 307.584 
L 414.72 41.472 
" style="fill:none;stroke:#000000;stroke-linecap:square;stroke-linejoin:miter;stroke-width:0.8;"/>
   </g>
   <g id="patch_5">
    <path d="M 57.6 307.584 
L 414.72 307.584 
" style="fill:none;stroke:#000000;stroke-linecap:square;stroke-linejoin:miter;stroke-width:0.8;"/>
   </g>
   <g id="patch_6">
    <path d="M 57.6 41.472 
L 414.72 41.472 
" style="fill:none;stroke:#000000;stroke-linecap:square;stroke-linejoin:miter;stroke-width:0.8;"/>
   </g>
  </g>
 </g>
 <defs>
  <clipPath id="p76d2c9fc9f">
   <rect height="266.112" width="357.12" x="57.6" y="41.472"/>
  </clipPath>
 </defs>
</svg>
