<?xml version="1.0" encoding="utf-8" standalone="no"?>
<!DOCTYPE svg PUBLIC "-//W3C//DTD SVG 1.1//EN"
  "http://www.w3.org/Graphics/SVG/1.1/DTD/svg11.dtd">
<!-- Created with matplotlib (http://matplotlib.org/) -->
<svg height="345pt" version="1.1" viewBox="0 0 460 345" width="460pt" xmlns="http://www.w3.org/2000/svg" xmlns:xlink="http://www.w3.org/1999/xlink">
 <defs>
  <style type="text/css">
*{stroke-linecap:butt;stroke-linejoin:round;}
  </style>
 </defs>
 <g id="figure_1">
  <g id="patch_1">
   <path d="M 0 345.6 
L 460.8 345.6 
L 460.8 0 
L 0 0 
z
" style="fill:#ffffff;"/>
  </g>
  <g id="axes_1">
   <g id="patch_2">
    <path d="M 57.6 307.584 
L 414.72 307.584 
L 414.72 41.472 
L 57.6 41.472 
z
" style="fill:#ffffff;"/>
   </g>
   <g id="matplotlib.axis_1">
    <g id="xtick_1">
     <g id="line2d_1">
      <path clip-path="url(#p39eda3ec5a)" d="M 69.076964 307.584 
L 69.076964 41.472 
" style="fill:none;stroke:#b0b0b0;stroke-linecap:square;stroke-width:0.8;"/>
     </g>
     <g id="line2d_2">
      <defs>
       <path d="M 0 0 
L 0 3.5 
" id="m78c6d2d989" style="stroke:#000000;stroke-width:0.8;"/>
      </defs>
      <g>
       <use style="stroke:#000000;stroke-width:0.8;" x="69.076964" xlink:href="#m78c6d2d989" y="307.584"/>
      </g>
     </g>
     <g id="text_1">
      <!-- −15 -->
      <defs>
       <path d="M 10.59375 35.5 
L 73.1875 35.5 
L 73.1875 27.203125 
L 10.59375 27.203125 
z
" id="DejaVuSans-2212"/>
       <path d="M 12.40625 8.296875 
L 28.515625 8.296875 
L 28.515625 63.921875 
L 10.984375 60.40625 
L 10.984375 69.390625 
L 28.421875 72.90625 
L 38.28125 72.90625 
L 38.28125 8.296875 
L 54.390625 8.296875 
L 54.390625 0 
L 12.40625 0 
z
" id="DejaVuSans-31"/>
       <path d="M 10.796875 72.90625 
L 49.515625 72.90625 
L 49.515625 64.59375 
L 19.828125 64.59375 
L 19.828125 46.734375 
Q 21.96875 47.46875 24.109375 47.828125 
Q 26.265625 48.1875 28.421875 48.1875 
Q 40.625 48.1875 47.75 41.5 
Q 54.890625 34.8125 54.890625 23.390625 
Q 54.890625 11.625 47.5625 5.09375 
Q 40.234375 -1.421875 26.90625 -1.421875 
Q 22.3125 -1.421875 17.546875 -0.640625 
Q 12.796875 0.140625 7.71875 1.703125 
L 7.71875 11.625 
Q 12.109375 9.234375 16.796875 8.0625 
Q 21.484375 6.890625 26.703125 6.890625 
Q 35.15625 6.890625 40.078125 11.328125 
Q 45.015625 15.765625 45.015625 23.390625 
Q 45.015625 31 40.078125 35.4375 
Q 35.15625 39.890625 26.703125 39.890625 
Q 22.75 39.890625 18.8125 39.015625 
Q 14.890625 38.140625 10.796875 36.28125 
z
" id="DejaVuSans-35"/>
      </defs>
      <g transform="translate(58.524621 322.182437)scale(0.1 -0.1)">
       <use xlink:href="#DejaVuSans-2212"/>
       <use x="83.789062" xlink:href="#DejaVuSans-31"/>
       <use x="147.412109" xlink:href="#DejaVuSans-35"/>
      </g>
     </g>
    </g>
    <g id="xtick_2">
     <g id="line2d_3">
      <path clip-path="url(#p39eda3ec5a)" d="M 124.77131 307.584 
L 124.77131 41.472 
" style="fill:none;stroke:#b0b0b0;stroke-linecap:square;stroke-width:0.8;"/>
     </g>
     <g id="line2d_4">
      <g>
       <use style="stroke:#000000;stroke-width:0.8;" x="124.77131" xlink:href="#m78c6d2d989" y="307.584"/>
      </g>
     </g>
     <g id="text_2">
      <!-- −10 -->
      <defs>
       <path d="M 31.78125 66.40625 
Q 24.171875 66.40625 20.328125 58.90625 
Q 16.5 51.421875 16.5 36.375 
Q 16.5 21.390625 20.328125 13.890625 
Q 24.171875 6.390625 31.78125 6.390625 
Q 39.453125 6.390625 43.28125 13.890625 
Q 47.125 21.390625 47.125 36.375 
Q 47.125 51.421875 43.28125 58.90625 
Q 39.453125 66.40625 31.78125 66.40625 
M 31.78125 74.21875 
Q 44.046875 74.21875 50.515625 64.515625 
Q 56.984375 54.828125 56.984375 36.375 
Q 56.984375 17.96875 50.515625 8.265625 
Q 44.046875 -1.421875 31.78125 -1.421875 
Q 19.53125 -1.421875 13.0625 8.265625 
Q 6.59375 17.96875 6.59375 36.375 
Q 6.59375 54.828125 13.0625 64.515625 
Q 19.53125 74.21875 31.78125 74.21875 
" id="DejaVuSans-30"/>
      </defs>
      <g transform="translate(114.218966 322.182437)scale(0.1 -0.1)">
       <use xlink:href="#DejaVuSans-2212"/>
       <use x="83.789062" xlink:href="#DejaVuSans-31"/>
       <use x="147.412109" xlink:href="#DejaVuSans-30"/>
      </g>
     </g>
    </g>
    <g id="xtick_3">
     <g id="line2d_5">
      <path clip-path="url(#p39eda3ec5a)" d="M 180.465655 307.584 
L 180.465655 41.472 
" style="fill:none;stroke:#b0b0b0;stroke-linecap:square;stroke-width:0.8;"/>
     </g>
     <g id="line2d_6">
      <g>
       <use style="stroke:#000000;stroke-width:0.8;" x="180.465655" xlink:href="#m78c6d2d989" y="307.584"/>
      </g>
     </g>
     <g id="text_3">
      <!-- −5 -->
      <g transform="translate(173.094561 322.182437)scale(0.1 -0.1)">
       <use xlink:href="#DejaVuSans-2212"/>
       <use x="83.789062" xlink:href="#DejaVuSans-35"/>
      </g>
     </g>
    </g>
    <g id="xtick_4">
     <g id="line2d_7">
      <path clip-path="url(#p39eda3ec5a)" d="M 236.16 307.584 
L 236.16 41.472 
" style="fill:none;stroke:#b0b0b0;stroke-linecap:square;stroke-width:0.8;"/>
     </g>
     <g id="line2d_8">
      <g>
       <use style="stroke:#000000;stroke-width:0.8;" x="236.16" xlink:href="#m78c6d2d989" y="307.584"/>
      </g>
     </g>
     <g id="text_4">
      <!-- 0 -->
      <g transform="translate(232.97875 322.182437)scale(0.1 -0.1)">
       <use xlink:href="#DejaVuSans-30"/>
      </g>
     </g>
    </g>
    <g id="xtick_5">
     <g id="line2d_9">
      <path clip-path="url(#p39eda3ec5a)" d="M 291.854345 307.584 
L 291.854345 41.472 
" style="fill:none;stroke:#b0b0b0;stroke-linecap:square;stroke-width:0.8;"/>
     </g>
     <g id="line2d_10">
      <g>
       <use style="stroke:#000000;stroke-width:0.8;" x="291.854345" xlink:href="#m78c6d2d989" y="307.584"/>
      </g>
     </g>
     <g id="text_5">
      <!-- 5 -->
      <g transform="translate(288.673095 322.182437)scale(0.1 -0.1)">
       <use xlink:href="#DejaVuSans-35"/>
      </g>
     </g>
    </g>
    <g id="xtick_6">
     <g id="line2d_11">
      <path clip-path="url(#p39eda3ec5a)" d="M 347.54869 307.584 
L 347.54869 41.472 
" style="fill:none;stroke:#b0b0b0;stroke-linecap:square;stroke-width:0.8;"/>
     </g>
     <g id="line2d_12">
      <g>
       <use style="stroke:#000000;stroke-width:0.8;" x="347.54869" xlink:href="#m78c6d2d989" y="307.584"/>
      </g>
     </g>
     <g id="text_6">
      <!-- 10 -->
      <g transform="translate(341.18619 322.182437)scale(0.1 -0.1)">
       <use xlink:href="#DejaVuSans-31"/>
       <use x="63.623047" xlink:href="#DejaVuSans-30"/>
      </g>
     </g>
    </g>
    <g id="xtick_7">
     <g id="line2d_13">
      <path clip-path="url(#p39eda3ec5a)" d="M 403.243036 307.584 
L 403.243036 41.472 
" style="fill:none;stroke:#b0b0b0;stroke-linecap:square;stroke-width:0.8;"/>
     </g>
     <g id="line2d_14">
      <g>
       <use style="stroke:#000000;stroke-width:0.8;" x="403.243036" xlink:href="#m78c6d2d989" y="307.584"/>
      </g>
     </g>
     <g id="text_7">
      <!-- 15 -->
      <g transform="translate(396.880536 322.182437)scale(0.1 -0.1)">
       <use xlink:href="#DejaVuSans-31"/>
       <use x="63.623047" xlink:href="#DejaVuSans-35"/>
      </g>
     </g>
    </g>
    <g id="text_8">
     <!-- $\gamma_i$ -->
     <defs>
      <path d="M 23.296875 46.09375 
L 28.71875 12.3125 
L 54 54.6875 
L 63.53125 54.6875 
L 30.8125 0 
L 26.765625 -20.796875 
L 17.78125 -20.796875 
L 21.828125 0 
L 15.4375 40.828125 
Q 14.453125 46.96875 9.8125 46.96875 
L 7.421875 46.96875 
L 8.890625 54.6875 
L 12.3125 54.6875 
Q 21.921875 54.6875 23.296875 46.09375 
" id="DejaVuSans-Oblique-3b3"/>
      <path d="M 18.3125 75.984375 
L 27.296875 75.984375 
L 25.09375 64.59375 
L 16.109375 64.59375 
z
M 14.203125 54.6875 
L 23.1875 54.6875 
L 12.5 0 
L 3.515625 0 
z
" id="DejaVuSans-Oblique-69"/>
     </defs>
     <g transform="translate(232.06 335.84025)scale(0.1 -0.1)">
      <use transform="translate(0 0.3125)" xlink:href="#DejaVuSans-Oblique-3b3"/>
      <use transform="translate(59.179688 -16.09375)scale(0.7)" xlink:href="#DejaVuSans-Oblique-69"/>
     </g>
    </g>
   </g>
   <g id="matplotlib.axis_2">
    <g id="ytick_1">
     <g id="line2d_15">
      <path clip-path="url(#p39eda3ec5a)" d="M 57.6 278.339544 
L 414.72 278.339544 
" style="fill:none;stroke:#b0b0b0;stroke-linecap:square;stroke-width:0.8;"/>
     </g>
     <g id="line2d_16">
      <defs>
       <path d="M 0 0 
L -3.5 0 
" id="mc02c1bd536" style="stroke:#000000;stroke-width:0.8;"/>
      </defs>
      <g>
       <use style="stroke:#000000;stroke-width:0.8;" x="57.6" xlink:href="#mc02c1bd536" y="278.339544"/>
      </g>
     </g>
     <g id="text_9">
      <!-- ${10^{-46}}$ -->
      <defs>
       <path d="M 37.796875 64.3125 
L 12.890625 25.390625 
L 37.796875 25.390625 
z
M 35.203125 72.90625 
L 47.609375 72.90625 
L 47.609375 25.390625 
L 58.015625 25.390625 
L 58.015625 17.1875 
L 47.609375 17.1875 
L 47.609375 0 
L 37.796875 0 
L 37.796875 17.1875 
L 4.890625 17.1875 
L 4.890625 26.703125 
z
" id="DejaVuSans-34"/>
       <path d="M 33.015625 40.375 
Q 26.375 40.375 22.484375 35.828125 
Q 18.609375 31.296875 18.609375 23.390625 
Q 18.609375 15.53125 22.484375 10.953125 
Q 26.375 6.390625 33.015625 6.390625 
Q 39.65625 6.390625 43.53125 10.953125 
Q 47.40625 15.53125 47.40625 23.390625 
Q 47.40625 31.296875 43.53125 35.828125 
Q 39.65625 40.375 33.015625 40.375 
M 52.59375 71.296875 
L 52.59375 62.3125 
Q 48.875 64.0625 45.09375 64.984375 
Q 41.3125 65.921875 37.59375 65.921875 
Q 27.828125 65.921875 22.671875 59.328125 
Q 17.53125 52.734375 16.796875 39.40625 
Q 19.671875 43.65625 24.015625 45.921875 
Q 28.375 48.1875 33.59375 48.1875 
Q 44.578125 48.1875 50.953125 41.515625 
Q 57.328125 34.859375 57.328125 23.390625 
Q 57.328125 12.15625 50.6875 5.359375 
Q 44.046875 -1.421875 33.015625 -1.421875 
Q 20.359375 -1.421875 13.671875 8.265625 
Q 6.984375 17.96875 6.984375 36.375 
Q 6.984375 53.65625 15.1875 63.9375 
Q 23.390625 74.21875 37.203125 74.21875 
Q 40.921875 74.21875 44.703125 73.484375 
Q 48.484375 72.75 52.59375 71.296875 
" id="DejaVuSans-36"/>
      </defs>
      <g transform="translate(22.7 282.138763)scale(0.1 -0.1)">
       <use transform="translate(0 0.765625)" xlink:href="#DejaVuSans-31"/>
       <use transform="translate(63.623047 0.765625)" xlink:href="#DejaVuSans-30"/>
       <use transform="translate(128.203125 39.046875)scale(0.7)" xlink:href="#DejaVuSans-2212"/>
       <use transform="translate(186.855469 39.046875)scale(0.7)" xlink:href="#DejaVuSans-34"/>
       <use transform="translate(231.391602 39.046875)scale(0.7)" xlink:href="#DejaVuSans-36"/>
      </g>
     </g>
    </g>
    <g id="ytick_2">
     <g id="line2d_17">
      <path clip-path="url(#p39eda3ec5a)" d="M 57.6 248.461134 
L 414.72 248.461134 
" style="fill:none;stroke:#b0b0b0;stroke-linecap:square;stroke-width:0.8;"/>
     </g>
     <g id="line2d_18">
      <g>
       <use style="stroke:#000000;stroke-width:0.8;" x="57.6" xlink:href="#mc02c1bd536" y="248.461134"/>
      </g>
     </g>
     <g id="text_10">
      <!-- ${10^{-40}}$ -->
      <g transform="translate(22.7 252.260353)scale(0.1 -0.1)">
       <use transform="translate(0 0.765625)" xlink:href="#DejaVuSans-31"/>
       <use transform="translate(63.623047 0.765625)" xlink:href="#DejaVuSans-30"/>
       <use transform="translate(128.203125 39.046875)scale(0.7)" xlink:href="#DejaVuSans-2212"/>
       <use transform="translate(186.855469 39.046875)scale(0.7)" xlink:href="#DejaVuSans-34"/>
       <use transform="translate(231.391602 39.046875)scale(0.7)" xlink:href="#DejaVuSans-30"/>
      </g>
     </g>
    </g>
    <g id="ytick_3">
     <g id="line2d_19">
      <path clip-path="url(#p39eda3ec5a)" d="M 57.6 218.582724 
L 414.72 218.582724 
" style="fill:none;stroke:#b0b0b0;stroke-linecap:square;stroke-width:0.8;"/>
     </g>
     <g id="line2d_20">
      <g>
       <use style="stroke:#000000;stroke-width:0.8;" x="57.6" xlink:href="#mc02c1bd536" y="218.582724"/>
      </g>
     </g>
     <g id="text_11">
      <!-- ${10^{-34}}$ -->
      <defs>
       <path d="M 40.578125 39.3125 
Q 47.65625 37.796875 51.625 33 
Q 55.609375 28.21875 55.609375 21.1875 
Q 55.609375 10.40625 48.1875 4.484375 
Q 40.765625 -1.421875 27.09375 -1.421875 
Q 22.515625 -1.421875 17.65625 -0.515625 
Q 12.796875 0.390625 7.625 2.203125 
L 7.625 11.71875 
Q 11.71875 9.328125 16.59375 8.109375 
Q 21.484375 6.890625 26.8125 6.890625 
Q 36.078125 6.890625 40.9375 10.546875 
Q 45.796875 14.203125 45.796875 21.1875 
Q 45.796875 27.640625 41.28125 31.265625 
Q 36.765625 34.90625 28.71875 34.90625 
L 20.21875 34.90625 
L 20.21875 43.015625 
L 29.109375 43.015625 
Q 36.375 43.015625 40.234375 45.921875 
Q 44.09375 48.828125 44.09375 54.296875 
Q 44.09375 59.90625 40.109375 62.90625 
Q 36.140625 65.921875 28.71875 65.921875 
Q 24.65625 65.921875 20.015625 65.03125 
Q 15.375 64.15625 9.8125 62.3125 
L 9.8125 71.09375 
Q 15.4375 72.65625 20.34375 73.4375 
Q 25.25 74.21875 29.59375 74.21875 
Q 40.828125 74.21875 47.359375 69.109375 
Q 53.90625 64.015625 53.90625 55.328125 
Q 53.90625 49.265625 50.4375 45.09375 
Q 46.96875 40.921875 40.578125 39.3125 
" id="DejaVuSans-33"/>
      </defs>
      <g transform="translate(22.7 222.381943)scale(0.1 -0.1)">
       <use transform="translate(0 0.765625)" xlink:href="#DejaVuSans-31"/>
       <use transform="translate(63.623047 0.765625)" xlink:href="#DejaVuSans-30"/>
       <use transform="translate(128.203125 39.046875)scale(0.7)" xlink:href="#DejaVuSans-2212"/>
       <use transform="translate(186.855469 39.046875)scale(0.7)" xlink:href="#DejaVuSans-33"/>
       <use transform="translate(231.391602 39.046875)scale(0.7)" xlink:href="#DejaVuSans-34"/>
      </g>
     </g>
    </g>
    <g id="ytick_4">
     <g id="line2d_21">
      <path clip-path="url(#p39eda3ec5a)" d="M 57.6 188.704314 
L 414.72 188.704314 
" style="fill:none;stroke:#b0b0b0;stroke-linecap:square;stroke-width:0.8;"/>
     </g>
     <g id="line2d_22">
      <g>
       <use style="stroke:#000000;stroke-width:0.8;" x="57.6" xlink:href="#mc02c1bd536" y="188.704314"/>
      </g>
     </g>
     <g id="text_12">
      <!-- ${10^{-28}}$ -->
      <defs>
       <path d="M 19.1875 8.296875 
L 53.609375 8.296875 
L 53.609375 0 
L 7.328125 0 
L 7.328125 8.296875 
Q 12.9375 14.109375 22.625 23.890625 
Q 32.328125 33.6875 34.8125 36.53125 
Q 39.546875 41.84375 41.421875 45.53125 
Q 43.3125 49.21875 43.3125 52.78125 
Q 43.3125 58.59375 39.234375 62.25 
Q 35.15625 65.921875 28.609375 65.921875 
Q 23.96875 65.921875 18.8125 64.3125 
Q 13.671875 62.703125 7.8125 59.421875 
L 7.8125 69.390625 
Q 13.765625 71.78125 18.9375 73 
Q 24.125 74.21875 28.421875 74.21875 
Q 39.75 74.21875 46.484375 68.546875 
Q 53.21875 62.890625 53.21875 53.421875 
Q 53.21875 48.921875 51.53125 44.890625 
Q 49.859375 40.875 45.40625 35.40625 
Q 44.1875 33.984375 37.640625 27.21875 
Q 31.109375 20.453125 19.1875 8.296875 
" id="DejaVuSans-32"/>
       <path d="M 31.78125 34.625 
Q 24.75 34.625 20.71875 30.859375 
Q 16.703125 27.09375 16.703125 20.515625 
Q 16.703125 13.921875 20.71875 10.15625 
Q 24.75 6.390625 31.78125 6.390625 
Q 38.8125 6.390625 42.859375 10.171875 
Q 46.921875 13.96875 46.921875 20.515625 
Q 46.921875 27.09375 42.890625 30.859375 
Q 38.875 34.625 31.78125 34.625 
M 21.921875 38.8125 
Q 15.578125 40.375 12.03125 44.71875 
Q 8.5 49.078125 8.5 55.328125 
Q 8.5 64.0625 14.71875 69.140625 
Q 20.953125 74.21875 31.78125 74.21875 
Q 42.671875 74.21875 48.875 69.140625 
Q 55.078125 64.0625 55.078125 55.328125 
Q 55.078125 49.078125 51.53125 44.71875 
Q 48 40.375 41.703125 38.8125 
Q 48.828125 37.15625 52.796875 32.3125 
Q 56.78125 27.484375 56.78125 20.515625 
Q 56.78125 9.90625 50.3125 4.234375 
Q 43.84375 -1.421875 31.78125 -1.421875 
Q 19.734375 -1.421875 13.25 4.234375 
Q 6.78125 9.90625 6.78125 20.515625 
Q 6.78125 27.484375 10.78125 32.3125 
Q 14.796875 37.15625 21.921875 38.8125 
M 18.3125 54.390625 
Q 18.3125 48.734375 21.84375 45.5625 
Q 25.390625 42.390625 31.78125 42.390625 
Q 38.140625 42.390625 41.71875 45.5625 
Q 45.3125 48.734375 45.3125 54.390625 
Q 45.3125 60.0625 41.71875 63.234375 
Q 38.140625 66.40625 31.78125 66.40625 
Q 25.390625 66.40625 21.84375 63.234375 
Q 18.3125 60.0625 18.3125 54.390625 
" id="DejaVuSans-38"/>
      </defs>
      <g transform="translate(22.7 192.503533)scale(0.1 -0.1)">
       <use transform="translate(0 0.765625)" xlink:href="#DejaVuSans-31"/>
       <use transform="translate(63.623047 0.765625)" xlink:href="#DejaVuSans-30"/>
       <use transform="translate(128.203125 39.046875)scale(0.7)" xlink:href="#DejaVuSans-2212"/>
       <use transform="translate(186.855469 39.046875)scale(0.7)" xlink:href="#DejaVuSans-32"/>
       <use transform="translate(231.391602 39.046875)scale(0.7)" xlink:href="#DejaVuSans-38"/>
      </g>
     </g>
    </g>
    <g id="ytick_5">
     <g id="line2d_23">
      <path clip-path="url(#p39eda3ec5a)" d="M 57.6 158.825905 
L 414.72 158.825905 
" style="fill:none;stroke:#b0b0b0;stroke-linecap:square;stroke-width:0.8;"/>
     </g>
     <g id="line2d_24">
      <g>
       <use style="stroke:#000000;stroke-width:0.8;" x="57.6" xlink:href="#mc02c1bd536" y="158.825905"/>
      </g>
     </g>
     <g id="text_13">
      <!-- ${10^{-22}}$ -->
      <g transform="translate(22.7 162.625123)scale(0.1 -0.1)">
       <use transform="translate(0 0.765625)" xlink:href="#DejaVuSans-31"/>
       <use transform="translate(63.623047 0.765625)" xlink:href="#DejaVuSans-30"/>
       <use transform="translate(128.203125 39.046875)scale(0.7)" xlink:href="#DejaVuSans-2212"/>
       <use transform="translate(186.855469 39.046875)scale(0.7)" xlink:href="#DejaVuSans-32"/>
       <use transform="translate(231.391602 39.046875)scale(0.7)" xlink:href="#DejaVuSans-32"/>
      </g>
     </g>
    </g>
    <g id="ytick_6">
     <g id="line2d_25">
      <path clip-path="url(#p39eda3ec5a)" d="M 57.6 128.947495 
L 414.72 128.947495 
" style="fill:none;stroke:#b0b0b0;stroke-linecap:square;stroke-width:0.8;"/>
     </g>
     <g id="line2d_26">
      <g>
       <use style="stroke:#000000;stroke-width:0.8;" x="57.6" xlink:href="#mc02c1bd536" y="128.947495"/>
      </g>
     </g>
     <g id="text_14">
      <!-- ${10^{-16}}$ -->
      <g transform="translate(22.7 132.746713)scale(0.1 -0.1)">
       <use transform="translate(0 0.765625)" xlink:href="#DejaVuSans-31"/>
       <use transform="translate(63.623047 0.765625)" xlink:href="#DejaVuSans-30"/>
       <use transform="translate(128.203125 39.046875)scale(0.7)" xlink:href="#DejaVuSans-2212"/>
       <use transform="translate(186.855469 39.046875)scale(0.7)" xlink:href="#DejaVuSans-31"/>
       <use transform="translate(231.391602 39.046875)scale(0.7)" xlink:href="#DejaVuSans-36"/>
      </g>
     </g>
    </g>
    <g id="ytick_7">
     <g id="line2d_27">
      <path clip-path="url(#p39eda3ec5a)" d="M 57.6 99.069085 
L 414.72 99.069085 
" style="fill:none;stroke:#b0b0b0;stroke-linecap:square;stroke-width:0.8;"/>
     </g>
     <g id="line2d_28">
      <g>
       <use style="stroke:#000000;stroke-width:0.8;" x="57.6" xlink:href="#mc02c1bd536" y="99.069085"/>
      </g>
     </g>
     <g id="text_15">
      <!-- ${10^{-10}}$ -->
      <g transform="translate(22.7 102.868304)scale(0.1 -0.1)">
       <use transform="translate(0 0.765625)" xlink:href="#DejaVuSans-31"/>
       <use transform="translate(63.623047 0.765625)" xlink:href="#DejaVuSans-30"/>
       <use transform="translate(128.203125 39.046875)scale(0.7)" xlink:href="#DejaVuSans-2212"/>
       <use transform="translate(186.855469 39.046875)scale(0.7)" xlink:href="#DejaVuSans-31"/>
       <use transform="translate(231.391602 39.046875)scale(0.7)" xlink:href="#DejaVuSans-30"/>
      </g>
     </g>
    </g>
    <g id="ytick_8">
     <g id="line2d_29">
      <path clip-path="url(#p39eda3ec5a)" d="M 57.6 69.190675 
L 414.72 69.190675 
" style="fill:none;stroke:#b0b0b0;stroke-linecap:square;stroke-width:0.8;"/>
     </g>
     <g id="line2d_30">
      <g>
       <use style="stroke:#000000;stroke-width:0.8;" x="57.6" xlink:href="#mc02c1bd536" y="69.190675"/>
      </g>
     </g>
     <g id="text_16">
      <!-- ${10^{-4}}$ -->
      <g transform="translate(27.1 72.989894)scale(0.1 -0.1)">
       <use transform="translate(0 0.684375)" xlink:href="#DejaVuSans-31"/>
       <use transform="translate(63.623047 0.684375)" xlink:href="#DejaVuSans-30"/>
       <use transform="translate(128.203125 38.965625)scale(0.7)" xlink:href="#DejaVuSans-2212"/>
       <use transform="translate(186.855469 38.965625)scale(0.7)" xlink:href="#DejaVuSans-34"/>
      </g>
     </g>
    </g>
    <g id="text_17">
     <!-- $\omega_i$ -->
     <defs>
      <path d="M 21.390625 -1.421875 
Q 1.125 -1.421875 6.78125 27.59375 
Q 8.984375 39.0625 19.625 54.6875 
L 29.296875 54.6875 
Q 19.234375 39.0625 17 27.34375 
Q 12.796875 6.203125 23.734375 6.203125 
Q 33.84375 6.203125 38.71875 32.46875 
L 47.015625 32.46875 
Q 41.703125 6.0625 51.8125 6.203125 
Q 62.703125 6.296875 66.796875 27.34375 
Q 69.046875 39.0625 65.140625 54.6875 
L 74.8125 54.6875 
Q 79.296875 39.0625 77.09375 27.59375 
Q 71.53125 -1.46875 51.21875 -1.421875 
Q 37.9375 -1.375 39.109375 13.1875 
Q 34.28125 -1.421875 21.390625 -1.421875 
" id="DejaVuSans-Oblique-3c9"/>
     </defs>
     <g transform="translate(16.620312 179.828)rotate(-90)scale(0.1 -0.1)">
      <use transform="translate(0 0.3125)" xlink:href="#DejaVuSans-Oblique-3c9"/>
      <use transform="translate(83.740234 -16.09375)scale(0.7)" xlink:href="#DejaVuSans-Oblique-69"/>
     </g>
    </g>
   </g>
   <g id="line2d_31">
    <defs>
     <path d="M 0 3 
C 0.795609 3 1.55874 2.683901 2.12132 2.12132 
C 2.683901 1.55874 3 0.795609 3 0 
C 3 -0.795609 2.683901 -1.55874 2.12132 -2.12132 
C 1.55874 -2.683901 0.795609 -3 0 -3 
C -0.795609 -3 -1.55874 -2.683901 -2.12132 -2.12132 
C -2.683901 -1.55874 -3 -0.795609 -3 0 
C -3 0.795609 -2.683901 1.55874 -2.12132 2.12132 
C -1.55874 2.683901 -0.795609 3 0 3 
z
" id="m4041da780e" style="stroke:#1f77b4;"/>
    </defs>
    <g clip-path="url(#p39eda3ec5a)">
     <use style="fill:#1f77b4;stroke:#1f77b4;" x="385.49465" xlink:href="#m4041da780e" y="246.421701"/>
     <use style="fill:#1f77b4;stroke:#1f77b4;" x="403.581131" xlink:href="#m4041da780e" y="295.488"/>
     <use style="fill:#1f77b4;stroke:#1f77b4;" x="312.428718" xlink:href="#m4041da780e" y="103.809285"/>
     <use style="fill:#1f77b4;stroke:#1f77b4;" x="371.453158" xlink:href="#m4041da780e" y="211.945412"/>
     <use style="fill:#1f77b4;stroke:#1f77b4;" x="393.683945" xlink:href="#m4041da780e" y="268.021598"/>
     <use style="fill:#1f77b4;stroke:#1f77b4;" x="267.021149" xlink:href="#m4041da780e" y="61.700091"/>
     <use style="fill:#1f77b4;stroke:#1f77b4;" x="342.367333" xlink:href="#m4041da780e" y="151.163208"/>
     <use style="fill:#1f77b4;stroke:#1f77b4;" x="289.702448" xlink:href="#m4041da780e" y="78.294369"/>
     <use style="fill:#1f77b4;stroke:#1f77b4;" x="250.95826" xlink:href="#m4041da780e" y="55.528527"/>
     <use style="fill:#1f77b4;stroke:#1f77b4;" x="359.107012" xlink:href="#m4041da780e" y="184.377716"/>
     <use style="fill:#1f77b4;stroke:#1f77b4;" x="378.18918" xlink:href="#m4041da780e" y="228.074086"/>
     <use style="fill:#1f77b4;stroke:#1f77b4;" x="353.33608" xlink:href="#m4041da780e" y="172.383888"/>
     <use style="fill:#1f77b4;stroke:#1f77b4;" x="307.738512" xlink:href="#m4041da780e" y="97.798005"/>
     <use style="fill:#1f77b4;stroke:#1f77b4;" x="281.685986" xlink:href="#m4041da780e" y="71.84153"/>
     <use style="fill:#1f77b4;stroke:#1f77b4;" x="317.190933" xlink:href="#m4041da780e" y="110.303902"/>
     <use style="fill:#1f77b4;stroke:#1f77b4;" x="285.492567" xlink:href="#m4041da780e" y="74.647738"/>
     <use style="fill:#1f77b4;stroke:#1f77b4;" x="262.88323" xlink:href="#m4041da780e" y="59.630925"/>
     <use style="fill:#1f77b4;stroke:#1f77b4;" x="347.767166" xlink:href="#m4041da780e" y="161.351468"/>
     <use style="fill:#1f77b4;stroke:#1f77b4;" x="365.12476" xlink:href="#m4041da780e" y="197.490821"/>
     <use style="fill:#1f77b4;stroke:#1f77b4;" x="337.111513" xlink:href="#m4041da780e" y="141.729064"/>
     <use style="fill:#1f77b4;stroke:#1f77b4;" x="254.792454" xlink:href="#m4041da780e" y="56.54073"/>
     <use style="fill:#1f77b4;stroke:#1f77b4;" x="243.686364" xlink:href="#m4041da780e" y="54.1654"/>
     <use style="fill:#1f77b4;stroke:#1f77b4;" x="303.116648" xlink:href="#m4041da780e" y="92.24932"/>
     <use style="fill:#1f77b4;stroke:#1f77b4;" x="294.083887" xlink:href="#m4041da780e" y="82.491144"/>
     <use style="fill:#1f77b4;stroke:#1f77b4;" x="258.788107" xlink:href="#m4041da780e" y="57.906647"/>
     <use style="fill:#1f77b4;stroke:#1f77b4;" x="322.031184" xlink:href="#m4041da780e" y="117.307962"/>
     <use style="fill:#1f77b4;stroke:#1f77b4;" x="331.980112" xlink:href="#m4041da780e" y="132.978083"/>
     <use style="fill:#1f77b4;stroke:#1f77b4;" x="278.480824" xlink:href="#m4041da780e" y="69.61485"/>
     <use style="fill:#1f77b4;stroke:#1f77b4;" x="271.133799" xlink:href="#m4041da780e" y="64.100577"/>
     <use style="fill:#1f77b4;stroke:#1f77b4;" x="326.957528" xlink:href="#m4041da780e" y="124.853231"/>
     <use style="fill:#1f77b4;stroke:#1f77b4;" x="298.562941" xlink:href="#m4041da780e" y="87.148653"/>
     <use style="fill:#1f77b4;stroke:#1f77b4;" x="247.298869" xlink:href="#m4041da780e" y="54.780993"/>
     <use style="fill:#1f77b4;stroke:#1f77b4;" x="275.064915" xlink:href="#m4041da780e" y="66.814222"/>
     <use style="fill:#1f77b4;stroke:#1f77b4;" x="225.021131" xlink:href="#m4041da780e" y="54.780993"/>
     <use style="fill:#1f77b4;stroke:#1f77b4;" x="113.212988" xlink:href="#m4041da780e" y="184.377716"/>
     <use style="fill:#1f77b4;stroke:#1f77b4;" x="86.82535" xlink:href="#m4041da780e" y="246.421701"/>
     <use style="fill:#1f77b4;stroke:#1f77b4;" x="78.636055" xlink:href="#m4041da780e" y="268.021598"/>
     <use style="fill:#1f77b4;stroke:#1f77b4;" x="68.738869" xlink:href="#m4041da780e" y="295.488"/>
     <use style="fill:#1f77b4;stroke:#1f77b4;" x="129.952667" xlink:href="#m4041da780e" y="151.163208"/>
     <use style="fill:#1f77b4;stroke:#1f77b4;" x="124.552834" xlink:href="#m4041da780e" y="161.351468"/>
     <use style="fill:#1f77b4;stroke:#1f77b4;" x="100.866842" xlink:href="#m4041da780e" y="211.945412"/>
     <use style="fill:#1f77b4;stroke:#1f77b4;" x="155.129067" xlink:href="#m4041da780e" y="110.303902"/>
     <use style="fill:#1f77b4;stroke:#1f77b4;" x="197.255085" xlink:href="#m4041da780e" y="66.814222"/>
     <use style="fill:#1f77b4;stroke:#1f77b4;" x="145.362472" xlink:href="#m4041da780e" y="124.853231"/>
     <use style="fill:#1f77b4;stroke:#1f77b4;" x="118.98392" xlink:href="#m4041da780e" y="172.383888"/>
     <use style="fill:#1f77b4;stroke:#1f77b4;" x="107.19524" xlink:href="#m4041da780e" y="197.490821"/>
     <use style="fill:#1f77b4;stroke:#1f77b4;" x="159.891282" xlink:href="#m4041da780e" y="103.809285"/>
     <use style="fill:#1f77b4;stroke:#1f77b4;" x="228.633636" xlink:href="#m4041da780e" y="54.1654"/>
     <use style="fill:#1f77b4;stroke:#1f77b4;" x="201.186201" xlink:href="#m4041da780e" y="64.100577"/>
     <use style="fill:#1f77b4;stroke:#1f77b4;" x="173.757059" xlink:href="#m4041da780e" y="87.148653"/>
     <use style="fill:#1f77b4;stroke:#1f77b4;" x="221.36174" xlink:href="#m4041da780e" y="55.528527"/>
     <use style="fill:#1f77b4;stroke:#1f77b4;" x="94.13082" xlink:href="#m4041da780e" y="228.074086"/>
     <use style="fill:#1f77b4;stroke:#1f77b4;" x="213.531893" xlink:href="#m4041da780e" y="57.906647"/>
     <use style="fill:#1f77b4;stroke:#1f77b4;" x="217.527546" xlink:href="#m4041da780e" y="56.54073"/>
     <use style="fill:#1f77b4;stroke:#1f77b4;" x="178.236113" xlink:href="#m4041da780e" y="82.491144"/>
     <use style="fill:#1f77b4;stroke:#1f77b4;" x="150.288816" xlink:href="#m4041da780e" y="117.307962"/>
     <use style="fill:#1f77b4;stroke:#1f77b4;" x="236.16" xlink:href="#m4041da780e" y="53.568"/>
     <use style="fill:#1f77b4;stroke:#1f77b4;" x="186.827433" xlink:href="#m4041da780e" y="74.647738"/>
     <use style="fill:#1f77b4;stroke:#1f77b4;" x="193.839176" xlink:href="#m4041da780e" y="69.61485"/>
     <use style="fill:#1f77b4;stroke:#1f77b4;" x="182.617552" xlink:href="#m4041da780e" y="78.294369"/>
     <use style="fill:#1f77b4;stroke:#1f77b4;" x="135.208487" xlink:href="#m4041da780e" y="141.729064"/>
     <use style="fill:#1f77b4;stroke:#1f77b4;" x="239.971581" xlink:href="#m4041da780e" y="53.725321"/>
     <use style="fill:#1f77b4;stroke:#1f77b4;" x="169.203352" xlink:href="#m4041da780e" y="92.24932"/>
     <use style="fill:#1f77b4;stroke:#1f77b4;" x="209.43677" xlink:href="#m4041da780e" y="59.630925"/>
     <use style="fill:#1f77b4;stroke:#1f77b4;" x="232.348419" xlink:href="#m4041da780e" y="53.725321"/>
     <use style="fill:#1f77b4;stroke:#1f77b4;" x="164.581488" xlink:href="#m4041da780e" y="97.798005"/>
     <use style="fill:#1f77b4;stroke:#1f77b4;" x="140.339888" xlink:href="#m4041da780e" y="132.978083"/>
     <use style="fill:#1f77b4;stroke:#1f77b4;" x="190.634014" xlink:href="#m4041da780e" y="71.84153"/>
     <use style="fill:#1f77b4;stroke:#1f77b4;" x="205.298851" xlink:href="#m4041da780e" y="61.700091"/>
    </g>
   </g>
   <g id="patch_3">
    <path d="M 57.6 307.584 
L 57.6 41.472 
" style="fill:none;stroke:#000000;stroke-linecap:square;stroke-linejoin:miter;stroke-width:0.8;"/>
   </g>
   <g id="patch_4">
    <path d="M 414.72 307.584 
L 414.72 41.472 
" style="fill:none;stroke:#000000;stroke-linecap:square;stroke-linejoin:miter;stroke-width:0.8;"/>
   </g>
   <g id="patch_5">
    <path d="M 57.6 307.584 
L 414.72 307.584 
" style="fill:none;stroke:#000000;stroke-linecap:square;stroke-linejoin:miter;stroke-width:0.8;"/>
   </g>
   <g id="patch_6">
    <path d="M 57.6 41.472 
L 414.72 41.472 
" style="fill:none;stroke:#000000;stroke-linecap:square;stroke-linejoin:miter;stroke-width:0.8;"/>
   </g>
  </g>
 </g>
 <defs>
  <clipPath id="p39eda3ec5a">
   <rect height="266.112" width="357.12" x="57.6" y="41.472"/>
  </clipPath>
 </defs>
</svg>
