<?xml version="1.0" encoding="utf-8" standalone="no"?>
<!DOCTYPE svg PUBLIC "-//W3C//DTD SVG 1.1//EN"
  "http://www.w3.org/Graphics/SVG/1.1/DTD/svg11.dtd">
<!-- Created with matplotlib (http://matplotlib.org/) -->
<svg height="345pt" version="1.1" viewBox="0 0 460 345" width="460pt" xmlns="http://www.w3.org/2000/svg" xmlns:xlink="http://www.w3.org/1999/xlink">
 <defs>
  <style type="text/css">
*{stroke-linecap:butt;stroke-linejoin:round;}
  </style>
 </defs>
 <g id="figure_1">
  <g id="patch_1">
   <path d="M 0 345.6 
L 460.8 345.6 
L 460.8 0 
L 0 0 
z
" style="fill:#ffffff;"/>
  </g>
  <g id="axes_1">
   <g id="patch_2">
    <path d="M 57.6 307.584 
L 414.72 307.584 
L 414.72 41.472 
L 57.6 41.472 
z
" style="fill:#ffffff;"/>
   </g>
   <g id="matplotlib.axis_1">
    <g id="xtick_1">
     <g id="line2d_1">
      <path clip-path="url(#p35b25eec05)" d="M 60.236316 307.584 
L 60.236316 41.472 
" style="fill:none;stroke:#b0b0b0;stroke-linecap:square;stroke-width:0.8;"/>
     </g>
     <g id="line2d_2">
      <defs>
       <path d="M 0 0 
L 0 3.5 
" id="mece494575a" style="stroke:#000000;stroke-width:0.8;"/>
      </defs>
      <g>
       <use style="stroke:#000000;stroke-width:0.8;" x="60.236316" xlink:href="#mece494575a" y="307.584"/>
      </g>
     </g>
     <g id="text_1">
      <!-- −20 -->
      <defs>
       <path d="M 10.59375 35.5 
L 73.1875 35.5 
L 73.1875 27.203125 
L 10.59375 27.203125 
z
" id="DejaVuSans-2212"/>
       <path d="M 19.1875 8.296875 
L 53.609375 8.296875 
L 53.609375 0 
L 7.328125 0 
L 7.328125 8.296875 
Q 12.9375 14.109375 22.625 23.890625 
Q 32.328125 33.6875 34.8125 36.53125 
Q 39.546875 41.84375 41.421875 45.53125 
Q 43.3125 49.21875 43.3125 52.78125 
Q 43.3125 58.59375 39.234375 62.25 
Q 35.15625 65.921875 28.609375 65.921875 
Q 23.96875 65.921875 18.8125 64.3125 
Q 13.671875 62.703125 7.8125 59.421875 
L 7.8125 69.390625 
Q 13.765625 71.78125 18.9375 73 
Q 24.125 74.21875 28.421875 74.21875 
Q 39.75 74.21875 46.484375 68.546875 
Q 53.21875 62.890625 53.21875 53.421875 
Q 53.21875 48.921875 51.53125 44.890625 
Q 49.859375 40.875 45.40625 35.40625 
Q 44.1875 33.984375 37.640625 27.21875 
Q 31.109375 20.453125 19.1875 8.296875 
" id="DejaVuSans-32"/>
       <path d="M 31.78125 66.40625 
Q 24.171875 66.40625 20.328125 58.90625 
Q 16.5 51.421875 16.5 36.375 
Q 16.5 21.390625 20.328125 13.890625 
Q 24.171875 6.390625 31.78125 6.390625 
Q 39.453125 6.390625 43.28125 13.890625 
Q 47.125 21.390625 47.125 36.375 
Q 47.125 51.421875 43.28125 58.90625 
Q 39.453125 66.40625 31.78125 66.40625 
M 31.78125 74.21875 
Q 44.046875 74.21875 50.515625 64.515625 
Q 56.984375 54.828125 56.984375 36.375 
Q 56.984375 17.96875 50.515625 8.265625 
Q 44.046875 -1.421875 31.78125 -1.421875 
Q 19.53125 -1.421875 13.0625 8.265625 
Q 6.59375 17.96875 6.59375 36.375 
Q 6.59375 54.828125 13.0625 64.515625 
Q 19.53125 74.21875 31.78125 74.21875 
" id="DejaVuSans-30"/>
      </defs>
      <g transform="translate(49.683972 322.182437)scale(0.1 -0.1)">
       <use xlink:href="#DejaVuSans-2212"/>
       <use x="83.789062" xlink:href="#DejaVuSans-32"/>
       <use x="147.412109" xlink:href="#DejaVuSans-30"/>
      </g>
     </g>
    </g>
    <g id="xtick_2">
     <g id="line2d_3">
      <path clip-path="url(#p35b25eec05)" d="M 104.217237 307.584 
L 104.217237 41.472 
" style="fill:none;stroke:#b0b0b0;stroke-linecap:square;stroke-width:0.8;"/>
     </g>
     <g id="line2d_4">
      <g>
       <use style="stroke:#000000;stroke-width:0.8;" x="104.217237" xlink:href="#mece494575a" y="307.584"/>
      </g>
     </g>
     <g id="text_2">
      <!-- −15 -->
      <defs>
       <path d="M 12.40625 8.296875 
L 28.515625 8.296875 
L 28.515625 63.921875 
L 10.984375 60.40625 
L 10.984375 69.390625 
L 28.421875 72.90625 
L 38.28125 72.90625 
L 38.28125 8.296875 
L 54.390625 8.296875 
L 54.390625 0 
L 12.40625 0 
z
" id="DejaVuSans-31"/>
       <path d="M 10.796875 72.90625 
L 49.515625 72.90625 
L 49.515625 64.59375 
L 19.828125 64.59375 
L 19.828125 46.734375 
Q 21.96875 47.46875 24.109375 47.828125 
Q 26.265625 48.1875 28.421875 48.1875 
Q 40.625 48.1875 47.75 41.5 
Q 54.890625 34.8125 54.890625 23.390625 
Q 54.890625 11.625 47.5625 5.09375 
Q 40.234375 -1.421875 26.90625 -1.421875 
Q 22.3125 -1.421875 17.546875 -0.640625 
Q 12.796875 0.140625 7.71875 1.703125 
L 7.71875 11.625 
Q 12.109375 9.234375 16.796875 8.0625 
Q 21.484375 6.890625 26.703125 6.890625 
Q 35.15625 6.890625 40.078125 11.328125 
Q 45.015625 15.765625 45.015625 23.390625 
Q 45.015625 31 40.078125 35.4375 
Q 35.15625 39.890625 26.703125 39.890625 
Q 22.75 39.890625 18.8125 39.015625 
Q 14.890625 38.140625 10.796875 36.28125 
z
" id="DejaVuSans-35"/>
      </defs>
      <g transform="translate(93.664893 322.182437)scale(0.1 -0.1)">
       <use xlink:href="#DejaVuSans-2212"/>
       <use x="83.789062" xlink:href="#DejaVuSans-31"/>
       <use x="147.412109" xlink:href="#DejaVuSans-35"/>
      </g>
     </g>
    </g>
    <g id="xtick_3">
     <g id="line2d_5">
      <path clip-path="url(#p35b25eec05)" d="M 148.198158 307.584 
L 148.198158 41.472 
" style="fill:none;stroke:#b0b0b0;stroke-linecap:square;stroke-width:0.8;"/>
     </g>
     <g id="line2d_6">
      <g>
       <use style="stroke:#000000;stroke-width:0.8;" x="148.198158" xlink:href="#mece494575a" y="307.584"/>
      </g>
     </g>
     <g id="text_3">
      <!-- −10 -->
      <g transform="translate(137.645814 322.182437)scale(0.1 -0.1)">
       <use xlink:href="#DejaVuSans-2212"/>
       <use x="83.789062" xlink:href="#DejaVuSans-31"/>
       <use x="147.412109" xlink:href="#DejaVuSans-30"/>
      </g>
     </g>
    </g>
    <g id="xtick_4">
     <g id="line2d_7">
      <path clip-path="url(#p35b25eec05)" d="M 192.179079 307.584 
L 192.179079 41.472 
" style="fill:none;stroke:#b0b0b0;stroke-linecap:square;stroke-width:0.8;"/>
     </g>
     <g id="line2d_8">
      <g>
       <use style="stroke:#000000;stroke-width:0.8;" x="192.179079" xlink:href="#mece494575a" y="307.584"/>
      </g>
     </g>
     <g id="text_4">
      <!-- −5 -->
      <g transform="translate(184.807985 322.182437)scale(0.1 -0.1)">
       <use xlink:href="#DejaVuSans-2212"/>
       <use x="83.789062" xlink:href="#DejaVuSans-35"/>
      </g>
     </g>
    </g>
    <g id="xtick_5">
     <g id="line2d_9">
      <path clip-path="url(#p35b25eec05)" d="M 236.16 307.584 
L 236.16 41.472 
" style="fill:none;stroke:#b0b0b0;stroke-linecap:square;stroke-width:0.8;"/>
     </g>
     <g id="line2d_10">
      <g>
       <use style="stroke:#000000;stroke-width:0.8;" x="236.16" xlink:href="#mece494575a" y="307.584"/>
      </g>
     </g>
     <g id="text_5">
      <!-- 0 -->
      <g transform="translate(232.97875 322.182437)scale(0.1 -0.1)">
       <use xlink:href="#DejaVuSans-30"/>
      </g>
     </g>
    </g>
    <g id="xtick_6">
     <g id="line2d_11">
      <path clip-path="url(#p35b25eec05)" d="M 280.140921 307.584 
L 280.140921 41.472 
" style="fill:none;stroke:#b0b0b0;stroke-linecap:square;stroke-width:0.8;"/>
     </g>
     <g id="line2d_12">
      <g>
       <use style="stroke:#000000;stroke-width:0.8;" x="280.140921" xlink:href="#mece494575a" y="307.584"/>
      </g>
     </g>
     <g id="text_6">
      <!-- 5 -->
      <g transform="translate(276.959671 322.182437)scale(0.1 -0.1)">
       <use xlink:href="#DejaVuSans-35"/>
      </g>
     </g>
    </g>
    <g id="xtick_7">
     <g id="line2d_13">
      <path clip-path="url(#p35b25eec05)" d="M 324.121842 307.584 
L 324.121842 41.472 
" style="fill:none;stroke:#b0b0b0;stroke-linecap:square;stroke-width:0.8;"/>
     </g>
     <g id="line2d_14">
      <g>
       <use style="stroke:#000000;stroke-width:0.8;" x="324.121842" xlink:href="#mece494575a" y="307.584"/>
      </g>
     </g>
     <g id="text_7">
      <!-- 10 -->
      <g transform="translate(317.759342 322.182437)scale(0.1 -0.1)">
       <use xlink:href="#DejaVuSans-31"/>
       <use x="63.623047" xlink:href="#DejaVuSans-30"/>
      </g>
     </g>
    </g>
    <g id="xtick_8">
     <g id="line2d_15">
      <path clip-path="url(#p35b25eec05)" d="M 368.102763 307.584 
L 368.102763 41.472 
" style="fill:none;stroke:#b0b0b0;stroke-linecap:square;stroke-width:0.8;"/>
     </g>
     <g id="line2d_16">
      <g>
       <use style="stroke:#000000;stroke-width:0.8;" x="368.102763" xlink:href="#mece494575a" y="307.584"/>
      </g>
     </g>
     <g id="text_8">
      <!-- 15 -->
      <g transform="translate(361.740263 322.182437)scale(0.1 -0.1)">
       <use xlink:href="#DejaVuSans-31"/>
       <use x="63.623047" xlink:href="#DejaVuSans-35"/>
      </g>
     </g>
    </g>
    <g id="xtick_9">
     <g id="line2d_17">
      <path clip-path="url(#p35b25eec05)" d="M 412.083684 307.584 
L 412.083684 41.472 
" style="fill:none;stroke:#b0b0b0;stroke-linecap:square;stroke-width:0.8;"/>
     </g>
     <g id="line2d_18">
      <g>
       <use style="stroke:#000000;stroke-width:0.8;" x="412.083684" xlink:href="#mece494575a" y="307.584"/>
      </g>
     </g>
     <g id="text_9">
      <!-- 20 -->
      <g transform="translate(405.721184 322.182437)scale(0.1 -0.1)">
       <use xlink:href="#DejaVuSans-32"/>
       <use x="63.623047" xlink:href="#DejaVuSans-30"/>
      </g>
     </g>
    </g>
    <g id="text_10">
     <!-- $\gamma_i$ -->
     <defs>
      <path d="M 23.296875 46.09375 
L 28.71875 12.3125 
L 54 54.6875 
L 63.53125 54.6875 
L 30.8125 0 
L 26.765625 -20.796875 
L 17.78125 -20.796875 
L 21.828125 0 
L 15.4375 40.828125 
Q 14.453125 46.96875 9.8125 46.96875 
L 7.421875 46.96875 
L 8.890625 54.6875 
L 12.3125 54.6875 
Q 21.921875 54.6875 23.296875 46.09375 
" id="DejaVuSans-Oblique-3b3"/>
      <path d="M 18.3125 75.984375 
L 27.296875 75.984375 
L 25.09375 64.59375 
L 16.109375 64.59375 
z
M 14.203125 54.6875 
L 23.1875 54.6875 
L 12.5 0 
L 3.515625 0 
z
" id="DejaVuSans-Oblique-69"/>
     </defs>
     <g transform="translate(232.06 335.84025)scale(0.1 -0.1)">
      <use transform="translate(0 0.3125)" xlink:href="#DejaVuSans-Oblique-3b3"/>
      <use transform="translate(59.179688 -16.09375)scale(0.7)" xlink:href="#DejaVuSans-Oblique-69"/>
     </g>
    </g>
   </g>
   <g id="matplotlib.axis_2">
    <g id="ytick_1">
     <g id="line2d_19">
      <path clip-path="url(#p35b25eec05)" d="M 57.6 279.504331 
L 414.72 279.504331 
" style="fill:none;stroke:#b0b0b0;stroke-linecap:square;stroke-width:0.8;"/>
     </g>
     <g id="line2d_20">
      <defs>
       <path d="M 0 0 
L -3.5 0 
" id="m6bf6636805" style="stroke:#000000;stroke-width:0.8;"/>
      </defs>
      <g>
       <use style="stroke:#000000;stroke-width:0.8;" x="57.6" xlink:href="#m6bf6636805" y="279.504331"/>
      </g>
     </g>
     <g id="text_11">
      <!-- ${10^{-76}}$ -->
      <defs>
       <path d="M 8.203125 72.90625 
L 55.078125 72.90625 
L 55.078125 68.703125 
L 28.609375 0 
L 18.3125 0 
L 43.21875 64.59375 
L 8.203125 64.59375 
z
" id="DejaVuSans-37"/>
       <path d="M 33.015625 40.375 
Q 26.375 40.375 22.484375 35.828125 
Q 18.609375 31.296875 18.609375 23.390625 
Q 18.609375 15.53125 22.484375 10.953125 
Q 26.375 6.390625 33.015625 6.390625 
Q 39.65625 6.390625 43.53125 10.953125 
Q 47.40625 15.53125 47.40625 23.390625 
Q 47.40625 31.296875 43.53125 35.828125 
Q 39.65625 40.375 33.015625 40.375 
M 52.59375 71.296875 
L 52.59375 62.3125 
Q 48.875 64.0625 45.09375 64.984375 
Q 41.3125 65.921875 37.59375 65.921875 
Q 27.828125 65.921875 22.671875 59.328125 
Q 17.53125 52.734375 16.796875 39.40625 
Q 19.671875 43.65625 24.015625 45.921875 
Q 28.375 48.1875 33.59375 48.1875 
Q 44.578125 48.1875 50.953125 41.515625 
Q 57.328125 34.859375 57.328125 23.390625 
Q 57.328125 12.15625 50.6875 5.359375 
Q 44.046875 -1.421875 33.015625 -1.421875 
Q 20.359375 -1.421875 13.671875 8.265625 
Q 6.984375 17.96875 6.984375 36.375 
Q 6.984375 53.65625 15.1875 63.9375 
Q 23.390625 74.21875 37.203125 74.21875 
Q 40.921875 74.21875 44.703125 73.484375 
Q 48.484375 72.75 52.59375 71.296875 
" id="DejaVuSans-36"/>
      </defs>
      <g transform="translate(22.7 283.30355)scale(0.1 -0.1)">
       <use transform="translate(0 0.765625)" xlink:href="#DejaVuSans-31"/>
       <use transform="translate(63.623047 0.765625)" xlink:href="#DejaVuSans-30"/>
       <use transform="translate(128.203125 39.046875)scale(0.7)" xlink:href="#DejaVuSans-2212"/>
       <use transform="translate(186.855469 39.046875)scale(0.7)" xlink:href="#DejaVuSans-37"/>
       <use transform="translate(231.391602 39.046875)scale(0.7)" xlink:href="#DejaVuSans-36"/>
      </g>
     </g>
    </g>
    <g id="ytick_2">
     <g id="line2d_21">
      <path clip-path="url(#p35b25eec05)" d="M 57.6 249.377533 
L 414.72 249.377533 
" style="fill:none;stroke:#b0b0b0;stroke-linecap:square;stroke-width:0.8;"/>
     </g>
     <g id="line2d_22">
      <g>
       <use style="stroke:#000000;stroke-width:0.8;" x="57.6" xlink:href="#m6bf6636805" y="249.377533"/>
      </g>
     </g>
     <g id="text_12">
      <!-- ${10^{-66}}$ -->
      <g transform="translate(22.7 253.176752)scale(0.1 -0.1)">
       <use transform="translate(0 0.765625)" xlink:href="#DejaVuSans-31"/>
       <use transform="translate(63.623047 0.765625)" xlink:href="#DejaVuSans-30"/>
       <use transform="translate(128.203125 39.046875)scale(0.7)" xlink:href="#DejaVuSans-2212"/>
       <use transform="translate(186.855469 39.046875)scale(0.7)" xlink:href="#DejaVuSans-36"/>
       <use transform="translate(231.391602 39.046875)scale(0.7)" xlink:href="#DejaVuSans-36"/>
      </g>
     </g>
    </g>
    <g id="ytick_3">
     <g id="line2d_23">
      <path clip-path="url(#p35b25eec05)" d="M 57.6 219.250736 
L 414.72 219.250736 
" style="fill:none;stroke:#b0b0b0;stroke-linecap:square;stroke-width:0.8;"/>
     </g>
     <g id="line2d_24">
      <g>
       <use style="stroke:#000000;stroke-width:0.8;" x="57.6" xlink:href="#m6bf6636805" y="219.250736"/>
      </g>
     </g>
     <g id="text_13">
      <!-- ${10^{-56}}$ -->
      <g transform="translate(22.7 223.049955)scale(0.1 -0.1)">
       <use transform="translate(0 0.765625)" xlink:href="#DejaVuSans-31"/>
       <use transform="translate(63.623047 0.765625)" xlink:href="#DejaVuSans-30"/>
       <use transform="translate(128.203125 39.046875)scale(0.7)" xlink:href="#DejaVuSans-2212"/>
       <use transform="translate(186.855469 39.046875)scale(0.7)" xlink:href="#DejaVuSans-35"/>
       <use transform="translate(231.391602 39.046875)scale(0.7)" xlink:href="#DejaVuSans-36"/>
      </g>
     </g>
    </g>
    <g id="ytick_4">
     <g id="line2d_25">
      <path clip-path="url(#p35b25eec05)" d="M 57.6 189.123938 
L 414.72 189.123938 
" style="fill:none;stroke:#b0b0b0;stroke-linecap:square;stroke-width:0.8;"/>
     </g>
     <g id="line2d_26">
      <g>
       <use style="stroke:#000000;stroke-width:0.8;" x="57.6" xlink:href="#m6bf6636805" y="189.123938"/>
      </g>
     </g>
     <g id="text_14">
      <!-- ${10^{-46}}$ -->
      <defs>
       <path d="M 37.796875 64.3125 
L 12.890625 25.390625 
L 37.796875 25.390625 
z
M 35.203125 72.90625 
L 47.609375 72.90625 
L 47.609375 25.390625 
L 58.015625 25.390625 
L 58.015625 17.1875 
L 47.609375 17.1875 
L 47.609375 0 
L 37.796875 0 
L 37.796875 17.1875 
L 4.890625 17.1875 
L 4.890625 26.703125 
z
" id="DejaVuSans-34"/>
      </defs>
      <g transform="translate(22.7 192.923157)scale(0.1 -0.1)">
       <use transform="translate(0 0.765625)" xlink:href="#DejaVuSans-31"/>
       <use transform="translate(63.623047 0.765625)" xlink:href="#DejaVuSans-30"/>
       <use transform="translate(128.203125 39.046875)scale(0.7)" xlink:href="#DejaVuSans-2212"/>
       <use transform="translate(186.855469 39.046875)scale(0.7)" xlink:href="#DejaVuSans-34"/>
       <use transform="translate(231.391602 39.046875)scale(0.7)" xlink:href="#DejaVuSans-36"/>
      </g>
     </g>
    </g>
    <g id="ytick_5">
     <g id="line2d_27">
      <path clip-path="url(#p35b25eec05)" d="M 57.6 158.997141 
L 414.72 158.997141 
" style="fill:none;stroke:#b0b0b0;stroke-linecap:square;stroke-width:0.8;"/>
     </g>
     <g id="line2d_28">
      <g>
       <use style="stroke:#000000;stroke-width:0.8;" x="57.6" xlink:href="#m6bf6636805" y="158.997141"/>
      </g>
     </g>
     <g id="text_15">
      <!-- ${10^{-36}}$ -->
      <defs>
       <path d="M 40.578125 39.3125 
Q 47.65625 37.796875 51.625 33 
Q 55.609375 28.21875 55.609375 21.1875 
Q 55.609375 10.40625 48.1875 4.484375 
Q 40.765625 -1.421875 27.09375 -1.421875 
Q 22.515625 -1.421875 17.65625 -0.515625 
Q 12.796875 0.390625 7.625 2.203125 
L 7.625 11.71875 
Q 11.71875 9.328125 16.59375 8.109375 
Q 21.484375 6.890625 26.8125 6.890625 
Q 36.078125 6.890625 40.9375 10.546875 
Q 45.796875 14.203125 45.796875 21.1875 
Q 45.796875 27.640625 41.28125 31.265625 
Q 36.765625 34.90625 28.71875 34.90625 
L 20.21875 34.90625 
L 20.21875 43.015625 
L 29.109375 43.015625 
Q 36.375 43.015625 40.234375 45.921875 
Q 44.09375 48.828125 44.09375 54.296875 
Q 44.09375 59.90625 40.109375 62.90625 
Q 36.140625 65.921875 28.71875 65.921875 
Q 24.65625 65.921875 20.015625 65.03125 
Q 15.375 64.15625 9.8125 62.3125 
L 9.8125 71.09375 
Q 15.4375 72.65625 20.34375 73.4375 
Q 25.25 74.21875 29.59375 74.21875 
Q 40.828125 74.21875 47.359375 69.109375 
Q 53.90625 64.015625 53.90625 55.328125 
Q 53.90625 49.265625 50.4375 45.09375 
Q 46.96875 40.921875 40.578125 39.3125 
" id="DejaVuSans-33"/>
      </defs>
      <g transform="translate(22.7 162.79636)scale(0.1 -0.1)">
       <use transform="translate(0 0.765625)" xlink:href="#DejaVuSans-31"/>
       <use transform="translate(63.623047 0.765625)" xlink:href="#DejaVuSans-30"/>
       <use transform="translate(128.203125 39.046875)scale(0.7)" xlink:href="#DejaVuSans-2212"/>
       <use transform="translate(186.855469 39.046875)scale(0.7)" xlink:href="#DejaVuSans-33"/>
       <use transform="translate(231.391602 39.046875)scale(0.7)" xlink:href="#DejaVuSans-36"/>
      </g>
     </g>
    </g>
    <g id="ytick_6">
     <g id="line2d_29">
      <path clip-path="url(#p35b25eec05)" d="M 57.6 128.870343 
L 414.72 128.870343 
" style="fill:none;stroke:#b0b0b0;stroke-linecap:square;stroke-width:0.8;"/>
     </g>
     <g id="line2d_30">
      <g>
       <use style="stroke:#000000;stroke-width:0.8;" x="57.6" xlink:href="#m6bf6636805" y="128.870343"/>
      </g>
     </g>
     <g id="text_16">
      <!-- ${10^{-26}}$ -->
      <g transform="translate(22.7 132.669562)scale(0.1 -0.1)">
       <use transform="translate(0 0.765625)" xlink:href="#DejaVuSans-31"/>
       <use transform="translate(63.623047 0.765625)" xlink:href="#DejaVuSans-30"/>
       <use transform="translate(128.203125 39.046875)scale(0.7)" xlink:href="#DejaVuSans-2212"/>
       <use transform="translate(186.855469 39.046875)scale(0.7)" xlink:href="#DejaVuSans-32"/>
       <use transform="translate(231.391602 39.046875)scale(0.7)" xlink:href="#DejaVuSans-36"/>
      </g>
     </g>
    </g>
    <g id="ytick_7">
     <g id="line2d_31">
      <path clip-path="url(#p35b25eec05)" d="M 57.6 98.743546 
L 414.72 98.743546 
" style="fill:none;stroke:#b0b0b0;stroke-linecap:square;stroke-width:0.8;"/>
     </g>
     <g id="line2d_32">
      <g>
       <use style="stroke:#000000;stroke-width:0.8;" x="57.6" xlink:href="#m6bf6636805" y="98.743546"/>
      </g>
     </g>
     <g id="text_17">
      <!-- ${10^{-16}}$ -->
      <g transform="translate(22.7 102.542765)scale(0.1 -0.1)">
       <use transform="translate(0 0.765625)" xlink:href="#DejaVuSans-31"/>
       <use transform="translate(63.623047 0.765625)" xlink:href="#DejaVuSans-30"/>
       <use transform="translate(128.203125 39.046875)scale(0.7)" xlink:href="#DejaVuSans-2212"/>
       <use transform="translate(186.855469 39.046875)scale(0.7)" xlink:href="#DejaVuSans-31"/>
       <use transform="translate(231.391602 39.046875)scale(0.7)" xlink:href="#DejaVuSans-36"/>
      </g>
     </g>
    </g>
    <g id="ytick_8">
     <g id="line2d_33">
      <path clip-path="url(#p35b25eec05)" d="M 57.6 68.616749 
L 414.72 68.616749 
" style="fill:none;stroke:#b0b0b0;stroke-linecap:square;stroke-width:0.8;"/>
     </g>
     <g id="line2d_34">
      <g>
       <use style="stroke:#000000;stroke-width:0.8;" x="57.6" xlink:href="#m6bf6636805" y="68.616749"/>
      </g>
     </g>
     <g id="text_18">
      <!-- ${10^{-6}}$ -->
      <g transform="translate(27.1 72.415967)scale(0.1 -0.1)">
       <use transform="translate(0 0.765625)" xlink:href="#DejaVuSans-31"/>
       <use transform="translate(63.623047 0.765625)" xlink:href="#DejaVuSans-30"/>
       <use transform="translate(128.203125 39.046875)scale(0.7)" xlink:href="#DejaVuSans-2212"/>
       <use transform="translate(186.855469 39.046875)scale(0.7)" xlink:href="#DejaVuSans-36"/>
      </g>
     </g>
    </g>
    <g id="text_19">
     <!-- $\omega_i$ -->
     <defs>
      <path d="M 21.390625 -1.421875 
Q 1.125 -1.421875 6.78125 27.59375 
Q 8.984375 39.0625 19.625 54.6875 
L 29.296875 54.6875 
Q 19.234375 39.0625 17 27.34375 
Q 12.796875 6.203125 23.734375 6.203125 
Q 33.84375 6.203125 38.71875 32.46875 
L 47.015625 32.46875 
Q 41.703125 6.0625 51.8125 6.203125 
Q 62.703125 6.296875 66.796875 27.34375 
Q 69.046875 39.0625 65.140625 54.6875 
L 74.8125 54.6875 
Q 79.296875 39.0625 77.09375 27.59375 
Q 71.53125 -1.46875 51.21875 -1.421875 
Q 37.9375 -1.375 39.109375 13.1875 
Q 34.28125 -1.421875 21.390625 -1.421875 
" id="DejaVuSans-Oblique-3c9"/>
     </defs>
     <g transform="translate(16.620312 179.828)rotate(-90)scale(0.1 -0.1)">
      <use transform="translate(0 0.3125)" xlink:href="#DejaVuSans-Oblique-3c9"/>
      <use transform="translate(83.740234 -16.09375)scale(0.7)" xlink:href="#DejaVuSans-Oblique-69"/>
     </g>
    </g>
   </g>
   <g id="line2d_35">
    <defs>
     <path d="M 0 3 
C 0.795609 3 1.55874 2.683901 2.12132 2.12132 
C 2.683901 1.55874 3 0.795609 3 0 
C 3 -0.795609 2.683901 -1.55874 2.12132 -2.12132 
C 1.55874 -2.683901 0.795609 -3 0 -3 
C -0.795609 -3 -1.55874 -2.683901 -2.12132 -2.12132 
C -2.683901 -1.55874 -3 -0.795609 -3 0 
C -3 0.795609 -2.683901 1.55874 -2.12132 2.12132 
C -1.55874 2.683901 -0.795609 3 0 3 
z
" id="m74f92df5c4" style="stroke:#1f77b4;"/>
    </defs>
    <g clip-path="url(#p35b25eec05)">
     <use style="fill:#1f77b4;stroke:#1f77b4;" x="106.650746" xlink:href="#m74f92df5c4" y="194.618437"/>
     <use style="fill:#1f77b4;stroke:#1f77b4;" x="378.09717" xlink:href="#m74f92df5c4" y="222.979324"/>
     <use style="fill:#1f77b4;stroke:#1f77b4;" x="144.571612" xlink:href="#m74f92df5c4" y="124.016794"/>
     <use style="fill:#1f77b4;stroke:#1f77b4;" x="102.673114" xlink:href="#m74f92df5c4" y="203.417061"/>
     <use style="fill:#1f77b4;stroke:#1f77b4;" x="98.541468" xlink:href="#m74f92df5c4" y="212.834313"/>
     <use style="fill:#1f77b4;stroke:#1f77b4;" x="387.507609" xlink:href="#m74f92df5c4" y="246.143891"/>
     <use style="fill:#1f77b4;stroke:#1f77b4;" x="361.821363" xlink:href="#m74f92df5c4" y="186.357329"/>
     <use style="fill:#1f77b4;stroke:#1f77b4;" x="373.778532" xlink:href="#m74f92df5c4" y="212.834313"/>
     <use style="fill:#1f77b4;stroke:#1f77b4;" x="196.576138" xlink:href="#m74f92df5c4" y="66.594165"/>
     <use style="fill:#1f77b4;stroke:#1f77b4;" x="141.414056" xlink:href="#m74f92df5c4" y="128.974671"/>
     <use style="fill:#1f77b4;stroke:#1f77b4;" x="405.923816" xlink:href="#m74f92df5c4" y="295.488"/>
     <use style="fill:#1f77b4;stroke:#1f77b4;" x="89.67024" xlink:href="#m74f92df5c4" y="234.005752"/>
     <use style="fill:#1f77b4;stroke:#1f77b4;" x="84.812391" xlink:href="#m74f92df5c4" y="246.143891"/>
     <use style="fill:#1f77b4;stroke:#1f77b4;" x="369.646886" xlink:href="#m74f92df5c4" y="203.417061"/>
     <use style="fill:#1f77b4;stroke:#1f77b4;" x="110.498637" xlink:href="#m74f92df5c4" y="186.357329"/>
     <use style="fill:#1f77b4;stroke:#1f77b4;" x="174.403693" xlink:href="#m74f92df5c4" y="85.459599"/>
     <use style="fill:#1f77b4;stroke:#1f77b4;" x="297.916307" xlink:href="#m74f92df5c4" y="85.459599"/>
     <use style="fill:#1f77b4;stroke:#1f77b4;" x="365.669254" xlink:href="#m74f92df5c4" y="194.618437"/>
     <use style="fill:#1f77b4;stroke:#1f77b4;" x="171.533937" xlink:href="#m74f92df5c4" y="88.516731"/>
     <use style="fill:#1f77b4;stroke:#1f77b4;" x="188.459631" xlink:href="#m74f92df5c4" y="72.496757"/>
     <use style="fill:#1f77b4;stroke:#1f77b4;" x="324.62973" xlink:href="#m74f92df5c4" y="119.284601"/>
     <use style="fill:#1f77b4;stroke:#1f77b4;" x="245.0861" xlink:href="#m74f92df5c4" y="54.150851"/>
     <use style="fill:#1f77b4;stroke:#1f77b4;" x="117.875271" xlink:href="#m74f92df5c4" y="171.211078"/>
     <use style="fill:#1f77b4;stroke:#1f77b4;" x="281.110818" xlink:href="#m74f92df5c4" y="70.355189"/>
     <use style="fill:#1f77b4;stroke:#1f77b4;" x="79.530347" xlink:href="#m74f92df5c4" y="259.771883"/>
     <use style="fill:#1f77b4;stroke:#1f77b4;" x="392.789653" xlink:href="#m74f92df5c4" y="259.771883"/>
     <use style="fill:#1f77b4;stroke:#1f77b4;" x="264.562914" xlink:href="#m74f92df5c4" y="60.139136"/>
     <use style="fill:#1f77b4;stroke:#1f77b4;" x="315.479363" xlink:href="#m74f92df5c4" y="106.344664"/>
     <use style="fill:#1f77b4;stroke:#1f77b4;" x="292.236554" xlink:href="#m74f92df5c4" y="79.818816"/>
     <use style="fill:#1f77b4;stroke:#1f77b4;" x="66.396184" xlink:href="#m74f92df5c4" y="295.488"/>
     <use style="fill:#1f77b4;stroke:#1f77b4;" x="114.235302" xlink:href="#m74f92df5c4" y="178.571326"/>
     <use style="fill:#1f77b4;stroke:#1f77b4;" x="295.066736" xlink:href="#m74f92df5c4" y="82.561482"/>
     <use style="fill:#1f77b4;stroke:#1f77b4;" x="121.430211" xlink:href="#m74f92df5c4" y="164.236694"/>
     <use style="fill:#1f77b4;stroke:#1f77b4;" x="358.084698" xlink:href="#m74f92df5c4" y="178.571326"/>
     <use style="fill:#1f77b4;stroke:#1f77b4;" x="218.171506" xlink:href="#m74f92df5c4" y="56.123331"/>
     <use style="fill:#1f77b4;stroke:#1f77b4;" x="220.607479" xlink:href="#m74f92df5c4" y="55.513135"/>
     <use style="fill:#1f77b4;stroke:#1f77b4;" x="213.025535" xlink:href="#m74f92df5c4" y="57.853937"/>
     <use style="fill:#1f77b4;stroke:#1f77b4;" x="354.444729" xlink:href="#m74f92df5c4" y="171.211078"/>
     <use style="fill:#1f77b4;stroke:#1f77b4;" x="340.647338" xlink:href="#m74f92df5c4" y="145.326214"/>
     <use style="fill:#1f77b4;stroke:#1f77b4;" x="350.889789" xlink:href="#m74f92df5c4" y="164.236694"/>
     <use style="fill:#1f77b4;stroke:#1f77b4;" x="205.1303" xlink:href="#m74f92df5c4" y="61.476559"/>
     <use style="fill:#1f77b4;stroke:#1f77b4;" x="269.718242" xlink:href="#m74f92df5c4" y="62.969307"/>
     <use style="fill:#1f77b4;stroke:#1f77b4;" x="177.253264" xlink:href="#m74f92df5c4" y="82.561482"/>
     <use style="fill:#1f77b4;stroke:#1f77b4;" x="94.22283" xlink:href="#m74f92df5c4" y="222.979324"/>
     <use style="fill:#1f77b4;stroke:#1f77b4;" x="191.209182" xlink:href="#m74f92df5c4" y="70.355189"/>
     <use style="fill:#1f77b4;stroke:#1f77b4;" x="198.966245" xlink:href="#m74f92df5c4" y="65.340376"/>
     <use style="fill:#1f77b4;stroke:#1f77b4;" x="215.626063" xlink:href="#m74f92df5c4" y="56.913286"/>
     <use style="fill:#1f77b4;stroke:#1f77b4;" x="309.527506" xlink:href="#m74f92df5c4" y="98.684678"/>
     <use style="fill:#1f77b4;stroke:#1f77b4;" x="306.59038" xlink:href="#m74f92df5c4" y="95.124562"/>
     <use style="fill:#1f77b4;stroke:#1f77b4;" x="147.69027" xlink:href="#m74f92df5c4" y="119.284601"/>
     <use style="fill:#1f77b4;stroke:#1f77b4;" x="347.410328" xlink:href="#m74f92df5c4" y="157.615343"/>
     <use style="fill:#1f77b4;stroke:#1f77b4;" x="229.63355" xlink:href="#m74f92df5c4" y="53.77922"/>
     <use style="fill:#1f77b4;stroke:#1f77b4;" x="300.786063" xlink:href="#m74f92df5c4" y="88.516731"/>
     <use style="fill:#1f77b4;stroke:#1f77b4;" x="200.607174" xlink:href="#m74f92df5c4" y="64.715056"/>
     <use style="fill:#1f77b4;stroke:#1f77b4;" x="275.743862" xlink:href="#m74f92df5c4" y="66.594165"/>
     <use style="fill:#1f77b4;stroke:#1f77b4;" x="134.968591" xlink:href="#m74f92df5c4" y="139.615345"/>
     <use style="fill:#1f77b4;stroke:#1f77b4;" x="254.148494" xlink:href="#m74f92df5c4" y="56.123331"/>
     <use style="fill:#1f77b4;stroke:#1f77b4;" x="222.857925" xlink:href="#m74f92df5c4" y="55.079741"/>
     <use style="fill:#1f77b4;stroke:#1f77b4;" x="312.489931" xlink:href="#m74f92df5c4" y="102.422702"/>
     <use style="fill:#1f77b4;stroke:#1f77b4;" x="261.923197" xlink:href="#m74f92df5c4" y="58.931197"/>
     <use style="fill:#1f77b4;stroke:#1f77b4;" x="193.926329" xlink:href="#m74f92df5c4" y="68.372518"/>
     <use style="fill:#1f77b4;stroke:#1f77b4;" x="210.396803" xlink:href="#m74f92df5c4" y="58.931197"/>
     <use style="fill:#1f77b4;stroke:#1f77b4;" x="165.72962" xlink:href="#m74f92df5c4" y="95.124562"/>
     <use style="fill:#1f77b4;stroke:#1f77b4;" x="321.547039" xlink:href="#m74f92df5c4" y="114.767806"/>
     <use style="fill:#1f77b4;stroke:#1f77b4;" x="251.712521" xlink:href="#m74f92df5c4" y="55.513135"/>
     <use style="fill:#1f77b4;stroke:#1f77b4;" x="382.64976" xlink:href="#m74f92df5c4" y="234.005752"/>
     <use style="fill:#1f77b4;stroke:#1f77b4;" x="337.351409" xlink:href="#m74f92df5c4" y="139.615345"/>
     <use style="fill:#1f77b4;stroke:#1f77b4;" x="73.593196" xlink:href="#m74f92df5c4" y="275.609478"/>
     <use style="fill:#1f77b4;stroke:#1f77b4;" x="159.830069" xlink:href="#m74f92df5c4" y="102.422702"/>
     <use style="fill:#1f77b4;stroke:#1f77b4;" x="289.425272" xlink:href="#m74f92df5c4" y="77.228545"/>
     <use style="fill:#1f77b4;stroke:#1f77b4;" x="271.712826" xlink:href="#m74f92df5c4" y="64.715056"/>
     <use style="fill:#1f77b4;stroke:#1f77b4;" x="180.083446" xlink:href="#m74f92df5c4" y="79.818816"/>
     <use style="fill:#1f77b4;stroke:#1f77b4;" x="156.840637" xlink:href="#m74f92df5c4" y="106.344664"/>
     <use style="fill:#1f77b4;stroke:#1f77b4;" x="185.687105" xlink:href="#m74f92df5c4" y="74.788282"/>
     <use style="fill:#1f77b4;stroke:#1f77b4;" x="138.214298" xlink:href="#m74f92df5c4" y="134.169815"/>
     <use style="fill:#1f77b4;stroke:#1f77b4;" x="330.905944" xlink:href="#m74f92df5c4" y="128.974671"/>
     <use style="fill:#1f77b4;stroke:#1f77b4;" x="334.105702" xlink:href="#m74f92df5c4" y="134.169815"/>
     <use style="fill:#1f77b4;stroke:#1f77b4;" x="343.998409" xlink:href="#m74f92df5c4" y="151.31959"/>
     <use style="fill:#1f77b4;stroke:#1f77b4;" x="273.353755" xlink:href="#m74f92df5c4" y="65.340376"/>
     <use style="fill:#1f77b4;stroke:#1f77b4;" x="398.726804" xlink:href="#m74f92df5c4" y="275.609478"/>
     <use style="fill:#1f77b4;stroke:#1f77b4;" x="153.822303" xlink:href="#m74f92df5c4" y="110.457235"/>
     <use style="fill:#1f77b4;stroke:#1f77b4;" x="327.748388" xlink:href="#m74f92df5c4" y="124.016794"/>
     <use style="fill:#1f77b4;stroke:#1f77b4;" x="259.294465" xlink:href="#m74f92df5c4" y="57.853937"/>
     <use style="fill:#1f77b4;stroke:#1f77b4;" x="150.772961" xlink:href="#m74f92df5c4" y="114.767806"/>
     <use style="fill:#1f77b4;stroke:#1f77b4;" x="162.792494" xlink:href="#m74f92df5c4" y="98.684678"/>
     <use style="fill:#1f77b4;stroke:#1f77b4;" x="318.497697" xlink:href="#m74f92df5c4" y="110.457235"/>
     <use style="fill:#1f77b4;stroke:#1f77b4;" x="182.894728" xlink:href="#m74f92df5c4" y="77.228545"/>
     <use style="fill:#1f77b4;stroke:#1f77b4;" x="286.632895" xlink:href="#m74f92df5c4" y="74.788282"/>
     <use style="fill:#1f77b4;stroke:#1f77b4;" x="131.672662" xlink:href="#m74f92df5c4" y="145.326214"/>
     <use style="fill:#1f77b4;stroke:#1f77b4;" x="256.693937" xlink:href="#m74f92df5c4" y="56.913286"/>
     <use style="fill:#1f77b4;stroke:#1f77b4;" x="283.860369" xlink:href="#m74f92df5c4" y="72.496757"/>
     <use style="fill:#1f77b4;stroke:#1f77b4;" x="247.332239" xlink:href="#m74f92df5c4" y="54.637528"/>
     <use style="fill:#1f77b4;stroke:#1f77b4;" x="242.68645" xlink:href="#m74f92df5c4" y="53.77922"/>
     <use style="fill:#1f77b4;stroke:#1f77b4;" x="202.601758" xlink:href="#m74f92df5c4" y="62.969307"/>
     <use style="fill:#1f77b4;stroke:#1f77b4;" x="224.987761" xlink:href="#m74f92df5c4" y="54.637528"/>
     <use style="fill:#1f77b4;stroke:#1f77b4;" x="227.2339" xlink:href="#m74f92df5c4" y="54.150851"/>
     <use style="fill:#1f77b4;stroke:#1f77b4;" x="303.677021" xlink:href="#m74f92df5c4" y="91.736895"/>
     <use style="fill:#1f77b4;stroke:#1f77b4;" x="124.909672" xlink:href="#m74f92df5c4" y="157.615343"/>
     <use style="fill:#1f77b4;stroke:#1f77b4;" x="267.1897" xlink:href="#m74f92df5c4" y="61.476559"/>
     <use style="fill:#1f77b4;stroke:#1f77b4;" x="249.462075" xlink:href="#m74f92df5c4" y="55.079741"/>
     <use style="fill:#1f77b4;stroke:#1f77b4;" x="207.757086" xlink:href="#m74f92df5c4" y="60.139136"/>
     <use style="fill:#1f77b4;stroke:#1f77b4;" x="234.400532" xlink:href="#m74f92df5c4" y="53.628141"/>
     <use style="fill:#1f77b4;stroke:#1f77b4;" x="237.919468" xlink:href="#m74f92df5c4" y="53.628141"/>
     <use style="fill:#1f77b4;stroke:#1f77b4;" x="240.239101" xlink:href="#m74f92df5c4" y="53.568"/>
     <use style="fill:#1f77b4;stroke:#1f77b4;" x="128.321591" xlink:href="#m74f92df5c4" y="151.31959"/>
     <use style="fill:#1f77b4;stroke:#1f77b4;" x="168.642979" xlink:href="#m74f92df5c4" y="91.736895"/>
     <use style="fill:#1f77b4;stroke:#1f77b4;" x="278.393671" xlink:href="#m74f92df5c4" y="68.372518"/>
     <use style="fill:#1f77b4;stroke:#1f77b4;" x="232.080899" xlink:href="#m74f92df5c4" y="53.568"/>
     <use style="fill:#1f77b4;stroke:#1f77b4;" x="236.16" xlink:href="#m74f92df5c4" y="54.059991"/>
    </g>
   </g>
   <g id="patch_3">
    <path d="M 57.6 307.584 
L 57.6 41.472 
" style="fill:none;stroke:#000000;stroke-linecap:square;stroke-linejoin:miter;stroke-width:0.8;"/>
   </g>
   <g id="patch_4">
    <path d="M 414.72 307.584 
L 414.72 41.472 
" style="fill:none;stroke:#000000;stroke-linecap:square;stroke-linejoin:miter;stroke-width:0.8;"/>
   </g>
   <g id="patch_5">
    <path d="M 57.6 307.584 
L 414.72 307.584 
" style="fill:none;stroke:#000000;stroke-linecap:square;stroke-linejoin:miter;stroke-width:0.8;"/>
   </g>
   <g id="patch_6">
    <path d="M 57.6 41.472 
L 414.72 41.472 
" style="fill:none;stroke:#000000;stroke-linecap:square;stroke-linejoin:miter;stroke-width:0.8;"/>
   </g>
  </g>
 </g>
 <defs>
  <clipPath id="p35b25eec05">
   <rect height="266.112" width="357.12" x="57.6" y="41.472"/>
  </clipPath>
 </defs>
</svg>
