<?xml version="1.0" encoding="utf-8" standalone="no"?>
<!DOCTYPE svg PUBLIC "-//W3C//DTD SVG 1.1//EN"
  "http://www.w3.org/Graphics/SVG/1.1/DTD/svg11.dtd">
<!-- Created with matplotlib (http://matplotlib.org/) -->
<svg height="345pt" version="1.1" viewBox="0 0 460 345" width="460pt" xmlns="http://www.w3.org/2000/svg" xmlns:xlink="http://www.w3.org/1999/xlink">
 <defs>
  <style type="text/css">
*{stroke-linecap:butt;stroke-linejoin:round;}
  </style>
 </defs>
 <g id="figure_1">
  <g id="patch_1">
   <path d="M 0 345.6 
L 460.8 345.6 
L 460.8 0 
L 0 0 
z
" style="fill:#ffffff;"/>
  </g>
  <g id="axes_1">
   <g id="patch_2">
    <path d="M 57.6 307.584 
L 414.72 307.584 
L 414.72 41.472 
L 57.6 41.472 
z
" style="fill:#ffffff;"/>
   </g>
   <g id="matplotlib.axis_1">
    <g id="xtick_1">
     <g id="line2d_1">
      <path clip-path="url(#pd6647f2f86)" d="M 100.978244 307.584 
L 100.978244 41.472 
" style="fill:none;stroke:#b0b0b0;stroke-linecap:square;stroke-width:0.8;"/>
     </g>
     <g id="line2d_2">
      <defs>
       <path d="M 0 0 
L 0 3.5 
" id="m9d9c911e84" style="stroke:#000000;stroke-width:0.8;"/>
      </defs>
      <g>
       <use style="stroke:#000000;stroke-width:0.8;" x="100.978244" xlink:href="#m9d9c911e84" y="307.584"/>
      </g>
     </g>
     <g id="text_1">
      <!-- −15 -->
      <defs>
       <path d="M 10.59375 35.5 
L 73.1875 35.5 
L 73.1875 27.203125 
L 10.59375 27.203125 
z
" id="DejaVuSans-2212"/>
       <path d="M 12.40625 8.296875 
L 28.515625 8.296875 
L 28.515625 63.921875 
L 10.984375 60.40625 
L 10.984375 69.390625 
L 28.421875 72.90625 
L 38.28125 72.90625 
L 38.28125 8.296875 
L 54.390625 8.296875 
L 54.390625 0 
L 12.40625 0 
z
" id="DejaVuSans-31"/>
       <path d="M 10.796875 72.90625 
L 49.515625 72.90625 
L 49.515625 64.59375 
L 19.828125 64.59375 
L 19.828125 46.734375 
Q 21.96875 47.46875 24.109375 47.828125 
Q 26.265625 48.1875 28.421875 48.1875 
Q 40.625 48.1875 47.75 41.5 
Q 54.890625 34.8125 54.890625 23.390625 
Q 54.890625 11.625 47.5625 5.09375 
Q 40.234375 -1.421875 26.90625 -1.421875 
Q 22.3125 -1.421875 17.546875 -0.640625 
Q 12.796875 0.140625 7.71875 1.703125 
L 7.71875 11.625 
Q 12.109375 9.234375 16.796875 8.0625 
Q 21.484375 6.890625 26.703125 6.890625 
Q 35.15625 6.890625 40.078125 11.328125 
Q 45.015625 15.765625 45.015625 23.390625 
Q 45.015625 31 40.078125 35.4375 
Q 35.15625 39.890625 26.703125 39.890625 
Q 22.75 39.890625 18.8125 39.015625 
Q 14.890625 38.140625 10.796875 36.28125 
z
" id="DejaVuSans-35"/>
      </defs>
      <g transform="translate(90.4259 322.182437)scale(0.1 -0.1)">
       <use xlink:href="#DejaVuSans-2212"/>
       <use x="83.789062" xlink:href="#DejaVuSans-31"/>
       <use x="147.412109" xlink:href="#DejaVuSans-35"/>
      </g>
     </g>
    </g>
    <g id="xtick_2">
     <g id="line2d_3">
      <path clip-path="url(#pd6647f2f86)" d="M 146.038829 307.584 
L 146.038829 41.472 
" style="fill:none;stroke:#b0b0b0;stroke-linecap:square;stroke-width:0.8;"/>
     </g>
     <g id="line2d_4">
      <g>
       <use style="stroke:#000000;stroke-width:0.8;" x="146.038829" xlink:href="#m9d9c911e84" y="307.584"/>
      </g>
     </g>
     <g id="text_2">
      <!-- −10 -->
      <defs>
       <path d="M 31.78125 66.40625 
Q 24.171875 66.40625 20.328125 58.90625 
Q 16.5 51.421875 16.5 36.375 
Q 16.5 21.390625 20.328125 13.890625 
Q 24.171875 6.390625 31.78125 6.390625 
Q 39.453125 6.390625 43.28125 13.890625 
Q 47.125 21.390625 47.125 36.375 
Q 47.125 51.421875 43.28125 58.90625 
Q 39.453125 66.40625 31.78125 66.40625 
M 31.78125 74.21875 
Q 44.046875 74.21875 50.515625 64.515625 
Q 56.984375 54.828125 56.984375 36.375 
Q 56.984375 17.96875 50.515625 8.265625 
Q 44.046875 -1.421875 31.78125 -1.421875 
Q 19.53125 -1.421875 13.0625 8.265625 
Q 6.59375 17.96875 6.59375 36.375 
Q 6.59375 54.828125 13.0625 64.515625 
Q 19.53125 74.21875 31.78125 74.21875 
" id="DejaVuSans-30"/>
      </defs>
      <g transform="translate(135.486486 322.182437)scale(0.1 -0.1)">
       <use xlink:href="#DejaVuSans-2212"/>
       <use x="83.789062" xlink:href="#DejaVuSans-31"/>
       <use x="147.412109" xlink:href="#DejaVuSans-30"/>
      </g>
     </g>
    </g>
    <g id="xtick_3">
     <g id="line2d_5">
      <path clip-path="url(#pd6647f2f86)" d="M 191.099415 307.584 
L 191.099415 41.472 
" style="fill:none;stroke:#b0b0b0;stroke-linecap:square;stroke-width:0.8;"/>
     </g>
     <g id="line2d_6">
      <g>
       <use style="stroke:#000000;stroke-width:0.8;" x="191.099415" xlink:href="#m9d9c911e84" y="307.584"/>
      </g>
     </g>
     <g id="text_3">
      <!-- −5 -->
      <g transform="translate(183.728321 322.182437)scale(0.1 -0.1)">
       <use xlink:href="#DejaVuSans-2212"/>
       <use x="83.789062" xlink:href="#DejaVuSans-35"/>
      </g>
     </g>
    </g>
    <g id="xtick_4">
     <g id="line2d_7">
      <path clip-path="url(#pd6647f2f86)" d="M 236.16 307.584 
L 236.16 41.472 
" style="fill:none;stroke:#b0b0b0;stroke-linecap:square;stroke-width:0.8;"/>
     </g>
     <g id="line2d_8">
      <g>
       <use style="stroke:#000000;stroke-width:0.8;" x="236.16" xlink:href="#m9d9c911e84" y="307.584"/>
      </g>
     </g>
     <g id="text_4">
      <!-- 0 -->
      <g transform="translate(232.97875 322.182437)scale(0.1 -0.1)">
       <use xlink:href="#DejaVuSans-30"/>
      </g>
     </g>
    </g>
    <g id="xtick_5">
     <g id="line2d_9">
      <path clip-path="url(#pd6647f2f86)" d="M 281.220585 307.584 
L 281.220585 41.472 
" style="fill:none;stroke:#b0b0b0;stroke-linecap:square;stroke-width:0.8;"/>
     </g>
     <g id="line2d_10">
      <g>
       <use style="stroke:#000000;stroke-width:0.8;" x="281.220585" xlink:href="#m9d9c911e84" y="307.584"/>
      </g>
     </g>
     <g id="text_5">
      <!-- 5 -->
      <g transform="translate(278.039335 322.182437)scale(0.1 -0.1)">
       <use xlink:href="#DejaVuSans-35"/>
      </g>
     </g>
    </g>
    <g id="xtick_6">
     <g id="line2d_11">
      <path clip-path="url(#pd6647f2f86)" d="M 326.281171 307.584 
L 326.281171 41.472 
" style="fill:none;stroke:#b0b0b0;stroke-linecap:square;stroke-width:0.8;"/>
     </g>
     <g id="line2d_12">
      <g>
       <use style="stroke:#000000;stroke-width:0.8;" x="326.281171" xlink:href="#m9d9c911e84" y="307.584"/>
      </g>
     </g>
     <g id="text_6">
      <!-- 10 -->
      <g transform="translate(319.918671 322.182437)scale(0.1 -0.1)">
       <use xlink:href="#DejaVuSans-31"/>
       <use x="63.623047" xlink:href="#DejaVuSans-30"/>
      </g>
     </g>
    </g>
    <g id="xtick_7">
     <g id="line2d_13">
      <path clip-path="url(#pd6647f2f86)" d="M 371.341756 307.584 
L 371.341756 41.472 
" style="fill:none;stroke:#b0b0b0;stroke-linecap:square;stroke-width:0.8;"/>
     </g>
     <g id="line2d_14">
      <g>
       <use style="stroke:#000000;stroke-width:0.8;" x="371.341756" xlink:href="#m9d9c911e84" y="307.584"/>
      </g>
     </g>
     <g id="text_7">
      <!-- 15 -->
      <g transform="translate(364.979256 322.182437)scale(0.1 -0.1)">
       <use xlink:href="#DejaVuSans-31"/>
       <use x="63.623047" xlink:href="#DejaVuSans-35"/>
      </g>
     </g>
    </g>
    <g id="text_8">
     <!-- $\gamma_i$ -->
     <defs>
      <path d="M 23.296875 46.09375 
L 28.71875 12.3125 
L 54 54.6875 
L 63.53125 54.6875 
L 30.8125 0 
L 26.765625 -20.796875 
L 17.78125 -20.796875 
L 21.828125 0 
L 15.4375 40.828125 
Q 14.453125 46.96875 9.8125 46.96875 
L 7.421875 46.96875 
L 8.890625 54.6875 
L 12.3125 54.6875 
Q 21.921875 54.6875 23.296875 46.09375 
" id="DejaVuSans-Oblique-3b3"/>
      <path d="M 18.3125 75.984375 
L 27.296875 75.984375 
L 25.09375 64.59375 
L 16.109375 64.59375 
z
M 14.203125 54.6875 
L 23.1875 54.6875 
L 12.5 0 
L 3.515625 0 
z
" id="DejaVuSans-Oblique-69"/>
     </defs>
     <g transform="translate(232.06 335.84025)scale(0.1 -0.1)">
      <use transform="translate(0 0.3125)" xlink:href="#DejaVuSans-Oblique-3b3"/>
      <use transform="translate(59.179688 -16.09375)scale(0.7)" xlink:href="#DejaVuSans-Oblique-69"/>
     </g>
    </g>
   </g>
   <g id="matplotlib.axis_2">
    <g id="ytick_1">
     <g id="line2d_15">
      <path clip-path="url(#pd6647f2f86)" d="M 57.6 277.357609 
L 414.72 277.357609 
" style="fill:none;stroke:#b0b0b0;stroke-linecap:square;stroke-width:0.8;"/>
     </g>
     <g id="line2d_16">
      <defs>
       <path d="M 0 0 
L -3.5 0 
" id="m6aae2a5f8f" style="stroke:#000000;stroke-width:0.8;"/>
      </defs>
      <g>
       <use style="stroke:#000000;stroke-width:0.8;" x="57.6" xlink:href="#m6aae2a5f8f" y="277.357609"/>
      </g>
     </g>
     <g id="text_9">
      <!-- ${10^{-70}}$ -->
      <defs>
       <path d="M 8.203125 72.90625 
L 55.078125 72.90625 
L 55.078125 68.703125 
L 28.609375 0 
L 18.3125 0 
L 43.21875 64.59375 
L 8.203125 64.59375 
z
" id="DejaVuSans-37"/>
      </defs>
      <g transform="translate(22.7 281.156828)scale(0.1 -0.1)">
       <use transform="translate(0 0.765625)" xlink:href="#DejaVuSans-31"/>
       <use transform="translate(63.623047 0.765625)" xlink:href="#DejaVuSans-30"/>
       <use transform="translate(128.203125 39.046875)scale(0.7)" xlink:href="#DejaVuSans-2212"/>
       <use transform="translate(186.855469 39.046875)scale(0.7)" xlink:href="#DejaVuSans-37"/>
       <use transform="translate(231.391602 39.046875)scale(0.7)" xlink:href="#DejaVuSans-30"/>
      </g>
     </g>
    </g>
    <g id="ytick_2">
     <g id="line2d_17">
      <path clip-path="url(#pd6647f2f86)" d="M 57.6 244.916621 
L 414.72 244.916621 
" style="fill:none;stroke:#b0b0b0;stroke-linecap:square;stroke-width:0.8;"/>
     </g>
     <g id="line2d_18">
      <g>
       <use style="stroke:#000000;stroke-width:0.8;" x="57.6" xlink:href="#m6aae2a5f8f" y="244.916621"/>
      </g>
     </g>
     <g id="text_10">
      <!-- ${10^{-60}}$ -->
      <defs>
       <path d="M 33.015625 40.375 
Q 26.375 40.375 22.484375 35.828125 
Q 18.609375 31.296875 18.609375 23.390625 
Q 18.609375 15.53125 22.484375 10.953125 
Q 26.375 6.390625 33.015625 6.390625 
Q 39.65625 6.390625 43.53125 10.953125 
Q 47.40625 15.53125 47.40625 23.390625 
Q 47.40625 31.296875 43.53125 35.828125 
Q 39.65625 40.375 33.015625 40.375 
M 52.59375 71.296875 
L 52.59375 62.3125 
Q 48.875 64.0625 45.09375 64.984375 
Q 41.3125 65.921875 37.59375 65.921875 
Q 27.828125 65.921875 22.671875 59.328125 
Q 17.53125 52.734375 16.796875 39.40625 
Q 19.671875 43.65625 24.015625 45.921875 
Q 28.375 48.1875 33.59375 48.1875 
Q 44.578125 48.1875 50.953125 41.515625 
Q 57.328125 34.859375 57.328125 23.390625 
Q 57.328125 12.15625 50.6875 5.359375 
Q 44.046875 -1.421875 33.015625 -1.421875 
Q 20.359375 -1.421875 13.671875 8.265625 
Q 6.984375 17.96875 6.984375 36.375 
Q 6.984375 53.65625 15.1875 63.9375 
Q 23.390625 74.21875 37.203125 74.21875 
Q 40.921875 74.21875 44.703125 73.484375 
Q 48.484375 72.75 52.59375 71.296875 
" id="DejaVuSans-36"/>
      </defs>
      <g transform="translate(22.7 248.71584)scale(0.1 -0.1)">
       <use transform="translate(0 0.765625)" xlink:href="#DejaVuSans-31"/>
       <use transform="translate(63.623047 0.765625)" xlink:href="#DejaVuSans-30"/>
       <use transform="translate(128.203125 39.046875)scale(0.7)" xlink:href="#DejaVuSans-2212"/>
       <use transform="translate(186.855469 39.046875)scale(0.7)" xlink:href="#DejaVuSans-36"/>
       <use transform="translate(231.391602 39.046875)scale(0.7)" xlink:href="#DejaVuSans-30"/>
      </g>
     </g>
    </g>
    <g id="ytick_3">
     <g id="line2d_19">
      <path clip-path="url(#pd6647f2f86)" d="M 57.6 212.475633 
L 414.72 212.475633 
" style="fill:none;stroke:#b0b0b0;stroke-linecap:square;stroke-width:0.8;"/>
     </g>
     <g id="line2d_20">
      <g>
       <use style="stroke:#000000;stroke-width:0.8;" x="57.6" xlink:href="#m6aae2a5f8f" y="212.475633"/>
      </g>
     </g>
     <g id="text_11">
      <!-- ${10^{-50}}$ -->
      <g transform="translate(22.7 216.274852)scale(0.1 -0.1)">
       <use transform="translate(0 0.765625)" xlink:href="#DejaVuSans-31"/>
       <use transform="translate(63.623047 0.765625)" xlink:href="#DejaVuSans-30"/>
       <use transform="translate(128.203125 39.046875)scale(0.7)" xlink:href="#DejaVuSans-2212"/>
       <use transform="translate(186.855469 39.046875)scale(0.7)" xlink:href="#DejaVuSans-35"/>
       <use transform="translate(231.391602 39.046875)scale(0.7)" xlink:href="#DejaVuSans-30"/>
      </g>
     </g>
    </g>
    <g id="ytick_4">
     <g id="line2d_21">
      <path clip-path="url(#pd6647f2f86)" d="M 57.6 180.034645 
L 414.72 180.034645 
" style="fill:none;stroke:#b0b0b0;stroke-linecap:square;stroke-width:0.8;"/>
     </g>
     <g id="line2d_22">
      <g>
       <use style="stroke:#000000;stroke-width:0.8;" x="57.6" xlink:href="#m6aae2a5f8f" y="180.034645"/>
      </g>
     </g>
     <g id="text_12">
      <!-- ${10^{-40}}$ -->
      <defs>
       <path d="M 37.796875 64.3125 
L 12.890625 25.390625 
L 37.796875 25.390625 
z
M 35.203125 72.90625 
L 47.609375 72.90625 
L 47.609375 25.390625 
L 58.015625 25.390625 
L 58.015625 17.1875 
L 47.609375 17.1875 
L 47.609375 0 
L 37.796875 0 
L 37.796875 17.1875 
L 4.890625 17.1875 
L 4.890625 26.703125 
z
" id="DejaVuSans-34"/>
      </defs>
      <g transform="translate(22.7 183.833863)scale(0.1 -0.1)">
       <use transform="translate(0 0.765625)" xlink:href="#DejaVuSans-31"/>
       <use transform="translate(63.623047 0.765625)" xlink:href="#DejaVuSans-30"/>
       <use transform="translate(128.203125 39.046875)scale(0.7)" xlink:href="#DejaVuSans-2212"/>
       <use transform="translate(186.855469 39.046875)scale(0.7)" xlink:href="#DejaVuSans-34"/>
       <use transform="translate(231.391602 39.046875)scale(0.7)" xlink:href="#DejaVuSans-30"/>
      </g>
     </g>
    </g>
    <g id="ytick_5">
     <g id="line2d_23">
      <path clip-path="url(#pd6647f2f86)" d="M 57.6 147.593656 
L 414.72 147.593656 
" style="fill:none;stroke:#b0b0b0;stroke-linecap:square;stroke-width:0.8;"/>
     </g>
     <g id="line2d_24">
      <g>
       <use style="stroke:#000000;stroke-width:0.8;" x="57.6" xlink:href="#m6aae2a5f8f" y="147.593656"/>
      </g>
     </g>
     <g id="text_13">
      <!-- ${10^{-30}}$ -->
      <defs>
       <path d="M 40.578125 39.3125 
Q 47.65625 37.796875 51.625 33 
Q 55.609375 28.21875 55.609375 21.1875 
Q 55.609375 10.40625 48.1875 4.484375 
Q 40.765625 -1.421875 27.09375 -1.421875 
Q 22.515625 -1.421875 17.65625 -0.515625 
Q 12.796875 0.390625 7.625 2.203125 
L 7.625 11.71875 
Q 11.71875 9.328125 16.59375 8.109375 
Q 21.484375 6.890625 26.8125 6.890625 
Q 36.078125 6.890625 40.9375 10.546875 
Q 45.796875 14.203125 45.796875 21.1875 
Q 45.796875 27.640625 41.28125 31.265625 
Q 36.765625 34.90625 28.71875 34.90625 
L 20.21875 34.90625 
L 20.21875 43.015625 
L 29.109375 43.015625 
Q 36.375 43.015625 40.234375 45.921875 
Q 44.09375 48.828125 44.09375 54.296875 
Q 44.09375 59.90625 40.109375 62.90625 
Q 36.140625 65.921875 28.71875 65.921875 
Q 24.65625 65.921875 20.015625 65.03125 
Q 15.375 64.15625 9.8125 62.3125 
L 9.8125 71.09375 
Q 15.4375 72.65625 20.34375 73.4375 
Q 25.25 74.21875 29.59375 74.21875 
Q 40.828125 74.21875 47.359375 69.109375 
Q 53.90625 64.015625 53.90625 55.328125 
Q 53.90625 49.265625 50.4375 45.09375 
Q 46.96875 40.921875 40.578125 39.3125 
" id="DejaVuSans-33"/>
      </defs>
      <g transform="translate(22.7 151.392875)scale(0.1 -0.1)">
       <use transform="translate(0 0.765625)" xlink:href="#DejaVuSans-31"/>
       <use transform="translate(63.623047 0.765625)" xlink:href="#DejaVuSans-30"/>
       <use transform="translate(128.203125 39.046875)scale(0.7)" xlink:href="#DejaVuSans-2212"/>
       <use transform="translate(186.855469 39.046875)scale(0.7)" xlink:href="#DejaVuSans-33"/>
       <use transform="translate(231.391602 39.046875)scale(0.7)" xlink:href="#DejaVuSans-30"/>
      </g>
     </g>
    </g>
    <g id="ytick_6">
     <g id="line2d_25">
      <path clip-path="url(#pd6647f2f86)" d="M 57.6 115.152668 
L 414.72 115.152668 
" style="fill:none;stroke:#b0b0b0;stroke-linecap:square;stroke-width:0.8;"/>
     </g>
     <g id="line2d_26">
      <g>
       <use style="stroke:#000000;stroke-width:0.8;" x="57.6" xlink:href="#m6aae2a5f8f" y="115.152668"/>
      </g>
     </g>
     <g id="text_14">
      <!-- ${10^{-20}}$ -->
      <defs>
       <path d="M 19.1875 8.296875 
L 53.609375 8.296875 
L 53.609375 0 
L 7.328125 0 
L 7.328125 8.296875 
Q 12.9375 14.109375 22.625 23.890625 
Q 32.328125 33.6875 34.8125 36.53125 
Q 39.546875 41.84375 41.421875 45.53125 
Q 43.3125 49.21875 43.3125 52.78125 
Q 43.3125 58.59375 39.234375 62.25 
Q 35.15625 65.921875 28.609375 65.921875 
Q 23.96875 65.921875 18.8125 64.3125 
Q 13.671875 62.703125 7.8125 59.421875 
L 7.8125 69.390625 
Q 13.765625 71.78125 18.9375 73 
Q 24.125 74.21875 28.421875 74.21875 
Q 39.75 74.21875 46.484375 68.546875 
Q 53.21875 62.890625 53.21875 53.421875 
Q 53.21875 48.921875 51.53125 44.890625 
Q 49.859375 40.875 45.40625 35.40625 
Q 44.1875 33.984375 37.640625 27.21875 
Q 31.109375 20.453125 19.1875 8.296875 
" id="DejaVuSans-32"/>
      </defs>
      <g transform="translate(22.7 118.951887)scale(0.1 -0.1)">
       <use transform="translate(0 0.765625)" xlink:href="#DejaVuSans-31"/>
       <use transform="translate(63.623047 0.765625)" xlink:href="#DejaVuSans-30"/>
       <use transform="translate(128.203125 39.046875)scale(0.7)" xlink:href="#DejaVuSans-2212"/>
       <use transform="translate(186.855469 39.046875)scale(0.7)" xlink:href="#DejaVuSans-32"/>
       <use transform="translate(231.391602 39.046875)scale(0.7)" xlink:href="#DejaVuSans-30"/>
      </g>
     </g>
    </g>
    <g id="ytick_7">
     <g id="line2d_27">
      <path clip-path="url(#pd6647f2f86)" d="M 57.6 82.71168 
L 414.72 82.71168 
" style="fill:none;stroke:#b0b0b0;stroke-linecap:square;stroke-width:0.8;"/>
     </g>
     <g id="line2d_28">
      <g>
       <use style="stroke:#000000;stroke-width:0.8;" x="57.6" xlink:href="#m6aae2a5f8f" y="82.71168"/>
      </g>
     </g>
     <g id="text_15">
      <!-- ${10^{-10}}$ -->
      <g transform="translate(22.7 86.510898)scale(0.1 -0.1)">
       <use transform="translate(0 0.765625)" xlink:href="#DejaVuSans-31"/>
       <use transform="translate(63.623047 0.765625)" xlink:href="#DejaVuSans-30"/>
       <use transform="translate(128.203125 39.046875)scale(0.7)" xlink:href="#DejaVuSans-2212"/>
       <use transform="translate(186.855469 39.046875)scale(0.7)" xlink:href="#DejaVuSans-31"/>
       <use transform="translate(231.391602 39.046875)scale(0.7)" xlink:href="#DejaVuSans-30"/>
      </g>
     </g>
    </g>
    <g id="ytick_8">
     <g id="line2d_29">
      <path clip-path="url(#pd6647f2f86)" d="M 57.6 50.270691 
L 414.72 50.270691 
" style="fill:none;stroke:#b0b0b0;stroke-linecap:square;stroke-width:0.8;"/>
     </g>
     <g id="line2d_30">
      <g>
       <use style="stroke:#000000;stroke-width:0.8;" x="57.6" xlink:href="#m6aae2a5f8f" y="50.270691"/>
      </g>
     </g>
     <g id="text_16">
      <!-- ${10^{0}}$ -->
      <g transform="translate(33 54.06991)scale(0.1 -0.1)">
       <use transform="translate(0 0.765625)" xlink:href="#DejaVuSans-31"/>
       <use transform="translate(63.623047 0.765625)" xlink:href="#DejaVuSans-30"/>
       <use transform="translate(128.203125 39.046875)scale(0.7)" xlink:href="#DejaVuSans-30"/>
      </g>
     </g>
    </g>
    <g id="text_17">
     <!-- $\omega_i$ -->
     <defs>
      <path d="M 21.390625 -1.421875 
Q 1.125 -1.421875 6.78125 27.59375 
Q 8.984375 39.0625 19.625 54.6875 
L 29.296875 54.6875 
Q 19.234375 39.0625 17 27.34375 
Q 12.796875 6.203125 23.734375 6.203125 
Q 33.84375 6.203125 38.71875 32.46875 
L 47.015625 32.46875 
Q 41.703125 6.0625 51.8125 6.203125 
Q 62.703125 6.296875 66.796875 27.34375 
Q 69.046875 39.0625 65.140625 54.6875 
L 74.8125 54.6875 
Q 79.296875 39.0625 77.09375 27.59375 
Q 71.53125 -1.46875 51.21875 -1.421875 
Q 37.9375 -1.375 39.109375 13.1875 
Q 34.28125 -1.421875 21.390625 -1.421875 
" id="DejaVuSans-Oblique-3c9"/>
     </defs>
     <g transform="translate(16.620312 179.828)rotate(-90)scale(0.1 -0.1)">
      <use transform="translate(0 0.3125)" xlink:href="#DejaVuSans-Oblique-3c9"/>
      <use transform="translate(83.740234 -16.09375)scale(0.7)" xlink:href="#DejaVuSans-Oblique-69"/>
     </g>
    </g>
   </g>
   <g id="line2d_31">
    <defs>
     <path d="M 0 3 
C 0.795609 3 1.55874 2.683901 2.12132 2.12132 
C 2.683901 1.55874 3 0.795609 3 0 
C 3 -0.795609 2.683901 -1.55874 2.12132 -2.12132 
C 1.55874 -2.683901 0.795609 -3 0 -3 
C -0.795609 -3 -1.55874 -2.683901 -2.12132 -2.12132 
C -2.683901 -1.55874 -3 -0.795609 -3 0 
C -3 0.795609 -2.683901 1.55874 -2.12132 2.12132 
C -1.55874 2.683901 -0.795609 3 0 3 
z
" id="m383cb81438" style="stroke:#1f77b4;"/>
    </defs>
    <g clip-path="url(#pd6647f2f86)">
     <use style="fill:#1f77b4;stroke:#1f77b4;" x="375.950971" xlink:href="#m383cb81438" y="221.691098"/>
     <use style="fill:#1f77b4;stroke:#1f77b4;" x="101.853382" xlink:href="#m383cb81438" y="208.782051"/>
     <use style="fill:#1f77b4;stroke:#1f77b4;" x="127.924507" xlink:href="#m383cb81438" y="154.88474"/>
     <use style="fill:#1f77b4;stroke:#1f77b4;" x="111.665642" xlink:href="#m383cb81438" y="186.936492"/>
     <use style="fill:#1f77b4;stroke:#1f77b4;" x="356.152009" xlink:href="#m383cb81438" y="177.460208"/>
     <use style="fill:#1f77b4;stroke:#1f77b4;" x="370.466618" xlink:href="#m383cb81438" y="208.782051"/>
     <use style="fill:#1f77b4;stroke:#1f77b4;" x="382.075274" xlink:href="#m383cb81438" y="236.679833"/>
     <use style="fill:#1f77b4;stroke:#1f77b4;" x="179.403858" xlink:href="#m383cb81438" y="80.909924"/>
     <use style="fill:#1f77b4;stroke:#1f77b4;" x="191.554176" xlink:href="#m383cb81438" y="70.406341"/>
     <use style="fill:#1f77b4;stroke:#1f77b4;" x="284.675735" xlink:href="#m383cb81438" y="72.268887"/>
     <use style="fill:#1f77b4;stroke:#1f77b4;" x="270.880069" xlink:href="#m383cb81438" y="63.209164"/>
     <use style="fill:#1f77b4;stroke:#1f77b4;" x="82.92074" xlink:href="#m383cb81438" y="255.341202"/>
     <use style="fill:#1f77b4;stroke:#1f77b4;" x="342.326837" xlink:href="#m383cb81438" y="151.29344"/>
     <use style="fill:#1f77b4;stroke:#1f77b4;" x="360.654358" xlink:href="#m383cb81438" y="186.936492"/>
     <use style="fill:#1f77b4;stroke:#1f77b4;" x="129.993163" xlink:href="#m383cb81438" y="151.29344"/>
     <use style="fill:#1f77b4;stroke:#1f77b4;" x="405.707883" xlink:href="#m383cb81438" y="295.488"/>
     <use style="fill:#1f77b4;stroke:#1f77b4;" x="325.853349" xlink:href="#m383cb81438" y="122.929221"/>
     <use style="fill:#1f77b4;stroke:#1f77b4;" x="116.167991" xlink:href="#m383cb81438" y="177.460208"/>
     <use style="fill:#1f77b4;stroke:#1f77b4;" x="152.334955" xlink:href="#m383cb81438" y="114.063029"/>
     <use style="fill:#1f77b4;stroke:#1f77b4;" x="212.471328" xlink:href="#m383cb81438" y="58.274485"/>
     <use style="fill:#1f77b4;stroke:#1f77b4;" x="66.612117" xlink:href="#m383cb81438" y="295.488"/>
     <use style="fill:#1f77b4;stroke:#1f77b4;" x="294.382912" xlink:href="#m383cb81438" y="85.773695"/>
     <use style="fill:#1f77b4;stroke:#1f77b4;" x="133.032697" xlink:href="#m383cb81438" y="145.137904"/>
     <use style="fill:#1f77b4;stroke:#1f77b4;" x="251.347603" xlink:href="#m383cb81438" y="55.016969"/>
     <use style="fill:#1f77b4;stroke:#1f77b4;" x="168.221235" xlink:href="#m383cb81438" y="94.063833"/>
     <use style="fill:#1f77b4;stroke:#1f77b4;" x="176.331619" xlink:href="#m383cb81438" y="84.031132"/>
     <use style="fill:#1f77b4;stroke:#1f77b4;" x="120.452423" xlink:href="#m383cb81438" y="168.772268"/>
     <use style="fill:#1f77b4;stroke:#1f77b4;" x="177.937088" xlink:href="#m383cb81438" y="85.773695"/>
     <use style="fill:#1f77b4;stroke:#1f77b4;" x="146.466651" xlink:href="#m383cb81438" y="122.929221"/>
     <use style="fill:#1f77b4;stroke:#1f77b4;" x="322.953301" xlink:href="#m383cb81438" y="118.490821"/>
     <use style="fill:#1f77b4;stroke:#1f77b4;" x="365.404874" xlink:href="#m383cb81438" y="197.310335"/>
     <use style="fill:#1f77b4;stroke:#1f77b4;" x="254.335909" xlink:href="#m383cb81438" y="56.021114"/>
     <use style="fill:#1f77b4;stroke:#1f77b4;" x="90.244726" xlink:href="#m383cb81438" y="236.679833"/>
     <use style="fill:#1f77b4;stroke:#1f77b4;" x="273.808591" xlink:href="#m383cb81438" y="65.575604"/>
     <use style="fill:#1f77b4;stroke:#1f77b4;" x="186.048126" xlink:href="#m383cb81438" y="74.417177"/>
     <use style="fill:#1f77b4;stroke:#1f77b4;" x="304.098765" xlink:href="#m383cb81438" y="94.063833"/>
     <use style="fill:#1f77b4;stroke:#1f77b4;" x="389.39926" xlink:href="#m383cb81438" y="255.341202"/>
     <use style="fill:#1f77b4;stroke:#1f77b4;" x="208.488204" xlink:href="#m383cb81438" y="60.211462"/>
     <use style="fill:#1f77b4;stroke:#1f77b4;" x="317.05031" xlink:href="#m383cb81438" y="109.958554"/>
     <use style="fill:#1f77b4;stroke:#1f77b4;" x="166.066723" xlink:href="#m383cb81438" y="95.846009"/>
     <use style="fill:#1f77b4;stroke:#1f77b4;" x="96.369029" xlink:href="#m383cb81438" y="221.691098"/>
     <use style="fill:#1f77b4;stroke:#1f77b4;" x="163.142658" xlink:href="#m383cb81438" y="99.378748"/>
     <use style="fill:#1f77b4;stroke:#1f77b4;" x="314.454218" xlink:href="#m383cb81438" y="106.596397"/>
     <use style="fill:#1f77b4;stroke:#1f77b4;" x="351.867577" xlink:href="#m383cb81438" y="168.772268"/>
     <use style="fill:#1f77b4;stroke:#1f77b4;" x="136.609765" xlink:href="#m383cb81438" y="138.824151"/>
     <use style="fill:#1f77b4;stroke:#1f77b4;" x="106.915126" xlink:href="#m383cb81438" y="197.310335"/>
     <use style="fill:#1f77b4;stroke:#1f77b4;" x="206.110957" xlink:href="#m383cb81438" y="61.192779"/>
     <use style="fill:#1f77b4;stroke:#1f77b4;" x="140.122191" xlink:href="#m383cb81438" y="132.92496"/>
     <use style="fill:#1f77b4;stroke:#1f77b4;" x="248.554727" xlink:href="#m383cb81438" y="54.427963"/>
     <use style="fill:#1f77b4;stroke:#1f77b4;" x="149.366699" xlink:href="#m383cb81438" y="118.490821"/>
     <use style="fill:#1f77b4;stroke:#1f77b4;" x="339.287303" xlink:href="#m383cb81438" y="145.137904"/>
     <use style="fill:#1f77b4;stroke:#1f77b4;" x="198.511409" xlink:href="#m383cb81438" y="65.575604"/>
     <use style="fill:#1f77b4;stroke:#1f77b4;" x="124.493595" xlink:href="#m383cb81438" y="160.909622"/>
     <use style="fill:#1f77b4;stroke:#1f77b4;" x="302.132722" xlink:href="#m383cb81438" y="91.048307"/>
     <use style="fill:#1f77b4;stroke:#1f77b4;" x="227.443769" xlink:href="#m383cb81438" y="55.85306"/>
     <use style="fill:#1f77b4;stroke:#1f77b4;" x="276.171221" xlink:href="#m383cb81438" y="67.576788"/>
     <use style="fill:#1f77b4;stroke:#1f77b4;" x="261.930947" xlink:href="#m383cb81438" y="59.613083"/>
     <use style="fill:#1f77b4;stroke:#1f77b4;" x="217.984091" xlink:href="#m383cb81438" y="56.021114"/>
     <use style="fill:#1f77b4;stroke:#1f77b4;" x="344.395493" xlink:href="#m383cb81438" y="154.88474"/>
     <use style="fill:#1f77b4;stroke:#1f77b4;" x="244.876231" xlink:href="#m383cb81438" y="55.85306"/>
     <use style="fill:#1f77b4;stroke:#1f77b4;" x="188.08711" xlink:href="#m383cb81438" y="71.624243"/>
     <use style="fill:#1f77b4;stroke:#1f77b4;" x="347.826405" xlink:href="#m383cb81438" y="160.909622"/>
     <use style="fill:#1f77b4;stroke:#1f77b4;" x="201.439931" xlink:href="#m383cb81438" y="63.209164"/>
     <use style="fill:#1f77b4;stroke:#1f77b4;" x="182.644331" xlink:href="#m383cb81438" y="77.850895"/>
     <use style="fill:#1f77b4;stroke:#1f77b4;" x="280.765824" xlink:href="#m383cb81438" y="70.406341"/>
     <use style="fill:#1f77b4;stroke:#1f77b4;" x="335.710235" xlink:href="#m383cb81438" y="138.824151"/>
     <use style="fill:#1f77b4;stroke:#1f77b4;" x="328.889309" xlink:href="#m383cb81438" y="127.617184"/>
     <use style="fill:#1f77b4;stroke:#1f77b4;" x="215.121986" xlink:href="#m383cb81438" y="57.054509"/>
     <use style="fill:#1f77b4;stroke:#1f77b4;" x="155.26969" xlink:href="#m383cb81438" y="109.958554"/>
     <use style="fill:#1f77b4;stroke:#1f77b4;" x="284.23289" xlink:href="#m383cb81438" y="71.624243"/>
     <use style="fill:#1f77b4;stroke:#1f77b4;" x="242.846664" xlink:href="#m383cb81438" y="53.596623"/>
     <use style="fill:#1f77b4;stroke:#1f77b4;" x="319.985045" xlink:href="#m383cb81438" y="114.063029"/>
     <use style="fill:#1f77b4;stroke:#1f77b4;" x="203.281594" xlink:href="#m383cb81438" y="61.907808"/>
     <use style="fill:#1f77b4;stroke:#1f77b4;" x="250.343964" xlink:href="#m383cb81438" y="57.555955"/>
     <use style="fill:#1f77b4;stroke:#1f77b4;" x="210.389053" xlink:href="#m383cb81438" y="59.613083"/>
     <use style="fill:#1f77b4;stroke:#1f77b4;" x="259.848672" xlink:href="#m383cb81438" y="58.274485"/>
     <use style="fill:#1f77b4;stroke:#1f77b4;" x="269.038406" xlink:href="#m383cb81438" y="61.907808"/>
     <use style="fill:#1f77b4;stroke:#1f77b4;" x="157.865782" xlink:href="#m383cb81438" y="106.596397"/>
     <use style="fill:#1f77b4;stroke:#1f77b4;" x="223.765273" xlink:href="#m383cb81438" y="54.427963"/>
     <use style="fill:#1f77b4;stroke:#1f77b4;" x="306.253277" xlink:href="#m383cb81438" y="95.846009"/>
     <use style="fill:#1f77b4;stroke:#1f77b4;" x="299.178186" xlink:href="#m383cb81438" y="87.504334"/>
     <use style="fill:#1f77b4;stroke:#1f77b4;" x="229.473336" xlink:href="#m383cb81438" y="53.596623"/>
     <use style="fill:#1f77b4;stroke:#1f77b4;" x="295.988381" xlink:href="#m383cb81438" y="84.031132"/>
     <use style="fill:#1f77b4;stroke:#1f77b4;" x="221.976036" xlink:href="#m383cb81438" y="57.555955"/>
     <use style="fill:#1f77b4;stroke:#1f77b4;" x="220.972397" xlink:href="#m383cb81438" y="55.016969"/>
     <use style="fill:#1f77b4;stroke:#1f77b4;" x="170.187278" xlink:href="#m383cb81438" y="91.048307"/>
     <use style="fill:#1f77b4;stroke:#1f77b4;" x="266.209043" xlink:href="#m383cb81438" y="61.192779"/>
     <use style="fill:#1f77b4;stroke:#1f77b4;" x="263.831796" xlink:href="#m383cb81438" y="60.211462"/>
     <use style="fill:#1f77b4;stroke:#1f77b4;" x="143.430691" xlink:href="#m383cb81438" y="127.617184"/>
     <use style="fill:#1f77b4;stroke:#1f77b4;" x="234.096724" xlink:href="#m383cb81438" y="53.779749"/>
     <use style="fill:#1f77b4;stroke:#1f77b4;" x="292.916142" xlink:href="#m383cb81438" y="80.909924"/>
     <use style="fill:#1f77b4;stroke:#1f77b4;" x="278.137638" xlink:href="#m383cb81438" y="68.813443"/>
     <use style="fill:#1f77b4;stroke:#1f77b4;" x="245.514316" xlink:href="#m383cb81438" y="53.674342"/>
     <use style="fill:#1f77b4;stroke:#1f77b4;" x="332.197809" xlink:href="#m383cb81438" y="132.92496"/>
     <use style="fill:#1f77b4;stroke:#1f77b4;" x="232.053684" xlink:href="#m383cb81438" y="53.631337"/>
     <use style="fill:#1f77b4;stroke:#1f77b4;" x="187.644265" xlink:href="#m383cb81438" y="72.268887"/>
     <use style="fill:#1f77b4;stroke:#1f77b4;" x="269.786932" xlink:href="#m383cb81438" y="62.722178"/>
     <use style="fill:#1f77b4;stroke:#1f77b4;" x="257.198014" xlink:href="#m383cb81438" y="57.054509"/>
     <use style="fill:#1f77b4;stroke:#1f77b4;" x="289.675669" xlink:href="#m383cb81438" y="77.850895"/>
     <use style="fill:#1f77b4;stroke:#1f77b4;" x="173.141814" xlink:href="#m383cb81438" y="87.504334"/>
     <use style="fill:#1f77b4;stroke:#1f77b4;" x="226.805684" xlink:href="#m383cb81438" y="53.674342"/>
     <use style="fill:#1f77b4;stroke:#1f77b4;" x="286.271874" xlink:href="#m383cb81438" y="74.417177"/>
     <use style="fill:#1f77b4;stroke:#1f77b4;" x="240.266316" xlink:href="#m383cb81438" y="53.631337"/>
     <use style="fill:#1f77b4;stroke:#1f77b4;" x="236.16" xlink:href="#m383cb81438" y="53.568"/>
     <use style="fill:#1f77b4;stroke:#1f77b4;" x="160.319379" xlink:href="#m383cb81438" y="103.190327"/>
     <use style="fill:#1f77b4;stroke:#1f77b4;" x="196.148779" xlink:href="#m383cb81438" y="67.576788"/>
     <use style="fill:#1f77b4;stroke:#1f77b4;" x="194.182362" xlink:href="#m383cb81438" y="68.813443"/>
     <use style="fill:#1f77b4;stroke:#1f77b4;" x="312.000621" xlink:href="#m383cb81438" y="103.190327"/>
     <use style="fill:#1f77b4;stroke:#1f77b4;" x="238.223276" xlink:href="#m383cb81438" y="53.779749"/>
     <use style="fill:#1f77b4;stroke:#1f77b4;" x="309.177342" xlink:href="#m383cb81438" y="99.378748"/>
     <use style="fill:#1f77b4;stroke:#1f77b4;" x="202.533068" xlink:href="#m383cb81438" y="62.722178"/>
    </g>
   </g>
   <g id="patch_3">
    <path d="M 57.6 307.584 
L 57.6 41.472 
" style="fill:none;stroke:#000000;stroke-linecap:square;stroke-linejoin:miter;stroke-width:0.8;"/>
   </g>
   <g id="patch_4">
    <path d="M 414.72 307.584 
L 414.72 41.472 
" style="fill:none;stroke:#000000;stroke-linecap:square;stroke-linejoin:miter;stroke-width:0.8;"/>
   </g>
   <g id="patch_5">
    <path d="M 57.6 307.584 
L 414.72 307.584 
" style="fill:none;stroke:#000000;stroke-linecap:square;stroke-linejoin:miter;stroke-width:0.8;"/>
   </g>
   <g id="patch_6">
    <path d="M 57.6 41.472 
L 414.72 41.472 
" style="fill:none;stroke:#000000;stroke-linecap:square;stroke-linejoin:miter;stroke-width:0.8;"/>
   </g>
  </g>
 </g>
 <defs>
  <clipPath id="pd6647f2f86">
   <rect height="266.112" width="357.12" x="57.6" y="41.472"/>
  </clipPath>
 </defs>
</svg>
