<?xml version="1.0" encoding="utf-8" standalone="no"?>
<!DOCTYPE svg PUBLIC "-//W3C//DTD SVG 1.1//EN"
  "http://www.w3.org/Graphics/SVG/1.1/DTD/svg11.dtd">
<!-- Created with matplotlib (http://matplotlib.org/) -->
<svg height="345pt" version="1.1" viewBox="0 0 460 345" width="460pt" xmlns="http://www.w3.org/2000/svg" xmlns:xlink="http://www.w3.org/1999/xlink">
 <defs>
  <style type="text/css">
*{stroke-linecap:butt;stroke-linejoin:round;}
  </style>
 </defs>
 <g id="figure_1">
  <g id="patch_1">
   <path d="M 0 345.6 
L 460.8 345.6 
L 460.8 0 
L 0 0 
z
" style="fill:#ffffff;"/>
  </g>
  <g id="axes_1">
   <g id="patch_2">
    <path d="M 57.6 307.584 
L 414.72 307.584 
L 414.72 41.472 
L 57.6 41.472 
z
" style="fill:#ffffff;"/>
   </g>
   <g id="matplotlib.axis_1">
    <g id="xtick_1">
     <g id="line2d_1">
      <path clip-path="url(#p5cfd08285e)" d="M 63.33275 307.584 
L 63.33275 41.472 
" style="fill:none;stroke:#b0b0b0;stroke-linecap:square;stroke-width:0.8;"/>
     </g>
     <g id="line2d_2">
      <defs>
       <path d="M 0 0 
L 0 3.5 
" id="mce9a9b46ec" style="stroke:#000000;stroke-width:0.8;"/>
      </defs>
      <g>
       <use style="stroke:#000000;stroke-width:0.8;" x="63.33275" xlink:href="#mce9a9b46ec" y="307.584"/>
      </g>
     </g>
     <g id="text_1">
      <!-- −15 -->
      <defs>
       <path d="M 10.59375 35.5 
L 73.1875 35.5 
L 73.1875 27.203125 
L 10.59375 27.203125 
z
" id="DejaVuSans-2212"/>
       <path d="M 12.40625 8.296875 
L 28.515625 8.296875 
L 28.515625 63.921875 
L 10.984375 60.40625 
L 10.984375 69.390625 
L 28.421875 72.90625 
L 38.28125 72.90625 
L 38.28125 8.296875 
L 54.390625 8.296875 
L 54.390625 0 
L 12.40625 0 
z
" id="DejaVuSans-31"/>
       <path d="M 10.796875 72.90625 
L 49.515625 72.90625 
L 49.515625 64.59375 
L 19.828125 64.59375 
L 19.828125 46.734375 
Q 21.96875 47.46875 24.109375 47.828125 
Q 26.265625 48.1875 28.421875 48.1875 
Q 40.625 48.1875 47.75 41.5 
Q 54.890625 34.8125 54.890625 23.390625 
Q 54.890625 11.625 47.5625 5.09375 
Q 40.234375 -1.421875 26.90625 -1.421875 
Q 22.3125 -1.421875 17.546875 -0.640625 
Q 12.796875 0.140625 7.71875 1.703125 
L 7.71875 11.625 
Q 12.109375 9.234375 16.796875 8.0625 
Q 21.484375 6.890625 26.703125 6.890625 
Q 35.15625 6.890625 40.078125 11.328125 
Q 45.015625 15.765625 45.015625 23.390625 
Q 45.015625 31 40.078125 35.4375 
Q 35.15625 39.890625 26.703125 39.890625 
Q 22.75 39.890625 18.8125 39.015625 
Q 14.890625 38.140625 10.796875 36.28125 
z
" id="DejaVuSans-35"/>
      </defs>
      <g transform="translate(52.780407 322.182437)scale(0.1 -0.1)">
       <use xlink:href="#DejaVuSans-2212"/>
       <use x="83.789062" xlink:href="#DejaVuSans-31"/>
       <use x="147.412109" xlink:href="#DejaVuSans-35"/>
      </g>
     </g>
    </g>
    <g id="xtick_2">
     <g id="line2d_3">
      <path clip-path="url(#p5cfd08285e)" d="M 120.941834 307.584 
L 120.941834 41.472 
" style="fill:none;stroke:#b0b0b0;stroke-linecap:square;stroke-width:0.8;"/>
     </g>
     <g id="line2d_4">
      <g>
       <use style="stroke:#000000;stroke-width:0.8;" x="120.941834" xlink:href="#mce9a9b46ec" y="307.584"/>
      </g>
     </g>
     <g id="text_2">
      <!-- −10 -->
      <defs>
       <path d="M 31.78125 66.40625 
Q 24.171875 66.40625 20.328125 58.90625 
Q 16.5 51.421875 16.5 36.375 
Q 16.5 21.390625 20.328125 13.890625 
Q 24.171875 6.390625 31.78125 6.390625 
Q 39.453125 6.390625 43.28125 13.890625 
Q 47.125 21.390625 47.125 36.375 
Q 47.125 51.421875 43.28125 58.90625 
Q 39.453125 66.40625 31.78125 66.40625 
M 31.78125 74.21875 
Q 44.046875 74.21875 50.515625 64.515625 
Q 56.984375 54.828125 56.984375 36.375 
Q 56.984375 17.96875 50.515625 8.265625 
Q 44.046875 -1.421875 31.78125 -1.421875 
Q 19.53125 -1.421875 13.0625 8.265625 
Q 6.59375 17.96875 6.59375 36.375 
Q 6.59375 54.828125 13.0625 64.515625 
Q 19.53125 74.21875 31.78125 74.21875 
" id="DejaVuSans-30"/>
      </defs>
      <g transform="translate(110.38949 322.182437)scale(0.1 -0.1)">
       <use xlink:href="#DejaVuSans-2212"/>
       <use x="83.789062" xlink:href="#DejaVuSans-31"/>
       <use x="147.412109" xlink:href="#DejaVuSans-30"/>
      </g>
     </g>
    </g>
    <g id="xtick_3">
     <g id="line2d_5">
      <path clip-path="url(#p5cfd08285e)" d="M 178.550917 307.584 
L 178.550917 41.472 
" style="fill:none;stroke:#b0b0b0;stroke-linecap:square;stroke-width:0.8;"/>
     </g>
     <g id="line2d_6">
      <g>
       <use style="stroke:#000000;stroke-width:0.8;" x="178.550917" xlink:href="#mce9a9b46ec" y="307.584"/>
      </g>
     </g>
     <g id="text_3">
      <!-- −5 -->
      <g transform="translate(171.179823 322.182437)scale(0.1 -0.1)">
       <use xlink:href="#DejaVuSans-2212"/>
       <use x="83.789062" xlink:href="#DejaVuSans-35"/>
      </g>
     </g>
    </g>
    <g id="xtick_4">
     <g id="line2d_7">
      <path clip-path="url(#p5cfd08285e)" d="M 236.16 307.584 
L 236.16 41.472 
" style="fill:none;stroke:#b0b0b0;stroke-linecap:square;stroke-width:0.8;"/>
     </g>
     <g id="line2d_8">
      <g>
       <use style="stroke:#000000;stroke-width:0.8;" x="236.16" xlink:href="#mce9a9b46ec" y="307.584"/>
      </g>
     </g>
     <g id="text_4">
      <!-- 0 -->
      <g transform="translate(232.97875 322.182437)scale(0.1 -0.1)">
       <use xlink:href="#DejaVuSans-30"/>
      </g>
     </g>
    </g>
    <g id="xtick_5">
     <g id="line2d_9">
      <path clip-path="url(#p5cfd08285e)" d="M 293.769083 307.584 
L 293.769083 41.472 
" style="fill:none;stroke:#b0b0b0;stroke-linecap:square;stroke-width:0.8;"/>
     </g>
     <g id="line2d_10">
      <g>
       <use style="stroke:#000000;stroke-width:0.8;" x="293.769083" xlink:href="#mce9a9b46ec" y="307.584"/>
      </g>
     </g>
     <g id="text_5">
      <!-- 5 -->
      <g transform="translate(290.587833 322.182437)scale(0.1 -0.1)">
       <use xlink:href="#DejaVuSans-35"/>
      </g>
     </g>
    </g>
    <g id="xtick_6">
     <g id="line2d_11">
      <path clip-path="url(#p5cfd08285e)" d="M 351.378166 307.584 
L 351.378166 41.472 
" style="fill:none;stroke:#b0b0b0;stroke-linecap:square;stroke-width:0.8;"/>
     </g>
     <g id="line2d_12">
      <g>
       <use style="stroke:#000000;stroke-width:0.8;" x="351.378166" xlink:href="#mce9a9b46ec" y="307.584"/>
      </g>
     </g>
     <g id="text_6">
      <!-- 10 -->
      <g transform="translate(345.015666 322.182437)scale(0.1 -0.1)">
       <use xlink:href="#DejaVuSans-31"/>
       <use x="63.623047" xlink:href="#DejaVuSans-30"/>
      </g>
     </g>
    </g>
    <g id="xtick_7">
     <g id="line2d_13">
      <path clip-path="url(#p5cfd08285e)" d="M 408.98725 307.584 
L 408.98725 41.472 
" style="fill:none;stroke:#b0b0b0;stroke-linecap:square;stroke-width:0.8;"/>
     </g>
     <g id="line2d_14">
      <g>
       <use style="stroke:#000000;stroke-width:0.8;" x="408.98725" xlink:href="#mce9a9b46ec" y="307.584"/>
      </g>
     </g>
     <g id="text_7">
      <!-- 15 -->
      <g transform="translate(402.62475 322.182437)scale(0.1 -0.1)">
       <use xlink:href="#DejaVuSans-31"/>
       <use x="63.623047" xlink:href="#DejaVuSans-35"/>
      </g>
     </g>
    </g>
    <g id="text_8">
     <!-- $\gamma_i$ -->
     <defs>
      <path d="M 23.296875 46.09375 
L 28.71875 12.3125 
L 54 54.6875 
L 63.53125 54.6875 
L 30.8125 0 
L 26.765625 -20.796875 
L 17.78125 -20.796875 
L 21.828125 0 
L 15.4375 40.828125 
Q 14.453125 46.96875 9.8125 46.96875 
L 7.421875 46.96875 
L 8.890625 54.6875 
L 12.3125 54.6875 
Q 21.921875 54.6875 23.296875 46.09375 
" id="DejaVuSans-Oblique-3b3"/>
      <path d="M 18.3125 75.984375 
L 27.296875 75.984375 
L 25.09375 64.59375 
L 16.109375 64.59375 
z
M 14.203125 54.6875 
L 23.1875 54.6875 
L 12.5 0 
L 3.515625 0 
z
" id="DejaVuSans-Oblique-69"/>
     </defs>
     <g transform="translate(232.06 335.84025)scale(0.1 -0.1)">
      <use transform="translate(0 0.3125)" xlink:href="#DejaVuSans-Oblique-3b3"/>
      <use transform="translate(59.179688 -16.09375)scale(0.7)" xlink:href="#DejaVuSans-Oblique-69"/>
     </g>
    </g>
   </g>
   <g id="matplotlib.axis_2">
    <g id="ytick_1">
     <g id="line2d_15">
      <path clip-path="url(#p5cfd08285e)" d="M 57.6 279.35658 
L 414.72 279.35658 
" style="fill:none;stroke:#b0b0b0;stroke-linecap:square;stroke-width:0.8;"/>
     </g>
     <g id="line2d_16">
      <defs>
       <path d="M 0 0 
L -3.5 0 
" id="m504fd96866" style="stroke:#000000;stroke-width:0.8;"/>
      </defs>
      <g>
       <use style="stroke:#000000;stroke-width:0.8;" x="57.6" xlink:href="#m504fd96866" y="279.35658"/>
      </g>
     </g>
     <g id="text_9">
      <!-- ${10^{-43}}$ -->
      <defs>
       <path d="M 37.796875 64.3125 
L 12.890625 25.390625 
L 37.796875 25.390625 
z
M 35.203125 72.90625 
L 47.609375 72.90625 
L 47.609375 25.390625 
L 58.015625 25.390625 
L 58.015625 17.1875 
L 47.609375 17.1875 
L 47.609375 0 
L 37.796875 0 
L 37.796875 17.1875 
L 4.890625 17.1875 
L 4.890625 26.703125 
z
" id="DejaVuSans-34"/>
       <path d="M 40.578125 39.3125 
Q 47.65625 37.796875 51.625 33 
Q 55.609375 28.21875 55.609375 21.1875 
Q 55.609375 10.40625 48.1875 4.484375 
Q 40.765625 -1.421875 27.09375 -1.421875 
Q 22.515625 -1.421875 17.65625 -0.515625 
Q 12.796875 0.390625 7.625 2.203125 
L 7.625 11.71875 
Q 11.71875 9.328125 16.59375 8.109375 
Q 21.484375 6.890625 26.8125 6.890625 
Q 36.078125 6.890625 40.9375 10.546875 
Q 45.796875 14.203125 45.796875 21.1875 
Q 45.796875 27.640625 41.28125 31.265625 
Q 36.765625 34.90625 28.71875 34.90625 
L 20.21875 34.90625 
L 20.21875 43.015625 
L 29.109375 43.015625 
Q 36.375 43.015625 40.234375 45.921875 
Q 44.09375 48.828125 44.09375 54.296875 
Q 44.09375 59.90625 40.109375 62.90625 
Q 36.140625 65.921875 28.71875 65.921875 
Q 24.65625 65.921875 20.015625 65.03125 
Q 15.375 64.15625 9.8125 62.3125 
L 9.8125 71.09375 
Q 15.4375 72.65625 20.34375 73.4375 
Q 25.25 74.21875 29.59375 74.21875 
Q 40.828125 74.21875 47.359375 69.109375 
Q 53.90625 64.015625 53.90625 55.328125 
Q 53.90625 49.265625 50.4375 45.09375 
Q 46.96875 40.921875 40.578125 39.3125 
" id="DejaVuSans-33"/>
      </defs>
      <g transform="translate(22.7 283.155799)scale(0.1 -0.1)">
       <use transform="translate(0 0.765625)" xlink:href="#DejaVuSans-31"/>
       <use transform="translate(63.623047 0.765625)" xlink:href="#DejaVuSans-30"/>
       <use transform="translate(128.203125 39.046875)scale(0.7)" xlink:href="#DejaVuSans-2212"/>
       <use transform="translate(186.855469 39.046875)scale(0.7)" xlink:href="#DejaVuSans-34"/>
       <use transform="translate(231.391602 39.046875)scale(0.7)" xlink:href="#DejaVuSans-33"/>
      </g>
     </g>
    </g>
    <g id="ytick_2">
     <g id="line2d_17">
      <path clip-path="url(#p5cfd08285e)" d="M 57.6 247.353732 
L 414.72 247.353732 
" style="fill:none;stroke:#b0b0b0;stroke-linecap:square;stroke-width:0.8;"/>
     </g>
     <g id="line2d_18">
      <g>
       <use style="stroke:#000000;stroke-width:0.8;" x="57.6" xlink:href="#m504fd96866" y="247.353732"/>
      </g>
     </g>
     <g id="text_10">
      <!-- ${10^{-37}}$ -->
      <defs>
       <path d="M 8.203125 72.90625 
L 55.078125 72.90625 
L 55.078125 68.703125 
L 28.609375 0 
L 18.3125 0 
L 43.21875 64.59375 
L 8.203125 64.59375 
z
" id="DejaVuSans-37"/>
      </defs>
      <g transform="translate(22.7 251.152951)scale(0.1 -0.1)">
       <use transform="translate(0 0.765625)" xlink:href="#DejaVuSans-31"/>
       <use transform="translate(63.623047 0.765625)" xlink:href="#DejaVuSans-30"/>
       <use transform="translate(128.203125 39.046875)scale(0.7)" xlink:href="#DejaVuSans-2212"/>
       <use transform="translate(186.855469 39.046875)scale(0.7)" xlink:href="#DejaVuSans-33"/>
       <use transform="translate(231.391602 39.046875)scale(0.7)" xlink:href="#DejaVuSans-37"/>
      </g>
     </g>
    </g>
    <g id="ytick_3">
     <g id="line2d_19">
      <path clip-path="url(#p5cfd08285e)" d="M 57.6 215.350885 
L 414.72 215.350885 
" style="fill:none;stroke:#b0b0b0;stroke-linecap:square;stroke-width:0.8;"/>
     </g>
     <g id="line2d_20">
      <g>
       <use style="stroke:#000000;stroke-width:0.8;" x="57.6" xlink:href="#m504fd96866" y="215.350885"/>
      </g>
     </g>
     <g id="text_11">
      <!-- ${10^{-31}}$ -->
      <g transform="translate(22.7 219.150103)scale(0.1 -0.1)">
       <use transform="translate(0 0.765625)" xlink:href="#DejaVuSans-31"/>
       <use transform="translate(63.623047 0.765625)" xlink:href="#DejaVuSans-30"/>
       <use transform="translate(128.203125 39.046875)scale(0.7)" xlink:href="#DejaVuSans-2212"/>
       <use transform="translate(186.855469 39.046875)scale(0.7)" xlink:href="#DejaVuSans-33"/>
       <use transform="translate(231.391602 39.046875)scale(0.7)" xlink:href="#DejaVuSans-31"/>
      </g>
     </g>
    </g>
    <g id="ytick_4">
     <g id="line2d_21">
      <path clip-path="url(#p5cfd08285e)" d="M 57.6 183.348037 
L 414.72 183.348037 
" style="fill:none;stroke:#b0b0b0;stroke-linecap:square;stroke-width:0.8;"/>
     </g>
     <g id="line2d_22">
      <g>
       <use style="stroke:#000000;stroke-width:0.8;" x="57.6" xlink:href="#m504fd96866" y="183.348037"/>
      </g>
     </g>
     <g id="text_12">
      <!-- ${10^{-25}}$ -->
      <defs>
       <path d="M 19.1875 8.296875 
L 53.609375 8.296875 
L 53.609375 0 
L 7.328125 0 
L 7.328125 8.296875 
Q 12.9375 14.109375 22.625 23.890625 
Q 32.328125 33.6875 34.8125 36.53125 
Q 39.546875 41.84375 41.421875 45.53125 
Q 43.3125 49.21875 43.3125 52.78125 
Q 43.3125 58.59375 39.234375 62.25 
Q 35.15625 65.921875 28.609375 65.921875 
Q 23.96875 65.921875 18.8125 64.3125 
Q 13.671875 62.703125 7.8125 59.421875 
L 7.8125 69.390625 
Q 13.765625 71.78125 18.9375 73 
Q 24.125 74.21875 28.421875 74.21875 
Q 39.75 74.21875 46.484375 68.546875 
Q 53.21875 62.890625 53.21875 53.421875 
Q 53.21875 48.921875 51.53125 44.890625 
Q 49.859375 40.875 45.40625 35.40625 
Q 44.1875 33.984375 37.640625 27.21875 
Q 31.109375 20.453125 19.1875 8.296875 
" id="DejaVuSans-32"/>
      </defs>
      <g transform="translate(22.7 187.147256)scale(0.1 -0.1)">
       <use transform="translate(0 0.765625)" xlink:href="#DejaVuSans-31"/>
       <use transform="translate(63.623047 0.765625)" xlink:href="#DejaVuSans-30"/>
       <use transform="translate(128.203125 39.046875)scale(0.7)" xlink:href="#DejaVuSans-2212"/>
       <use transform="translate(186.855469 39.046875)scale(0.7)" xlink:href="#DejaVuSans-32"/>
       <use transform="translate(231.391602 39.046875)scale(0.7)" xlink:href="#DejaVuSans-35"/>
      </g>
     </g>
    </g>
    <g id="ytick_5">
     <g id="line2d_23">
      <path clip-path="url(#p5cfd08285e)" d="M 57.6 151.345189 
L 414.72 151.345189 
" style="fill:none;stroke:#b0b0b0;stroke-linecap:square;stroke-width:0.8;"/>
     </g>
     <g id="line2d_24">
      <g>
       <use style="stroke:#000000;stroke-width:0.8;" x="57.6" xlink:href="#m504fd96866" y="151.345189"/>
      </g>
     </g>
     <g id="text_13">
      <!-- ${10^{-19}}$ -->
      <defs>
       <path d="M 10.984375 1.515625 
L 10.984375 10.5 
Q 14.703125 8.734375 18.5 7.8125 
Q 22.3125 6.890625 25.984375 6.890625 
Q 35.75 6.890625 40.890625 13.453125 
Q 46.046875 20.015625 46.78125 33.40625 
Q 43.953125 29.203125 39.59375 26.953125 
Q 35.25 24.703125 29.984375 24.703125 
Q 19.046875 24.703125 12.671875 31.3125 
Q 6.296875 37.9375 6.296875 49.421875 
Q 6.296875 60.640625 12.9375 67.421875 
Q 19.578125 74.21875 30.609375 74.21875 
Q 43.265625 74.21875 49.921875 64.515625 
Q 56.59375 54.828125 56.59375 36.375 
Q 56.59375 19.140625 48.40625 8.859375 
Q 40.234375 -1.421875 26.421875 -1.421875 
Q 22.703125 -1.421875 18.890625 -0.6875 
Q 15.09375 0.046875 10.984375 1.515625 
M 30.609375 32.421875 
Q 37.25 32.421875 41.125 36.953125 
Q 45.015625 41.5 45.015625 49.421875 
Q 45.015625 57.28125 41.125 61.84375 
Q 37.25 66.40625 30.609375 66.40625 
Q 23.96875 66.40625 20.09375 61.84375 
Q 16.21875 57.28125 16.21875 49.421875 
Q 16.21875 41.5 20.09375 36.953125 
Q 23.96875 32.421875 30.609375 32.421875 
" id="DejaVuSans-39"/>
      </defs>
      <g transform="translate(22.7 155.144408)scale(0.1 -0.1)">
       <use transform="translate(0 0.765625)" xlink:href="#DejaVuSans-31"/>
       <use transform="translate(63.623047 0.765625)" xlink:href="#DejaVuSans-30"/>
       <use transform="translate(128.203125 39.046875)scale(0.7)" xlink:href="#DejaVuSans-2212"/>
       <use transform="translate(186.855469 39.046875)scale(0.7)" xlink:href="#DejaVuSans-31"/>
       <use transform="translate(231.391602 39.046875)scale(0.7)" xlink:href="#DejaVuSans-39"/>
      </g>
     </g>
    </g>
    <g id="ytick_6">
     <g id="line2d_25">
      <path clip-path="url(#p5cfd08285e)" d="M 57.6 119.342342 
L 414.72 119.342342 
" style="fill:none;stroke:#b0b0b0;stroke-linecap:square;stroke-width:0.8;"/>
     </g>
     <g id="line2d_26">
      <g>
       <use style="stroke:#000000;stroke-width:0.8;" x="57.6" xlink:href="#m504fd96866" y="119.342342"/>
      </g>
     </g>
     <g id="text_14">
      <!-- ${10^{-13}}$ -->
      <g transform="translate(22.7 123.14156)scale(0.1 -0.1)">
       <use transform="translate(0 0.765625)" xlink:href="#DejaVuSans-31"/>
       <use transform="translate(63.623047 0.765625)" xlink:href="#DejaVuSans-30"/>
       <use transform="translate(128.203125 39.046875)scale(0.7)" xlink:href="#DejaVuSans-2212"/>
       <use transform="translate(186.855469 39.046875)scale(0.7)" xlink:href="#DejaVuSans-31"/>
       <use transform="translate(231.391602 39.046875)scale(0.7)" xlink:href="#DejaVuSans-33"/>
      </g>
     </g>
    </g>
    <g id="ytick_7">
     <g id="line2d_27">
      <path clip-path="url(#p5cfd08285e)" d="M 57.6 87.339494 
L 414.72 87.339494 
" style="fill:none;stroke:#b0b0b0;stroke-linecap:square;stroke-width:0.8;"/>
     </g>
     <g id="line2d_28">
      <g>
       <use style="stroke:#000000;stroke-width:0.8;" x="57.6" xlink:href="#m504fd96866" y="87.339494"/>
      </g>
     </g>
     <g id="text_15">
      <!-- ${10^{-7}}$ -->
      <g transform="translate(27.1 91.138713)scale(0.1 -0.1)">
       <use transform="translate(0 0.684375)" xlink:href="#DejaVuSans-31"/>
       <use transform="translate(63.623047 0.684375)" xlink:href="#DejaVuSans-30"/>
       <use transform="translate(128.203125 38.965625)scale(0.7)" xlink:href="#DejaVuSans-2212"/>
       <use transform="translate(186.855469 38.965625)scale(0.7)" xlink:href="#DejaVuSans-37"/>
      </g>
     </g>
    </g>
    <g id="ytick_8">
     <g id="line2d_29">
      <path clip-path="url(#p5cfd08285e)" d="M 57.6 55.336646 
L 414.72 55.336646 
" style="fill:none;stroke:#b0b0b0;stroke-linecap:square;stroke-width:0.8;"/>
     </g>
     <g id="line2d_30">
      <g>
       <use style="stroke:#000000;stroke-width:0.8;" x="57.6" xlink:href="#m504fd96866" y="55.336646"/>
      </g>
     </g>
     <g id="text_16">
      <!-- ${10^{-1}}$ -->
      <g transform="translate(27.1 59.135865)scale(0.1 -0.1)">
       <use transform="translate(0 0.684375)" xlink:href="#DejaVuSans-31"/>
       <use transform="translate(63.623047 0.684375)" xlink:href="#DejaVuSans-30"/>
       <use transform="translate(128.203125 38.965625)scale(0.7)" xlink:href="#DejaVuSans-2212"/>
       <use transform="translate(186.855469 38.965625)scale(0.7)" xlink:href="#DejaVuSans-31"/>
      </g>
     </g>
    </g>
    <g id="text_17">
     <!-- $\omega_i$ -->
     <defs>
      <path d="M 21.390625 -1.421875 
Q 1.125 -1.421875 6.78125 27.59375 
Q 8.984375 39.0625 19.625 54.6875 
L 29.296875 54.6875 
Q 19.234375 39.0625 17 27.34375 
Q 12.796875 6.203125 23.734375 6.203125 
Q 33.84375 6.203125 38.71875 32.46875 
L 47.015625 32.46875 
Q 41.703125 6.0625 51.8125 6.203125 
Q 62.703125 6.296875 66.796875 27.34375 
Q 69.046875 39.0625 65.140625 54.6875 
L 74.8125 54.6875 
Q 79.296875 39.0625 77.09375 27.59375 
Q 71.53125 -1.46875 51.21875 -1.421875 
Q 37.9375 -1.375 39.109375 13.1875 
Q 34.28125 -1.421875 21.390625 -1.421875 
" id="DejaVuSans-Oblique-3c9"/>
     </defs>
     <g transform="translate(16.620312 179.828)rotate(-90)scale(0.1 -0.1)">
      <use transform="translate(0 0.3125)" xlink:href="#DejaVuSans-Oblique-3c9"/>
      <use transform="translate(83.740234 -16.09375)scale(0.7)" xlink:href="#DejaVuSans-Oblique-69"/>
     </g>
    </g>
   </g>
   <g id="line2d_31">
    <defs>
     <path d="M 0 3 
C 0.795609 3 1.55874 2.683901 2.12132 2.12132 
C 2.683901 1.55874 3 0.795609 3 0 
C 3 -0.795609 2.683901 -1.55874 2.12132 -2.12132 
C 1.55874 -2.683901 0.795609 -3 0 -3 
C -0.795609 -3 -1.55874 -2.683901 -2.12132 -2.12132 
C -2.683901 -1.55874 -3 -0.795609 -3 0 
C -3 0.795609 -2.683901 1.55874 -2.12132 2.12132 
C -1.55874 2.683901 -0.795609 3 0 3 
z
" id="m5b3cb7d1e7" style="stroke:#1f77b4;"/>
    </defs>
    <g clip-path="url(#p5cfd08285e)">
     <use style="fill:#1f77b4;stroke:#1f77b4;" x="369.781168" xlink:href="#m5b3cb7d1e7" y="209.145238"/>
     <use style="fill:#1f77b4;stroke:#1f77b4;" x="115.287889" xlink:href="#m5b3cb7d1e7" y="181.097419"/>
     <use style="fill:#1f77b4;stroke:#1f77b4;" x="384.368579" xlink:href="#m5b3cb7d1e7" y="244.626118"/>
     <use style="fill:#1f77b4;stroke:#1f77b4;" x="130.045412" xlink:href="#m5b3cb7d1e7" y="153.916032"/>
     <use style="fill:#1f77b4;stroke:#1f77b4;" x="351.16406" xlink:href="#m5b3cb7d1e7" y="169.160757"/>
     <use style="fill:#1f77b4;stroke:#1f77b4;" x="69.121817" xlink:href="#m5b3cb7d1e7" y="295.488"/>
     <use style="fill:#1f77b4;stroke:#1f77b4;" x="87.951421" xlink:href="#m5b3cb7d1e7" y="244.626118"/>
     <use style="fill:#1f77b4;stroke:#1f77b4;" x="363.229812" xlink:href="#m5b3cb7d1e7" y="194.38146"/>
     <use style="fill:#1f77b4;stroke:#1f77b4;" x="284.015725" xlink:href="#m5b3cb7d1e7" y="75.209771"/>
     <use style="fill:#1f77b4;stroke:#1f77b4;" x="328.870494" xlink:href="#m5b3cb7d1e7" y="129.063729"/>
     <use style="fill:#1f77b4;stroke:#1f77b4;" x="276.893595" xlink:href="#m5b3cb7d1e7" y="68.972653"/>
     <use style="fill:#1f77b4;stroke:#1f77b4;" x="357.032111" xlink:href="#m5b3cb7d1e7" y="181.097419"/>
     <use style="fill:#1f77b4;stroke:#1f77b4;" x="216.032958" xlink:href="#m5b3cb7d1e7" y="60.43315"/>
     <use style="fill:#1f77b4;stroke:#1f77b4;" x="188.304275" xlink:href="#m5b3cb7d1e7" y="75.209771"/>
     <use style="fill:#1f77b4;stroke:#1f77b4;" x="121.15594" xlink:href="#m5b3cb7d1e7" y="169.160757"/>
     <use style="fill:#1f77b4;stroke:#1f77b4;" x="102.538832" xlink:href="#m5b3cb7d1e7" y="209.145238"/>
     <use style="fill:#1f77b4;stroke:#1f77b4;" x="403.198183" xlink:href="#m5b3cb7d1e7" y="295.488"/>
     <use style="fill:#1f77b4;stroke:#1f77b4;" x="323.989822" xlink:href="#m5b3cb7d1e7" y="121.481053"/>
     <use style="fill:#1f77b4;stroke:#1f77b4;" x="95.546712" xlink:href="#m5b3cb7d1e7" y="225.707393"/>
     <use style="fill:#1f77b4;stroke:#1f77b4;" x="315.057111" xlink:href="#m5b3cb7d1e7" y="108.780158"/>
     <use style="fill:#1f77b4;stroke:#1f77b4;" x="267.303806" xlink:href="#m5b3cb7d1e7" y="63.153039"/>
     <use style="fill:#1f77b4;stroke:#1f77b4;" x="392.891308" xlink:href="#m5b3cb7d1e7" y="266.976552"/>
     <use style="fill:#1f77b4;stroke:#1f77b4;" x="376.773288" xlink:href="#m5b3cb7d1e7" y="225.707393"/>
     <use style="fill:#1f77b4;stroke:#1f77b4;" x="157.262889" xlink:href="#m5b3cb7d1e7" y="108.780158"/>
     <use style="fill:#1f77b4;stroke:#1f77b4;" x="191.497863" xlink:href="#m5b3cb7d1e7" y="72.241568"/>
     <use style="fill:#1f77b4;stroke:#1f77b4;" x="258.418015" xlink:href="#m5b3cb7d1e7" y="58.351157"/>
     <use style="fill:#1f77b4;stroke:#1f77b4;" x="126.513092" xlink:href="#m5b3cb7d1e7" y="159.041426"/>
     <use style="fill:#1f77b4;stroke:#1f77b4;" x="180.994442" xlink:href="#m5b3cb7d1e7" y="81.134411"/>
     <use style="fill:#1f77b4;stroke:#1f77b4;" x="195.426405" xlink:href="#m5b3cb7d1e7" y="68.972653"/>
     <use style="fill:#1f77b4;stroke:#1f77b4;" x="217.938221" xlink:href="#m5b3cb7d1e7" y="56.849941"/>
     <use style="fill:#1f77b4;stroke:#1f77b4;" x="79.428692" xlink:href="#m5b3cb7d1e7" y="266.976552"/>
     <use style="fill:#1f77b4;stroke:#1f77b4;" x="249.61213" xlink:href="#m5b3cb7d1e7" y="55.796591"/>
     <use style="fill:#1f77b4;stroke:#1f77b4;" x="109.090188" xlink:href="#m5b3cb7d1e7" y="194.38146"/>
     <use style="fill:#1f77b4;stroke:#1f77b4;" x="295.222302" xlink:href="#m5b3cb7d1e7" y="85.164361"/>
     <use style="fill:#1f77b4;stroke:#1f77b4;" x="202.402132" xlink:href="#m5b3cb7d1e7" y="66.372606"/>
     <use style="fill:#1f77b4;stroke:#1f77b4;" x="133.456284" xlink:href="#m5b3cb7d1e7" y="146.296116"/>
     <use style="fill:#1f77b4;stroke:#1f77b4;" x="310.905689" xlink:href="#m5b3cb7d1e7" y="103.245625"/>
     <use style="fill:#1f77b4;stroke:#1f77b4;" x="280.822137" xlink:href="#m5b3cb7d1e7" y="72.241568"/>
     <use style="fill:#1f77b4;stroke:#1f77b4;" x="263.056693" xlink:href="#m5b3cb7d1e7" y="60.638372"/>
     <use style="fill:#1f77b4;stroke:#1f77b4;" x="222.70787" xlink:href="#m5b3cb7d1e7" y="55.796591"/>
     <use style="fill:#1f77b4;stroke:#1f77b4;" x="209.263307" xlink:href="#m5b3cb7d1e7" y="60.638372"/>
     <use style="fill:#1f77b4;stroke:#1f77b4;" x="345.806908" xlink:href="#m5b3cb7d1e7" y="159.041426"/>
     <use style="fill:#1f77b4;stroke:#1f77b4;" x="169.65048" xlink:href="#m5b3cb7d1e7" y="93.19807"/>
     <use style="fill:#1f77b4;stroke:#1f77b4;" x="148.330178" xlink:href="#m5b3cb7d1e7" y="121.481053"/>
     <use style="fill:#1f77b4;stroke:#1f77b4;" x="291.325558" xlink:href="#m5b3cb7d1e7" y="81.134411"/>
     <use style="fill:#1f77b4;stroke:#1f77b4;" x="173.441937" xlink:href="#m5b3cb7d1e7" y="89.116797"/>
     <use style="fill:#1f77b4;stroke:#1f77b4;" x="199.553212" xlink:href="#m5b3cb7d1e7" y="66.325329"/>
     <use style="fill:#1f77b4;stroke:#1f77b4;" x="319.373669" xlink:href="#m5b3cb7d1e7" y="114.743612"/>
     <use style="fill:#1f77b4;stroke:#1f77b4;" x="242.641711" xlink:href="#m5b3cb7d1e7" y="54.967129"/>
     <use style="fill:#1f77b4;stroke:#1f77b4;" x="138.402518" xlink:href="#m5b3cb7d1e7" y="137.406054"/>
     <use style="fill:#1f77b4;stroke:#1f77b4;" x="161.414311" xlink:href="#m5b3cb7d1e7" y="103.245625"/>
     <use style="fill:#1f77b4;stroke:#1f77b4;" x="306.750143" xlink:href="#m5b3cb7d1e7" y="97.969683"/>
     <use style="fill:#1f77b4;stroke:#1f77b4;" x="177.097698" xlink:href="#m5b3cb7d1e7" y="85.164361"/>
     <use style="fill:#1f77b4;stroke:#1f77b4;" x="333.917482" xlink:href="#m5b3cb7d1e7" y="137.406054"/>
     <use style="fill:#1f77b4;stroke:#1f77b4;" x="256.287042" xlink:href="#m5b3cb7d1e7" y="60.43315"/>
     <use style="fill:#1f77b4;stroke:#1f77b4;" x="287.387294" xlink:href="#m5b3cb7d1e7" y="77.620628"/>
     <use style="fill:#1f77b4;stroke:#1f77b4;" x="236.16" xlink:href="#m5b3cb7d1e7" y="54.188221"/>
     <use style="fill:#1f77b4;stroke:#1f77b4;" x="213.901985" xlink:href="#m5b3cb7d1e7" y="58.351157"/>
     <use style="fill:#1f77b4;stroke:#1f77b4;" x="272.766788" xlink:href="#m5b3cb7d1e7" y="66.325329"/>
     <use style="fill:#1f77b4;stroke:#1f77b4;" x="241.187825" xlink:href="#m5b3cb7d1e7" y="53.568"/>
     <use style="fill:#1f77b4;stroke:#1f77b4;" x="302.66952" xlink:href="#m5b3cb7d1e7" y="93.19807"/>
     <use style="fill:#1f77b4;stroke:#1f77b4;" x="229.678289" xlink:href="#m5b3cb7d1e7" y="54.967129"/>
     <use style="fill:#1f77b4;stroke:#1f77b4;" x="338.863716" xlink:href="#m5b3cb7d1e7" y="146.296116"/>
     <use style="fill:#1f77b4;stroke:#1f77b4;" x="269.917868" xlink:href="#m5b3cb7d1e7" y="66.372606"/>
     <use style="fill:#1f77b4;stroke:#1f77b4;" x="244.708771" xlink:href="#m5b3cb7d1e7" y="54.324395"/>
     <use style="fill:#1f77b4;stroke:#1f77b4;" x="298.878063" xlink:href="#m5b3cb7d1e7" y="89.116797"/>
     <use style="fill:#1f77b4;stroke:#1f77b4;" x="184.932706" xlink:href="#m5b3cb7d1e7" y="77.620628"/>
     <use style="fill:#1f77b4;stroke:#1f77b4;" x="205.016194" xlink:href="#m5b3cb7d1e7" y="63.153039"/>
     <use style="fill:#1f77b4;stroke:#1f77b4;" x="165.569857" xlink:href="#m5b3cb7d1e7" y="97.969683"/>
     <use style="fill:#1f77b4;stroke:#1f77b4;" x="143.449506" xlink:href="#m5b3cb7d1e7" y="129.063729"/>
     <use style="fill:#1f77b4;stroke:#1f77b4;" x="254.381779" xlink:href="#m5b3cb7d1e7" y="56.849941"/>
     <use style="fill:#1f77b4;stroke:#1f77b4;" x="342.274588" xlink:href="#m5b3cb7d1e7" y="153.916032"/>
     <use style="fill:#1f77b4;stroke:#1f77b4;" x="227.611229" xlink:href="#m5b3cb7d1e7" y="54.324395"/>
     <use style="fill:#1f77b4;stroke:#1f77b4;" x="231.132175" xlink:href="#m5b3cb7d1e7" y="53.568"/>
     <use style="fill:#1f77b4;stroke:#1f77b4;" x="152.946331" xlink:href="#m5b3cb7d1e7" y="114.743612"/>
    </g>
   </g>
   <g id="patch_3">
    <path d="M 57.6 307.584 
L 57.6 41.472 
" style="fill:none;stroke:#000000;stroke-linecap:square;stroke-linejoin:miter;stroke-width:0.8;"/>
   </g>
   <g id="patch_4">
    <path d="M 414.72 307.584 
L 414.72 41.472 
" style="fill:none;stroke:#000000;stroke-linecap:square;stroke-linejoin:miter;stroke-width:0.8;"/>
   </g>
   <g id="patch_5">
    <path d="M 57.6 307.584 
L 414.72 307.584 
" style="fill:none;stroke:#000000;stroke-linecap:square;stroke-linejoin:miter;stroke-width:0.8;"/>
   </g>
   <g id="patch_6">
    <path d="M 57.6 41.472 
L 414.72 41.472 
" style="fill:none;stroke:#000000;stroke-linecap:square;stroke-linejoin:miter;stroke-width:0.8;"/>
   </g>
  </g>
 </g>
 <defs>
  <clipPath id="p5cfd08285e">
   <rect height="266.112" width="357.12" x="57.6" y="41.472"/>
  </clipPath>
 </defs>
</svg>
