<?xml version="1.0" encoding="utf-8" standalone="no"?>
<!DOCTYPE svg PUBLIC "-//W3C//DTD SVG 1.1//EN"
  "http://www.w3.org/Graphics/SVG/1.1/DTD/svg11.dtd">
<!-- Created with matplotlib (http://matplotlib.org/) -->
<svg height="345pt" version="1.1" viewBox="0 0 460 345" width="460pt" xmlns="http://www.w3.org/2000/svg" xmlns:xlink="http://www.w3.org/1999/xlink">
 <defs>
  <style type="text/css">
*{stroke-linecap:butt;stroke-linejoin:round;}
  </style>
 </defs>
 <g id="figure_1">
  <g id="patch_1">
   <path d="M 0 345.6 
L 460.8 345.6 
L 460.8 0 
L 0 0 
z
" style="fill:#ffffff;"/>
  </g>
  <g id="axes_1">
   <g id="patch_2">
    <path d="M 57.6 307.584 
L 414.72 307.584 
L 414.72 41.472 
L 57.6 41.472 
z
" style="fill:#ffffff;"/>
   </g>
   <g id="matplotlib.axis_1">
    <g id="xtick_1">
     <g id="line2d_1">
      <path clip-path="url(#pa7aa50cf5d)" d="M 61.762468 307.584 
L 61.762468 41.472 
" style="fill:none;stroke:#b0b0b0;stroke-linecap:square;stroke-width:0.8;"/>
     </g>
     <g id="line2d_2">
      <defs>
       <path d="M 0 0 
L 0 3.5 
" id="mf37f0cbf2e" style="stroke:#000000;stroke-width:0.8;"/>
      </defs>
      <g>
       <use style="stroke:#000000;stroke-width:0.8;" x="61.762468" xlink:href="#mf37f0cbf2e" y="307.584"/>
      </g>
     </g>
     <g id="text_1">
      <!-- −20 -->
      <defs>
       <path d="M 10.59375 35.5 
L 73.1875 35.5 
L 73.1875 27.203125 
L 10.59375 27.203125 
z
" id="DejaVuSans-2212"/>
       <path d="M 19.1875 8.296875 
L 53.609375 8.296875 
L 53.609375 0 
L 7.328125 0 
L 7.328125 8.296875 
Q 12.9375 14.109375 22.625 23.890625 
Q 32.328125 33.6875 34.8125 36.53125 
Q 39.546875 41.84375 41.421875 45.53125 
Q 43.3125 49.21875 43.3125 52.78125 
Q 43.3125 58.59375 39.234375 62.25 
Q 35.15625 65.921875 28.609375 65.921875 
Q 23.96875 65.921875 18.8125 64.3125 
Q 13.671875 62.703125 7.8125 59.421875 
L 7.8125 69.390625 
Q 13.765625 71.78125 18.9375 73 
Q 24.125 74.21875 28.421875 74.21875 
Q 39.75 74.21875 46.484375 68.546875 
Q 53.21875 62.890625 53.21875 53.421875 
Q 53.21875 48.921875 51.53125 44.890625 
Q 49.859375 40.875 45.40625 35.40625 
Q 44.1875 33.984375 37.640625 27.21875 
Q 31.109375 20.453125 19.1875 8.296875 
" id="DejaVuSans-32"/>
       <path d="M 31.78125 66.40625 
Q 24.171875 66.40625 20.328125 58.90625 
Q 16.5 51.421875 16.5 36.375 
Q 16.5 21.390625 20.328125 13.890625 
Q 24.171875 6.390625 31.78125 6.390625 
Q 39.453125 6.390625 43.28125 13.890625 
Q 47.125 21.390625 47.125 36.375 
Q 47.125 51.421875 43.28125 58.90625 
Q 39.453125 66.40625 31.78125 66.40625 
M 31.78125 74.21875 
Q 44.046875 74.21875 50.515625 64.515625 
Q 56.984375 54.828125 56.984375 36.375 
Q 56.984375 17.96875 50.515625 8.265625 
Q 44.046875 -1.421875 31.78125 -1.421875 
Q 19.53125 -1.421875 13.0625 8.265625 
Q 6.59375 17.96875 6.59375 36.375 
Q 6.59375 54.828125 13.0625 64.515625 
Q 19.53125 74.21875 31.78125 74.21875 
" id="DejaVuSans-30"/>
      </defs>
      <g transform="translate(51.210124 322.182437)scale(0.1 -0.1)">
       <use xlink:href="#DejaVuSans-2212"/>
       <use x="83.789062" xlink:href="#DejaVuSans-32"/>
       <use x="147.412109" xlink:href="#DejaVuSans-30"/>
      </g>
     </g>
    </g>
    <g id="xtick_2">
     <g id="line2d_3">
      <path clip-path="url(#pa7aa50cf5d)" d="M 105.361851 307.584 
L 105.361851 41.472 
" style="fill:none;stroke:#b0b0b0;stroke-linecap:square;stroke-width:0.8;"/>
     </g>
     <g id="line2d_4">
      <g>
       <use style="stroke:#000000;stroke-width:0.8;" x="105.361851" xlink:href="#mf37f0cbf2e" y="307.584"/>
      </g>
     </g>
     <g id="text_2">
      <!-- −15 -->
      <defs>
       <path d="M 12.40625 8.296875 
L 28.515625 8.296875 
L 28.515625 63.921875 
L 10.984375 60.40625 
L 10.984375 69.390625 
L 28.421875 72.90625 
L 38.28125 72.90625 
L 38.28125 8.296875 
L 54.390625 8.296875 
L 54.390625 0 
L 12.40625 0 
z
" id="DejaVuSans-31"/>
       <path d="M 10.796875 72.90625 
L 49.515625 72.90625 
L 49.515625 64.59375 
L 19.828125 64.59375 
L 19.828125 46.734375 
Q 21.96875 47.46875 24.109375 47.828125 
Q 26.265625 48.1875 28.421875 48.1875 
Q 40.625 48.1875 47.75 41.5 
Q 54.890625 34.8125 54.890625 23.390625 
Q 54.890625 11.625 47.5625 5.09375 
Q 40.234375 -1.421875 26.90625 -1.421875 
Q 22.3125 -1.421875 17.546875 -0.640625 
Q 12.796875 0.140625 7.71875 1.703125 
L 7.71875 11.625 
Q 12.109375 9.234375 16.796875 8.0625 
Q 21.484375 6.890625 26.703125 6.890625 
Q 35.15625 6.890625 40.078125 11.328125 
Q 45.015625 15.765625 45.015625 23.390625 
Q 45.015625 31 40.078125 35.4375 
Q 35.15625 39.890625 26.703125 39.890625 
Q 22.75 39.890625 18.8125 39.015625 
Q 14.890625 38.140625 10.796875 36.28125 
z
" id="DejaVuSans-35"/>
      </defs>
      <g transform="translate(94.809507 322.182437)scale(0.1 -0.1)">
       <use xlink:href="#DejaVuSans-2212"/>
       <use x="83.789062" xlink:href="#DejaVuSans-31"/>
       <use x="147.412109" xlink:href="#DejaVuSans-35"/>
      </g>
     </g>
    </g>
    <g id="xtick_3">
     <g id="line2d_5">
      <path clip-path="url(#pa7aa50cf5d)" d="M 148.961234 307.584 
L 148.961234 41.472 
" style="fill:none;stroke:#b0b0b0;stroke-linecap:square;stroke-width:0.8;"/>
     </g>
     <g id="line2d_6">
      <g>
       <use style="stroke:#000000;stroke-width:0.8;" x="148.961234" xlink:href="#mf37f0cbf2e" y="307.584"/>
      </g>
     </g>
     <g id="text_3">
      <!-- −10 -->
      <g transform="translate(138.40889 322.182437)scale(0.1 -0.1)">
       <use xlink:href="#DejaVuSans-2212"/>
       <use x="83.789062" xlink:href="#DejaVuSans-31"/>
       <use x="147.412109" xlink:href="#DejaVuSans-30"/>
      </g>
     </g>
    </g>
    <g id="xtick_4">
     <g id="line2d_7">
      <path clip-path="url(#pa7aa50cf5d)" d="M 192.560617 307.584 
L 192.560617 41.472 
" style="fill:none;stroke:#b0b0b0;stroke-linecap:square;stroke-width:0.8;"/>
     </g>
     <g id="line2d_8">
      <g>
       <use style="stroke:#000000;stroke-width:0.8;" x="192.560617" xlink:href="#mf37f0cbf2e" y="307.584"/>
      </g>
     </g>
     <g id="text_4">
      <!-- −5 -->
      <g transform="translate(185.189523 322.182437)scale(0.1 -0.1)">
       <use xlink:href="#DejaVuSans-2212"/>
       <use x="83.789062" xlink:href="#DejaVuSans-35"/>
      </g>
     </g>
    </g>
    <g id="xtick_5">
     <g id="line2d_9">
      <path clip-path="url(#pa7aa50cf5d)" d="M 236.16 307.584 
L 236.16 41.472 
" style="fill:none;stroke:#b0b0b0;stroke-linecap:square;stroke-width:0.8;"/>
     </g>
     <g id="line2d_10">
      <g>
       <use style="stroke:#000000;stroke-width:0.8;" x="236.16" xlink:href="#mf37f0cbf2e" y="307.584"/>
      </g>
     </g>
     <g id="text_5">
      <!-- 0 -->
      <g transform="translate(232.97875 322.182437)scale(0.1 -0.1)">
       <use xlink:href="#DejaVuSans-30"/>
      </g>
     </g>
    </g>
    <g id="xtick_6">
     <g id="line2d_11">
      <path clip-path="url(#pa7aa50cf5d)" d="M 279.759383 307.584 
L 279.759383 41.472 
" style="fill:none;stroke:#b0b0b0;stroke-linecap:square;stroke-width:0.8;"/>
     </g>
     <g id="line2d_12">
      <g>
       <use style="stroke:#000000;stroke-width:0.8;" x="279.759383" xlink:href="#mf37f0cbf2e" y="307.584"/>
      </g>
     </g>
     <g id="text_6">
      <!-- 5 -->
      <g transform="translate(276.578133 322.182437)scale(0.1 -0.1)">
       <use xlink:href="#DejaVuSans-35"/>
      </g>
     </g>
    </g>
    <g id="xtick_7">
     <g id="line2d_13">
      <path clip-path="url(#pa7aa50cf5d)" d="M 323.358766 307.584 
L 323.358766 41.472 
" style="fill:none;stroke:#b0b0b0;stroke-linecap:square;stroke-width:0.8;"/>
     </g>
     <g id="line2d_14">
      <g>
       <use style="stroke:#000000;stroke-width:0.8;" x="323.358766" xlink:href="#mf37f0cbf2e" y="307.584"/>
      </g>
     </g>
     <g id="text_7">
      <!-- 10 -->
      <g transform="translate(316.996266 322.182437)scale(0.1 -0.1)">
       <use xlink:href="#DejaVuSans-31"/>
       <use x="63.623047" xlink:href="#DejaVuSans-30"/>
      </g>
     </g>
    </g>
    <g id="xtick_8">
     <g id="line2d_15">
      <path clip-path="url(#pa7aa50cf5d)" d="M 366.958149 307.584 
L 366.958149 41.472 
" style="fill:none;stroke:#b0b0b0;stroke-linecap:square;stroke-width:0.8;"/>
     </g>
     <g id="line2d_16">
      <g>
       <use style="stroke:#000000;stroke-width:0.8;" x="366.958149" xlink:href="#mf37f0cbf2e" y="307.584"/>
      </g>
     </g>
     <g id="text_8">
      <!-- 15 -->
      <g transform="translate(360.595649 322.182437)scale(0.1 -0.1)">
       <use xlink:href="#DejaVuSans-31"/>
       <use x="63.623047" xlink:href="#DejaVuSans-35"/>
      </g>
     </g>
    </g>
    <g id="xtick_9">
     <g id="line2d_17">
      <path clip-path="url(#pa7aa50cf5d)" d="M 410.557532 307.584 
L 410.557532 41.472 
" style="fill:none;stroke:#b0b0b0;stroke-linecap:square;stroke-width:0.8;"/>
     </g>
     <g id="line2d_18">
      <g>
       <use style="stroke:#000000;stroke-width:0.8;" x="410.557532" xlink:href="#mf37f0cbf2e" y="307.584"/>
      </g>
     </g>
     <g id="text_9">
      <!-- 20 -->
      <g transform="translate(404.195032 322.182437)scale(0.1 -0.1)">
       <use xlink:href="#DejaVuSans-32"/>
       <use x="63.623047" xlink:href="#DejaVuSans-30"/>
      </g>
     </g>
    </g>
    <g id="text_10">
     <!-- $\gamma_i$ -->
     <defs>
      <path d="M 23.296875 46.09375 
L 28.71875 12.3125 
L 54 54.6875 
L 63.53125 54.6875 
L 30.8125 0 
L 26.765625 -20.796875 
L 17.78125 -20.796875 
L 21.828125 0 
L 15.4375 40.828125 
Q 14.453125 46.96875 9.8125 46.96875 
L 7.421875 46.96875 
L 8.890625 54.6875 
L 12.3125 54.6875 
Q 21.921875 54.6875 23.296875 46.09375 
" id="DejaVuSans-Oblique-3b3"/>
      <path d="M 18.3125 75.984375 
L 27.296875 75.984375 
L 25.09375 64.59375 
L 16.109375 64.59375 
z
M 14.203125 54.6875 
L 23.1875 54.6875 
L 12.5 0 
L 3.515625 0 
z
" id="DejaVuSans-Oblique-69"/>
     </defs>
     <g transform="translate(232.06 335.84025)scale(0.1 -0.1)">
      <use transform="translate(0 0.3125)" xlink:href="#DejaVuSans-Oblique-3b3"/>
      <use transform="translate(59.179688 -16.09375)scale(0.7)" xlink:href="#DejaVuSans-Oblique-69"/>
     </g>
    </g>
   </g>
   <g id="matplotlib.axis_2">
    <g id="ytick_1">
     <g id="line2d_19">
      <path clip-path="url(#pa7aa50cf5d)" d="M 57.6 307.906427 
L 414.72 307.906427 
" style="fill:none;stroke:#b0b0b0;stroke-linecap:square;stroke-width:0.8;"/>
     </g>
     <g id="line2d_20">
      <defs>
       <path d="M 0 0 
L -3.5 0 
" id="mfd6ee91db6" style="stroke:#000000;stroke-width:0.8;"/>
      </defs>
      <g>
       <use style="stroke:#000000;stroke-width:0.8;" x="57.6" xlink:href="#mfd6ee91db6" y="307.906427"/>
      </g>
     </g>
     <g id="text_11">
      <!-- ${10^{-87}}$ -->
      <defs>
       <path d="M 31.78125 34.625 
Q 24.75 34.625 20.71875 30.859375 
Q 16.703125 27.09375 16.703125 20.515625 
Q 16.703125 13.921875 20.71875 10.15625 
Q 24.75 6.390625 31.78125 6.390625 
Q 38.8125 6.390625 42.859375 10.171875 
Q 46.921875 13.96875 46.921875 20.515625 
Q 46.921875 27.09375 42.890625 30.859375 
Q 38.875 34.625 31.78125 34.625 
M 21.921875 38.8125 
Q 15.578125 40.375 12.03125 44.71875 
Q 8.5 49.078125 8.5 55.328125 
Q 8.5 64.0625 14.71875 69.140625 
Q 20.953125 74.21875 31.78125 74.21875 
Q 42.671875 74.21875 48.875 69.140625 
Q 55.078125 64.0625 55.078125 55.328125 
Q 55.078125 49.078125 51.53125 44.71875 
Q 48 40.375 41.703125 38.8125 
Q 48.828125 37.15625 52.796875 32.3125 
Q 56.78125 27.484375 56.78125 20.515625 
Q 56.78125 9.90625 50.3125 4.234375 
Q 43.84375 -1.421875 31.78125 -1.421875 
Q 19.734375 -1.421875 13.25 4.234375 
Q 6.78125 9.90625 6.78125 20.515625 
Q 6.78125 27.484375 10.78125 32.3125 
Q 14.796875 37.15625 21.921875 38.8125 
M 18.3125 54.390625 
Q 18.3125 48.734375 21.84375 45.5625 
Q 25.390625 42.390625 31.78125 42.390625 
Q 38.140625 42.390625 41.71875 45.5625 
Q 45.3125 48.734375 45.3125 54.390625 
Q 45.3125 60.0625 41.71875 63.234375 
Q 38.140625 66.40625 31.78125 66.40625 
Q 25.390625 66.40625 21.84375 63.234375 
Q 18.3125 60.0625 18.3125 54.390625 
" id="DejaVuSans-38"/>
       <path d="M 8.203125 72.90625 
L 55.078125 72.90625 
L 55.078125 68.703125 
L 28.609375 0 
L 18.3125 0 
L 43.21875 64.59375 
L 8.203125 64.59375 
z
" id="DejaVuSans-37"/>
      </defs>
      <g transform="translate(22.7 311.705646)scale(0.1 -0.1)">
       <use transform="translate(0 0.765625)" xlink:href="#DejaVuSans-31"/>
       <use transform="translate(63.623047 0.765625)" xlink:href="#DejaVuSans-30"/>
       <use transform="translate(128.203125 39.046875)scale(0.7)" xlink:href="#DejaVuSans-2212"/>
       <use transform="translate(186.855469 39.046875)scale(0.7)" xlink:href="#DejaVuSans-38"/>
       <use transform="translate(231.391602 39.046875)scale(0.7)" xlink:href="#DejaVuSans-37"/>
      </g>
     </g>
    </g>
    <g id="ytick_2">
     <g id="line2d_21">
      <path clip-path="url(#pa7aa50cf5d)" d="M 57.6 278.32242 
L 414.72 278.32242 
" style="fill:none;stroke:#b0b0b0;stroke-linecap:square;stroke-width:0.8;"/>
     </g>
     <g id="line2d_22">
      <g>
       <use style="stroke:#000000;stroke-width:0.8;" x="57.6" xlink:href="#mfd6ee91db6" y="278.32242"/>
      </g>
     </g>
     <g id="text_12">
      <!-- ${10^{-77}}$ -->
      <g transform="translate(22.7 282.121639)scale(0.1 -0.1)">
       <use transform="translate(0 0.684375)" xlink:href="#DejaVuSans-31"/>
       <use transform="translate(63.623047 0.684375)" xlink:href="#DejaVuSans-30"/>
       <use transform="translate(128.203125 38.965625)scale(0.7)" xlink:href="#DejaVuSans-2212"/>
       <use transform="translate(186.855469 38.965625)scale(0.7)" xlink:href="#DejaVuSans-37"/>
       <use transform="translate(231.380664 38.965625)scale(0.7)" xlink:href="#DejaVuSans-37"/>
      </g>
     </g>
    </g>
    <g id="ytick_3">
     <g id="line2d_23">
      <path clip-path="url(#pa7aa50cf5d)" d="M 57.6 248.738413 
L 414.72 248.738413 
" style="fill:none;stroke:#b0b0b0;stroke-linecap:square;stroke-width:0.8;"/>
     </g>
     <g id="line2d_24">
      <g>
       <use style="stroke:#000000;stroke-width:0.8;" x="57.6" xlink:href="#mfd6ee91db6" y="248.738413"/>
      </g>
     </g>
     <g id="text_13">
      <!-- ${10^{-67}}$ -->
      <defs>
       <path d="M 33.015625 40.375 
Q 26.375 40.375 22.484375 35.828125 
Q 18.609375 31.296875 18.609375 23.390625 
Q 18.609375 15.53125 22.484375 10.953125 
Q 26.375 6.390625 33.015625 6.390625 
Q 39.65625 6.390625 43.53125 10.953125 
Q 47.40625 15.53125 47.40625 23.390625 
Q 47.40625 31.296875 43.53125 35.828125 
Q 39.65625 40.375 33.015625 40.375 
M 52.59375 71.296875 
L 52.59375 62.3125 
Q 48.875 64.0625 45.09375 64.984375 
Q 41.3125 65.921875 37.59375 65.921875 
Q 27.828125 65.921875 22.671875 59.328125 
Q 17.53125 52.734375 16.796875 39.40625 
Q 19.671875 43.65625 24.015625 45.921875 
Q 28.375 48.1875 33.59375 48.1875 
Q 44.578125 48.1875 50.953125 41.515625 
Q 57.328125 34.859375 57.328125 23.390625 
Q 57.328125 12.15625 50.6875 5.359375 
Q 44.046875 -1.421875 33.015625 -1.421875 
Q 20.359375 -1.421875 13.671875 8.265625 
Q 6.984375 17.96875 6.984375 36.375 
Q 6.984375 53.65625 15.1875 63.9375 
Q 23.390625 74.21875 37.203125 74.21875 
Q 40.921875 74.21875 44.703125 73.484375 
Q 48.484375 72.75 52.59375 71.296875 
" id="DejaVuSans-36"/>
      </defs>
      <g transform="translate(22.7 252.537632)scale(0.1 -0.1)">
       <use transform="translate(0 0.765625)" xlink:href="#DejaVuSans-31"/>
       <use transform="translate(63.623047 0.765625)" xlink:href="#DejaVuSans-30"/>
       <use transform="translate(128.203125 39.046875)scale(0.7)" xlink:href="#DejaVuSans-2212"/>
       <use transform="translate(186.855469 39.046875)scale(0.7)" xlink:href="#DejaVuSans-36"/>
       <use transform="translate(231.391602 39.046875)scale(0.7)" xlink:href="#DejaVuSans-37"/>
      </g>
     </g>
    </g>
    <g id="ytick_4">
     <g id="line2d_25">
      <path clip-path="url(#pa7aa50cf5d)" d="M 57.6 219.154407 
L 414.72 219.154407 
" style="fill:none;stroke:#b0b0b0;stroke-linecap:square;stroke-width:0.8;"/>
     </g>
     <g id="line2d_26">
      <g>
       <use style="stroke:#000000;stroke-width:0.8;" x="57.6" xlink:href="#mfd6ee91db6" y="219.154407"/>
      </g>
     </g>
     <g id="text_14">
      <!-- ${10^{-57}}$ -->
      <g transform="translate(22.7 222.953625)scale(0.1 -0.1)">
       <use transform="translate(0 0.684375)" xlink:href="#DejaVuSans-31"/>
       <use transform="translate(63.623047 0.684375)" xlink:href="#DejaVuSans-30"/>
       <use transform="translate(128.203125 38.965625)scale(0.7)" xlink:href="#DejaVuSans-2212"/>
       <use transform="translate(186.855469 38.965625)scale(0.7)" xlink:href="#DejaVuSans-35"/>
       <use transform="translate(231.315039 38.965625)scale(0.7)" xlink:href="#DejaVuSans-37"/>
      </g>
     </g>
    </g>
    <g id="ytick_5">
     <g id="line2d_27">
      <path clip-path="url(#pa7aa50cf5d)" d="M 57.6 189.5704 
L 414.72 189.5704 
" style="fill:none;stroke:#b0b0b0;stroke-linecap:square;stroke-width:0.8;"/>
     </g>
     <g id="line2d_28">
      <g>
       <use style="stroke:#000000;stroke-width:0.8;" x="57.6" xlink:href="#mfd6ee91db6" y="189.5704"/>
      </g>
     </g>
     <g id="text_15">
      <!-- ${10^{-47}}$ -->
      <defs>
       <path d="M 37.796875 64.3125 
L 12.890625 25.390625 
L 37.796875 25.390625 
z
M 35.203125 72.90625 
L 47.609375 72.90625 
L 47.609375 25.390625 
L 58.015625 25.390625 
L 58.015625 17.1875 
L 47.609375 17.1875 
L 47.609375 0 
L 37.796875 0 
L 37.796875 17.1875 
L 4.890625 17.1875 
L 4.890625 26.703125 
z
" id="DejaVuSans-34"/>
      </defs>
      <g transform="translate(22.7 193.369618)scale(0.1 -0.1)">
       <use transform="translate(0 0.684375)" xlink:href="#DejaVuSans-31"/>
       <use transform="translate(63.623047 0.684375)" xlink:href="#DejaVuSans-30"/>
       <use transform="translate(128.203125 38.965625)scale(0.7)" xlink:href="#DejaVuSans-2212"/>
       <use transform="translate(186.855469 38.965625)scale(0.7)" xlink:href="#DejaVuSans-34"/>
       <use transform="translate(231.391602 38.965625)scale(0.7)" xlink:href="#DejaVuSans-37"/>
      </g>
     </g>
    </g>
    <g id="ytick_6">
     <g id="line2d_29">
      <path clip-path="url(#pa7aa50cf5d)" d="M 57.6 159.986393 
L 414.72 159.986393 
" style="fill:none;stroke:#b0b0b0;stroke-linecap:square;stroke-width:0.8;"/>
     </g>
     <g id="line2d_30">
      <g>
       <use style="stroke:#000000;stroke-width:0.8;" x="57.6" xlink:href="#mfd6ee91db6" y="159.986393"/>
      </g>
     </g>
     <g id="text_16">
      <!-- ${10^{-37}}$ -->
      <defs>
       <path d="M 40.578125 39.3125 
Q 47.65625 37.796875 51.625 33 
Q 55.609375 28.21875 55.609375 21.1875 
Q 55.609375 10.40625 48.1875 4.484375 
Q 40.765625 -1.421875 27.09375 -1.421875 
Q 22.515625 -1.421875 17.65625 -0.515625 
Q 12.796875 0.390625 7.625 2.203125 
L 7.625 11.71875 
Q 11.71875 9.328125 16.59375 8.109375 
Q 21.484375 6.890625 26.8125 6.890625 
Q 36.078125 6.890625 40.9375 10.546875 
Q 45.796875 14.203125 45.796875 21.1875 
Q 45.796875 27.640625 41.28125 31.265625 
Q 36.765625 34.90625 28.71875 34.90625 
L 20.21875 34.90625 
L 20.21875 43.015625 
L 29.109375 43.015625 
Q 36.375 43.015625 40.234375 45.921875 
Q 44.09375 48.828125 44.09375 54.296875 
Q 44.09375 59.90625 40.109375 62.90625 
Q 36.140625 65.921875 28.71875 65.921875 
Q 24.65625 65.921875 20.015625 65.03125 
Q 15.375 64.15625 9.8125 62.3125 
L 9.8125 71.09375 
Q 15.4375 72.65625 20.34375 73.4375 
Q 25.25 74.21875 29.59375 74.21875 
Q 40.828125 74.21875 47.359375 69.109375 
Q 53.90625 64.015625 53.90625 55.328125 
Q 53.90625 49.265625 50.4375 45.09375 
Q 46.96875 40.921875 40.578125 39.3125 
" id="DejaVuSans-33"/>
      </defs>
      <g transform="translate(22.7 163.785612)scale(0.1 -0.1)">
       <use transform="translate(0 0.765625)" xlink:href="#DejaVuSans-31"/>
       <use transform="translate(63.623047 0.765625)" xlink:href="#DejaVuSans-30"/>
       <use transform="translate(128.203125 39.046875)scale(0.7)" xlink:href="#DejaVuSans-2212"/>
       <use transform="translate(186.855469 39.046875)scale(0.7)" xlink:href="#DejaVuSans-33"/>
       <use transform="translate(231.391602 39.046875)scale(0.7)" xlink:href="#DejaVuSans-37"/>
      </g>
     </g>
    </g>
    <g id="ytick_7">
     <g id="line2d_31">
      <path clip-path="url(#pa7aa50cf5d)" d="M 57.6 130.402386 
L 414.72 130.402386 
" style="fill:none;stroke:#b0b0b0;stroke-linecap:square;stroke-width:0.8;"/>
     </g>
     <g id="line2d_32">
      <g>
       <use style="stroke:#000000;stroke-width:0.8;" x="57.6" xlink:href="#mfd6ee91db6" y="130.402386"/>
      </g>
     </g>
     <g id="text_17">
      <!-- ${10^{-27}}$ -->
      <g transform="translate(22.7 134.201605)scale(0.1 -0.1)">
       <use transform="translate(0 0.765625)" xlink:href="#DejaVuSans-31"/>
       <use transform="translate(63.623047 0.765625)" xlink:href="#DejaVuSans-30"/>
       <use transform="translate(128.203125 39.046875)scale(0.7)" xlink:href="#DejaVuSans-2212"/>
       <use transform="translate(186.855469 39.046875)scale(0.7)" xlink:href="#DejaVuSans-32"/>
       <use transform="translate(231.391602 39.046875)scale(0.7)" xlink:href="#DejaVuSans-37"/>
      </g>
     </g>
    </g>
    <g id="ytick_8">
     <g id="line2d_33">
      <path clip-path="url(#pa7aa50cf5d)" d="M 57.6 100.818379 
L 414.72 100.818379 
" style="fill:none;stroke:#b0b0b0;stroke-linecap:square;stroke-width:0.8;"/>
     </g>
     <g id="line2d_34">
      <g>
       <use style="stroke:#000000;stroke-width:0.8;" x="57.6" xlink:href="#mfd6ee91db6" y="100.818379"/>
      </g>
     </g>
     <g id="text_18">
      <!-- ${10^{-17}}$ -->
      <g transform="translate(22.7 104.617598)scale(0.1 -0.1)">
       <use transform="translate(0 0.684375)" xlink:href="#DejaVuSans-31"/>
       <use transform="translate(63.623047 0.684375)" xlink:href="#DejaVuSans-30"/>
       <use transform="translate(128.203125 38.965625)scale(0.7)" xlink:href="#DejaVuSans-2212"/>
       <use transform="translate(186.855469 38.965625)scale(0.7)" xlink:href="#DejaVuSans-31"/>
       <use transform="translate(231.391602 38.965625)scale(0.7)" xlink:href="#DejaVuSans-37"/>
      </g>
     </g>
    </g>
    <g id="ytick_9">
     <g id="line2d_35">
      <path clip-path="url(#pa7aa50cf5d)" d="M 57.6 71.234372 
L 414.72 71.234372 
" style="fill:none;stroke:#b0b0b0;stroke-linecap:square;stroke-width:0.8;"/>
     </g>
     <g id="line2d_36">
      <g>
       <use style="stroke:#000000;stroke-width:0.8;" x="57.6" xlink:href="#mfd6ee91db6" y="71.234372"/>
      </g>
     </g>
     <g id="text_19">
      <!-- ${10^{-7}}$ -->
      <g transform="translate(27.1 75.033591)scale(0.1 -0.1)">
       <use transform="translate(0 0.684375)" xlink:href="#DejaVuSans-31"/>
       <use transform="translate(63.623047 0.684375)" xlink:href="#DejaVuSans-30"/>
       <use transform="translate(128.203125 38.965625)scale(0.7)" xlink:href="#DejaVuSans-2212"/>
       <use transform="translate(186.855469 38.965625)scale(0.7)" xlink:href="#DejaVuSans-37"/>
      </g>
     </g>
    </g>
    <g id="ytick_10">
     <g id="line2d_37">
      <path clip-path="url(#pa7aa50cf5d)" d="M 57.6 41.650365 
L 414.72 41.650365 
" style="fill:none;stroke:#b0b0b0;stroke-linecap:square;stroke-width:0.8;"/>
     </g>
     <g id="line2d_38">
      <g>
       <use style="stroke:#000000;stroke-width:0.8;" x="57.6" xlink:href="#mfd6ee91db6" y="41.650365"/>
      </g>
     </g>
     <g id="text_20">
      <!-- ${10^{3}}$ -->
      <g transform="translate(33 45.449584)scale(0.1 -0.1)">
       <use transform="translate(0 0.765625)" xlink:href="#DejaVuSans-31"/>
       <use transform="translate(63.623047 0.765625)" xlink:href="#DejaVuSans-30"/>
       <use transform="translate(128.203125 39.046875)scale(0.7)" xlink:href="#DejaVuSans-33"/>
      </g>
     </g>
    </g>
    <g id="text_21">
     <!-- $\omega_i$ -->
     <defs>
      <path d="M 21.390625 -1.421875 
Q 1.125 -1.421875 6.78125 27.59375 
Q 8.984375 39.0625 19.625 54.6875 
L 29.296875 54.6875 
Q 19.234375 39.0625 17 27.34375 
Q 12.796875 6.203125 23.734375 6.203125 
Q 33.84375 6.203125 38.71875 32.46875 
L 47.015625 32.46875 
Q 41.703125 6.0625 51.8125 6.203125 
Q 62.703125 6.296875 66.796875 27.34375 
Q 69.046875 39.0625 65.140625 54.6875 
L 74.8125 54.6875 
Q 79.296875 39.0625 77.09375 27.59375 
Q 71.53125 -1.46875 51.21875 -1.421875 
Q 37.9375 -1.375 39.109375 13.1875 
Q 34.28125 -1.421875 21.390625 -1.421875 
" id="DejaVuSans-Oblique-3c9"/>
     </defs>
     <g transform="translate(16.620312 179.828)rotate(-90)scale(0.1 -0.1)">
      <use transform="translate(0 0.3125)" xlink:href="#DejaVuSans-Oblique-3c9"/>
      <use transform="translate(83.740234 -16.09375)scale(0.7)" xlink:href="#DejaVuSans-Oblique-69"/>
     </g>
    </g>
   </g>
   <g id="line2d_39">
    <defs>
     <path d="M 0 3 
C 0.795609 3 1.55874 2.683901 2.12132 2.12132 
C 2.683901 1.55874 3 0.795609 3 0 
C 3 -0.795609 2.683901 -1.55874 2.12132 -2.12132 
C 1.55874 -2.683901 0.795609 -3 0 -3 
C -0.795609 -3 -1.55874 -2.683901 -2.12132 -2.12132 
C -2.683901 -1.55874 -3 -0.795609 -3 0 
C -3 0.795609 -2.683901 1.55874 -2.12132 2.12132 
C -1.55874 2.683901 -0.795609 3 0 3 
z
" id="m5b09b7a4d2" style="stroke:#1f77b4;"/>
    </defs>
    <g clip-path="url(#pa7aa50cf5d)">
     <use style="fill:#1f77b4;stroke:#1f77b4;" x="66.319877" xlink:href="#m5b09b7a4d2" y="295.488"/>
     <use style="fill:#1f77b4;stroke:#1f77b4;" x="79.308256" xlink:href="#m5b09b7a4d2" y="260.159101"/>
     <use style="fill:#1f77b4;stroke:#1f77b4;" x="382.985385" xlink:href="#m5b09b7a4d2" y="234.652235"/>
     <use style="fill:#1f77b4;stroke:#1f77b4;" x="366.197411" xlink:href="#m5b09b7a4d2" y="195.617245"/>
     <use style="fill:#1f77b4;stroke:#1f77b4;" x="89.334615" xlink:href="#m5b09b7a4d2" y="234.652235"/>
     <use style="fill:#1f77b4;stroke:#1f77b4;" x="387.788726" xlink:href="#m5b09b7a4d2" y="246.670659"/>
     <use style="fill:#1f77b4;stroke:#1f77b4;" x="406.000123" xlink:href="#m5b09b7a4d2" y="295.488"/>
     <use style="fill:#1f77b4;stroke:#1f77b4;" x="191.547397" xlink:href="#m5b09b7a4d2" y="70.249409"/>
     <use style="fill:#1f77b4;stroke:#1f77b4;" x="316.652233" xlink:href="#m5b09b7a4d2" y="107.838772"/>
     <use style="fill:#1f77b4;stroke:#1f77b4;" x="283.116507" xlink:href="#m5b09b7a4d2" y="71.980856"/>
     <use style="fill:#1f77b4;stroke:#1f77b4;" x="152.701646" xlink:href="#m5b09b7a4d2" y="111.931813"/>
     <use style="fill:#1f77b4;stroke:#1f77b4;" x="93.835911" xlink:href="#m5b09b7a4d2" y="223.730397"/>
     <use style="fill:#1f77b4;stroke:#1f77b4;" x="398.882827" xlink:href="#m5b09b7a4d2" y="275.828467"/>
     <use style="fill:#1f77b4;stroke:#1f77b4;" x="102.190377" xlink:href="#m5b09b7a4d2" y="204.342611"/>
     <use style="fill:#1f77b4;stroke:#1f77b4;" x="393.011744" xlink:href="#m5b09b7a4d2" y="260.159101"/>
     <use style="fill:#1f77b4;stroke:#1f77b4;" x="280.772603" xlink:href="#m5b09b7a4d2" y="70.249409"/>
     <use style="fill:#1f77b4;stroke:#1f77b4;" x="344.779642" xlink:href="#m5b09b7a4d2" y="152.619084"/>
     <use style="fill:#1f77b4;stroke:#1f77b4;" x="137.311491" xlink:href="#m5b09b7a4d2" y="135.554355"/>
     <use style="fill:#1f77b4;stroke:#1f77b4;" x="224.421993" xlink:href="#m5b09b7a4d2" y="54.048229"/>
     <use style="fill:#1f77b4;stroke:#1f77b4;" x="308.011914" xlink:href="#m5b09b7a4d2" y="96.793893"/>
     <use style="fill:#1f77b4;stroke:#1f77b4;" x="301.310944" xlink:href="#m5b09b7a4d2" y="89.424093"/>
     <use style="fill:#1f77b4;stroke:#1f77b4;" x="249.770947" xlink:href="#m5b09b7a4d2" y="54.296415"/>
     <use style="fill:#1f77b4;stroke:#1f77b4;" x="362.393689" xlink:href="#m5b09b7a4d2" y="187.42161"/>
     <use style="fill:#1f77b4;stroke:#1f77b4;" x="149.699867" xlink:href="#m5b09b7a4d2" y="116.225856"/>
     <use style="fill:#1f77b4;stroke:#1f77b4;" x="374.214314" xlink:href="#m5b09b7a4d2" y="213.677755"/>
     <use style="fill:#1f77b4;stroke:#1f77b4;" x="124.169169" xlink:href="#m5b09b7a4d2" y="158.878281"/>
     <use style="fill:#1f77b4;stroke:#1f77b4;" x="278.533916" xlink:href="#m5b09b7a4d2" y="68.628472"/>
     <use style="fill:#1f77b4;stroke:#1f77b4;" x="98.105686" xlink:href="#m5b09b7a4d2" y="213.677755"/>
     <use style="fill:#1f77b4;stroke:#1f77b4;" x="313.723084" xlink:href="#m5b09b7a4d2" y="103.944271"/>
     <use style="fill:#1f77b4;stroke:#1f77b4;" x="214.496985" xlink:href="#m5b09b7a4d2" y="57.21849"/>
     <use style="fill:#1f77b4;stroke:#1f77b4;" x="211.877789" xlink:href="#m5b09b7a4d2" y="58.23039"/>
     <use style="fill:#1f77b4;stroke:#1f77b4;" x="193.786084" xlink:href="#m5b09b7a4d2" y="68.628472"/>
     <use style="fill:#1f77b4;stroke:#1f77b4;" x="181.450706" xlink:href="#m5b09b7a4d2" y="78.508315"/>
     <use style="fill:#1f77b4;stroke:#1f77b4;" x="109.926311" xlink:href="#m5b09b7a4d2" y="187.42161"/>
     <use style="fill:#1f77b4;stroke:#1f77b4;" x="276.290096" xlink:href="#m5b09b7a4d2" y="67.054749"/>
     <use style="fill:#1f77b4;stroke:#1f77b4;" x="202.025816" xlink:href="#m5b09b7a4d2" y="63.278725"/>
     <use style="fill:#1f77b4;stroke:#1f77b4;" x="73.437173" xlink:href="#m5b09b7a4d2" y="275.828467"/>
     <use style="fill:#1f77b4;stroke:#1f77b4;" x="252.592425" xlink:href="#m5b09b7a4d2" y="55.525539"/>
     <use style="fill:#1f77b4;stroke:#1f77b4;" x="325.658127" xlink:href="#m5b09b7a4d2" y="120.72661"/>
     <use style="fill:#1f77b4;stroke:#1f77b4;" x="134.10639" xlink:href="#m5b09b7a4d2" y="140.975239"/>
     <use style="fill:#1f77b4;stroke:#1f77b4;" x="270.294184" xlink:href="#m5b09b7a4d2" y="63.278725"/>
     <use style="fill:#1f77b4;stroke:#1f77b4;" x="322.620133" xlink:href="#m5b09b7a4d2" y="116.225856"/>
     <use style="fill:#1f77b4;stroke:#1f77b4;" x="267.393059" xlink:href="#m5b09b7a4d2" y="59.146992"/>
     <use style="fill:#1f77b4;stroke:#1f77b4;" x="263.079934" xlink:href="#m5b09b7a4d2" y="59.35387"/>
     <use style="fill:#1f77b4;stroke:#1f77b4;" x="169.208392" xlink:href="#m5b09b7a4d2" y="91.586645"/>
     <use style="fill:#1f77b4;stroke:#1f77b4;" x="184.112611" xlink:href="#m5b09b7a4d2" y="76.13034"/>
     <use style="fill:#1f77b4;stroke:#1f77b4;" x="106.122589" xlink:href="#m5b09b7a4d2" y="195.617245"/>
     <use style="fill:#1f77b4;stroke:#1f77b4;" x="171.009056" xlink:href="#m5b09b7a4d2" y="89.424093"/>
     <use style="fill:#1f77b4;stroke:#1f77b4;" x="255.210416" xlink:href="#m5b09b7a4d2" y="56.321456"/>
     <use style="fill:#1f77b4;stroke:#1f77b4;" x="164.308086" xlink:href="#m5b09b7a4d2" y="96.793893"/>
     <use style="fill:#1f77b4;stroke:#1f77b4;" x="260.442211" xlink:href="#m5b09b7a4d2" y="58.23039"/>
     <use style="fill:#1f77b4;stroke:#1f77b4;" x="209.240066" xlink:href="#m5b09b7a4d2" y="59.35387"/>
     <use style="fill:#1f77b4;stroke:#1f77b4;" x="378.484089" xlink:href="#m5b09b7a4d2" y="223.730397"/>
     <use style="fill:#1f77b4;stroke:#1f77b4;" x="84.531274" xlink:href="#m5b09b7a4d2" y="246.670659"/>
     <use style="fill:#1f77b4;stroke:#1f77b4;" x="296.272431" xlink:href="#m5b09b7a4d2" y="83.742976"/>
     <use style="fill:#1f77b4;stroke:#1f77b4;" x="140.47025" xlink:href="#m5b09b7a4d2" y="130.380736"/>
     <use style="fill:#1f77b4;stroke:#1f77b4;" x="204.926941" xlink:href="#m5b09b7a4d2" y="59.146992"/>
     <use style="fill:#1f77b4;stroke:#1f77b4;" x="247.898007" xlink:href="#m5b09b7a4d2" y="54.048229"/>
     <use style="fill:#1f77b4;stroke:#1f77b4;" x="146.661873" xlink:href="#m5b09b7a4d2" y="120.72661"/>
     <use style="fill:#1f77b4;stroke:#1f77b4;" x="155.667767" xlink:href="#m5b09b7a4d2" y="107.838772"/>
     <use style="fill:#1f77b4;stroke:#1f77b4;" x="176.047569" xlink:href="#m5b09b7a4d2" y="83.742976"/>
     <use style="fill:#1f77b4;stroke:#1f77b4;" x="200.037747" xlink:href="#m5b09b7a4d2" y="64.78306"/>
     <use style="fill:#1f77b4;stroke:#1f77b4;" x="355.1025" xlink:href="#m5b09b7a4d2" y="172.386134"/>
     <use style="fill:#1f77b4;stroke:#1f77b4;" x="319.618354" xlink:href="#m5b09b7a4d2" y="111.931813"/>
     <use style="fill:#1f77b4;stroke:#1f77b4;" x="267.219563" xlink:href="#m5b09b7a4d2" y="59.126297"/>
     <use style="fill:#1f77b4;stroke:#1f77b4;" x="358.700166" xlink:href="#m5b09b7a4d2" y="179.694131"/>
     <use style="fill:#1f77b4;stroke:#1f77b4;" x="348.150831" xlink:href="#m5b09b7a4d2" y="158.878281"/>
     <use style="fill:#1f77b4;stroke:#1f77b4;" x="370.129623" xlink:href="#m5b09b7a4d2" y="204.342611"/>
     <use style="fill:#1f77b4;stroke:#1f77b4;" x="158.596916" xlink:href="#m5b09b7a4d2" y="103.944271"/>
     <use style="fill:#1f77b4;stroke:#1f77b4;" x="245.188905" xlink:href="#m5b09b7a4d2" y="53.990523"/>
     <use style="fill:#1f77b4;stroke:#1f77b4;" x="113.619834" xlink:href="#m5b09b7a4d2" y="179.694131"/>
     <use style="fill:#1f77b4;stroke:#1f77b4;" x="351.589187" xlink:href="#m5b09b7a4d2" y="165.458298"/>
     <use style="fill:#1f77b4;stroke:#1f77b4;" x="272.282253" xlink:href="#m5b09b7a4d2" y="64.78306"/>
     <use style="fill:#1f77b4;stroke:#1f77b4;" x="205.100437" xlink:href="#m5b09b7a4d2" y="59.126297"/>
     <use style="fill:#1f77b4;stroke:#1f77b4;" x="293.566319" xlink:href="#m5b09b7a4d2" y="81.051934"/>
     <use style="fill:#1f77b4;stroke:#1f77b4;" x="130.850919" xlink:href="#m5b09b7a4d2" y="146.657896"/>
     <use style="fill:#1f77b4;stroke:#1f77b4;" x="274.122284" xlink:href="#m5b09b7a4d2" y="65.759118"/>
     <use style="fill:#1f77b4;stroke:#1f77b4;" x="186.711185" xlink:href="#m5b09b7a4d2" y="73.942581"/>
     <use style="fill:#1f77b4;stroke:#1f77b4;" x="229.589696" xlink:href="#m5b09b7a4d2" y="53.726954"/>
     <use style="fill:#1f77b4;stroke:#1f77b4;" x="198.197716" xlink:href="#m5b09b7a4d2" y="65.759118"/>
     <use style="fill:#1f77b4;stroke:#1f77b4;" x="310.836587" xlink:href="#m5b09b7a4d2" y="100.253159"/>
     <use style="fill:#1f77b4;stroke:#1f77b4;" x="127.540358" xlink:href="#m5b09b7a4d2" y="152.619084"/>
     <use style="fill:#1f77b4;stroke:#1f77b4;" x="303.111608" xlink:href="#m5b09b7a4d2" y="91.586645"/>
     <use style="fill:#1f77b4;stroke:#1f77b4;" x="227.131095" xlink:href="#m5b09b7a4d2" y="53.990523"/>
     <use style="fill:#1f77b4;stroke:#1f77b4;" x="178.753681" xlink:href="#m5b09b7a4d2" y="81.051934"/>
     <use style="fill:#1f77b4;stroke:#1f77b4;" x="166.993347" xlink:href="#m5b09b7a4d2" y="93.708744"/>
     <use style="fill:#1f77b4;stroke:#1f77b4;" x="288.207389" xlink:href="#m5b09b7a4d2" y="76.13034"/>
     <use style="fill:#1f77b4;stroke:#1f77b4;" x="285.608815" xlink:href="#m5b09b7a4d2" y="73.942581"/>
     <use style="fill:#1f77b4;stroke:#1f77b4;" x="161.483413" xlink:href="#m5b09b7a4d2" y="100.253159"/>
     <use style="fill:#1f77b4;stroke:#1f77b4;" x="231.93142" xlink:href="#m5b09b7a4d2" y="53.584365"/>
     <use style="fill:#1f77b4;stroke:#1f77b4;" x="120.730813" xlink:href="#m5b09b7a4d2" y="165.458298"/>
     <use style="fill:#1f77b4;stroke:#1f77b4;" x="335.008509" xlink:href="#m5b09b7a4d2" y="135.554355"/>
     <use style="fill:#1f77b4;stroke:#1f77b4;" x="240.38858" xlink:href="#m5b09b7a4d2" y="53.584365"/>
     <use style="fill:#1f77b4;stroke:#1f77b4;" x="196.029904" xlink:href="#m5b09b7a4d2" y="67.054749"/>
     <use style="fill:#1f77b4;stroke:#1f77b4;" x="290.869294" xlink:href="#m5b09b7a4d2" y="78.508315"/>
     <use style="fill:#1f77b4;stroke:#1f77b4;" x="217.109584" xlink:href="#m5b09b7a4d2" y="56.321456"/>
     <use style="fill:#1f77b4;stroke:#1f77b4;" x="223.376756" xlink:href="#m5b09b7a4d2" y="54.640345"/>
     <use style="fill:#1f77b4;stroke:#1f77b4;" x="257.823015" xlink:href="#m5b09b7a4d2" y="57.21849"/>
     <use style="fill:#1f77b4;stroke:#1f77b4;" x="338.21361" xlink:href="#m5b09b7a4d2" y="140.975239"/>
     <use style="fill:#1f77b4;stroke:#1f77b4;" x="248.943244" xlink:href="#m5b09b7a4d2" y="54.640345"/>
     <use style="fill:#1f77b4;stroke:#1f77b4;" x="222.549053" xlink:href="#m5b09b7a4d2" y="54.296415"/>
     <use style="fill:#1f77b4;stroke:#1f77b4;" x="328.733908" xlink:href="#m5b09b7a4d2" y="125.44179"/>
     <use style="fill:#1f77b4;stroke:#1f77b4;" x="341.469081" xlink:href="#m5b09b7a4d2" y="146.657896"/>
     <use style="fill:#1f77b4;stroke:#1f77b4;" x="265.93275" xlink:href="#m5b09b7a4d2" y="60.254056"/>
     <use style="fill:#1f77b4;stroke:#1f77b4;" x="117.2175" xlink:href="#m5b09b7a4d2" y="172.386134"/>
     <use style="fill:#1f77b4;stroke:#1f77b4;" x="143.586092" xlink:href="#m5b09b7a4d2" y="125.44179"/>
     <use style="fill:#1f77b4;stroke:#1f77b4;" x="189.203493" xlink:href="#m5b09b7a4d2" y="71.980856"/>
     <use style="fill:#1f77b4;stroke:#1f77b4;" x="305.326653" xlink:href="#m5b09b7a4d2" y="93.708744"/>
     <use style="fill:#1f77b4;stroke:#1f77b4;" x="242.730304" xlink:href="#m5b09b7a4d2" y="53.726954"/>
     <use style="fill:#1f77b4;stroke:#1f77b4;" x="331.84975" xlink:href="#m5b09b7a4d2" y="130.380736"/>
     <use style="fill:#1f77b4;stroke:#1f77b4;" x="219.727575" xlink:href="#m5b09b7a4d2" y="55.525539"/>
     <use style="fill:#1f77b4;stroke:#1f77b4;" x="234.122208" xlink:href="#m5b09b7a4d2" y="53.568"/>
     <use style="fill:#1f77b4;stroke:#1f77b4;" x="173.388462" xlink:href="#m5b09b7a4d2" y="86.556299"/>
     <use style="fill:#1f77b4;stroke:#1f77b4;" x="238.197792" xlink:href="#m5b09b7a4d2" y="53.568"/>
     <use style="fill:#1f77b4;stroke:#1f77b4;" x="298.931538" xlink:href="#m5b09b7a4d2" y="86.556299"/>
     <use style="fill:#1f77b4;stroke:#1f77b4;" x="236.16" xlink:href="#m5b09b7a4d2" y="53.597634"/>
     <use style="fill:#1f77b4;stroke:#1f77b4;" x="206.38725" xlink:href="#m5b09b7a4d2" y="60.254056"/>
    </g>
   </g>
   <g id="patch_3">
    <path d="M 57.6 307.584 
L 57.6 41.472 
" style="fill:none;stroke:#000000;stroke-linecap:square;stroke-linejoin:miter;stroke-width:0.8;"/>
   </g>
   <g id="patch_4">
    <path d="M 414.72 307.584 
L 414.72 41.472 
" style="fill:none;stroke:#000000;stroke-linecap:square;stroke-linejoin:miter;stroke-width:0.8;"/>
   </g>
   <g id="patch_5">
    <path d="M 57.6 307.584 
L 414.72 307.584 
" style="fill:none;stroke:#000000;stroke-linecap:square;stroke-linejoin:miter;stroke-width:0.8;"/>
   </g>
   <g id="patch_6">
    <path d="M 57.6 41.472 
L 414.72 41.472 
" style="fill:none;stroke:#000000;stroke-linecap:square;stroke-linejoin:miter;stroke-width:0.8;"/>
   </g>
  </g>
 </g>
 <defs>
  <clipPath id="pa7aa50cf5d">
   <rect height="266.112" width="357.12" x="57.6" y="41.472"/>
  </clipPath>
 </defs>
</svg>
