<?xml version="1.0" encoding="utf-8" standalone="no"?>
<!DOCTYPE svg PUBLIC "-//W3C//DTD SVG 1.1//EN"
  "http://www.w3.org/Graphics/SVG/1.1/DTD/svg11.dtd">
<!-- Created with matplotlib (http://matplotlib.org/) -->
<svg height="345pt" version="1.1" viewBox="0 0 460 345" width="460pt" xmlns="http://www.w3.org/2000/svg" xmlns:xlink="http://www.w3.org/1999/xlink">
 <defs>
  <style type="text/css">
*{stroke-linecap:butt;stroke-linejoin:round;}
  </style>
 </defs>
 <g id="figure_1">
  <g id="patch_1">
   <path d="M 0 345.6 
L 460.8 345.6 
L 460.8 0 
L 0 0 
z
" style="fill:#ffffff;"/>
  </g>
  <g id="axes_1">
   <g id="patch_2">
    <path d="M 57.6 307.584 
L 414.72 307.584 
L 414.72 41.472 
L 57.6 41.472 
z
" style="fill:#ffffff;"/>
   </g>
   <g id="matplotlib.axis_1">
    <g id="xtick_1">
     <g id="line2d_1">
      <path clip-path="url(#paa195f2ec2)" d="M 59.096422 307.584 
L 59.096422 41.472 
" style="fill:none;stroke:#b0b0b0;stroke-linecap:square;stroke-width:0.8;"/>
     </g>
     <g id="line2d_2">
      <defs>
       <path d="M 0 0 
L 0 3.5 
" id="me48134588d" style="stroke:#000000;stroke-width:0.8;"/>
      </defs>
      <g>
       <use style="stroke:#000000;stroke-width:0.8;" x="59.096422" xlink:href="#me48134588d" y="307.584"/>
      </g>
     </g>
     <g id="text_1">
      <!-- −20 -->
      <defs>
       <path d="M 10.59375 35.5 
L 73.1875 35.5 
L 73.1875 27.203125 
L 10.59375 27.203125 
z
" id="DejaVuSans-2212"/>
       <path d="M 19.1875 8.296875 
L 53.609375 8.296875 
L 53.609375 0 
L 7.328125 0 
L 7.328125 8.296875 
Q 12.9375 14.109375 22.625 23.890625 
Q 32.328125 33.6875 34.8125 36.53125 
Q 39.546875 41.84375 41.421875 45.53125 
Q 43.3125 49.21875 43.3125 52.78125 
Q 43.3125 58.59375 39.234375 62.25 
Q 35.15625 65.921875 28.609375 65.921875 
Q 23.96875 65.921875 18.8125 64.3125 
Q 13.671875 62.703125 7.8125 59.421875 
L 7.8125 69.390625 
Q 13.765625 71.78125 18.9375 73 
Q 24.125 74.21875 28.421875 74.21875 
Q 39.75 74.21875 46.484375 68.546875 
Q 53.21875 62.890625 53.21875 53.421875 
Q 53.21875 48.921875 51.53125 44.890625 
Q 49.859375 40.875 45.40625 35.40625 
Q 44.1875 33.984375 37.640625 27.21875 
Q 31.109375 20.453125 19.1875 8.296875 
" id="DejaVuSans-32"/>
       <path d="M 31.78125 66.40625 
Q 24.171875 66.40625 20.328125 58.90625 
Q 16.5 51.421875 16.5 36.375 
Q 16.5 21.390625 20.328125 13.890625 
Q 24.171875 6.390625 31.78125 6.390625 
Q 39.453125 6.390625 43.28125 13.890625 
Q 47.125 21.390625 47.125 36.375 
Q 47.125 51.421875 43.28125 58.90625 
Q 39.453125 66.40625 31.78125 66.40625 
M 31.78125 74.21875 
Q 44.046875 74.21875 50.515625 64.515625 
Q 56.984375 54.828125 56.984375 36.375 
Q 56.984375 17.96875 50.515625 8.265625 
Q 44.046875 -1.421875 31.78125 -1.421875 
Q 19.53125 -1.421875 13.0625 8.265625 
Q 6.59375 17.96875 6.59375 36.375 
Q 6.59375 54.828125 13.0625 64.515625 
Q 19.53125 74.21875 31.78125 74.21875 
" id="DejaVuSans-30"/>
      </defs>
      <g transform="translate(48.544078 322.182437)scale(0.1 -0.1)">
       <use xlink:href="#DejaVuSans-2212"/>
       <use x="83.789062" xlink:href="#DejaVuSans-32"/>
       <use x="147.412109" xlink:href="#DejaVuSans-30"/>
      </g>
     </g>
    </g>
    <g id="xtick_2">
     <g id="line2d_3">
      <path clip-path="url(#paa195f2ec2)" d="M 103.362316 307.584 
L 103.362316 41.472 
" style="fill:none;stroke:#b0b0b0;stroke-linecap:square;stroke-width:0.8;"/>
     </g>
     <g id="line2d_4">
      <g>
       <use style="stroke:#000000;stroke-width:0.8;" x="103.362316" xlink:href="#me48134588d" y="307.584"/>
      </g>
     </g>
     <g id="text_2">
      <!-- −15 -->
      <defs>
       <path d="M 12.40625 8.296875 
L 28.515625 8.296875 
L 28.515625 63.921875 
L 10.984375 60.40625 
L 10.984375 69.390625 
L 28.421875 72.90625 
L 38.28125 72.90625 
L 38.28125 8.296875 
L 54.390625 8.296875 
L 54.390625 0 
L 12.40625 0 
z
" id="DejaVuSans-31"/>
       <path d="M 10.796875 72.90625 
L 49.515625 72.90625 
L 49.515625 64.59375 
L 19.828125 64.59375 
L 19.828125 46.734375 
Q 21.96875 47.46875 24.109375 47.828125 
Q 26.265625 48.1875 28.421875 48.1875 
Q 40.625 48.1875 47.75 41.5 
Q 54.890625 34.8125 54.890625 23.390625 
Q 54.890625 11.625 47.5625 5.09375 
Q 40.234375 -1.421875 26.90625 -1.421875 
Q 22.3125 -1.421875 17.546875 -0.640625 
Q 12.796875 0.140625 7.71875 1.703125 
L 7.71875 11.625 
Q 12.109375 9.234375 16.796875 8.0625 
Q 21.484375 6.890625 26.703125 6.890625 
Q 35.15625 6.890625 40.078125 11.328125 
Q 45.015625 15.765625 45.015625 23.390625 
Q 45.015625 31 40.078125 35.4375 
Q 35.15625 39.890625 26.703125 39.890625 
Q 22.75 39.890625 18.8125 39.015625 
Q 14.890625 38.140625 10.796875 36.28125 
z
" id="DejaVuSans-35"/>
      </defs>
      <g transform="translate(92.809973 322.182437)scale(0.1 -0.1)">
       <use xlink:href="#DejaVuSans-2212"/>
       <use x="83.789062" xlink:href="#DejaVuSans-31"/>
       <use x="147.412109" xlink:href="#DejaVuSans-35"/>
      </g>
     </g>
    </g>
    <g id="xtick_3">
     <g id="line2d_5">
      <path clip-path="url(#paa195f2ec2)" d="M 147.628211 307.584 
L 147.628211 41.472 
" style="fill:none;stroke:#b0b0b0;stroke-linecap:square;stroke-width:0.8;"/>
     </g>
     <g id="line2d_6">
      <g>
       <use style="stroke:#000000;stroke-width:0.8;" x="147.628211" xlink:href="#me48134588d" y="307.584"/>
      </g>
     </g>
     <g id="text_3">
      <!-- −10 -->
      <g transform="translate(137.075867 322.182437)scale(0.1 -0.1)">
       <use xlink:href="#DejaVuSans-2212"/>
       <use x="83.789062" xlink:href="#DejaVuSans-31"/>
       <use x="147.412109" xlink:href="#DejaVuSans-30"/>
      </g>
     </g>
    </g>
    <g id="xtick_4">
     <g id="line2d_7">
      <path clip-path="url(#paa195f2ec2)" d="M 191.894105 307.584 
L 191.894105 41.472 
" style="fill:none;stroke:#b0b0b0;stroke-linecap:square;stroke-width:0.8;"/>
     </g>
     <g id="line2d_8">
      <g>
       <use style="stroke:#000000;stroke-width:0.8;" x="191.894105" xlink:href="#me48134588d" y="307.584"/>
      </g>
     </g>
     <g id="text_4">
      <!-- −5 -->
      <g transform="translate(184.523012 322.182437)scale(0.1 -0.1)">
       <use xlink:href="#DejaVuSans-2212"/>
       <use x="83.789062" xlink:href="#DejaVuSans-35"/>
      </g>
     </g>
    </g>
    <g id="xtick_5">
     <g id="line2d_9">
      <path clip-path="url(#paa195f2ec2)" d="M 236.16 307.584 
L 236.16 41.472 
" style="fill:none;stroke:#b0b0b0;stroke-linecap:square;stroke-width:0.8;"/>
     </g>
     <g id="line2d_10">
      <g>
       <use style="stroke:#000000;stroke-width:0.8;" x="236.16" xlink:href="#me48134588d" y="307.584"/>
      </g>
     </g>
     <g id="text_5">
      <!-- 0 -->
      <g transform="translate(232.97875 322.182437)scale(0.1 -0.1)">
       <use xlink:href="#DejaVuSans-30"/>
      </g>
     </g>
    </g>
    <g id="xtick_6">
     <g id="line2d_11">
      <path clip-path="url(#paa195f2ec2)" d="M 280.425895 307.584 
L 280.425895 41.472 
" style="fill:none;stroke:#b0b0b0;stroke-linecap:square;stroke-width:0.8;"/>
     </g>
     <g id="line2d_12">
      <g>
       <use style="stroke:#000000;stroke-width:0.8;" x="280.425895" xlink:href="#me48134588d" y="307.584"/>
      </g>
     </g>
     <g id="text_6">
      <!-- 5 -->
      <g transform="translate(277.244645 322.182437)scale(0.1 -0.1)">
       <use xlink:href="#DejaVuSans-35"/>
      </g>
     </g>
    </g>
    <g id="xtick_7">
     <g id="line2d_13">
      <path clip-path="url(#paa195f2ec2)" d="M 324.691789 307.584 
L 324.691789 41.472 
" style="fill:none;stroke:#b0b0b0;stroke-linecap:square;stroke-width:0.8;"/>
     </g>
     <g id="line2d_14">
      <g>
       <use style="stroke:#000000;stroke-width:0.8;" x="324.691789" xlink:href="#me48134588d" y="307.584"/>
      </g>
     </g>
     <g id="text_7">
      <!-- 10 -->
      <g transform="translate(318.329289 322.182437)scale(0.1 -0.1)">
       <use xlink:href="#DejaVuSans-31"/>
       <use x="63.623047" xlink:href="#DejaVuSans-30"/>
      </g>
     </g>
    </g>
    <g id="xtick_8">
     <g id="line2d_15">
      <path clip-path="url(#paa195f2ec2)" d="M 368.957684 307.584 
L 368.957684 41.472 
" style="fill:none;stroke:#b0b0b0;stroke-linecap:square;stroke-width:0.8;"/>
     </g>
     <g id="line2d_16">
      <g>
       <use style="stroke:#000000;stroke-width:0.8;" x="368.957684" xlink:href="#me48134588d" y="307.584"/>
      </g>
     </g>
     <g id="text_8">
      <!-- 15 -->
      <g transform="translate(362.595184 322.182437)scale(0.1 -0.1)">
       <use xlink:href="#DejaVuSans-31"/>
       <use x="63.623047" xlink:href="#DejaVuSans-35"/>
      </g>
     </g>
    </g>
    <g id="xtick_9">
     <g id="line2d_17">
      <path clip-path="url(#paa195f2ec2)" d="M 413.223578 307.584 
L 413.223578 41.472 
" style="fill:none;stroke:#b0b0b0;stroke-linecap:square;stroke-width:0.8;"/>
     </g>
     <g id="line2d_18">
      <g>
       <use style="stroke:#000000;stroke-width:0.8;" x="413.223578" xlink:href="#me48134588d" y="307.584"/>
      </g>
     </g>
     <g id="text_9">
      <!-- 20 -->
      <g transform="translate(406.861078 322.182437)scale(0.1 -0.1)">
       <use xlink:href="#DejaVuSans-32"/>
       <use x="63.623047" xlink:href="#DejaVuSans-30"/>
      </g>
     </g>
    </g>
    <g id="text_10">
     <!-- $\gamma_i$ -->
     <defs>
      <path d="M 23.296875 46.09375 
L 28.71875 12.3125 
L 54 54.6875 
L 63.53125 54.6875 
L 30.8125 0 
L 26.765625 -20.796875 
L 17.78125 -20.796875 
L 21.828125 0 
L 15.4375 40.828125 
Q 14.453125 46.96875 9.8125 46.96875 
L 7.421875 46.96875 
L 8.890625 54.6875 
L 12.3125 54.6875 
Q 21.921875 54.6875 23.296875 46.09375 
" id="DejaVuSans-Oblique-3b3"/>
      <path d="M 18.3125 75.984375 
L 27.296875 75.984375 
L 25.09375 64.59375 
L 16.109375 64.59375 
z
M 14.203125 54.6875 
L 23.1875 54.6875 
L 12.5 0 
L 3.515625 0 
z
" id="DejaVuSans-Oblique-69"/>
     </defs>
     <g transform="translate(232.06 335.84025)scale(0.1 -0.1)">
      <use transform="translate(0 0.3125)" xlink:href="#DejaVuSans-Oblique-3b3"/>
      <use transform="translate(59.179688 -16.09375)scale(0.7)" xlink:href="#DejaVuSans-Oblique-69"/>
     </g>
    </g>
   </g>
   <g id="matplotlib.axis_2">
    <g id="ytick_1">
     <g id="line2d_19">
      <path clip-path="url(#paa195f2ec2)" d="M 57.6 279.574842 
L 414.72 279.574842 
" style="fill:none;stroke:#b0b0b0;stroke-linecap:square;stroke-width:0.8;"/>
     </g>
     <g id="line2d_20">
      <defs>
       <path d="M 0 0 
L -3.5 0 
" id="ma3efa948ca" style="stroke:#000000;stroke-width:0.8;"/>
      </defs>
      <g>
       <use style="stroke:#000000;stroke-width:0.8;" x="57.6" xlink:href="#ma3efa948ca" y="279.574842"/>
      </g>
     </g>
     <g id="text_11">
      <!-- ${10^{-75}}$ -->
      <defs>
       <path d="M 8.203125 72.90625 
L 55.078125 72.90625 
L 55.078125 68.703125 
L 28.609375 0 
L 18.3125 0 
L 43.21875 64.59375 
L 8.203125 64.59375 
z
" id="DejaVuSans-37"/>
      </defs>
      <g transform="translate(22.7 283.374061)scale(0.1 -0.1)">
       <use transform="translate(0 0.684375)" xlink:href="#DejaVuSans-31"/>
       <use transform="translate(63.623047 0.684375)" xlink:href="#DejaVuSans-30"/>
       <use transform="translate(128.203125 38.965625)scale(0.7)" xlink:href="#DejaVuSans-2212"/>
       <use transform="translate(186.855469 38.965625)scale(0.7)" xlink:href="#DejaVuSans-37"/>
       <use transform="translate(231.391602 38.965625)scale(0.7)" xlink:href="#DejaVuSans-35"/>
      </g>
     </g>
    </g>
    <g id="ytick_2">
     <g id="line2d_21">
      <path clip-path="url(#paa195f2ec2)" d="M 57.6 249.045659 
L 414.72 249.045659 
" style="fill:none;stroke:#b0b0b0;stroke-linecap:square;stroke-width:0.8;"/>
     </g>
     <g id="line2d_22">
      <g>
       <use style="stroke:#000000;stroke-width:0.8;" x="57.6" xlink:href="#ma3efa948ca" y="249.045659"/>
      </g>
     </g>
     <g id="text_12">
      <!-- ${10^{-65}}$ -->
      <defs>
       <path d="M 33.015625 40.375 
Q 26.375 40.375 22.484375 35.828125 
Q 18.609375 31.296875 18.609375 23.390625 
Q 18.609375 15.53125 22.484375 10.953125 
Q 26.375 6.390625 33.015625 6.390625 
Q 39.65625 6.390625 43.53125 10.953125 
Q 47.40625 15.53125 47.40625 23.390625 
Q 47.40625 31.296875 43.53125 35.828125 
Q 39.65625 40.375 33.015625 40.375 
M 52.59375 71.296875 
L 52.59375 62.3125 
Q 48.875 64.0625 45.09375 64.984375 
Q 41.3125 65.921875 37.59375 65.921875 
Q 27.828125 65.921875 22.671875 59.328125 
Q 17.53125 52.734375 16.796875 39.40625 
Q 19.671875 43.65625 24.015625 45.921875 
Q 28.375 48.1875 33.59375 48.1875 
Q 44.578125 48.1875 50.953125 41.515625 
Q 57.328125 34.859375 57.328125 23.390625 
Q 57.328125 12.15625 50.6875 5.359375 
Q 44.046875 -1.421875 33.015625 -1.421875 
Q 20.359375 -1.421875 13.671875 8.265625 
Q 6.984375 17.96875 6.984375 36.375 
Q 6.984375 53.65625 15.1875 63.9375 
Q 23.390625 74.21875 37.203125 74.21875 
Q 40.921875 74.21875 44.703125 73.484375 
Q 48.484375 72.75 52.59375 71.296875 
" id="DejaVuSans-36"/>
      </defs>
      <g transform="translate(22.7 252.844878)scale(0.1 -0.1)">
       <use transform="translate(0 0.765625)" xlink:href="#DejaVuSans-31"/>
       <use transform="translate(63.623047 0.765625)" xlink:href="#DejaVuSans-30"/>
       <use transform="translate(128.203125 39.046875)scale(0.7)" xlink:href="#DejaVuSans-2212"/>
       <use transform="translate(186.855469 39.046875)scale(0.7)" xlink:href="#DejaVuSans-36"/>
       <use transform="translate(231.391602 39.046875)scale(0.7)" xlink:href="#DejaVuSans-35"/>
      </g>
     </g>
    </g>
    <g id="ytick_3">
     <g id="line2d_23">
      <path clip-path="url(#paa195f2ec2)" d="M 57.6 218.516476 
L 414.72 218.516476 
" style="fill:none;stroke:#b0b0b0;stroke-linecap:square;stroke-width:0.8;"/>
     </g>
     <g id="line2d_24">
      <g>
       <use style="stroke:#000000;stroke-width:0.8;" x="57.6" xlink:href="#ma3efa948ca" y="218.516476"/>
      </g>
     </g>
     <g id="text_13">
      <!-- ${10^{-55}}$ -->
      <g transform="translate(22.7 222.315695)scale(0.1 -0.1)">
       <use transform="translate(0 0.684375)" xlink:href="#DejaVuSans-31"/>
       <use transform="translate(63.623047 0.684375)" xlink:href="#DejaVuSans-30"/>
       <use transform="translate(128.203125 38.965625)scale(0.7)" xlink:href="#DejaVuSans-2212"/>
       <use transform="translate(186.855469 38.965625)scale(0.7)" xlink:href="#DejaVuSans-35"/>
       <use transform="translate(231.391602 38.965625)scale(0.7)" xlink:href="#DejaVuSans-35"/>
      </g>
     </g>
    </g>
    <g id="ytick_4">
     <g id="line2d_25">
      <path clip-path="url(#paa195f2ec2)" d="M 57.6 187.987293 
L 414.72 187.987293 
" style="fill:none;stroke:#b0b0b0;stroke-linecap:square;stroke-width:0.8;"/>
     </g>
     <g id="line2d_26">
      <g>
       <use style="stroke:#000000;stroke-width:0.8;" x="57.6" xlink:href="#ma3efa948ca" y="187.987293"/>
      </g>
     </g>
     <g id="text_14">
      <!-- ${10^{-45}}$ -->
      <defs>
       <path d="M 37.796875 64.3125 
L 12.890625 25.390625 
L 37.796875 25.390625 
z
M 35.203125 72.90625 
L 47.609375 72.90625 
L 47.609375 25.390625 
L 58.015625 25.390625 
L 58.015625 17.1875 
L 47.609375 17.1875 
L 47.609375 0 
L 37.796875 0 
L 37.796875 17.1875 
L 4.890625 17.1875 
L 4.890625 26.703125 
z
" id="DejaVuSans-34"/>
      </defs>
      <g transform="translate(22.7 191.786512)scale(0.1 -0.1)">
       <use transform="translate(0 0.684375)" xlink:href="#DejaVuSans-31"/>
       <use transform="translate(63.623047 0.684375)" xlink:href="#DejaVuSans-30"/>
       <use transform="translate(128.203125 38.965625)scale(0.7)" xlink:href="#DejaVuSans-2212"/>
       <use transform="translate(186.855469 38.965625)scale(0.7)" xlink:href="#DejaVuSans-34"/>
       <use transform="translate(231.391602 38.965625)scale(0.7)" xlink:href="#DejaVuSans-35"/>
      </g>
     </g>
    </g>
    <g id="ytick_5">
     <g id="line2d_27">
      <path clip-path="url(#paa195f2ec2)" d="M 57.6 157.45811 
L 414.72 157.45811 
" style="fill:none;stroke:#b0b0b0;stroke-linecap:square;stroke-width:0.8;"/>
     </g>
     <g id="line2d_28">
      <g>
       <use style="stroke:#000000;stroke-width:0.8;" x="57.6" xlink:href="#ma3efa948ca" y="157.45811"/>
      </g>
     </g>
     <g id="text_15">
      <!-- ${10^{-35}}$ -->
      <defs>
       <path d="M 40.578125 39.3125 
Q 47.65625 37.796875 51.625 33 
Q 55.609375 28.21875 55.609375 21.1875 
Q 55.609375 10.40625 48.1875 4.484375 
Q 40.765625 -1.421875 27.09375 -1.421875 
Q 22.515625 -1.421875 17.65625 -0.515625 
Q 12.796875 0.390625 7.625 2.203125 
L 7.625 11.71875 
Q 11.71875 9.328125 16.59375 8.109375 
Q 21.484375 6.890625 26.8125 6.890625 
Q 36.078125 6.890625 40.9375 10.546875 
Q 45.796875 14.203125 45.796875 21.1875 
Q 45.796875 27.640625 41.28125 31.265625 
Q 36.765625 34.90625 28.71875 34.90625 
L 20.21875 34.90625 
L 20.21875 43.015625 
L 29.109375 43.015625 
Q 36.375 43.015625 40.234375 45.921875 
Q 44.09375 48.828125 44.09375 54.296875 
Q 44.09375 59.90625 40.109375 62.90625 
Q 36.140625 65.921875 28.71875 65.921875 
Q 24.65625 65.921875 20.015625 65.03125 
Q 15.375 64.15625 9.8125 62.3125 
L 9.8125 71.09375 
Q 15.4375 72.65625 20.34375 73.4375 
Q 25.25 74.21875 29.59375 74.21875 
Q 40.828125 74.21875 47.359375 69.109375 
Q 53.90625 64.015625 53.90625 55.328125 
Q 53.90625 49.265625 50.4375 45.09375 
Q 46.96875 40.921875 40.578125 39.3125 
" id="DejaVuSans-33"/>
      </defs>
      <g transform="translate(22.7 161.257329)scale(0.1 -0.1)">
       <use transform="translate(0 0.765625)" xlink:href="#DejaVuSans-31"/>
       <use transform="translate(63.623047 0.765625)" xlink:href="#DejaVuSans-30"/>
       <use transform="translate(128.203125 39.046875)scale(0.7)" xlink:href="#DejaVuSans-2212"/>
       <use transform="translate(186.855469 39.046875)scale(0.7)" xlink:href="#DejaVuSans-33"/>
       <use transform="translate(231.391602 39.046875)scale(0.7)" xlink:href="#DejaVuSans-35"/>
      </g>
     </g>
    </g>
    <g id="ytick_6">
     <g id="line2d_29">
      <path clip-path="url(#paa195f2ec2)" d="M 57.6 126.928927 
L 414.72 126.928927 
" style="fill:none;stroke:#b0b0b0;stroke-linecap:square;stroke-width:0.8;"/>
     </g>
     <g id="line2d_30">
      <g>
       <use style="stroke:#000000;stroke-width:0.8;" x="57.6" xlink:href="#ma3efa948ca" y="126.928927"/>
      </g>
     </g>
     <g id="text_16">
      <!-- ${10^{-25}}$ -->
      <g transform="translate(22.7 130.728146)scale(0.1 -0.1)">
       <use transform="translate(0 0.765625)" xlink:href="#DejaVuSans-31"/>
       <use transform="translate(63.623047 0.765625)" xlink:href="#DejaVuSans-30"/>
       <use transform="translate(128.203125 39.046875)scale(0.7)" xlink:href="#DejaVuSans-2212"/>
       <use transform="translate(186.855469 39.046875)scale(0.7)" xlink:href="#DejaVuSans-32"/>
       <use transform="translate(231.391602 39.046875)scale(0.7)" xlink:href="#DejaVuSans-35"/>
      </g>
     </g>
    </g>
    <g id="ytick_7">
     <g id="line2d_31">
      <path clip-path="url(#paa195f2ec2)" d="M 57.6 96.399744 
L 414.72 96.399744 
" style="fill:none;stroke:#b0b0b0;stroke-linecap:square;stroke-width:0.8;"/>
     </g>
     <g id="line2d_32">
      <g>
       <use style="stroke:#000000;stroke-width:0.8;" x="57.6" xlink:href="#ma3efa948ca" y="96.399744"/>
      </g>
     </g>
     <g id="text_17">
      <!-- ${10^{-15}}$ -->
      <g transform="translate(22.7 100.198963)scale(0.1 -0.1)">
       <use transform="translate(0 0.684375)" xlink:href="#DejaVuSans-31"/>
       <use transform="translate(63.623047 0.684375)" xlink:href="#DejaVuSans-30"/>
       <use transform="translate(128.203125 38.965625)scale(0.7)" xlink:href="#DejaVuSans-2212"/>
       <use transform="translate(186.855469 38.965625)scale(0.7)" xlink:href="#DejaVuSans-31"/>
       <use transform="translate(231.391602 38.965625)scale(0.7)" xlink:href="#DejaVuSans-35"/>
      </g>
     </g>
    </g>
    <g id="ytick_8">
     <g id="line2d_33">
      <path clip-path="url(#paa195f2ec2)" d="M 57.6 65.870561 
L 414.72 65.870561 
" style="fill:none;stroke:#b0b0b0;stroke-linecap:square;stroke-width:0.8;"/>
     </g>
     <g id="line2d_34">
      <g>
       <use style="stroke:#000000;stroke-width:0.8;" x="57.6" xlink:href="#ma3efa948ca" y="65.870561"/>
      </g>
     </g>
     <g id="text_18">
      <!-- ${10^{-5}}$ -->
      <g transform="translate(27.1 69.66978)scale(0.1 -0.1)">
       <use transform="translate(0 0.684375)" xlink:href="#DejaVuSans-31"/>
       <use transform="translate(63.623047 0.684375)" xlink:href="#DejaVuSans-30"/>
       <use transform="translate(128.203125 38.965625)scale(0.7)" xlink:href="#DejaVuSans-2212"/>
       <use transform="translate(186.855469 38.965625)scale(0.7)" xlink:href="#DejaVuSans-35"/>
      </g>
     </g>
    </g>
    <g id="text_19">
     <!-- $\omega_i$ -->
     <defs>
      <path d="M 21.390625 -1.421875 
Q 1.125 -1.421875 6.78125 27.59375 
Q 8.984375 39.0625 19.625 54.6875 
L 29.296875 54.6875 
Q 19.234375 39.0625 17 27.34375 
Q 12.796875 6.203125 23.734375 6.203125 
Q 33.84375 6.203125 38.71875 32.46875 
L 47.015625 32.46875 
Q 41.703125 6.0625 51.8125 6.203125 
Q 62.703125 6.296875 66.796875 27.34375 
Q 69.046875 39.0625 65.140625 54.6875 
L 74.8125 54.6875 
Q 79.296875 39.0625 77.09375 27.59375 
Q 71.53125 -1.46875 51.21875 -1.421875 
Q 37.9375 -1.375 39.109375 13.1875 
Q 34.28125 -1.421875 21.390625 -1.421875 
" id="DejaVuSans-Oblique-3c9"/>
     </defs>
     <g transform="translate(16.620312 179.828)rotate(-90)scale(0.1 -0.1)">
      <use transform="translate(0 0.3125)" xlink:href="#DejaVuSans-Oblique-3c9"/>
      <use transform="translate(83.740234 -16.09375)scale(0.7)" xlink:href="#DejaVuSans-Oblique-69"/>
     </g>
    </g>
   </g>
   <g id="line2d_35">
    <defs>
     <path d="M 0 3 
C 0.795609 3 1.55874 2.683901 2.12132 2.12132 
C 2.683901 1.55874 3 0.795609 3 0 
C 3 -0.795609 2.683901 -1.55874 2.12132 -2.12132 
C 1.55874 -2.683901 0.795609 -3 0 -3 
C -0.795609 -3 -1.55874 -2.683901 -2.12132 -2.12132 
C -2.683901 -1.55874 -3 -0.795609 -3 0 
C -3 0.795609 -2.683901 1.55874 -2.12132 2.12132 
C -1.55874 2.683901 -0.795609 3 0 3 
z
" id="m40658050ca" style="stroke:#1f77b4;"/>
    </defs>
    <g clip-path="url(#paa195f2ec2)">
     <use style="fill:#1f77b4;stroke:#1f77b4;" x="387.268714" xlink:href="#m40658050ca" y="245.686989"/>
     <use style="fill:#1f77b4;stroke:#1f77b4;" x="85.051286" xlink:href="#m40658050ca" y="245.686989"/>
     <use style="fill:#1f77b4;stroke:#1f77b4;" x="357.533183" xlink:href="#m40658050ca" y="177.570862"/>
     <use style="fill:#1f77b4;stroke:#1f77b4;" x="111.008614" xlink:href="#m40658050ca" y="185.412402"/>
     <use style="fill:#1f77b4;stroke:#1f77b4;" x="94.558383" xlink:href="#m40658050ca" y="222.32255"/>
     <use style="fill:#1f77b4;stroke:#1f77b4;" x="405.866821" xlink:href="#m40658050ca" y="295.488"/>
     <use style="fill:#1f77b4;stroke:#1f77b4;" x="73.720234" xlink:href="#m40658050ca" y="275.42118"/>
     <use style="fill:#1f77b4;stroke:#1f77b4;" x="398.599766" xlink:href="#m40658050ca" y="275.42118"/>
     <use style="fill:#1f77b4;stroke:#1f77b4;" x="145.487057" xlink:href="#m40658050ca" y="122.721359"/>
     <use style="fill:#1f77b4;stroke:#1f77b4;" x="204.516686" xlink:href="#m40658050ca" y="61.929986"/>
     <use style="fill:#1f77b4;stroke:#1f77b4;" x="365.201432" xlink:href="#m40658050ca" y="193.734898"/>
     <use style="fill:#1f77b4;stroke:#1f77b4;" x="107.118568" xlink:href="#m40658050ca" y="193.734898"/>
     <use style="fill:#1f77b4;stroke:#1f77b4;" x="256.826987" xlink:href="#m40658050ca" y="56.515939"/>
     <use style="fill:#1f77b4;stroke:#1f77b4;" x="369.222019" xlink:href="#m40658050ca" y="202.601403"/>
     <use style="fill:#1f77b4;stroke:#1f77b4;" x="98.922349" xlink:href="#m40658050ca" y="212.093867"/>
     <use style="fill:#1f77b4;stroke:#1f77b4;" x="135.763023" xlink:href="#m40658050ca" y="138.382196"/>
     <use style="fill:#1f77b4;stroke:#1f77b4;" x="285.133183" xlink:href="#m40658050ca" y="73.627195"/>
     <use style="fill:#1f77b4;stroke:#1f77b4;" x="333.271046" xlink:href="#m40658050ca" y="132.912264"/>
     <use style="fill:#1f77b4;stroke:#1f77b4;" x="353.85215" xlink:href="#m40658050ca" y="170.160423"/>
     <use style="fill:#1f77b4;stroke:#1f77b4;" x="132.426909" xlink:href="#m40658050ca" y="144.121265"/>
     <use style="fill:#1f77b4;stroke:#1f77b4;" x="330.030966" xlink:href="#m40658050ca" y="127.696391"/>
     <use style="fill:#1f77b4;stroke:#1f77b4;" x="122.063502" xlink:href="#m40658050ca" y="163.140794"/>
     <use style="fill:#1f77b4;stroke:#1f77b4;" x="125.58342" xlink:href="#m40658050ca" y="156.478816"/>
     <use style="fill:#1f77b4;stroke:#1f77b4;" x="350.256498" xlink:href="#m40658050ca" y="163.140794"/>
     <use style="fill:#1f77b4;stroke:#1f77b4;" x="262.466725" xlink:href="#m40658050ca" y="59.245382"/>
     <use style="fill:#1f77b4;stroke:#1f77b4;" x="377.761617" xlink:href="#m40658050ca" y="222.32255"/>
     <use style="fill:#1f77b4;stroke:#1f77b4;" x="249.135401" xlink:href="#m40658050ca" y="54.861911"/>
     <use style="fill:#1f77b4;stroke:#1f77b4;" x="207.154532" xlink:href="#m40658050ca" y="60.525186"/>
     <use style="fill:#1f77b4;stroke:#1f77b4;" x="148.646375" xlink:href="#m40658050ca" y="117.975503"/>
     <use style="fill:#1f77b4;stroke:#1f77b4;" x="79.716151" xlink:href="#m40658050ca" y="259.437449"/>
     <use style="fill:#1f77b4;stroke:#1f77b4;" x="114.786817" xlink:href="#m40658050ca" y="177.570862"/>
     <use style="fill:#1f77b4;stroke:#1f77b4;" x="103.097981" xlink:href="#m40658050ca" y="202.601403"/>
     <use style="fill:#1f77b4;stroke:#1f77b4;" x="89.958686" xlink:href="#m40658050ca" y="233.4427"/>
     <use style="fill:#1f77b4;stroke:#1f77b4;" x="129.035633" xlink:href="#m40658050ca" y="150.146787"/>
     <use style="fill:#1f77b4;stroke:#1f77b4;" x="202.081812" xlink:href="#m40658050ca" y="63.474328"/>
     <use style="fill:#1f77b4;stroke:#1f77b4;" x="197.989556" xlink:href="#m40658050ca" y="65.904688"/>
     <use style="fill:#1f77b4;stroke:#1f77b4;" x="373.397651" xlink:href="#m40658050ca" y="212.093867"/>
     <use style="fill:#1f77b4;stroke:#1f77b4;" x="66.453179" xlink:href="#m40658050ca" y="295.488"/>
     <use style="fill:#1f77b4;stroke:#1f77b4;" x="343.284367" xlink:href="#m40658050ca" y="150.146787"/>
     <use style="fill:#1f77b4;stroke:#1f77b4;" x="382.361314" xlink:href="#m40658050ca" y="233.4427"/>
     <use style="fill:#1f77b4;stroke:#1f77b4;" x="151.769959" xlink:href="#m40658050ca" y="113.448481"/>
     <use style="fill:#1f77b4;stroke:#1f77b4;" x="189.992208" xlink:href="#m40658050ca" y="71.383421"/>
     <use style="fill:#1f77b4;stroke:#1f77b4;" x="267.803314" xlink:href="#m40658050ca" y="61.929986"/>
     <use style="fill:#1f77b4;stroke:#1f77b4;" x="178.630838" xlink:href="#m40658050ca" y="81.304974"/>
     <use style="fill:#1f77b4;stroke:#1f77b4;" x="346.73658" xlink:href="#m40658050ca" y="156.478816"/>
     <use style="fill:#1f77b4;stroke:#1f77b4;" x="217.755506" xlink:href="#m40658050ca" y="56.125225"/>
     <use style="fill:#1f77b4;stroke:#1f77b4;" x="169.891622" xlink:href="#m40658050ca" y="90.427364"/>
     <use style="fill:#1f77b4;stroke:#1f77b4;" x="118.46785" xlink:href="#m40658050ca" y="170.160423"/>
     <use style="fill:#1f77b4;stroke:#1f77b4;" x="246.566589" xlink:href="#m40658050ca" y="54.419981"/>
     <use style="fill:#1f77b4;stroke:#1f77b4;" x="166.935544" xlink:href="#m40658050ca" y="93.80483"/>
     <use style="fill:#1f77b4;stroke:#1f77b4;" x="279.558411" xlink:href="#m40658050ca" y="69.307416"/>
     <use style="fill:#1f77b4;stroke:#1f77b4;" x="184.355906" xlink:href="#m40658050ca" y="76.029472"/>
     <use style="fill:#1f77b4;stroke:#1f77b4;" x="172.825527" xlink:href="#m40658050ca" y="87.221008"/>
     <use style="fill:#1f77b4;stroke:#1f77b4;" x="242.728738" xlink:href="#m40658050ca" y="54.606923"/>
     <use style="fill:#1f77b4;stroke:#1f77b4;" x="259.738452" xlink:href="#m40658050ca" y="58.077477"/>
     <use style="fill:#1f77b4;stroke:#1f77b4;" x="160.951461" xlink:href="#m40658050ca" y="101.092979"/>
     <use style="fill:#1f77b4;stroke:#1f77b4;" x="154.860461" xlink:href="#m40658050ca" y="109.131075"/>
     <use style="fill:#1f77b4;stroke:#1f77b4;" x="305.384456" xlink:href="#m40658050ca" y="93.80483"/>
     <use style="fill:#1f77b4;stroke:#1f77b4;" x="392.603849" xlink:href="#m40658050ca" y="259.437449"/>
     <use style="fill:#1f77b4;stroke:#1f77b4;" x="296.581666" xlink:href="#m40658050ca" y="84.181462"/>
     <use style="fill:#1f77b4;stroke:#1f77b4;" x="175.738334" xlink:href="#m40658050ca" y="84.181462"/>
     <use style="fill:#1f77b4;stroke:#1f77b4;" x="361.311386" xlink:href="#m40658050ca" y="185.412402"/>
     <use style="fill:#1f77b4;stroke:#1f77b4;" x="228.049136" xlink:href="#m40658050ca" y="54.379377"/>
     <use style="fill:#1f77b4;stroke:#1f77b4;" x="287.964094" xlink:href="#m40658050ca" y="76.029472"/>
     <use style="fill:#1f77b4;stroke:#1f77b4;" x="187.186817" xlink:href="#m40658050ca" y="73.627195"/>
     <use style="fill:#1f77b4;stroke:#1f77b4;" x="314.399747" xlink:href="#m40658050ca" y="105.01504"/>
     <use style="fill:#1f77b4;stroke:#1f77b4;" x="272.2372" xlink:href="#m40658050ca" y="64.88356"/>
     <use style="fill:#1f77b4;stroke:#1f77b4;" x="157.920253" xlink:href="#m40658050ca" y="105.01504"/>
     <use style="fill:#1f77b4;stroke:#1f77b4;" x="200.0828" xlink:href="#m40658050ca" y="64.88356"/>
     <use style="fill:#1f77b4;stroke:#1f77b4;" x="311.368539" xlink:href="#m40658050ca" y="101.092979"/>
     <use style="fill:#1f77b4;stroke:#1f77b4;" x="240.864566" xlink:href="#m40658050ca" y="53.84247"/>
     <use style="fill:#1f77b4;stroke:#1f77b4;" x="270.238188" xlink:href="#m40658050ca" y="63.474328"/>
     <use style="fill:#1f77b4;stroke:#1f77b4;" x="215.493013" xlink:href="#m40658050ca" y="56.515939"/>
     <use style="fill:#1f77b4;stroke:#1f77b4;" x="323.673625" xlink:href="#m40658050ca" y="117.975503"/>
     <use style="fill:#1f77b4;stroke:#1f77b4;" x="282.327792" xlink:href="#m40658050ca" y="71.383421"/>
     <use style="fill:#1f77b4;stroke:#1f77b4;" x="299.494473" xlink:href="#m40658050ca" y="87.221008"/>
     <use style="fill:#1f77b4;stroke:#1f77b4;" x="265.165468" xlink:href="#m40658050ca" y="60.525186"/>
     <use style="fill:#1f77b4;stroke:#1f77b4;" x="339.893091" xlink:href="#m40658050ca" y="144.121265"/>
     <use style="fill:#1f77b4;stroke:#1f77b4;" x="216.173384" xlink:href="#m40658050ca" y="57.386551"/>
     <use style="fill:#1f77b4;stroke:#1f77b4;" x="326.832943" xlink:href="#m40658050ca" y="122.721359"/>
     <use style="fill:#1f77b4;stroke:#1f77b4;" x="220.528031" xlink:href="#m40658050ca" y="55.470022"/>
     <use style="fill:#1f77b4;stroke:#1f77b4;" x="244.270864" xlink:href="#m40658050ca" y="54.379377"/>
     <use style="fill:#1f77b4;stroke:#1f77b4;" x="192.761589" xlink:href="#m40658050ca" y="69.307416"/>
     <use style="fill:#1f77b4;stroke:#1f77b4;" x="223.184599" xlink:href="#m40658050ca" y="54.861911"/>
     <use style="fill:#1f77b4;stroke:#1f77b4;" x="209.853275" xlink:href="#m40658050ca" y="59.245382"/>
     <use style="fill:#1f77b4;stroke:#1f77b4;" x="317.459539" xlink:href="#m40658050ca" y="109.131075"/>
     <use style="fill:#1f77b4;stroke:#1f77b4;" x="251.791969" xlink:href="#m40658050ca" y="55.470022"/>
     <use style="fill:#1f77b4;stroke:#1f77b4;" x="290.81656" xlink:href="#m40658050ca" y="78.588413"/>
     <use style="fill:#1f77b4;stroke:#1f77b4;" x="225.753411" xlink:href="#m40658050ca" y="54.419981"/>
     <use style="fill:#1f77b4;stroke:#1f77b4;" x="229.591262" xlink:href="#m40658050ca" y="54.606923"/>
     <use style="fill:#1f77b4;stroke:#1f77b4;" x="139.048954" xlink:href="#m40658050ca" y="132.912264"/>
     <use style="fill:#1f77b4;stroke:#1f77b4;" x="212.581548" xlink:href="#m40658050ca" y="58.077477"/>
     <use style="fill:#1f77b4;stroke:#1f77b4;" x="256.146616" xlink:href="#m40658050ca" y="57.386551"/>
     <use style="fill:#1f77b4;stroke:#1f77b4;" x="336.556977" xlink:href="#m40658050ca" y="138.382196"/>
     <use style="fill:#1f77b4;stroke:#1f77b4;" x="274.330444" xlink:href="#m40658050ca" y="65.904688"/>
     <use style="fill:#1f77b4;stroke:#1f77b4;" x="163.955992" xlink:href="#m40658050ca" y="97.358239"/>
     <use style="fill:#1f77b4;stroke:#1f77b4;" x="233.783565" xlink:href="#m40658050ca" y="53.617861"/>
     <use style="fill:#1f77b4;stroke:#1f77b4;" x="293.689162" xlink:href="#m40658050ca" y="81.304974"/>
     <use style="fill:#1f77b4;stroke:#1f77b4;" x="308.364008" xlink:href="#m40658050ca" y="97.358239"/>
     <use style="fill:#1f77b4;stroke:#1f77b4;" x="236.16" xlink:href="#m40658050ca" y="53.568"/>
     <use style="fill:#1f77b4;stroke:#1f77b4;" x="231.455434" xlink:href="#m40658050ca" y="53.84247"/>
     <use style="fill:#1f77b4;stroke:#1f77b4;" x="181.50344" xlink:href="#m40658050ca" y="78.588413"/>
     <use style="fill:#1f77b4;stroke:#1f77b4;" x="254.564494" xlink:href="#m40658050ca" y="56.125225"/>
     <use style="fill:#1f77b4;stroke:#1f77b4;" x="195.463855" xlink:href="#m40658050ca" y="67.434201"/>
     <use style="fill:#1f77b4;stroke:#1f77b4;" x="320.550041" xlink:href="#m40658050ca" y="113.448481"/>
     <use style="fill:#1f77b4;stroke:#1f77b4;" x="142.289034" xlink:href="#m40658050ca" y="127.696391"/>
     <use style="fill:#1f77b4;stroke:#1f77b4;" x="238.536435" xlink:href="#m40658050ca" y="53.617861"/>
     <use style="fill:#1f77b4;stroke:#1f77b4;" x="276.856145" xlink:href="#m40658050ca" y="67.434201"/>
     <use style="fill:#1f77b4;stroke:#1f77b4;" x="302.428378" xlink:href="#m40658050ca" y="90.427364"/>
    </g>
   </g>
   <g id="patch_3">
    <path d="M 57.6 307.584 
L 57.6 41.472 
" style="fill:none;stroke:#000000;stroke-linecap:square;stroke-linejoin:miter;stroke-width:0.8;"/>
   </g>
   <g id="patch_4">
    <path d="M 414.72 307.584 
L 414.72 41.472 
" style="fill:none;stroke:#000000;stroke-linecap:square;stroke-linejoin:miter;stroke-width:0.8;"/>
   </g>
   <g id="patch_5">
    <path d="M 57.6 307.584 
L 414.72 307.584 
" style="fill:none;stroke:#000000;stroke-linecap:square;stroke-linejoin:miter;stroke-width:0.8;"/>
   </g>
   <g id="patch_6">
    <path d="M 57.6 41.472 
L 414.72 41.472 
" style="fill:none;stroke:#000000;stroke-linecap:square;stroke-linejoin:miter;stroke-width:0.8;"/>
   </g>
  </g>
 </g>
 <defs>
  <clipPath id="paa195f2ec2">
   <rect height="266.112" width="357.12" x="57.6" y="41.472"/>
  </clipPath>
 </defs>
</svg>
