<?xml version="1.0" encoding="utf-8" standalone="no"?>
<!DOCTYPE svg PUBLIC "-//W3C//DTD SVG 1.1//EN"
  "http://www.w3.org/Graphics/SVG/1.1/DTD/svg11.dtd">
<!-- Created with matplotlib (http://matplotlib.org/) -->
<svg height="345pt" version="1.1" viewBox="0 0 460 345" width="460pt" xmlns="http://www.w3.org/2000/svg" xmlns:xlink="http://www.w3.org/1999/xlink">
 <defs>
  <style type="text/css">
*{stroke-linecap:butt;stroke-linejoin:round;}
  </style>
 </defs>
 <g id="figure_1">
  <g id="patch_1">
   <path d="M 0 345.6 
L 460.8 345.6 
L 460.8 0 
L 0 0 
z
" style="fill:#ffffff;"/>
  </g>
  <g id="axes_1">
   <g id="patch_2">
    <path d="M 57.6 307.584 
L 414.72 307.584 
L 414.72 41.472 
L 57.6 41.472 
z
" style="fill:#ffffff;"/>
   </g>
   <g id="matplotlib.axis_1">
    <g id="xtick_1">
     <g id="line2d_1">
      <path clip-path="url(#pe191248377)" d="M 85.001963 307.584 
L 85.001963 41.472 
" style="fill:none;stroke:#b0b0b0;stroke-linecap:square;stroke-width:0.8;"/>
     </g>
     <g id="line2d_2">
      <defs>
       <path d="M 0 0 
L 0 3.5 
" id="m5563f81d99" style="stroke:#000000;stroke-width:0.8;"/>
      </defs>
      <g>
       <use style="stroke:#000000;stroke-width:0.8;" x="85.001963" xlink:href="#m5563f81d99" y="307.584"/>
      </g>
     </g>
     <g id="text_1">
      <!-- −15 -->
      <defs>
       <path d="M 10.59375 35.5 
L 73.1875 35.5 
L 73.1875 27.203125 
L 10.59375 27.203125 
z
" id="DejaVuSans-2212"/>
       <path d="M 12.40625 8.296875 
L 28.515625 8.296875 
L 28.515625 63.921875 
L 10.984375 60.40625 
L 10.984375 69.390625 
L 28.421875 72.90625 
L 38.28125 72.90625 
L 38.28125 8.296875 
L 54.390625 8.296875 
L 54.390625 0 
L 12.40625 0 
z
" id="DejaVuSans-31"/>
       <path d="M 10.796875 72.90625 
L 49.515625 72.90625 
L 49.515625 64.59375 
L 19.828125 64.59375 
L 19.828125 46.734375 
Q 21.96875 47.46875 24.109375 47.828125 
Q 26.265625 48.1875 28.421875 48.1875 
Q 40.625 48.1875 47.75 41.5 
Q 54.890625 34.8125 54.890625 23.390625 
Q 54.890625 11.625 47.5625 5.09375 
Q 40.234375 -1.421875 26.90625 -1.421875 
Q 22.3125 -1.421875 17.546875 -0.640625 
Q 12.796875 0.140625 7.71875 1.703125 
L 7.71875 11.625 
Q 12.109375 9.234375 16.796875 8.0625 
Q 21.484375 6.890625 26.703125 6.890625 
Q 35.15625 6.890625 40.078125 11.328125 
Q 45.015625 15.765625 45.015625 23.390625 
Q 45.015625 31 40.078125 35.4375 
Q 35.15625 39.890625 26.703125 39.890625 
Q 22.75 39.890625 18.8125 39.015625 
Q 14.890625 38.140625 10.796875 36.28125 
z
" id="DejaVuSans-35"/>
      </defs>
      <g transform="translate(74.44962 322.182437)scale(0.1 -0.1)">
       <use xlink:href="#DejaVuSans-2212"/>
       <use x="83.789062" xlink:href="#DejaVuSans-31"/>
       <use x="147.412109" xlink:href="#DejaVuSans-35"/>
      </g>
     </g>
    </g>
    <g id="xtick_2">
     <g id="line2d_3">
      <path clip-path="url(#pe191248377)" d="M 135.387976 307.584 
L 135.387976 41.472 
" style="fill:none;stroke:#b0b0b0;stroke-linecap:square;stroke-width:0.8;"/>
     </g>
     <g id="line2d_4">
      <g>
       <use style="stroke:#000000;stroke-width:0.8;" x="135.387976" xlink:href="#m5563f81d99" y="307.584"/>
      </g>
     </g>
     <g id="text_2">
      <!-- −10 -->
      <defs>
       <path d="M 31.78125 66.40625 
Q 24.171875 66.40625 20.328125 58.90625 
Q 16.5 51.421875 16.5 36.375 
Q 16.5 21.390625 20.328125 13.890625 
Q 24.171875 6.390625 31.78125 6.390625 
Q 39.453125 6.390625 43.28125 13.890625 
Q 47.125 21.390625 47.125 36.375 
Q 47.125 51.421875 43.28125 58.90625 
Q 39.453125 66.40625 31.78125 66.40625 
M 31.78125 74.21875 
Q 44.046875 74.21875 50.515625 64.515625 
Q 56.984375 54.828125 56.984375 36.375 
Q 56.984375 17.96875 50.515625 8.265625 
Q 44.046875 -1.421875 31.78125 -1.421875 
Q 19.53125 -1.421875 13.0625 8.265625 
Q 6.59375 17.96875 6.59375 36.375 
Q 6.59375 54.828125 13.0625 64.515625 
Q 19.53125 74.21875 31.78125 74.21875 
" id="DejaVuSans-30"/>
      </defs>
      <g transform="translate(124.835632 322.182437)scale(0.1 -0.1)">
       <use xlink:href="#DejaVuSans-2212"/>
       <use x="83.789062" xlink:href="#DejaVuSans-31"/>
       <use x="147.412109" xlink:href="#DejaVuSans-30"/>
      </g>
     </g>
    </g>
    <g id="xtick_3">
     <g id="line2d_5">
      <path clip-path="url(#pe191248377)" d="M 185.773988 307.584 
L 185.773988 41.472 
" style="fill:none;stroke:#b0b0b0;stroke-linecap:square;stroke-width:0.8;"/>
     </g>
     <g id="line2d_6">
      <g>
       <use style="stroke:#000000;stroke-width:0.8;" x="185.773988" xlink:href="#m5563f81d99" y="307.584"/>
      </g>
     </g>
     <g id="text_3">
      <!-- −5 -->
      <g transform="translate(178.402894 322.182437)scale(0.1 -0.1)">
       <use xlink:href="#DejaVuSans-2212"/>
       <use x="83.789062" xlink:href="#DejaVuSans-35"/>
      </g>
     </g>
    </g>
    <g id="xtick_4">
     <g id="line2d_7">
      <path clip-path="url(#pe191248377)" d="M 236.16 307.584 
L 236.16 41.472 
" style="fill:none;stroke:#b0b0b0;stroke-linecap:square;stroke-width:0.8;"/>
     </g>
     <g id="line2d_8">
      <g>
       <use style="stroke:#000000;stroke-width:0.8;" x="236.16" xlink:href="#m5563f81d99" y="307.584"/>
      </g>
     </g>
     <g id="text_4">
      <!-- 0 -->
      <g transform="translate(232.97875 322.182437)scale(0.1 -0.1)">
       <use xlink:href="#DejaVuSans-30"/>
      </g>
     </g>
    </g>
    <g id="xtick_5">
     <g id="line2d_9">
      <path clip-path="url(#pe191248377)" d="M 286.546012 307.584 
L 286.546012 41.472 
" style="fill:none;stroke:#b0b0b0;stroke-linecap:square;stroke-width:0.8;"/>
     </g>
     <g id="line2d_10">
      <g>
       <use style="stroke:#000000;stroke-width:0.8;" x="286.546012" xlink:href="#m5563f81d99" y="307.584"/>
      </g>
     </g>
     <g id="text_5">
      <!-- 5 -->
      <g transform="translate(283.364762 322.182437)scale(0.1 -0.1)">
       <use xlink:href="#DejaVuSans-35"/>
      </g>
     </g>
    </g>
    <g id="xtick_6">
     <g id="line2d_11">
      <path clip-path="url(#pe191248377)" d="M 336.932024 307.584 
L 336.932024 41.472 
" style="fill:none;stroke:#b0b0b0;stroke-linecap:square;stroke-width:0.8;"/>
     </g>
     <g id="line2d_12">
      <g>
       <use style="stroke:#000000;stroke-width:0.8;" x="336.932024" xlink:href="#m5563f81d99" y="307.584"/>
      </g>
     </g>
     <g id="text_6">
      <!-- 10 -->
      <g transform="translate(330.569524 322.182437)scale(0.1 -0.1)">
       <use xlink:href="#DejaVuSans-31"/>
       <use x="63.623047" xlink:href="#DejaVuSans-30"/>
      </g>
     </g>
    </g>
    <g id="xtick_7">
     <g id="line2d_13">
      <path clip-path="url(#pe191248377)" d="M 387.318037 307.584 
L 387.318037 41.472 
" style="fill:none;stroke:#b0b0b0;stroke-linecap:square;stroke-width:0.8;"/>
     </g>
     <g id="line2d_14">
      <g>
       <use style="stroke:#000000;stroke-width:0.8;" x="387.318037" xlink:href="#m5563f81d99" y="307.584"/>
      </g>
     </g>
     <g id="text_7">
      <!-- 15 -->
      <g transform="translate(380.955537 322.182437)scale(0.1 -0.1)">
       <use xlink:href="#DejaVuSans-31"/>
       <use x="63.623047" xlink:href="#DejaVuSans-35"/>
      </g>
     </g>
    </g>
    <g id="text_8">
     <!-- $\gamma_i$ -->
     <defs>
      <path d="M 23.296875 46.09375 
L 28.71875 12.3125 
L 54 54.6875 
L 63.53125 54.6875 
L 30.8125 0 
L 26.765625 -20.796875 
L 17.78125 -20.796875 
L 21.828125 0 
L 15.4375 40.828125 
Q 14.453125 46.96875 9.8125 46.96875 
L 7.421875 46.96875 
L 8.890625 54.6875 
L 12.3125 54.6875 
Q 21.921875 54.6875 23.296875 46.09375 
" id="DejaVuSans-Oblique-3b3"/>
      <path d="M 18.3125 75.984375 
L 27.296875 75.984375 
L 25.09375 64.59375 
L 16.109375 64.59375 
z
M 14.203125 54.6875 
L 23.1875 54.6875 
L 12.5 0 
L 3.515625 0 
z
" id="DejaVuSans-Oblique-69"/>
     </defs>
     <g transform="translate(232.06 335.84025)scale(0.1 -0.1)">
      <use transform="translate(0 0.3125)" xlink:href="#DejaVuSans-Oblique-3b3"/>
      <use transform="translate(59.179688 -16.09375)scale(0.7)" xlink:href="#DejaVuSans-Oblique-69"/>
     </g>
    </g>
   </g>
   <g id="matplotlib.axis_2">
    <g id="ytick_1">
     <g id="line2d_15">
      <path clip-path="url(#pe191248377)" d="M 57.6 279.012787 
L 414.72 279.012787 
" style="fill:none;stroke:#b0b0b0;stroke-linecap:square;stroke-width:0.8;"/>
     </g>
     <g id="line2d_16">
      <defs>
       <path d="M 0 0 
L -3.5 0 
" id="m2bec79cbe4" style="stroke:#000000;stroke-width:0.8;"/>
      </defs>
      <g>
       <use style="stroke:#000000;stroke-width:0.8;" x="57.6" xlink:href="#m2bec79cbe4" y="279.012787"/>
      </g>
     </g>
     <g id="text_9">
      <!-- ${10^{-57}}$ -->
      <defs>
       <path d="M 8.203125 72.90625 
L 55.078125 72.90625 
L 55.078125 68.703125 
L 28.609375 0 
L 18.3125 0 
L 43.21875 64.59375 
L 8.203125 64.59375 
z
" id="DejaVuSans-37"/>
      </defs>
      <g transform="translate(22.7 282.812006)scale(0.1 -0.1)">
       <use transform="translate(0 0.684375)" xlink:href="#DejaVuSans-31"/>
       <use transform="translate(63.623047 0.684375)" xlink:href="#DejaVuSans-30"/>
       <use transform="translate(128.203125 38.965625)scale(0.7)" xlink:href="#DejaVuSans-2212"/>
       <use transform="translate(186.855469 38.965625)scale(0.7)" xlink:href="#DejaVuSans-35"/>
       <use transform="translate(231.315039 38.965625)scale(0.7)" xlink:href="#DejaVuSans-37"/>
      </g>
     </g>
    </g>
    <g id="ytick_2">
     <g id="line2d_17">
      <path clip-path="url(#pe191248377)" d="M 57.6 246.88219 
L 414.72 246.88219 
" style="fill:none;stroke:#b0b0b0;stroke-linecap:square;stroke-width:0.8;"/>
     </g>
     <g id="line2d_18">
      <g>
       <use style="stroke:#000000;stroke-width:0.8;" x="57.6" xlink:href="#m2bec79cbe4" y="246.88219"/>
      </g>
     </g>
     <g id="text_10">
      <!-- ${10^{-49}}$ -->
      <defs>
       <path d="M 37.796875 64.3125 
L 12.890625 25.390625 
L 37.796875 25.390625 
z
M 35.203125 72.90625 
L 47.609375 72.90625 
L 47.609375 25.390625 
L 58.015625 25.390625 
L 58.015625 17.1875 
L 47.609375 17.1875 
L 47.609375 0 
L 37.796875 0 
L 37.796875 17.1875 
L 4.890625 17.1875 
L 4.890625 26.703125 
z
" id="DejaVuSans-34"/>
       <path d="M 10.984375 1.515625 
L 10.984375 10.5 
Q 14.703125 8.734375 18.5 7.8125 
Q 22.3125 6.890625 25.984375 6.890625 
Q 35.75 6.890625 40.890625 13.453125 
Q 46.046875 20.015625 46.78125 33.40625 
Q 43.953125 29.203125 39.59375 26.953125 
Q 35.25 24.703125 29.984375 24.703125 
Q 19.046875 24.703125 12.671875 31.3125 
Q 6.296875 37.9375 6.296875 49.421875 
Q 6.296875 60.640625 12.9375 67.421875 
Q 19.578125 74.21875 30.609375 74.21875 
Q 43.265625 74.21875 49.921875 64.515625 
Q 56.59375 54.828125 56.59375 36.375 
Q 56.59375 19.140625 48.40625 8.859375 
Q 40.234375 -1.421875 26.421875 -1.421875 
Q 22.703125 -1.421875 18.890625 -0.6875 
Q 15.09375 0.046875 10.984375 1.515625 
M 30.609375 32.421875 
Q 37.25 32.421875 41.125 36.953125 
Q 45.015625 41.5 45.015625 49.421875 
Q 45.015625 57.28125 41.125 61.84375 
Q 37.25 66.40625 30.609375 66.40625 
Q 23.96875 66.40625 20.09375 61.84375 
Q 16.21875 57.28125 16.21875 49.421875 
Q 16.21875 41.5 20.09375 36.953125 
Q 23.96875 32.421875 30.609375 32.421875 
" id="DejaVuSans-39"/>
      </defs>
      <g transform="translate(22.7 250.681409)scale(0.1 -0.1)">
       <use transform="translate(0 0.765625)" xlink:href="#DejaVuSans-31"/>
       <use transform="translate(63.623047 0.765625)" xlink:href="#DejaVuSans-30"/>
       <use transform="translate(128.203125 39.046875)scale(0.7)" xlink:href="#DejaVuSans-2212"/>
       <use transform="translate(186.855469 39.046875)scale(0.7)" xlink:href="#DejaVuSans-34"/>
       <use transform="translate(231.391602 39.046875)scale(0.7)" xlink:href="#DejaVuSans-39"/>
      </g>
     </g>
    </g>
    <g id="ytick_3">
     <g id="line2d_19">
      <path clip-path="url(#pe191248377)" d="M 57.6 214.751593 
L 414.72 214.751593 
" style="fill:none;stroke:#b0b0b0;stroke-linecap:square;stroke-width:0.8;"/>
     </g>
     <g id="line2d_20">
      <g>
       <use style="stroke:#000000;stroke-width:0.8;" x="57.6" xlink:href="#m2bec79cbe4" y="214.751593"/>
      </g>
     </g>
     <g id="text_11">
      <!-- ${10^{-41}}$ -->
      <g transform="translate(22.7 218.550812)scale(0.1 -0.1)">
       <use transform="translate(0 0.684375)" xlink:href="#DejaVuSans-31"/>
       <use transform="translate(63.623047 0.684375)" xlink:href="#DejaVuSans-30"/>
       <use transform="translate(128.203125 38.965625)scale(0.7)" xlink:href="#DejaVuSans-2212"/>
       <use transform="translate(186.855469 38.965625)scale(0.7)" xlink:href="#DejaVuSans-34"/>
       <use transform="translate(231.391602 38.965625)scale(0.7)" xlink:href="#DejaVuSans-31"/>
      </g>
     </g>
    </g>
    <g id="ytick_4">
     <g id="line2d_21">
      <path clip-path="url(#pe191248377)" d="M 57.6 182.620996 
L 414.72 182.620996 
" style="fill:none;stroke:#b0b0b0;stroke-linecap:square;stroke-width:0.8;"/>
     </g>
     <g id="line2d_22">
      <g>
       <use style="stroke:#000000;stroke-width:0.8;" x="57.6" xlink:href="#m2bec79cbe4" y="182.620996"/>
      </g>
     </g>
     <g id="text_12">
      <!-- ${10^{-33}}$ -->
      <defs>
       <path d="M 40.578125 39.3125 
Q 47.65625 37.796875 51.625 33 
Q 55.609375 28.21875 55.609375 21.1875 
Q 55.609375 10.40625 48.1875 4.484375 
Q 40.765625 -1.421875 27.09375 -1.421875 
Q 22.515625 -1.421875 17.65625 -0.515625 
Q 12.796875 0.390625 7.625 2.203125 
L 7.625 11.71875 
Q 11.71875 9.328125 16.59375 8.109375 
Q 21.484375 6.890625 26.8125 6.890625 
Q 36.078125 6.890625 40.9375 10.546875 
Q 45.796875 14.203125 45.796875 21.1875 
Q 45.796875 27.640625 41.28125 31.265625 
Q 36.765625 34.90625 28.71875 34.90625 
L 20.21875 34.90625 
L 20.21875 43.015625 
L 29.109375 43.015625 
Q 36.375 43.015625 40.234375 45.921875 
Q 44.09375 48.828125 44.09375 54.296875 
Q 44.09375 59.90625 40.109375 62.90625 
Q 36.140625 65.921875 28.71875 65.921875 
Q 24.65625 65.921875 20.015625 65.03125 
Q 15.375 64.15625 9.8125 62.3125 
L 9.8125 71.09375 
Q 15.4375 72.65625 20.34375 73.4375 
Q 25.25 74.21875 29.59375 74.21875 
Q 40.828125 74.21875 47.359375 69.109375 
Q 53.90625 64.015625 53.90625 55.328125 
Q 53.90625 49.265625 50.4375 45.09375 
Q 46.96875 40.921875 40.578125 39.3125 
" id="DejaVuSans-33"/>
      </defs>
      <g transform="translate(22.7 186.420215)scale(0.1 -0.1)">
       <use transform="translate(0 0.765625)" xlink:href="#DejaVuSans-31"/>
       <use transform="translate(63.623047 0.765625)" xlink:href="#DejaVuSans-30"/>
       <use transform="translate(128.203125 39.046875)scale(0.7)" xlink:href="#DejaVuSans-2212"/>
       <use transform="translate(186.855469 39.046875)scale(0.7)" xlink:href="#DejaVuSans-33"/>
       <use transform="translate(231.391602 39.046875)scale(0.7)" xlink:href="#DejaVuSans-33"/>
      </g>
     </g>
    </g>
    <g id="ytick_5">
     <g id="line2d_23">
      <path clip-path="url(#pe191248377)" d="M 57.6 150.4904 
L 414.72 150.4904 
" style="fill:none;stroke:#b0b0b0;stroke-linecap:square;stroke-width:0.8;"/>
     </g>
     <g id="line2d_24">
      <g>
       <use style="stroke:#000000;stroke-width:0.8;" x="57.6" xlink:href="#m2bec79cbe4" y="150.4904"/>
      </g>
     </g>
     <g id="text_13">
      <!-- ${10^{-25}}$ -->
      <defs>
       <path d="M 19.1875 8.296875 
L 53.609375 8.296875 
L 53.609375 0 
L 7.328125 0 
L 7.328125 8.296875 
Q 12.9375 14.109375 22.625 23.890625 
Q 32.328125 33.6875 34.8125 36.53125 
Q 39.546875 41.84375 41.421875 45.53125 
Q 43.3125 49.21875 43.3125 52.78125 
Q 43.3125 58.59375 39.234375 62.25 
Q 35.15625 65.921875 28.609375 65.921875 
Q 23.96875 65.921875 18.8125 64.3125 
Q 13.671875 62.703125 7.8125 59.421875 
L 7.8125 69.390625 
Q 13.765625 71.78125 18.9375 73 
Q 24.125 74.21875 28.421875 74.21875 
Q 39.75 74.21875 46.484375 68.546875 
Q 53.21875 62.890625 53.21875 53.421875 
Q 53.21875 48.921875 51.53125 44.890625 
Q 49.859375 40.875 45.40625 35.40625 
Q 44.1875 33.984375 37.640625 27.21875 
Q 31.109375 20.453125 19.1875 8.296875 
" id="DejaVuSans-32"/>
      </defs>
      <g transform="translate(22.7 154.289618)scale(0.1 -0.1)">
       <use transform="translate(0 0.765625)" xlink:href="#DejaVuSans-31"/>
       <use transform="translate(63.623047 0.765625)" xlink:href="#DejaVuSans-30"/>
       <use transform="translate(128.203125 39.046875)scale(0.7)" xlink:href="#DejaVuSans-2212"/>
       <use transform="translate(186.855469 39.046875)scale(0.7)" xlink:href="#DejaVuSans-32"/>
       <use transform="translate(231.391602 39.046875)scale(0.7)" xlink:href="#DejaVuSans-35"/>
      </g>
     </g>
    </g>
    <g id="ytick_6">
     <g id="line2d_25">
      <path clip-path="url(#pe191248377)" d="M 57.6 118.359803 
L 414.72 118.359803 
" style="fill:none;stroke:#b0b0b0;stroke-linecap:square;stroke-width:0.8;"/>
     </g>
     <g id="line2d_26">
      <g>
       <use style="stroke:#000000;stroke-width:0.8;" x="57.6" xlink:href="#m2bec79cbe4" y="118.359803"/>
      </g>
     </g>
     <g id="text_14">
      <!-- ${10^{-17}}$ -->
      <g transform="translate(22.7 122.159022)scale(0.1 -0.1)">
       <use transform="translate(0 0.684375)" xlink:href="#DejaVuSans-31"/>
       <use transform="translate(63.623047 0.684375)" xlink:href="#DejaVuSans-30"/>
       <use transform="translate(128.203125 38.965625)scale(0.7)" xlink:href="#DejaVuSans-2212"/>
       <use transform="translate(186.855469 38.965625)scale(0.7)" xlink:href="#DejaVuSans-31"/>
       <use transform="translate(231.391602 38.965625)scale(0.7)" xlink:href="#DejaVuSans-37"/>
      </g>
     </g>
    </g>
    <g id="ytick_7">
     <g id="line2d_27">
      <path clip-path="url(#pe191248377)" d="M 57.6 86.229206 
L 414.72 86.229206 
" style="fill:none;stroke:#b0b0b0;stroke-linecap:square;stroke-width:0.8;"/>
     </g>
     <g id="line2d_28">
      <g>
       <use style="stroke:#000000;stroke-width:0.8;" x="57.6" xlink:href="#m2bec79cbe4" y="86.229206"/>
      </g>
     </g>
     <g id="text_15">
      <!-- ${10^{-9}}$ -->
      <g transform="translate(27.1 90.028425)scale(0.1 -0.1)">
       <use transform="translate(0 0.765625)" xlink:href="#DejaVuSans-31"/>
       <use transform="translate(63.623047 0.765625)" xlink:href="#DejaVuSans-30"/>
       <use transform="translate(128.203125 39.046875)scale(0.7)" xlink:href="#DejaVuSans-2212"/>
       <use transform="translate(186.855469 39.046875)scale(0.7)" xlink:href="#DejaVuSans-39"/>
      </g>
     </g>
    </g>
    <g id="ytick_8">
     <g id="line2d_29">
      <path clip-path="url(#pe191248377)" d="M 57.6 54.098609 
L 414.72 54.098609 
" style="fill:none;stroke:#b0b0b0;stroke-linecap:square;stroke-width:0.8;"/>
     </g>
     <g id="line2d_30">
      <g>
       <use style="stroke:#000000;stroke-width:0.8;" x="57.6" xlink:href="#m2bec79cbe4" y="54.098609"/>
      </g>
     </g>
     <g id="text_16">
      <!-- ${10^{-1}}$ -->
      <g transform="translate(27.1 57.897828)scale(0.1 -0.1)">
       <use transform="translate(0 0.684375)" xlink:href="#DejaVuSans-31"/>
       <use transform="translate(63.623047 0.684375)" xlink:href="#DejaVuSans-30"/>
       <use transform="translate(128.203125 38.965625)scale(0.7)" xlink:href="#DejaVuSans-2212"/>
       <use transform="translate(186.855469 38.965625)scale(0.7)" xlink:href="#DejaVuSans-31"/>
      </g>
     </g>
    </g>
    <g id="text_17">
     <!-- $\omega_i$ -->
     <defs>
      <path d="M 21.390625 -1.421875 
Q 1.125 -1.421875 6.78125 27.59375 
Q 8.984375 39.0625 19.625 54.6875 
L 29.296875 54.6875 
Q 19.234375 39.0625 17 27.34375 
Q 12.796875 6.203125 23.734375 6.203125 
Q 33.84375 6.203125 38.71875 32.46875 
L 47.015625 32.46875 
Q 41.703125 6.0625 51.8125 6.203125 
Q 62.703125 6.296875 66.796875 27.34375 
Q 69.046875 39.0625 65.140625 54.6875 
L 74.8125 54.6875 
Q 79.296875 39.0625 77.09375 27.59375 
Q 71.53125 -1.46875 51.21875 -1.421875 
Q 37.9375 -1.375 39.109375 13.1875 
Q 34.28125 -1.421875 21.390625 -1.421875 
" id="DejaVuSans-Oblique-3c9"/>
     </defs>
     <g transform="translate(16.620312 179.828)rotate(-90)scale(0.1 -0.1)">
      <use transform="translate(0 0.3125)" xlink:href="#DejaVuSans-Oblique-3c9"/>
      <use transform="translate(83.740234 -16.09375)scale(0.7)" xlink:href="#DejaVuSans-Oblique-69"/>
     </g>
    </g>
   </g>
   <g id="line2d_31">
    <defs>
     <path d="M 0 3 
C 0.795609 3 1.55874 2.683901 2.12132 2.12132 
C 2.683901 1.55874 3 0.795609 3 0 
C 3 -0.795609 2.683901 -1.55874 2.12132 -2.12132 
C 1.55874 -2.683901 0.795609 -3 0 -3 
C -0.795609 -3 -1.55874 -2.683901 -2.12132 -2.12132 
C -2.683901 -1.55874 -3 -0.795609 -3 0 
C -3 0.795609 -2.683901 1.55874 -2.12132 2.12132 
C -1.55874 2.683901 -0.795609 3 0 3 
z
" id="m15cfbd82bd" style="stroke:#1f77b4;"/>
    </defs>
    <g clip-path="url(#pe191248377)">
     <use style="fill:#1f77b4;stroke:#1f77b4;" x="346.877263" xlink:href="#m15cfbd82bd" y="158.376132"/>
     <use style="fill:#1f77b4;stroke:#1f77b4;" x="382.491433" xlink:href="#m15cfbd82bd" y="236.464753"/>
     <use style="fill:#1f77b4;stroke:#1f77b4;" x="395.997887" xlink:href="#m15cfbd82bd" y="271.568051"/>
     <use style="fill:#1f77b4;stroke:#1f77b4;" x="356.085864" xlink:href="#m15cfbd82bd" y="176.517906"/>
     <use style="fill:#1f77b4;stroke:#1f77b4;" x="120.903481" xlink:href="#m15cfbd82bd" y="167.139107"/>
     <use style="fill:#1f77b4;stroke:#1f77b4;" x="67.677202" xlink:href="#m15cfbd82bd" y="295.488"/>
     <use style="fill:#1f77b4;stroke:#1f77b4;" x="83.46495" xlink:href="#m15cfbd82bd" y="252.641118"/>
     <use style="fill:#1f77b4;stroke:#1f77b4;" x="376.631184" xlink:href="#m15cfbd82bd" y="222.154804"/>
     <use style="fill:#1f77b4;stroke:#1f77b4;" x="146.684792" xlink:href="#m15cfbd82bd" y="122.028481"/>
     <use style="fill:#1f77b4;stroke:#1f77b4;" x="306.082293" xlink:href="#m15cfbd82bd" y="95.385505"/>
     <use style="fill:#1f77b4;stroke:#1f77b4;" x="95.688816" xlink:href="#m15cfbd82bd" y="222.154804"/>
     <use style="fill:#1f77b4;stroke:#1f77b4;" x="134.196303" xlink:href="#m15cfbd82bd" y="142.466443"/>
     <use style="fill:#1f77b4;stroke:#1f77b4;" x="404.642798" xlink:href="#m15cfbd82bd" y="295.488"/>
     <use style="fill:#1f77b4;stroke:#1f77b4;" x="76.322113" xlink:href="#m15cfbd82bd" y="271.568051"/>
     <use style="fill:#1f77b4;stroke:#1f77b4;" x="138.435492" xlink:href="#m15cfbd82bd" y="135.230585"/>
     <use style="fill:#1f77b4;stroke:#1f77b4;" x="162.434639" xlink:href="#m15cfbd82bd" y="100.053879"/>
     <use style="fill:#1f77b4;stroke:#1f77b4;" x="125.442737" xlink:href="#m15cfbd82bd" y="158.376132"/>
     <use style="fill:#1f77b4;stroke:#1f77b4;" x="360.907284" xlink:href="#m15cfbd82bd" y="186.589471"/>
     <use style="fill:#1f77b4;stroke:#1f77b4;" x="220.950324" xlink:href="#m15cfbd82bd" y="56.145154"/>
     <use style="fill:#1f77b4;stroke:#1f77b4;" x="177.33389" xlink:href="#m15cfbd82bd" y="83.192977"/>
     <use style="fill:#1f77b4;stroke:#1f77b4;" x="365.909662" xlink:href="#m15cfbd82bd" y="197.453878"/>
     <use style="fill:#1f77b4;stroke:#1f77b4;" x="271.032122" xlink:href="#m15cfbd82bd" y="64.041077"/>
     <use style="fill:#1f77b4;stroke:#1f77b4;" x="371.132294" xlink:href="#m15cfbd82bd" y="209.245801"/>
     <use style="fill:#1f77b4;stroke:#1f77b4;" x="251.369676" xlink:href="#m15cfbd82bd" y="56.145154"/>
     <use style="fill:#1f77b4;stroke:#1f77b4;" x="116.234136" xlink:href="#m15cfbd82bd" y="176.517906"/>
     <use style="fill:#1f77b4;stroke:#1f77b4;" x="201.287878" xlink:href="#m15cfbd82bd" y="64.041077"/>
     <use style="fill:#1f77b4;stroke:#1f77b4;" x="89.828567" xlink:href="#m15cfbd82bd" y="236.464753"/>
     <use style="fill:#1f77b4;stroke:#1f77b4;" x="351.416519" xlink:href="#m15cfbd82bd" y="167.139107"/>
     <use style="fill:#1f77b4;stroke:#1f77b4;" x="338.123697" xlink:href="#m15cfbd82bd" y="142.466443"/>
     <use style="fill:#1f77b4;stroke:#1f77b4;" x="204.668758" xlink:href="#m15cfbd82bd" y="62.100663"/>
     <use style="fill:#1f77b4;stroke:#1f77b4;" x="106.410338" xlink:href="#m15cfbd82bd" y="197.453878"/>
     <use style="fill:#1f77b4;stroke:#1f77b4;" x="187.879661" xlink:href="#m15cfbd82bd" y="73.593683"/>
     <use style="fill:#1f77b4;stroke:#1f77b4;" x="111.412716" xlink:href="#m15cfbd82bd" y="186.589471"/>
     <use style="fill:#1f77b4;stroke:#1f77b4;" x="309.885361" xlink:href="#m15cfbd82bd" y="100.053879"/>
     <use style="fill:#1f77b4;stroke:#1f77b4;" x="333.884508" xlink:href="#m15cfbd82bd" y="135.230585"/>
     <use style="fill:#1f77b4;stroke:#1f77b4;" x="302.33025" xlink:href="#m15cfbd82bd" y="91.02401"/>
     <use style="fill:#1f77b4;stroke:#1f77b4;" x="101.187706" xlink:href="#m15cfbd82bd" y="209.245801"/>
     <use style="fill:#1f77b4;stroke:#1f77b4;" x="260.844004" xlink:href="#m15cfbd82bd" y="58.813416"/>
     <use style="fill:#1f77b4;stroke:#1f77b4;" x="313.739864" xlink:href="#m15cfbd82bd" y="105.039005"/>
     <use style="fill:#1f77b4;stroke:#1f77b4;" x="208.070361" xlink:href="#m15cfbd82bd" y="60.352984"/>
     <use style="fill:#1f77b4;stroke:#1f77b4;" x="169.98975" xlink:href="#m15cfbd82bd" y="91.02401"/>
     <use style="fill:#1f77b4;stroke:#1f77b4;" x="342.4509" xlink:href="#m15cfbd82bd" y="150.168237"/>
     <use style="fill:#1f77b4;stroke:#1f77b4;" x="211.475996" xlink:href="#m15cfbd82bd" y="58.813416"/>
     <use style="fill:#1f77b4;stroke:#1f77b4;" x="287.885995" xlink:href="#m15cfbd82bd" y="76.517621"/>
     <use style="fill:#1f77b4;stroke:#1f77b4;" x="173.689544" xlink:href="#m15cfbd82bd" y="86.961719"/>
     <use style="fill:#1f77b4;stroke:#1f77b4;" x="197.9348" xlink:href="#m15cfbd82bd" y="66.160035"/>
     <use style="fill:#1f77b4;stroke:#1f77b4;" x="329.724192" xlink:href="#m15cfbd82bd" y="128.427279"/>
     <use style="fill:#1f77b4;stroke:#1f77b4;" x="218.118704" xlink:href="#m15cfbd82bd" y="56.517089"/>
     <use style="fill:#1f77b4;stroke:#1f77b4;" x="246.237202" xlink:href="#m15cfbd82bd" y="54.590585"/>
     <use style="fill:#1f77b4;stroke:#1f77b4;" x="274.3852" xlink:href="#m15cfbd82bd" y="66.160035"/>
     <use style="fill:#1f77b4;stroke:#1f77b4;" x="388.85505" xlink:href="#m15cfbd82bd" y="252.641118"/>
     <use style="fill:#1f77b4;stroke:#1f77b4;" x="158.580136" xlink:href="#m15cfbd82bd" y="105.039005"/>
     <use style="fill:#1f77b4;stroke:#1f77b4;" x="294.98611" xlink:href="#m15cfbd82bd" y="83.192977"/>
     <use style="fill:#1f77b4;stroke:#1f77b4;" x="267.651242" xlink:href="#m15cfbd82bd" y="62.100663"/>
     <use style="fill:#1f77b4;stroke:#1f77b4;" x="325.635208" xlink:href="#m15cfbd82bd" y="122.028481"/>
     <use style="fill:#1f77b4;stroke:#1f77b4;" x="281.058989" xlink:href="#m15cfbd82bd" y="70.916404"/>
     <use style="fill:#1f77b4;stroke:#1f77b4;" x="226.082798" xlink:href="#m15cfbd82bd" y="54.590585"/>
     <use style="fill:#1f77b4;stroke:#1f77b4;" x="277.718619" xlink:href="#m15cfbd82bd" y="68.448838"/>
     <use style="fill:#1f77b4;stroke:#1f77b4;" x="154.672443" xlink:href="#m15cfbd82bd" y="110.35302"/>
     <use style="fill:#1f77b4;stroke:#1f77b4;" x="249.076151" xlink:href="#m15cfbd82bd" y="55.585852"/>
     <use style="fill:#1f77b4;stroke:#1f77b4;" x="317.647557" xlink:href="#m15cfbd82bd" y="110.35302"/>
     <use style="fill:#1f77b4;stroke:#1f77b4;" x="184.434005" xlink:href="#m15cfbd82bd" y="76.517621"/>
     <use style="fill:#1f77b4;stroke:#1f77b4;" x="194.601381" xlink:href="#m15cfbd82bd" y="68.448838"/>
     <use style="fill:#1f77b4;stroke:#1f77b4;" x="321.611347" xlink:href="#m15cfbd82bd" y="116.010456"/>
     <use style="fill:#1f77b4;stroke:#1f77b4;" x="264.249639" xlink:href="#m15cfbd82bd" y="60.352984"/>
     <use style="fill:#1f77b4;stroke:#1f77b4;" x="214.854519" xlink:href="#m15cfbd82bd" y="57.506814"/>
     <use style="fill:#1f77b4;stroke:#1f77b4;" x="257.465481" xlink:href="#m15cfbd82bd" y="57.506814"/>
     <use style="fill:#1f77b4;stroke:#1f77b4;" x="223.243849" xlink:href="#m15cfbd82bd" y="55.585852"/>
     <use style="fill:#1f77b4;stroke:#1f77b4;" x="236.16" xlink:href="#m15cfbd82bd" y="53.568"/>
     <use style="fill:#1f77b4;stroke:#1f77b4;" x="298.630456" xlink:href="#m15cfbd82bd" y="86.961719"/>
     <use style="fill:#1f77b4;stroke:#1f77b4;" x="242.967095" xlink:href="#m15cfbd82bd" y="54.002826"/>
     <use style="fill:#1f77b4;stroke:#1f77b4;" x="150.708653" xlink:href="#m15cfbd82bd" y="116.010456"/>
     <use style="fill:#1f77b4;stroke:#1f77b4;" x="229.352905" xlink:href="#m15cfbd82bd" y="54.002826"/>
     <use style="fill:#1f77b4;stroke:#1f77b4;" x="232.740249" xlink:href="#m15cfbd82bd" y="53.67529"/>
     <use style="fill:#1f77b4;stroke:#1f77b4;" x="129.8691" xlink:href="#m15cfbd82bd" y="150.168237"/>
     <use style="fill:#1f77b4;stroke:#1f77b4;" x="254.201296" xlink:href="#m15cfbd82bd" y="56.517089"/>
     <use style="fill:#1f77b4;stroke:#1f77b4;" x="284.440339" xlink:href="#m15cfbd82bd" y="73.593683"/>
     <use style="fill:#1f77b4;stroke:#1f77b4;" x="191.261011" xlink:href="#m15cfbd82bd" y="70.916404"/>
     <use style="fill:#1f77b4;stroke:#1f77b4;" x="166.237707" xlink:href="#m15cfbd82bd" y="95.385505"/>
     <use style="fill:#1f77b4;stroke:#1f77b4;" x="180.917506" xlink:href="#m15cfbd82bd" y="79.713422"/>
     <use style="fill:#1f77b4;stroke:#1f77b4;" x="291.402494" xlink:href="#m15cfbd82bd" y="79.713422"/>
     <use style="fill:#1f77b4;stroke:#1f77b4;" x="239.579751" xlink:href="#m15cfbd82bd" y="53.67529"/>
     <use style="fill:#1f77b4;stroke:#1f77b4;" x="142.595808" xlink:href="#m15cfbd82bd" y="128.427279"/>
    </g>
   </g>
   <g id="patch_3">
    <path d="M 57.6 307.584 
L 57.6 41.472 
" style="fill:none;stroke:#000000;stroke-linecap:square;stroke-linejoin:miter;stroke-width:0.8;"/>
   </g>
   <g id="patch_4">
    <path d="M 414.72 307.584 
L 414.72 41.472 
" style="fill:none;stroke:#000000;stroke-linecap:square;stroke-linejoin:miter;stroke-width:0.8;"/>
   </g>
   <g id="patch_5">
    <path d="M 57.6 307.584 
L 414.72 307.584 
" style="fill:none;stroke:#000000;stroke-linecap:square;stroke-linejoin:miter;stroke-width:0.8;"/>
   </g>
   <g id="patch_6">
    <path d="M 57.6 41.472 
L 414.72 41.472 
" style="fill:none;stroke:#000000;stroke-linecap:square;stroke-linejoin:miter;stroke-width:0.8;"/>
   </g>
  </g>
 </g>
 <defs>
  <clipPath id="pe191248377">
   <rect height="266.112" width="357.12" x="57.6" y="41.472"/>
  </clipPath>
 </defs>
</svg>
