<?xml version="1.0" encoding="utf-8" standalone="no"?>
<!DOCTYPE svg PUBLIC "-//W3C//DTD SVG 1.1//EN"
  "http://www.w3.org/Graphics/SVG/1.1/DTD/svg11.dtd">
<!-- Created with matplotlib (http://matplotlib.org/) -->
<svg height="345pt" version="1.1" viewBox="0 0 460 345" width="460pt" xmlns="http://www.w3.org/2000/svg" xmlns:xlink="http://www.w3.org/1999/xlink">
 <defs>
  <style type="text/css">
*{stroke-linecap:butt;stroke-linejoin:round;}
  </style>
 </defs>
 <g id="figure_1">
  <g id="patch_1">
   <path d="M 0 345.6 
L 460.8 345.6 
L 460.8 0 
L 0 0 
z
" style="fill:#ffffff;"/>
  </g>
  <g id="axes_1">
   <g id="patch_2">
    <path d="M 57.6 307.584 
L 414.72 307.584 
L 414.72 41.472 
L 57.6 41.472 
z
" style="fill:#ffffff;"/>
   </g>
   <g id="matplotlib.axis_1">
    <g id="xtick_1">
     <g id="line2d_1">
      <path clip-path="url(#p054246d5a7)" d="M 57.593956 307.584 
L 57.593956 41.472 
" style="fill:none;stroke:#b0b0b0;stroke-linecap:square;stroke-width:0.8;"/>
     </g>
     <g id="line2d_2">
      <defs>
       <path d="M 0 0 
L 0 3.5 
" id="mcf0d43a868" style="stroke:#000000;stroke-width:0.8;"/>
      </defs>
      <g>
       <use style="stroke:#000000;stroke-width:0.8;" x="57.593956" xlink:href="#mcf0d43a868" y="307.584"/>
      </g>
     </g>
     <g id="text_1">
      <!-- −2.0 -->
      <defs>
       <path d="M 10.59375 35.5 
L 73.1875 35.5 
L 73.1875 27.203125 
L 10.59375 27.203125 
z
" id="DejaVuSans-2212"/>
       <path d="M 19.1875 8.296875 
L 53.609375 8.296875 
L 53.609375 0 
L 7.328125 0 
L 7.328125 8.296875 
Q 12.9375 14.109375 22.625 23.890625 
Q 32.328125 33.6875 34.8125 36.53125 
Q 39.546875 41.84375 41.421875 45.53125 
Q 43.3125 49.21875 43.3125 52.78125 
Q 43.3125 58.59375 39.234375 62.25 
Q 35.15625 65.921875 28.609375 65.921875 
Q 23.96875 65.921875 18.8125 64.3125 
Q 13.671875 62.703125 7.8125 59.421875 
L 7.8125 69.390625 
Q 13.765625 71.78125 18.9375 73 
Q 24.125 74.21875 28.421875 74.21875 
Q 39.75 74.21875 46.484375 68.546875 
Q 53.21875 62.890625 53.21875 53.421875 
Q 53.21875 48.921875 51.53125 44.890625 
Q 49.859375 40.875 45.40625 35.40625 
Q 44.1875 33.984375 37.640625 27.21875 
Q 31.109375 20.453125 19.1875 8.296875 
" id="DejaVuSans-32"/>
       <path d="M 10.6875 12.40625 
L 21 12.40625 
L 21 0 
L 10.6875 0 
z
" id="DejaVuSans-2e"/>
       <path d="M 31.78125 66.40625 
Q 24.171875 66.40625 20.328125 58.90625 
Q 16.5 51.421875 16.5 36.375 
Q 16.5 21.390625 20.328125 13.890625 
Q 24.171875 6.390625 31.78125 6.390625 
Q 39.453125 6.390625 43.28125 13.890625 
Q 47.125 21.390625 47.125 36.375 
Q 47.125 51.421875 43.28125 58.90625 
Q 39.453125 66.40625 31.78125 66.40625 
M 31.78125 74.21875 
Q 44.046875 74.21875 50.515625 64.515625 
Q 56.984375 54.828125 56.984375 36.375 
Q 56.984375 17.96875 50.515625 8.265625 
Q 44.046875 -1.421875 31.78125 -1.421875 
Q 19.53125 -1.421875 13.0625 8.265625 
Q 6.59375 17.96875 6.59375 36.375 
Q 6.59375 54.828125 13.0625 64.515625 
Q 19.53125 74.21875 31.78125 74.21875 
" id="DejaVuSans-30"/>
      </defs>
      <g transform="translate(45.45255 322.182437)scale(0.1 -0.1)">
       <use xlink:href="#DejaVuSans-2212"/>
       <use x="83.789062" xlink:href="#DejaVuSans-32"/>
       <use x="147.412109" xlink:href="#DejaVuSans-2e"/>
       <use x="179.199219" xlink:href="#DejaVuSans-30"/>
      </g>
     </g>
    </g>
    <g id="xtick_2">
     <g id="line2d_3">
      <path clip-path="url(#p054246d5a7)" d="M 102.235467 307.584 
L 102.235467 41.472 
" style="fill:none;stroke:#b0b0b0;stroke-linecap:square;stroke-width:0.8;"/>
     </g>
     <g id="line2d_4">
      <g>
       <use style="stroke:#000000;stroke-width:0.8;" x="102.235467" xlink:href="#mcf0d43a868" y="307.584"/>
      </g>
     </g>
     <g id="text_2">
      <!-- −1.5 -->
      <defs>
       <path d="M 12.40625 8.296875 
L 28.515625 8.296875 
L 28.515625 63.921875 
L 10.984375 60.40625 
L 10.984375 69.390625 
L 28.421875 72.90625 
L 38.28125 72.90625 
L 38.28125 8.296875 
L 54.390625 8.296875 
L 54.390625 0 
L 12.40625 0 
z
" id="DejaVuSans-31"/>
       <path d="M 10.796875 72.90625 
L 49.515625 72.90625 
L 49.515625 64.59375 
L 19.828125 64.59375 
L 19.828125 46.734375 
Q 21.96875 47.46875 24.109375 47.828125 
Q 26.265625 48.1875 28.421875 48.1875 
Q 40.625 48.1875 47.75 41.5 
Q 54.890625 34.8125 54.890625 23.390625 
Q 54.890625 11.625 47.5625 5.09375 
Q 40.234375 -1.421875 26.90625 -1.421875 
Q 22.3125 -1.421875 17.546875 -0.640625 
Q 12.796875 0.140625 7.71875 1.703125 
L 7.71875 11.625 
Q 12.109375 9.234375 16.796875 8.0625 
Q 21.484375 6.890625 26.703125 6.890625 
Q 35.15625 6.890625 40.078125 11.328125 
Q 45.015625 15.765625 45.015625 23.390625 
Q 45.015625 31 40.078125 35.4375 
Q 35.15625 39.890625 26.703125 39.890625 
Q 22.75 39.890625 18.8125 39.015625 
Q 14.890625 38.140625 10.796875 36.28125 
z
" id="DejaVuSans-35"/>
      </defs>
      <g transform="translate(90.094061 322.182437)scale(0.1 -0.1)">
       <use xlink:href="#DejaVuSans-2212"/>
       <use x="83.789062" xlink:href="#DejaVuSans-31"/>
       <use x="147.412109" xlink:href="#DejaVuSans-2e"/>
       <use x="179.199219" xlink:href="#DejaVuSans-35"/>
      </g>
     </g>
    </g>
    <g id="xtick_3">
     <g id="line2d_5">
      <path clip-path="url(#p054246d5a7)" d="M 146.876978 307.584 
L 146.876978 41.472 
" style="fill:none;stroke:#b0b0b0;stroke-linecap:square;stroke-width:0.8;"/>
     </g>
     <g id="line2d_6">
      <g>
       <use style="stroke:#000000;stroke-width:0.8;" x="146.876978" xlink:href="#mcf0d43a868" y="307.584"/>
      </g>
     </g>
     <g id="text_3">
      <!-- −1.0 -->
      <g transform="translate(134.735572 322.182437)scale(0.1 -0.1)">
       <use xlink:href="#DejaVuSans-2212"/>
       <use x="83.789062" xlink:href="#DejaVuSans-31"/>
       <use x="147.412109" xlink:href="#DejaVuSans-2e"/>
       <use x="179.199219" xlink:href="#DejaVuSans-30"/>
      </g>
     </g>
    </g>
    <g id="xtick_4">
     <g id="line2d_7">
      <path clip-path="url(#p054246d5a7)" d="M 191.518489 307.584 
L 191.518489 41.472 
" style="fill:none;stroke:#b0b0b0;stroke-linecap:square;stroke-width:0.8;"/>
     </g>
     <g id="line2d_8">
      <g>
       <use style="stroke:#000000;stroke-width:0.8;" x="191.518489" xlink:href="#mcf0d43a868" y="307.584"/>
      </g>
     </g>
     <g id="text_4">
      <!-- −0.5 -->
      <g transform="translate(179.377083 322.182437)scale(0.1 -0.1)">
       <use xlink:href="#DejaVuSans-2212"/>
       <use x="83.789062" xlink:href="#DejaVuSans-30"/>
       <use x="147.412109" xlink:href="#DejaVuSans-2e"/>
       <use x="179.199219" xlink:href="#DejaVuSans-35"/>
      </g>
     </g>
    </g>
    <g id="xtick_5">
     <g id="line2d_9">
      <path clip-path="url(#p054246d5a7)" d="M 236.16 307.584 
L 236.16 41.472 
" style="fill:none;stroke:#b0b0b0;stroke-linecap:square;stroke-width:0.8;"/>
     </g>
     <g id="line2d_10">
      <g>
       <use style="stroke:#000000;stroke-width:0.8;" x="236.16" xlink:href="#mcf0d43a868" y="307.584"/>
      </g>
     </g>
     <g id="text_5">
      <!-- 0.0 -->
      <g transform="translate(228.208437 322.182437)scale(0.1 -0.1)">
       <use xlink:href="#DejaVuSans-30"/>
       <use x="63.623047" xlink:href="#DejaVuSans-2e"/>
       <use x="95.410156" xlink:href="#DejaVuSans-30"/>
      </g>
     </g>
    </g>
    <g id="xtick_6">
     <g id="line2d_11">
      <path clip-path="url(#p054246d5a7)" d="M 280.801511 307.584 
L 280.801511 41.472 
" style="fill:none;stroke:#b0b0b0;stroke-linecap:square;stroke-width:0.8;"/>
     </g>
     <g id="line2d_12">
      <g>
       <use style="stroke:#000000;stroke-width:0.8;" x="280.801511" xlink:href="#mcf0d43a868" y="307.584"/>
      </g>
     </g>
     <g id="text_6">
      <!-- 0.5 -->
      <g transform="translate(272.849948 322.182437)scale(0.1 -0.1)">
       <use xlink:href="#DejaVuSans-30"/>
       <use x="63.623047" xlink:href="#DejaVuSans-2e"/>
       <use x="95.410156" xlink:href="#DejaVuSans-35"/>
      </g>
     </g>
    </g>
    <g id="xtick_7">
     <g id="line2d_13">
      <path clip-path="url(#p054246d5a7)" d="M 325.443022 307.584 
L 325.443022 41.472 
" style="fill:none;stroke:#b0b0b0;stroke-linecap:square;stroke-width:0.8;"/>
     </g>
     <g id="line2d_14">
      <g>
       <use style="stroke:#000000;stroke-width:0.8;" x="325.443022" xlink:href="#mcf0d43a868" y="307.584"/>
      </g>
     </g>
     <g id="text_7">
      <!-- 1.0 -->
      <g transform="translate(317.491459 322.182437)scale(0.1 -0.1)">
       <use xlink:href="#DejaVuSans-31"/>
       <use x="63.623047" xlink:href="#DejaVuSans-2e"/>
       <use x="95.410156" xlink:href="#DejaVuSans-30"/>
      </g>
     </g>
    </g>
    <g id="xtick_8">
     <g id="line2d_15">
      <path clip-path="url(#p054246d5a7)" d="M 370.084533 307.584 
L 370.084533 41.472 
" style="fill:none;stroke:#b0b0b0;stroke-linecap:square;stroke-width:0.8;"/>
     </g>
     <g id="line2d_16">
      <g>
       <use style="stroke:#000000;stroke-width:0.8;" x="370.084533" xlink:href="#mcf0d43a868" y="307.584"/>
      </g>
     </g>
     <g id="text_8">
      <!-- 1.5 -->
      <g transform="translate(362.13297 322.182437)scale(0.1 -0.1)">
       <use xlink:href="#DejaVuSans-31"/>
       <use x="63.623047" xlink:href="#DejaVuSans-2e"/>
       <use x="95.410156" xlink:href="#DejaVuSans-35"/>
      </g>
     </g>
    </g>
    <g id="xtick_9">
     <g id="line2d_17">
      <path clip-path="url(#p054246d5a7)" d="M 414.726044 307.584 
L 414.726044 41.472 
" style="fill:none;stroke:#b0b0b0;stroke-linecap:square;stroke-width:0.8;"/>
     </g>
     <g id="line2d_18">
      <g>
       <use style="stroke:#000000;stroke-width:0.8;" x="414.726044" xlink:href="#mcf0d43a868" y="307.584"/>
      </g>
     </g>
     <g id="text_9">
      <!-- 2.0 -->
      <g transform="translate(406.774481 322.182437)scale(0.1 -0.1)">
       <use xlink:href="#DejaVuSans-32"/>
       <use x="63.623047" xlink:href="#DejaVuSans-2e"/>
       <use x="95.410156" xlink:href="#DejaVuSans-30"/>
      </g>
     </g>
    </g>
    <g id="text_10">
     <!-- $\gamma_i$ -->
     <defs>
      <path d="M 23.296875 46.09375 
L 28.71875 12.3125 
L 54 54.6875 
L 63.53125 54.6875 
L 30.8125 0 
L 26.765625 -20.796875 
L 17.78125 -20.796875 
L 21.828125 0 
L 15.4375 40.828125 
Q 14.453125 46.96875 9.8125 46.96875 
L 7.421875 46.96875 
L 8.890625 54.6875 
L 12.3125 54.6875 
Q 21.921875 54.6875 23.296875 46.09375 
" id="DejaVuSans-Oblique-3b3"/>
      <path d="M 18.3125 75.984375 
L 27.296875 75.984375 
L 25.09375 64.59375 
L 16.109375 64.59375 
z
M 14.203125 54.6875 
L 23.1875 54.6875 
L 12.5 0 
L 3.515625 0 
z
" id="DejaVuSans-Oblique-69"/>
     </defs>
     <g transform="translate(232.06 335.84025)scale(0.1 -0.1)">
      <use transform="translate(0 0.3125)" xlink:href="#DejaVuSans-Oblique-3b3"/>
      <use transform="translate(59.179688 -16.09375)scale(0.7)" xlink:href="#DejaVuSans-Oblique-69"/>
     </g>
    </g>
   </g>
   <g id="matplotlib.axis_2">
    <g id="ytick_1">
     <g id="line2d_19">
      <path clip-path="url(#p054246d5a7)" d="M 57.6 295.488 
L 414.72 295.488 
" style="fill:none;stroke:#b0b0b0;stroke-linecap:square;stroke-width:0.8;"/>
     </g>
     <g id="line2d_20">
      <defs>
       <path d="M 0 0 
L -3.5 0 
" id="m1bb116ea53" style="stroke:#000000;stroke-width:0.8;"/>
      </defs>
      <g>
       <use style="stroke:#000000;stroke-width:0.8;" x="57.6" xlink:href="#m1bb116ea53" y="295.488"/>
      </g>
     </g>
     <g id="text_11">
      <!-- ${10^{-3}}$ -->
      <defs>
       <path d="M 40.578125 39.3125 
Q 47.65625 37.796875 51.625 33 
Q 55.609375 28.21875 55.609375 21.1875 
Q 55.609375 10.40625 48.1875 4.484375 
Q 40.765625 -1.421875 27.09375 -1.421875 
Q 22.515625 -1.421875 17.65625 -0.515625 
Q 12.796875 0.390625 7.625 2.203125 
L 7.625 11.71875 
Q 11.71875 9.328125 16.59375 8.109375 
Q 21.484375 6.890625 26.8125 6.890625 
Q 36.078125 6.890625 40.9375 10.546875 
Q 45.796875 14.203125 45.796875 21.1875 
Q 45.796875 27.640625 41.28125 31.265625 
Q 36.765625 34.90625 28.71875 34.90625 
L 20.21875 34.90625 
L 20.21875 43.015625 
L 29.109375 43.015625 
Q 36.375 43.015625 40.234375 45.921875 
Q 44.09375 48.828125 44.09375 54.296875 
Q 44.09375 59.90625 40.109375 62.90625 
Q 36.140625 65.921875 28.71875 65.921875 
Q 24.65625 65.921875 20.015625 65.03125 
Q 15.375 64.15625 9.8125 62.3125 
L 9.8125 71.09375 
Q 15.4375 72.65625 20.34375 73.4375 
Q 25.25 74.21875 29.59375 74.21875 
Q 40.828125 74.21875 47.359375 69.109375 
Q 53.90625 64.015625 53.90625 55.328125 
Q 53.90625 49.265625 50.4375 45.09375 
Q 46.96875 40.921875 40.578125 39.3125 
" id="DejaVuSans-33"/>
      </defs>
      <g transform="translate(27.1 299.287219)scale(0.1 -0.1)">
       <use transform="translate(0 0.765625)" xlink:href="#DejaVuSans-31"/>
       <use transform="translate(63.623047 0.765625)" xlink:href="#DejaVuSans-30"/>
       <use transform="translate(128.203125 39.046875)scale(0.7)" xlink:href="#DejaVuSans-2212"/>
       <use transform="translate(186.855469 39.046875)scale(0.7)" xlink:href="#DejaVuSans-33"/>
      </g>
     </g>
    </g>
    <g id="ytick_2">
     <g id="line2d_21">
      <path clip-path="url(#p054246d5a7)" d="M 57.6 53.568 
L 414.72 53.568 
" style="fill:none;stroke:#b0b0b0;stroke-linecap:square;stroke-width:0.8;"/>
     </g>
     <g id="line2d_22">
      <g>
       <use style="stroke:#000000;stroke-width:0.8;" x="57.6" xlink:href="#m1bb116ea53" y="53.568"/>
      </g>
     </g>
     <g id="text_12">
      <!-- ${10^{-2}}$ -->
      <g transform="translate(27.1 57.367219)scale(0.1 -0.1)">
       <use transform="translate(0 0.765625)" xlink:href="#DejaVuSans-31"/>
       <use transform="translate(63.623047 0.765625)" xlink:href="#DejaVuSans-30"/>
       <use transform="translate(128.203125 39.046875)scale(0.7)" xlink:href="#DejaVuSans-2212"/>
       <use transform="translate(186.855469 39.046875)scale(0.7)" xlink:href="#DejaVuSans-32"/>
      </g>
     </g>
    </g>
    <g id="ytick_3">
     <g id="line2d_23">
      <defs>
       <path d="M 0 0 
L -2 0 
" id="mb40959d886" style="stroke:#000000;stroke-width:0.6;"/>
      </defs>
      <g>
       <use style="stroke:#000000;stroke-width:0.6;" x="57.6" xlink:href="#mb40959d886" y="306.557652"/>
      </g>
     </g>
    </g>
    <g id="ytick_4">
     <g id="line2d_24">
      <g>
       <use style="stroke:#000000;stroke-width:0.6;" x="57.6" xlink:href="#mb40959d886" y="222.662823"/>
      </g>
     </g>
    </g>
    <g id="ytick_5">
     <g id="line2d_25">
      <g>
       <use style="stroke:#000000;stroke-width:0.6;" x="57.6" xlink:href="#mb40959d886" y="180.062826"/>
      </g>
     </g>
    </g>
    <g id="ytick_6">
     <g id="line2d_26">
      <g>
       <use style="stroke:#000000;stroke-width:0.6;" x="57.6" xlink:href="#mb40959d886" y="149.837647"/>
      </g>
     </g>
    </g>
    <g id="ytick_7">
     <g id="line2d_27">
      <g>
       <use style="stroke:#000000;stroke-width:0.6;" x="57.6" xlink:href="#mb40959d886" y="126.393177"/>
      </g>
     </g>
    </g>
    <g id="ytick_8">
     <g id="line2d_28">
      <g>
       <use style="stroke:#000000;stroke-width:0.6;" x="57.6" xlink:href="#mb40959d886" y="107.23765"/>
      </g>
     </g>
    </g>
    <g id="ytick_9">
     <g id="line2d_29">
      <g>
       <use style="stroke:#000000;stroke-width:0.6;" x="57.6" xlink:href="#mb40959d886" y="91.041882"/>
      </g>
     </g>
    </g>
    <g id="ytick_10">
     <g id="line2d_30">
      <g>
       <use style="stroke:#000000;stroke-width:0.6;" x="57.6" xlink:href="#mb40959d886" y="77.01247"/>
      </g>
     </g>
    </g>
    <g id="ytick_11">
     <g id="line2d_31">
      <g>
       <use style="stroke:#000000;stroke-width:0.6;" x="57.6" xlink:href="#mb40959d886" y="64.637652"/>
      </g>
     </g>
    </g>
    <g id="text_13">
     <!-- $\omega_i$ -->
     <defs>
      <path d="M 21.390625 -1.421875 
Q 1.125 -1.421875 6.78125 27.59375 
Q 8.984375 39.0625 19.625 54.6875 
L 29.296875 54.6875 
Q 19.234375 39.0625 17 27.34375 
Q 12.796875 6.203125 23.734375 6.203125 
Q 33.84375 6.203125 38.71875 32.46875 
L 47.015625 32.46875 
Q 41.703125 6.0625 51.8125 6.203125 
Q 62.703125 6.296875 66.796875 27.34375 
Q 69.046875 39.0625 65.140625 54.6875 
L 74.8125 54.6875 
Q 79.296875 39.0625 77.09375 27.59375 
Q 71.53125 -1.46875 51.21875 -1.421875 
Q 37.9375 -1.375 39.109375 13.1875 
Q 34.28125 -1.421875 21.390625 -1.421875 
" id="DejaVuSans-Oblique-3c9"/>
     </defs>
     <g transform="translate(21.020313 179.828)rotate(-90)scale(0.1 -0.1)">
      <use transform="translate(0 0.3125)" xlink:href="#DejaVuSans-Oblique-3c9"/>
      <use transform="translate(83.740234 -16.09375)scale(0.7)" xlink:href="#DejaVuSans-Oblique-69"/>
     </g>
    </g>
   </g>
   <g id="line2d_32">
    <defs>
     <path d="M 0 3 
C 0.795609 3 1.55874 2.683901 2.12132 2.12132 
C 2.683901 1.55874 3 0.795609 3 0 
C 3 -0.795609 2.683901 -1.55874 2.12132 -2.12132 
C 1.55874 -2.683901 0.795609 -3 0 -3 
C -0.795609 -3 -1.55874 -2.683901 -2.12132 -2.12132 
C -2.683901 -1.55874 -3 -0.795609 -3 0 
C -3 0.795609 -2.683901 1.55874 -2.12132 2.12132 
C -1.55874 2.683901 -0.795609 3 0 3 
z
" id="m8e51b0114e" style="stroke:#1f77b4;"/>
    </defs>
    <g clip-path="url(#p054246d5a7)">
     <use style="fill:#1f77b4;stroke:#1f77b4;" x="325.291969" xlink:href="#m8e51b0114e" y="85.098345"/>
     <use style="fill:#1f77b4;stroke:#1f77b4;" x="151.911781" xlink:href="#m8e51b0114e" y="85.098345"/>
     <use style="fill:#1f77b4;stroke:#1f77b4;" x="152.622384" xlink:href="#m8e51b0114e" y="85.098345"/>
     <use style="fill:#1f77b4;stroke:#1f77b4;" x="324.423563" xlink:href="#m8e51b0114e" y="85.098345"/>
     <use style="fill:#1f77b4;stroke:#1f77b4;" x="318.941776" xlink:href="#m8e51b0114e" y="85.098345"/>
     <use style="fill:#1f77b4;stroke:#1f77b4;" x="318.141109" xlink:href="#m8e51b0114e" y="85.098345"/>
     <use style="fill:#1f77b4;stroke:#1f77b4;" x="325.147039" xlink:href="#m8e51b0114e" y="85.098345"/>
     <use style="fill:#1f77b4;stroke:#1f77b4;" x="156.845405" xlink:href="#m8e51b0114e" y="85.098345"/>
     <use style="fill:#1f77b4;stroke:#1f77b4;" x="155.912952" xlink:href="#m8e51b0114e" y="85.098345"/>
     <use style="fill:#1f77b4;stroke:#1f77b4;" x="322.26488" xlink:href="#m8e51b0114e" y="85.098345"/>
     <use style="fill:#1f77b4;stroke:#1f77b4;" x="313.481365" xlink:href="#m8e51b0114e" y="85.098345"/>
     <use style="fill:#1f77b4;stroke:#1f77b4;" x="322.790935" xlink:href="#m8e51b0114e" y="85.098345"/>
     <use style="fill:#1f77b4;stroke:#1f77b4;" x="155.023953" xlink:href="#m8e51b0114e" y="85.098345"/>
     <use style="fill:#1f77b4;stroke:#1f77b4;" x="157.820809" xlink:href="#m8e51b0114e" y="85.098345"/>
     <use style="fill:#1f77b4;stroke:#1f77b4;" x="324.95392" xlink:href="#m8e51b0114e" y="85.098345"/>
     <use style="fill:#1f77b4;stroke:#1f77b4;" x="312.421668" xlink:href="#m8e51b0114e" y="85.098345"/>
     <use style="fill:#1f77b4;stroke:#1f77b4;" x="315.474595" xlink:href="#m8e51b0114e" y="85.098345"/>
     <use style="fill:#1f77b4;stroke:#1f77b4;" x="158.838635" xlink:href="#m8e51b0114e" y="85.098345"/>
     <use style="fill:#1f77b4;stroke:#1f77b4;" x="165.804019" xlink:href="#m8e51b0114e" y="85.098345"/>
     <use style="fill:#1f77b4;stroke:#1f77b4;" x="151.2468" xlink:href="#m8e51b0114e" y="85.098345"/>
     <use style="fill:#1f77b4;stroke:#1f77b4;" x="316.407048" xlink:href="#m8e51b0114e" y="85.098345"/>
     <use style="fill:#1f77b4;stroke:#1f77b4;" x="307.775983" xlink:href="#m8e51b0114e" y="85.098345"/>
     <use style="fill:#1f77b4;stroke:#1f77b4;" x="325.388633" xlink:href="#m8e51b0114e" y="85.098345"/>
     <use style="fill:#1f77b4;stroke:#1f77b4;" x="163.322798" xlink:href="#m8e51b0114e" y="85.098345"/>
     <use style="fill:#1f77b4;stroke:#1f77b4;" x="162.14102" xlink:href="#m8e51b0114e" y="85.098345"/>
     <use style="fill:#1f77b4;stroke:#1f77b4;" x="147.028031" xlink:href="#m8e51b0114e" y="85.098345"/>
     <use style="fill:#1f77b4;stroke:#1f77b4;" x="303.882385" xlink:href="#m8e51b0114e" y="85.098345"/>
     <use style="fill:#1f77b4;stroke:#1f77b4;" x="311.320674" xlink:href="#m8e51b0114e" y="85.098345"/>
     <use style="fill:#1f77b4;stroke:#1f77b4;" x="160.999326" xlink:href="#m8e51b0114e" y="85.098345"/>
     <use style="fill:#1f77b4;stroke:#1f77b4;" x="178.76998" xlink:href="#m8e51b0114e" y="85.098345"/>
     <use style="fill:#1f77b4;stroke:#1f77b4;" x="321.692199" xlink:href="#m8e51b0114e" y="85.098345"/>
     <use style="fill:#1f77b4;stroke:#1f77b4;" x="314.499191" xlink:href="#m8e51b0114e" y="85.098345"/>
     <use style="fill:#1f77b4;stroke:#1f77b4;" x="299.65885" xlink:href="#m8e51b0114e" y="85.098345"/>
     <use style="fill:#1f77b4;stroke:#1f77b4;" x="147.36608" xlink:href="#m8e51b0114e" y="85.098345"/>
     <use style="fill:#1f77b4;stroke:#1f77b4;" x="171.217883" xlink:href="#m8e51b0114e" y="85.098345"/>
     <use style="fill:#1f77b4;stroke:#1f77b4;" x="159.898332" xlink:href="#m8e51b0114e" y="85.098345"/>
     <use style="fill:#1f77b4;stroke:#1f77b4;" x="182.014214" xlink:href="#m8e51b0114e" y="85.098345"/>
     <use style="fill:#1f77b4;stroke:#1f77b4;" x="290.305786" xlink:href="#m8e51b0114e" y="85.098345"/>
     <use style="fill:#1f77b4;stroke:#1f77b4;" x="320.408219" xlink:href="#m8e51b0114e" y="85.098345"/>
     <use style="fill:#1f77b4;stroke:#1f77b4;" x="324.086612" xlink:href="#m8e51b0114e" y="85.098345"/>
     <use style="fill:#1f77b4;stroke:#1f77b4;" x="183.680756" xlink:href="#m8e51b0114e" y="85.098345"/>
     <use style="fill:#1f77b4;stroke:#1f77b4;" x="149.049923" xlink:href="#m8e51b0114e" y="85.098345"/>
     <use style="fill:#1f77b4;stroke:#1f77b4;" x="301.102117" xlink:href="#m8e51b0114e" y="85.098345"/>
     <use style="fill:#1f77b4;stroke:#1f77b4;" x="296.669961" xlink:href="#m8e51b0114e" y="85.098345"/>
     <use style="fill:#1f77b4;stroke:#1f77b4;" x="146.883022" xlink:href="#m8e51b0114e" y="85.098345"/>
     <use style="fill:#1f77b4;stroke:#1f77b4;" x="180.376993" xlink:href="#m8e51b0114e" y="85.098345"/>
     <use style="fill:#1f77b4;stroke:#1f77b4;" x="167.102119" xlink:href="#m8e51b0114e" y="85.098345"/>
     <use style="fill:#1f77b4;stroke:#1f77b4;" x="325.436978" xlink:href="#m8e51b0114e" y="85.098345"/>
     <use style="fill:#1f77b4;stroke:#1f77b4;" x="281.698144" xlink:href="#m8e51b0114e" y="85.098345"/>
     <use style="fill:#1f77b4;stroke:#1f77b4;" x="305.217881" xlink:href="#m8e51b0114e" y="85.098345"/>
     <use style="fill:#1f77b4;stroke:#1f77b4;" x="308.997202" xlink:href="#m8e51b0114e" y="85.098345"/>
     <use style="fill:#1f77b4;stroke:#1f77b4;" x="187.098178" xlink:href="#m8e51b0114e" y="85.098345"/>
     <use style="fill:#1f77b4;stroke:#1f77b4;" x="146.931367" xlink:href="#m8e51b0114e" y="85.098345"/>
     <use style="fill:#1f77b4;stroke:#1f77b4;" x="293.55002" xlink:href="#m8e51b0114e" y="85.098345"/>
     <use style="fill:#1f77b4;stroke:#1f77b4;" x="295.125956" xlink:href="#m8e51b0114e" y="85.098345"/>
     <use style="fill:#1f77b4;stroke:#1f77b4;" x="147.896437" xlink:href="#m8e51b0114e" y="85.098345"/>
     <use style="fill:#1f77b4;stroke:#1f77b4;" x="192.421166" xlink:href="#m8e51b0114e" y="85.098345"/>
     <use style="fill:#1f77b4;stroke:#1f77b4;" x="169.809784" xlink:href="#m8e51b0114e" y="85.098345"/>
     <use style="fill:#1f77b4;stroke:#1f77b4;" x="323.702047" xlink:href="#m8e51b0114e" y="85.098345"/>
     <use style="fill:#1f77b4;stroke:#1f77b4;" x="274.362756" xlink:href="#m8e51b0114e" y="85.098345"/>
     <use style="fill:#1f77b4;stroke:#1f77b4;" x="324.712718" xlink:href="#m8e51b0114e" y="85.098345"/>
     <use style="fill:#1f77b4;stroke:#1f77b4;" x="188.847207" xlink:href="#m8e51b0114e" y="85.098345"/>
     <use style="fill:#1f77b4;stroke:#1f77b4;" x="190.621856" xlink:href="#m8e51b0114e" y="85.098345"/>
     <use style="fill:#1f77b4;stroke:#1f77b4;" x="147.607282" xlink:href="#m8e51b0114e" y="85.098345"/>
     <use style="fill:#1f77b4;stroke:#1f77b4;" x="285.221822" xlink:href="#m8e51b0114e" y="85.098345"/>
     <use style="fill:#1f77b4;stroke:#1f77b4;" x="291.943007" xlink:href="#m8e51b0114e" y="85.098345"/>
     <use style="fill:#1f77b4;stroke:#1f77b4;" x="150.627801" xlink:href="#m8e51b0114e" y="85.098345"/>
     <use style="fill:#1f77b4;stroke:#1f77b4;" x="197.957244" xlink:href="#m8e51b0114e" y="85.098345"/>
     <use style="fill:#1f77b4;stroke:#1f77b4;" x="172.66115" xlink:href="#m8e51b0114e" y="85.098345"/>
     <use style="fill:#1f77b4;stroke:#1f77b4;" x="321.0732" xlink:href="#m8e51b0114e" y="85.098345"/>
     <use style="fill:#1f77b4;stroke:#1f77b4;" x="272.474677" xlink:href="#m8e51b0114e" y="85.098345"/>
     <use style="fill:#1f77b4;stroke:#1f77b4;" x="153.378224" xlink:href="#m8e51b0114e" y="85.098345"/>
     <use style="fill:#1f77b4;stroke:#1f77b4;" x="185.375717" xlink:href="#m8e51b0114e" y="85.098345"/>
     <use style="fill:#1f77b4;stroke:#1f77b4;" x="194.24416" xlink:href="#m8e51b0114e" y="85.098345"/>
     <use style="fill:#1f77b4;stroke:#1f77b4;" x="147.172961" xlink:href="#m8e51b0114e" y="85.098345"/>
     <use style="fill:#1f77b4;stroke:#1f77b4;" x="276.230147" xlink:href="#m8e51b0114e" y="85.098345"/>
     <use style="fill:#1f77b4;stroke:#1f77b4;" x="288.639244" xlink:href="#m8e51b0114e" y="85.098345"/>
     <use style="fill:#1f77b4;stroke:#1f77b4;" x="283.472793" xlink:href="#m8e51b0114e" y="85.098345"/>
     <use style="fill:#1f77b4;stroke:#1f77b4;" x="207.583909" xlink:href="#m8e51b0114e" y="85.098345"/>
     <use style="fill:#1f77b4;stroke:#1f77b4;" x="164.544017" xlink:href="#m8e51b0114e" y="85.098345"/>
     <use style="fill:#1f77b4;stroke:#1f77b4;" x="298.181198" xlink:href="#m8e51b0114e" y="85.098345"/>
     <use style="fill:#1f77b4;stroke:#1f77b4;" x="264.736091" xlink:href="#m8e51b0114e" y="85.098345"/>
     <use style="fill:#1f77b4;stroke:#1f77b4;" x="323.270077" xlink:href="#m8e51b0114e" y="85.098345"/>
     <use style="fill:#1f77b4;stroke:#1f77b4;" x="201.753067" xlink:href="#m8e51b0114e" y="85.098345"/>
     <use style="fill:#1f77b4;stroke:#1f77b4;" x="199.845323" xlink:href="#m8e51b0114e" y="85.098345"/>
     <use style="fill:#1f77b4;stroke:#1f77b4;" x="319.697616" xlink:href="#m8e51b0114e" y="85.098345"/>
     <use style="fill:#1f77b4;stroke:#1f77b4;" x="266.696592" xlink:href="#m8e51b0114e" y="85.098345"/>
     <use style="fill:#1f77b4;stroke:#1f77b4;" x="149.529065" xlink:href="#m8e51b0114e" y="85.098345"/>
     <use style="fill:#1f77b4;stroke:#1f77b4;" x="174.138802" xlink:href="#m8e51b0114e" y="85.098345"/>
     <use style="fill:#1f77b4;stroke:#1f77b4;" x="211.550264" xlink:href="#m8e51b0114e" y="85.098345"/>
     <use style="fill:#1f77b4;stroke:#1f77b4;" x="232.00608" xlink:href="#m8e51b0114e" y="85.098345"/>
     <use style="fill:#1f77b4;stroke:#1f77b4;" x="278.07584" xlink:href="#m8e51b0114e" y="85.098345"/>
     <use style="fill:#1f77b4;stroke:#1f77b4;" x="268.640557" xlink:href="#m8e51b0114e" y="85.098345"/>
     <use style="fill:#1f77b4;stroke:#1f77b4;" x="148.617953" xlink:href="#m8e51b0114e" y="85.098345"/>
     <use style="fill:#1f77b4;stroke:#1f77b4;" x="203.679443" xlink:href="#m8e51b0114e" y="85.098345"/>
     <use style="fill:#1f77b4;stroke:#1f77b4;" x="205.623408" xlink:href="#m8e51b0114e" y="85.098345"/>
     <use style="fill:#1f77b4;stroke:#1f77b4;" x="286.944283" xlink:href="#m8e51b0114e" y="85.098345"/>
     <use style="fill:#1f77b4;stroke:#1f77b4;" x="262.760116" xlink:href="#m8e51b0114e" y="85.098345"/>
     <use style="fill:#1f77b4;stroke:#1f77b4;" x="302.510216" xlink:href="#m8e51b0114e" y="85.098345"/>
     <use style="fill:#1f77b4;stroke:#1f77b4;" x="236.16" xlink:href="#m8e51b0114e" y="85.098345"/>
     <use style="fill:#1f77b4;stroke:#1f77b4;" x="215.569918" xlink:href="#m8e51b0114e" y="85.098345"/>
     <use style="fill:#1f77b4;stroke:#1f77b4;" x="150.05512" xlink:href="#m8e51b0114e" y="85.098345"/>
     <use style="fill:#1f77b4;stroke:#1f77b4;" x="258.76603" xlink:href="#m8e51b0114e" y="85.098345"/>
     <use style="fill:#1f77b4;stroke:#1f77b4;" x="260.769736" xlink:href="#m8e51b0114e" y="85.098345"/>
     <use style="fill:#1f77b4;stroke:#1f77b4;" x="168.437615" xlink:href="#m8e51b0114e" y="85.098345"/>
     <use style="fill:#1f77b4;stroke:#1f77b4;" x="213.55397" xlink:href="#m8e51b0114e" y="85.098345"/>
     <use style="fill:#1f77b4;stroke:#1f77b4;" x="148.233388" xlink:href="#m8e51b0114e" y="85.098345"/>
     <use style="fill:#1f77b4;stroke:#1f77b4;" x="310.17898" xlink:href="#m8e51b0114e" y="85.098345"/>
     <use style="fill:#1f77b4;stroke:#1f77b4;" x="254.722984" xlink:href="#m8e51b0114e" y="85.098345"/>
     <use style="fill:#1f77b4;stroke:#1f77b4;" x="279.898834" xlink:href="#m8e51b0114e" y="85.098345"/>
     <use style="fill:#1f77b4;stroke:#1f77b4;" x="175.650039" xlink:href="#m8e51b0114e" y="85.098345"/>
     <use style="fill:#1f77b4;stroke:#1f77b4;" x="209.559884" xlink:href="#m8e51b0114e" y="85.098345"/>
     <use style="fill:#1f77b4;stroke:#1f77b4;" x="234.082477" xlink:href="#m8e51b0114e" y="85.098345"/>
     <use style="fill:#1f77b4;stroke:#1f77b4;" x="270.566933" xlink:href="#m8e51b0114e" y="85.098345"/>
     <use style="fill:#1f77b4;stroke:#1f77b4;" x="256.750082" xlink:href="#m8e51b0114e" y="85.098345"/>
     <use style="fill:#1f77b4;stroke:#1f77b4;" x="242.388069" xlink:href="#m8e51b0114e" y="85.098345"/>
     <use style="fill:#1f77b4;stroke:#1f77b4;" x="217.597016" xlink:href="#m8e51b0114e" y="85.098345"/>
     <use style="fill:#1f77b4;stroke:#1f77b4;" x="227.861156" xlink:href="#m8e51b0114e" y="85.098345"/>
     <use style="fill:#1f77b4;stroke:#1f77b4;" x="177.194044" xlink:href="#m8e51b0114e" y="85.098345"/>
     <use style="fill:#1f77b4;stroke:#1f77b4;" x="252.685834" xlink:href="#m8e51b0114e" y="85.098345"/>
     <use style="fill:#1f77b4;stroke:#1f77b4;" x="317.296047" xlink:href="#m8e51b0114e" y="85.098345"/>
     <use style="fill:#1f77b4;stroke:#1f77b4;" x="196.089853" xlink:href="#m8e51b0114e" y="85.098345"/>
     <use style="fill:#1f77b4;stroke:#1f77b4;" x="219.634166" xlink:href="#m8e51b0114e" y="85.098345"/>
     <use style="fill:#1f77b4;stroke:#1f77b4;" x="238.237523" xlink:href="#m8e51b0114e" y="85.098345"/>
     <use style="fill:#1f77b4;stroke:#1f77b4;" x="250.639735" xlink:href="#m8e51b0114e" y="85.098345"/>
     <use style="fill:#1f77b4;stroke:#1f77b4;" x="244.458844" xlink:href="#m8e51b0114e" y="85.098345"/>
     <use style="fill:#1f77b4;stroke:#1f77b4;" x="229.931931" xlink:href="#m8e51b0114e" y="85.098345"/>
     <use style="fill:#1f77b4;stroke:#1f77b4;" x="223.734205" xlink:href="#m8e51b0114e" y="85.098345"/>
     <use style="fill:#1f77b4;stroke:#1f77b4;" x="240.31392" xlink:href="#m8e51b0114e" y="85.098345"/>
     <use style="fill:#1f77b4;stroke:#1f77b4;" x="154.178891" xlink:href="#m8e51b0114e" y="85.098345"/>
     <use style="fill:#1f77b4;stroke:#1f77b4;" x="248.585795" xlink:href="#m8e51b0114e" y="85.098345"/>
     <use style="fill:#1f77b4;stroke:#1f77b4;" x="246.525126" xlink:href="#m8e51b0114e" y="85.098345"/>
     <use style="fill:#1f77b4;stroke:#1f77b4;" x="221.680265" xlink:href="#m8e51b0114e" y="85.098345"/>
     <use style="fill:#1f77b4;stroke:#1f77b4;" x="225.794874" xlink:href="#m8e51b0114e" y="85.098345"/>
     <use style="fill:#1f77b4;stroke:#1f77b4;" x="306.515981" xlink:href="#m8e51b0114e" y="85.098345"/>
    </g>
   </g>
   <g id="patch_3">
    <path d="M 57.6 307.584 
L 57.6 41.472 
" style="fill:none;stroke:#000000;stroke-linecap:square;stroke-linejoin:miter;stroke-width:0.8;"/>
   </g>
   <g id="patch_4">
    <path d="M 414.72 307.584 
L 414.72 41.472 
" style="fill:none;stroke:#000000;stroke-linecap:square;stroke-linejoin:miter;stroke-width:0.8;"/>
   </g>
   <g id="patch_5">
    <path d="M 57.6 307.584 
L 414.72 307.584 
" style="fill:none;stroke:#000000;stroke-linecap:square;stroke-linejoin:miter;stroke-width:0.8;"/>
   </g>
   <g id="patch_6">
    <path d="M 57.6 41.472 
L 414.72 41.472 
" style="fill:none;stroke:#000000;stroke-linecap:square;stroke-linejoin:miter;stroke-width:0.8;"/>
   </g>
  </g>
 </g>
 <defs>
  <clipPath id="p054246d5a7">
   <rect height="266.112" width="357.12" x="57.6" y="41.472"/>
  </clipPath>
 </defs>
</svg>
