<?xml version="1.0" encoding="utf-8" standalone="no"?>
<!DOCTYPE svg PUBLIC "-//W3C//DTD SVG 1.1//EN"
  "http://www.w3.org/Graphics/SVG/1.1/DTD/svg11.dtd">
<!-- Created with matplotlib (http://matplotlib.org/) -->
<svg height="345pt" version="1.1" viewBox="0 0 460 345" width="460pt" xmlns="http://www.w3.org/2000/svg" xmlns:xlink="http://www.w3.org/1999/xlink">
 <defs>
  <style type="text/css">
*{stroke-linecap:butt;stroke-linejoin:round;}
  </style>
 </defs>
 <g id="figure_1">
  <g id="patch_1">
   <path d="M 0 345.6 
L 460.8 345.6 
L 460.8 0 
L 0 0 
z
" style="fill:#ffffff;"/>
  </g>
  <g id="axes_1">
   <g id="patch_2">
    <path d="M 57.6 307.584 
L 414.72 307.584 
L 414.72 41.472 
L 57.6 41.472 
z
" style="fill:#ffffff;"/>
   </g>
   <g id="matplotlib.axis_1">
    <g id="xtick_1">
     <g id="line2d_1">
      <path clip-path="url(#p7079e373b5)" d="M 57.6 307.584 
L 57.6 41.472 
" style="fill:none;stroke:#b0b0b0;stroke-linecap:square;stroke-width:0.8;"/>
     </g>
     <g id="line2d_2">
      <defs>
       <path d="M 0 0 
L 0 3.5 
" id="m2c84a94dec" style="stroke:#000000;stroke-width:0.8;"/>
      </defs>
      <g>
       <use style="stroke:#000000;stroke-width:0.8;" x="57.6" xlink:href="#m2c84a94dec" y="307.584"/>
      </g>
     </g>
     <g id="text_1">
      <!-- −2.0 -->
      <defs>
       <path d="M 10.59375 35.5 
L 73.1875 35.5 
L 73.1875 27.203125 
L 10.59375 27.203125 
z
" id="DejaVuSans-2212"/>
       <path d="M 19.1875 8.296875 
L 53.609375 8.296875 
L 53.609375 0 
L 7.328125 0 
L 7.328125 8.296875 
Q 12.9375 14.109375 22.625 23.890625 
Q 32.328125 33.6875 34.8125 36.53125 
Q 39.546875 41.84375 41.421875 45.53125 
Q 43.3125 49.21875 43.3125 52.78125 
Q 43.3125 58.59375 39.234375 62.25 
Q 35.15625 65.921875 28.609375 65.921875 
Q 23.96875 65.921875 18.8125 64.3125 
Q 13.671875 62.703125 7.8125 59.421875 
L 7.8125 69.390625 
Q 13.765625 71.78125 18.9375 73 
Q 24.125 74.21875 28.421875 74.21875 
Q 39.75 74.21875 46.484375 68.546875 
Q 53.21875 62.890625 53.21875 53.421875 
Q 53.21875 48.921875 51.53125 44.890625 
Q 49.859375 40.875 45.40625 35.40625 
Q 44.1875 33.984375 37.640625 27.21875 
Q 31.109375 20.453125 19.1875 8.296875 
" id="DejaVuSans-32"/>
       <path d="M 10.6875 12.40625 
L 21 12.40625 
L 21 0 
L 10.6875 0 
z
" id="DejaVuSans-2e"/>
       <path d="M 31.78125 66.40625 
Q 24.171875 66.40625 20.328125 58.90625 
Q 16.5 51.421875 16.5 36.375 
Q 16.5 21.390625 20.328125 13.890625 
Q 24.171875 6.390625 31.78125 6.390625 
Q 39.453125 6.390625 43.28125 13.890625 
Q 47.125 21.390625 47.125 36.375 
Q 47.125 51.421875 43.28125 58.90625 
Q 39.453125 66.40625 31.78125 66.40625 
M 31.78125 74.21875 
Q 44.046875 74.21875 50.515625 64.515625 
Q 56.984375 54.828125 56.984375 36.375 
Q 56.984375 17.96875 50.515625 8.265625 
Q 44.046875 -1.421875 31.78125 -1.421875 
Q 19.53125 -1.421875 13.0625 8.265625 
Q 6.59375 17.96875 6.59375 36.375 
Q 6.59375 54.828125 13.0625 64.515625 
Q 19.53125 74.21875 31.78125 74.21875 
" id="DejaVuSans-30"/>
      </defs>
      <g transform="translate(45.458594 322.182437)scale(0.1 -0.1)">
       <use xlink:href="#DejaVuSans-2212"/>
       <use x="83.789062" xlink:href="#DejaVuSans-32"/>
       <use x="147.412109" xlink:href="#DejaVuSans-2e"/>
       <use x="179.199219" xlink:href="#DejaVuSans-30"/>
      </g>
     </g>
    </g>
    <g id="xtick_2">
     <g id="line2d_3">
      <path clip-path="url(#p7079e373b5)" d="M 102.24 307.584 
L 102.24 41.472 
" style="fill:none;stroke:#b0b0b0;stroke-linecap:square;stroke-width:0.8;"/>
     </g>
     <g id="line2d_4">
      <g>
       <use style="stroke:#000000;stroke-width:0.8;" x="102.24" xlink:href="#m2c84a94dec" y="307.584"/>
      </g>
     </g>
     <g id="text_2">
      <!-- −1.5 -->
      <defs>
       <path d="M 12.40625 8.296875 
L 28.515625 8.296875 
L 28.515625 63.921875 
L 10.984375 60.40625 
L 10.984375 69.390625 
L 28.421875 72.90625 
L 38.28125 72.90625 
L 38.28125 8.296875 
L 54.390625 8.296875 
L 54.390625 0 
L 12.40625 0 
z
" id="DejaVuSans-31"/>
       <path d="M 10.796875 72.90625 
L 49.515625 72.90625 
L 49.515625 64.59375 
L 19.828125 64.59375 
L 19.828125 46.734375 
Q 21.96875 47.46875 24.109375 47.828125 
Q 26.265625 48.1875 28.421875 48.1875 
Q 40.625 48.1875 47.75 41.5 
Q 54.890625 34.8125 54.890625 23.390625 
Q 54.890625 11.625 47.5625 5.09375 
Q 40.234375 -1.421875 26.90625 -1.421875 
Q 22.3125 -1.421875 17.546875 -0.640625 
Q 12.796875 0.140625 7.71875 1.703125 
L 7.71875 11.625 
Q 12.109375 9.234375 16.796875 8.0625 
Q 21.484375 6.890625 26.703125 6.890625 
Q 35.15625 6.890625 40.078125 11.328125 
Q 45.015625 15.765625 45.015625 23.390625 
Q 45.015625 31 40.078125 35.4375 
Q 35.15625 39.890625 26.703125 39.890625 
Q 22.75 39.890625 18.8125 39.015625 
Q 14.890625 38.140625 10.796875 36.28125 
z
" id="DejaVuSans-35"/>
      </defs>
      <g transform="translate(90.098594 322.182437)scale(0.1 -0.1)">
       <use xlink:href="#DejaVuSans-2212"/>
       <use x="83.789062" xlink:href="#DejaVuSans-31"/>
       <use x="147.412109" xlink:href="#DejaVuSans-2e"/>
       <use x="179.199219" xlink:href="#DejaVuSans-35"/>
      </g>
     </g>
    </g>
    <g id="xtick_3">
     <g id="line2d_5">
      <path clip-path="url(#p7079e373b5)" d="M 146.88 307.584 
L 146.88 41.472 
" style="fill:none;stroke:#b0b0b0;stroke-linecap:square;stroke-width:0.8;"/>
     </g>
     <g id="line2d_6">
      <g>
       <use style="stroke:#000000;stroke-width:0.8;" x="146.88" xlink:href="#m2c84a94dec" y="307.584"/>
      </g>
     </g>
     <g id="text_3">
      <!-- −1.0 -->
      <g transform="translate(134.738594 322.182437)scale(0.1 -0.1)">
       <use xlink:href="#DejaVuSans-2212"/>
       <use x="83.789062" xlink:href="#DejaVuSans-31"/>
       <use x="147.412109" xlink:href="#DejaVuSans-2e"/>
       <use x="179.199219" xlink:href="#DejaVuSans-30"/>
      </g>
     </g>
    </g>
    <g id="xtick_4">
     <g id="line2d_7">
      <path clip-path="url(#p7079e373b5)" d="M 191.52 307.584 
L 191.52 41.472 
" style="fill:none;stroke:#b0b0b0;stroke-linecap:square;stroke-width:0.8;"/>
     </g>
     <g id="line2d_8">
      <g>
       <use style="stroke:#000000;stroke-width:0.8;" x="191.52" xlink:href="#m2c84a94dec" y="307.584"/>
      </g>
     </g>
     <g id="text_4">
      <!-- −0.5 -->
      <g transform="translate(179.378594 322.182437)scale(0.1 -0.1)">
       <use xlink:href="#DejaVuSans-2212"/>
       <use x="83.789062" xlink:href="#DejaVuSans-30"/>
       <use x="147.412109" xlink:href="#DejaVuSans-2e"/>
       <use x="179.199219" xlink:href="#DejaVuSans-35"/>
      </g>
     </g>
    </g>
    <g id="xtick_5">
     <g id="line2d_9">
      <path clip-path="url(#p7079e373b5)" d="M 236.16 307.584 
L 236.16 41.472 
" style="fill:none;stroke:#b0b0b0;stroke-linecap:square;stroke-width:0.8;"/>
     </g>
     <g id="line2d_10">
      <g>
       <use style="stroke:#000000;stroke-width:0.8;" x="236.16" xlink:href="#m2c84a94dec" y="307.584"/>
      </g>
     </g>
     <g id="text_5">
      <!-- 0.0 -->
      <g transform="translate(228.208438 322.182437)scale(0.1 -0.1)">
       <use xlink:href="#DejaVuSans-30"/>
       <use x="63.623047" xlink:href="#DejaVuSans-2e"/>
       <use x="95.410156" xlink:href="#DejaVuSans-30"/>
      </g>
     </g>
    </g>
    <g id="xtick_6">
     <g id="line2d_11">
      <path clip-path="url(#p7079e373b5)" d="M 280.8 307.584 
L 280.8 41.472 
" style="fill:none;stroke:#b0b0b0;stroke-linecap:square;stroke-width:0.8;"/>
     </g>
     <g id="line2d_12">
      <g>
       <use style="stroke:#000000;stroke-width:0.8;" x="280.8" xlink:href="#m2c84a94dec" y="307.584"/>
      </g>
     </g>
     <g id="text_6">
      <!-- 0.5 -->
      <g transform="translate(272.848437 322.182437)scale(0.1 -0.1)">
       <use xlink:href="#DejaVuSans-30"/>
       <use x="63.623047" xlink:href="#DejaVuSans-2e"/>
       <use x="95.410156" xlink:href="#DejaVuSans-35"/>
      </g>
     </g>
    </g>
    <g id="xtick_7">
     <g id="line2d_13">
      <path clip-path="url(#p7079e373b5)" d="M 325.44 307.584 
L 325.44 41.472 
" style="fill:none;stroke:#b0b0b0;stroke-linecap:square;stroke-width:0.8;"/>
     </g>
     <g id="line2d_14">
      <g>
       <use style="stroke:#000000;stroke-width:0.8;" x="325.44" xlink:href="#m2c84a94dec" y="307.584"/>
      </g>
     </g>
     <g id="text_7">
      <!-- 1.0 -->
      <g transform="translate(317.488437 322.182437)scale(0.1 -0.1)">
       <use xlink:href="#DejaVuSans-31"/>
       <use x="63.623047" xlink:href="#DejaVuSans-2e"/>
       <use x="95.410156" xlink:href="#DejaVuSans-30"/>
      </g>
     </g>
    </g>
    <g id="xtick_8">
     <g id="line2d_15">
      <path clip-path="url(#p7079e373b5)" d="M 370.08 307.584 
L 370.08 41.472 
" style="fill:none;stroke:#b0b0b0;stroke-linecap:square;stroke-width:0.8;"/>
     </g>
     <g id="line2d_16">
      <g>
       <use style="stroke:#000000;stroke-width:0.8;" x="370.08" xlink:href="#m2c84a94dec" y="307.584"/>
      </g>
     </g>
     <g id="text_8">
      <!-- 1.5 -->
      <g transform="translate(362.128438 322.182437)scale(0.1 -0.1)">
       <use xlink:href="#DejaVuSans-31"/>
       <use x="63.623047" xlink:href="#DejaVuSans-2e"/>
       <use x="95.410156" xlink:href="#DejaVuSans-35"/>
      </g>
     </g>
    </g>
    <g id="xtick_9">
     <g id="line2d_17">
      <path clip-path="url(#p7079e373b5)" d="M 414.72 307.584 
L 414.72 41.472 
" style="fill:none;stroke:#b0b0b0;stroke-linecap:square;stroke-width:0.8;"/>
     </g>
     <g id="line2d_18">
      <g>
       <use style="stroke:#000000;stroke-width:0.8;" x="414.72" xlink:href="#m2c84a94dec" y="307.584"/>
      </g>
     </g>
     <g id="text_9">
      <!-- 2.0 -->
      <g transform="translate(406.768438 322.182437)scale(0.1 -0.1)">
       <use xlink:href="#DejaVuSans-32"/>
       <use x="63.623047" xlink:href="#DejaVuSans-2e"/>
       <use x="95.410156" xlink:href="#DejaVuSans-30"/>
      </g>
     </g>
    </g>
    <g id="text_10">
     <!-- $\gamma_i$ -->
     <defs>
      <path d="M 23.296875 46.09375 
L 28.71875 12.3125 
L 54 54.6875 
L 63.53125 54.6875 
L 30.8125 0 
L 26.765625 -20.796875 
L 17.78125 -20.796875 
L 21.828125 0 
L 15.4375 40.828125 
Q 14.453125 46.96875 9.8125 46.96875 
L 7.421875 46.96875 
L 8.890625 54.6875 
L 12.3125 54.6875 
Q 21.921875 54.6875 23.296875 46.09375 
" id="DejaVuSans-Oblique-3b3"/>
      <path d="M 18.3125 75.984375 
L 27.296875 75.984375 
L 25.09375 64.59375 
L 16.109375 64.59375 
z
M 14.203125 54.6875 
L 23.1875 54.6875 
L 12.5 0 
L 3.515625 0 
z
" id="DejaVuSans-Oblique-69"/>
     </defs>
     <g transform="translate(232.06 335.84025)scale(0.1 -0.1)">
      <use transform="translate(0 0.3125)" xlink:href="#DejaVuSans-Oblique-3b3"/>
      <use transform="translate(59.179688 -16.09375)scale(0.7)" xlink:href="#DejaVuSans-Oblique-69"/>
     </g>
    </g>
   </g>
   <g id="matplotlib.axis_2">
    <g id="ytick_1">
     <g id="line2d_19">
      <defs>
       <path d="M 0 0 
L -2 0 
" id="m99473a8afd" style="stroke:#000000;stroke-width:0.6;"/>
      </defs>
      <g>
       <use style="stroke:#000000;stroke-width:0.6;" x="57.6" xlink:href="#m99473a8afd" y="260.956298"/>
      </g>
     </g>
     <g id="text_11">
      <!-- ${3\times10^{-3}}$ -->
      <defs>
       <path d="M 40.578125 39.3125 
Q 47.65625 37.796875 51.625 33 
Q 55.609375 28.21875 55.609375 21.1875 
Q 55.609375 10.40625 48.1875 4.484375 
Q 40.765625 -1.421875 27.09375 -1.421875 
Q 22.515625 -1.421875 17.65625 -0.515625 
Q 12.796875 0.390625 7.625 2.203125 
L 7.625 11.71875 
Q 11.71875 9.328125 16.59375 8.109375 
Q 21.484375 6.890625 26.8125 6.890625 
Q 36.078125 6.890625 40.9375 10.546875 
Q 45.796875 14.203125 45.796875 21.1875 
Q 45.796875 27.640625 41.28125 31.265625 
Q 36.765625 34.90625 28.71875 34.90625 
L 20.21875 34.90625 
L 20.21875 43.015625 
L 29.109375 43.015625 
Q 36.375 43.015625 40.234375 45.921875 
Q 44.09375 48.828125 44.09375 54.296875 
Q 44.09375 59.90625 40.109375 62.90625 
Q 36.140625 65.921875 28.71875 65.921875 
Q 24.65625 65.921875 20.015625 65.03125 
Q 15.375 64.15625 9.8125 62.3125 
L 9.8125 71.09375 
Q 15.4375 72.65625 20.34375 73.4375 
Q 25.25 74.21875 29.59375 74.21875 
Q 40.828125 74.21875 47.359375 69.109375 
Q 53.90625 64.015625 53.90625 55.328125 
Q 53.90625 49.265625 50.4375 45.09375 
Q 46.96875 40.921875 40.578125 39.3125 
" id="DejaVuSans-33"/>
       <path d="M 70.125 53.71875 
L 47.796875 31.296875 
L 70.125 8.984375 
L 64.3125 3.078125 
L 41.890625 25.484375 
L 19.484375 3.078125 
L 13.71875 8.984375 
L 35.984375 31.296875 
L 13.71875 53.71875 
L 19.484375 59.625 
L 41.890625 37.203125 
L 64.3125 59.625 
z
" id="DejaVuSans-d7"/>
      </defs>
      <g transform="translate(10.1 264.755516)scale(0.1 -0.1)">
       <use transform="translate(0 0.765625)" xlink:href="#DejaVuSans-33"/>
       <use transform="translate(83.105469 0.765625)" xlink:href="#DejaVuSans-d7"/>
       <use transform="translate(186.376953 0.765625)" xlink:href="#DejaVuSans-31"/>
       <use transform="translate(250 0.765625)" xlink:href="#DejaVuSans-30"/>
       <use transform="translate(314.580078 39.046875)scale(0.7)" xlink:href="#DejaVuSans-2212"/>
       <use transform="translate(373.232422 39.046875)scale(0.7)" xlink:href="#DejaVuSans-33"/>
      </g>
     </g>
    </g>
    <g id="ytick_2">
     <g id="line2d_20">
      <g>
       <use style="stroke:#000000;stroke-width:0.6;" x="57.6" xlink:href="#m99473a8afd" y="160.550426"/>
      </g>
     </g>
     <g id="text_12">
      <!-- ${4\times10^{-3}}$ -->
      <defs>
       <path d="M 37.796875 64.3125 
L 12.890625 25.390625 
L 37.796875 25.390625 
z
M 35.203125 72.90625 
L 47.609375 72.90625 
L 47.609375 25.390625 
L 58.015625 25.390625 
L 58.015625 17.1875 
L 47.609375 17.1875 
L 47.609375 0 
L 37.796875 0 
L 37.796875 17.1875 
L 4.890625 17.1875 
L 4.890625 26.703125 
z
" id="DejaVuSans-34"/>
      </defs>
      <g transform="translate(10.1 164.349644)scale(0.1 -0.1)">
       <use transform="translate(0 0.765625)" xlink:href="#DejaVuSans-34"/>
       <use transform="translate(83.105469 0.765625)" xlink:href="#DejaVuSans-d7"/>
       <use transform="translate(186.376953 0.765625)" xlink:href="#DejaVuSans-31"/>
       <use transform="translate(250 0.765625)" xlink:href="#DejaVuSans-30"/>
       <use transform="translate(314.580078 39.046875)scale(0.7)" xlink:href="#DejaVuSans-2212"/>
       <use transform="translate(373.232422 39.046875)scale(0.7)" xlink:href="#DejaVuSans-33"/>
      </g>
     </g>
    </g>
    <g id="ytick_3">
     <g id="line2d_21">
      <g>
       <use style="stroke:#000000;stroke-width:0.6;" x="57.6" xlink:href="#m99473a8afd" y="82.669581"/>
      </g>
     </g>
     <g id="text_13">
      <!-- ${5\times10^{-3}}$ -->
      <g transform="translate(10.1 86.4688)scale(0.1 -0.1)">
       <use transform="translate(0 0.765625)" xlink:href="#DejaVuSans-35"/>
       <use transform="translate(83.105469 0.765625)" xlink:href="#DejaVuSans-d7"/>
       <use transform="translate(186.376953 0.765625)" xlink:href="#DejaVuSans-31"/>
       <use transform="translate(250 0.765625)" xlink:href="#DejaVuSans-30"/>
       <use transform="translate(314.580078 39.046875)scale(0.7)" xlink:href="#DejaVuSans-2212"/>
       <use transform="translate(373.232422 39.046875)scale(0.7)" xlink:href="#DejaVuSans-33"/>
      </g>
     </g>
    </g>
    <g id="text_14">
     <!-- $\omega_i$ -->
     <defs>
      <path d="M 21.390625 -1.421875 
Q 1.125 -1.421875 6.78125 27.59375 
Q 8.984375 39.0625 19.625 54.6875 
L 29.296875 54.6875 
Q 19.234375 39.0625 17 27.34375 
Q 12.796875 6.203125 23.734375 6.203125 
Q 33.84375 6.203125 38.71875 32.46875 
L 47.015625 32.46875 
Q 41.703125 6.0625 51.8125 6.203125 
Q 62.703125 6.296875 66.796875 27.34375 
Q 69.046875 39.0625 65.140625 54.6875 
L 74.8125 54.6875 
Q 79.296875 39.0625 77.09375 27.59375 
Q 71.53125 -1.46875 51.21875 -1.421875 
Q 37.9375 -1.375 39.109375 13.1875 
Q 34.28125 -1.421875 21.390625 -1.421875 
" id="DejaVuSans-Oblique-3c9"/>
     </defs>
     <g transform="translate(4.020313 179.828)rotate(-90)scale(0.1 -0.1)">
      <use transform="translate(0 0.3125)" xlink:href="#DejaVuSans-Oblique-3c9"/>
      <use transform="translate(83.740234 -16.09375)scale(0.7)" xlink:href="#DejaVuSans-Oblique-69"/>
     </g>
    </g>
   </g>
   <g id="line2d_22">
    <defs>
     <path d="M 0 3 
C 0.795609 3 1.55874 2.683901 2.12132 2.12132 
C 2.683901 1.55874 3 0.795609 3 0 
C 3 -0.795609 2.683901 -1.55874 2.12132 -2.12132 
C 1.55874 -2.683901 0.795609 -3 0 -3 
C -0.795609 -3 -1.55874 -2.683901 -2.12132 -2.12132 
C -2.683901 -1.55874 -3 -0.795609 -3 0 
C -3 0.795609 -2.683901 1.55874 -2.12132 2.12132 
C -1.55874 2.683901 -0.795609 3 0 3 
z
" id="med1193657d" style="stroke:#1f77b4;"/>
    </defs>
    <g clip-path="url(#p7079e373b5)">
     <use style="fill:#1f77b4;stroke:#1f77b4;" x="146.932048" xlink:href="#med1193657d" y="53.568"/>
     <use style="fill:#1f77b4;stroke:#1f77b4;" x="151.536756" xlink:href="#med1193657d" y="53.568"/>
     <use style="fill:#1f77b4;stroke:#1f77b4;" x="152.034945" xlink:href="#med1193657d" y="53.568"/>
     <use style="fill:#1f77b4;stroke:#1f77b4;" x="325.114864" xlink:href="#med1193657d" y="53.568"/>
     <use style="fill:#1f77b4;stroke:#1f77b4;" x="319.215259" xlink:href="#med1193657d" y="53.568"/>
     <use style="fill:#1f77b4;stroke:#1f77b4;" x="318.643965" xlink:href="#med1193657d" y="53.568"/>
     <use style="fill:#1f77b4;stroke:#1f77b4;" x="322.90151" xlink:href="#med1193657d" y="53.568"/>
     <use style="fill:#1f77b4;stroke:#1f77b4;" x="154.890586" xlink:href="#med1193657d" y="53.568"/>
     <use style="fill:#1f77b4;stroke:#1f77b4;" x="151.063235" xlink:href="#med1193657d" y="53.568"/>
     <use style="fill:#1f77b4;stroke:#1f77b4;" x="321.705479" xlink:href="#med1193657d" y="53.568"/>
     <use style="fill:#1f77b4;stroke:#1f77b4;" x="313.981847" xlink:href="#med1193657d" y="53.568"/>
     <use style="fill:#1f77b4;stroke:#1f77b4;" x="147.34807" xlink:href="#med1193657d" y="53.568"/>
     <use style="fill:#1f77b4;stroke:#1f77b4;" x="156.199893" xlink:href="#med1193657d" y="53.568"/>
     <use style="fill:#1f77b4;stroke:#1f77b4;" x="156.889608" xlink:href="#med1193657d" y="53.568"/>
     <use style="fill:#1f77b4;stroke:#1f77b4;" x="148.178174" xlink:href="#med1193657d" y="53.568"/>
     <use style="fill:#1f77b4;stroke:#1f77b4;" x="313.223438" xlink:href="#med1193657d" y="53.568"/>
     <use style="fill:#1f77b4;stroke:#1f77b4;" x="316.120107" xlink:href="#med1193657d" y="53.568"/>
     <use style="fill:#1f77b4;stroke:#1f77b4;" x="150.190745" xlink:href="#med1193657d" y="53.568"/>
     <use style="fill:#1f77b4;stroke:#1f77b4;" x="165.952635" xlink:href="#med1193657d" y="53.568"/>
     <use style="fill:#1f77b4;stroke:#1f77b4;" x="153.104741" xlink:href="#med1193657d" y="53.568"/>
     <use style="fill:#1f77b4;stroke:#1f77b4;" x="318.048625" xlink:href="#med1193657d" y="53.568"/>
     <use style="fill:#1f77b4;stroke:#1f77b4;" x="307.29876" xlink:href="#med1193657d" y="53.568"/>
     <use style="fill:#1f77b4;stroke:#1f77b4;" x="148.449989" xlink:href="#med1193657d" y="53.568"/>
     <use style="fill:#1f77b4;stroke:#1f77b4;" x="160.680546" xlink:href="#med1193657d" y="53.568"/>
     <use style="fill:#1f77b4;stroke:#1f77b4;" x="161.50566" xlink:href="#med1193657d" y="53.568"/>
     <use style="fill:#1f77b4;stroke:#1f77b4;" x="147.205136" xlink:href="#med1193657d" y="53.568"/>
     <use style="fill:#1f77b4;stroke:#1f77b4;" x="304.443454" xlink:href="#med1193657d" y="53.568"/>
     <use style="fill:#1f77b4;stroke:#1f77b4;" x="312.442564" xlink:href="#med1193657d" y="53.568"/>
     <use style="fill:#1f77b4;stroke:#1f77b4;" x="153.676035" xlink:href="#med1193657d" y="53.568"/>
     <use style="fill:#1f77b4;stroke:#1f77b4;" x="177.484856" xlink:href="#med1193657d" y="53.568"/>
     <use style="fill:#1f77b4;stroke:#1f77b4;" x="154.271375" xlink:href="#med1193657d" y="53.568"/>
     <use style="fill:#1f77b4;stroke:#1f77b4;" x="314.71757" xlink:href="#med1193657d" y="53.568"/>
     <use style="fill:#1f77b4;stroke:#1f77b4;" x="301.409035" xlink:href="#med1193657d" y="53.568"/>
     <use style="fill:#1f77b4;stroke:#1f77b4;" x="324.97193" xlink:href="#med1193657d" y="53.568"/>
     <use style="fill:#1f77b4;stroke:#1f77b4;" x="166.904496" xlink:href="#med1193657d" y="53.568"/>
     <use style="fill:#1f77b4;stroke:#1f77b4;" x="163.220928" xlink:href="#med1193657d" y="53.568"/>
     <use style="fill:#1f77b4;stroke:#1f77b4;" x="325.322906" xlink:href="#med1193657d" y="53.568"/>
     <use style="fill:#1f77b4;stroke:#1f77b4;" x="292.503532" xlink:href="#med1193657d" y="53.568"/>
     <use style="fill:#1f77b4;stroke:#1f77b4;" x="310.81434" xlink:href="#med1193657d" y="53.568"/>
     <use style="fill:#1f77b4;stroke:#1f77b4;" x="159.096562" xlink:href="#med1193657d" y="53.568"/>
     <use style="fill:#1f77b4;stroke:#1f77b4;" x="182.213775" xlink:href="#med1193657d" y="53.568"/>
     <use style="fill:#1f77b4;stroke:#1f77b4;" x="147.516894" xlink:href="#med1193657d" y="53.568"/>
     <use style="fill:#1f77b4;stroke:#1f77b4;" x="306.367365" xlink:href="#med1193657d" y="53.568"/>
     <use style="fill:#1f77b4;stroke:#1f77b4;" x="297.098345" xlink:href="#med1193657d" y="53.568"/>
     <use style="fill:#1f77b4;stroke:#1f77b4;" x="147.932007" xlink:href="#med1193657d" y="53.568"/>
     <use style="fill:#1f77b4;stroke:#1f77b4;" x="176.344537" xlink:href="#med1193657d" y="53.568"/>
     <use style="fill:#1f77b4;stroke:#1f77b4;" x="165.02124" xlink:href="#med1193657d" y="53.568"/>
     <use style="fill:#1f77b4;stroke:#1f77b4;" x="320.285055" xlink:href="#med1193657d" y="53.568"/>
     <use style="fill:#1f77b4;stroke:#1f77b4;" x="282.548455" xlink:href="#med1193657d" y="53.568"/>
     <use style="fill:#1f77b4;stroke:#1f77b4;" x="315.430392" xlink:href="#med1193657d" y="53.568"/>
     <use style="fill:#1f77b4;stroke:#1f77b4;" x="164.110582" xlink:href="#med1193657d" y="53.568"/>
     <use style="fill:#1f77b4;stroke:#1f77b4;" x="187.194217" xlink:href="#med1193657d" y="53.568"/>
     <use style="fill:#1f77b4;stroke:#1f77b4;" x="325.426987" xlink:href="#med1193657d" y="53.568"/>
     <use style="fill:#1f77b4;stroke:#1f77b4;" x="295.975463" xlink:href="#med1193657d" y="53.568"/>
     <use style="fill:#1f77b4;stroke:#1f77b4;" x="294.835144" xlink:href="#med1193657d" y="53.568"/>
     <use style="fill:#1f77b4;stroke:#1f77b4;" x="147.711559" xlink:href="#med1193657d" y="53.568"/>
     <use style="fill:#1f77b4;stroke:#1f77b4;" x="185.926777" xlink:href="#med1193657d" y="53.568"/>
     <use style="fill:#1f77b4;stroke:#1f77b4;" x="167.876546" xlink:href="#med1193657d" y="53.568"/>
     <use style="fill:#1f77b4;stroke:#1f77b4;" x="316.786512" xlink:href="#med1193657d" y="53.568"/>
     <use style="fill:#1f77b4;stroke:#1f77b4;" x="273.122153" xlink:href="#med1193657d" y="53.568"/>
     <use style="fill:#1f77b4;stroke:#1f77b4;" x="320.783244" xlink:href="#med1193657d" y="53.568"/>
     <use style="fill:#1f77b4;stroke:#1f77b4;" x="170.910965" xlink:href="#med1193657d" y="53.568"/>
     <use style="fill:#1f77b4;stroke:#1f77b4;" x="189.771545" xlink:href="#med1193657d" y="53.568"/>
     <use style="fill:#1f77b4;stroke:#1f77b4;" x="323.572627" xlink:href="#med1193657d" y="53.568"/>
     <use style="fill:#1f77b4;stroke:#1f77b4;" x="288.883807" xlink:href="#med1193657d" y="53.568"/>
     <use style="fill:#1f77b4;stroke:#1f77b4;" x="293.677722" xlink:href="#med1193657d" y="53.568"/>
     <use style="fill:#1f77b4;stroke:#1f77b4;" x="325.44" xlink:href="#med1193657d" y="295.488"/>
     <use style="fill:#1f77b4;stroke:#1f77b4;" x="196.444767" xlink:href="#med1193657d" y="53.568"/>
     <use style="fill:#1f77b4;stroke:#1f77b4;" x="159.877436" xlink:href="#med1193657d" y="53.568"/>
     <use style="fill:#1f77b4;stroke:#1f77b4;" x="302.439928" xlink:href="#med1193657d" y="53.568"/>
     <use style="fill:#1f77b4;stroke:#1f77b4;" x="274.504282" xlink:href="#med1193657d" y="53.568"/>
     <use style="fill:#1f77b4;stroke:#1f77b4;" x="325.231868" xlink:href="#med1193657d" y="53.568"/>
     <use style="fill:#1f77b4;stroke:#1f77b4;" x="181.007083" xlink:href="#med1193657d" y="53.568"/>
     <use style="fill:#1f77b4;stroke:#1f77b4;" x="184.673981" xlink:href="#med1193657d" y="53.568"/>
     <use style="fill:#1f77b4;stroke:#1f77b4;" x="146.893013" xlink:href="#med1193657d" y="53.568"/>
     <use style="fill:#1f77b4;stroke:#1f77b4;" x="277.234607" xlink:href="#med1193657d" y="53.568"/>
     <use style="fill:#1f77b4;stroke:#1f77b4;" x="299.290493" xlink:href="#med1193657d" y="53.568"/>
     <use style="fill:#1f77b4;stroke:#1f77b4;" x="174.116538" xlink:href="#med1193657d" y="53.568"/>
     <use style="fill:#1f77b4;stroke:#1f77b4;" x="206.261948" xlink:href="#med1193657d" y="53.568"/>
     <use style="fill:#1f77b4;stroke:#1f77b4;" x="171.960878" xlink:href="#med1193657d" y="53.568"/>
     <use style="fill:#1f77b4;stroke:#1f77b4;" x="300.359122" xlink:href="#med1193657d" y="53.568"/>
     <use style="fill:#1f77b4;stroke:#1f77b4;" x="270.325977" xlink:href="#med1193657d" y="53.568"/>
     <use style="fill:#1f77b4;stroke:#1f77b4;" x="325.387952" xlink:href="#med1193657d" y="53.568"/>
     <use style="fill:#1f77b4;stroke:#1f77b4;" x="188.475931" xlink:href="#med1193657d" y="53.568"/>
     <use style="fill:#1f77b4;stroke:#1f77b4;" x="195.085393" xlink:href="#med1193657d" y="53.568"/>
     <use style="fill:#1f77b4;stroke:#1f77b4;" x="147.088132" xlink:href="#med1193657d" y="53.568"/>
     <use style="fill:#1f77b4;stroke:#1f77b4;" x="268.912745" xlink:href="#med1193657d" y="53.568"/>
     <use style="fill:#1f77b4;stroke:#1f77b4;" x="290.106225" xlink:href="#med1193657d" y="53.568"/>
     <use style="fill:#1f77b4;stroke:#1f77b4;" x="321.256765" xlink:href="#med1193657d" y="53.568"/>
     <use style="fill:#1f77b4;stroke:#1f77b4;" x="210.608298" xlink:href="#med1193657d" y="53.568"/>
     <use style="fill:#1f77b4;stroke:#1f77b4;" x="152.557657" xlink:href="#med1193657d" y="53.568"/>
     <use style="fill:#1f77b4;stroke:#1f77b4;" x="286.393223" xlink:href="#med1193657d" y="53.568"/>
     <use style="fill:#1f77b4;stroke:#1f77b4;" x="278.582007" xlink:href="#med1193657d" y="53.568"/>
     <use style="fill:#1f77b4;stroke:#1f77b4;" x="324.387993" xlink:href="#med1193657d" y="53.568"/>
     <use style="fill:#1f77b4;stroke:#1f77b4;" x="199.197847" xlink:href="#med1193657d" y="53.568"/>
     <use style="fill:#1f77b4;stroke:#1f77b4;" x="192.40296" xlink:href="#med1193657d" y="53.568"/>
     <use style="fill:#1f77b4;stroke:#1f77b4;" x="308.209418" xlink:href="#med1193657d" y="53.568"/>
     <use style="fill:#1f77b4;stroke:#1f77b4;" x="260.247456" xlink:href="#med1193657d" y="53.568"/>
     <use style="fill:#1f77b4;stroke:#1f77b4;" x="305.415504" xlink:href="#med1193657d" y="53.568"/>
     <use style="fill:#1f77b4;stroke:#1f77b4;" x="162.352536" xlink:href="#med1193657d" y="53.568"/>
     <use style="fill:#1f77b4;stroke:#1f77b4;" x="213.543812" xlink:href="#med1193657d" y="53.568"/>
     <use style="fill:#1f77b4;stroke:#1f77b4;" x="323.249762" xlink:href="#med1193657d" y="53.568"/>
     <use style="fill:#1f77b4;stroke:#1f77b4;" x="279.91704" xlink:href="#med1193657d" y="53.568"/>
     <use style="fill:#1f77b4;stroke:#1f77b4;" x="267.489965" xlink:href="#med1193657d" y="53.568"/>
     <use style="fill:#1f77b4;stroke:#1f77b4;" x="323.870011" xlink:href="#med1193657d" y="53.568"/>
     <use style="fill:#1f77b4;stroke:#1f77b4;" x="204.830035" xlink:href="#med1193657d" y="53.568"/>
     <use style="fill:#1f77b4;stroke:#1f77b4;" x="179.816468" xlink:href="#med1193657d" y="53.568"/>
     <use style="fill:#1f77b4;stroke:#1f77b4;" x="324.608441" xlink:href="#med1193657d" y="53.568"/>
     <use style="fill:#1f77b4;stroke:#1f77b4;" x="255.814305" xlink:href="#med1193657d" y="53.568"/>
     <use style="fill:#1f77b4;stroke:#1f77b4;" x="275.875233" xlink:href="#med1193657d" y="53.568"/>
     <use style="fill:#1f77b4;stroke:#1f77b4;" x="178.642278" xlink:href="#med1193657d" y="53.568"/>
     <use style="fill:#1f77b4;stroke:#1f77b4;" x="215.021673" xlink:href="#med1193657d" y="53.568"/>
     <use style="fill:#1f77b4;stroke:#1f77b4;" x="324.803106" xlink:href="#med1193657d" y="53.568"/>
     <use style="fill:#1f77b4;stroke:#1f77b4;" x="266.058052" xlink:href="#med1193657d" y="53.568"/>
     <use style="fill:#1f77b4;stroke:#1f77b4;" x="281.239318" xlink:href="#med1193657d" y="53.568"/>
     <use style="fill:#1f77b4;stroke:#1f77b4;" x="298.203462" xlink:href="#med1193657d" y="53.568"/>
     <use style="fill:#1f77b4;stroke:#1f77b4;" x="212.072544" xlink:href="#med1193657d" y="53.568"/>
     <use style="fill:#1f77b4;stroke:#1f77b4;" x="169.880072" xlink:href="#med1193657d" y="53.568"/>
     <use style="fill:#1f77b4;stroke:#1f77b4;" x="173.029507" xlink:href="#med1193657d" y="53.568"/>
     <use style="fill:#1f77b4;stroke:#1f77b4;" x="254.324553" xlink:href="#med1193657d" y="53.568"/>
     <use style="fill:#1f77b4;stroke:#1f77b4;" x="146.88" xlink:href="#med1193657d" y="295.488"/>
     <use style="fill:#1f77b4;stroke:#1f77b4;" x="191.080682" xlink:href="#med1193657d" y="53.568"/>
     <use style="fill:#1f77b4;stroke:#1f77b4;" x="207.702577" xlink:href="#med1193657d" y="53.568"/>
     <use style="fill:#1f77b4;stroke:#1f77b4;" x="322.129255" xlink:href="#med1193657d" y="53.568"/>
     <use style="fill:#1f77b4;stroke:#1f77b4;" x="263.168499" xlink:href="#med1193657d" y="53.568"/>
     <use style="fill:#1f77b4;stroke:#1f77b4;" x="283.844069" xlink:href="#med1193657d" y="53.568"/>
     <use style="fill:#1f77b4;stroke:#1f77b4;" x="149.41849" xlink:href="#med1193657d" y="53.568"/>
     <use style="fill:#1f77b4;stroke:#1f77b4;" x="219.490494" xlink:href="#med1193657d" y="53.568"/>
     <use style="fill:#1f77b4;stroke:#1f77b4;" x="311.639454" xlink:href="#med1193657d" y="53.568"/>
     <use style="fill:#1f77b4;stroke:#1f77b4;" x="150.614521" xlink:href="#med1193657d" y="53.568"/>
     <use style="fill:#1f77b4;stroke:#1f77b4;" x="251.329599" xlink:href="#med1193657d" y="53.568"/>
     <use style="fill:#1f77b4;stroke:#1f77b4;" x="220.990401" xlink:href="#med1193657d" y="53.568"/>
     <use style="fill:#1f77b4;stroke:#1f77b4;" x="193.737993" xlink:href="#med1193657d" y="53.568"/>
     <use style="fill:#1f77b4;stroke:#1f77b4;" x="200.590751" xlink:href="#med1193657d" y="53.568"/>
     <use style="fill:#1f77b4;stroke:#1f77b4;" x="146.997094" xlink:href="#med1193657d" y="53.568"/>
     <use style="fill:#1f77b4;stroke:#1f77b4;" x="252.829506" xlink:href="#med1193657d" y="53.568"/>
     <use style="fill:#1f77b4;stroke:#1f77b4;" x="264.617423" xlink:href="#med1193657d" y="53.568"/>
     <use style="fill:#1f77b4;stroke:#1f77b4;" x="168.868501" xlink:href="#med1193657d" y="53.568"/>
     <use style="fill:#1f77b4;stroke:#1f77b4;" x="222.494729" xlink:href="#med1193657d" y="53.568"/>
     <use style="fill:#1f77b4;stroke:#1f77b4;" x="271.729249" xlink:href="#med1193657d" y="53.568"/>
     <use style="fill:#1f77b4;stroke:#1f77b4;" x="309.967464" xlink:href="#med1193657d" y="53.568"/>
     <use style="fill:#1f77b4;stroke:#1f77b4;" x="248.316958" xlink:href="#med1193657d" y="53.568"/>
     <use style="fill:#1f77b4;stroke:#1f77b4;" x="319.762343" xlink:href="#med1193657d" y="53.568"/>
     <use style="fill:#1f77b4;stroke:#1f77b4;" x="201.994023" xlink:href="#med1193657d" y="53.568"/>
     <use style="fill:#1f77b4;stroke:#1f77b4;" x="217.995447" xlink:href="#med1193657d" y="53.568"/>
     <use style="fill:#1f77b4;stroke:#1f77b4;" x="324.141826" xlink:href="#med1193657d" y="53.568"/>
     <use style="fill:#1f77b4;stroke:#1f77b4;" x="249.825271" xlink:href="#med1193657d" y="53.568"/>
     <use style="fill:#1f77b4;stroke:#1f77b4;" x="148.747373" xlink:href="#med1193657d" y="53.568"/>
     <use style="fill:#1f77b4;stroke:#1f77b4;" x="309.099072" xlink:href="#med1193657d" y="53.568"/>
     <use style="fill:#1f77b4;stroke:#1f77b4;" x="227.029857" xlink:href="#med1193657d" y="53.568"/>
     <use style="fill:#1f77b4;stroke:#1f77b4;" x="155.533488" xlink:href="#med1193657d" y="53.568"/>
     <use style="fill:#1f77b4;stroke:#1f77b4;" x="234.635719" xlink:href="#med1193657d" y="53.568"/>
     <use style="fill:#1f77b4;stroke:#1f77b4;" x="240.731067" xlink:href="#med1193657d" y="53.568"/>
     <use style="fill:#1f77b4;stroke:#1f77b4;" x="237.684281" xlink:href="#med1193657d" y="53.568"/>
     <use style="fill:#1f77b4;stroke:#1f77b4;" x="224.003042" xlink:href="#med1193657d" y="53.568"/>
     <use style="fill:#1f77b4;stroke:#1f77b4;" x="197.815718" xlink:href="#med1193657d" y="53.568"/>
     <use style="fill:#1f77b4;stroke:#1f77b4;" x="149.792029" xlink:href="#med1193657d" y="53.568"/>
     <use style="fill:#1f77b4;stroke:#1f77b4;" x="243.772523" xlink:href="#med1193657d" y="53.568"/>
     <use style="fill:#1f77b4;stroke:#1f77b4;" x="228.547477" xlink:href="#med1193657d" y="53.568"/>
     <use style="fill:#1f77b4;stroke:#1f77b4;" x="303.451499" xlink:href="#med1193657d" y="53.568"/>
     <use style="fill:#1f77b4;stroke:#1f77b4;" x="233.111882" xlink:href="#med1193657d" y="53.568"/>
     <use style="fill:#1f77b4;stroke:#1f77b4;" x="239.208118" xlink:href="#med1193657d" y="53.568"/>
     <use style="fill:#1f77b4;stroke:#1f77b4;" x="285.125783" xlink:href="#med1193657d" y="53.568"/>
     <use style="fill:#1f77b4;stroke:#1f77b4;" x="258.776188" xlink:href="#med1193657d" y="53.568"/>
     <use style="fill:#1f77b4;stroke:#1f77b4;" x="183.436193" xlink:href="#med1193657d" y="53.568"/>
     <use style="fill:#1f77b4;stroke:#1f77b4;" x="203.407255" xlink:href="#med1193657d" y="53.568"/>
     <use style="fill:#1f77b4;stroke:#1f77b4;" x="322.527971" xlink:href="#med1193657d" y="53.568"/>
     <use style="fill:#1f77b4;stroke:#1f77b4;" x="216.505695" xlink:href="#med1193657d" y="53.568"/>
     <use style="fill:#1f77b4;stroke:#1f77b4;" x="242.252683" xlink:href="#med1193657d" y="53.568"/>
     <use style="fill:#1f77b4;stroke:#1f77b4;" x="157.60243" xlink:href="#med1193657d" y="53.568"/>
     <use style="fill:#1f77b4;stroke:#1f77b4;" x="261.711702" xlink:href="#med1193657d" y="53.568"/>
     <use style="fill:#1f77b4;stroke:#1f77b4;" x="209.151501" xlink:href="#med1193657d" y="53.568"/>
     <use style="fill:#1f77b4;stroke:#1f77b4;" x="158.338153" xlink:href="#med1193657d" y="53.568"/>
     <use style="fill:#1f77b4;stroke:#1f77b4;" x="257.298327" xlink:href="#med1193657d" y="53.568"/>
     <use style="fill:#1f77b4;stroke:#1f77b4;" x="236.16" xlink:href="#med1193657d" y="53.568"/>
     <use style="fill:#1f77b4;stroke:#1f77b4;" x="317.429414" xlink:href="#med1193657d" y="53.568"/>
     <use style="fill:#1f77b4;stroke:#1f77b4;" x="231.588933" xlink:href="#med1193657d" y="53.568"/>
     <use style="fill:#1f77b4;stroke:#1f77b4;" x="230.067317" xlink:href="#med1193657d" y="53.568"/>
     <use style="fill:#1f77b4;stroke:#1f77b4;" x="149.070238" xlink:href="#med1193657d" y="53.568"/>
     <use style="fill:#1f77b4;stroke:#1f77b4;" x="245.290143" xlink:href="#med1193657d" y="53.568"/>
     <use style="fill:#1f77b4;stroke:#1f77b4;" x="287.646019" xlink:href="#med1193657d" y="53.568"/>
     <use style="fill:#1f77b4;stroke:#1f77b4;" x="291.312917" xlink:href="#med1193657d" y="53.568"/>
     <use style="fill:#1f77b4;stroke:#1f77b4;" x="225.514898" xlink:href="#med1193657d" y="53.568"/>
     <use style="fill:#1f77b4;stroke:#1f77b4;" x="175.221655" xlink:href="#med1193657d" y="53.568"/>
     <use style="fill:#1f77b4;stroke:#1f77b4;" x="246.805102" xlink:href="#med1193657d" y="53.568"/>
    </g>
   </g>
   <g id="patch_3">
    <path d="M 57.6 307.584 
L 57.6 41.472 
" style="fill:none;stroke:#000000;stroke-linecap:square;stroke-linejoin:miter;stroke-width:0.8;"/>
   </g>
   <g id="patch_4">
    <path d="M 414.72 307.584 
L 414.72 41.472 
" style="fill:none;stroke:#000000;stroke-linecap:square;stroke-linejoin:miter;stroke-width:0.8;"/>
   </g>
   <g id="patch_5">
    <path d="M 57.6 307.584 
L 414.72 307.584 
" style="fill:none;stroke:#000000;stroke-linecap:square;stroke-linejoin:miter;stroke-width:0.8;"/>
   </g>
   <g id="patch_6">
    <path d="M 57.6 41.472 
L 414.72 41.472 
" style="fill:none;stroke:#000000;stroke-linecap:square;stroke-linejoin:miter;stroke-width:0.8;"/>
   </g>
  </g>
 </g>
 <defs>
  <clipPath id="p7079e373b5">
   <rect height="266.112" width="357.12" x="57.6" y="41.472"/>
  </clipPath>
 </defs>
</svg>
