<?xml version="1.0" encoding="utf-8" standalone="no"?>
<!DOCTYPE svg PUBLIC "-//W3C//DTD SVG 1.1//EN"
  "http://www.w3.org/Graphics/SVG/1.1/DTD/svg11.dtd">
<!-- Created with matplotlib (http://matplotlib.org/) -->
<svg height="345pt" version="1.1" viewBox="0 0 460 345" width="460pt" xmlns="http://www.w3.org/2000/svg" xmlns:xlink="http://www.w3.org/1999/xlink">
 <defs>
  <style type="text/css">
*{stroke-linecap:butt;stroke-linejoin:round;}
  </style>
 </defs>
 <g id="figure_1">
  <g id="patch_1">
   <path d="M 0 345.6 
L 460.8 345.6 
L 460.8 0 
L 0 0 
z
" style="fill:#ffffff;"/>
  </g>
  <g id="axes_1">
   <g id="patch_2">
    <path d="M 57.6 307.584 
L 414.72 307.584 
L 414.72 41.472 
L 57.6 41.472 
z
" style="fill:#ffffff;"/>
   </g>
   <g id="matplotlib.axis_1">
    <g id="xtick_1">
     <g id="line2d_1">
      <path clip-path="url(#p3daf81856c)" d="M 57.6 307.584 
L 57.6 41.472 
" style="fill:none;stroke:#b0b0b0;stroke-linecap:square;stroke-width:0.8;"/>
     </g>
     <g id="line2d_2">
      <defs>
       <path d="M 0 0 
L 0 3.5 
" id="m55da3952e6" style="stroke:#000000;stroke-width:0.8;"/>
      </defs>
      <g>
       <use style="stroke:#000000;stroke-width:0.8;" x="57.6" xlink:href="#m55da3952e6" y="307.584"/>
      </g>
     </g>
     <g id="text_1">
      <!-- −2.0 -->
      <defs>
       <path d="M 10.59375 35.5 
L 73.1875 35.5 
L 73.1875 27.203125 
L 10.59375 27.203125 
z
" id="DejaVuSans-2212"/>
       <path d="M 19.1875 8.296875 
L 53.609375 8.296875 
L 53.609375 0 
L 7.328125 0 
L 7.328125 8.296875 
Q 12.9375 14.109375 22.625 23.890625 
Q 32.328125 33.6875 34.8125 36.53125 
Q 39.546875 41.84375 41.421875 45.53125 
Q 43.3125 49.21875 43.3125 52.78125 
Q 43.3125 58.59375 39.234375 62.25 
Q 35.15625 65.921875 28.609375 65.921875 
Q 23.96875 65.921875 18.8125 64.3125 
Q 13.671875 62.703125 7.8125 59.421875 
L 7.8125 69.390625 
Q 13.765625 71.78125 18.9375 73 
Q 24.125 74.21875 28.421875 74.21875 
Q 39.75 74.21875 46.484375 68.546875 
Q 53.21875 62.890625 53.21875 53.421875 
Q 53.21875 48.921875 51.53125 44.890625 
Q 49.859375 40.875 45.40625 35.40625 
Q 44.1875 33.984375 37.640625 27.21875 
Q 31.109375 20.453125 19.1875 8.296875 
" id="DejaVuSans-32"/>
       <path d="M 10.6875 12.40625 
L 21 12.40625 
L 21 0 
L 10.6875 0 
z
" id="DejaVuSans-2e"/>
       <path d="M 31.78125 66.40625 
Q 24.171875 66.40625 20.328125 58.90625 
Q 16.5 51.421875 16.5 36.375 
Q 16.5 21.390625 20.328125 13.890625 
Q 24.171875 6.390625 31.78125 6.390625 
Q 39.453125 6.390625 43.28125 13.890625 
Q 47.125 21.390625 47.125 36.375 
Q 47.125 51.421875 43.28125 58.90625 
Q 39.453125 66.40625 31.78125 66.40625 
M 31.78125 74.21875 
Q 44.046875 74.21875 50.515625 64.515625 
Q 56.984375 54.828125 56.984375 36.375 
Q 56.984375 17.96875 50.515625 8.265625 
Q 44.046875 -1.421875 31.78125 -1.421875 
Q 19.53125 -1.421875 13.0625 8.265625 
Q 6.59375 17.96875 6.59375 36.375 
Q 6.59375 54.828125 13.0625 64.515625 
Q 19.53125 74.21875 31.78125 74.21875 
" id="DejaVuSans-30"/>
      </defs>
      <g transform="translate(45.458594 322.182437)scale(0.1 -0.1)">
       <use xlink:href="#DejaVuSans-2212"/>
       <use x="83.789062" xlink:href="#DejaVuSans-32"/>
       <use x="147.412109" xlink:href="#DejaVuSans-2e"/>
       <use x="179.199219" xlink:href="#DejaVuSans-30"/>
      </g>
     </g>
    </g>
    <g id="xtick_2">
     <g id="line2d_3">
      <path clip-path="url(#p3daf81856c)" d="M 102.24 307.584 
L 102.24 41.472 
" style="fill:none;stroke:#b0b0b0;stroke-linecap:square;stroke-width:0.8;"/>
     </g>
     <g id="line2d_4">
      <g>
       <use style="stroke:#000000;stroke-width:0.8;" x="102.24" xlink:href="#m55da3952e6" y="307.584"/>
      </g>
     </g>
     <g id="text_2">
      <!-- −1.5 -->
      <defs>
       <path d="M 12.40625 8.296875 
L 28.515625 8.296875 
L 28.515625 63.921875 
L 10.984375 60.40625 
L 10.984375 69.390625 
L 28.421875 72.90625 
L 38.28125 72.90625 
L 38.28125 8.296875 
L 54.390625 8.296875 
L 54.390625 0 
L 12.40625 0 
z
" id="DejaVuSans-31"/>
       <path d="M 10.796875 72.90625 
L 49.515625 72.90625 
L 49.515625 64.59375 
L 19.828125 64.59375 
L 19.828125 46.734375 
Q 21.96875 47.46875 24.109375 47.828125 
Q 26.265625 48.1875 28.421875 48.1875 
Q 40.625 48.1875 47.75 41.5 
Q 54.890625 34.8125 54.890625 23.390625 
Q 54.890625 11.625 47.5625 5.09375 
Q 40.234375 -1.421875 26.90625 -1.421875 
Q 22.3125 -1.421875 17.546875 -0.640625 
Q 12.796875 0.140625 7.71875 1.703125 
L 7.71875 11.625 
Q 12.109375 9.234375 16.796875 8.0625 
Q 21.484375 6.890625 26.703125 6.890625 
Q 35.15625 6.890625 40.078125 11.328125 
Q 45.015625 15.765625 45.015625 23.390625 
Q 45.015625 31 40.078125 35.4375 
Q 35.15625 39.890625 26.703125 39.890625 
Q 22.75 39.890625 18.8125 39.015625 
Q 14.890625 38.140625 10.796875 36.28125 
z
" id="DejaVuSans-35"/>
      </defs>
      <g transform="translate(90.098594 322.182437)scale(0.1 -0.1)">
       <use xlink:href="#DejaVuSans-2212"/>
       <use x="83.789062" xlink:href="#DejaVuSans-31"/>
       <use x="147.412109" xlink:href="#DejaVuSans-2e"/>
       <use x="179.199219" xlink:href="#DejaVuSans-35"/>
      </g>
     </g>
    </g>
    <g id="xtick_3">
     <g id="line2d_5">
      <path clip-path="url(#p3daf81856c)" d="M 146.88 307.584 
L 146.88 41.472 
" style="fill:none;stroke:#b0b0b0;stroke-linecap:square;stroke-width:0.8;"/>
     </g>
     <g id="line2d_6">
      <g>
       <use style="stroke:#000000;stroke-width:0.8;" x="146.88" xlink:href="#m55da3952e6" y="307.584"/>
      </g>
     </g>
     <g id="text_3">
      <!-- −1.0 -->
      <g transform="translate(134.738594 322.182437)scale(0.1 -0.1)">
       <use xlink:href="#DejaVuSans-2212"/>
       <use x="83.789062" xlink:href="#DejaVuSans-31"/>
       <use x="147.412109" xlink:href="#DejaVuSans-2e"/>
       <use x="179.199219" xlink:href="#DejaVuSans-30"/>
      </g>
     </g>
    </g>
    <g id="xtick_4">
     <g id="line2d_7">
      <path clip-path="url(#p3daf81856c)" d="M 191.52 307.584 
L 191.52 41.472 
" style="fill:none;stroke:#b0b0b0;stroke-linecap:square;stroke-width:0.8;"/>
     </g>
     <g id="line2d_8">
      <g>
       <use style="stroke:#000000;stroke-width:0.8;" x="191.52" xlink:href="#m55da3952e6" y="307.584"/>
      </g>
     </g>
     <g id="text_4">
      <!-- −0.5 -->
      <g transform="translate(179.378594 322.182437)scale(0.1 -0.1)">
       <use xlink:href="#DejaVuSans-2212"/>
       <use x="83.789062" xlink:href="#DejaVuSans-30"/>
       <use x="147.412109" xlink:href="#DejaVuSans-2e"/>
       <use x="179.199219" xlink:href="#DejaVuSans-35"/>
      </g>
     </g>
    </g>
    <g id="xtick_5">
     <g id="line2d_9">
      <path clip-path="url(#p3daf81856c)" d="M 236.16 307.584 
L 236.16 41.472 
" style="fill:none;stroke:#b0b0b0;stroke-linecap:square;stroke-width:0.8;"/>
     </g>
     <g id="line2d_10">
      <g>
       <use style="stroke:#000000;stroke-width:0.8;" x="236.16" xlink:href="#m55da3952e6" y="307.584"/>
      </g>
     </g>
     <g id="text_5">
      <!-- 0.0 -->
      <g transform="translate(228.208438 322.182437)scale(0.1 -0.1)">
       <use xlink:href="#DejaVuSans-30"/>
       <use x="63.623047" xlink:href="#DejaVuSans-2e"/>
       <use x="95.410156" xlink:href="#DejaVuSans-30"/>
      </g>
     </g>
    </g>
    <g id="xtick_6">
     <g id="line2d_11">
      <path clip-path="url(#p3daf81856c)" d="M 280.8 307.584 
L 280.8 41.472 
" style="fill:none;stroke:#b0b0b0;stroke-linecap:square;stroke-width:0.8;"/>
     </g>
     <g id="line2d_12">
      <g>
       <use style="stroke:#000000;stroke-width:0.8;" x="280.8" xlink:href="#m55da3952e6" y="307.584"/>
      </g>
     </g>
     <g id="text_6">
      <!-- 0.5 -->
      <g transform="translate(272.848437 322.182437)scale(0.1 -0.1)">
       <use xlink:href="#DejaVuSans-30"/>
       <use x="63.623047" xlink:href="#DejaVuSans-2e"/>
       <use x="95.410156" xlink:href="#DejaVuSans-35"/>
      </g>
     </g>
    </g>
    <g id="xtick_7">
     <g id="line2d_13">
      <path clip-path="url(#p3daf81856c)" d="M 325.44 307.584 
L 325.44 41.472 
" style="fill:none;stroke:#b0b0b0;stroke-linecap:square;stroke-width:0.8;"/>
     </g>
     <g id="line2d_14">
      <g>
       <use style="stroke:#000000;stroke-width:0.8;" x="325.44" xlink:href="#m55da3952e6" y="307.584"/>
      </g>
     </g>
     <g id="text_7">
      <!-- 1.0 -->
      <g transform="translate(317.488437 322.182437)scale(0.1 -0.1)">
       <use xlink:href="#DejaVuSans-31"/>
       <use x="63.623047" xlink:href="#DejaVuSans-2e"/>
       <use x="95.410156" xlink:href="#DejaVuSans-30"/>
      </g>
     </g>
    </g>
    <g id="xtick_8">
     <g id="line2d_15">
      <path clip-path="url(#p3daf81856c)" d="M 370.08 307.584 
L 370.08 41.472 
" style="fill:none;stroke:#b0b0b0;stroke-linecap:square;stroke-width:0.8;"/>
     </g>
     <g id="line2d_16">
      <g>
       <use style="stroke:#000000;stroke-width:0.8;" x="370.08" xlink:href="#m55da3952e6" y="307.584"/>
      </g>
     </g>
     <g id="text_8">
      <!-- 1.5 -->
      <g transform="translate(362.128438 322.182437)scale(0.1 -0.1)">
       <use xlink:href="#DejaVuSans-31"/>
       <use x="63.623047" xlink:href="#DejaVuSans-2e"/>
       <use x="95.410156" xlink:href="#DejaVuSans-35"/>
      </g>
     </g>
    </g>
    <g id="xtick_9">
     <g id="line2d_17">
      <path clip-path="url(#p3daf81856c)" d="M 414.72 307.584 
L 414.72 41.472 
" style="fill:none;stroke:#b0b0b0;stroke-linecap:square;stroke-width:0.8;"/>
     </g>
     <g id="line2d_18">
      <g>
       <use style="stroke:#000000;stroke-width:0.8;" x="414.72" xlink:href="#m55da3952e6" y="307.584"/>
      </g>
     </g>
     <g id="text_9">
      <!-- 2.0 -->
      <g transform="translate(406.768438 322.182437)scale(0.1 -0.1)">
       <use xlink:href="#DejaVuSans-32"/>
       <use x="63.623047" xlink:href="#DejaVuSans-2e"/>
       <use x="95.410156" xlink:href="#DejaVuSans-30"/>
      </g>
     </g>
    </g>
    <g id="text_10">
     <!-- $\gamma_i$ -->
     <defs>
      <path d="M 23.296875 46.09375 
L 28.71875 12.3125 
L 54 54.6875 
L 63.53125 54.6875 
L 30.8125 0 
L 26.765625 -20.796875 
L 17.78125 -20.796875 
L 21.828125 0 
L 15.4375 40.828125 
Q 14.453125 46.96875 9.8125 46.96875 
L 7.421875 46.96875 
L 8.890625 54.6875 
L 12.3125 54.6875 
Q 21.921875 54.6875 23.296875 46.09375 
" id="DejaVuSans-Oblique-3b3"/>
      <path d="M 18.3125 75.984375 
L 27.296875 75.984375 
L 25.09375 64.59375 
L 16.109375 64.59375 
z
M 14.203125 54.6875 
L 23.1875 54.6875 
L 12.5 0 
L 3.515625 0 
z
" id="DejaVuSans-Oblique-69"/>
     </defs>
     <g transform="translate(232.06 335.84025)scale(0.1 -0.1)">
      <use transform="translate(0 0.3125)" xlink:href="#DejaVuSans-Oblique-3b3"/>
      <use transform="translate(59.179688 -16.09375)scale(0.7)" xlink:href="#DejaVuSans-Oblique-69"/>
     </g>
    </g>
   </g>
   <g id="matplotlib.axis_2">
    <g id="ytick_1">
     <g id="line2d_19">
      <defs>
       <path d="M 0 0 
L -2 0 
" id="ma2f2c62ec2" style="stroke:#000000;stroke-width:0.6;"/>
      </defs>
      <g>
       <use style="stroke:#000000;stroke-width:0.6;" x="57.6" xlink:href="#ma2f2c62ec2" y="227.23191"/>
      </g>
     </g>
     <g id="text_11">
      <!-- ${4\times10^{-3}}$ -->
      <defs>
       <path d="M 37.796875 64.3125 
L 12.890625 25.390625 
L 37.796875 25.390625 
z
M 35.203125 72.90625 
L 47.609375 72.90625 
L 47.609375 25.390625 
L 58.015625 25.390625 
L 58.015625 17.1875 
L 47.609375 17.1875 
L 47.609375 0 
L 37.796875 0 
L 37.796875 17.1875 
L 4.890625 17.1875 
L 4.890625 26.703125 
z
" id="DejaVuSans-34"/>
       <path d="M 70.125 53.71875 
L 47.796875 31.296875 
L 70.125 8.984375 
L 64.3125 3.078125 
L 41.890625 25.484375 
L 19.484375 3.078125 
L 13.71875 8.984375 
L 35.984375 31.296875 
L 13.71875 53.71875 
L 19.484375 59.625 
L 41.890625 37.203125 
L 64.3125 59.625 
z
" id="DejaVuSans-d7"/>
       <path d="M 40.578125 39.3125 
Q 47.65625 37.796875 51.625 33 
Q 55.609375 28.21875 55.609375 21.1875 
Q 55.609375 10.40625 48.1875 4.484375 
Q 40.765625 -1.421875 27.09375 -1.421875 
Q 22.515625 -1.421875 17.65625 -0.515625 
Q 12.796875 0.390625 7.625 2.203125 
L 7.625 11.71875 
Q 11.71875 9.328125 16.59375 8.109375 
Q 21.484375 6.890625 26.8125 6.890625 
Q 36.078125 6.890625 40.9375 10.546875 
Q 45.796875 14.203125 45.796875 21.1875 
Q 45.796875 27.640625 41.28125 31.265625 
Q 36.765625 34.90625 28.71875 34.90625 
L 20.21875 34.90625 
L 20.21875 43.015625 
L 29.109375 43.015625 
Q 36.375 43.015625 40.234375 45.921875 
Q 44.09375 48.828125 44.09375 54.296875 
Q 44.09375 59.90625 40.109375 62.90625 
Q 36.140625 65.921875 28.71875 65.921875 
Q 24.65625 65.921875 20.015625 65.03125 
Q 15.375 64.15625 9.8125 62.3125 
L 9.8125 71.09375 
Q 15.4375 72.65625 20.34375 73.4375 
Q 25.25 74.21875 29.59375 74.21875 
Q 40.828125 74.21875 47.359375 69.109375 
Q 53.90625 64.015625 53.90625 55.328125 
Q 53.90625 49.265625 50.4375 45.09375 
Q 46.96875 40.921875 40.578125 39.3125 
" id="DejaVuSans-33"/>
      </defs>
      <g transform="translate(10.1 231.031129)scale(0.1 -0.1)">
       <use transform="translate(0 0.765625)" xlink:href="#DejaVuSans-34"/>
       <use transform="translate(83.105469 0.765625)" xlink:href="#DejaVuSans-d7"/>
       <use transform="translate(186.376953 0.765625)" xlink:href="#DejaVuSans-31"/>
       <use transform="translate(250 0.765625)" xlink:href="#DejaVuSans-30"/>
       <use transform="translate(314.580078 39.046875)scale(0.7)" xlink:href="#DejaVuSans-2212"/>
       <use transform="translate(373.232422 39.046875)scale(0.7)" xlink:href="#DejaVuSans-33"/>
      </g>
     </g>
    </g>
    <g id="ytick_2">
     <g id="line2d_20">
      <g>
       <use style="stroke:#000000;stroke-width:0.6;" x="57.6" xlink:href="#ma2f2c62ec2" y="149.351065"/>
      </g>
     </g>
     <g id="text_12">
      <!-- ${5\times10^{-3}}$ -->
      <g transform="translate(10.1 153.150284)scale(0.1 -0.1)">
       <use transform="translate(0 0.765625)" xlink:href="#DejaVuSans-35"/>
       <use transform="translate(83.105469 0.765625)" xlink:href="#DejaVuSans-d7"/>
       <use transform="translate(186.376953 0.765625)" xlink:href="#DejaVuSans-31"/>
       <use transform="translate(250 0.765625)" xlink:href="#DejaVuSans-30"/>
       <use transform="translate(314.580078 39.046875)scale(0.7)" xlink:href="#DejaVuSans-2212"/>
       <use transform="translate(373.232422 39.046875)scale(0.7)" xlink:href="#DejaVuSans-33"/>
      </g>
     </g>
    </g>
    <g id="ytick_3">
     <g id="line2d_21">
      <g>
       <use style="stroke:#000000;stroke-width:0.6;" x="57.6" xlink:href="#ma2f2c62ec2" y="85.717782"/>
      </g>
     </g>
     <g id="text_13">
      <!-- ${6\times10^{-3}}$ -->
      <defs>
       <path d="M 33.015625 40.375 
Q 26.375 40.375 22.484375 35.828125 
Q 18.609375 31.296875 18.609375 23.390625 
Q 18.609375 15.53125 22.484375 10.953125 
Q 26.375 6.390625 33.015625 6.390625 
Q 39.65625 6.390625 43.53125 10.953125 
Q 47.40625 15.53125 47.40625 23.390625 
Q 47.40625 31.296875 43.53125 35.828125 
Q 39.65625 40.375 33.015625 40.375 
M 52.59375 71.296875 
L 52.59375 62.3125 
Q 48.875 64.0625 45.09375 64.984375 
Q 41.3125 65.921875 37.59375 65.921875 
Q 27.828125 65.921875 22.671875 59.328125 
Q 17.53125 52.734375 16.796875 39.40625 
Q 19.671875 43.65625 24.015625 45.921875 
Q 28.375 48.1875 33.59375 48.1875 
Q 44.578125 48.1875 50.953125 41.515625 
Q 57.328125 34.859375 57.328125 23.390625 
Q 57.328125 12.15625 50.6875 5.359375 
Q 44.046875 -1.421875 33.015625 -1.421875 
Q 20.359375 -1.421875 13.671875 8.265625 
Q 6.984375 17.96875 6.984375 36.375 
Q 6.984375 53.65625 15.1875 63.9375 
Q 23.390625 74.21875 37.203125 74.21875 
Q 40.921875 74.21875 44.703125 73.484375 
Q 48.484375 72.75 52.59375 71.296875 
" id="DejaVuSans-36"/>
      </defs>
      <g transform="translate(10.1 89.517001)scale(0.1 -0.1)">
       <use transform="translate(0 0.765625)" xlink:href="#DejaVuSans-36"/>
       <use transform="translate(83.105469 0.765625)" xlink:href="#DejaVuSans-d7"/>
       <use transform="translate(186.376953 0.765625)" xlink:href="#DejaVuSans-31"/>
       <use transform="translate(250 0.765625)" xlink:href="#DejaVuSans-30"/>
       <use transform="translate(314.580078 39.046875)scale(0.7)" xlink:href="#DejaVuSans-2212"/>
       <use transform="translate(373.232422 39.046875)scale(0.7)" xlink:href="#DejaVuSans-33"/>
      </g>
     </g>
    </g>
    <g id="text_14">
     <!-- $\omega_i$ -->
     <defs>
      <path d="M 21.390625 -1.421875 
Q 1.125 -1.421875 6.78125 27.59375 
Q 8.984375 39.0625 19.625 54.6875 
L 29.296875 54.6875 
Q 19.234375 39.0625 17 27.34375 
Q 12.796875 6.203125 23.734375 6.203125 
Q 33.84375 6.203125 38.71875 32.46875 
L 47.015625 32.46875 
Q 41.703125 6.0625 51.8125 6.203125 
Q 62.703125 6.296875 66.796875 27.34375 
Q 69.046875 39.0625 65.140625 54.6875 
L 74.8125 54.6875 
Q 79.296875 39.0625 77.09375 27.59375 
Q 71.53125 -1.46875 51.21875 -1.421875 
Q 37.9375 -1.375 39.109375 13.1875 
Q 34.28125 -1.421875 21.390625 -1.421875 
" id="DejaVuSans-Oblique-3c9"/>
     </defs>
     <g transform="translate(4.020313 179.828)rotate(-90)scale(0.1 -0.1)">
      <use transform="translate(0 0.3125)" xlink:href="#DejaVuSans-Oblique-3c9"/>
      <use transform="translate(83.740234 -16.09375)scale(0.7)" xlink:href="#DejaVuSans-Oblique-69"/>
     </g>
    </g>
   </g>
   <g id="line2d_22">
    <defs>
     <path d="M 0 3 
C 0.795609 3 1.55874 2.683901 2.12132 2.12132 
C 2.683901 1.55874 3 0.795609 3 0 
C 3 -0.795609 2.683901 -1.55874 2.12132 -2.12132 
C 1.55874 -2.683901 0.795609 -3 0 -3 
C -0.795609 -3 -1.55874 -2.683901 -2.12132 -2.12132 
C -2.683901 -1.55874 -3 -0.795609 -3 0 
C -3 0.795609 -2.683901 1.55874 -2.12132 2.12132 
C -1.55874 2.683901 -0.795609 3 0 3 
z
" id="m8841ca5de0" style="stroke:#1f77b4;"/>
    </defs>
    <g clip-path="url(#p3daf81856c)">
     <use style="fill:#1f77b4;stroke:#1f77b4;" x="147.184936" xlink:href="#m8841ca5de0" y="53.568"/>
     <use style="fill:#1f77b4;stroke:#1f77b4;" x="151.136356" xlink:href="#m8841ca5de0" y="53.568"/>
     <use style="fill:#1f77b4;stroke:#1f77b4;" x="151.717437" xlink:href="#m8841ca5de0" y="53.568"/>
     <use style="fill:#1f77b4;stroke:#1f77b4;" x="147.05157" xlink:href="#m8841ca5de0" y="53.568"/>
     <use style="fill:#1f77b4;stroke:#1f77b4;" x="318.643965" xlink:href="#m8841ca5de0" y="53.568"/>
     <use style="fill:#1f77b4;stroke:#1f77b4;" x="317.920243" xlink:href="#m8841ca5de0" y="53.568"/>
     <use style="fill:#1f77b4;stroke:#1f77b4;" x="148.097663" xlink:href="#m8841ca5de0" y="53.568"/>
     <use style="fill:#1f77b4;stroke:#1f77b4;" x="155.158405" xlink:href="#m8841ca5de0" y="53.568"/>
     <use style="fill:#1f77b4;stroke:#1f77b4;" x="152.987548" xlink:href="#m8841ca5de0" y="53.568"/>
     <use style="fill:#1f77b4;stroke:#1f77b4;" x="321.183644" xlink:href="#m8841ca5de0" y="53.568"/>
     <use style="fill:#1f77b4;stroke:#1f77b4;" x="312.856337" xlink:href="#m8841ca5de0" y="53.568"/>
     <use style="fill:#1f77b4;stroke:#1f77b4;" x="178.458404" xlink:href="#m8841ca5de0" y="53.568"/>
     <use style="fill:#1f77b4;stroke:#1f77b4;" x="152.334588" xlink:href="#m8841ca5de0" y="53.568"/>
     <use style="fill:#1f77b4;stroke:#1f77b4;" x="155.951653" xlink:href="#m8841ca5de0" y="53.568"/>
     <use style="fill:#1f77b4;stroke:#1f77b4;" x="324.963689" xlink:href="#m8841ca5de0" y="53.568"/>
     <use style="fill:#1f77b4;stroke:#1f77b4;" x="313.784456" xlink:href="#m8841ca5de0" y="53.568"/>
     <use style="fill:#1f77b4;stroke:#1f77b4;" x="314.679417" xlink:href="#m8841ca5de0" y="53.568"/>
     <use style="fill:#1f77b4;stroke:#1f77b4;" x="147.812771" xlink:href="#m8841ca5de0" y="53.568"/>
     <use style="fill:#1f77b4;stroke:#1f77b4;" x="166.853892" xlink:href="#m8841ca5de0" y="53.568"/>
     <use style="fill:#1f77b4;stroke:#1f77b4;" x="150.591594" xlink:href="#m8841ca5de0" y="53.568"/>
     <use style="fill:#1f77b4;stroke:#1f77b4;" x="317.161595" xlink:href="#m8841ca5de0" y="53.568"/>
     <use style="fill:#1f77b4;stroke:#1f77b4;" x="307.732726" xlink:href="#m8841ca5de0" y="53.568"/>
     <use style="fill:#1f77b4;stroke:#1f77b4;" x="325.44" xlink:href="#m8841ca5de0" y="295.488"/>
     <use style="fill:#1f77b4;stroke:#1f77b4;" x="156.779164" xlink:href="#m8841ca5de0" y="53.568"/>
     <use style="fill:#1f77b4;stroke:#1f77b4;" x="161.417777" xlink:href="#m8841ca5de0" y="53.568"/>
     <use style="fill:#1f77b4;stroke:#1f77b4;" x="146.88" xlink:href="#m8841ca5de0" y="295.488"/>
     <use style="fill:#1f77b4;stroke:#1f77b4;" x="304.288146" xlink:href="#m8841ca5de0" y="53.568"/>
     <use style="fill:#1f77b4;stroke:#1f77b4;" x="310.902223" xlink:href="#m8841ca5de0" y="53.568"/>
     <use style="fill:#1f77b4;stroke:#1f77b4;" x="149.177474" xlink:href="#m8841ca5de0" y="53.568"/>
     <use style="fill:#1f77b4;stroke:#1f77b4;" x="179.878726" xlink:href="#m8841ca5de0" y="53.568"/>
     <use style="fill:#1f77b4;stroke:#1f77b4;" x="324.222337" xlink:href="#m8841ca5de0" y="53.568"/>
     <use style="fill:#1f77b4;stroke:#1f77b4;" x="311.895456" xlink:href="#m8841ca5de0" y="53.568"/>
     <use style="fill:#1f77b4;stroke:#1f77b4;" x="300.581721" xlink:href="#m8841ca5de0" y="53.568"/>
     <use style="fill:#1f77b4;stroke:#1f77b4;" x="323.53984" xlink:href="#m8841ca5de0" y="53.568"/>
     <use style="fill:#1f77b4;stroke:#1f77b4;" x="164.587274" xlink:href="#m8841ca5de0" y="53.568"/>
     <use style="fill:#1f77b4;stroke:#1f77b4;" x="165.705535" xlink:href="#m8841ca5de0" y="53.568"/>
     <use style="fill:#1f77b4;stroke:#1f77b4;" x="319.332452" xlink:href="#m8841ca5de0" y="53.568"/>
     <use style="fill:#1f77b4;stroke:#1f77b4;" x="292.441274" xlink:href="#m8841ca5de0" y="53.568"/>
     <use style="fill:#1f77b4;stroke:#1f77b4;" x="308.820413" xlink:href="#m8841ca5de0" y="53.568"/>
     <use style="fill:#1f77b4;stroke:#1f77b4;" x="160.424544" xlink:href="#m8841ca5de0" y="53.568"/>
     <use style="fill:#1f77b4;stroke:#1f77b4;" x="181.323089" xlink:href="#m8841ca5de0" y="53.568"/>
     <use style="fill:#1f77b4;stroke:#1f77b4;" x="147.356311" xlink:href="#m8841ca5de0" y="53.568"/>
     <use style="fill:#1f77b4;stroke:#1f77b4;" x="306.614465" xlink:href="#m8841ca5de0" y="53.568"/>
     <use style="fill:#1f77b4;stroke:#1f77b4;" x="296.627699" xlink:href="#m8841ca5de0" y="53.568"/>
     <use style="fill:#1f77b4;stroke:#1f77b4;" x="325.26843" xlink:href="#m8841ca5de0" y="53.568"/>
     <use style="fill:#1f77b4;stroke:#1f77b4;" x="173.029507" xlink:href="#m8841ca5de0" y="53.568"/>
     <use style="fill:#1f77b4;stroke:#1f77b4;" x="163.499587" xlink:href="#m8841ca5de0" y="53.568"/>
     <use style="fill:#1f77b4;stroke:#1f77b4;" x="322.708056" xlink:href="#m8841ca5de0" y="53.568"/>
     <use style="fill:#1f77b4;stroke:#1f77b4;" x="281.861097" xlink:href="#m8841ca5de0" y="53.568"/>
     <use style="fill:#1f77b4;stroke:#1f77b4;" x="316.368347" xlink:href="#m8841ca5de0" y="53.568"/>
     <use style="fill:#1f77b4;stroke:#1f77b4;" x="157.640583" xlink:href="#m8841ca5de0" y="53.568"/>
     <use style="fill:#1f77b4;stroke:#1f77b4;" x="187.328468" xlink:href="#m8841ca5de0" y="53.568"/>
     <use style="fill:#1f77b4;stroke:#1f77b4;" x="325.363733" xlink:href="#m8841ca5de0" y="53.568"/>
     <use style="fill:#1f77b4;stroke:#1f77b4;" x="295.25727" xlink:href="#m8841ca5de0" y="53.568"/>
     <use style="fill:#1f77b4;stroke:#1f77b4;" x="293.861596" xlink:href="#m8841ca5de0" y="53.568"/>
     <use style="fill:#1f77b4;stroke:#1f77b4;" x="324.507229" xlink:href="#m8841ca5de0" y="53.568"/>
     <use style="fill:#1f77b4;stroke:#1f77b4;" x="188.883588" xlink:href="#m8841ca5de0" y="53.568"/>
     <use style="fill:#1f77b4;stroke:#1f77b4;" x="170.474569" xlink:href="#m8841ca5de0" y="53.568"/>
     <use style="fill:#1f77b4;stroke:#1f77b4;" x="309.877063" xlink:href="#m8841ca5de0" y="53.568"/>
     <use style="fill:#1f77b4;stroke:#1f77b4;" x="272.023368" xlink:href="#m8841ca5de0" y="53.568"/>
     <use style="fill:#1f77b4;stroke:#1f77b4;" x="171.738279" xlink:href="#m8841ca5de0" y="53.568"/>
     <use style="fill:#1f77b4;stroke:#1f77b4;" x="162.442937" xlink:href="#m8841ca5de0" y="53.568"/>
     <use style="fill:#1f77b4;stroke:#1f77b4;" x="190.458903" xlink:href="#m8841ca5de0" y="53.568"/>
     <use style="fill:#1f77b4;stroke:#1f77b4;" x="325.420931" xlink:href="#m8841ca5de0" y="53.568"/>
     <use style="fill:#1f77b4;stroke:#1f77b4;" x="288.038538" xlink:href="#m8841ca5de0" y="53.568"/>
     <use style="fill:#1f77b4;stroke:#1f77b4;" x="303.081081" xlink:href="#m8841ca5de0" y="53.568"/>
     <use style="fill:#1f77b4;stroke:#1f77b4;" x="324.754381" xlink:href="#m8841ca5de0" y="53.568"/>
     <use style="fill:#1f77b4;stroke:#1f77b4;" x="198.614561" xlink:href="#m8841ca5de0" y="53.568"/>
     <use style="fill:#1f77b4;stroke:#1f77b4;" x="174.347702" xlink:href="#m8841ca5de0" y="53.568"/>
     <use style="fill:#1f77b4;stroke:#1f77b4;" x="301.845431" xlink:href="#m8841ca5de0" y="53.568"/>
     <use style="fill:#1f77b4;stroke:#1f77b4;" x="268.613992" xlink:href="#m8841ca5de0" y="53.568"/>
     <use style="fill:#1f77b4;stroke:#1f77b4;" x="150.083385" xlink:href="#m8841ca5de0" y="53.568"/>
     <use style="fill:#1f77b4;stroke:#1f77b4;" x="175.692301" xlink:href="#m8841ca5de0" y="53.568"/>
     <use style="fill:#1f77b4;stroke:#1f77b4;" x="193.667417" xlink:href="#m8841ca5de0" y="53.568"/>
     <use style="fill:#1f77b4;stroke:#1f77b4;" x="146.956267" xlink:href="#m8841ca5de0" y="53.568"/>
     <use style="fill:#1f77b4;stroke:#1f77b4;" x="277.020755" xlink:href="#m8841ca5de0" y="53.568"/>
     <use style="fill:#1f77b4;stroke:#1f77b4;" x="290.996911" xlink:href="#m8841ca5de0" y="53.568"/>
     <use style="fill:#1f77b4;stroke:#1f77b4;" x="319.985412" xlink:href="#m8841ca5de0" y="53.568"/>
     <use style="fill:#1f77b4;stroke:#1f77b4;" x="203.706008" xlink:href="#m8841ca5de0" y="53.568"/>
     <use style="fill:#1f77b4;stroke:#1f77b4;" x="286.525792" xlink:href="#m8841ca5de0" y="53.568"/>
     <use style="fill:#1f77b4;stroke:#1f77b4;" x="299.290493" xlink:href="#m8841ca5de0" y="53.568"/>
     <use style="fill:#1f77b4;stroke:#1f77b4;" x="275.371471" xlink:href="#m8841ca5de0" y="53.568"/>
     <use style="fill:#1f77b4;stroke:#1f77b4;" x="323.142526" xlink:href="#m8841ca5de0" y="53.568"/>
     <use style="fill:#1f77b4;stroke:#1f77b4;" x="192.053739" xlink:href="#m8841ca5de0" y="53.568"/>
     <use style="fill:#1f77b4;stroke:#1f77b4;" x="196.948529" xlink:href="#m8841ca5de0" y="53.568"/>
     <use style="fill:#1f77b4;stroke:#1f77b4;" x="147.565619" xlink:href="#m8841ca5de0" y="53.568"/>
     <use style="fill:#1f77b4;stroke:#1f77b4;" x="265.149169" xlink:href="#m8841ca5de0" y="53.568"/>
     <use style="fill:#1f77b4;stroke:#1f77b4;" x="297.972298" xlink:href="#m8841ca5de0" y="53.568"/>
     <use style="fill:#1f77b4;stroke:#1f77b4;" x="148.78016" xlink:href="#m8841ca5de0" y="53.568"/>
     <use style="fill:#1f77b4;stroke:#1f77b4;" x="212.459057" xlink:href="#m8841ca5de0" y="53.568"/>
     <use style="fill:#1f77b4;stroke:#1f77b4;" x="219.648158" xlink:href="#m8841ca5de0" y="53.568"/>
     <use style="fill:#1f77b4;stroke:#1f77b4;" x="169.238919" xlink:href="#m8841ca5de0" y="53.568"/>
     <use style="fill:#1f77b4;stroke:#1f77b4;" x="266.888143" xlink:href="#m8841ca5de0" y="53.568"/>
     <use style="fill:#1f77b4;stroke:#1f77b4;" x="146.899069" xlink:href="#m8841ca5de0" y="53.568"/>
     <use style="fill:#1f77b4;stroke:#1f77b4;" x="195.299245" xlink:href="#m8841ca5de0" y="53.568"/>
     <use style="fill:#1f77b4;stroke:#1f77b4;" x="182.790877" xlink:href="#m8841ca5de0" y="53.568"/>
     <use style="fill:#1f77b4;stroke:#1f77b4;" x="159.463663" xlink:href="#m8841ca5de0" y="53.568"/>
     <use style="fill:#1f77b4;stroke:#1f77b4;" x="258.076944" xlink:href="#m8841ca5de0" y="53.568"/>
     <use style="fill:#1f77b4;stroke:#1f77b4;" x="148.420172" xlink:href="#m8841ca5de0" y="53.568"/>
     <use style="fill:#1f77b4;stroke:#1f77b4;" x="325.135064" xlink:href="#m8841ca5de0" y="53.568"/>
     <use style="fill:#1f77b4;stroke:#1f77b4;" x="216.036417" xlink:href="#m8841ca5de0" y="53.568"/>
     <use style="fill:#1f77b4;stroke:#1f77b4;" x="322.236615" xlink:href="#m8841ca5de0" y="53.568"/>
     <use style="fill:#1f77b4;stroke:#1f77b4;" x="273.705439" xlink:href="#m8841ca5de0" y="53.568"/>
     <use style="fill:#1f77b4;stroke:#1f77b4;" x="263.397811" xlink:href="#m8841ca5de0" y="53.568"/>
     <use style="fill:#1f77b4;stroke:#1f77b4;" x="321.728406" xlink:href="#m8841ca5de0" y="53.568"/>
     <use style="fill:#1f77b4;stroke:#1f77b4;" x="207.170831" xlink:href="#m8841ca5de0" y="53.568"/>
     <use style="fill:#1f77b4;stroke:#1f77b4;" x="184.281462" xlink:href="#m8841ca5de0" y="53.568"/>
     <use style="fill:#1f77b4;stroke:#1f77b4;" x="158.535544" xlink:href="#m8841ca5de0" y="53.568"/>
     <use style="fill:#1f77b4;stroke:#1f77b4;" x="252.671842" xlink:href="#m8841ca5de0" y="53.568"/>
     <use style="fill:#1f77b4;stroke:#1f77b4;" x="280.266261" xlink:href="#m8841ca5de0" y="53.568"/>
     <use style="fill:#1f77b4;stroke:#1f77b4;" x="168.031854" xlink:href="#m8841ca5de0" y="53.568"/>
     <use style="fill:#1f77b4;stroke:#1f77b4;" x="210.685182" xlink:href="#m8841ca5de0" y="53.568"/>
     <use style="fill:#1f77b4;stroke:#1f77b4;" x="323.899828" xlink:href="#m8841ca5de0" y="53.568"/>
     <use style="fill:#1f77b4;stroke:#1f77b4;" x="270.325977" xlink:href="#m8841ca5de0" y="53.568"/>
     <use style="fill:#1f77b4;stroke:#1f77b4;" x="278.652583" xlink:href="#m8841ca5de0" y="53.568"/>
     <use style="fill:#1f77b4;stroke:#1f77b4;" x="153.676035" xlink:href="#m8841ca5de0" y="53.568"/>
     <use style="fill:#1f77b4;stroke:#1f77b4;" x="217.838374" xlink:href="#m8841ca5de0" y="53.568"/>
     <use style="fill:#1f77b4;stroke:#1f77b4;" x="205.431857" xlink:href="#m8841ca5de0" y="53.568"/>
     <use style="fill:#1f77b4;stroke:#1f77b4;" x="289.529123" xlink:href="#m8841ca5de0" y="53.568"/>
     <use style="fill:#1f77b4;stroke:#1f77b4;" x="250.855005" xlink:href="#m8841ca5de0" y="53.568"/>
     <use style="fill:#1f77b4;stroke:#1f77b4;" x="305.466108" xlink:href="#m8841ca5de0" y="53.568"/>
     <use style="fill:#1f77b4;stroke:#1f77b4;" x="185.794208" xlink:href="#m8841ca5de0" y="53.568"/>
     <use style="fill:#1f77b4;stroke:#1f77b4;" x="208.922189" xlink:href="#m8841ca5de0" y="53.568"/>
     <use style="fill:#1f77b4;stroke:#1f77b4;" x="154.399757" xlink:href="#m8841ca5de0" y="53.568"/>
     <use style="fill:#1f77b4;stroke:#1f77b4;" x="261.634818" xlink:href="#m8841ca5de0" y="53.568"/>
     <use style="fill:#1f77b4;stroke:#1f77b4;" x="259.860943" xlink:href="#m8841ca5de0" y="53.568"/>
     <use style="fill:#1f77b4;stroke:#1f77b4;" x="201.994023" xlink:href="#m8841ca5de0" y="53.568"/>
     <use style="fill:#1f77b4;stroke:#1f77b4;" x="223.288109" xlink:href="#m8841ca5de0" y="53.568"/>
     <use style="fill:#1f77b4;stroke:#1f77b4;" x="177.06273" xlink:href="#m8841ca5de0" y="53.568"/>
     <use style="fill:#1f77b4;stroke:#1f77b4;" x="149.611944" xlink:href="#m8841ca5de0" y="53.568"/>
     <use style="fill:#1f77b4;stroke:#1f77b4;" x="247.203278" xlink:href="#m8841ca5de0" y="53.568"/>
     <use style="fill:#1f77b4;stroke:#1f77b4;" x="320.602563" xlink:href="#m8841ca5de0" y="53.568"/>
     <use style="fill:#1f77b4;stroke:#1f77b4;" x="214.243056" xlink:href="#m8841ca5de0" y="53.568"/>
     <use style="fill:#1f77b4;stroke:#1f77b4;" x="221.464995" xlink:href="#m8841ca5de0" y="53.568"/>
     <use style="fill:#1f77b4;stroke:#1f77b4;" x="315.540836" xlink:href="#m8841ca5de0" y="53.568"/>
     <use style="fill:#1f77b4;stroke:#1f77b4;" x="254.481626" xlink:href="#m8841ca5de0" y="53.568"/>
     <use style="fill:#1f77b4;stroke:#1f77b4;" x="283.436412" xlink:href="#m8841ca5de0" y="53.568"/>
     <use style="fill:#1f77b4;stroke:#1f77b4;" x="230.62773" xlink:href="#m8841ca5de0" y="53.568"/>
     <use style="fill:#1f77b4;stroke:#1f77b4;" x="225.116722" xlink:href="#m8841ca5de0" y="53.568"/>
     <use style="fill:#1f77b4;stroke:#1f77b4;" x="234.314859" xlink:href="#m8841ca5de0" y="53.568"/>
     <use style="fill:#1f77b4;stroke:#1f77b4;" x="284.991532" xlink:href="#m8841ca5de0" y="53.568"/>
     <use style="fill:#1f77b4;stroke:#1f77b4;" x="256.283583" xlink:href="#m8841ca5de0" y="53.568"/>
     <use style="fill:#1f77b4;stroke:#1f77b4;" x="228.787316" xlink:href="#m8841ca5de0" y="53.568"/>
     <use style="fill:#1f77b4;stroke:#1f77b4;" x="200.296632" xlink:href="#m8841ca5de0" y="53.568"/>
     <use style="fill:#1f77b4;stroke:#1f77b4;" x="232.470506" xlink:href="#m8841ca5de0" y="53.568"/>
     <use style="fill:#1f77b4;stroke:#1f77b4;" x="241.69227" xlink:href="#m8841ca5de0" y="53.568"/>
     <use style="fill:#1f77b4;stroke:#1f77b4;" x="249.031891" xlink:href="#m8841ca5de0" y="53.568"/>
     <use style="fill:#1f77b4;stroke:#1f77b4;" x="239.849494" xlink:href="#m8841ca5de0" y="53.568"/>
     <use style="fill:#1f77b4;stroke:#1f77b4;" x="236.16" xlink:href="#m8841ca5de0" y="53.568"/>
     <use style="fill:#1f77b4;stroke:#1f77b4;" x="226.950052" xlink:href="#m8841ca5de0" y="53.568"/>
     <use style="fill:#1f77b4;stroke:#1f77b4;" x="238.005141" xlink:href="#m8841ca5de0" y="53.568"/>
     <use style="fill:#1f77b4;stroke:#1f77b4;" x="245.369948" xlink:href="#m8841ca5de0" y="53.568"/>
     <use style="fill:#1f77b4;stroke:#1f77b4;" x="243.532684" xlink:href="#m8841ca5de0" y="53.568"/>
    </g>
   </g>
   <g id="patch_3">
    <path d="M 57.6 307.584 
L 57.6 41.472 
" style="fill:none;stroke:#000000;stroke-linecap:square;stroke-linejoin:miter;stroke-width:0.8;"/>
   </g>
   <g id="patch_4">
    <path d="M 414.72 307.584 
L 414.72 41.472 
" style="fill:none;stroke:#000000;stroke-linecap:square;stroke-linejoin:miter;stroke-width:0.8;"/>
   </g>
   <g id="patch_5">
    <path d="M 57.6 307.584 
L 414.72 307.584 
" style="fill:none;stroke:#000000;stroke-linecap:square;stroke-linejoin:miter;stroke-width:0.8;"/>
   </g>
   <g id="patch_6">
    <path d="M 57.6 41.472 
L 414.72 41.472 
" style="fill:none;stroke:#000000;stroke-linecap:square;stroke-linejoin:miter;stroke-width:0.8;"/>
   </g>
  </g>
 </g>
 <defs>
  <clipPath id="p3daf81856c">
   <rect height="266.112" width="357.12" x="57.6" y="41.472"/>
  </clipPath>
 </defs>
</svg>
