<?xml version="1.0" encoding="utf-8" standalone="no"?>
<!DOCTYPE svg PUBLIC "-//W3C//DTD SVG 1.1//EN"
  "http://www.w3.org/Graphics/SVG/1.1/DTD/svg11.dtd">
<!-- Created with matplotlib (http://matplotlib.org/) -->
<svg height="345pt" version="1.1" viewBox="0 0 460 345" width="460pt" xmlns="http://www.w3.org/2000/svg" xmlns:xlink="http://www.w3.org/1999/xlink">
 <defs>
  <style type="text/css">
*{stroke-linecap:butt;stroke-linejoin:round;}
  </style>
 </defs>
 <g id="figure_1">
  <g id="patch_1">
   <path d="M 0 345.6 
L 460.8 345.6 
L 460.8 0 
L 0 0 
z
" style="fill:#ffffff;"/>
  </g>
  <g id="axes_1">
   <g id="patch_2">
    <path d="M 57.6 307.584 
L 414.72 307.584 
L 414.72 41.472 
L 57.6 41.472 
z
" style="fill:#ffffff;"/>
   </g>
   <g id="matplotlib.axis_1">
    <g id="xtick_1">
     <g id="line2d_1">
      <path clip-path="url(#pa12b3952ba)" d="M 57.592719 307.584 
L 57.592719 41.472 
" style="fill:none;stroke:#b0b0b0;stroke-linecap:square;stroke-width:0.8;"/>
     </g>
     <g id="line2d_2">
      <defs>
       <path d="M 0 0 
L 0 3.5 
" id="mc14d3b1ea5" style="stroke:#000000;stroke-width:0.8;"/>
      </defs>
      <g>
       <use style="stroke:#000000;stroke-width:0.8;" x="57.592719" xlink:href="#mc14d3b1ea5" y="307.584"/>
      </g>
     </g>
     <g id="text_1">
      <!-- −2.0 -->
      <defs>
       <path d="M 10.59375 35.5 
L 73.1875 35.5 
L 73.1875 27.203125 
L 10.59375 27.203125 
z
" id="DejaVuSans-2212"/>
       <path d="M 19.1875 8.296875 
L 53.609375 8.296875 
L 53.609375 0 
L 7.328125 0 
L 7.328125 8.296875 
Q 12.9375 14.109375 22.625 23.890625 
Q 32.328125 33.6875 34.8125 36.53125 
Q 39.546875 41.84375 41.421875 45.53125 
Q 43.3125 49.21875 43.3125 52.78125 
Q 43.3125 58.59375 39.234375 62.25 
Q 35.15625 65.921875 28.609375 65.921875 
Q 23.96875 65.921875 18.8125 64.3125 
Q 13.671875 62.703125 7.8125 59.421875 
L 7.8125 69.390625 
Q 13.765625 71.78125 18.9375 73 
Q 24.125 74.21875 28.421875 74.21875 
Q 39.75 74.21875 46.484375 68.546875 
Q 53.21875 62.890625 53.21875 53.421875 
Q 53.21875 48.921875 51.53125 44.890625 
Q 49.859375 40.875 45.40625 35.40625 
Q 44.1875 33.984375 37.640625 27.21875 
Q 31.109375 20.453125 19.1875 8.296875 
" id="DejaVuSans-32"/>
       <path d="M 10.6875 12.40625 
L 21 12.40625 
L 21 0 
L 10.6875 0 
z
" id="DejaVuSans-2e"/>
       <path d="M 31.78125 66.40625 
Q 24.171875 66.40625 20.328125 58.90625 
Q 16.5 51.421875 16.5 36.375 
Q 16.5 21.390625 20.328125 13.890625 
Q 24.171875 6.390625 31.78125 6.390625 
Q 39.453125 6.390625 43.28125 13.890625 
Q 47.125 21.390625 47.125 36.375 
Q 47.125 51.421875 43.28125 58.90625 
Q 39.453125 66.40625 31.78125 66.40625 
M 31.78125 74.21875 
Q 44.046875 74.21875 50.515625 64.515625 
Q 56.984375 54.828125 56.984375 36.375 
Q 56.984375 17.96875 50.515625 8.265625 
Q 44.046875 -1.421875 31.78125 -1.421875 
Q 19.53125 -1.421875 13.0625 8.265625 
Q 6.59375 17.96875 6.59375 36.375 
Q 6.59375 54.828125 13.0625 64.515625 
Q 19.53125 74.21875 31.78125 74.21875 
" id="DejaVuSans-30"/>
      </defs>
      <g transform="translate(45.451313 322.182437)scale(0.1 -0.1)">
       <use xlink:href="#DejaVuSans-2212"/>
       <use x="83.789062" xlink:href="#DejaVuSans-32"/>
       <use x="147.412109" xlink:href="#DejaVuSans-2e"/>
       <use x="179.199219" xlink:href="#DejaVuSans-30"/>
      </g>
     </g>
    </g>
    <g id="xtick_2">
     <g id="line2d_3">
      <path clip-path="url(#pa12b3952ba)" d="M 102.23454 307.584 
L 102.23454 41.472 
" style="fill:none;stroke:#b0b0b0;stroke-linecap:square;stroke-width:0.8;"/>
     </g>
     <g id="line2d_4">
      <g>
       <use style="stroke:#000000;stroke-width:0.8;" x="102.23454" xlink:href="#mc14d3b1ea5" y="307.584"/>
      </g>
     </g>
     <g id="text_2">
      <!-- −1.5 -->
      <defs>
       <path d="M 12.40625 8.296875 
L 28.515625 8.296875 
L 28.515625 63.921875 
L 10.984375 60.40625 
L 10.984375 69.390625 
L 28.421875 72.90625 
L 38.28125 72.90625 
L 38.28125 8.296875 
L 54.390625 8.296875 
L 54.390625 0 
L 12.40625 0 
z
" id="DejaVuSans-31"/>
       <path d="M 10.796875 72.90625 
L 49.515625 72.90625 
L 49.515625 64.59375 
L 19.828125 64.59375 
L 19.828125 46.734375 
Q 21.96875 47.46875 24.109375 47.828125 
Q 26.265625 48.1875 28.421875 48.1875 
Q 40.625 48.1875 47.75 41.5 
Q 54.890625 34.8125 54.890625 23.390625 
Q 54.890625 11.625 47.5625 5.09375 
Q 40.234375 -1.421875 26.90625 -1.421875 
Q 22.3125 -1.421875 17.546875 -0.640625 
Q 12.796875 0.140625 7.71875 1.703125 
L 7.71875 11.625 
Q 12.109375 9.234375 16.796875 8.0625 
Q 21.484375 6.890625 26.703125 6.890625 
Q 35.15625 6.890625 40.078125 11.328125 
Q 45.015625 15.765625 45.015625 23.390625 
Q 45.015625 31 40.078125 35.4375 
Q 35.15625 39.890625 26.703125 39.890625 
Q 22.75 39.890625 18.8125 39.015625 
Q 14.890625 38.140625 10.796875 36.28125 
z
" id="DejaVuSans-35"/>
      </defs>
      <g transform="translate(90.093133 322.182437)scale(0.1 -0.1)">
       <use xlink:href="#DejaVuSans-2212"/>
       <use x="83.789062" xlink:href="#DejaVuSans-31"/>
       <use x="147.412109" xlink:href="#DejaVuSans-2e"/>
       <use x="179.199219" xlink:href="#DejaVuSans-35"/>
      </g>
     </g>
    </g>
    <g id="xtick_3">
     <g id="line2d_5">
      <path clip-path="url(#pa12b3952ba)" d="M 146.87636 307.584 
L 146.87636 41.472 
" style="fill:none;stroke:#b0b0b0;stroke-linecap:square;stroke-width:0.8;"/>
     </g>
     <g id="line2d_6">
      <g>
       <use style="stroke:#000000;stroke-width:0.8;" x="146.87636" xlink:href="#mc14d3b1ea5" y="307.584"/>
      </g>
     </g>
     <g id="text_3">
      <!-- −1.0 -->
      <g transform="translate(134.734953 322.182437)scale(0.1 -0.1)">
       <use xlink:href="#DejaVuSans-2212"/>
       <use x="83.789062" xlink:href="#DejaVuSans-31"/>
       <use x="147.412109" xlink:href="#DejaVuSans-2e"/>
       <use x="179.199219" xlink:href="#DejaVuSans-30"/>
      </g>
     </g>
    </g>
    <g id="xtick_4">
     <g id="line2d_7">
      <path clip-path="url(#pa12b3952ba)" d="M 191.51818 307.584 
L 191.51818 41.472 
" style="fill:none;stroke:#b0b0b0;stroke-linecap:square;stroke-width:0.8;"/>
     </g>
     <g id="line2d_8">
      <g>
       <use style="stroke:#000000;stroke-width:0.8;" x="191.51818" xlink:href="#mc14d3b1ea5" y="307.584"/>
      </g>
     </g>
     <g id="text_4">
      <!-- −0.5 -->
      <g transform="translate(179.376774 322.182437)scale(0.1 -0.1)">
       <use xlink:href="#DejaVuSans-2212"/>
       <use x="83.789062" xlink:href="#DejaVuSans-30"/>
       <use x="147.412109" xlink:href="#DejaVuSans-2e"/>
       <use x="179.199219" xlink:href="#DejaVuSans-35"/>
      </g>
     </g>
    </g>
    <g id="xtick_5">
     <g id="line2d_9">
      <path clip-path="url(#pa12b3952ba)" d="M 236.16 307.584 
L 236.16 41.472 
" style="fill:none;stroke:#b0b0b0;stroke-linecap:square;stroke-width:0.8;"/>
     </g>
     <g id="line2d_10">
      <g>
       <use style="stroke:#000000;stroke-width:0.8;" x="236.16" xlink:href="#mc14d3b1ea5" y="307.584"/>
      </g>
     </g>
     <g id="text_5">
      <!-- 0.0 -->
      <g transform="translate(228.208438 322.182437)scale(0.1 -0.1)">
       <use xlink:href="#DejaVuSans-30"/>
       <use x="63.623047" xlink:href="#DejaVuSans-2e"/>
       <use x="95.410156" xlink:href="#DejaVuSans-30"/>
      </g>
     </g>
    </g>
    <g id="xtick_6">
     <g id="line2d_11">
      <path clip-path="url(#pa12b3952ba)" d="M 280.80182 307.584 
L 280.80182 41.472 
" style="fill:none;stroke:#b0b0b0;stroke-linecap:square;stroke-width:0.8;"/>
     </g>
     <g id="line2d_12">
      <g>
       <use style="stroke:#000000;stroke-width:0.8;" x="280.80182" xlink:href="#mc14d3b1ea5" y="307.584"/>
      </g>
     </g>
     <g id="text_6">
      <!-- 0.5 -->
      <g transform="translate(272.850258 322.182437)scale(0.1 -0.1)">
       <use xlink:href="#DejaVuSans-30"/>
       <use x="63.623047" xlink:href="#DejaVuSans-2e"/>
       <use x="95.410156" xlink:href="#DejaVuSans-35"/>
      </g>
     </g>
    </g>
    <g id="xtick_7">
     <g id="line2d_13">
      <path clip-path="url(#pa12b3952ba)" d="M 325.44364 307.584 
L 325.44364 41.472 
" style="fill:none;stroke:#b0b0b0;stroke-linecap:square;stroke-width:0.8;"/>
     </g>
     <g id="line2d_14">
      <g>
       <use style="stroke:#000000;stroke-width:0.8;" x="325.44364" xlink:href="#mc14d3b1ea5" y="307.584"/>
      </g>
     </g>
     <g id="text_7">
      <!-- 1.0 -->
      <g transform="translate(317.492078 322.182437)scale(0.1 -0.1)">
       <use xlink:href="#DejaVuSans-31"/>
       <use x="63.623047" xlink:href="#DejaVuSans-2e"/>
       <use x="95.410156" xlink:href="#DejaVuSans-30"/>
      </g>
     </g>
    </g>
    <g id="xtick_8">
     <g id="line2d_15">
      <path clip-path="url(#pa12b3952ba)" d="M 370.08546 307.584 
L 370.08546 41.472 
" style="fill:none;stroke:#b0b0b0;stroke-linecap:square;stroke-width:0.8;"/>
     </g>
     <g id="line2d_16">
      <g>
       <use style="stroke:#000000;stroke-width:0.8;" x="370.08546" xlink:href="#mc14d3b1ea5" y="307.584"/>
      </g>
     </g>
     <g id="text_8">
      <!-- 1.5 -->
      <g transform="translate(362.133898 322.182437)scale(0.1 -0.1)">
       <use xlink:href="#DejaVuSans-31"/>
       <use x="63.623047" xlink:href="#DejaVuSans-2e"/>
       <use x="95.410156" xlink:href="#DejaVuSans-35"/>
      </g>
     </g>
    </g>
    <g id="xtick_9">
     <g id="line2d_17">
      <path clip-path="url(#pa12b3952ba)" d="M 414.727281 307.584 
L 414.727281 41.472 
" style="fill:none;stroke:#b0b0b0;stroke-linecap:square;stroke-width:0.8;"/>
     </g>
     <g id="line2d_18">
      <g>
       <use style="stroke:#000000;stroke-width:0.8;" x="414.727281" xlink:href="#mc14d3b1ea5" y="307.584"/>
      </g>
     </g>
     <g id="text_9">
      <!-- 2.0 -->
      <g transform="translate(406.775718 322.182437)scale(0.1 -0.1)">
       <use xlink:href="#DejaVuSans-32"/>
       <use x="63.623047" xlink:href="#DejaVuSans-2e"/>
       <use x="95.410156" xlink:href="#DejaVuSans-30"/>
      </g>
     </g>
    </g>
    <g id="text_10">
     <!-- $\gamma_i$ -->
     <defs>
      <path d="M 23.296875 46.09375 
L 28.71875 12.3125 
L 54 54.6875 
L 63.53125 54.6875 
L 30.8125 0 
L 26.765625 -20.796875 
L 17.78125 -20.796875 
L 21.828125 0 
L 15.4375 40.828125 
Q 14.453125 46.96875 9.8125 46.96875 
L 7.421875 46.96875 
L 8.890625 54.6875 
L 12.3125 54.6875 
Q 21.921875 54.6875 23.296875 46.09375 
" id="DejaVuSans-Oblique-3b3"/>
      <path d="M 18.3125 75.984375 
L 27.296875 75.984375 
L 25.09375 64.59375 
L 16.109375 64.59375 
z
M 14.203125 54.6875 
L 23.1875 54.6875 
L 12.5 0 
L 3.515625 0 
z
" id="DejaVuSans-Oblique-69"/>
     </defs>
     <g transform="translate(232.06 335.84025)scale(0.1 -0.1)">
      <use transform="translate(0 0.3125)" xlink:href="#DejaVuSans-Oblique-3b3"/>
      <use transform="translate(59.179688 -16.09375)scale(0.7)" xlink:href="#DejaVuSans-Oblique-69"/>
     </g>
    </g>
   </g>
   <g id="matplotlib.axis_2">
    <g id="ytick_1">
     <g id="line2d_19">
      <path clip-path="url(#pa12b3952ba)" d="M 57.6 295.488 
L 414.72 295.488 
" style="fill:none;stroke:#b0b0b0;stroke-linecap:square;stroke-width:0.8;"/>
     </g>
     <g id="line2d_20">
      <defs>
       <path d="M 0 0 
L -3.5 0 
" id="m321b6b425a" style="stroke:#000000;stroke-width:0.8;"/>
      </defs>
      <g>
       <use style="stroke:#000000;stroke-width:0.8;" x="57.6" xlink:href="#m321b6b425a" y="295.488"/>
      </g>
     </g>
     <g id="text_11">
      <!-- ${10^{-3}}$ -->
      <defs>
       <path d="M 40.578125 39.3125 
Q 47.65625 37.796875 51.625 33 
Q 55.609375 28.21875 55.609375 21.1875 
Q 55.609375 10.40625 48.1875 4.484375 
Q 40.765625 -1.421875 27.09375 -1.421875 
Q 22.515625 -1.421875 17.65625 -0.515625 
Q 12.796875 0.390625 7.625 2.203125 
L 7.625 11.71875 
Q 11.71875 9.328125 16.59375 8.109375 
Q 21.484375 6.890625 26.8125 6.890625 
Q 36.078125 6.890625 40.9375 10.546875 
Q 45.796875 14.203125 45.796875 21.1875 
Q 45.796875 27.640625 41.28125 31.265625 
Q 36.765625 34.90625 28.71875 34.90625 
L 20.21875 34.90625 
L 20.21875 43.015625 
L 29.109375 43.015625 
Q 36.375 43.015625 40.234375 45.921875 
Q 44.09375 48.828125 44.09375 54.296875 
Q 44.09375 59.90625 40.109375 62.90625 
Q 36.140625 65.921875 28.71875 65.921875 
Q 24.65625 65.921875 20.015625 65.03125 
Q 15.375 64.15625 9.8125 62.3125 
L 9.8125 71.09375 
Q 15.4375 72.65625 20.34375 73.4375 
Q 25.25 74.21875 29.59375 74.21875 
Q 40.828125 74.21875 47.359375 69.109375 
Q 53.90625 64.015625 53.90625 55.328125 
Q 53.90625 49.265625 50.4375 45.09375 
Q 46.96875 40.921875 40.578125 39.3125 
" id="DejaVuSans-33"/>
      </defs>
      <g transform="translate(27.1 299.287219)scale(0.1 -0.1)">
       <use transform="translate(0 0.765625)" xlink:href="#DejaVuSans-31"/>
       <use transform="translate(63.623047 0.765625)" xlink:href="#DejaVuSans-30"/>
       <use transform="translate(128.203125 39.046875)scale(0.7)" xlink:href="#DejaVuSans-2212"/>
       <use transform="translate(186.855469 39.046875)scale(0.7)" xlink:href="#DejaVuSans-33"/>
      </g>
     </g>
    </g>
    <g id="ytick_2">
     <g id="line2d_21">
      <path clip-path="url(#pa12b3952ba)" d="M 57.6 53.568 
L 414.72 53.568 
" style="fill:none;stroke:#b0b0b0;stroke-linecap:square;stroke-width:0.8;"/>
     </g>
     <g id="line2d_22">
      <g>
       <use style="stroke:#000000;stroke-width:0.8;" x="57.6" xlink:href="#m321b6b425a" y="53.568"/>
      </g>
     </g>
     <g id="text_12">
      <!-- ${10^{-2}}$ -->
      <g transform="translate(27.1 57.367219)scale(0.1 -0.1)">
       <use transform="translate(0 0.765625)" xlink:href="#DejaVuSans-31"/>
       <use transform="translate(63.623047 0.765625)" xlink:href="#DejaVuSans-30"/>
       <use transform="translate(128.203125 39.046875)scale(0.7)" xlink:href="#DejaVuSans-2212"/>
       <use transform="translate(186.855469 39.046875)scale(0.7)" xlink:href="#DejaVuSans-32"/>
      </g>
     </g>
    </g>
    <g id="ytick_3">
     <g id="line2d_23">
      <defs>
       <path d="M 0 0 
L -2 0 
" id="md1a2703ffa" style="stroke:#000000;stroke-width:0.6;"/>
      </defs>
      <g>
       <use style="stroke:#000000;stroke-width:0.6;" x="57.6" xlink:href="#md1a2703ffa" y="306.557652"/>
      </g>
     </g>
    </g>
    <g id="ytick_4">
     <g id="line2d_24">
      <g>
       <use style="stroke:#000000;stroke-width:0.6;" x="57.6" xlink:href="#md1a2703ffa" y="222.662823"/>
      </g>
     </g>
    </g>
    <g id="ytick_5">
     <g id="line2d_25">
      <g>
       <use style="stroke:#000000;stroke-width:0.6;" x="57.6" xlink:href="#md1a2703ffa" y="180.062826"/>
      </g>
     </g>
    </g>
    <g id="ytick_6">
     <g id="line2d_26">
      <g>
       <use style="stroke:#000000;stroke-width:0.6;" x="57.6" xlink:href="#md1a2703ffa" y="149.837647"/>
      </g>
     </g>
    </g>
    <g id="ytick_7">
     <g id="line2d_27">
      <g>
       <use style="stroke:#000000;stroke-width:0.6;" x="57.6" xlink:href="#md1a2703ffa" y="126.393177"/>
      </g>
     </g>
    </g>
    <g id="ytick_8">
     <g id="line2d_28">
      <g>
       <use style="stroke:#000000;stroke-width:0.6;" x="57.6" xlink:href="#md1a2703ffa" y="107.23765"/>
      </g>
     </g>
    </g>
    <g id="ytick_9">
     <g id="line2d_29">
      <g>
       <use style="stroke:#000000;stroke-width:0.6;" x="57.6" xlink:href="#md1a2703ffa" y="91.041882"/>
      </g>
     </g>
    </g>
    <g id="ytick_10">
     <g id="line2d_30">
      <g>
       <use style="stroke:#000000;stroke-width:0.6;" x="57.6" xlink:href="#md1a2703ffa" y="77.01247"/>
      </g>
     </g>
    </g>
    <g id="ytick_11">
     <g id="line2d_31">
      <g>
       <use style="stroke:#000000;stroke-width:0.6;" x="57.6" xlink:href="#md1a2703ffa" y="64.637652"/>
      </g>
     </g>
    </g>
    <g id="text_13">
     <!-- $\omega_i$ -->
     <defs>
      <path d="M 21.390625 -1.421875 
Q 1.125 -1.421875 6.78125 27.59375 
Q 8.984375 39.0625 19.625 54.6875 
L 29.296875 54.6875 
Q 19.234375 39.0625 17 27.34375 
Q 12.796875 6.203125 23.734375 6.203125 
Q 33.84375 6.203125 38.71875 32.46875 
L 47.015625 32.46875 
Q 41.703125 6.0625 51.8125 6.203125 
Q 62.703125 6.296875 66.796875 27.34375 
Q 69.046875 39.0625 65.140625 54.6875 
L 74.8125 54.6875 
Q 79.296875 39.0625 77.09375 27.59375 
Q 71.53125 -1.46875 51.21875 -1.421875 
Q 37.9375 -1.375 39.109375 13.1875 
Q 34.28125 -1.421875 21.390625 -1.421875 
" id="DejaVuSans-Oblique-3c9"/>
     </defs>
     <g transform="translate(21.020313 179.828)rotate(-90)scale(0.1 -0.1)">
      <use transform="translate(0 0.3125)" xlink:href="#DejaVuSans-Oblique-3c9"/>
      <use transform="translate(83.740234 -16.09375)scale(0.7)" xlink:href="#DejaVuSans-Oblique-69"/>
     </g>
    </g>
   </g>
   <g id="line2d_32">
    <defs>
     <path d="M 0 3 
C 0.795609 3 1.55874 2.683901 2.12132 2.12132 
C 2.683901 1.55874 3 0.795609 3 0 
C 3 -0.795609 2.683901 -1.55874 2.12132 -2.12132 
C 1.55874 -2.683901 0.795609 -3 0 -3 
C -0.795609 -3 -1.55874 -2.683901 -2.12132 -2.12132 
C -2.683901 -1.55874 -3 -0.795609 -3 0 
C -3 0.795609 -2.683901 1.55874 -2.12132 2.12132 
C -1.55874 2.683901 -0.795609 3 0 3 
z
" id="m32d0204c4e" style="stroke:#1f77b4;"/>
    </defs>
    <g clip-path="url(#pa12b3952ba)">
     <use style="fill:#1f77b4;stroke:#1f77b4;" x="147.058315" xlink:href="#m32d0204c4e" y="75.317845"/>
     <use style="fill:#1f77b4;stroke:#1f77b4;" x="150.067938" xlink:href="#m32d0204c4e" y="75.317845"/>
     <use style="fill:#1f77b4;stroke:#1f77b4;" x="154.688355" xlink:href="#m32d0204c4e" y="75.317845"/>
     <use style="fill:#1f77b4;stroke:#1f77b4;" x="324.564127" xlink:href="#m32d0204c4e" y="75.317845"/>
     <use style="fill:#1f77b4;stroke:#1f77b4;" x="317.631645" xlink:href="#m32d0204c4e" y="75.317845"/>
     <use style="fill:#1f77b4;stroke:#1f77b4;" x="322.252062" xlink:href="#m32d0204c4e" y="75.317845"/>
     <use style="fill:#1f77b4;stroke:#1f77b4;" x="325.43636" xlink:href="#m32d0204c4e" y="75.317845"/>
     <use style="fill:#1f77b4;stroke:#1f77b4;" x="153.782178" xlink:href="#m32d0204c4e" y="75.317845"/>
     <use style="fill:#1f77b4;stroke:#1f77b4;" x="152.929737" xlink:href="#m32d0204c4e" y="75.317845"/>
     <use style="fill:#1f77b4;stroke:#1f77b4;" x="321.619776" xlink:href="#m32d0204c4e" y="75.317845"/>
     <use style="fill:#1f77b4;stroke:#1f77b4;" x="314.596772" xlink:href="#m32d0204c4e" y="75.317845"/>
     <use style="fill:#1f77b4;stroke:#1f77b4;" x="147.232875" xlink:href="#m32d0204c4e" y="75.317845"/>
     <use style="fill:#1f77b4;stroke:#1f77b4;" x="155.647679" xlink:href="#m32d0204c4e" y="75.317845"/>
     <use style="fill:#1f77b4;stroke:#1f77b4;" x="158.838099" xlink:href="#m32d0204c4e" y="75.317845"/>
     <use style="fill:#1f77b4;stroke:#1f77b4;" x="146.941878" xlink:href="#m32d0204c4e" y="75.317845"/>
     <use style="fill:#1f77b4;stroke:#1f77b4;" x="315.660476" xlink:href="#m32d0204c4e" y="75.317845"/>
     <use style="fill:#1f77b4;stroke:#1f77b4;" x="320.931742" xlink:href="#m32d0204c4e" y="75.317845"/>
     <use style="fill:#1f77b4;stroke:#1f77b4;" x="148.10397" xlink:href="#m32d0204c4e" y="75.317845"/>
     <use style="fill:#1f77b4;stroke:#1f77b4;" x="166.558821" xlink:href="#m32d0204c4e" y="75.317845"/>
     <use style="fill:#1f77b4;stroke:#1f77b4;" x="151.388258" xlink:href="#m32d0204c4e" y="75.317845"/>
     <use style="fill:#1f77b4;stroke:#1f77b4;" x="320.18841" xlink:href="#m32d0204c4e" y="75.317845"/>
     <use style="fill:#1f77b4;stroke:#1f77b4;" x="307.166643" xlink:href="#m32d0204c4e" y="75.317845"/>
     <use style="fill:#1f77b4;stroke:#1f77b4;" x="147.755873" xlink:href="#m32d0204c4e" y="75.317845"/>
     <use style="fill:#1f77b4;stroke:#1f77b4;" x="161.218399" xlink:href="#m32d0204c4e" y="75.317845"/>
     <use style="fill:#1f77b4;stroke:#1f77b4;" x="162.482275" xlink:href="#m32d0204c4e" y="75.317845"/>
     <use style="fill:#1f77b4;stroke:#1f77b4;" x="325.261685" xlink:href="#m32d0204c4e" y="75.317845"/>
     <use style="fill:#1f77b4;stroke:#1f77b4;" x="302.814989" xlink:href="#m32d0204c4e" y="75.317845"/>
     <use style="fill:#1f77b4;stroke:#1f77b4;" x="319.390263" xlink:href="#m32d0204c4e" y="75.317845"/>
     <use style="fill:#1f77b4;stroke:#1f77b4;" x="157.723228" xlink:href="#m32d0204c4e" y="75.317845"/>
     <use style="fill:#1f77b4;stroke:#1f77b4;" x="177.613351" xlink:href="#m32d0204c4e" y="75.317845"/>
     <use style="fill:#1f77b4;stroke:#1f77b4;" x="148.972222" xlink:href="#m32d0204c4e" y="75.317845"/>
     <use style="fill:#1f77b4;stroke:#1f77b4;" x="313.481901" xlink:href="#m32d0204c4e" y="75.317845"/>
     <use style="fill:#1f77b4;stroke:#1f77b4;" x="301.276185" xlink:href="#m32d0204c4e" y="75.317845"/>
     <use style="fill:#1f77b4;stroke:#1f77b4;" x="148.509507" xlink:href="#m32d0204c4e" y="75.317845"/>
     <use style="fill:#1f77b4;stroke:#1f77b4;" x="169.505011" xlink:href="#m32d0204c4e" y="75.317845"/>
     <use style="fill:#1f77b4;stroke:#1f77b4;" x="168.009688" xlink:href="#m32d0204c4e" y="75.317845"/>
     <use style="fill:#1f77b4;stroke:#1f77b4;" x="281.785608" xlink:href="#m32d0204c4e" y="75.317845"/>
     <use style="fill:#1f77b4;stroke:#1f77b4;" x="292.966041" xlink:href="#m32d0204c4e" y="75.317845"/>
     <use style="fill:#1f77b4;stroke:#1f77b4;" x="316.672321" xlink:href="#m32d0204c4e" y="75.317845"/>
     <use style="fill:#1f77b4;stroke:#1f77b4;" x="163.794213" xlink:href="#m32d0204c4e" y="75.317845"/>
     <use style="fill:#1f77b4;stroke:#1f77b4;" x="184.793456" xlink:href="#m32d0204c4e" y="75.317845"/>
     <use style="fill:#1f77b4;stroke:#1f77b4;" x="146.88364" xlink:href="#m32d0204c4e" y="75.317845"/>
     <use style="fill:#1f77b4;stroke:#1f77b4;" x="299.694904" xlink:href="#m32d0204c4e" y="75.317845"/>
     <use style="fill:#1f77b4;stroke:#1f77b4;" x="298.072178" xlink:href="#m32d0204c4e" y="75.317845"/>
     <use style="fill:#1f77b4;stroke:#1f77b4;" x="325.087125" xlink:href="#m32d0204c4e" y="75.317845"/>
     <use style="fill:#1f77b4;stroke:#1f77b4;" x="179.353959" xlink:href="#m32d0204c4e" y="75.317845"/>
     <use style="fill:#1f77b4;stroke:#1f77b4;" x="171.043815" xlink:href="#m32d0204c4e" y="75.317845"/>
     <use style="fill:#1f77b4;stroke:#1f77b4;" x="318.537822" xlink:href="#m32d0204c4e" y="75.317845"/>
     <use style="fill:#1f77b4;stroke:#1f77b4;" x="279.810752" xlink:href="#m32d0204c4e" y="75.317845"/>
     <use style="fill:#1f77b4;stroke:#1f77b4;" x="324.21603" xlink:href="#m32d0204c4e" y="75.317845"/>
     <use style="fill:#1f77b4;stroke:#1f77b4;" x="172.625096" xlink:href="#m32d0204c4e" y="75.317845"/>
     <use style="fill:#1f77b4;stroke:#1f77b4;" x="190.534392" xlink:href="#m32d0204c4e" y="75.317845"/>
     <use style="fill:#1f77b4;stroke:#1f77b4;" x="149.491812" xlink:href="#m32d0204c4e" y="75.317845"/>
     <use style="fill:#1f77b4;stroke:#1f77b4;" x="291.188378" xlink:href="#m32d0204c4e" y="75.317845"/>
     <use style="fill:#1f77b4;stroke:#1f77b4;" x="304.310312" xlink:href="#m32d0204c4e" y="75.317845"/>
     <use style="fill:#1f77b4;stroke:#1f77b4;" x="325.378122" xlink:href="#m32d0204c4e" y="75.317845"/>
     <use style="fill:#1f77b4;stroke:#1f77b4;" x="188.589299" xlink:href="#m32d0204c4e" y="75.317845"/>
     <use style="fill:#1f77b4;stroke:#1f77b4;" x="160.00341" xlink:href="#m32d0204c4e" y="75.317845"/>
     <use style="fill:#1f77b4;stroke:#1f77b4;" x="308.525787" xlink:href="#m32d0204c4e" y="75.317845"/>
     <use style="fill:#1f77b4;stroke:#1f77b4;" x="271.639737" xlink:href="#m32d0204c4e" y="75.317845"/>
     <use style="fill:#1f77b4;stroke:#1f77b4;" x="165.153357" xlink:href="#m32d0204c4e" y="75.317845"/>
     <use style="fill:#1f77b4;stroke:#1f77b4;" x="175.910936" xlink:href="#m32d0204c4e" y="75.317845"/>
     <use style="fill:#1f77b4;stroke:#1f77b4;" x="194.512579" xlink:href="#m32d0204c4e" y="75.317845"/>
     <use style="fill:#1f77b4;stroke:#1f77b4;" x="323.810493" xlink:href="#m32d0204c4e" y="75.317845"/>
     <use style="fill:#1f77b4;stroke:#1f77b4;" x="277.807421" xlink:href="#m32d0204c4e" y="75.317845"/>
     <use style="fill:#1f77b4;stroke:#1f77b4;" x="285.644763" xlink:href="#m32d0204c4e" y="75.317845"/>
     <use style="fill:#1f77b4;stroke:#1f77b4;" x="182.945182" xlink:href="#m32d0204c4e" y="75.317845"/>
     <use style="fill:#1f77b4;stroke:#1f77b4;" x="200.680263" xlink:href="#m32d0204c4e" y="75.317845"/>
     <use style="fill:#1f77b4;stroke:#1f77b4;" x="156.659524" xlink:href="#m32d0204c4e" y="75.317845"/>
     <use style="fill:#1f77b4;stroke:#1f77b4;" x="311.101601" xlink:href="#m32d0204c4e" y="75.317845"/>
     <use style="fill:#1f77b4;stroke:#1f77b4;" x="269.535749" xlink:href="#m32d0204c4e" y="75.317845"/>
     <use style="fill:#1f77b4;stroke:#1f77b4;" x="324.854555" xlink:href="#m32d0204c4e" y="75.317845"/>
     <use style="fill:#1f77b4;stroke:#1f77b4;" x="192.509248" xlink:href="#m32d0204c4e" y="75.317845"/>
     <use style="fill:#1f77b4;stroke:#1f77b4;" x="186.675237" xlink:href="#m32d0204c4e" y="75.317845"/>
     <use style="fill:#1f77b4;stroke:#1f77b4;" x="294.706649" xlink:href="#m32d0204c4e" y="75.317845"/>
     <use style="fill:#1f77b4;stroke:#1f77b4;" x="273.720581" xlink:href="#m32d0204c4e" y="75.317845"/>
     <use style="fill:#1f77b4;stroke:#1f77b4;" x="312.31659" xlink:href="#m32d0204c4e" y="75.317845"/>
     <use style="fill:#1f77b4;stroke:#1f77b4;" x="289.374818" xlink:href="#m32d0204c4e" y="75.317845"/>
     <use style="fill:#1f77b4;stroke:#1f77b4;" x="209.221287" xlink:href="#m32d0204c4e" y="75.317845"/>
     <use style="fill:#1f77b4;stroke:#1f77b4;" x="174.247822" xlink:href="#m32d0204c4e" y="75.317845"/>
     <use style="fill:#1f77b4;stroke:#1f77b4;" x="305.761179" xlink:href="#m32d0204c4e" y="75.317845"/>
     <use style="fill:#1f77b4;stroke:#1f77b4;" x="265.263844" xlink:href="#m32d0204c4e" y="75.317845"/>
     <use style="fill:#1f77b4;stroke:#1f77b4;" x="147.465445" xlink:href="#m32d0204c4e" y="75.317845"/>
     <use style="fill:#1f77b4;stroke:#1f77b4;" x="198.599419" xlink:href="#m32d0204c4e" y="75.317845"/>
     <use style="fill:#1f77b4;stroke:#1f77b4;" x="196.543078" xlink:href="#m32d0204c4e" y="75.317845"/>
     <use style="fill:#1f77b4;stroke:#1f77b4;" x="283.730701" xlink:href="#m32d0204c4e" y="75.317845"/>
     <use style="fill:#1f77b4;stroke:#1f77b4;" x="263.098713" xlink:href="#m32d0204c4e" y="75.317845"/>
     <use style="fill:#1f77b4;stroke:#1f77b4;" x="296.409064" xlink:href="#m32d0204c4e" y="75.317845"/>
     <use style="fill:#1f77b4;stroke:#1f77b4;" x="323.347778" xlink:href="#m32d0204c4e" y="75.317845"/>
     <use style="fill:#1f77b4;stroke:#1f77b4;" x="211.40399" xlink:href="#m32d0204c4e" y="75.317845"/>
     <use style="fill:#1f77b4;stroke:#1f77b4;" x="202.784251" xlink:href="#m32d0204c4e" y="75.317845"/>
     <use style="fill:#1f77b4;stroke:#1f77b4;" x="252.038097" xlink:href="#m32d0204c4e" y="75.317845"/>
     <use style="fill:#1f77b4;stroke:#1f77b4;" x="275.776922" xlink:href="#m32d0204c4e" y="75.317845"/>
     <use style="fill:#1f77b4;stroke:#1f77b4;" x="150.700224" xlink:href="#m32d0204c4e" y="75.317845"/>
     <use style="fill:#1f77b4;stroke:#1f77b4;" x="204.910011" xlink:href="#m32d0204c4e" y="75.317845"/>
     <use style="fill:#1f77b4;stroke:#1f77b4;" x="181.131622" xlink:href="#m32d0204c4e" y="75.317845"/>
     <use style="fill:#1f77b4;stroke:#1f77b4;" x="287.526544" xlink:href="#m32d0204c4e" y="75.317845"/>
     <use style="fill:#1f77b4;stroke:#1f77b4;" x="256.503591" xlink:href="#m32d0204c4e" y="75.317845"/>
     <use style="fill:#1f77b4;stroke:#1f77b4;" x="152.13159" xlink:href="#m32d0204c4e" y="75.317845"/>
     <use style="fill:#1f77b4;stroke:#1f77b4;" x="213.602842" xlink:href="#m32d0204c4e" y="75.317845"/>
     <use style="fill:#1f77b4;stroke:#1f77b4;" x="215.816409" xlink:href="#m32d0204c4e" y="75.317845"/>
     <use style="fill:#1f77b4;stroke:#1f77b4;" x="322.828188" xlink:href="#m32d0204c4e" y="75.317845"/>
     <use style="fill:#1f77b4;stroke:#1f77b4;" x="267.409989" xlink:href="#m32d0204c4e" y="75.317845"/>
     <use style="fill:#1f77b4;stroke:#1f77b4;" x="258.717158" xlink:href="#m32d0204c4e" y="75.317845"/>
     <use style="fill:#1f77b4;stroke:#1f77b4;" x="231.601124" xlink:href="#m32d0204c4e" y="75.317845"/>
     <use style="fill:#1f77b4;stroke:#1f77b4;" x="218.043247" xlink:href="#m32d0204c4e" y="75.317845"/>
     <use style="fill:#1f77b4;stroke:#1f77b4;" x="207.056156" xlink:href="#m32d0204c4e" y="75.317845"/>
     <use style="fill:#1f77b4;stroke:#1f77b4;" x="240.718876" xlink:href="#m32d0204c4e" y="75.317845"/>
     <use style="fill:#1f77b4;stroke:#1f77b4;" x="254.276753" xlink:href="#m32d0204c4e" y="75.317845"/>
     <use style="fill:#1f77b4;stroke:#1f77b4;" x="309.837725" xlink:href="#m32d0204c4e" y="75.317845"/>
     <use style="fill:#1f77b4;stroke:#1f77b4;" x="260.91601" xlink:href="#m32d0204c4e" y="75.317845"/>
     <use style="fill:#1f77b4;stroke:#1f77b4;" x="220.281903" xlink:href="#m32d0204c4e" y="75.317845"/>
     <use style="fill:#1f77b4;stroke:#1f77b4;" x="233.879818" xlink:href="#m32d0204c4e" y="75.317845"/>
     <use style="fill:#1f77b4;stroke:#1f77b4;" x="245.265858" xlink:href="#m32d0204c4e" y="75.317845"/>
     <use style="fill:#1f77b4;stroke:#1f77b4;" x="247.53118" xlink:href="#m32d0204c4e" y="75.317845"/>
     <use style="fill:#1f77b4;stroke:#1f77b4;" x="236.16" xlink:href="#m32d0204c4e" y="75.317845"/>
     <use style="fill:#1f77b4;stroke:#1f77b4;" x="222.530916" xlink:href="#m32d0204c4e" y="75.317845"/>
     <use style="fill:#1f77b4;stroke:#1f77b4;" x="229.325404" xlink:href="#m32d0204c4e" y="75.317845"/>
     <use style="fill:#1f77b4;stroke:#1f77b4;" x="238.440182" xlink:href="#m32d0204c4e" y="75.317845"/>
     <use style="fill:#1f77b4;stroke:#1f77b4;" x="249.789084" xlink:href="#m32d0204c4e" y="75.317845"/>
     <use style="fill:#1f77b4;stroke:#1f77b4;" x="242.994596" xlink:href="#m32d0204c4e" y="75.317845"/>
     <use style="fill:#1f77b4;stroke:#1f77b4;" x="227.054142" xlink:href="#m32d0204c4e" y="75.317845"/>
     <use style="fill:#1f77b4;stroke:#1f77b4;" x="224.78882" xlink:href="#m32d0204c4e" y="75.317845"/>
    </g>
   </g>
   <g id="patch_3">
    <path d="M 57.6 307.584 
L 57.6 41.472 
" style="fill:none;stroke:#000000;stroke-linecap:square;stroke-linejoin:miter;stroke-width:0.8;"/>
   </g>
   <g id="patch_4">
    <path d="M 414.72 307.584 
L 414.72 41.472 
" style="fill:none;stroke:#000000;stroke-linecap:square;stroke-linejoin:miter;stroke-width:0.8;"/>
   </g>
   <g id="patch_5">
    <path d="M 57.6 307.584 
L 414.72 307.584 
" style="fill:none;stroke:#000000;stroke-linecap:square;stroke-linejoin:miter;stroke-width:0.8;"/>
   </g>
   <g id="patch_6">
    <path d="M 57.6 41.472 
L 414.72 41.472 
" style="fill:none;stroke:#000000;stroke-linecap:square;stroke-linejoin:miter;stroke-width:0.8;"/>
   </g>
  </g>
 </g>
 <defs>
  <clipPath id="pa12b3952ba">
   <rect height="266.112" width="357.12" x="57.6" y="41.472"/>
  </clipPath>
 </defs>
</svg>
