<?xml version="1.0" encoding="utf-8" standalone="no"?>
<!DOCTYPE svg PUBLIC "-//W3C//DTD SVG 1.1//EN"
  "http://www.w3.org/Graphics/SVG/1.1/DTD/svg11.dtd">
<!-- Created with matplotlib (http://matplotlib.org/) -->
<svg height="345pt" version="1.1" viewBox="0 0 460 345" width="460pt" xmlns="http://www.w3.org/2000/svg" xmlns:xlink="http://www.w3.org/1999/xlink">
 <defs>
  <style type="text/css">
*{stroke-linecap:butt;stroke-linejoin:round;}
  </style>
 </defs>
 <g id="figure_1">
  <g id="patch_1">
   <path d="M 0 345.6 
L 460.8 345.6 
L 460.8 0 
L 0 0 
z
" style="fill:#ffffff;"/>
  </g>
  <g id="axes_1">
   <g id="patch_2">
    <path d="M 57.6 307.584 
L 414.72 307.584 
L 414.72 41.472 
L 57.6 41.472 
z
" style="fill:#ffffff;"/>
   </g>
   <g id="matplotlib.axis_1">
    <g id="xtick_1">
     <g id="line2d_1">
      <path clip-path="url(#p2e523f6276)" d="M 57.572246 307.584 
L 57.572246 41.472 
" style="fill:none;stroke:#b0b0b0;stroke-linecap:square;stroke-width:0.8;"/>
     </g>
     <g id="line2d_2">
      <defs>
       <path d="M 0 0 
L 0 3.5 
" id="mb1d2f258f5" style="stroke:#000000;stroke-width:0.8;"/>
      </defs>
      <g>
       <use style="stroke:#000000;stroke-width:0.8;" x="57.572246" xlink:href="#mb1d2f258f5" y="307.584"/>
      </g>
     </g>
     <g id="text_1">
      <!-- −2.0 -->
      <defs>
       <path d="M 10.59375 35.5 
L 73.1875 35.5 
L 73.1875 27.203125 
L 10.59375 27.203125 
z
" id="DejaVuSans-2212"/>
       <path d="M 19.1875 8.296875 
L 53.609375 8.296875 
L 53.609375 0 
L 7.328125 0 
L 7.328125 8.296875 
Q 12.9375 14.109375 22.625 23.890625 
Q 32.328125 33.6875 34.8125 36.53125 
Q 39.546875 41.84375 41.421875 45.53125 
Q 43.3125 49.21875 43.3125 52.78125 
Q 43.3125 58.59375 39.234375 62.25 
Q 35.15625 65.921875 28.609375 65.921875 
Q 23.96875 65.921875 18.8125 64.3125 
Q 13.671875 62.703125 7.8125 59.421875 
L 7.8125 69.390625 
Q 13.765625 71.78125 18.9375 73 
Q 24.125 74.21875 28.421875 74.21875 
Q 39.75 74.21875 46.484375 68.546875 
Q 53.21875 62.890625 53.21875 53.421875 
Q 53.21875 48.921875 51.53125 44.890625 
Q 49.859375 40.875 45.40625 35.40625 
Q 44.1875 33.984375 37.640625 27.21875 
Q 31.109375 20.453125 19.1875 8.296875 
" id="DejaVuSans-32"/>
       <path d="M 10.6875 12.40625 
L 21 12.40625 
L 21 0 
L 10.6875 0 
z
" id="DejaVuSans-2e"/>
       <path d="M 31.78125 66.40625 
Q 24.171875 66.40625 20.328125 58.90625 
Q 16.5 51.421875 16.5 36.375 
Q 16.5 21.390625 20.328125 13.890625 
Q 24.171875 6.390625 31.78125 6.390625 
Q 39.453125 6.390625 43.28125 13.890625 
Q 47.125 21.390625 47.125 36.375 
Q 47.125 51.421875 43.28125 58.90625 
Q 39.453125 66.40625 31.78125 66.40625 
M 31.78125 74.21875 
Q 44.046875 74.21875 50.515625 64.515625 
Q 56.984375 54.828125 56.984375 36.375 
Q 56.984375 17.96875 50.515625 8.265625 
Q 44.046875 -1.421875 31.78125 -1.421875 
Q 19.53125 -1.421875 13.0625 8.265625 
Q 6.59375 17.96875 6.59375 36.375 
Q 6.59375 54.828125 13.0625 64.515625 
Q 19.53125 74.21875 31.78125 74.21875 
" id="DejaVuSans-30"/>
      </defs>
      <g transform="translate(45.43084 322.182437)scale(0.1 -0.1)">
       <use xlink:href="#DejaVuSans-2212"/>
       <use x="83.789062" xlink:href="#DejaVuSans-32"/>
       <use x="147.412109" xlink:href="#DejaVuSans-2e"/>
       <use x="179.199219" xlink:href="#DejaVuSans-30"/>
      </g>
     </g>
    </g>
    <g id="xtick_2">
     <g id="line2d_3">
      <path clip-path="url(#p2e523f6276)" d="M 102.219184 307.584 
L 102.219184 41.472 
" style="fill:none;stroke:#b0b0b0;stroke-linecap:square;stroke-width:0.8;"/>
     </g>
     <g id="line2d_4">
      <g>
       <use style="stroke:#000000;stroke-width:0.8;" x="102.219184" xlink:href="#mb1d2f258f5" y="307.584"/>
      </g>
     </g>
     <g id="text_2">
      <!-- −1.5 -->
      <defs>
       <path d="M 12.40625 8.296875 
L 28.515625 8.296875 
L 28.515625 63.921875 
L 10.984375 60.40625 
L 10.984375 69.390625 
L 28.421875 72.90625 
L 38.28125 72.90625 
L 38.28125 8.296875 
L 54.390625 8.296875 
L 54.390625 0 
L 12.40625 0 
z
" id="DejaVuSans-31"/>
       <path d="M 10.796875 72.90625 
L 49.515625 72.90625 
L 49.515625 64.59375 
L 19.828125 64.59375 
L 19.828125 46.734375 
Q 21.96875 47.46875 24.109375 47.828125 
Q 26.265625 48.1875 28.421875 48.1875 
Q 40.625 48.1875 47.75 41.5 
Q 54.890625 34.8125 54.890625 23.390625 
Q 54.890625 11.625 47.5625 5.09375 
Q 40.234375 -1.421875 26.90625 -1.421875 
Q 22.3125 -1.421875 17.546875 -0.640625 
Q 12.796875 0.140625 7.71875 1.703125 
L 7.71875 11.625 
Q 12.109375 9.234375 16.796875 8.0625 
Q 21.484375 6.890625 26.703125 6.890625 
Q 35.15625 6.890625 40.078125 11.328125 
Q 45.015625 15.765625 45.015625 23.390625 
Q 45.015625 31 40.078125 35.4375 
Q 35.15625 39.890625 26.703125 39.890625 
Q 22.75 39.890625 18.8125 39.015625 
Q 14.890625 38.140625 10.796875 36.28125 
z
" id="DejaVuSans-35"/>
      </defs>
      <g transform="translate(90.077778 322.182437)scale(0.1 -0.1)">
       <use xlink:href="#DejaVuSans-2212"/>
       <use x="83.789062" xlink:href="#DejaVuSans-31"/>
       <use x="147.412109" xlink:href="#DejaVuSans-2e"/>
       <use x="179.199219" xlink:href="#DejaVuSans-35"/>
      </g>
     </g>
    </g>
    <g id="xtick_3">
     <g id="line2d_5">
      <path clip-path="url(#p2e523f6276)" d="M 146.866123 307.584 
L 146.866123 41.472 
" style="fill:none;stroke:#b0b0b0;stroke-linecap:square;stroke-width:0.8;"/>
     </g>
     <g id="line2d_6">
      <g>
       <use style="stroke:#000000;stroke-width:0.8;" x="146.866123" xlink:href="#mb1d2f258f5" y="307.584"/>
      </g>
     </g>
     <g id="text_3">
      <!-- −1.0 -->
      <g transform="translate(134.724717 322.182437)scale(0.1 -0.1)">
       <use xlink:href="#DejaVuSans-2212"/>
       <use x="83.789062" xlink:href="#DejaVuSans-31"/>
       <use x="147.412109" xlink:href="#DejaVuSans-2e"/>
       <use x="179.199219" xlink:href="#DejaVuSans-30"/>
      </g>
     </g>
    </g>
    <g id="xtick_4">
     <g id="line2d_7">
      <path clip-path="url(#p2e523f6276)" d="M 191.513061 307.584 
L 191.513061 41.472 
" style="fill:none;stroke:#b0b0b0;stroke-linecap:square;stroke-width:0.8;"/>
     </g>
     <g id="line2d_8">
      <g>
       <use style="stroke:#000000;stroke-width:0.8;" x="191.513061" xlink:href="#mb1d2f258f5" y="307.584"/>
      </g>
     </g>
     <g id="text_4">
      <!-- −0.5 -->
      <g transform="translate(179.371655 322.182437)scale(0.1 -0.1)">
       <use xlink:href="#DejaVuSans-2212"/>
       <use x="83.789062" xlink:href="#DejaVuSans-30"/>
       <use x="147.412109" xlink:href="#DejaVuSans-2e"/>
       <use x="179.199219" xlink:href="#DejaVuSans-35"/>
      </g>
     </g>
    </g>
    <g id="xtick_5">
     <g id="line2d_9">
      <path clip-path="url(#p2e523f6276)" d="M 236.16 307.584 
L 236.16 41.472 
" style="fill:none;stroke:#b0b0b0;stroke-linecap:square;stroke-width:0.8;"/>
     </g>
     <g id="line2d_10">
      <g>
       <use style="stroke:#000000;stroke-width:0.8;" x="236.16" xlink:href="#mb1d2f258f5" y="307.584"/>
      </g>
     </g>
     <g id="text_5">
      <!-- 0.0 -->
      <g transform="translate(228.208438 322.182437)scale(0.1 -0.1)">
       <use xlink:href="#DejaVuSans-30"/>
       <use x="63.623047" xlink:href="#DejaVuSans-2e"/>
       <use x="95.410156" xlink:href="#DejaVuSans-30"/>
      </g>
     </g>
    </g>
    <g id="xtick_6">
     <g id="line2d_11">
      <path clip-path="url(#p2e523f6276)" d="M 280.806939 307.584 
L 280.806939 41.472 
" style="fill:none;stroke:#b0b0b0;stroke-linecap:square;stroke-width:0.8;"/>
     </g>
     <g id="line2d_12">
      <g>
       <use style="stroke:#000000;stroke-width:0.8;" x="280.806939" xlink:href="#mb1d2f258f5" y="307.584"/>
      </g>
     </g>
     <g id="text_6">
      <!-- 0.5 -->
      <g transform="translate(272.855376 322.182437)scale(0.1 -0.1)">
       <use xlink:href="#DejaVuSans-30"/>
       <use x="63.623047" xlink:href="#DejaVuSans-2e"/>
       <use x="95.410156" xlink:href="#DejaVuSans-35"/>
      </g>
     </g>
    </g>
    <g id="xtick_7">
     <g id="line2d_13">
      <path clip-path="url(#p2e523f6276)" d="M 325.453877 307.584 
L 325.453877 41.472 
" style="fill:none;stroke:#b0b0b0;stroke-linecap:square;stroke-width:0.8;"/>
     </g>
     <g id="line2d_14">
      <g>
       <use style="stroke:#000000;stroke-width:0.8;" x="325.453877" xlink:href="#mb1d2f258f5" y="307.584"/>
      </g>
     </g>
     <g id="text_7">
      <!-- 1.0 -->
      <g transform="translate(317.502315 322.182437)scale(0.1 -0.1)">
       <use xlink:href="#DejaVuSans-31"/>
       <use x="63.623047" xlink:href="#DejaVuSans-2e"/>
       <use x="95.410156" xlink:href="#DejaVuSans-30"/>
      </g>
     </g>
    </g>
    <g id="xtick_8">
     <g id="line2d_15">
      <path clip-path="url(#p2e523f6276)" d="M 370.100816 307.584 
L 370.100816 41.472 
" style="fill:none;stroke:#b0b0b0;stroke-linecap:square;stroke-width:0.8;"/>
     </g>
     <g id="line2d_16">
      <g>
       <use style="stroke:#000000;stroke-width:0.8;" x="370.100816" xlink:href="#mb1d2f258f5" y="307.584"/>
      </g>
     </g>
     <g id="text_8">
      <!-- 1.5 -->
      <g transform="translate(362.149253 322.182437)scale(0.1 -0.1)">
       <use xlink:href="#DejaVuSans-31"/>
       <use x="63.623047" xlink:href="#DejaVuSans-2e"/>
       <use x="95.410156" xlink:href="#DejaVuSans-35"/>
      </g>
     </g>
    </g>
    <g id="xtick_9">
     <g id="line2d_17">
      <path clip-path="url(#p2e523f6276)" d="M 414.747754 307.584 
L 414.747754 41.472 
" style="fill:none;stroke:#b0b0b0;stroke-linecap:square;stroke-width:0.8;"/>
     </g>
     <g id="line2d_18">
      <g>
       <use style="stroke:#000000;stroke-width:0.8;" x="414.747754" xlink:href="#mb1d2f258f5" y="307.584"/>
      </g>
     </g>
     <g id="text_9">
      <!-- 2.0 -->
      <g transform="translate(406.796192 322.182437)scale(0.1 -0.1)">
       <use xlink:href="#DejaVuSans-32"/>
       <use x="63.623047" xlink:href="#DejaVuSans-2e"/>
       <use x="95.410156" xlink:href="#DejaVuSans-30"/>
      </g>
     </g>
    </g>
    <g id="text_10">
     <!-- $\gamma_i$ -->
     <defs>
      <path d="M 23.296875 46.09375 
L 28.71875 12.3125 
L 54 54.6875 
L 63.53125 54.6875 
L 30.8125 0 
L 26.765625 -20.796875 
L 17.78125 -20.796875 
L 21.828125 0 
L 15.4375 40.828125 
Q 14.453125 46.96875 9.8125 46.96875 
L 7.421875 46.96875 
L 8.890625 54.6875 
L 12.3125 54.6875 
Q 21.921875 54.6875 23.296875 46.09375 
" id="DejaVuSans-Oblique-3b3"/>
      <path d="M 18.3125 75.984375 
L 27.296875 75.984375 
L 25.09375 64.59375 
L 16.109375 64.59375 
z
M 14.203125 54.6875 
L 23.1875 54.6875 
L 12.5 0 
L 3.515625 0 
z
" id="DejaVuSans-Oblique-69"/>
     </defs>
     <g transform="translate(232.06 335.84025)scale(0.1 -0.1)">
      <use transform="translate(0 0.3125)" xlink:href="#DejaVuSans-Oblique-3b3"/>
      <use transform="translate(59.179688 -16.09375)scale(0.7)" xlink:href="#DejaVuSans-Oblique-69"/>
     </g>
    </g>
   </g>
   <g id="matplotlib.axis_2">
    <g id="ytick_1">
     <g id="line2d_19">
      <path clip-path="url(#p2e523f6276)" d="M 57.6 295.488 
L 414.72 295.488 
" style="fill:none;stroke:#b0b0b0;stroke-linecap:square;stroke-width:0.8;"/>
     </g>
     <g id="line2d_20">
      <defs>
       <path d="M 0 0 
L -3.5 0 
" id="mad56833ba1" style="stroke:#000000;stroke-width:0.8;"/>
      </defs>
      <g>
       <use style="stroke:#000000;stroke-width:0.8;" x="57.6" xlink:href="#mad56833ba1" y="295.488"/>
      </g>
     </g>
     <g id="text_11">
      <!-- ${10^{-2}}$ -->
      <g transform="translate(27.1 299.287219)scale(0.1 -0.1)">
       <use transform="translate(0 0.765625)" xlink:href="#DejaVuSans-31"/>
       <use transform="translate(63.623047 0.765625)" xlink:href="#DejaVuSans-30"/>
       <use transform="translate(128.203125 39.046875)scale(0.7)" xlink:href="#DejaVuSans-2212"/>
       <use transform="translate(186.855469 39.046875)scale(0.7)" xlink:href="#DejaVuSans-32"/>
      </g>
     </g>
    </g>
    <g id="ytick_2">
     <g id="line2d_21">
      <path clip-path="url(#p2e523f6276)" d="M 57.6 53.568 
L 414.72 53.568 
" style="fill:none;stroke:#b0b0b0;stroke-linecap:square;stroke-width:0.8;"/>
     </g>
     <g id="line2d_22">
      <g>
       <use style="stroke:#000000;stroke-width:0.8;" x="57.6" xlink:href="#mad56833ba1" y="53.568"/>
      </g>
     </g>
     <g id="text_12">
      <!-- ${10^{-1}}$ -->
      <g transform="translate(27.1 57.367219)scale(0.1 -0.1)">
       <use transform="translate(0 0.684375)" xlink:href="#DejaVuSans-31"/>
       <use transform="translate(63.623047 0.684375)" xlink:href="#DejaVuSans-30"/>
       <use transform="translate(128.203125 38.965625)scale(0.7)" xlink:href="#DejaVuSans-2212"/>
       <use transform="translate(186.855469 38.965625)scale(0.7)" xlink:href="#DejaVuSans-31"/>
      </g>
     </g>
    </g>
    <g id="ytick_3">
     <g id="line2d_23">
      <defs>
       <path d="M 0 0 
L -2 0 
" id="m1007cdfe25" style="stroke:#000000;stroke-width:0.6;"/>
      </defs>
      <g>
       <use style="stroke:#000000;stroke-width:0.6;" x="57.6" xlink:href="#m1007cdfe25" y="306.557652"/>
      </g>
     </g>
    </g>
    <g id="ytick_4">
     <g id="line2d_24">
      <g>
       <use style="stroke:#000000;stroke-width:0.6;" x="57.6" xlink:href="#m1007cdfe25" y="222.662823"/>
      </g>
     </g>
    </g>
    <g id="ytick_5">
     <g id="line2d_25">
      <g>
       <use style="stroke:#000000;stroke-width:0.6;" x="57.6" xlink:href="#m1007cdfe25" y="180.062826"/>
      </g>
     </g>
    </g>
    <g id="ytick_6">
     <g id="line2d_26">
      <g>
       <use style="stroke:#000000;stroke-width:0.6;" x="57.6" xlink:href="#m1007cdfe25" y="149.837647"/>
      </g>
     </g>
    </g>
    <g id="ytick_7">
     <g id="line2d_27">
      <g>
       <use style="stroke:#000000;stroke-width:0.6;" x="57.6" xlink:href="#m1007cdfe25" y="126.393177"/>
      </g>
     </g>
    </g>
    <g id="ytick_8">
     <g id="line2d_28">
      <g>
       <use style="stroke:#000000;stroke-width:0.6;" x="57.6" xlink:href="#m1007cdfe25" y="107.23765"/>
      </g>
     </g>
    </g>
    <g id="ytick_9">
     <g id="line2d_29">
      <g>
       <use style="stroke:#000000;stroke-width:0.6;" x="57.6" xlink:href="#m1007cdfe25" y="91.041882"/>
      </g>
     </g>
    </g>
    <g id="ytick_10">
     <g id="line2d_30">
      <g>
       <use style="stroke:#000000;stroke-width:0.6;" x="57.6" xlink:href="#m1007cdfe25" y="77.01247"/>
      </g>
     </g>
    </g>
    <g id="ytick_11">
     <g id="line2d_31">
      <g>
       <use style="stroke:#000000;stroke-width:0.6;" x="57.6" xlink:href="#m1007cdfe25" y="64.637652"/>
      </g>
     </g>
    </g>
    <g id="text_13">
     <!-- $\omega_i$ -->
     <defs>
      <path d="M 21.390625 -1.421875 
Q 1.125 -1.421875 6.78125 27.59375 
Q 8.984375 39.0625 19.625 54.6875 
L 29.296875 54.6875 
Q 19.234375 39.0625 17 27.34375 
Q 12.796875 6.203125 23.734375 6.203125 
Q 33.84375 6.203125 38.71875 32.46875 
L 47.015625 32.46875 
Q 41.703125 6.0625 51.8125 6.203125 
Q 62.703125 6.296875 66.796875 27.34375 
Q 69.046875 39.0625 65.140625 54.6875 
L 74.8125 54.6875 
Q 79.296875 39.0625 77.09375 27.59375 
Q 71.53125 -1.46875 51.21875 -1.421875 
Q 37.9375 -1.375 39.109375 13.1875 
Q 34.28125 -1.421875 21.390625 -1.421875 
" id="DejaVuSans-Oblique-3c9"/>
     </defs>
     <g transform="translate(21.020313 179.828)rotate(-90)scale(0.1 -0.1)">
      <use transform="translate(0 0.3125)" xlink:href="#DejaVuSans-Oblique-3c9"/>
      <use transform="translate(83.740234 -16.09375)scale(0.7)" xlink:href="#DejaVuSans-Oblique-69"/>
     </g>
    </g>
   </g>
   <g id="line2d_32">
    <defs>
     <path d="M 0 3 
C 0.795609 3 1.55874 2.683901 2.12132 2.12132 
C 2.683901 1.55874 3 0.795609 3 0 
C 3 -0.795609 2.683901 -1.55874 2.12132 -2.12132 
C 1.55874 -2.683901 0.795609 -3 0 -3 
C -0.795609 -3 -1.55874 -2.683901 -2.12132 -2.12132 
C -2.683901 -1.55874 -3 -0.795609 -3 0 
C -3 0.795609 -2.683901 1.55874 -2.12132 2.12132 
C -1.55874 2.683901 -0.795609 3 0 3 
z
" id="m40bd8e34e8" style="stroke:#1f77b4;"/>
    </defs>
    <g clip-path="url(#p2e523f6276)">
     <use style="fill:#1f77b4;stroke:#1f77b4;" x="324.760886" xlink:href="#m40bd8e34e8" y="246.944466"/>
     <use style="fill:#1f77b4;stroke:#1f77b4;" x="149.104907" xlink:href="#m40bd8e34e8" y="246.944466"/>
     <use style="fill:#1f77b4;stroke:#1f77b4;" x="154.768108" xlink:href="#m40bd8e34e8" y="246.944466"/>
     <use style="fill:#1f77b4;stroke:#1f77b4;" x="147.559114" xlink:href="#m40bd8e34e8" y="246.944466"/>
     <use style="fill:#1f77b4;stroke:#1f77b4;" x="320.804108" xlink:href="#m40bd8e34e8" y="246.944466"/>
     <use style="fill:#1f77b4;stroke:#1f77b4;" x="319.281326" xlink:href="#m40bd8e34e8" y="246.944466"/>
     <use style="fill:#1f77b4;stroke:#1f77b4;" x="147.115807" xlink:href="#m40bd8e34e8" y="246.944466"/>
     <use style="fill:#1f77b4;stroke:#1f77b4;" x="156.699896" xlink:href="#m40bd8e34e8" y="246.944466"/>
     <use style="fill:#1f77b4;stroke:#1f77b4;" x="325.426123" xlink:href="#m40bd8e34e8" y="246.944466"/>
     <use style="fill:#1f77b4;stroke:#1f77b4;" x="146.893877" xlink:href="#m40bd8e34e8" y="246.944466"/>
     <use style="fill:#1f77b4;stroke:#1f77b4;" x="311.169172" xlink:href="#m40bd8e34e8" y="246.944466"/>
     <use style="fill:#1f77b4;stroke:#1f77b4;" x="322.116451" xlink:href="#m40bd8e34e8" y="246.944466"/>
     <use style="fill:#1f77b4;stroke:#1f77b4;" x="153.038674" xlink:href="#m40bd8e34e8" y="246.944466"/>
     <use style="fill:#1f77b4;stroke:#1f77b4;" x="158.829234" xlink:href="#m40bd8e34e8" y="246.944466"/>
     <use style="fill:#1f77b4;stroke:#1f77b4;" x="150.203549" xlink:href="#m40bd8e34e8" y="246.944466"/>
     <use style="fill:#1f77b4;stroke:#1f77b4;" x="313.490766" xlink:href="#m40bd8e34e8" y="246.944466"/>
     <use style="fill:#1f77b4;stroke:#1f77b4;" x="315.620104" xlink:href="#m40bd8e34e8" y="246.944466"/>
     <use style="fill:#1f77b4;stroke:#1f77b4;" x="324.097302" xlink:href="#m40bd8e34e8" y="246.944466"/>
     <use style="fill:#1f77b4;stroke:#1f77b4;" x="166.347236" xlink:href="#m40bd8e34e8" y="246.944466"/>
     <use style="fill:#1f77b4;stroke:#1f77b4;" x="151.515892" xlink:href="#m40bd8e34e8" y="246.944466"/>
     <use style="fill:#1f77b4;stroke:#1f77b4;" x="308.661092" xlink:href="#m40bd8e34e8" y="246.944466"/>
     <use style="fill:#1f77b4;stroke:#1f77b4;" x="303.110871" xlink:href="#m40bd8e34e8" y="246.944466"/>
     <use style="fill:#1f77b4;stroke:#1f77b4;" x="325.204193" xlink:href="#m40bd8e34e8" y="246.944466"/>
     <use style="fill:#1f77b4;stroke:#1f77b4;" x="161.150828" xlink:href="#m40bd8e34e8" y="246.944466"/>
     <use style="fill:#1f77b4;stroke:#1f77b4;" x="163.658908" xlink:href="#m40bd8e34e8" y="246.944466"/>
     <use style="fill:#1f77b4;stroke:#1f77b4;" x="317.551892" xlink:href="#m40bd8e34e8" y="246.944466"/>
     <use style="fill:#1f77b4;stroke:#1f77b4;" x="300.082526" xlink:href="#m40bd8e34e8" y="246.944466"/>
     <use style="fill:#1f77b4;stroke:#1f77b4;" x="305.972764" xlink:href="#m40bd8e34e8" y="246.944466"/>
     <use style="fill:#1f77b4;stroke:#1f77b4;" x="193.454848" xlink:href="#m40bd8e34e8" y="246.944466"/>
     <use style="fill:#1f77b4;stroke:#1f77b4;" x="178.763002" xlink:href="#m40bd8e34e8" y="246.944466"/>
     <use style="fill:#1f77b4;stroke:#1f77b4;" x="249.468562" xlink:href="#m40bd8e34e8" y="246.944466"/>
     <use style="fill:#1f77b4;stroke:#1f77b4;" x="323.215093" xlink:href="#m40bd8e34e8" y="246.944466"/>
     <use style="fill:#1f77b4;stroke:#1f77b4;" x="296.895261" xlink:href="#m40bd8e34e8" y="246.944466"/>
     <use style="fill:#1f77b4;stroke:#1f77b4;" x="148.222698" xlink:href="#m40bd8e34e8" y="246.944466"/>
     <use style="fill:#1f77b4;stroke:#1f77b4;" x="175.424739" xlink:href="#m40bd8e34e8" y="246.944466"/>
     <use style="fill:#1f77b4;stroke:#1f77b4;" x="169.209129" xlink:href="#m40bd8e34e8" y="246.944466"/>
     <use style="fill:#1f77b4;stroke:#1f77b4;" x="240.610932" xlink:href="#m40bd8e34e8" y="246.944466"/>
     <use style="fill:#1f77b4;stroke:#1f77b4;" x="286.461032" xlink:href="#m40bd8e34e8" y="246.944466"/>
     <use style="fill:#1f77b4;stroke:#1f77b4;" x="282.720971" xlink:href="#m40bd8e34e8" y="246.944466"/>
     <use style="fill:#1f77b4;stroke:#1f77b4;" x="172.237474" xlink:href="#m40bd8e34e8" y="246.944466"/>
     <use style="fill:#1f77b4;stroke:#1f77b4;" x="189.599029" xlink:href="#m40bd8e34e8" y="246.944466"/>
     <use style="fill:#1f77b4;stroke:#1f77b4;" x="214.126075" xlink:href="#m40bd8e34e8" y="246.944466"/>
     <use style="fill:#1f77b4;stroke:#1f77b4;" x="274.903161" xlink:href="#m40bd8e34e8" y="246.944466"/>
     <use style="fill:#1f77b4;stroke:#1f77b4;" x="290.076037" xlink:href="#m40bd8e34e8" y="246.944466"/>
     <use style="fill:#1f77b4;stroke:#1f77b4;" x="236.16" xlink:href="#m40bd8e34e8" y="246.944466"/>
     <use style="fill:#1f77b4;stroke:#1f77b4;" x="185.858968" xlink:href="#m40bd8e34e8" y="246.944466"/>
     <use style="fill:#1f77b4;stroke:#1f77b4;" x="182.243963" xlink:href="#m40bd8e34e8" y="246.944466"/>
     <use style="fill:#1f77b4;stroke:#1f77b4;" x="293.556998" xlink:href="#m40bd8e34e8" y="246.944466"/>
     <use style="fill:#1f77b4;stroke:#1f77b4;" x="278.865152" xlink:href="#m40bd8e34e8" y="246.944466"/>
     <use style="fill:#1f77b4;stroke:#1f77b4;" x="253.853237" xlink:href="#m40bd8e34e8" y="246.944466"/>
     <use style="fill:#1f77b4;stroke:#1f77b4;" x="218.466763" xlink:href="#m40bd8e34e8" y="246.944466"/>
     <use style="fill:#1f77b4;stroke:#1f77b4;" x="197.416839" xlink:href="#m40bd8e34e8" y="246.944466"/>
     <use style="fill:#1f77b4;stroke:#1f77b4;" x="231.709068" xlink:href="#m40bd8e34e8" y="246.944466"/>
     <use style="fill:#1f77b4;stroke:#1f77b4;" x="266.700305" xlink:href="#m40bd8e34e8" y="246.944466"/>
     <use style="fill:#1f77b4;stroke:#1f77b4;" x="262.479832" xlink:href="#m40bd8e34e8" y="246.944466"/>
     <use style="fill:#1f77b4;stroke:#1f77b4;" x="227.269201" xlink:href="#m40bd8e34e8" y="246.944466"/>
     <use style="fill:#1f77b4;stroke:#1f77b4;" x="201.475151" xlink:href="#m40bd8e34e8" y="246.944466"/>
     <use style="fill:#1f77b4;stroke:#1f77b4;" x="222.851438" xlink:href="#m40bd8e34e8" y="246.944466"/>
     <use style="fill:#1f77b4;stroke:#1f77b4;" x="258.193925" xlink:href="#m40bd8e34e8" y="246.944466"/>
     <use style="fill:#1f77b4;stroke:#1f77b4;" x="270.844849" xlink:href="#m40bd8e34e8" y="246.944466"/>
     <use style="fill:#1f77b4;stroke:#1f77b4;" x="245.050799" xlink:href="#m40bd8e34e8" y="246.944466"/>
     <use style="fill:#1f77b4;stroke:#1f77b4;" x="209.840168" xlink:href="#m40bd8e34e8" y="246.944466"/>
     <use style="fill:#1f77b4;stroke:#1f77b4;" x="205.619695" xlink:href="#m40bd8e34e8" y="246.944466"/>
    </g>
   </g>
   <g id="patch_3">
    <path d="M 57.6 307.584 
L 57.6 41.472 
" style="fill:none;stroke:#000000;stroke-linecap:square;stroke-linejoin:miter;stroke-width:0.8;"/>
   </g>
   <g id="patch_4">
    <path d="M 414.72 307.584 
L 414.72 41.472 
" style="fill:none;stroke:#000000;stroke-linecap:square;stroke-linejoin:miter;stroke-width:0.8;"/>
   </g>
   <g id="patch_5">
    <path d="M 57.6 307.584 
L 414.72 307.584 
" style="fill:none;stroke:#000000;stroke-linecap:square;stroke-linejoin:miter;stroke-width:0.8;"/>
   </g>
   <g id="patch_6">
    <path d="M 57.6 41.472 
L 414.72 41.472 
" style="fill:none;stroke:#000000;stroke-linecap:square;stroke-linejoin:miter;stroke-width:0.8;"/>
   </g>
  </g>
 </g>
 <defs>
  <clipPath id="p2e523f6276">
   <rect height="266.112" width="357.12" x="57.6" y="41.472"/>
  </clipPath>
 </defs>
</svg>
